<?xml version="1.0" encoding="iso-8859-1"?>
<!-- Generator: Adobe Illustrator 19.0.0, SVG Export Plug-In . SVG Version: 6.00 Build 0)  -->
<svg version="1.1" id="Capa_1" xmlns="http://www.w3.org/2000/svg" xmlns:xlink="http://www.w3.org/1999/xlink" x="0px" y="0px"
	 viewBox="0 0 480.002 480.002" style="enable-background:new 0 0 480.002 480.002;" xml:space="preserve">
<g>
	<g>
		<path d="M430.6,27.001c0,0-0.1,0-0.2,0H49.6c-27.5,0.1-49.7,22.4-49.6,49.8c0,0.1,0,0.1,0,0.2v366c0,5.5,4.1,10,9.6,10h460.8
			c5.5,0,9.6-4.5,9.6-10v-366C480.2,49.601,458.1,27.201,430.6,27.001z M460,433.001H20v-296h440V433.001z M460,76.901v40H20v-39.9
			c-0.2-16.4,13-29.8,29.3-30c0.1,0,0.2,0,0.3,0h380.8c16.4,0,29.6,13.4,29.6,29.7C460,76.801,460,76.901,460,76.901z"/>
	</g>
</g>
<g>
	<g>
		<path d="M56.8,52.001c-16.4,0-29.8,13.3-29.8,29.7c0,16.5,13.3,29.8,29.8,29.8c16.4,0,29.8-13.3,29.8-29.8
			S73.2,52.001,56.8,52.001z M56.8,91.601c-5.4,0-9.8-4.4-9.8-9.8c0-5.4,4.4-9.8,9.8-9.8c5.4,0,9.8,4.4,9.8,9.8
			C66.6,87.201,62.2,91.601,56.8,91.601z"/>
	</g>
</g>
<g>
	<g>
		<path d="M121.8,52.001c-16.4,0-29.8,13.3-29.8,29.7c0,16.5,13.3,29.8,29.8,29.8c16.4,0,29.8-13.3,29.8-29.8
			S138.2,52.001,121.8,52.001z M121.8,91.601c-5.4,0-9.8-4.4-9.8-9.8c0-5.4,4.4-9.8,9.8-9.8c5.4,0,9.8,4.4,9.8,9.8
			C131.6,87.201,127.2,91.601,121.8,91.601z"/>
	</g>
</g>
<g>
	<g>
		<path d="M186.8,52.001c-16.4,0-29.8,13.3-29.8,29.7c0,16.5,13.3,29.8,29.8,29.8c16.4,0,29.8-13.3,29.8-29.8
			S203.2,52.001,186.8,52.001z M186.8,91.601c-5.4,0-9.8-4.4-9.8-9.8c0-5.4,4.4-9.8,9.8-9.8c5.4,0,9.8,4.4,9.8,9.8
			C196.6,87.201,192.2,91.601,186.8,91.601z"/>
	</g>
</g>
<g>
	<g>
		<path d="M323.9,355.001H148v-135.9c0-5.5-4.5-10-10-10s-10,4.5-10,10v136.6c0,10.6,8.2,19.4,18.9,19.4H324c5.5,0,10-4.5,10-10
			S329.5,355.001,323.9,355.001z"/>
	</g>
</g>
<g>
	<g>
		<path d="M334.2,231.001c-2.3-0.5-4.8-0.8-7.2-0.8c-14,0-25.4,11.4-25.5,25.4c0,4,1,8,2.8,11.6l-13.4,14.6
			c-8.7-6.5-20.6-6.7-29.6-0.5l-11.5-9.4c-1.3-14-13.7-24.3-27.7-23s-24.3,13.7-23,27.7c0.1,0.6,0.1,1.1,0.2,1.7l-14.4,18
			c-13.5-3.9-27.6,3.9-31.5,17.4c-3.9,13.5,3.9,27.6,17.4,31.5c13.5,3.9,27.6-3.9,31.5-17.4c1.8-6.3,1.1-13.1-1.9-18.9l10.5-13.2
			c10.2,6.4,23.4,4.8,31.8-3.9l7.8,6.4c-2.1,13.9,7.4,26.9,21.3,29c13.9,2.1,26.9-7.4,29-21.3c0.2-1.3,0.3-2.6,0.3-3.9
			c0-0.7,0-1.3-0.1-2l18.6-20.2c13.5,4,27.6-3.7,31.7-17.1C355.3,249.201,347.6,235.101,334.2,231.001z M178,326.201
			c-3,0-5.5-2.4-5.5-5.5c0-3,2.4-5.5,5.5-5.5c3,0,5.5,2.4,5.5,5.5C183.5,323.801,181,326.201,178,326.201z M224.6,279.701
			c-3,0-5.5-2.4-5.5-5.5c0-3,2.4-5.5,5.5-5.5c3,0,5.5,2.4,5.5,5.5C230,277.201,227.6,279.701,224.6,279.701z M275.8,307.601
			c-3,0-5.5-2.4-5.5-5.5c0-3.1,2.4-5.5,5.5-5.5c3,0,5.5,2.4,5.5,5.5C281.2,305.201,278.8,307.601,275.8,307.601z M327,261.101
			c-3,0-5.5-2.4-5.5-5.5c0-3.1,2.4-5.5,5.5-5.5c3,0,5.5,2.4,5.5,5.5C332.4,258.601,330,261.101,327,261.101z"/>
	</g>
</g>
<g>
</g>
<g>
</g>
<g>
</g>
<g>
</g>
<g>
</g>
<g>
</g>
<g>
</g>
<g>
</g>
<g>
</g>
<g>
</g>
<g>
</g>
<g>
</g>
<g>
</g>
<g>
</g>
<g>
</g>
</svg>
