<?xml version="1.0" encoding="iso-8859-1"?>
<!-- Generator: Adobe Illustrator 19.0.0, SVG Export Plug-In . SVG Version: 6.00 Build 0)  -->
<svg version="1.1" id="Capa_1" xmlns="http://www.w3.org/2000/svg" xmlns:xlink="http://www.w3.org/1999/xlink" x="0px" y="0px"
	 viewBox="0 0 480.002 480.002" style="enable-background:new 0 0 480.002 480.002;" xml:space="preserve">
<g>
	<g>
		<path d="M430.6,27.001c0,0-0.1,0-0.2,0H49.6c-27.5,0.1-49.7,22.4-49.6,49.8c0,0.1,0,0.1,0,0.2v366c0,5.5,4.1,10,9.6,10h460.8
			c5.5,0,9.6-4.5,9.6-10v-366C480.2,49.601,458.1,27.201,430.6,27.001z M460,433.001H20v-296h440V433.001z M460,76.901v40H20v-39.9
			c-0.2-16.4,13-29.8,29.3-30c0.1,0,0.2,0,0.3,0h380.8c16.4,0,29.6,13.4,29.6,29.7C460,76.801,460,76.901,460,76.901z"/>
	</g>
</g>
<g>
	<g>
		<path d="M56.8,52.001c-16.4,0-29.8,13.3-29.8,29.7c0,16.5,13.3,29.8,29.8,29.8c16.4,0,29.8-13.3,29.8-29.8
			S73.2,52.001,56.8,52.001z M56.8,91.601c-5.4,0-9.8-4.4-9.8-9.8c0-5.4,4.4-9.8,9.8-9.8c5.4,0,9.8,4.4,9.8,9.8
			C66.6,87.201,62.2,91.601,56.8,91.601z"/>
	</g>
</g>
<g>
	<g>
		<path d="M121.8,52.001c-16.4,0-29.8,13.3-29.8,29.7c0,16.5,13.3,29.8,29.8,29.8c16.4,0,29.8-13.3,29.8-29.8
			S138.2,52.001,121.8,52.001z M121.8,91.601c-5.4,0-9.8-4.4-9.8-9.8c0-5.4,4.4-9.8,9.8-9.8c5.4,0,9.8,4.4,9.8,9.8
			C131.6,87.201,127.2,91.601,121.8,91.601z"/>
	</g>
</g>
<g>
	<g>
		<path d="M186.8,52.001c-16.4,0-29.8,13.3-29.8,29.7c0,16.5,13.3,29.8,29.8,29.8c16.4,0,29.8-13.3,29.8-29.8
			S203.2,52.001,186.8,52.001z M186.8,91.601c-5.4,0-9.8-4.4-9.8-9.8c0-5.4,4.4-9.8,9.8-9.8c5.4,0,9.8,4.4,9.8,9.8
			C196.6,87.201,192.2,91.601,186.8,91.601z"/>
	</g>
</g>
<g>
	<g>
		<path d="M285,203.001h-32.5c-5.6,0-10.2,4.5-10.4,10.1v160.4c0.2,5.7,4.7,10.3,10.4,10.4H285c5.5,0,10-4.9,10-10.4v-160.4
			C295,207.601,290.5,203.101,285,203.001z M275,364.001h-13v-36h13V364.001z M275,308.001h-13v-85h13V308.001z"/>
	</g>
</g>
<g>
	<g>
		<path d="M343.6,178.001h-33.2c-5.7,0.2-10.3,4.8-10.4,10.4v185.1c0.2,5.7,4.7,10.3,10.4,10.5h33.2c5.7-0.2,10.3-4.8,10.4-10.4
			v-185.1C353.8,182.801,349.3,178.201,343.6,178.001z M334,364.001h-14v-36h14V364.001z M334,308.001h-14v-110h14V308.001z"/>
	</g>
</g>
<g>
	<g>
		<path d="M227.1,228.001c-0.1,0-0.1,0-0.1,0h-32.6c-5.5,0-10.4,4.3-10.4,9.8v135.7c0.2,5.7,4.7,10.3,10.4,10.4H227
			c5.5,0,10-4.9,10-10.4v-135.7C237,232.401,232.5,228.001,227.1,228.001z M217,364.001h-13v-36h13V364.001z M217,308.001h-13v-60
			h13V308.001z"/>
	</g>
</g>
<g>
	<g>
		<path d="M169,271.001h-32.6c-5.5,0-10.4,4.5-10.4,10v92.6c0.2,5.7,4.7,10.3,10.4,10.4H169c5.5,0,10-4.9,10-10.4v-92.6
			C179,275.501,174.5,271.001,169,271.001z M159,364.001h-13v-36h13V364.001z M159,308.001h-13v-17h13V308.001z"/>
	</g>
</g>
<g>
</g>
<g>
</g>
<g>
</g>
<g>
</g>
<g>
</g>
<g>
</g>
<g>
</g>
<g>
</g>
<g>
</g>
<g>
</g>
<g>
</g>
<g>
</g>
<g>
</g>
<g>
</g>
<g>
</g>
</svg>
