<?xml version="1.0" encoding="iso-8859-1"?>
<!-- Generator: Adobe Illustrator 19.0.0, SVG Export Plug-In . SVG Version: 6.00 Build 0)  -->
<svg version="1.1" id="Capa_1" xmlns="http://www.w3.org/2000/svg" xmlns:xlink="http://www.w3.org/1999/xlink" x="0px" y="0px"
	 viewBox="0 0 480.002 480.002" style="enable-background:new 0 0 480.002 480.002;" xml:space="preserve">
<g>
	<g>
		<path d="M430.6,27.001c0,0-0.1,0-0.2,0H49.6c-27.5,0.1-49.7,22.4-49.6,49.8c0,0.1,0,0.1,0,0.2v366c0,5.5,4.1,10,9.6,10h460.8
			c5.5,0,9.6-4.5,9.6-10v-366C480.2,49.601,458.1,27.201,430.6,27.001z M460,433.001H20v-296h440V433.001z M460,76.901v40H20v-39.9
			c-0.2-16.4,13-29.8,29.3-30c0.1,0,0.2,0,0.3,0h380.8c16.4,0,29.6,13.4,29.6,29.7C460,76.801,460,76.901,460,76.901z"/>
	</g>
</g>
<g>
	<g>
		<path d="M56.8,52.001c-16.4,0-29.8,13.3-29.8,29.7c0,16.5,13.3,29.8,29.8,29.8c16.4,0,29.8-13.3,29.8-29.8
			S73.2,52.001,56.8,52.001z M56.8,91.601c-5.4,0-9.8-4.4-9.8-9.8c0-5.4,4.4-9.8,9.8-9.8c5.4,0,9.8,4.4,9.8,9.8
			C66.6,87.201,62.2,91.601,56.8,91.601z"/>
	</g>
</g>
<g>
	<g>
		<path d="M121.8,52.001c-16.4,0-29.8,13.3-29.8,29.7c0,16.5,13.3,29.8,29.8,29.8c16.4,0,29.8-13.3,29.8-29.8
			S138.2,52.001,121.8,52.001z M121.8,91.601c-5.4,0-9.8-4.4-9.8-9.8c0-5.4,4.4-9.8,9.8-9.8c5.4,0,9.8,4.4,9.8,9.8
			C131.6,87.201,127.2,91.601,121.8,91.601z"/>
	</g>
</g>
<g>
	<g>
		<path d="M186.8,52.001c-16.4,0-29.8,13.3-29.8,29.7c0,16.5,13.3,29.8,29.8,29.8c16.4,0,29.8-13.3,29.8-29.8
			S203.2,52.001,186.8,52.001z M186.8,91.601c-5.4,0-9.8-4.4-9.8-9.8c0-5.4,4.4-9.8,9.8-9.8c5.4,0,9.8,4.4,9.8,9.8
			C196.6,87.201,192.2,91.601,186.8,91.601z"/>
	</g>
</g>
<g>
	<g>
		<path d="M262,250.001h-45c-5.5,0-10,4.5-10,10v97c0,5.5,4.5,10,10,10h45c5.5,0,10-4.5,10-10v-97
			C272,254.501,267.5,250.001,262,250.001z M253,346.001h-26v-76h26V346.001z"/>
	</g>
</g>
<g>
	<g>
		<path d="M339,198.001h-45c-5.5,0-10,4.5-10,10v148c0,5.5,4.5,10,10,10h45c5.5,0,10-4.5,10-10v-148
			C349,202.501,344.5,198.001,339,198.001z M329,346.001h-25v-128h25V346.001z"/>
	</g>
</g>
<g>
	<g>
		<path d="M186,285.001h-45c-5.5,0-10,4.5-10,10v61c0,5.5,4.5,10,10,10h45c5.5,0,10-4.5,10-10v-61
			C196,289.501,191.5,285.001,186,285.001z M176,346.001h-25v-41h25V346.001z"/>
	</g>
</g>
<g>
</g>
<g>
</g>
<g>
</g>
<g>
</g>
<g>
</g>
<g>
</g>
<g>
</g>
<g>
</g>
<g>
</g>
<g>
</g>
<g>
</g>
<g>
</g>
<g>
</g>
<g>
</g>
<g>
</g>
</svg>
