<?xml version="1.0" encoding="iso-8859-1"?>
<!-- Generator: Adobe Illustrator 19.0.0, SVG Export Plug-In . SVG Version: 6.00 Build 0)  -->
<svg version="1.1" id="Capa_1" xmlns="http://www.w3.org/2000/svg" xmlns:xlink="http://www.w3.org/1999/xlink" x="0px" y="0px"
	 viewBox="0 0 480.002 480.002" style="enable-background:new 0 0 480.002 480.002;" xml:space="preserve">
<g>
	<g>
		<path d="M430.6,27.001c0,0-0.1,0-0.2,0H49.6c-27.5,0.1-49.7,22.4-49.6,49.8c0,0.1,0,0.1,0,0.2v366c0,5.5,4.1,10,9.6,10h460.8
			c5.5,0,9.6-4.5,9.6-10v-366C480.2,49.601,458.1,27.201,430.6,27.001z M460,433.001H20v-296h440V433.001z M460,76.901v40H20v-39.9
			c-0.2-16.4,13-29.8,29.3-30c0.1,0,0.2,0,0.3,0h380.8c16.4,0,29.6,13.4,29.6,29.7C460,76.801,460,76.901,460,76.901z"/>
	</g>
</g>
<g>
	<g>
		<path d="M56.8,52.001c-16.4,0-29.8,13.3-29.8,29.7c0,16.5,13.3,29.8,29.8,29.8c16.4,0,29.8-13.3,29.8-29.8
			S73.2,52.001,56.8,52.001z M56.8,91.601c-5.4,0-9.8-4.4-9.8-9.8c0-5.4,4.4-9.8,9.8-9.8c5.4,0,9.8,4.4,9.8,9.8
			C66.6,87.201,62.2,91.601,56.8,91.601z"/>
	</g>
</g>
<g>
	<g>
		<path d="M121.8,52.001c-16.4,0-29.8,13.3-29.8,29.7c0,16.5,13.3,29.8,29.8,29.8c16.4,0,29.8-13.3,29.8-29.8
			S138.2,52.001,121.8,52.001z M121.8,91.601c-5.4,0-9.8-4.4-9.8-9.8c0-5.4,4.4-9.8,9.8-9.8c5.4,0,9.8,4.4,9.8,9.8
			C131.6,87.201,127.2,91.601,121.8,91.601z"/>
	</g>
</g>
<g>
	<g>
		<path d="M186.8,52.001c-16.4,0-29.8,13.3-29.8,29.7c0,16.5,13.3,29.8,29.8,29.8c16.4,0,29.8-13.3,29.8-29.8
			S203.2,52.001,186.8,52.001z M186.8,91.601c-5.4,0-9.8-4.4-9.8-9.8c0-5.4,4.4-9.8,9.8-9.8c5.4,0,9.8,4.4,9.8,9.8
			C196.6,87.201,192.2,91.601,186.8,91.601z"/>
	</g>
</g>
<g>
	<g>
		<path d="M309.6,293.001H234v-75.9c0-5.5-4.4-10-9.9-10c0,0,0,0-0.1,0c-25.4-0.1-49.7,10-67.6,28c-37.3,37.3-37.3,97.8,0.1,135.1
			s97.8,37.3,135.1-0.1c17.9-17.9,27.9-42.1,27.9-67.3C319.5,297.401,315.1,293.001,309.6,293.001z M277.5,356.201
			c-29.6,29.4-77.5,29.3-106.9-0.4c-14-14.1-21.9-33.3-22-53.2c-0.1-37.8,27.8-69.8,65.3-74.9v74.8c0,5.6,4.5,10.2,10.1,10.4h74.8
			C296.7,329.301,289.1,344.501,277.5,356.201z"/>
	</g>
</g>
<g>
	<g>
		<path d="M323.5,203.901c-0.1-0.1-0.1,0-0.2-0.1c-17.9-17.8-42.1-27.8-67.4-27.8c-5.5,0-9.9,4.5-9.9,9.9c0,0,0,0,0,0.1v85.5
			c0,5.3,4.2,9.6,9.5,9.6c0.1,0,0.3,0,0.4,0h85.5c5.4,0.1,9.9-4.2,10-9.7v-0.1C351.4,246.001,341.4,221.801,323.5,203.901z
			 M266,196.701c3.5,0.5,7,1.2,10.5,2.1l-10.5,10.5V196.701z M266,237.601l30-30c1.9,1.2,3.8,2.5,5.6,3.8l-35.6,35.6V237.601z
			 M279.8,261.001l35.9-35.7c1.4,1.8,2.7,3.6,3.9,5.5l-30.4,30.2H279.8z M317.5,261.001l10.9-10.9c1,3.6,1.7,7.2,2.3,10.9H317.5z"/>
	</g>
</g>
<g>
</g>
<g>
</g>
<g>
</g>
<g>
</g>
<g>
</g>
<g>
</g>
<g>
</g>
<g>
</g>
<g>
</g>
<g>
</g>
<g>
</g>
<g>
</g>
<g>
</g>
<g>
</g>
<g>
</g>
</svg>
