<?xml version="1.0" encoding="iso-8859-1"?>
<!-- Generator: Adobe Illustrator 19.0.0, SVG Export Plug-In . SVG Version: 6.00 Build 0)  -->
<svg version="1.1" id="Capa_1" xmlns="http://www.w3.org/2000/svg" xmlns:xlink="http://www.w3.org/1999/xlink" x="0px" y="0px"
	 viewBox="0 0 480.002 480.002" style="enable-background:new 0 0 480.002 480.002;" xml:space="preserve">
<g>
	<g>
		<path d="M430.6,27.001c0,0-0.1,0-0.2,0H49.6c-27.5,0.1-49.7,22.4-49.6,49.8c0,0.1,0,0.1,0,0.2v366c0,5.5,4.1,10,9.6,10h460.8
			c5.5,0,9.6-4.5,9.6-10v-366C480.2,49.601,458.1,27.201,430.6,27.001z M460,433.001H20v-296h440V433.001z M460,76.901v40H20v-39.9
			c-0.2-16.4,13-29.8,29.3-30c0.1,0,0.2,0,0.3,0h380.8c16.4,0,29.6,13.4,29.6,29.7C460,76.801,460,76.901,460,76.901z"/>
	</g>
</g>
<g>
	<g>
		<path d="M56.8,52.001c-16.4,0-29.8,13.3-29.8,29.7c0,16.5,13.3,29.8,29.8,29.8c16.4,0,29.8-13.3,29.8-29.8
			S73.2,52.001,56.8,52.001z M56.8,91.601c-5.4,0-9.8-4.4-9.8-9.8c0-5.4,4.4-9.8,9.8-9.8c5.4,0,9.8,4.4,9.8,9.8
			C66.6,87.201,62.2,91.601,56.8,91.601z"/>
	</g>
</g>
<g>
	<g>
		<path d="M121.8,52.001c-16.4,0-29.8,13.3-29.8,29.7c0,16.5,13.3,29.8,29.8,29.8c16.4,0,29.8-13.3,29.8-29.8
			S138.2,52.001,121.8,52.001z M121.8,91.601c-5.4,0-9.8-4.4-9.8-9.8c0-5.4,4.4-9.8,9.8-9.8c5.4,0,9.8,4.4,9.8,9.8
			C131.6,87.201,127.2,91.601,121.8,91.601z"/>
	</g>
</g>
<g>
	<g>
		<path d="M186.8,52.001c-16.4,0-29.8,13.3-29.8,29.7c0,16.5,13.3,29.8,29.8,29.8c16.4,0,29.8-13.3,29.8-29.8
			S203.2,52.001,186.8,52.001z M186.8,91.601c-5.4,0-9.8-4.4-9.8-9.8c0-5.4,4.4-9.8,9.8-9.8c5.4,0,9.8,4.4,9.8,9.8
			C196.6,87.201,192.2,91.601,186.8,91.601z"/>
	</g>
</g>
<g>
	<g>
		<path d="M340.3,187.701c-4.4-3.2-9.8-5-15.3-5c-14.1,0-25.6,11.4-25.6,25.5c0,1.1,0.1,2.2,0.2,3.2l-16.4,11.6
			c-11.5-8.2-27.5-5.5-35.7,6c-4.1,5.8-5.7,13.1-4.2,20.1l-14.2,12c-10.4-9.6-26.6-8.9-36.2,1.5c-1.1,1.2-2.2,2.6-3,4l-10.2-4.1
			c-3.9-13.6-18.2-21.4-31.8-17.5c-13.6,3.9-21.4,18.2-17.5,31.8c3.9,13.6,18.2,21.4,31.8,17.5c6.1-1.8,11.4-5.8,14.7-11.3l10.2,4.1
			c3.9,13.6,18.2,21.4,31.7,17.4c10.8-3.1,18.3-13,18.5-24.3l17.4-14.7c12,7.5,27.8,3.9,35.3-8c2.6-4.1,3.9-8.8,3.9-13.7
			c0-1.3-0.1-2.5-0.3-3.7l16-11.3c11.3,8.5,27.4,6.2,35.9-5.2C354,212.301,351.7,196.201,340.3,187.701z M155,275.301
			c-3.1,0-5.6-2.5-5.6-5.6c0-3.1,2.5-5.6,5.6-5.6c3.1,0,5.6,2.5,5.6,5.6C160.7,272.701,158.1,275.301,155,275.301z M211.7,285.601
			c-3.1,0-5.6-2.5-5.6-5.6c0-3.1,2.5-5.6,5.6-5.6c3.1,0,5.6,2.5,5.6,5.6C217.3,283.001,214.8,285.501,211.7,285.601z M268.3,249.501
			c-3.1,0-5.6-2.5-5.6-5.6c0-3.1,2.5-5.6,5.6-5.6c3.1,0,5.6,2.5,5.6,5.6C273.9,247.001,271.4,249.501,268.3,249.501z M325,213.901
			c-3.1,0-5.6-2.5-5.6-5.6c0-3.1,2.5-5.6,5.6-5.6c3.1,0,5.6,2.5,5.6,5.6C330.6,211.401,328.1,213.901,325,213.901z"/>
	</g>
</g>
<g>
	<g>
		<path d="M339,240.001h-28c-5.5,0-10,4.5-10,10v117c0,5.5,4.5,10,10,10h28c5.5,0,10-4.5,10-10v-117
			C349,244.501,344.5,240.001,339,240.001z M329,357.001h-8v-97h8V357.001z"/>
	</g>
</g>
<g>
	<g>
		<path d="M282,276.001h-28c-5.5,0-10,4.5-10,10v82c0,5.5,4.5,10,10,10h28c5.5,0,10-4.5,10-10v-82
			C292,280.501,287.5,276.001,282,276.001z M272,357.001h-8v-61h8V357.001z"/>
	</g>
</g>
<g>
	<g>
		<path d="M226,312.001h-28c-5.5,0-10,4.5-10,10v45c0,5.5,4.5,10,10,10h28c5.5,0,10-4.5,10-10v-45
			C236,316.501,231.5,312.001,226,312.001z M216,357.001h-8v-25h8V357.001z"/>
	</g>
</g>
<g>
	<g>
		<path d="M169,302.001h-28c-5.5,0-10,4.5-10,10v55c0,5.5,4.5,10,10,10h28c5.5,0,10-4.5,10-10v-55
			C179,306.501,174.5,302.001,169,302.001z M159,357.001h-8v-35h8V357.001z"/>
	</g>
</g>
<g>
</g>
<g>
</g>
<g>
</g>
<g>
</g>
<g>
</g>
<g>
</g>
<g>
</g>
<g>
</g>
<g>
</g>
<g>
</g>
<g>
</g>
<g>
</g>
<g>
</g>
<g>
</g>
<g>
</g>
</svg>
