<?xml version="1.0" encoding="iso-8859-1"?>
<!-- Generator: Adobe Illustrator 19.0.0, SVG Export Plug-In . SVG Version: 6.00 Build 0)  -->
<svg version="1.1" id="Capa_1" xmlns="http://www.w3.org/2000/svg" xmlns:xlink="http://www.w3.org/1999/xlink" x="0px" y="0px"
	 viewBox="0 0 494 494" style="enable-background:new 0 0 494 494;" xml:space="preserve">
<g>
	<g>
		<path d="M457.7,37.75c-21.5-10.5-47.4-1.6-57.9,19.9c-7.2,14.7-5.4,32.2,4.5,45.2l-42.5,46.2c-15.2-18.3-42.4-20.8-60.7-5.6
			c-1.2,1-2.3,2-3.4,3.2l-36-29.4c0-0.2,0-0.4,0-0.6c0-23.9-19.3-43.2-43.2-43.2c-23.9,0-43.2,19.3-43.2,43.2
			c0,3.9,0.5,7.8,1.6,11.6l-39.6,49.5c-21.5-10.4-47.3-1.3-57.7,20.1c-10.4,21.4-1.3,47.3,20.1,57.7c5.9,2.9,12.3,4.3,18.8,4.3
			c23.8,0,43.2-19.3,43.2-43.1c0-9.5-3.1-18.8-8.9-26.3l34.9-43.6c16.6,17.1,43.9,17.4,61,0.8c2.8-2.8,5.3-5.9,7.2-9.3l31.4,25.7
			c-7,22.8,5.8,47,28.6,54s47-5.8,54-28.6c2.1-6.8,2.5-13.9,1.1-20.9l48.7-53c21.5,10.5,47.4,1.6,57.9-19.9S479.2,48.25,457.7,37.75
			z M118.5,239.85c-12.8,0-23.2-10.4-23.2-23.2c0-12.8,10.4-23.1,23.2-23.2c12.8,0,23.2,10.4,23.2,23.2
			C141.7,229.45,131.3,239.85,118.5,239.85z M218.5,139.85c-12.8,0-23.2-10.4-23.2-23.2c0-12.8,10.4-23.1,23.2-23.2
			c12.8,0,23.2,10.4,23.2,23.2S231.3,139.85,218.5,139.85z M328.5,199.85c-12.8,0-23.2-10.4-23.2-23.2c0-12.8,10.4-23.1,23.2-23.2
			c12.8,0,23.2,10.4,23.2,23.2C351.7,189.45,341.3,199.85,328.5,199.85z M438.5,99.85c-12.8,0-23.2-10.4-23.2-23.2
			c0-12.8,10.4-23.1,23.2-23.2c12.8,0,23.2,10.4,23.2,23.2C461.7,89.45,451.3,99.85,438.5,99.85z"/>
	</g>
</g>
<g>
	<g>
		<path d="M361.7,223.45c-44.6,0-86.1,22.5-110.5,59.8H60V16.65c0-5.5-4.5-10.4-10-10.4H10c-5.5,0-10,4.9-10,10.4v296.3
			c0,16.6,13.4,30.1,30,30.2h200c-0.4,4-0.6,8.2-0.6,12.4c0,72.9,59.3,132.2,132.3,132.2S494,428.55,494,355.65
			S434.6,223.45,361.7,223.45z M233.5,323.25H30c-5.6-0.1-10-4.7-10-10.2V26.25h20v266.8c0,5.6,4.5,10.1,10,10.2h190.3
			C237.4,309.65,235.1,316.35,233.5,323.25z M361.7,467.85c-62,0-112.3-50.3-112.3-112.3s50.3-112.3,112.3-112.3
			S474,293.55,474,355.55C473.9,417.55,423.7,467.75,361.7,467.85z"/>
	</g>
</g>
<g>
	<g>
		<path d="M412,288.25H312c-16.6,0-30,13.4-30,30v76c0,16.6,13.4,30,30,30h100c16.6,0,30-13.4,30-30v-76
			C442,301.65,428.6,288.25,412,288.25z M422,365.25h-26v-19h26V365.25z M422,326.25h-26.3c-10.9,0-19.7,8.9-19.7,19.9
			c0,0.1,0,0.1,0,0.2v19.4c-0.1,10.7,8.5,19.5,19.2,19.6c0.2,0,0.3,0,0.5,0H422v8.6c0,5.4-4.5,10.3-10,10.3H312
			c-5.5,0-10-4.9-10-10.4v-76c0-5.3,4.4-9.6,9.7-9.6c0.1,0,0.2,0,0.3,0h100c5.5,0,10,4.1,10,9.6V326.25z"/>
	</g>
</g>
<g>
</g>
<g>
</g>
<g>
</g>
<g>
</g>
<g>
</g>
<g>
</g>
<g>
</g>
<g>
</g>
<g>
</g>
<g>
</g>
<g>
</g>
<g>
</g>
<g>
</g>
<g>
</g>
<g>
</g>
</svg>
