<?xml version="1.0" encoding="iso-8859-1"?>
<!-- Generator: Adobe Illustrator 19.0.0, SVG Export Plug-In . SVG Version: 6.00 Build 0)  -->
<svg version="1.1" id="Capa_1" xmlns="http://www.w3.org/2000/svg" xmlns:xlink="http://www.w3.org/1999/xlink" x="0px" y="0px"
	 viewBox="0 0 497.6 497.6" style="enable-background:new 0 0 497.6 497.6;" xml:space="preserve">
<g>
	<g>
		<path d="M422,245.767v-234.4c0-5.5-4.5-10-10-10c-0.5,0-1,0-1.5,0.1l-46.9,7.3l-32.4-8.4c-3.7-1-7.7,0.3-10.1,3.2l-31.8,37.4
			l-36.4-8.9c-3.7-0.9-7.6,0.4-10,3.3l-31.4,37.4l-36.9-34.5c-3.1-2.9-7.6-3.5-11.3-1.6l-28.4,14.1l-40.4-35.3
			c-2-1.8-4.7-2.6-7.4-2.4c-2.7,0.2-5.3,1.5-7.1,3.6l-22,26.3v-27c0-5.5-4.1-10.2-9.7-10.2H10.4c-5.6,0.1-10.2,4.6-10.4,10.2v294.9
			c0,15.9,13.4,28.9,29.4,28.9h206.1c-1.7,8.4-2.5,17-2.5,25.5c0,72.9,59.3,132.3,132.3,132.3s132.3-59.3,132.3-132.3
			C497.5,314.267,468.1,267.767,422,245.767z M58,74.167l30.9-36.9l37.9,32.9c3.1,2.7,7.5,3.2,11.1,1.4l28-14l39.6,36.9
			c4,3.8,10.4,3.6,14.1-0.5c0.1-0.1,0.2-0.3,0.4-0.4l34.2-40.8l36.4,8.9c3.7,0.9,7.6-0.3,10-3.2l31.7-37.4l28.4,7.4
			c1.3,0.3,2.7,0.4,4.1,0.2l37.4-5.8v61.2l-30.9-15.3c-4.1-2.1-9.2-1-12.2,2.5l-32.6,38.9l-36-22c-4.2-2.6-9.7-1.7-12.9,2.1
			l-36.8,43.7l-43.7-18.1c-3.6-1.5-7.8-0.7-10.7,1.9l-35.4,33.1l-21.2-36.5c-2.8-4.8-8.9-6.4-13.7-3.6c-0.4,0.2-0.7,0.4-1,0.7
			l-29.6,22.4l-27.5-16.4V74.167z M58,140.867l23.1,13.7c3.5,2.1,8,1.9,11.3-0.6l25.9-19.7l21.8,37.6c2.8,4.8,8.9,6.4,13.7,3.6
			c0.6-0.4,1.3-0.8,1.8-1.3l39.9-37.3l44.5,18.4c4,1.7,8.7,0.5,11.5-2.8l35.9-42.7l36,22.1c4.2,2.6,9.7,1.7,12.9-2.1l33.1-39.5
			l32.6,16.4v50.2l-29.9-10.8c-4.5-1.6-9.5,0.1-12,4.2l-32.8,53.7l-32.8-21.8c-4.3-2.9-10.1-2-13.3,2.1l-34.2,42.4l-33.1-26.9
			c-3.5-2.8-8.4-3-12.1-0.4l-33.4,23.6l-41.7-26.7c-3.9-2.5-9-2-12.3,1.2l-33.7,32l-22.7-6.6V140.867z M58,243.667l22.6,6.7
			c1,0.3,1.9,0.4,2.9,0.4c2.6,0,5.1-1,7-2.8l32-30.6l40.8,26.1c3.4,2.2,7.8,2.1,11.2-0.3l32.7-23.1l35.1,28.4
			c4.3,3.5,10.6,2.8,14.1-1.5l34.8-43.2l33.9,22.5c4.6,3.1,10.8,1.8,13.9-2.8c0.1-0.1,0.1-0.2,0.2-0.3l33.9-55.6l29,10.5v60
			c-12-3.3-24.4-5.1-36.8-5.1c-39.8-0.1-77.5,17.8-102.6,48.8H58V243.667z M241,319.767H29.4c-4.9,0-9.4-4-9.4-8.9v-285.1h18v266.1
			c0,5.5,4.8,9.9,10.3,9.9h200.9C246.1,307.567,243.4,313.567,241,319.767z M365.3,477.567c-62,0-112.3-50.3-112.3-112.3
			s50.3-112.3,112.3-112.3s112.3,50.3,112.3,112.3C477.5,427.267,427.3,477.467,365.3,477.567z"/>
	</g>
</g>
<g>
	<g>
		<path d="M469,359.667c-8.7-11.3-18.6-21.7-29.5-30.9c-24.4-20.6-50-31.5-73.9-31.5c-24,0-49.5,10.9-73.9,31.5
			c-10.9,9.2-20.8,19.6-29.5,30.9c-2.6,3.5-2.6,8.3,0,11.8c8.7,11.3,18.6,21.7,29.5,30.9c24.4,20.6,50,31.5,73.9,31.5
			c23.9,0,49.5-10.9,73.9-31.5c10.9-9.2,20.8-19.6,29.5-30.9C471.6,367.967,471.6,363.167,469,359.667z M365.6,413.867
			c-37.5,0-70.6-34.3-82.5-48.3c11.9-14.1,44.9-48.3,82.5-48.3c37.5,0,70.5,34.3,82.5,48.3
			C436.1,379.667,403.1,413.867,365.6,413.867z"/>
	</g>
</g>
<g>
	<g>
		<path d="M365.6,323.367c-23.3,0-42.2,18.9-42.2,42.2s18.9,42.2,42.2,42.2c23.3,0,42.2-18.9,42.2-42.2
			C407.7,342.267,388.9,323.467,365.6,323.367z M365.6,387.767c-12.2,0-22.2-9.9-22.2-22.2c0-12.3,9.9-22.2,22.2-22.2
			c12.2,0,22.2,9.9,22.2,22.2C387.7,377.767,377.8,387.767,365.6,387.767z"/>
	</g>
</g>
<g>
</g>
<g>
</g>
<g>
</g>
<g>
</g>
<g>
</g>
<g>
</g>
<g>
</g>
<g>
</g>
<g>
</g>
<g>
</g>
<g>
</g>
<g>
</g>
<g>
</g>
<g>
</g>
<g>
</g>
</svg>
