<?xml version="1.0" encoding="iso-8859-1"?>
<!-- Generator: Adobe Illustrator 19.0.0, SVG Export Plug-In . SVG Version: 6.00 Build 0)  -->
<svg version="1.1" id="Capa_1" xmlns="http://www.w3.org/2000/svg" xmlns:xlink="http://www.w3.org/1999/xlink" x="0px" y="0px"
	 viewBox="0 0 503.2 503.2" style="enable-background:new 0 0 503.2 503.2;" xml:space="preserve">
<g>
	<g>
		<path d="M150.5,284.2c-6.6-10.3-11.3-21.7-13.8-33.6c-1-4.6-5.1-8-9.8-7.9H10c-5.5,0-10,4.5-10,10c0,0.1,0,0.1,0,0.2
			c0,0.5,0,1,0.1,1.5c4.4,45.7,22.4,89,51.6,124.5c1.8,2.2,4.4,3.5,7.2,3.6c0.2,0,0.3,0,0.5,0c2.7,0,5.2-1.1,7.1-2.9l82.7-82.7
			C152.5,293.4,153.1,288.1,150.5,284.2z M60.3,357.3c-20.6-27.9-34.1-60.4-39.1-94.7H119c2.5,8.9,6,17.4,10.5,25.5L60.3,357.3z"/>
	</g>
</g>
<g>
	<g>
		<path d="M211.2,325.6c-11.8-2.5-23-7.1-33-13.6c-4-2.6-9.2-2.1-12.6,1.3L83.1,396c-3.9,3.9-3.9,10.2,0,14.1
			c0.2,0.2,0.5,0.4,0.7,0.6c35.4,29.2,78.8,47.1,124.5,51.6c0.7,0.1,1.3,0.1,2,0.1h0.2c5.5,0,10-4.5,10-10V335.6
			C220.6,330.3,216.5,325.9,211.2,325.6z M200.6,441.2c-34.5-5-67.3-18.4-95.3-39.1l69-69.1c8.3,4.6,17.2,8.2,26.3,10.6V441.2z"/>
	</g>
</g>
<g>
	<g>
		<path d="M461.9,208.7C451.3,99.4,364.2,12,254.8,1c-5.5-0.5-10.4,3.5-10.9,9c0,0.3,0,0.6,0,0.9c0,0-0.2,29.3-0.4,58.5
			c-0.1,14.6-0.2,29.3-0.3,40.3c0,5.5-0.1,10.1-0.1,13.3c0,1.6,0,2.9,0,3.8c-0.1,8,4.7,10.3,7.6,10.9c0.1,0,0.2,0,0.2,0
			c37.2,7.8,66.3,36.9,74.1,74.1c1,4.6,5.1,7.8,9.8,7.7H452c2.8,0.1,5.5-1,7.4-3.1C461.3,214.3,462.2,211.5,461.9,208.7z M342.7,200
			c-11-38.6-41.1-68.7-79.6-79.8c0-17.5,0.3-62.1,0.6-97.9c91.4,14.3,162.9,86.1,177,177.5L342.7,200z"/>
	</g>
</g>
<g>
	<g>
		<path d="M209.8,0.4c-0.4,0-0.8,0-1.2,0.1c-0.1,0-0.3,0-0.4,0C98.5,11.5,11.6,98,0.2,207.6c-0.6,5.5,3.4,10.4,8.9,11
			c0.3,0,0.7,0,1,0h117c4.7,0,8.8-3.3,9.8-7.9c7.9-36.4,37.8-66,74.3-73.5c4.6-1,8-5,8-9.8l0.5-117C219.7,4.9,215.3,0.4,209.8,0.4z
			 M21.5,198.6c0.9-5.8,2-11.6,3.4-17.3l17.3,17.3H21.5z M70.4,198.6l-39-39c2.4-6.8,5.2-13.4,8.4-19.9l58.9,58.9H70.4z
			 M121.3,192.8l-71.5-71.4c3.5-5.8,7.3-11.4,11.4-16.9l69,69C126.6,179.7,123.6,186.1,121.3,192.8z M148.9,149
			c-2.5,2.5-4.9,5.1-7.1,7.8L74,89c2.3-2.6,4.8-5.1,7.2-7.6c2.3-2.2,4.6-4.4,6.9-6.6l67.8,67.8C153.5,144.6,151.2,146.8,148.9,149z
			 M172.5,130.9L103.6,62c5.4-4.1,11-7.9,16.8-11.4l71.4,71.3C185.1,124.3,178.7,127.3,172.5,130.9z M199.3,101.2l-60.6-60.6
			c6.5-3.1,13.1-6,19.9-8.4l40.9,40.9L199.3,101.2z M199.5,44.8l-19.3-19.3c6.4-1.6,12.9-2.9,19.4-3.8L199.5,44.8z"/>
	</g>
</g>
<g>
	<g>
		<path d="M370.9,238.2c-72.9,0-132.3,59.3-132.3,132.3s59.3,132.3,132.3,132.3s132.3-59.3,132.3-132.3S443.9,238.2,370.9,238.2z
			 M370.9,482.7c-62,0-112.3-50.3-112.3-112.3s50.3-112.3,112.3-112.3s112.3,50.3,112.3,112.3C483.1,432.4,432.9,482.7,370.9,482.7z
			"/>
	</g>
</g>
<g>
	<g>
		<path d="M474.6,364.8c-8.7-11.3-18.6-21.7-29.5-30.9c-24.4-20.6-50-31.5-73.9-31.5c-24,0-49.5,10.9-73.9,31.5
			c-10.9,9.2-20.8,19.6-29.5,30.9c-2.6,3.5-2.6,8.3,0,11.8c8.7,11.3,18.6,21.7,29.5,30.9c24.4,20.6,50,31.5,73.9,31.5
			c23.9,0,49.5-10.9,73.9-31.5c10.9-9.2,20.8-19.6,29.5-30.9C477.2,373.1,477.2,368.3,474.6,364.8z M371.2,419.1
			c-37.5,0-70.5-34.3-82.5-48.3c12-14.1,45-48.3,82.5-48.3s70.5,34.3,82.5,48.3C441.8,384.8,408.8,419.1,371.2,419.1z"/>
	</g>
</g>
<g>
	<g>
		<path d="M371.2,328.6c-23.3,0-42.2,18.9-42.2,42.2c0,23.3,18.9,42.2,42.2,42.2c23.3,0,42.2-18.9,42.2-42.2
			C413.3,347.5,394.5,328.6,371.2,328.6z M371.2,392.9c-12.2,0-22.2-9.9-22.2-22.2c0-12.3,9.9-22.2,22.2-22.2
			c12.2,0,22.2,9.9,22.2,22.2C393.3,383,383.4,392.9,371.2,392.9z"/>
	</g>
</g>
<g>
</g>
<g>
</g>
<g>
</g>
<g>
</g>
<g>
</g>
<g>
</g>
<g>
</g>
<g>
</g>
<g>
</g>
<g>
</g>
<g>
</g>
<g>
</g>
<g>
</g>
<g>
</g>
<g>
</g>
</svg>
