<?xml version="1.0" encoding="iso-8859-1"?>
<!-- Generator: Adobe Illustrator 19.0.0, SVG Export Plug-In . SVG Version: 6.00 Build 0)  -->
<svg version="1.1" id="Capa_1" xmlns="http://www.w3.org/2000/svg" xmlns:xlink="http://www.w3.org/1999/xlink" x="0px" y="0px"
	 viewBox="0 0 500.027 500.027" style="enable-background:new 0 0 500.027 500.027;" xml:space="preserve">
<g>
	<g>
		<path d="M395.863,7.226l-101.9-7.2c-5.5-0.4-10.3,3.8-10.6,9.3c-0.4,5.5,3.7,10.2,9.2,10.6l75.8,5.4l-136.9,106.4l-102.2-80.5
			c-3.9-3.1-9.5-2.8-13.1,0.6l-104.2,99.9c-4,3.8-4.1,10.2-0.3,14.1c1.9,2,4.5,3.1,7.2,3.1c2.6,0,5.1-1,6.9-2.8l97.9-93.9l101.6,80
			c3.6,2.8,8.7,2.9,12.3,0l145.7-113.1l-5.5,71.8c-0.4,5.5,3.7,10.3,9.2,10.7c0.3,0,0.5,0,0.8,0c5.2,0,9.6-4,10-9.2l7.3-94.5
			C405.463,12.426,401.363,7.626,395.863,7.226z"/>
	</g>
</g>
<g>
	<g>
		<path d="M376.963,236.126v-41.3c0-5.5-4.8-9.6-10.4-9.6h-63.6c-5.4-0.2-9.8,4-10,9.4c0,0.1,0,0.2,0,0.2v63.5
			c-18.8,12.4-34,29.6-44,49.9v-81.4c0-5.5-4.6-9.6-10.1-9.6h-63.6c-5.5,0-10.3,4-10.3,9.6v141.3h-44v-98.8
			c0.1-5.5-4.3-10.1-9.9-10.2h-63.6c-5.5,0-9.5,4.6-9.5,10.2v98.8h-27.1c-5.5,0-10,4.5-10,10s4.5,10,10,10h225.2
			c9.9,64.5,65.4,112.1,130.7,111.9c72.9,0,132.4-59.2,132.4-132.2C499.263,298.226,444.963,241.126,376.963,236.126z
			 M100.963,368.126h-43v-89h43V368.126z M228.963,368.126h-44v-131h44V368.126z M312.963,205.126h44v31c-15.2,1.1-30.1,4.9-44,11.1
			V205.126z M366.763,480.226c-62,0-112.3-50.3-112.3-112.3s50.3-112.3,112.3-112.3s112.3,50.3,112.3,112.3
			C478.963,429.926,428.763,480.226,366.763,480.226z"/>
	</g>
</g>
<g>
	<g>
		<path d="M470.463,362.326c-8.7-11.3-18.6-21.7-29.5-30.9c-24.4-20.6-50-31.5-73.9-31.5c-24,0-49.5,10.9-73.9,31.5
			c-10.9,9.2-20.8,19.6-29.5,30.9c-2.6,3.5-2.6,8.3,0,11.8c8.7,11.3,18.6,21.7,29.5,30.9c24.4,20.6,50,31.5,73.9,31.5
			c23.9,0,49.5-10.9,73.9-31.5c10.9-9.2,20.8-19.6,29.5-30.9C473.063,370.626,473.063,365.826,470.463,362.326z M367.063,416.626
			c-37.5,0-70.5-34.3-82.5-48.3c12-14.1,45-48.3,82.5-48.3s70.5,34.3,82.5,48.3C437.563,382.326,404.563,416.626,367.063,416.626z"
			/>
	</g>
</g>
<g>
	<g>
		<path d="M367.063,326.126c-23.3,0-42.2,18.9-42.2,42.2c0,23.3,18.9,42.2,42.2,42.2c23.3,0,42.2-18.9,42.2-42.2
			C409.163,345.026,390.363,326.126,367.063,326.126z M367.063,390.426c-12.2,0-22.2-9.9-22.2-22.2c0-12.3,9.9-22.2,22.2-22.2
			c12.2,0,22.2,9.9,22.2,22.2C389.163,380.526,379.263,390.426,367.063,390.426z"/>
	</g>
</g>
<g>
</g>
<g>
</g>
<g>
</g>
<g>
</g>
<g>
</g>
<g>
</g>
<g>
</g>
<g>
</g>
<g>
</g>
<g>
</g>
<g>
</g>
<g>
</g>
<g>
</g>
<g>
</g>
<g>
</g>
</svg>
