<?xml version="1.0" encoding="iso-8859-1"?>
<!-- Generator: Adobe Illustrator 19.0.0, SVG Export Plug-In . SVG Version: 6.00 Build 0)  -->
<svg version="1.1" id="Capa_1" xmlns="http://www.w3.org/2000/svg" xmlns:xlink="http://www.w3.org/1999/xlink" x="0px" y="0px"
	 viewBox="0 0 467.7 467.7" style="enable-background:new 0 0 467.7 467.7;" xml:space="preserve">
<g>
	<g>
		<path d="M99,176.85H10c-5.5,0-10,4.5-10,10v120c0,5.5,4.5,10,10,10h89c5.5,0,10-4.5,10-10v-120C109,181.35,104.5,176.85,99,176.85
			z M89,296.85H20v-100h69V296.85z"/>
	</g>
</g>
<g>
	<g>
		<path d="M408,220.15V14.85c0-5.5-4-10-9.5-10h-89c-5.5,0-9.5,4.5-9.5,10v188.4c-14.7,4.1-28.6,10.8-41,19.7v-106.3
			c-0.1-5.5-4.7-9.9-10.3-9.8h-89c-5.3-0.1-9.7,4.2-9.8,9.5c0,0.1,0,0.2,0,0.3v190.1c-0.1,5.5,4.2,10,9.7,10.1c0,0,0,0,0.1,0h44.4
			c-0.5,4.6-0.7,9.2-0.7,13.8c0,72.9,59.3,132.2,132.3,132.2s132-59.4,132-132.3C467.7,286.05,445.3,244.55,408,220.15z M320,24.85
			h68v184.4c-16.5-7.3-34.3-11-52.3-11c-5.3,0-10.5,0.3-15.7,1V24.85z M170,296.85v-170h69v113.9c-14.9,15.8-25.7,35.1-31.1,56.1
			H170z M335.7,442.85c-62,0-112.3-50.3-112.3-112.3s50.3-112.3,112.3-112.3S448,268.55,448,330.55
			C447.9,392.55,397.7,442.75,335.7,442.85z"/>
	</g>
</g>
<g>
	<g>
		<path d="M439.4,325.85c-8.7-11.3-18.6-21.7-29.5-30.9c-24.4-20.6-49.9-31.5-73.9-31.5s-49.5,10.9-73.9,31.5
			c-10.9,9.2-20.8,19.6-29.5,30.9c-2.6,3.5-2.6,8.3,0,11.8c8.7,11.3,18.6,21.7,29.5,30.9c24.4,20.6,50,31.5,73.9,31.5
			c23.9,0,49.5-10.9,73.9-31.5c10.9-9.2,20.8-19.6,29.5-30.9C442,334.15,442,329.35,439.4,325.85z M336,380.15
			c-37.5,0-70.5-34.3-82.5-48.3c12-14.1,45-48.3,82.5-48.3s70.5,34.3,82.5,48.3C406.5,345.85,373.5,380.15,336,380.15z"/>
	</g>
</g>
<g>
	<g>
		<path d="M336,289.65c-23.3,0-42.2,18.9-42.2,42.2c0,23.3,18.9,42.2,42.2,42.2c23.3,0,42.2-18.9,42.2-42.2
			C378.1,308.55,359.3,289.65,336,289.65z M336,353.95c-12.2,0-22.2-9.9-22.2-22.2c0-12.3,9.9-22.2,22.2-22.2
			c12.2,0,22.2,9.9,22.2,22.2C358.2,344.05,348.2,353.95,336,353.95z"/>
	</g>
</g>
<g>
</g>
<g>
</g>
<g>
</g>
<g>
</g>
<g>
</g>
<g>
</g>
<g>
</g>
<g>
</g>
<g>
</g>
<g>
</g>
<g>
</g>
<g>
</g>
<g>
</g>
<g>
</g>
<g>
</g>
</svg>
