<?xml version="1.0" encoding="iso-8859-1"?>
<!-- Generator: Adobe Illustrator 19.0.0, SVG Export Plug-In . SVG Version: 6.00 Build 0)  -->
<svg version="1.1" id="Capa_1" xmlns="http://www.w3.org/2000/svg" xmlns:xlink="http://www.w3.org/1999/xlink" x="0px" y="0px"
	 viewBox="0 0 482.025 482.025" style="enable-background:new 0 0 482.025 482.025;" xml:space="preserve">
<g>
	<g>
		<path d="M457.6,80.063c-6.1-2.8-12.5-4.3-19-4.3c-23.8,0-43.2,19.3-43.2,43.1c0,9.5,3.1,18.7,8.9,26.3l-42.5,46.2
			c-15.2-18.3-42.4-20.9-60.7-5.7c-1.2,1-2.3,2-3.4,3.1l-35.9-29.6c0-0.1,0-0.2,0-0.3c0-23.9-19.3-43.2-43.2-43.2
			c-23.9,0-43.2,19.3-43.2,43.2c0,4,0.5,7.9,1.6,11.7l-39.6,49.5c-21.5-10.5-47.4-1.5-57.9,20s-1.5,47.4,20,57.9s47.4,1.5,57.9-20
			c7.2-14.7,5.4-32.2-4.5-45.2l34.9-43.6c16.7,17,44,17.3,61,0.7c2.8-2.8,5.3-5.9,7.3-9.4l31.3,25.8c-7.1,22.8,5.7,47,28.5,54.1
			c22.8,7.1,47-5.7,54.1-28.5c2.1-6.8,2.5-14,1.2-20.9l48.8-53.1c21.5,10.4,47.3,1.4,57.7-20.1S479.1,90.463,457.6,80.063z
			 M118.6,282.163c-12.8,0-23.2-10.4-23.2-23.2c0-12.8,10.4-23.2,23.2-23.2c12.8,0,23.2,10.4,23.2,23.2
			C141.8,271.763,131.4,282.163,118.6,282.163z M218.6,182.163c-12.8,0-23.2-10.4-23.2-23.2c0-12.8,10.4-23.2,23.2-23.2
			c12.8,0,23.2,10.4,23.2,23.2C241.8,171.763,231.4,182.163,218.6,182.163z M328.6,242.163c-12.8,0-23.2-10.4-23.2-23.2
			c0-12.8,10.4-23.2,23.2-23.2c12.8,0,23.2,10.4,23.2,23.2C351.8,231.763,341.4,242.163,328.6,242.163z M438.6,142.163
			c-12.8,0-23.2-10.4-23.2-23.2c0-12.8,10.4-23.2,23.2-23.2c12.8,0,23.2,10.4,23.2,23.2C461.8,131.763,451.4,142.163,438.6,142.163z
			"/>
	</g>
</g>
<g>
	<g>
		<path d="M451.1,304.063H412v-9.3c0-10.9-8.9-19.7-19.8-19.7c-0.1,0-0.1,0-0.2,0h-50.4c-10.8-0.1-19.6,8.6-19.6,19.3
			c0,0.1,0,0.3,0,0.4v9.3h-39.4c-13.1,0.1-24.6,8.5-28.6,21H60v-306.1c0.1-5.4-4.2-9.8-9.6-9.9c-0.1,0-0.1,0-0.2,0h-40
			c-5.6-0.1-10.1,4.4-10.2,9.9v336.3c0,16.5,13.7,29.7,30.2,29.7H253v58.1c-0.2,16.4,13,29.8,29.4,29.9c0.1,0,0.2,0,0.3,0h168.4
			c16.5,0,29.9-13.4,29.9-29.9v-108.8C481,317.663,467.6,304.163,451.1,304.063z M253,365.063H30.2c-5.5,0.1-10.1-4.2-10.2-9.7
			v-326.3h20v306.3c0.1,5.5,4.7,9.9,10.2,9.7H253V365.063z M407.1,378.963l-13,13.1l-24.3-24.5l13-12.9L407.1,378.963z M342,295.063
			h50v9h-50V295.063z M461,443.163c0,5.5-4.4,9.9-9.9,9.9H451H282.6c-5.3,0-9.6-4.3-9.6-9.6c0-0.1,0-0.2,0-0.3v-108.9
			c0-5.5,4.1-10.2,9.6-10.2H373v12l-24.4,24.4c-3.9,3.9-3.9,10.2,0,14.1l30.6,30.9l7.9,7.7c1.9,1.8,4.4,2.9,7.1,2.8
			c2.6,0,5.2-1,7.1-2.8l27.1-27.3c3.9-3.9,3.8-10.2-0.1-14.1l-35.3-35.1v-12.6h58.1c5.5,0.1,10,4.7,9.9,10.2V443.163z"/>
	</g>
</g>
<g>
</g>
<g>
</g>
<g>
</g>
<g>
</g>
<g>
</g>
<g>
</g>
<g>
</g>
<g>
</g>
<g>
</g>
<g>
</g>
<g>
</g>
<g>
</g>
<g>
</g>
<g>
</g>
<g>
</g>
</svg>
