<?xml version="1.0" encoding="iso-8859-1"?>
<!-- Generator: Adobe Illustrator 19.0.0, SVG Export Plug-In . SVG Version: 6.00 Build 0)  -->
<svg version="1.1" id="Capa_1" xmlns="http://www.w3.org/2000/svg" xmlns:xlink="http://www.w3.org/1999/xlink" x="0px" y="0px"
	 viewBox="0 0 470.1 470.1" style="enable-background:new 0 0 470.1 470.1;" xml:space="preserve">
<g>
	<g>
		<path d="M398.6,56l-0.1-0.1C361.8,19.9,313.8,0,263.3,0c-5.5,0-10,4.5-10,10v181.2c0,5.5,4.5,9.9,10,9.9h181.2
			c5.5,0,10-4.4,10-9.9C454.5,140.7,434.7,92.7,398.6,56z M273.3,20.3c18.6,1,36.8,5.1,54,12.1l-54,54V20.3z M273.3,114.7l73.2-73.2
			c10.8,6,21,13.2,30.3,21.4L273.3,166.5V114.7z M286.9,181.1L391,77c8.2,9.3,15.4,19.4,21.5,30.2l-73.9,73.9H286.9z M366.9,181.1
			l54.8-54.8c7.2,17.5,11.4,36,12.5,54.8H366.9z"/>
	</g>
</g>
<g>
	<g>
		<path d="M435.7,301.1h-39.4v-9.2c0.1-7.2-3.8-13.8-10-17.4c0.5-5.7,0.9-11.5,0.9-17.3c0.1-5.5-4.4-10-9.9-10.1h-171v-171
			c0-5.5-4.6-10-10.1-10c-50.8-0.2-99.6,20-135.4,56c-36,36.7-55.9,84.7-55.9,135.2c0,105.4,85.8,191.2,191.2,191.2
			c13.9,0,27.8-1.5,41.4-4.5c1.9,15,14.7,26.1,29.7,26.1h168.4c16.3,0,29.6-13.2,29.6-29.6c0-0.1,0-0.2,0-0.3V331.3
			C465.3,314.8,452.3,301.1,435.7,301.1z M376.3,301.1h-50v-9h50V301.1z M391.8,376l-13,13.1l-24.3-24.5l13-12.9L391.8,376z
			 M237.3,331.2v92.2c-13.5,3.3-27.3,5-41.2,4.9c-94.4,0.2-171.2-76.6-171.2-171c0-45.3,17.9-88.3,50.2-121.1
			c29.7-29.7,69.3-47.5,111.2-49.8v170.9c-0.1,5.3,4.2,9.7,9.5,9.8c0.1,0,0.2,0,0.3,0H367c-0.1,2-0.2,3-0.3,5h-40.4
			c-10.9-0.1-19.9,8.7-20,19.6v0.1v9.2h-39C250.7,301.1,237.3,314.6,237.3,331.2z M445.3,440.2c0.2,5.3-4,9.7-9.2,9.9
			c-0.1,0-0.2,0-0.3,0H267.3c-5.5,0-9.9-4.3-10-9.8v-0.1V331.3c0-5.6,4.4-10.1,10-10.2h90v12.1l-24.2,24.4
			c-3.9,3.9-3.8,10.2,0.1,14.1l30.7,30.9l7.9,7.7c1.9,1.8,4.5,2.8,7.1,2.8c2.6,0,5.2-1,7.1-2.8l27.1-27.3c3.8-4,3.7-10.3-0.2-14.1
			l-35.6-35.2v-12.6h58.4c5.5,0,9.6,4.7,9.6,10.2V440.2z"/>
	</g>
</g>
<g>
</g>
<g>
</g>
<g>
</g>
<g>
</g>
<g>
</g>
<g>
</g>
<g>
</g>
<g>
</g>
<g>
</g>
<g>
</g>
<g>
</g>
<g>
</g>
<g>
</g>
<g>
</g>
<g>
</g>
</svg>
