<?xml version="1.0" encoding="iso-8859-1"?>
<!-- Generator: Adobe Illustrator 19.0.0, SVG Export Plug-In . SVG Version: 6.00 Build 0)  -->
<svg version="1.1" id="Capa_1" xmlns="http://www.w3.org/2000/svg" xmlns:xlink="http://www.w3.org/1999/xlink" x="0px" y="0px"
	 viewBox="0 0 479.901 479.901" style="enable-background:new 0 0 479.901 479.901;" xml:space="preserve">
<g>
	<g>
		<path d="M179.6,97.901c-0.1,0-0.2,0-0.4,0h-60.7c-5.2-0.1-9.5,4.1-9.6,9.3c0,0.2,0,0.3,0,0.5v253c0,5.5,4,10.2,9.6,10.2h60.7
			c5.5-0.1,9.9-4.7,9.8-10.2v-253C189.1,102.401,184.9,98.001,179.6,97.901z M169,350.901h-40v-84h40V350.901z M169,246.901h-40
			v-129h40V246.901z"/>
	</g>
</g>
<g>
	<g>
		<path d="M71.1,177.901H10.5c-5.7,0.1-10.3,4.6-10.5,10.2v172.5c0.2,5.7,4.8,10.2,10.5,10.2h60.7c5.5-0.1,9.9-4.7,9.9-10.2v-172.5
			C81.1,182.601,76.7,178.001,71.1,177.901z M61,350.901H20v-84h41V350.901z M61,246.901H20v-49h41V246.901z"/>
	</g>
</g>
<g>
	<g>
		<path d="M449.5,304.901H410v-9.1c0.1-4.1-0.9-8.2-3-11.8v-268.3c0-5.5-4.9-9.8-10.4-9.8h-61.8c-5.3-0.1-9.7,4.1-9.8,9.4
			c0,0.1,0,0.2,0,0.3v267.3c-3.1,3.5-4.9,8.1-5,12.8v9.1h-23v-243.1c0.1-5.2-4-9.6-9.3-9.7c-0.1,0-0.3,0-0.4,0h-60.7
			c-5.3-0.1-9.6,4.1-9.7,9.4c0,0.1,0,0.3,0,0.4v299c0,5.5,4.1,10.2,9.7,10.2H251v73.2c0.1,16.5,13.5,29.8,30,29.8h168.4
			c16.5,0,30.5-13.2,30.5-29.8v-108.9C480,318.701,466.1,304.901,449.5,304.901z M345,25.901h42v221h-42V25.901z M345,266.901h42v9
			h-42V266.901z M340,295.901h50v9h-50V295.901z M405.6,380.001l-13,13.1l-24.3-24.5l13-12.9L405.6,380.001z M237,71.901h40v175h-40
			V71.901z M251,335.301v15.6h-14v-84h40v38.6C263,307.401,251,320.001,251,335.301z M460.1,444.101H460c0,5.5-5,9.8-10.5,9.8H281.1
			c-5.5,0.1-10-4.2-10.1-9.7v-0.1v-108.8c0-5.6,4.5-10.2,10.1-10.4H372v12.2l-24.6,24.4c-3.9,3.9-4,10.2-0.1,14.1l30.6,30.9l7.8,7.6
			c1.9,1.8,4.4,2.8,7,2.7c2.6,0.1,5.2-0.9,7.1-2.8l27.1-27.2c3.9-3.8,4-10.1,0.2-14.1l-35-35.2v-12.6h57.5
			c5.7,0.1,10.3,4.7,10.5,10.4V444.101z"/>
	</g>
</g>
<g>
</g>
<g>
</g>
<g>
</g>
<g>
</g>
<g>
</g>
<g>
</g>
<g>
</g>
<g>
</g>
<g>
</g>
<g>
</g>
<g>
</g>
<g>
</g>
<g>
</g>
<g>
</g>
<g>
</g>
</svg>
