<?xml version="1.0" encoding="iso-8859-1"?>
<!-- Generator: Adobe Illustrator 19.0.0, SVG Export Plug-In . SVG Version: 6.00 Build 0)  -->
<svg version="1.1" id="Capa_1" xmlns="http://www.w3.org/2000/svg" xmlns:xlink="http://www.w3.org/1999/xlink" x="0px" y="0px"
	 viewBox="0 0 487.8 487.8" style="enable-background:new 0 0 487.8 487.8;" xml:space="preserve">
<g>
	<g>
		<path d="M457.4,318.9c-0.1,0-0.1,0-0.2,0h-13.3V10c0-5.5-4.5-10-10-10c-2.9,0-5.7,1.3-7.6,3.5L380.2,58l-29-16
			c-4.5-2.5-10.2-1.2-13.1,3.1l-33.8,49.3l-38-9.3c-3.7-0.9-7.6,0.4-10,3.3l-33.5,39.9l-39.4-36.8c-3.1-2.9-7.6-3.5-11.3-1.6
			l-30.1,15L99,67.4c-2-1.8-4.7-2.6-7.4-2.4c-2.6,0.2-5.1,1.5-6.7,3.6l-24,28.6V57.1c-0.1-5.6-4.7-10.1-10.3-10.2h-40
			c-5.5,0-9.7,4.7-9.7,10.2v336.3c0,16.5,13.1,30.4,29.7,30.4h228.3v33.9c0,16.6,13.3,30,29.9,30.1h168.4
			c16.5-0.1,29.8-13.6,29.7-30.1c0,0,0,0,0-0.1V348.9C487,332.5,473.8,319.1,457.4,318.9z M60.9,128.4l32.6-39.2l40.2,35.2
			c3,2.7,7.4,3.2,11,1.4l29.9-14.9l42,39.2c4,3.8,10.4,3.6,14.1-0.5c0.1-0.1,0.2-0.3,0.4-0.4l36.3-43.2l38.7,9.5
			c4,1,8.3-0.6,10.6-4.1l32.7-47.5l28.2,15.6c4.2,2.3,9.4,1.3,12.5-2.3l33.8-39.9v80.2l-38.8,5.4c-2.5,0.3-4.7,1.6-6.3,3.5
			l-34.7,41.4l-38.4-23.5c-4.2-2.6-9.7-1.7-12.9,2.1l-39,46.4l-46.5-19.2c-3.6-1.5-7.8-0.7-10.7,1.9l-37.7,35.4l-22.7-39.1
			c-2.8-4.8-8.9-6.4-13.7-3.6c-0.4,0.2-0.7,0.4-1,0.7l-31.2,23.9l-29.4-17.7V128.4z M60.9,198.4l24.9,15c3.5,2.1,7.9,1.9,11.1-0.6
			l27.7-21.1l23.3,40.2c2.8,4.8,8.9,6.4,13.6,3.6c0.7-0.4,1.3-0.8,1.8-1.4l42.3-39.6l47.3,19.5c4,1.7,8.7,0.5,11.5-2.8l38.2-45.4
			l38.4,23.5c4.2,2.6,9.7,1.7,12.9-2.1l37.8-45.1l32.2-4.5v79.6L392,205.4c-4.5-1.7-9.5,0.1-12,4.2l-34.9,57.1L310,243.4
			c-4.3-2.9-10.1-2-13.3,2.1l-36.5,45.2L224.7,262c-3.5-2.8-8.4-3-12.1-0.4l-35.5,25.1l-44.2-28.3c-3.9-2.5-9-2-12.3,1.2l-35.4,34
			l-24.3-7.3V198.4z M398.2,288.9h-44.8c1.4,0,2.6-1.7,3.4-3.1l36-58.8l31.1,11.7v80.2h-6v-9.5C417.9,298.4,409.2,288.9,398.2,288.9
			z M413.3,393.6l-13,13.1L376,382.2l13-12.9L413.3,393.6z M347.9,318.9v-10h50v10H347.9z M258.9,403.9H30.6
			c-5.5,0-9.7-4.9-9.7-10.4V66.9h20v306.6c0,5.5,4.2,10.4,9.7,10.4h208.3V403.9z M258.9,348.9v15h-198v-56.8l24.2,7.2
			c0.9,0.3,1.8,0.4,2.8,0.4c2.6,0,5-1,6.9-2.8l34-32.6l43.4,27.8c3.4,2.2,7.8,2.1,11.2-0.3l34.8-24.6l37.4,30.2
			c4.3,3.5,10.6,2.8,14.1-1.5l37-45.9l36.2,24c0.4,0.2,0.8,0.5,1.2,0.6c-9.3,1.9-16,10.1-16,19.6v9.5H289
			C272.3,318.9,258.9,332.3,258.9,348.9z M466.9,348.8v109c0.2,5.4-4.1,10-9.6,10.1h-0.1H288.8c-5.5-0.1-9.9-4.6-9.9-10.1V348.9
			c0-5.5,4.3-9.9,9.8-10h0.1h90.1v11.8l-24.2,24.4c-3.9,3.9-3.8,10.2,0.1,14.1l30.7,30.9l7.9,7.8c1.9,1.9,4.4,2.9,7.1,2.9
			s5.2-1.1,7.1-3l27.1-27.3c3.8-4,3.7-10.3-0.2-14.1l-35.6-35.1v-12.4h58.3c5.4,0,9.7,4.4,9.7,9.7
			C466.9,348.7,466.9,348.7,466.9,348.8z"/>
	</g>
</g>
<g>
</g>
<g>
</g>
<g>
</g>
<g>
</g>
<g>
</g>
<g>
</g>
<g>
</g>
<g>
</g>
<g>
</g>
<g>
</g>
<g>
</g>
<g>
</g>
<g>
</g>
<g>
</g>
<g>
</g>
</svg>
