<?xml version="1.0" encoding="iso-8859-1"?>
<!-- Generator: Adobe Illustrator 19.0.0, SVG Export Plug-In . SVG Version: 6.00 Build 0)  -->
<svg version="1.1" id="Capa_1" xmlns="http://www.w3.org/2000/svg" xmlns:xlink="http://www.w3.org/1999/xlink" x="0px" y="0px"
	 viewBox="0 0 490.1 490.1" style="enable-background:new 0 0 490.1 490.1;" xml:space="preserve">
<g>
	<g>
		<path d="M164.572,283.8c-6.6-10.3-11.3-21.7-13.8-33.7c-1-4.6-5-7.9-9.8-7.9h-116.9c-2.7,0-5.3,1.2-7.1,3.1
			c-1.9,2-2.9,4.6-2.9,7.3c0,0.5,0,0.6,0.1,1.6c4.4,45.7,22.3,89.1,51.6,124.5c1.8,2.1,4.4,3.4,7.2,3.4c0.2,0,0.3,0,0.5,0
			c2.7,0,5.2-1.1,7.1-2.9l82.7-82.8C166.572,293,167.172,287.7,164.572,283.8z M74.472,357c-20.7-27.9-34.1-60.5-39.1-94.9h97.8
			c2.5,8.9,6,17.5,10.5,25.6L74.472,357z"/>
	</g>
</g>
<g>
	<g>
		<path d="M225.272,325.3c-11.7-2.5-22.9-7.1-33-13.6c-4-2.6-9.2-2.1-12.6,1.3l-82.6,82.7c-2,2-3.1,4.7-3,7.6
			c0.1,2.8,1.4,5.4,3.5,7.2c35.4,29.3,78.7,47.2,124.4,51.6c1,0.1,1.1,0.1,1.6,0.1c0.1,0,0.3,0,0.4,0c5.5,0,10-4.5,10-10V335.3
			C234.072,330.2,230.272,325.9,225.272,325.3z M214.072,440.9c-34.4-5-66.9-18.4-94.8-39.1l69.1-69.2c8.1,4.5,16.8,8.1,25.7,10.5
			V440.9z"/>
	</g>
</g>
<g>
	<g>
		<path d="M466.472,242.1c-0.2,0-0.6,0-0.9,0h-116.9c-4.7-0.1-8.8,3.2-9.8,7.9c-6.7,32.6-29.5,60.1-59.6,71.1h-2.7
			c-16.5,0-30.4,13.7-30.4,30.2v108.9c0,16.5,13.9,29.9,30.4,29.9h168.4c16.6,0,30-13.3,30.1-29.9V351.3c0-11.9-7-22.6-17.9-27.4
			c9.9-22.5,16.2-46.4,18.4-70.9C476.072,247.5,472.072,242.6,466.472,242.1z M356.572,262.1h97.8c-3,20.5-9.1,40.4-18,59h-30.3
			v-9.3c-0.1-11-9.1-19.9-20.1-19.7h-42.3C349.272,282.7,353.672,272.7,356.572,262.1z M335.072,312.1h51v9h-51V312.1z
			 M401.072,396.1l-13,13.1l-24.3-24.5l12.9-13L401.072,396.1z M455.072,460.2c-0.1,5.5-4.6,9.9-10.1,9.9h-168.5
			c-5.5,0-10.4-4.4-10.4-9.9V351.3c0.2-5.6,4.8-10.1,10.4-10.2h90.6v12.1l-24.5,24.4c-3.9,3.9-3.9,10.2-0.1,14.1l30.6,30.9l7.8,7.7
			c1.9,1.8,4.4,2.8,7.1,2.8c2.6,0,5.2-1,7.1-2.8l27.1-27.3c3.9-3.9,3.9-10.2,0-14.1l-35.1-35.2v-12.6h57.9
			c5.6,0.1,10.1,4.6,10.1,10.2V460.2z"/>
	</g>
</g>
<g>
	<g>
		<path d="M475.972,208.3c-10.6-109.2-97.7-196.6-207.1-207.6c-5.5-0.6-10.4,3.5-11,8.9c0,0.3,0,0.6,0,0.9c0,0-0.2,29.3-0.4,58.5
			c-0.1,14.6-0.2,29.3-0.3,40.3c0,5.5-0.1,10.1-0.1,13.3c0,1.6,0,2.9,0,3.8c0,8,4.8,10.4,7.7,11c0.1,0,0.2,0.1,0.2,0.1
			c37.2,7.9,66.3,37.1,74.1,74.3c0.9,4.7,5,8.1,9.8,8.1l117.2-0.4c2.8-0.1,5.5-1.3,7.4-3.5
			C475.372,213.9,476.272,211.1,475.972,208.3z M356.772,199.7c-11-38.6-41.1-68.7-79.6-79.8c0.1-17.5,0.4-62.2,0.7-97.9
			c91.4,14.3,162.9,86.1,177,177.5L356.772,199.7z"/>
	</g>
</g>
<g>
	<g>
		<path d="M223.872,0c-0.4,0-0.8,0-1.2,0.1c-0.1,0-0.3,0-0.4,0c-109.6,10.6-197,97.7-208,207c-0.6,5.5,3.5,10.4,8.9,10.9
			c0.4,0.1,0.7,0.1,1,0.1h117c4.7,0,8.8-3.3,9.8-7.9c7.9-36.3,37.8-65.9,74.3-73.4c4.6-1,8-5,8-9.8l0.5-117
			C233.772,4.5,229.372,0,223.872,0z M35.572,198.1c0.8-5.6,1.9-11.2,3.3-16.7l16.7,16.7H35.572z M83.872,198.1l-38.5-38.5
			c2.4-6.8,5.2-13.4,8.3-20l58.5,58.5H83.872z M135.072,192.8l-71.5-71.5c3.5-5.8,7.3-11.4,11.4-16.9l69,69
			C140.372,179.6,137.472,186.1,135.072,192.8z M162.972,148.6c-2.6,2.6-5.1,5.3-7.4,8.1l-67.8-67.8c2.4-2.7,4.9-5.3,7.5-7.9
			c2.2-2.2,4.4-4.3,6.6-6.3l67.8,67.8C167.372,144.4,165.172,146.5,162.972,148.6z M186.272,130.8l-68.9-68.9
			c5.4-4.1,11-7.9,16.8-11.5l71.3,71.3C198.772,124.1,192.372,127.1,186.272,130.8z M213.372,101.3l-61-61c6.5-3.2,13.1-6,19.8-8.5
			l41.3,41.3L213.372,101.3z M213.572,45l-19.7-19.7c6.5-1.6,13.2-2.9,19.8-3.9L213.572,45z"/>
	</g>
</g>
<g>
</g>
<g>
</g>
<g>
</g>
<g>
</g>
<g>
</g>
<g>
</g>
<g>
</g>
<g>
</g>
<g>
</g>
<g>
</g>
<g>
</g>
<g>
</g>
<g>
</g>
<g>
</g>
<g>
</g>
</svg>
