<?xml version="1.0" encoding="iso-8859-1"?>
<!-- Generator: Adobe Illustrator 19.0.0, SVG Export Plug-In . SVG Version: 6.00 Build 0)  -->
<svg version="1.1" id="Capa_1" xmlns="http://www.w3.org/2000/svg" xmlns:xlink="http://www.w3.org/1999/xlink" x="0px" y="0px"
	 viewBox="0 0 482 482" style="enable-background:new 0 0 482 482;" xml:space="preserve">
<g>
	<g>
		<path d="M395,13.164l-101.9-7.2c-5.5-0.4-10.3,3.7-10.7,9.2s3.7,10.3,9.2,10.7c0,0,0,0,0.1,0l75.8,5.4l-136.9,106.4l-102.2-80.5
			c-3.9-3.1-9.5-2.8-13.1,0.6l-104.2,99.9c-4,3.8-4.1,10.2-0.3,14.1c1.9,2,4.5,3.1,7.2,3.1c2.6,0,5.1-1,6.9-2.8l97.9-93.9l101.6,80
			c3.6,2.8,8.7,2.9,12.3,0l145.7-113.1l-5.5,71.8c-0.4,5.5,3.7,10.3,9.2,10.7c0.3,0,0.5,0,0.8,0c5.2,0,9.6-4,10-9.2l7.3-94.5
			C404.6,18.364,400.5,13.564,395,13.164z"/>
	</g>
</g>
<g>
	<g>
		<path d="M452.2,307.064h-39.1v-9.2c0-10.9-8.9-19.8-19.8-19.8c-0.1,0-0.1,0-0.2,0h-17v-77.4c0-5.5-4.8-9.6-10.4-9.6h-63.6
			c-5.4-0.2-9.8,4-10,9.4c0,0.1,0,0.2,0,0.2v106.4h-8.4c-16.5,0-29.6,13.7-29.6,30.2v36.8h-6v-141.4c0-5.5-4.6-9.6-10.1-9.6h-63.6
			c-5.5,0-10.3,4-10.3,9.6v141.4h-44v-98.8c0.1-5.5-4.3-10.1-9.9-10.2H46.6c-5.5,0-9.5,4.6-9.5,10.2v98.8H10c-5.5,0-10,4.5-10,10
			s4.5,10,10,10h244.1v52.1c-0.1,16.4,13,29.7,29.3,29.9c0.1,0,0.2,0,0.3,0h168.4c16.5,0,29.9-13.3,29.9-29.8v-0.1v-108.9
			C482.1,320.664,468.8,307.164,452.2,307.064z M100.1,374.064h-43v-89h43V374.064z M228.1,374.064h-44v-131h44V374.064z
			 M408.2,381.964l-13,13.1l-24.3-24.5l13-12.9L408.2,381.964z M393.1,298.064v9h-50v-9H393.1z M312.1,211.064h44v67h-13.3
			c-10.8-0.1-19.6,8.6-19.7,19.4c0,0.1,0,0.2,0,0.4v9.2h-11V211.064z M462.1,446.164c0,5.4-4.4,9.9-9.8,9.9h-0.1H283.7
			c-5.3,0-9.6-4.3-9.6-9.5c0-0.1,0-0.2,0-0.3v-109c0-5.5,4.1-10.2,9.6-10.2h90.4v12.1l-24.4,24.4c-3.9,3.9-3.9,10.2,0,14.1
			l30.6,30.9l7.9,7.7c1.9,1.8,4.4,2.8,7.1,2.8c2.6,0,5.2-1,7.1-2.8l27.1-27.3c3.9-3.9,3.8-10.2-0.1-14.1l-35.3-35.2v-12.6h58.1
			c5.6,0.1,10,4.7,9.9,10.2V446.164z"/>
	</g>
</g>
<g>
</g>
<g>
</g>
<g>
</g>
<g>
</g>
<g>
</g>
<g>
</g>
<g>
</g>
<g>
</g>
<g>
</g>
<g>
</g>
<g>
</g>
<g>
</g>
<g>
</g>
<g>
</g>
<g>
</g>
</svg>
