<?xml version="1.0" encoding="iso-8859-1"?>
<!-- Generator: Adobe Illustrator 19.0.0, SVG Export Plug-In . SVG Version: 6.00 Build 0)  -->
<svg version="1.1" id="Capa_1" xmlns="http://www.w3.org/2000/svg" xmlns:xlink="http://www.w3.org/1999/xlink" x="0px" y="0px"
	 viewBox="0 0 490 490" style="enable-background:new 0 0 490 490;" xml:space="preserve">
<g>
	<g>
		<path d="M249,136h-89c-5.5,0-10,4.5-10,10v190c0,5.5,4.5,10,10,10h89c5.5,0,10-4.5,10-10V146C259,140.5,254.5,136,249,136z
			 M239,326h-69V156h69V326z"/>
	</g>
</g>
<g>
	<g>
		<path d="M99,206H10c-5.5,0-10,4.5-10,10v120c0,5.5,4.5,10,10,10h89c5.5,0,10-4.5,10-10V216C109,210.5,104.5,206,99,206z M89,326
			H20V226h69V326z"/>
	</g>
</g>
<g>
	<g>
		<path d="M460.1,287H421v-9.4c0.1-8.3-5.1-15.8-13-18.6V44c0.2-5.4-4-9.9-9.4-10c-0.1,0-0.1,0-0.2,0h-89c-5.6,0-10.2,4.4-10.4,10
			v243h-7.3c-16.5,0.1-29.8,13.5-29.7,30v0.1V426c-0.1,16.5,13.1,29.9,29.6,30h0.1h168.4c16.5,0,29.9-13.5,29.9-30V317.1
			C490,300.5,476.7,287.1,460.1,287z M401,278v9h-50v-9H401z M416.2,361.8l-13,13.1l-24.3-24.5l13-12.9L416.2,361.8z M319,54h69v204
			h-37.3c-10.7-0.2-19.5,8.4-19.7,19.1c0,0.1,0,0.3,0,0.4v9.4h-12V54z M470,426c0.1,5.5-4.4,10-9.8,10H291.7
			c-5.4-0.1-9.7-4.5-9.7-9.9c0-0.1,0-0.1,0-0.2V317.1c-0.1-5.4,4.1-9.9,9.5-10.1h0.1H382v11.9l-24.3,24.4c-3.9,3.9-3.9,10.2,0,14.1
			l30.6,30.9l7.9,7.8c1.9,1.9,4.4,2.9,7.1,2.9s5.2-1,7.1-2.9l27.1-27.3c3.9-3.9,3.8-10.2-0.1-14.1L402,319.5V307h58.1
			c5.5,0,9.9,4.5,9.9,10.1V426z"/>
	</g>
</g>
<g>
</g>
<g>
</g>
<g>
</g>
<g>
</g>
<g>
</g>
<g>
</g>
<g>
</g>
<g>
</g>
<g>
</g>
<g>
</g>
<g>
</g>
<g>
</g>
<g>
</g>
<g>
</g>
<g>
</g>
</svg>
