<?xml version="1.0" encoding="iso-8859-1"?>
<!-- Generator: Adobe Illustrator 19.0.0, SVG Export Plug-In . SVG Version: 6.00 Build 0)  -->
<svg version="1.1" id="Capa_1" xmlns="http://www.w3.org/2000/svg" xmlns:xlink="http://www.w3.org/1999/xlink" x="0px" y="0px"
	 viewBox="0 0 480.509 480.509" style="enable-background:new 0 0 480.509 480.509;" xml:space="preserve">
<g>
	<g>
		<path d="M185.407,271.134h-56c-5.5,0-10,4.5-10,10v92c0,5.5,4.5,10,10,10h56c5.5,0,10-4.5,10-10v-92
			C195.407,275.634,190.907,271.134,185.407,271.134z M175.407,364.134h-36v-73h36V364.134z"/>
	</g>
</g>
<g>
	<g>
		<path d="M69.407,251.134h-56c-5.5,0-10,4.5-10,10v113c0,5.5,4.5,10,10,10h56c5.5,0,10-4.5,10-10v-113
			C79.407,255.634,74.907,251.134,69.407,251.134z M60.407,364.134h-37v-93h37V364.134z"/>
	</g>
</g>
<g>
	<g>
		<path d="M418.307,21.534c-15.7-16.8-42.2-17.6-59-1.9c-11.3,10.6-15.8,26.5-11.7,41.4l-45.4,32.1c-16.2-16.4-42.7-16.6-59.1-0.4
			c-11.6,11.5-15.5,28.6-9.9,44l-41.8,35.2c-13.2-18.9-39.2-23.6-58.2-10.4c-7.2,5-12.6,12.2-15.5,20.4l-34.7-14.1
			c-3.9-22.8-25.4-38.1-48.2-34.2c-22.8,3.9-38.1,25.4-34.2,48.2c3.9,22.8,25.4,38.1,48.2,34.2c15-2.5,27.4-13,32.5-27.3l34.7,14.1
			c3.8,22.8,25.4,38.1,48.2,34.3c20.1-3.4,34.8-20.8,34.8-41.2c0-1.3-0.1-2.7-0.2-4l45.6-38.5c17.1,15.5,43.5,14.3,59-2.8
			c9.9-10.9,13.3-26.2,9.1-40.2l44.9-31.8c15.8,16.8,42.2,17.6,59,1.9C433.207,64.734,434.007,38.334,418.307,21.534z
			 M41.807,196.734c-12,0-21.8-9.8-21.8-21.8s9.7-21.8,21.8-21.8c12,0,21.8,9.8,21.8,21.8S53.807,196.734,41.807,196.734z
			 M157.107,217.734c-12,0-21.8-9.8-21.8-21.8s9.8-21.8,21.8-21.8s21.8,9.8,21.8,21.8S169.207,217.734,157.107,217.734z
			 M272.507,144.234c-12,0-21.8-9.8-21.8-21.8c0-12,9.8-21.7,21.8-21.8c12,0,21.8,9.8,21.8,21.8S284.507,144.234,272.507,144.234z
			 M387.907,71.834c-12,0-21.8-9.8-21.8-21.8c0-12,9.7-21.8,21.8-21.8c12,0,21.8,9.8,21.8,21.8
			C409.707,62.034,399.907,71.834,387.907,71.834z"/>
	</g>
</g>
<g>
	<g>
		<path d="M451.107,303.134c-0.1,0-0.2,0-0.3,0h-24.4v-167.8c-0.2-5.6-4.7-10.2-10.4-10.2h-56.3c-5.6,0.1-10.2,4.6-10.3,10.2v138.8
			h-8c-11,0-20,8.5-20,19.5v9.5h-11v-95.6c0-5.5-4.2-10.4-9.7-10.4h-56.3c-5.5,0-9.9,4.9-9.9,10.4v166.3c-0.1,5.6,4.4,10.2,9.9,10.3
			h8.1v57.9c0,16.6,13.4,30,30,30.1h168.4c16.4-0.1,29.7-13.5,29.6-30v-0.1v-108.9C480.707,316.734,467.507,303.334,451.107,303.134
			z M369.407,145.134h37v134.5c-4-3.6-9.2-5.6-14.6-5.5h-22.4V145.134z M341.407,294.134h50v9h-50V294.134z M406.907,377.834
			l-13,13.1l-24.3-24.5l13-12.9L406.907,377.834z M254.407,322.534v-105.4h36v86h-8
			C269.907,303.034,258.707,310.834,254.407,322.534z M460.407,442.034c0,5.5-4.1,10.1-9.6,10.1h-168.4c-5.5-0.1-10-4.6-10-10.1
			v-108.9c0-5.5,4.5-10,10-10h90v11.9l-24.2,24.4c-3.9,3.9-3.8,10.2,0.1,14.1l30.7,30.9l7.9,7.8c1.9,1.9,4.4,2.9,7.1,2.9
			s5.2-1.1,7.1-2.9l27.1-27.3c3.8-4,3.7-10.3-0.3-14.1l-35.5-35.3v-12.4h58.4c5.5,0,9.6,4.5,9.6,10V442.034z"/>
	</g>
</g>
<g>
</g>
<g>
</g>
<g>
</g>
<g>
</g>
<g>
</g>
<g>
</g>
<g>
</g>
<g>
</g>
<g>
</g>
<g>
</g>
<g>
</g>
<g>
</g>
<g>
</g>
<g>
</g>
<g>
</g>
</svg>
