<?xml version="1.0" encoding="iso-8859-1"?>
<!-- Generator: Adobe Illustrator 19.0.0, SVG Export Plug-In . SVG Version: 6.00 Build 0)  -->
<svg version="1.1" id="Capa_1" xmlns="http://www.w3.org/2000/svg" xmlns:xlink="http://www.w3.org/1999/xlink" x="0px" y="0px"
	 viewBox="0 0 498 498" style="enable-background:new 0 0 498 498;" xml:space="preserve">
<g>
	<g>
		<path d="M462.85,71.1c-21.5-10.5-47.4-1.5-57.9,20c-7.2,14.7-5.4,32.2,4.5,45.2l-42.5,46.2c-15.2-18.3-42.4-20.8-60.7-5.6
			c-1.2,1-2.4,2.1-3.5,3.2l-35.8-29.3c0-0.2,0-0.4,0-0.6c0-23.9-19.3-43.2-43.2-43.2c-23.9,0-43.2,19.3-43.2,43.2
			c0,3.9,0.5,7.9,1.6,11.7l-39.6,49.5c-21.5-10.4-47.3-1.4-57.7,20.1c-10.4,21.5-1.4,47.3,20.1,57.7c5.9,2.7,12.3,4.2,18.8,4.2
			c23.8,0,43.2-19.3,43.2-43.1c0-9.5-3.1-18.8-8.9-26.3l34.9-43.6c16.6,17,43.9,17.4,61,0.7c2.8-2.7,5.2-5.8,7.2-9.2l31.4,25.7
			c-7,22.8,5.8,47,28.7,53.9c22.8,7,47-5.8,53.9-28.7c2.1-6.7,2.4-13.9,1.1-20.8l48.7-53c21.5,10.5,47.4,1.5,57.9-20
			S484.35,81.6,462.85,71.1z M123.75,273.4c-12.8,0-23.2-10.4-23.2-23.2c0-12.8,10.4-23.2,23.2-23.2s23.2,10.4,23.2,23.2
			C146.95,263,136.55,273.4,123.75,273.4z M223.75,173.4c-12.8,0-23.2-10.4-23.2-23.2c0-12.8,10.4-23.2,23.2-23.2
			s23.2,10.4,23.2,23.2C246.95,163,236.55,173.4,223.75,173.4z M333.75,233.4c-12.8,0-23.2-10.4-23.2-23.2
			c0-12.8,10.4-23.2,23.2-23.2s23.2,10.4,23.2,23.2C356.95,223,346.55,233.4,333.75,233.4z M443.75,133.4
			c-12.8,0-23.2-10.4-23.2-23.2s10.4-23.2,23.2-23.2s23.2,10.4,23.2,23.2S456.55,133.4,443.75,133.4z"/>
	</g>
</g>
<g>
	<g>
		<path d="M482.15,478h-8.4v-40.1c0-23.4-12.2-45.1-32.1-57.4c19.9-12.2,32.1-34,32.1-57.4V283h8.5c5.5,0,10-4.5,10-10
			s-4.5-10-10-10h-153.1c-5.5,0-10,4.5-10,10s4.5,10,10,10h9.6v34h-273V10.2c-0.2-5.6-4.8-10.1-10.5-10.2h-40
			c-5.5,0-9.5,4.7-9.5,10.2v336.3c0,16.5,13,30.4,29.5,30.4h329.9c1.8,1,3.7,2.5,5.7,3.7c-19.9,12.2-32.1,33.8-32.2,57.2V478h-9.6
			c-5.5,0-10,4.5-10,10s4.5,10,10,10h153.1c5.5,0,10-4.5,10-10S487.65,478,482.15,478z M35.25,357c-5.5,0-9.5-4.9-9.5-10.4V20h20
			v306.6c0,5.5,4,10.4,9.5,10.4h284.9c1.5,7,4,13,7.6,20H35.25z M358.75,283h95v27h-95V283z M359.35,330h93.8
			c-3.9,25.9-28,43.7-53.9,39.9C378.65,366.8,362.45,350.6,359.35,330z M385.55,478l12.6-14.3c3.6-4.1,9.8-4.6,13.9-1
			c0.4,0.3,0.7,0.7,1,1l12.7,14.3H385.55z M453.75,478h-1.2l-24.4-27.6c-10.9-12.4-29.8-13.6-42.2-2.7c-1,0.8-1.9,1.8-2.7,2.7
			l-24.4,27.6h-0.1v-40.1c0-26.2,21.3-47.5,47.5-47.5s47.5,21.3,47.5,47.5V478z"/>
	</g>
</g>
<g>
</g>
<g>
</g>
<g>
</g>
<g>
</g>
<g>
</g>
<g>
</g>
<g>
</g>
<g>
</g>
<g>
</g>
<g>
</g>
<g>
</g>
<g>
</g>
<g>
</g>
<g>
</g>
<g>
</g>
</svg>
