<?xml version="1.0" encoding="iso-8859-1"?>
<!-- Generator: Adobe Illustrator 19.0.0, SVG Export Plug-In . SVG Version: 6.00 Build 0)  -->
<svg version="1.1" id="Capa_1" xmlns="http://www.w3.org/2000/svg" xmlns:xlink="http://www.w3.org/1999/xlink" x="0px" y="0px"
	 viewBox="0 0 460.8 460.8" style="enable-background:new 0 0 460.8 460.8;" xml:space="preserve">
<g>
	<g>
		<path d="M393.7,56.4c0,0-0.1,0-0.1-0.1C357,20.3,309,0.5,258.4,0.5c-5.5,0-10,4.5-10,10v181.2c0,5.4,4.4,9.7,9.8,9.6
			c0.1,0,0.1,0,0.2,0h181.2c5.4,0.1,9.9-4.2,10-9.7v-0.1C449.6,141,429.8,93,393.7,56.4z M268.4,20.8c18.5,1,36.8,5.1,54,12.1
			l-54,54V20.8z M268.4,115.2l73.1-73.1c10.8,6,21,13.2,30.3,21.4L268.4,166.9V115.2z M282,181.3l104.1-104
			c8.2,9.3,15.4,19.4,21.5,30.3l-73.9,73.7H282z M361.9,181.3l54.9-54.9c7.2,17.5,11.4,36,12.5,54.9H361.9z"/>
	</g>
</g>
<g>
	<g>
		<path d="M450.8,440.3h-8.4v-40c0-23.4-12.2-45.1-32.1-57.4c19.9-12.3,32.1-34,32.1-57.4v-40.2h8.4c5.5,0,10-4.5,10-10
			s-4.5-10-10-10H297.7c-5.5,0-10,4.5-10,10s4.5,10,10,10h9.7v2h-106V76.6c0-5.5-4.6-10-10.1-10c-50.8-0.2-99.6,20-135.4,56
			C19.9,159.3,0,207.3,0,257.8C0,363.2,85.8,449,191.2,449c42,0.2,82.9-13.6,116.2-39.2v30.5h-9.7c-5.5,0-10,4.5-10,10s4.5,10,10,10
			h153.1c5.5,0,10-4.5,10-10S456.3,440.3,450.8,440.3z M367.8,332.1c-20.6-3-36.8-19.2-39.9-39.8h93.8
			C417.8,318.2,393.7,336,367.8,332.1z M327.4,245.3h95v27h-95V245.3z M191.2,429C96.8,429,20,352.2,20,257.8
			c0-45.3,17.9-88.3,50.2-121.1c29.7-29.7,69.3-47.5,111.2-49.8v170.9c-0.1,5.2,4.1,9.5,9.3,9.5c0.2,0,0.3,0,0.5,0h116.2v18.2
			c0,23.4,12.2,45.1,32.1,57.4c-14.1,8.7-24.5,22.2-29.3,38.1C278.3,412,235.6,429.2,191.2,429z M354.2,440.3l12.6-14.3
			c3.6-4.1,9.8-4.6,14-1c0.4,0.3,0.7,0.6,1,1l12.6,14.3H354.2z M422.4,440.3h-1.3l-24.4-27.6c-10.9-12.4-29.8-13.6-42.2-2.7
			c-1,0.8-1.8,1.7-2.7,2.7l-24.4,27.6v-40c0-26.2,21.3-47.5,47.5-47.5s47.5,21.2,47.5,47.5V440.3z"/>
	</g>
</g>
<g>
</g>
<g>
</g>
<g>
</g>
<g>
</g>
<g>
</g>
<g>
</g>
<g>
</g>
<g>
</g>
<g>
</g>
<g>
</g>
<g>
</g>
<g>
</g>
<g>
</g>
<g>
</g>
<g>
</g>
</svg>
