<?xml version="1.0" encoding="iso-8859-1"?>
<!-- Generator: Adobe Illustrator 19.0.0, SVG Export Plug-In . SVG Version: 6.00 Build 0)  -->
<svg version="1.1" id="Capa_1" xmlns="http://www.w3.org/2000/svg" xmlns:xlink="http://www.w3.org/1999/xlink" x="0px" y="0px"
	 viewBox="0 0 506 506" style="enable-background:new 0 0 506 506;" xml:space="preserve">
<g>
	<g>
		<path d="M202.45,92h-60.7c-5.5,0-9.6,4.8-9.6,10.3v253c-0.2,5.2,3.9,9.5,9.1,9.7c0.2,0,0.3,0,0.5,0h60.7c5.3,0.1,9.6-4.1,9.8-9.3
			c0-0.1,0-0.2,0-0.4v-253C212.25,96.8,208.05,92,202.45,92z M192.25,345h-40v-83h40V345z M192.25,242h-40V112h40V242z"/>
	</g>
</g>
<g>
	<g>
		<path d="M94.75,173c-0.2,0-0.3,0-0.4,0h-60.6c-5.5,0-10.5,4.3-10.5,9.8v172.5c0,5.5,4.9,9.7,10.5,9.7h60.7
			c5.3,0.1,9.7-4.1,9.9-9.4c0-0.1,0-0.2,0-0.3V182.8C104.35,177.4,100.05,173,94.75,173z M84.25,345h-41v-83h41V345z M84.25,242h-41
			v-49h41V242z"/>
	</g>
</g>
<g>
	<g>
		<path d="M472.65,486h-8.4v-40.2c0-23.4-12.2-45.1-32.1-57.4c19.9-12.2,32.1-34,32.1-57.4v-40h8.5c5.5,0,10-4.5,10-10
			s-4.5-10-10-10h-42.5V10.3c-0.2-5.7-4.7-10.2-10.4-10.3h-61.8c-5.5,0-9.8,4.8-9.8,10.3V271h-28V56.3c0-5.5-4.1-10.3-9.7-10.3
			h-60.7c-5.5,0-9.7,4.8-9.7,10.3v299c-0.1,5.2,4,9.6,9.2,9.7c0.1,0,0.3,0,0.4,0h60.7c5.2,0.1,9.6-4,9.7-9.3c0-0.1,0-0.3,0-0.4V291
			h9v40c0,23.4,12.2,45.1,32.1,57.4c-20,12.3-32.1,34-32.1,57.4V486h-9.6c-5.5,0-10,4.5-10,10s4.5,10,10,10h153.1
			c5.5,0,10-4.5,10-10S478.15,486,472.65,486z M300.25,345h-40v-83h40V345z M300.25,242h-40V66h40V242z M368.25,20h42v222h-42V20z
			 M368.25,262h42v9h-42V262z M349.25,318v-27h95v27H349.25z M349.85,338h93.8c-3.9,25.9-28,43.7-53.9,39.9
			C369.15,374.8,352.95,358.6,349.85,338z M376.238,485.9l12.512-14.3c3.5-4.1,9.7-4.6,13.8-1.1c0.4,0.3,0.8,0.7,1.1,1.1l12.6,14.3
			H376.238z M444.25,486h-1.2l-24.4-27.6c-5.6-6.5-13.8-10.2-22.4-10.2c-8.6,0-16.8,3.7-22.4,10.2l-24.4,27.6h-0.2v-40.2
			c0-26.2,21.3-47.5,47.5-47.5s47.5,21.3,47.5,47.5V486z"/>
	</g>
</g>
<g>
</g>
<g>
</g>
<g>
</g>
<g>
</g>
<g>
</g>
<g>
</g>
<g>
</g>
<g>
</g>
<g>
</g>
<g>
</g>
<g>
</g>
<g>
</g>
<g>
</g>
<g>
</g>
<g>
</g>
</svg>
