<?xml version="1.0" encoding="iso-8859-1"?>
<!-- Generator: Adobe Illustrator 19.0.0, SVG Export Plug-In . SVG Version: 6.00 Build 0)  -->
<svg version="1.1" id="Capa_1" xmlns="http://www.w3.org/2000/svg" xmlns:xlink="http://www.w3.org/1999/xlink" x="0px" y="0px"
	 viewBox="0 0 506.2 506.2" style="enable-background:new 0 0 506.2 506.2;" xml:space="preserve">
<g>
	<g>
		<path d="M475,486.2h-7.8v-37.8c0-22.5-11.6-43.3-30.6-55.3c19-11.9,30.6-32.8,30.6-55.3v-37.6h7.8c5.5,0,10-4.5,10-10
			s-4.5-10-10-10h-26.8V10c0-5.5-4.5-10-10-10c-3,0-5.8,1.3-7.7,3.6l-43.8,52.2l-27.2-15.2c-4.5-2.5-10.2-1.2-13.1,3.1L314,91
			l-36.4-8.9c-3.7-0.9-7.6,0.4-10,3.3l-32,38.2l-37.8-35.4c-3.1-2.8-7.6-3.5-11.3-1.6L157.7,101l-41.3-35.9c-2-1.8-4.7-2.6-7.3-2.4
			c-2.6,0.2-5.1,1.5-6.8,3.5L80.2,92.6V55.4c-0.1-5.6-4.7-10.1-10.3-10.2H31.4c-5.6,0.1-10.1,4.6-10.2,10.2v323.8
			c0,16.1,13.4,29,29.5,29h299.5c-9,11.5-13.9,25.6-14,40.2v37.8h-8.6c-5.5,0-10,4.5-10,10s4.5,10,10,10H475c5.5,0,10-4.5,10-10
			S480.5,486.2,475,486.2z M401.8,383.3c-22.5,0-41.3-17.1-44.7-38.1h89.4C443.1,366.2,424.3,383.3,401.8,383.3z M447.2,300.2v25
			h-91v-25H447.2z M428.3,280.2h-67.7c1.9-0.9,3.4-2.4,4.6-4.1l34.5-56.7l28.6,10.3V280.2z M80.2,123.8l30.9-37l38.6,33.6
			c3,2.7,7.4,3.2,11,1.4l28.6-14.3l40.3,37.6c4,3.8,10.4,3.6,14.1-0.5c0.1-0.1,0.2-0.3,0.4-0.4l34.8-41.5l37.1,9.1
			c4,1,8.3-0.6,10.6-4.1l31.2-45.4l26.4,14.9c4.2,2.3,9.5,1.4,12.5-2.3l31.5-37.5v75.9l-36.1,4.9c-2.5,0.3-4.7,1.6-6.3,3.5
			l-33.2,39.6l-36.7-22.5c-4.2-2.6-9.7-1.7-12.9,2.1l-37.4,44.5L221.1,167c-3.6-1.5-7.8-0.7-10.7,1.9l-36.1,33.8l-21.6-37.3
			c-2.8-4.8-8.9-6.4-13.7-3.6c-0.4,0.2-0.7,0.4-1,0.7l-29.9,22.9l-27.9-16.7V123.8z M79.9,192h0.3l23.4,14.1
			c3.5,2.1,7.9,1.8,11.1-0.6l26.3-20.1l22.2,38.3c2.8,4.8,8.9,6.4,13.6,3.6c0.7-0.4,1.3-0.8,1.8-1.4l40.6-38l45.3,18.7
			c4,1.7,8.7,0.5,11.5-2.8l36.6-43.5l36.7,22.5c4.2,2.6,9.7,1.7,12.9-2.1l36.3-43.3l29.6-4v74.9l-29.4-10.7c-4.5-1.6-9.5,0.1-12,4.2
			l-33.3,54.7l-33.5-22.2c-4.3-2.9-10.1-2-13.3,2.1l-34.9,43.2l-33.9-27.4c-3.5-2.8-8.4-3-12.1-0.4l-34,24l-42.5-27.2
			c-3.9-2.5-9-2-12.3,1.2l-34,32.6l-23-6.9V192z M327.7,300h8.6v37.6c0.1,4.2,0.6,8.3,1.5,12.4H80.2v-53.5l22.8,6.8
			c0.9,0.3,1.8,0.4,2.8,0.4c2.6,0,5-1,6.9-2.8l32.6-31.2l41.5,26.6c3.4,2.2,7.8,2.1,11.2-0.3l33.3-23.6l35.8,28.9
			c4.3,3.5,10.6,2.8,14.1-1.5l35.4-43.9l34.5,23.1c0.5,0.3,1,0,1.6,1h-25c-5.5,0-10,4.5-10,10S322.2,300,327.7,300z M50.7,388.2
			c-5.1,0.1-9.4-3.9-9.5-9v-314h19V360c-0.1,5.5,4.2,10.1,9.7,10.2H345c4,6.9,9.3,13,15.7,18H50.7z M382.7,486.2l11.6-13
			c3.5-3.8,9.4-4.1,13.3-0.6c0.2,0.2,0.4,0.4,0.6,0.6l11.6,13H382.7z M447.2,486.2h-0.7L423.2,460c-5.6-6.2-13.5-9.8-21.9-9.8
			c-8.4,0-16.4,3.6-22,9.9l-23,25.8v-37.4c0-25.1,20.4-45.5,45.5-45.5c25-0.1,45.4,20.3,45.4,45.4V486.2z"/>
	</g>
</g>
<g>
</g>
<g>
</g>
<g>
</g>
<g>
</g>
<g>
</g>
<g>
</g>
<g>
</g>
<g>
</g>
<g>
</g>
<g>
</g>
<g>
</g>
<g>
</g>
<g>
</g>
<g>
</g>
<g>
</g>
</svg>
