<?xml version="1.0" encoding="iso-8859-1"?>
<!-- Generator: Adobe Illustrator 19.0.0, SVG Export Plug-In . SVG Version: 6.00 Build 0)  -->
<svg version="1.1" id="Capa_1" xmlns="http://www.w3.org/2000/svg" xmlns:xlink="http://www.w3.org/1999/xlink" x="0px" y="0px"
	 viewBox="0 0 476.5 476.5" style="enable-background:new 0 0 476.5 476.5;" xml:space="preserve">
<g>
	<g>
		<path d="M150.4,285.028c-6.6-10.4-11.3-21.8-13.8-33.9c-1-4.6-5.1-8-9.8-8H10c-5.5,0-10,4.5-10,10c0,0.1,0,0.1,0,0.2
			c0,0.5,0,1,0.1,1.6c4.4,45.8,22.3,89.2,51.6,124.7c1.8,2.2,4.4,3.5,7.2,3.6c0.2,0,0.3,0,0.5,0c2.7,0,5.2-1.1,7.1-2.9l82.7-82.9
			C152.5,294.228,153,289.028,150.4,285.028z M60.3,358.328c-20.7-28-34.1-60.7-39.1-95.1H119c2.5,9,6,17.6,10.5,25.8L60.3,358.328z
			"/>
	</g>
</g>
<g>
	<g>
		<path d="M212.9,327.428c-0.6-0.3-1.3-0.5-2-0.6c-11.7-2.4-22.8-7.1-32.8-13.7c-4-2.6-9.2-2.1-12.6,1.3l-82.8,82.7
			c-3.9,3.9-3.9,10.2,0,14.1c0.2,0.2,0.5,0.5,0.7,0.7c35.2,29,78.2,47,123.5,51.5c0.6,0.1,1.3,0.2,2,0.2c0.1,0,0.1,0,0.2,0
			c5.5,0,10-4.5,10-10v-116.9C219.2,332.628,216.7,328.928,212.9,327.428z M174.1,334.128c7.9,4.5,16.3,8,25,10.4v97.684
			c-34.163-5.111-66.427-18.504-94.2-38.984L174.1,334.128z"/>
	</g>
</g>
<g>
	<g>
		<path d="M254.7,2.128c-5.5-0.6-10.4,3.5-11,8.9c0,0.3,0,0.6,0,0.9c0,0-0.2,29.3-0.4,58.5c-0.1,14.6-0.2,29.3-0.3,40.3
			c0,5.5-0.1,10.1-0.1,13.3c0,1.6,0,2.9,0,3.8c0.1,8.1,4.9,10.4,7.8,11.1c0.1,0,0.2,0,0.2,0.1c37.2,7.9,66.3,37,74.1,74.2
			c1,4.6,5,8,9.8,8l117.2-0.2c5.6,0,10-4.6,10-10.1c0-0.3,0-0.6,0-0.9C451.3,100.528,364.2,13.128,254.7,2.128z M342.7,201.228
			c-11-38.6-41.1-68.7-79.6-79.8c-0.1-17.6,0.3-62.2,0.6-98c91.4,14.3,162.9,86.1,177,177.6L342.7,201.228z"/>
	</g>
</g>
<g>
	<g>
		<path d="M216.3,3.828c-2.1-1.9-5-2.8-7.8-2.5c-0.1,0-0.3,0-0.4,0c-109.6,10.6-197,97.6-208,206.8c-0.6,5.5,3.5,10.4,8.9,10.9
			c0.3,0,0.7,0.1,1,0.1h117c4.7,0,8.8-3.3,9.8-7.9c7.9-36.3,37.7-65.7,74.3-73.3c4.6-1,8-5,8-9.8l0.5-117
			C219.6,8.428,218.4,5.728,216.3,3.828z M21.4,199.228c0.9-5.7,2-11.3,3.3-16.8l16.8,16.8H21.4z M69.8,199.228l-38.6-38.6
			c2.4-6.8,5.2-13.5,8.3-20l58.6,58.6H69.8z M121.1,193.928l-71.6-71.6c3.5-5.8,7.3-11.4,11.4-16.9l69.1,69.1
			C126.4,180.728,123.5,187.228,121.1,193.928z M148.9,149.828c-2.6,2.6-5,5.2-7.4,8l-67.9-67.9c4.5-5,9.2-9.7,14.2-14.2l67.9,67.9
			C153.4,145.628,151.1,147.628,148.9,149.828z M172.2,131.928l-69-69c5.4-4.1,11-7.9,16.8-11.5l71.5,71.5
			C184.8,125.328,178.4,128.328,172.2,131.928z M199.2,102.428l-60.9-61c6.5-3.1,13.1-6,19.9-8.4l41.1,41.2L199.2,102.428z
			 M199.5,46.028l-19.6-19.6c6.4-1.6,13-2.9,19.7-3.9L199.5,46.028z"/>
	</g>
</g>
<g>
	<g>
		<path d="M466.5,455.228h-8.3v-39.9c0-23.4-12.2-45.1-32.1-57.4c19.9-12.3,32.1-34,32.1-57.4v-40.3h8.2c5.5,0,10-4.5,10-10
			s-4.5-10-10-10h-153c-5.5,0-10,4.5-10,10s4.5,10,10,10h8.4c-10.4,33-37.8,58.9-70.7,66c-4.6,1.1-7.9,5.2-7.9,10v116.8
			c0,5.5,4.5,10,10,10c0.3,0,0.8,0,1.1-0.1c23.8-2.5,47-8.5,68.9-18v10.3h-9.8c-5.5,0-10,4.5-10,10s4.5,10,10,10h153.1
			c5.5,0,10-4.5,10-10S472,455.228,466.5,455.228z M383.5,347.128c-20.7-3.1-36.9-19.3-39.9-39.9h93.8
			C433.5,333.128,409.4,350.928,383.5,347.128z M343.2,260.228h95v27h-95V260.228z M323.3,423.028c-19.1,9.1-39.3,15.4-60.1,18.7
			v-97.7c24-7.3,45-22.2,59.9-42.5c0.4,23.1,12.5,44.4,32.2,56.4c-19.9,12.3-32.1,34-32,57.4V423.028z M369.8,455.228l12.6-14.2
			c3.6-4.1,9.9-4.5,14.1-0.9c0.3,0.3,0.6,0.6,0.9,0.9l12.6,14.2H369.8z M438.2,455.228h-1.5l-24.4-27.5c-11-12.4-29.9-13.5-42.3-2.6
			c-0.9,0.8-1.8,1.7-2.6,2.6l-24.2,27.387v-39.787c0-26.2,21.3-47.5,47.5-47.5s47.5,21.2,47.5,47.5V455.228z"/>
	</g>
</g>
<g>
</g>
<g>
</g>
<g>
</g>
<g>
</g>
<g>
</g>
<g>
</g>
<g>
</g>
<g>
</g>
<g>
</g>
<g>
</g>
<g>
</g>
<g>
</g>
<g>
</g>
<g>
</g>
<g>
</g>
</svg>
