<?xml version="1.0" encoding="iso-8859-1"?>
<!-- Generator: Adobe Illustrator 19.0.0, SVG Export Plug-In . SVG Version: 6.00 Build 0)  -->
<svg version="1.1" id="Capa_1" xmlns="http://www.w3.org/2000/svg" xmlns:xlink="http://www.w3.org/1999/xlink" x="0px" y="0px"
	 viewBox="0 0 503.826 503.826" style="enable-background:new 0 0 503.826 503.826;" xml:space="preserve">
<g>
	<g>
		<path d="M432.913,7.226c0,0,0,0-0.1,0l-100.2-7.2c-5.5-0.4-10.3,3.8-10.7,9.3s3.8,10.3,9.3,10.7l74.2,5.3l-134.3,104.3
			l-100.5-79.2c-3.9-3.1-9.5-2.8-13.1,0.6l-102.6,98.4c-4,3.8-4.1,10.2-0.3,14.1c1.9,2,4.5,3.1,7.2,3.1c2.6,0,5.1-1,6.9-2.8
			l96.3-92.3l99.9,78.7c3.6,2.8,8.7,2.9,12.3,0l143.1-111.2l-5.4,70.4c-0.4,5.5,3.7,10.3,9.2,10.7c0.3,0,0.5,0,0.8,0
			c5.2,0,9.6-4,10-9.2l7.2-93C442.513,12.426,438.413,7.626,432.913,7.226z"/>
	</g>
</g>
<g>
	<g>
		<path d="M449.813,483.826h-7.9v-39.2c0-23-11.9-44.4-31.5-56.5c19.6-12.1,31.5-33.5,31.5-56.5v-38.8h7.9c5.5,0,10-4.5,10-10
			s-4.5-10-10-10h-35.9v-81c0.1-5.4-4.2-9.9-9.6-10h-0.1h-62.6c-5.5,0-9.6,4.5-9.6,10v81h-32.8c-5.5,0-10,4.5-10,10s4.5,10,10,10
			h9.8v38.8c0,11.2,2.4,22.2,7.4,31.2h-28.5v-139.5c0-5.5-4-10.5-9.5-10.5h-62.6c-5.5,0-9.8,4.9-9.8,10.5v139.5h-43v-97.6
			c-0.1-5.7-4.6-10.2-10.3-10.4h-62.7c-5.6,0.2-10.1,4.8-10.1,10.4v97.6h-25.9c-5.5,0-10,4.5-10,10s4.5,10,10,10h278.6
			c2.4,2,5,3.7,7.6,5.3c-19.5,12.1-31.4,33.5-31.3,56.5v39.2h-9.8c-5.5,0-10,4.5-10,10s4.5,10,10,10h150.7c5.5,0,10-4.5,10-10
			S455.313,483.826,449.813,483.826z M142.913,362.826h-43v-88h43V362.826z M267.913,362.826h-42v-130h42V362.826z M351.913,201.826
			h42v71h-42V201.826z M328.913,292.826h93v26h-93V292.826z M329.013,338.826h91.9c-3.9,25.4-27.7,42.8-53.1,38.9
			C347.913,374.626,332.113,358.926,329.013,338.826z M355.113,483.826l12.2-13.8c3.5-4,9.5-4.4,13.5-0.9c0.3,0.3,0.7,0.6,0.9,0.9
			l12.2,13.8H355.113z M421.913,483.826h-1.2l-24-27.1c-5.6-6.4-13.7-10-22.2-10c-8.4,0-16.4,3.6-22,10l-23.6,26.7v-38.9
			c0-25.7,20.8-46.5,46.5-46.5s46.5,20.9,46.5,46.6V483.826z"/>
	</g>
</g>
<g>
</g>
<g>
</g>
<g>
</g>
<g>
</g>
<g>
</g>
<g>
</g>
<g>
</g>
<g>
</g>
<g>
</g>
<g>
</g>
<g>
</g>
<g>
</g>
<g>
</g>
<g>
</g>
<g>
</g>
</svg>
