<?xml version="1.0" encoding="iso-8859-1"?>
<!-- Generator: Adobe Illustrator 19.0.0, SVG Export Plug-In . SVG Version: 6.00 Build 0)  -->
<svg version="1.1" id="Capa_1" xmlns="http://www.w3.org/2000/svg" xmlns:xlink="http://www.w3.org/1999/xlink" x="0px" y="0px"
	 viewBox="0 0 442 442" style="enable-background:new 0 0 442 442;" xml:space="preserve">
<g>
	<g>
		<path d="M250.2,102h-89c-5.5,0-10,4.5-10,10v190c0,5.5,4.5,10,10,10h89c5.5,0,10-4.5,10-10V112C260.2,106.5,255.7,102,250.2,102z
			 M240.2,292h-69V122h69V292z"/>
	</g>
</g>
<g>
	<g>
		<path d="M100.2,172h-89c-5.5,0-10,4.5-10,10v120c0,5.5,4.5,10,10,10h89c5.5,0,10-4.5,10-10V182C110.2,176.5,105.7,172,100.2,172z
			 M90.2,292h-69V192h69V292z"/>
	</g>
</g>
<g>
	<g>
		<path d="M430.8,422h-8.6v-40.2c0-23.4-12.2-45.1-32.1-57.4c19.9-12.3,32.1-34,32.1-57.4v-40h8.6c5.5,0,10-4.5,10-10s-4.5-10-10-10
			h-20.6V10.3c0-5.6-4.5-10.2-10.1-10.3h-89c-5.5,0-9.9,4.8-9.9,10.3V207h-23.5c-5.5,0-10,4.5-10,10s4.5,10,10,10h9.5v40
			c0,23.4,12.2,45.1,32.1,57.4c-20,12.3-32.1,34-32.1,57.4V422h-9.5c-5.5,0-10,4.5-10,10s4.5,10,10,10h153.1c5.5,0,10-4.5,10-10
			S436.3,422,430.8,422z M321.2,20h69v187h-69V20z M307.2,254v-27h95v27H307.2z M307.9,274h93.8c-3.9,25.9-28,43.7-53.9,39.8
			C327.2,310.8,311,294.6,307.9,274z M334.288,421.9l12.513-14.3c3.5-4.1,9.7-4.6,13.8-1.1c0.4,0.4,0.8,0.7,1.1,1.1l12.6,14.3
			H334.288z M402.2,422h-1.1l-24.4-27.7c-10.8-12.4-29.7-13.6-42-2.8c-1,0.9-2,1.8-2.8,2.8L307.4,422h-0.2v-40.2
			c0-26.2,21.3-47.5,47.5-47.5s47.5,21.3,47.5,47.5V422z"/>
	</g>
</g>
<g>
</g>
<g>
</g>
<g>
</g>
<g>
</g>
<g>
</g>
<g>
</g>
<g>
</g>
<g>
</g>
<g>
</g>
<g>
</g>
<g>
</g>
<g>
</g>
<g>
</g>
<g>
</g>
<g>
</g>
</svg>
