<?xml version="1.0" encoding="iso-8859-1"?>
<!-- Generator: Adobe Illustrator 19.0.0, SVG Export Plug-In . SVG Version: 6.00 Build 0)  -->
<svg version="1.1" id="Capa_1" xmlns="http://www.w3.org/2000/svg" xmlns:xlink="http://www.w3.org/1999/xlink" x="0px" y="0px"
	 viewBox="0 0 490.807 490.807" style="enable-background:new 0 0 490.807 490.807;" xml:space="preserve">
<g>
	<g>
		<path d="M300.407,198.183h-56c-5.5,0-10,4.5-10,10v166c0,5.5,4.5,10,10,10h56c5.5,0,10-4.5,10-10v-166
			C310.407,202.683,305.907,198.183,300.407,198.183z M290.407,364.183h-36v-146h36V364.183z"/>
	</g>
</g>
<g>
	<g>
		<path d="M185.407,272.183h-56c-5.5,0-10,4.5-10,10v92c0,5.5,4.5,10,10,10h56c5.5,0,10-4.5,10-10v-92
			C195.407,276.683,190.907,272.183,185.407,272.183z M175.407,364.183h-36v-72h36V364.183z"/>
	</g>
</g>
<g>
	<g>
		<path d="M69.407,251.183h-56c-5.5,0-10,4.5-10,10v113c0,5.5,4.5,10,10,10h56c5.5,0,10-4.5,10-10v-113
			C79.407,255.683,74.907,251.183,69.407,251.183z M60.407,364.183h-37v-93h37V364.183z"/>
	</g>
</g>
<g>
	<g>
		<path d="M418.207,21.783c-15.7-16.8-42.2-17.6-59-1.9c-11.3,10.6-15.8,26.5-11.7,41.4l-45.3,32.1c-16.2-16.4-42.7-16.6-59.1-0.4
			c-11.6,11.5-15.5,28.6-9.9,44l-41.8,35.3c-13.2-18.9-39.2-23.6-58.2-10.4c-7.2,5-12.6,12.2-15.5,20.4l-34.7-14.1
			c-3.9-22.8-25.4-38.1-48.2-34.2s-38.1,25.4-34.2,48.2c3.9,22.8,25.4,38.1,48.2,34.2c15-2.5,27.4-13,32.5-27.3l34.7,14.1
			c3.9,22.8,25.4,38.1,48.2,34.2c20.1-3.4,34.8-20.8,34.8-41.2c0-1.3-0.1-2.7-0.2-4l45.6-38.5c17.1,15.5,43.5,14.3,59-2.8
			c9.9-10.9,13.3-26.2,9.1-40.2l44.8-31.8c15.8,16.8,42.2,17.6,59,1.9C433.107,64.983,433.907,38.583,418.207,21.783z
			 M41.807,196.983c-12,0-21.8-9.8-21.8-21.8s9.8-21.8,21.8-21.8s21.8,9.8,21.8,21.8C63.607,187.283,53.807,196.983,41.807,196.983z
			 M157.107,217.983c-12,0-21.8-9.8-21.8-21.8s9.8-21.8,21.8-21.8s21.8,9.8,21.8,21.8S169.207,217.983,157.107,217.983z
			 M272.507,144.583c-12,0-21.8-9.8-21.8-21.8s9.8-21.8,21.8-21.8s21.8,9.8,21.8,21.8S284.507,144.583,272.507,144.583z
			 M387.907,72.183c-12,0-21.8-9.8-21.8-21.8c0-12.1,9.7-21.8,21.8-21.8c12,0,21.8,9.8,21.8,21.8S399.907,72.183,387.907,72.183z"/>
	</g>
</g>
<g>
	<g>
		<path d="M480.807,462.183h-8.4v-40.2c0-23.4-12.2-45.1-32.1-57.4c19.9-12.3,32.1-34,32.1-57.4v-40h8.4c5.5,0,10-4.5,10-10
			s-4.5-10-10-10h-54.4v-111.4c0-5.5-4.8-9.6-10.4-9.6h-56.3c-5.5,0-10.3,4-10.3,9.6v111.4h-21.7c-5.5,0-10,4.5-10,10s4.5,10,10,10
			h9.7v40c0,23.4,12.2,45.1,32.1,57.4c-20,12.3-32.1,34-32.1,57.4v40.2h-9.7c-5.5,0-10,4.5-10,10s4.5,10,10,10h153.1
			c5.5,0,10-4.5,10-10S486.307,462.183,480.807,462.183z M369.407,146.183h37v101h-37V146.183z M357.407,294.183v-27h95v27H357.407z
			 M357.907,314.183h93.8c-3.9,25.9-28,43.7-53.9,39.9C377.207,350.983,361.007,334.783,357.907,314.183z M384.207,462.183
			l12.6-14.4c3.5-4.1,9.7-4.6,13.8-1.1c0.4,0.4,0.8,0.8,1.2,1.2l12.6,14.3H384.207z M452.407,462.183h-1.3l-24.4-27.7
			c-10.8-12.4-29.6-13.6-42-2.8c-1,0.9-2,1.8-2.9,2.9l-24.4,27.6v-40.2c0-26.2,21.3-47.5,47.5-47.5s47.5,21.2,47.5,47.5V462.183z"/>
	</g>
</g>
<g>
</g>
<g>
</g>
<g>
</g>
<g>
</g>
<g>
</g>
<g>
</g>
<g>
</g>
<g>
</g>
<g>
</g>
<g>
</g>
<g>
</g>
<g>
</g>
<g>
</g>
<g>
</g>
<g>
</g>
</svg>
