<?xml version="1.0" encoding="iso-8859-1"?>
<!-- Generator: Adobe Illustrator 19.0.0, SVG Export Plug-In . SVG Version: 6.00 Build 0)  -->
<svg version="1.1" id="Capa_1" xmlns="http://www.w3.org/2000/svg" xmlns:xlink="http://www.w3.org/1999/xlink" x="0px" y="0px"
	 viewBox="0 0 493.9 493.9" style="enable-background:new 0 0 493.9 493.9;" xml:space="preserve">
<g>
	<g>
		<path d="M457.6,37.681c-21.4-10.6-47.4-1.8-57.9,19.7c-7.2,14.6-5.6,32.1,4.2,45.2l-42.5,46.2c-15.3-18.2-42.5-20.6-60.7-5.3
			c-1.1,0.9-2.1,1.9-3.1,2.9l-36-29.5c0-0.1,0-0.2,0-0.3c0-23.9-19.3-43.2-43.2-43.2c-23.9,0-43.2,19.3-43.2,43.2
			c0,3.8,0.5,7.7,1.5,11.4l-39.8,49.7c-21.5-10.3-47.3-1.1-57.6,20.4s-1.1,47.3,20.4,57.6c6,2.5,12.4,3.9,18.8,3.9
			c23.8,0,43.2-19.3,43.2-43.1c0-9.6-3.2-18.9-9.1-26.5l34.9-43.6c16.5,17.1,43.8,17.6,61,1.1c2.9-2.8,5.5-6.1,7.5-9.6l31.3,25.7
			c-7.1,22.8,5.5,47,28.3,54.1c22.8,7.1,47-5.5,54.1-28.3c2.2-6.9,2.6-14.2,1.1-21.3l48.6-52.8c21.4,10.6,47.4,1.8,57.9-19.7
			C487.9,74.181,479.1,48.181,457.6,37.681z M118.5,239.581c-12.8,0-23.2-10.4-23.2-23.2c0-12.8,10.4-23.1,23.2-23.2
			c12.8,0,23.2,10.4,23.2,23.2C141.7,229.181,131.3,239.581,118.5,239.581z M218.5,139.581c-12.8,0-23.2-10.4-23.2-23.2
			c0-12.8,10.4-23.1,23.2-23.2c12.8,0,23.2,10.4,23.2,23.2S231.3,139.581,218.5,139.581z M328.5,199.581
			c-12.8,0-23.2-10.4-23.2-23.2c0-12.8,10.4-23.1,23.2-23.2c12.8,0,23.2,10.4,23.2,23.2C351.7,189.181,341.3,199.581,328.5,199.581z
			 M438.5,99.581c-12.8,0-23.2-10.4-23.2-23.2c0-12.8,10.4-23.1,23.2-23.2c12.8,0,23.2,10.4,23.2,23.2
			C461.7,89.181,451.3,99.581,438.5,99.581z"/>
	</g>
</g>
<g>
	<g>
		<path d="M361.7,222.781c-46,0-86.6,24.2-110.3,59.2H60v-265.9c0-5.5-4.4-10-10-10.1H10c-5.5,0-10,4.6-10,10.1v296.3
			c0.1,16.4,13.4,29.6,29.8,29.6c0.1,0,0.1,0,0.2,0h200c-0.4,5-0.6,8.8-0.6,13.1c0,71.7,57.3,130.3,128.5,132.3c1.9,0.7,4,0.7,6,0.1
			c71.9-1.2,130-60.2,130-132.3C494,282.281,434.6,222.781,361.7,222.781z M233.6,321.981H30c-5.5,0-10-4-10-9.6v-286.4h20v266.4
			c0,5.5,4.5,9.6,10,9.6h190.5C237.7,308.981,235.4,315.981,233.6,321.981z M371,467.181v-44.2c0-5.5-4.5-10-10-10s-10,4.5-10,10
			v44.1c-53.1-5.2-95.3-47-101-100.1h44c5.5,0,10-4.5,10-10s-4.5-10-10-10h-44.2c4.1-54.5,46.8-98.1,101.2-103.4v45.4
			c0,5.5,4.5,10,10,10s10-4.5,10-10v-45.6c55,4.6,98.5,48.5,102.7,103.6H428c-5.5,0-10,4.5-10,10s4.5,10,10,10h45.4
			C467.7,420.581,424.7,462.681,371,467.181z"/>
	</g>
</g>
<g>
	<g>
		<path d="M361.7,311.581c-24.2,0-43.7,19.6-43.7,43.7c0,24.1,19.6,43.7,43.7,43.7c24.2,0,43.7-19.6,43.7-43.7
			C405.4,331.181,385.8,311.581,361.7,311.581z M361.7,378.981c-13.1,0-23.7-10.6-23.7-23.7c0-13.1,10.6-23.7,23.7-23.7
			c13.1,0,23.7,10.6,23.7,23.7C385.4,368.381,374.8,378.981,361.7,378.981z"/>
	</g>
</g>
<g>
</g>
<g>
</g>
<g>
</g>
<g>
</g>
<g>
</g>
<g>
</g>
<g>
</g>
<g>
</g>
<g>
</g>
<g>
</g>
<g>
</g>
<g>
</g>
<g>
</g>
<g>
</g>
<g>
</g>
</svg>
