<?xml version="1.0" encoding="iso-8859-1"?>
<!-- Generator: Adobe Illustrator 19.0.0, SVG Export Plug-In . SVG Version: 6.00 Build 0)  -->
<svg version="1.1" id="Capa_1" xmlns="http://www.w3.org/2000/svg" xmlns:xlink="http://www.w3.org/1999/xlink" x="0px" y="0px"
	 viewBox="0 0 502.8 502.8" style="enable-background:new 0 0 502.8 502.8;" xml:space="preserve">
<g>
	<g>
		<path d="M393.7,57.25l-0.1-0.1C357,21.05,309,1.25,258.4,1.25c-5.5,0-10,4.5-10,10v181.2c0,5.5,4.5,9.9,10,9.9h181.2
			c5.5,0,10-4.4,10-9.9C449.6,141.95,429.8,93.95,393.7,57.25z M268.4,21.55c18.6,1,36.8,5.1,54,12.1l-54,54V21.55z M268.4,115.95
			l73.2-73.2c10.8,6,21,13.2,30.3,21.4l-103.5,103.6V115.95z M282,182.35l104.1-104.1c8.2,9.3,15.4,19.4,21.5,30.2l-73.9,73.9H282z
			 M362,182.35l54.8-54.8c7.2,17.5,11.4,36,12.5,54.8H362z"/>
	</g>
</g>
<g>
	<g>
		<path d="M370.5,236.85c-18.6,0.2-37,4.1-54.1,11.5h-115v-171c0-5.5-4.6-10-10.1-10c-50.8-0.2-99.6,20-135.4,56
			c-36,36.7-55.9,84.7-55.9,135.2c0,105.4,85.8,191.2,191.2,191.2c22.7,0.1,45.1-3.9,66.4-11.7c24,39.4,66.8,63.5,112.9,63.5
			c72.9,0,132.3-59.4,132.3-132.3S443.5,236.85,370.5,236.85z M248.5,419.95c-18.5,6.5-37.8,9.8-57.3,9.8
			c-94.4,0-171.2-76.8-171.2-171.2c0-45.3,17.9-88.3,50.2-121.1c29.6-29.8,69.2-47.5,111.2-49.8v170.9c-0.1,5.3,4.2,9.7,9.5,9.8
			c0.1,0,0.2,0,0.3,0h93.7C241.1,305.65,226.4,366.85,248.5,419.95z M379.4,481.15v-44.8c0-5.5-4.5-10-10-10s-10,4.5-10,10v44.6
			c-53.2-5.4-95.2-47.4-100.6-100.6h43.6c5.5,0,10-4.5,10-10s-4.5-10-10-10h-43.8c4.4-54.1,46.8-97.4,100.8-102.9v44.9
			c0,5.5,4.5,10,10,10s10-4.5,10-10v-45.1c55,4.4,98.6,48.1,103.1,103.1h-46.1c-5.5,0-10,4.5-10,10s4.5,10,10,10h45.9
			C476.8,434.35,433.5,476.75,379.4,481.15z"/>
	</g>
</g>
<g>
	<g>
		<path d="M370.5,325.45c-24.2,0-43.7,19.6-43.7,43.7c0,24.2,19.6,43.7,43.7,43.7c24.2,0,43.7-19.6,43.7-43.7
			C414.2,345.05,394.7,325.55,370.5,325.45z M370.5,392.95c-13.1,0-23.7-10.6-23.7-23.7c0-13.1,10.6-23.7,23.7-23.7
			c13.1,0,23.7,10.6,23.7,23.7C394.3,382.35,383.6,392.95,370.5,392.95z"/>
	</g>
</g>
<g>
</g>
<g>
</g>
<g>
</g>
<g>
</g>
<g>
</g>
<g>
</g>
<g>
</g>
<g>
</g>
<g>
</g>
<g>
</g>
<g>
</g>
<g>
</g>
<g>
</g>
<g>
</g>
<g>
</g>
</svg>
