<?xml version="1.0" encoding="iso-8859-1"?>
<!-- Generator: Adobe Illustrator 19.0.0, SVG Export Plug-In . SVG Version: 6.00 Build 0)  -->
<svg version="1.1" id="Capa_1" xmlns="http://www.w3.org/2000/svg" xmlns:xlink="http://www.w3.org/1999/xlink" x="0px" y="0px"
	 viewBox="0 0 497.759 497.759" style="enable-background:new 0 0 497.759 497.759;" xml:space="preserve">
<g>
	<g>
		<path d="M422.079,245.734v-234.4c0-5.5-4.5-10-10-10c-0.5,0-1,0-1.5,0.1l-46.9,7.3l-32.4-8.4c-3.7-1-7.7,0.3-10.1,3.2l-31.8,37.4
			l-36.4-8.9c-3.7-0.9-7.6,0.4-10,3.3l-31.4,37.4l-36.9-34.5c-3.1-2.9-7.6-3.5-11.3-1.6l-28.4,14.1l-40.4-35.3
			c-2-1.8-4.7-2.6-7.4-2.4c-2.7,0.2-5.3,1.5-7.1,3.6l-22,26.3v-27.2c0.2-5.4-4.1-9.8-9.4-10c-0.1,0-0.2,0-0.2,0h-38
			c-5.5,0-10.4,4.5-10.4,10v294.9c0,16,13.4,29.1,29.4,29.1h206.2c-1.7,8.4-2.5,17-2.5,25.6c0,72.1,58,130.9,129.8,132.2
			c1.4,0.3,2.8,0.3,4.2,0c72.1-1,130.5-59.9,130.5-132.2C497.579,314.234,468.179,267.734,422.079,245.734z M58.079,74.134
			l30.9-36.9l37.9,32.9c3.1,2.7,7.5,3.2,11.1,1.4l28-14l39.6,36.9c4,3.8,10.4,3.6,14.1-0.5c0.1-0.1,0.2-0.3,0.4-0.4l34.2-40.8
			l36.4,8.9c3.7,0.9,7.6-0.4,10-3.2l31.7-37.4l28.4,7.4c1.3,0.3,2.7,0.4,4.1,0.2l37.3-5.8v61.2l-30.8-15.3c-4.1-2.1-9.2-1-12.2,2.5
			l-32.6,38.9l-36-22c-4.2-2.6-9.7-1.7-12.9,2.1l-36.8,43.7l-43.7-18.1c-3.6-1.5-7.8-0.7-10.7,1.9l-35.4,33.1l-21.2-36.5
			c-2.8-4.8-8.9-6.4-13.7-3.6c-0.4,0.2-0.7,0.4-1,0.7l-29.6,22.4l-27.5-16.4V74.134z M58.079,140.834l23.1,13.7
			c3.5,2.1,8,1.9,11.3-0.6l25.9-19.7l21.8,37.6c2.8,4.8,8.9,6.4,13.7,3.6c0.6-0.4,1.3-0.8,1.8-1.3l39.9-37.3l44.5,18.4
			c4,1.7,8.7,0.5,11.5-2.8l35.9-42.7l36,22.1c4.2,2.6,9.7,1.7,12.9-2.1l33.1-39.4l32.6,16.4v50.1l-29.9-10.8
			c-4.5-1.6-9.5,0.1-12,4.2l-32.8,53.7l-32.8-21.8c-4.3-2.9-10.1-2-13.3,2.1l-34.2,42.4l-33.1-26.9c-3.5-2.8-8.4-3-12.1-0.4
			l-33.4,23.6l-41.7-26.7c-3.9-2.5-9-2-12.3,1.2l-33.7,32l-22.7-6.6V140.834z M58.079,243.634l22.6,6.7c1,0.3,1.9,0.4,2.9,0.4
			c2.6,0,5.1-1,7-2.8l32-30.6l40.8,26.1c3.4,2.2,7.8,2.1,11.2-0.3l32.7-23.1l35.1,28.4c4.3,3.5,10.6,2.8,14.1-1.5l34.8-43.2
			l33.9,22.5c4.6,3.1,10.8,1.8,13.9-2.8c0.1-0.1,0.1-0.2,0.2-0.3l33.9-55.6l29,10.5v60c-12-3.3-24.4-5-36.8-5
			c-39.7-0.1-77.4,17.8-102.4,48.7h-204.9V243.634z M241.279,319.734h-211.8c-5.1-0.1-9.2-4.1-9.4-9.1v-284.9h18v265.9
			c0.2,5.6,4.7,10.1,10.3,10.1h201.1C246.379,307.534,243.679,313.534,241.279,319.734z M375.079,477.134v-44.4c0-5.5-4.5-10-10-10
			s-10,4.5-10,10v44.3c-53.4-5-95.8-47-101.4-100.3h44.4c5.5,0,10-4.5,10-10s-4.5-10-10-10h-44.6c4.2-54.6,47.1-98.2,101.6-103.3
			v45.3c0,5.5,4.5,10,10,10s10-4.5,10-10v-45.3c54.8,4.8,98,48.5,102.3,103.3h-45.3c-5.5,0-10,4.5-10,10s4.5,10,10,10h45
			C471.479,430.334,428.679,472.434,375.079,477.134z"/>
	</g>
</g>
<g>
	<g>
		<path d="M365.379,321.534c-24.2,0-43.7,19.6-43.7,43.7c0,24.2,19.6,43.7,43.7,43.7c24.2,0,43.7-19.6,43.7-43.7
			C409.079,341.134,389.579,321.534,365.379,321.534z M365.379,389.034c-13.1,0-23.7-10.6-23.7-23.7c0-13.1,10.6-23.7,23.7-23.7
			c13.1,0,23.7,10.6,23.7,23.7C389.079,378.334,378.479,388.934,365.379,389.034z"/>
	</g>
</g>
<g>
</g>
<g>
</g>
<g>
</g>
<g>
</g>
<g>
</g>
<g>
</g>
<g>
</g>
<g>
</g>
<g>
</g>
<g>
</g>
<g>
</g>
<g>
</g>
<g>
</g>
<g>
</g>
<g>
</g>
</svg>
