<?xml version="1.0" encoding="iso-8859-1"?>
<!-- Generator: Adobe Illustrator 19.0.0, SVG Export Plug-In . SVG Version: 6.00 Build 0)  -->
<svg version="1.1" id="Capa_1" xmlns="http://www.w3.org/2000/svg" xmlns:xlink="http://www.w3.org/1999/xlink" x="0px" y="0px"
	 viewBox="0 0 467.7 467.7" style="enable-background:new 0 0 467.7 467.7;" xml:space="preserve">
<g>
	<g>
		<path d="M99,175.85H10c-5.5,0-10,4.5-10,10v120c0,5.5,4.5,10,10,10h89c5.5,0,10-4.5,10-10v-120C109,180.35,104.5,175.85,99,175.85
			z M89,296.85H20v-101h69V296.85z"/>
	</g>
</g>
<g>
	<g>
		<path d="M408,219.65V14.75c0-5.5-4-9.9-9.5-9.9h-89c-5.5,0-9.5,4.4-9.5,9.9v188.1c-14.7,4.1-28.6,10.8-41,19.7v-106
			c0-5.5-4.7-9.7-10.3-9.7h-89c-5.2-0.1-9.6,4-9.8,9.2c0,0.1,0,0.3,0,0.4v190.1c0,5.5,4.2,10.3,9.8,10.3h44.4
			c-0.5,4.4-0.7,8.9-0.7,13.3c0,71.5,57.1,129.9,128.1,132.1c2.2,0.8,4.6,0.8,6.8,0c71.7-1.4,129.4-60.2,129.4-132.2
			C467.7,285.55,445.3,244.05,408,219.65z M320,24.85h68v183.9c-16.5-7.3-34.3-11-52.3-11c-5.3,0-10.5,0.3-15.7,1V24.85z
			 M170,296.85v-170h69v113.4c-15.2,15.8-25.9,35.3-31.2,56.6H170z M345,441.95v-44.1c0-5.5-4.5-10-10-10s-10,4.5-10,10v43.9
			c-53.1-5.2-95.2-46.9-100.9-99.9H268c5.5,0,10-4.5,10-10s-4.5-10-10-10h-44.2c4.1-54.5,46.8-98.3,101.2-103.6v45.6
			c0,5.5,4.5,10,10,10s10-4.5,10-10v-45.7c55.1,4.6,98.6,48.6,102.7,103.7H402c-5.5,0-10,4.5-10,10s4.5,10,10,10h45.4
			C441.6,395.45,398.7,437.35,345,441.95z"/>
	</g>
</g>
<g>
	<g>
		<path d="M335.7,287.35c-24.2,0-43.7,19.6-43.7,43.7c0,24.2,19.6,43.7,43.7,43.7c24.2,0,43.7-19.6,43.7-43.7
			C379.4,306.85,359.9,287.35,335.7,287.35z M335.7,354.75c-13.1,0-23.7-10.6-23.7-23.7c0-13.1,10.6-23.7,23.7-23.7
			c13.1,0,23.7,10.6,23.7,23.7C359.4,344.15,348.8,354.75,335.7,354.75z"/>
	</g>
</g>
<g>
</g>
<g>
</g>
<g>
</g>
<g>
</g>
<g>
</g>
<g>
</g>
<g>
</g>
<g>
</g>
<g>
</g>
<g>
</g>
<g>
</g>
<g>
</g>
<g>
</g>
<g>
</g>
<g>
</g>
</svg>
