<?xml version="1.0" encoding="iso-8859-1"?>
<!-- Generator: Adobe Illustrator 19.0.0, SVG Export Plug-In . SVG Version: 6.00 Build 0)  -->
<svg version="1.1" id="Capa_1" xmlns="http://www.w3.org/2000/svg" xmlns:xlink="http://www.w3.org/1999/xlink" x="0px" y="0px"
	 viewBox="0 0 503.709 503.709" style="enable-background:new 0 0 503.709 503.709;" xml:space="preserve">
<g>
	<g>
		<path d="M186.708,262.759h-56c-5.5,0-10,4.5-10,10v92c0,5.5,4.5,10,10,10h56c5.5,0,10-4.5,10-10v-92
			C196.708,267.259,192.208,262.759,186.708,262.759z M176.708,355.759h-36v-73h36V355.759z"/>
	</g>
</g>
<g>
	<g>
		<path d="M70.708,242.759h-56c-5.5,0-10,4.5-10,10v113c0,5.5,4.5,10,10,10h56c5.5,0,10-4.5,10-10v-113
			C80.708,247.259,76.208,242.759,70.708,242.759z M61.708,355.759h-37v-93h37V355.759z"/>
	</g>
</g>
<g>
	<g>
		<path d="M419.608,13.159c-15.7-16.8-42.2-17.6-59-1.9c-11.3,10.6-15.8,26.5-11.7,41.4l-45.4,32.1c-16.2-16.4-42.7-16.6-59.1-0.4
			c-11.6,11.5-15.5,28.6-9.9,44l-41.8,35.2c-13.2-18.9-39.2-23.6-58.2-10.4c-7.2,5-12.6,12.2-15.5,20.4l-34.7-14.1
			c-3.9-22.8-25.4-38.1-48.2-34.2c-22.8,3.9-38.1,25.5-34.2,48.3c3.9,22.8,25.4,38.1,48.2,34.2c15-2.5,27.4-13,32.5-27.3l34.7,14.1
			c3.9,22.8,25.4,38.1,48.2,34.2c20.1-3.4,34.8-20.8,34.8-41.2c0-1.3-0.1-2.7-0.2-4l45.6-38.5c17.1,15.5,43.5,14.3,59-2.8
			c9.9-10.9,13.3-26.2,9.1-40.2l44.9-31.8c15.8,16.8,42.2,17.6,59,1.9C434.508,56.358,435.308,29.959,419.608,13.159z
			 M43.108,188.359c-12,0-21.8-9.8-21.8-21.8s9.7-21.8,21.8-21.8c12,0,21.8,9.8,21.8,21.8S55.108,188.359,43.108,188.359z
			 M158.408,209.359c-12,0-21.8-9.8-21.8-21.8s9.8-21.8,21.8-21.8s21.8,9.8,21.8,21.8S170.508,209.359,158.408,209.359z
			 M273.808,135.859c-12,0-21.8-9.8-21.8-21.8c0-12,9.8-21.7,21.8-21.8c12,0,21.8,9.8,21.8,21.8S285.808,135.859,273.808,135.859z
			 M389.208,63.459c-12,0-21.8-9.8-21.8-21.8s9.7-21.8,21.8-21.8c12,0,21.8,9.8,21.8,21.8S401.208,63.459,389.208,63.459z"/>
	</g>
</g>
<g>
	<g>
		<path d="M427.708,252.259v-125.4c-0.2-5.6-4.8-10.1-10.4-10.1h-56.3c-5.6,0-10.2,4.5-10.3,10.1v113.6c-13.6,1.9-26.7,6-39,12
			v-53.4c0-5.5-4.2-10.3-9.7-10.3h-56.3c-5.6,0.1-10,4.7-9.9,10.3v166.3c0,2.1,0.7,4.2,1.9,5.9v0.1c0,72,57.8,130.8,129.5,132.2
			c1,0.2,2,0.2,3,0c72.8-0.1,132.2-59.4,132.2-132.3C502.208,320.658,473.308,274.459,427.708,252.259z M370.708,136.759h37v107.8
			c-12-3.5-24.5-5.3-37-5.4V136.759z M255.708,208.759h36v55.8c-14,10.7-27,24.4-36,40.2V208.759z M378.708,483.259v-44.5
			c0-5.5-4.5-10-10-10s-10,4.5-10,10v44.3c-53.1-5.4-95.1-47.3-100.5-100.3h43.5c5.5,0,10-4.5,10-10s-4.5-10-10-10h-43.8
			c4.3-54.2,46.7-97.6,100.8-103.1v45.1c0,5.5,4.5,10,10,10s10-4.5,10-10v-45.3c55.1,4.4,98.8,48.2,103.1,103.3h-46.1
			c-5.5,0-10,4.5-10,10s4.5,10,10,10h45.9C476.008,436.658,432.708,478.959,378.708,483.259z"/>
	</g>
</g>
<g>
	<g>
		<path d="M369.908,327.658c-24.2,0-43.7,19.6-43.7,43.7c0,24.1,19.6,43.7,43.7,43.7c24.2,0,43.7-19.6,43.7-43.7
			C413.608,347.259,394.008,327.658,369.908,327.658z M369.908,395.158c-13.1,0-23.7-10.6-23.7-23.7c0-13.1,10.6-23.7,23.7-23.7
			c13.1,0,23.7,10.6,23.7,23.7C393.608,384.459,383.008,395.059,369.908,395.158z"/>
	</g>
</g>
<g>
</g>
<g>
</g>
<g>
</g>
<g>
</g>
<g>
</g>
<g>
</g>
<g>
</g>
<g>
</g>
<g>
</g>
<g>
</g>
<g>
</g>
<g>
</g>
<g>
</g>
<g>
</g>
<g>
</g>
</svg>
