<?xml version="1.0" encoding="iso-8859-1"?>
<!-- Generator: Adobe Illustrator 19.0.0, SVG Export Plug-In . SVG Version: 6.00 Build 0)  -->
<svg version="1.1" id="Capa_1" xmlns="http://www.w3.org/2000/svg" xmlns:xlink="http://www.w3.org/1999/xlink" x="0px" y="0px"
	 viewBox="0 0 461.9 461.9" style="enable-background:new 0 0 461.9 461.9;" xml:space="preserve">
<g>
	<g>
		<path d="M413.95,50.1c-0.1-27.6-22.5-50.1-50.1-50.1H98.05c-27.6,0.1-50,22.5-50.1,50.1v361.7c0.1,27.6,22.4,50,50.1,50.1h276.2
			c21.9,0,39.7-17.7,39.7-39.6c0-0.3,0-0.5,0-0.8L413.95,50.1L413.95,50.1z M393.95,421.7c0,0.1-0.1,0.2,0,0.3
			c0.1,5.2-1.9,10.2-5.5,13.9c-3.7,3.9-8.9,6.1-14.2,6.1H98.05c-16.6-0.1-30-13.5-30.1-30.1V50.1c0.1-16.6,13.5-30.1,30.1-30.1
			h265.8c16.6,0.1,30,13.5,30.1,30.1V421.7z"/>
	</g>
</g>
<g>
	<g>
		<path d="M362.95,39h-265c-5.5,0-10,4.5-10,10v331c0,5.5,4.5,10,10,10h265c5.5,0,10-4.5,10-10V49C372.95,43.5,368.45,39,362.95,39z
			 M353.95,369h-246V59h246V369z"/>
	</g>
</g>
<g>
	<g>
		<path d="M243.45,405h-25.1c-5.5,0-10,4.5-10,10s4.5,10,10,10h25.1c5.5,0,10-4.5,10-10S249.05,405,243.45,405z"/>
	</g>
</g>
<g>
	<g>
		<path d="M300.65,237h-0.1h-75.6v-75.9c0-5.5-4.4-10-9.9-10c0,0,0,0-0.1,0c-25.4-0.1-49.7,10-67.6,28
			c-37.2,37.4-37.1,97.9,0.3,135.1c18,17.8,42.2,27.8,67.4,27.8c52.6,0.1,95.4-42.5,95.5-95.2C310.55,241.4,306.15,237,300.65,237z
			 M268.45,300.2c-29.6,29.4-77.5,29.3-106.9-0.4c-14-14.1-21.9-33.2-22-53.2c0.1-20,8-39.2,22.1-53.4
			c11.7-11.7,26.9-19.2,43.3-21.4v74.8c0,5.6,4.5,10.2,10.1,10.4h74.8C287.55,273.3,280.05,288.5,268.45,300.2z"/>
	</g>
</g>
<g>
	<g>
		<path d="M314.45,147.9c0,0-0.1,0-0.1-0.1c-17.9-17.8-42.1-27.8-67.4-27.8c-5.5,0-9.9,4.5-9.9,10v85.5c0,5.3,4.2,9.6,9.5,9.6
			c0-0.1,0.1-0.1,0.3-0.1h85.5c5.4,0.1,9.9-4.2,10-9.6v-0.1C342.35,190,332.35,165.8,314.45,147.9z M256.95,140.7
			c3.5,0.5,7,1.2,10.5,2.1l-10.5,10.5V140.7z M256.95,181.6l30-30.1c1.9,1.2,3.8,2.5,5.6,3.8l-35.6,35.7V181.6z M270.75,205
			l35.9-35.7c1.4,1.8,2.7,3.6,3.9,5.5l-30.4,30.2H270.75z M308.45,205l10.9-10.9c1,3.6,1.7,7.2,2.3,10.9H308.45z"/>
	</g>
</g>
<g>
</g>
<g>
</g>
<g>
</g>
<g>
</g>
<g>
</g>
<g>
</g>
<g>
</g>
<g>
</g>
<g>
</g>
<g>
</g>
<g>
</g>
<g>
</g>
<g>
</g>
<g>
</g>
<g>
</g>
</svg>
