<?xml version="1.0" encoding="iso-8859-1"?>
<!-- Generator: Adobe Illustrator 19.0.0, SVG Export Plug-In . SVG Version: 6.00 Build 0)  -->
<svg version="1.1" id="Capa_1" xmlns="http://www.w3.org/2000/svg" xmlns:xlink="http://www.w3.org/1999/xlink" x="0px" y="0px"
	 viewBox="0 0 461.9 461.9" style="enable-background:new 0 0 461.9 461.9;" xml:space="preserve">
<g>
	<g>
		<path d="M413.95,50.1c-0.1-27.6-22.5-50.1-50.1-50.1H98.05c-27.6,0.1-50,22.5-50.1,50.1v361.7c0.1,27.6,22.4,50.1,50.1,50.1h276.2
			c21.9,0,39.7-17.7,39.7-39.6c0-0.3,0-0.5,0-0.8L413.95,50.1L413.95,50.1z M393.95,421.7c0,0.1-0.1,0.2,0,0.3
			c0.1,5.2-1.9,10.2-5.5,13.9c-3.7,3.9-8.9,6.1-14.2,6.1H98.05c-16.6-0.1-30-13.5-30.1-30.1V50.1c0.1-16.6,13.5-30.1,30.1-30.1
			h265.8c16.6,0.1,30,13.5,30.1,30.1V421.7z"/>
	</g>
</g>
<g>
	<g>
		<path d="M362.95,39h-265c-5.5,0-10,4.5-10,10v331c0,5.5,4.5,10,10,10h265c5.5,0,10-4.5,10-10V49C372.95,43.5,368.45,39,362.95,39z
			 M353.95,369h-246V59h246V369z"/>
	</g>
</g>
<g>
	<g>
		<path d="M243.45,405h-25.1c-5.5,0-10,4.5-10,10s4.5,10,10,10h25.1c5.5,0,10-4.5,10-10S249.05,405,243.45,405z"/>
	</g>
</g>
<g>
	<g>
		<path d="M343.55,218.4c-2.3-21.9-11-42.7-25.1-59.7c-3.2-3.8-8.8-4.4-12.7-1.2c-0.2,0.2-0.4,0.4-0.6,0.6l-39,38.5
			c-3,3-3.5,7.7-1.2,11.3c2.7,4.4,4.7,9.2,6,14.3c1,4,4.6,6.8,8.7,6.8h53.7c0.3,0,0.7,0,1,0h0.2c4,0,7.6-2.7,8.7-6.5
			c0.2-0.8,0.4-1.6,0.4-2.5C343.65,219.5,343.65,218.9,343.55,218.4z M286.25,211c-0.7-2-1.6-4.2-2.6-6.4l26.6-26.5
			c6.7,10,11.3,21.2,13.8,32.9H286.25z"/>
	</g>
</g>
<g>
	<g>
		<path d="M303.45,143.9c-0.2-0.2-0.4-0.4-0.6-0.6c-17.2-14.2-38.2-23-60.4-25.1c-4.9-0.7-9.5,2.7-10.2,7.6
			c-0.1,0.4-0.1,0.9-0.1,1.3V182c-0.2,4.2,2.9,7.9,7.2,8.7c4.9,1,9.6,3,13.9,5.8c3.6,2.3,8.3,1.9,11.3-1.1l38.9-38.8
			C306.95,153.1,306.95,147.4,303.45,143.9z M256.65,177.8c-2.2-1.1-4.4-2-6.7-2.8v-37.6c11.9,2.4,23.2,7.1,33.3,13.8L256.65,177.8z
			"/>
	</g>
</g>
<g>
	<g>
		<path d="M219.05,118.1c-0.3,0-0.6,0-0.9,0c-25.8,2.6-49.8,14.1-68,32.5c-18.1,18.5-29.3,42.6-31.8,68.4c-0.5,4.9,3.1,9.3,8.1,9.8
			c0.2,0.2,0.5,0.2,0.8,0.2h54.9c4.2,0,7.9-2.9,8.8-7.1c3.2-14.4,16.1-27.7,30.2-31.1c4-1,6.9-4.6,6.9-8.8v-54.9
			C228.05,122.1,224.05,118.1,219.05,118.1z M209.95,175.5c-15.4,6.1-28.7,19.8-34.5,35.5h-37.8c3.6-18,12.4-34.5,25.3-47.6
			c12.8-13,29.2-21.9,47-25.7V175.5z"/>
	</g>
</g>
<g>
	<g>
		<path d="M222.45,270.5c-0.1,0-0.1,0-0.2,0c-15.8-3.3-28.1-15.7-31.5-31.5c-0.9-4.2-4.6-7.1-8.8-7.1h-55c-2.5,0-4.9,1-6.7,2.9
			c-1.7,1.9-2.5,4.4-2.3,6.9c5.4,53.6,47.7,96.1,101.2,101.5c0.3,0,0.6,0,0.9,0c4.9,0,9-4,9-8.9c0,0,0.1-13.7,0.2-27.5
			c0.1-6.9,0.1-13.7,0.1-18.9c0-2.6,0-4.7,0-6.3c0-0.8,0-1.4,0-1.8C229.35,272.5,223.55,270.7,222.45,270.5z M211.05,323.8
			c-37.1-7.8-66-36.8-73.7-73.9l37.8-0.1c5.9,17,19.2,30.4,36.2,36.3C211.35,294.6,211.15,310,211.05,323.8z"/>
	</g>
</g>
<g>
	<g>
		<path d="M335.25,233.1c-0.3,0-0.6,0-0.9,0h-54.9c-4.2,0-7.8,2.9-8.8,7c-3.4,15.1-16.4,27.9-31.6,31c-4.2,0.9-7.2,4.5-7.2,8.8
			l-0.2,54.9c0.1,2.5,1.2,5,3.1,6.7c1.9,1.7,4.4,2.5,7,2.2h0.1c53.5-5.2,96.2-47.6,101.5-100.8
			C343.85,238,340.25,233.5,335.25,233.1z M266.05,319.6l-16.2-16.2l0.1-16.7c2.6-0.9,5.2-2,7.6-3.3l26.6,26.6
			C278.45,313.8,272.45,317,266.05,319.6z M298.15,298.4l-25.9-25.9c4.7-4.6,8.6-10,11.6-16l26.7,26.7
			C306.95,288.7,302.75,293.8,298.15,298.4z M319.25,266.5l-15.5-15.5h20.2C322.85,256.3,321.25,261.5,319.25,266.5z"/>
	</g>
</g>
<g>
</g>
<g>
</g>
<g>
</g>
<g>
</g>
<g>
</g>
<g>
</g>
<g>
</g>
<g>
</g>
<g>
</g>
<g>
</g>
<g>
</g>
<g>
</g>
<g>
</g>
<g>
</g>
<g>
</g>
</svg>
