<?xml version="1.0" encoding="iso-8859-1"?>
<!-- Generator: Adobe Illustrator 19.0.0, SVG Export Plug-In . SVG Version: 6.00 Build 0)  -->
<svg version="1.1" id="Capa_1" xmlns="http://www.w3.org/2000/svg" xmlns:xlink="http://www.w3.org/1999/xlink" x="0px" y="0px"
	 viewBox="0 0 461.9 461.9" style="enable-background:new 0 0 461.9 461.9;" xml:space="preserve">
<g>
	<g>
		<path d="M413.95,50.1c-0.1-27.6-22.5-50.1-50.1-50.1H98.05c-27.6,0.1-50,22.5-50.1,50.1v361.7c0.1,27.6,22.4,50,50.1,50.1h276.2
			c21.9,0,39.7-17.7,39.7-39.6c0-0.3,0-0.5,0-0.8L413.95,50.1L413.95,50.1z M393.95,421.7c0,0.1-0.1,0.2,0,0.3
			c0.1,5.2-1.9,10.2-5.5,13.9c-3.7,3.9-8.9,6.1-14.2,6.1H98.05c-16.6-0.1-30-13.5-30.1-30.1V50.1c0.1-16.6,13.5-30.1,30.1-30.1
			h265.8c16.6,0.1,30,13.5,30.1,30.1V421.7z"/>
	</g>
</g>
<g>
	<g>
		<path d="M362.95,39h-265c-5.5,0-10,4.5-10,10v331c0,5.5,4.5,10,10,10h265c5.5,0,10-4.5,10-10V49C372.95,43.5,368.45,39,362.95,39z
			 M353.95,369h-246V59h246V369z"/>
	</g>
</g>
<g>
	<g>
		<path d="M243.45,405h-25.1c-5.5,0-10,4.5-10,10s4.5,10,10,10h25.1c5.5,0,10-4.5,10-10S249.05,405,243.45,405z"/>
	</g>
</g>
<g>
	<g>
		<path d="M334.15,124.7c0,0,0,0-0.1,0l-55.4-4c-5.5-0.4-10.3,3.8-10.7,9.3c-0.4,5.5,3.8,10.3,9.3,10.7l29.4,2.1l-62.3,48.4
			l-52.9-41.7c-3.9-3.1-9.5-2.8-13.1,0.6l-56.7,54.4c-4,3.8-4.1,10.2-0.3,14.1c1.9,2.1,4.5,3.2,7.2,3.2c2.6,0,5.1-1,6.9-2.8
			l50.4-48.4l52.2,41.1c3.6,2.8,8.7,2.9,12.3,0l71.2-55.3l-2.2,28.9c-0.4,5.5,3.7,10.3,9.2,10.7c0.3,0,0.5,0,0.8,0
			c5.2,0,9.6-4,10-9.2l4-51.4C343.75,129.9,339.65,125.1,334.15,124.7z"/>
	</g>
</g>
<g>
	<g>
		<path d="M248.95,239h-35c-5.5,0-10,4.5-10,10v83c0,5.5,4.5,10,10,10h35c5.5,0,10-4.5,10-10v-83
			C258.95,243.5,254.45,239,248.95,239z M237.95,321h-14v-62h14V321z"/>
	</g>
</g>
<g>
	<g>
		<path d="M177.95,262h-35c-5.5,0-10,4.5-10,10v59c0,5.5,4.5,10,10,10h35c5.5,0,10-4.5,10-10v-59
			C187.95,266.5,183.45,262,177.95,262z M167.95,321h-15v-39h15V321z"/>
	</g>
</g>
<g>
	<g>
		<path d="M318.95,221h-35c-5.5,0-10,4.5-10,10v100c0,5.5,4.5,10,10,10h35c5.5,0,10-4.5,10-10V231
			C328.95,225.5,324.45,221,318.95,221z M308.95,321h-15v-80h15V321z"/>
	</g>
</g>
<g>
</g>
<g>
</g>
<g>
</g>
<g>
</g>
<g>
</g>
<g>
</g>
<g>
</g>
<g>
</g>
<g>
</g>
<g>
</g>
<g>
</g>
<g>
</g>
<g>
</g>
<g>
</g>
<g>
</g>
</svg>
