<?xml version="1.0" encoding="iso-8859-1"?>
<!-- Generator: Adobe Illustrator 19.0.0, SVG Export Plug-In . SVG Version: 6.00 Build 0)  -->
<svg version="1.1" id="Capa_1" xmlns="http://www.w3.org/2000/svg" xmlns:xlink="http://www.w3.org/1999/xlink" x="0px" y="0px"
	 viewBox="0 0 461.9 461.9" style="enable-background:new 0 0 461.9 461.9;" xml:space="preserve">
<g>
	<g>
		<path d="M413.95,50.1c-0.1-27.6-22.5-50.1-50.1-50.1H98.05c-27.6,0.1-50,22.5-50.1,50.1v361.7c0.1,27.6,22.4,50,50.1,50.1h276.2
			c21.9,0,39.7-17.7,39.7-39.6c0-0.3,0-0.5,0-0.8L413.95,50.1L413.95,50.1z M393.95,421.7c0,0.1-0.1,0.2,0,0.3
			c0.1,5.2-1.9,10.2-5.5,13.9c-3.7,3.9-8.9,6.1-14.2,6.1H98.05c-16.6-0.1-30-13.5-30.1-30.1V50.1c0.1-16.6,13.5-30.1,30.1-30.1
			h265.8c16.6,0.1,30,13.5,30.1,30.1V421.7z"/>
	</g>
</g>
<g>
	<g>
		<path d="M362.95,39h-265c-5.5,0-10,4.5-10,10v331c0,5.5,4.5,10,10,10h265c5.5,0,10-4.5,10-10V49C372.95,43.5,368.45,39,362.95,39z
			 M353.95,369h-246V59h246V369z"/>
	</g>
</g>
<g>
	<g>
		<path d="M243.45,405h-25.1c-5.5,0-10,4.5-10,10s4.5,10,10,10h25.1c5.5,0,10-4.5,10-10S249.05,405,243.45,405z"/>
	</g>
</g>
<g>
	<g>
		<path d="M331.45,138.8c-11.3-8.5-27.5-6.2-36,5.1c-4,5.3-5.8,12-4.9,18.6l-16.4,11.5c-11.5-8.2-27.5-5.5-35.7,6
			c-4.1,5.8-5.7,13.1-4.2,20.1l-14.2,12c-10.4-9.6-26.6-8.9-36.2,1.5c-1.1,1.2-2.2,2.6-3,4l-10.2-4.1c-4-13.6-18.2-21.4-31.8-17.4
			c-13.6,4-21.4,18.2-17.4,31.8c3.1,10.8,13.1,18.4,24.5,18.4c8.9,0,17.2-4.7,21.9-12.3l10.2,4.1c3.9,13.6,18.2,21.4,31.7,17.5
			c10.8-3.1,18.3-13,18.5-24.3l17.4-14.7c12,7.5,27.8,3.9,35.3-8c2.6-4.1,3.9-8.8,3.9-13.7c0-1.3-0.1-2.5-0.3-3.7l16-11.3
			c11.4,8.5,27.5,6.2,36-5.1C345.05,163.4,342.75,147.3,331.45,138.8z M145.95,226.2c-3.1,0-5.6-2.5-5.6-5.6c0-3.1,2.5-5.6,5.6-5.6
			c3.1,0,5.6,2.5,5.6,5.6C151.55,223.7,149.05,226.2,145.95,226.2z M202.65,236.5c-3.1,0-5.6-2.5-5.6-5.6c0-3.1,2.5-5.6,5.6-5.6
			s5.6,2.5,5.6,5.6C208.25,234,205.75,236.5,202.65,236.5z M259.25,200.5c-3.1,0-5.6-2.5-5.6-5.6c0-3.1,2.5-5.6,5.6-5.6
			c3.1,0,5.6,2.5,5.6,5.6C264.85,198,262.35,200.5,259.25,200.5z M315.95,164.9c-3.1,0-5.6-2.5-5.6-5.6c-0.1-3.1,2.5-5.6,5.6-5.6
			c3.1,0,5.6,2.5,5.6,5.6C321.55,162.4,319.05,164.9,315.95,164.9z"/>
	</g>
</g>
<g>
	<g>
		<path d="M329.95,191h-28c-5.5,0-10,4.5-10,10v117c0,5.5,4.5,10,10,10h28c5.5,0,10-4.5,10-10V201
			C339.95,195.5,335.45,191,329.95,191z M319.95,308h-8v-97h8V308z"/>
	</g>
</g>
<g>
	<g>
		<path d="M272.95,227h-28c-5.5,0-10,4.5-10,10v82c0,5.5,4.5,10,10,10h28c5.5,0,10-4.5,10-10v-82
			C282.95,231.5,278.45,227,272.95,227z M262.95,308h-8v-61h8V308z"/>
	</g>
</g>
<g>
	<g>
		<path d="M216.95,263h-28c-5.5,0-10,4.5-10,10v45c0,5.5,4.5,10,10,10h28c5.5,0,10-4.5,10-10v-45
			C226.95,267.5,222.45,263,216.95,263z M206.95,308h-8v-25h8V308z"/>
	</g>
</g>
<g>
	<g>
		<path d="M159.95,253h-28c-5.5,0-10,4.5-10,10v55c0,5.5,4.5,10,10,10h28c5.5,0,10-4.5,10-10v-55
			C169.95,257.5,165.45,253,159.95,253z M149.95,308h-8v-35h8V308z"/>
	</g>
</g>
<g>
</g>
<g>
</g>
<g>
</g>
<g>
</g>
<g>
</g>
<g>
</g>
<g>
</g>
<g>
</g>
<g>
</g>
<g>
</g>
<g>
</g>
<g>
</g>
<g>
</g>
<g>
</g>
<g>
</g>
</svg>
