<?xml version="1.0" encoding="iso-8859-1"?>
<!-- Generator: Adobe Illustrator 19.0.0, SVG Export Plug-In . SVG Version: 6.00 Build 0)  -->
<svg version="1.1" id="Capa_1" xmlns="http://www.w3.org/2000/svg" xmlns:xlink="http://www.w3.org/1999/xlink" x="0px" y="0px"
	 viewBox="0 0 472 472" style="enable-background:new 0 0 472 472;" xml:space="preserve">
<g>
	<g>
		<path d="M377.3,220.1c11,0,19.7-9.2,19.7-20.2v-44.5c0-11.2-8.7-20.4-19.7-20.4H370v-15.5c0-23-15.7-42.9-38-48.4V50.2
			C332,22.6,309.9,0,282.3,0h-120c-27.7,0.1-50.1,22.5-50.3,50.2v20.9c-21.8,6-37,25.8-37,48.4v239.1c0,22.6,15.2,42.5,37,48.4v14.8
			c0.2,27.7,22.6,50.1,50.3,50.2h120c27.6,0,49.7-22.6,49.7-50.2V407c22.3-5.5,38-25.5,38-48.4V337h7.3c11,0,19.7-9.2,19.7-20.2
			v-52.5c0-11-8.7-20.2-19.7-20.2H370v-24H377.3z M370,155h7v45h-7V155z M132,50.2c0.1-16.7,13.6-30.1,30.3-30.2h120
			c16.5,0.1,29.8,13.6,29.7,30.1V70H132V50.2z M312,421.8c0.1,16.6-13.2,30.1-29.7,30.2h-120c-16.6-0.1-30.1-13.5-30.3-30.2V409h180
			V421.8z M350,359c0,16.6-13.4,30-30,30H125c-16.6,0-30-13.4-30-30V120c0-16.6,13.4-30,30-30h195c16.6,0,30,13.4,30,30V359z
			 M377,264v53h-7v-53H377z"/>
	</g>
</g>
<g>
	<g>
		<path d="M306.2,299H130V163.1c0-5.5-4.5-10-10-10s-10,4.5-10,10v136.6c-0.1,10.6,8.5,19.3,19.1,19.4h177.1c5.5,0,10-4.5,10-10
			S311.7,299,306.2,299z"/>
	</g>
</g>
<g>
	<g>
		<path d="M316.6,175.2c-2.4-0.7-4.9-1-7.3-1c-14,0-25.4,11.4-25.5,25.4c0,4,1,8,2.8,11.6l-13.4,14.6c-8.7-6.5-20.6-6.7-29.6-0.5
			l-11.4-9.4c-1.3-14-13.7-24.3-27.7-23c-14,1.3-24.3,13.7-23,27.7c0.1,0.6,0.1,1.2,0.2,1.7l-14.4,18c-13.5-3.9-27.6,3.9-31.5,17.4
			c-3.9,13.5,3.9,27.6,17.4,31.5c13.5,3.9,27.6-3.9,31.5-17.4c1.8-6.3,1.1-13.1-1.9-18.9l10.5-13.2c10.2,6.4,23.4,4.8,31.8-3.9
			l7.8,6.4c-2.1,13.9,7.4,26.9,21.3,29c13.9,2.1,26.9-7.4,29-21.3c0.2-1.3,0.3-2.6,0.3-3.9c0-0.7,0-1.3-0.1-2l18.6-20
			c13.5,4,27.6-3.7,31.7-17.1C337.7,193.4,330,179.3,316.6,175.2z M160.3,270.2c-3,0-5.5-2.4-5.5-5.5c0-3,2.4-5.5,5.5-5.5
			c3,0,5.5,2.4,5.5,5.5C165.7,267.8,163.3,270.2,160.3,270.2z M206.8,223.7c-3,0-5.5-2.4-5.5-5.5c0-3,2.4-5.5,5.5-5.5
			c3,0,5.5,2.4,5.5,5.5C212.3,221.2,209.9,223.7,206.8,223.7z M258.1,251.6c-3,0-5.5-2.4-5.5-5.5c0-3.1,2.4-5.5,5.5-5.5
			c3,0,5.5,2.4,5.5,5.5C263.5,249.2,261.1,251.6,258.1,251.6z M309.3,205.1c-3,0-5.5-2.4-5.5-5.5c0-3.1,2.4-5.5,5.5-5.5
			c3,0,5.5,2.4,5.5,5.5C314.7,202.6,312.3,205.1,309.3,205.1z"/>
	</g>
</g>
<g>
</g>
<g>
</g>
<g>
</g>
<g>
</g>
<g>
</g>
<g>
</g>
<g>
</g>
<g>
</g>
<g>
</g>
<g>
</g>
<g>
</g>
<g>
</g>
<g>
</g>
<g>
</g>
<g>
</g>
</svg>
