<?xml version="1.0" encoding="iso-8859-1"?>
<!-- Generator: Adobe Illustrator 19.0.0, SVG Export Plug-In . SVG Version: 6.00 Build 0)  -->
<svg version="1.1" id="Capa_1" xmlns="http://www.w3.org/2000/svg" xmlns:xlink="http://www.w3.org/1999/xlink" x="0px" y="0px"
	 viewBox="0 0 472 472" style="enable-background:new 0 0 472 472;" xml:space="preserve">
<g>
	<g>
		<path d="M377.3,220.1c11,0,19.7-9.2,19.7-20.2v-44.5c0-11.2-8.7-20.4-19.7-20.4H370v-15.5c0-23-15.7-42.9-38-48.4V50.2
			C332,22.6,309.9,0,282.3,0h-120c-27.7,0.1-50.1,22.5-50.3,50.2v20.9c-21.8,6-37,25.8-37,48.4v239.1c0,22.6,15.2,42.5,37,48.4v14.8
			c0.2,27.7,22.6,50.1,50.3,50.2h120c27.6,0,49.7-22.6,49.7-50.2V407c22.3-5.5,38-25.5,38-48.4V337h7.3c11,0,19.7-9.2,19.7-20.2
			v-52.5c0-11-8.7-20.2-19.7-20.2H370v-24H377.3z M370,155h7v45h-7V155z M132,50.2c0.1-16.7,13.6-30.1,30.3-30.2h120
			c16.5,0.1,29.8,13.6,29.7,30.1V70H132V50.2z M312,421.8c0.1,16.6-13.2,30.1-29.7,30.2h-120c-16.6-0.1-30.1-13.5-30.3-30.2V409h180
			V421.8z M350,359c0,16.6-13.4,30-30,30H125c-16.6,0-30-13.4-30-30V120c0-16.6,13.4-30,30-30h195c16.6,0,30,13.4,30,30V359z
			 M377,264v53h-7v-53H377z"/>
	</g>
</g>
<g>
	<g>
		<path d="M292.1,242c-0.1,0-0.2,0-0.2,0H216v-75.9c0.1-5.4-4.2-9.9-9.6-10h-0.1c-25.3-0.1-49.6,10-67.5,28
			c-37.3,37.3-37.2,97.8,0.1,135.1c37.3,37.3,97.8,37.2,135.1-0.1c17.8-17.9,27.9-42.1,27.9-67.3C301.9,246.4,297.5,242,292.1,242z
			 M259.8,305.2c-29.6,29.4-77.5,29.3-106.9-0.4c-14-14.1-21.9-33.3-22-53.2c-0.2-37.8,27.6-69.8,65-74.9v74.8
			c0.2,5.7,4.7,10.3,10.4,10.4h74.8C278.9,278.3,271.4,293.5,259.8,305.2z"/>
	</g>
</g>
<g>
	<g>
		<path d="M305.7,152.8c0,0-0.1,0.1-0.1,0c-18-17.8-42.2-27.8-67.5-27.9c-5.5,0-10,4.5-10.1,10v85.5c0,5.5,4.6,9.6,10.1,9.6h85.5
			c5.4,0.1,9.9-4.2,10-9.7v-0.1C333.6,194.9,323.6,170.7,305.7,152.8z M248,145.7c3.5,0.4,7,1.1,10.5,2.1L248,158.3V145.7z
			 M248,186.6l30.1-30.1c1.9,1.2,3.7,2.5,5.6,3.9L248,196V186.6z M262,210l36-35.7c1.4,1.8,2.7,3.6,3.9,5.5L271.5,210H262z
			 M299.7,210l10.9-10.9c1,3.6,1.7,7.2,2.3,10.9H299.7z"/>
	</g>
</g>
<g>
</g>
<g>
</g>
<g>
</g>
<g>
</g>
<g>
</g>
<g>
</g>
<g>
</g>
<g>
</g>
<g>
</g>
<g>
</g>
<g>
</g>
<g>
</g>
<g>
</g>
<g>
</g>
<g>
</g>
</svg>
