<?xml version="1.0" encoding="iso-8859-1"?>
<!-- Generator: Adobe Illustrator 19.0.0, SVG Export Plug-In . SVG Version: 6.00 Build 0)  -->
<svg version="1.1" id="Capa_1" xmlns="http://www.w3.org/2000/svg" xmlns:xlink="http://www.w3.org/1999/xlink" x="0px" y="0px"
	 viewBox="0 0 472 472" style="enable-background:new 0 0 472 472;" xml:space="preserve">
<g>
	<g>
		<path d="M377.3,220.1c11,0,19.7-9.2,19.7-20.2v-44.5c0-11.2-8.7-20.4-19.7-20.4H370v-15.5c0-23-15.7-42.9-38-48.4V50.2
			C332,22.6,309.9,0,282.3,0h-120c-27.7,0.1-50.1,22.5-50.3,50.2v20.9c-21.8,6-37,25.8-37,48.4v239.1c0,22.6,15.2,42.5,37,48.4v14.8
			c0.2,27.7,22.6,50.1,50.3,50.2h120c27.6,0,49.7-22.6,49.7-50.2V407c22.3-5.5,38-25.5,38-48.4V337h7.3c11,0,19.7-9.2,19.7-20.2
			v-52.5c0-11-8.7-20.2-19.7-20.2H370v-24H377.3z M370,155h7v45h-7V155z M132,50.2c0.1-16.7,13.6-30.1,30.3-30.2h120
			c16.5,0.1,29.8,13.6,29.7,30.1V70H132V50.2z M312,421.8c0.1,16.6-13.2,30.1-29.7,30.2h-120c-16.6-0.1-30.1-13.5-30.3-30.2V409h180
			V421.8z M350,359c0,16.6-13.4,30-30,30H125c-16.6,0-30-13.4-30-30V120c0-16.6,13.4-30,30-30h195c16.6,0,30,13.4,30,30V359z
			 M377,264v53h-7v-53H377z"/>
	</g>
</g>
<g>
	<g>
		<path d="M334.8,223.5c-2.4-22.1-11.1-42.8-25.2-59.8c-3.2-3.8-8.8-4.4-12.7-1.2c-0.2,0.2-0.4,0.4-0.6,0.6l-38.8,38.6
			c-3,3-3.5,7.7-1.2,11.3c2.7,4.4,4.7,9.2,6,14.3c1,4,4.6,6.8,8.7,6.8h53.7c0.3,0,0.7,0,1,0h0.1c4,0,7.5-2.6,8.7-6.5
			c0.2-0.8,0.4-1.7,0.4-2.5C334.9,224.6,334.9,224,334.8,223.5z M277.6,216c-0.7-2-1.6-4.2-2.6-6.4l26.6-26.5
			c6.6,10,11.3,21.2,13.7,32.9H277.6z"/>
	</g>
</g>
<g>
	<g>
		<path d="M294.6,148.9c-0.2-0.2-0.4-0.4-0.6-0.6c-17.3-14.3-38.5-23-60.8-25.2H233c5,0.6,7.6,4.3,7.7,8.8c-0.1-4.4-2.7-8.2-7.7-8.8
			h-0.1c-0.3,0-0.6,0-0.9,0c-5,0-9,4-9,9V187c0,4.3,3.3,8.1,7.7,8.8c4.9,1,9.6,3,13.8,5.8c3.6,2.3,8.3,1.9,11.3-1.2l38.8-38.8
			C298.1,158.1,298.1,152.4,294.6,148.9z M247.9,182.8c-2.2-1.1-4.6-2-6.9-2.8v-37.6c12,2.4,23.3,7.1,33.5,13.8L247.9,182.8z"/>
	</g>
</g>
<g>
	<g>
		<path d="M210,123.1c-0.3,0-0.6,0-0.9,0c-25.7,2.6-49.7,14.1-67.8,32.5c-18,18.5-29.2,42.6-31.7,68.4c-0.5,4.9,3.1,9.3,8.1,9.8
			c0.3,0.2,0.6,0.2,0.8,0.2h54.9c4.2,0,7.9-2.9,8.8-7.1c3.2-14.4,16-27.8,29.9-31.1c4-1,6.9-4.6,6.9-8.8v-54.9
			C219,127.1,215,123.1,210,123.1z M201,180.5c-15.2,6.1-28.4,19.7-34.3,35.5H129c3.6-18,12.3-34.5,25.1-47.6
			c12.8-13,29.1-21.9,46.9-25.7V180.5z"/>
	</g>
</g>
<g>
	<g>
		<path d="M213.8,275.6c-0.1,0-0.1,0-0.2,0c-15.8-3.3-28.1-15.7-31.5-31.5c-0.9-4.2-4.6-7.1-8.8-7.1h-55c-2.5,0-4.9,1-6.7,2.9
			c-1.7,1.9-2.5,4.4-2.3,6.9c5.3,53.6,47.6,96,101.1,101.5c0.3,0,0.6,0,0.9,0c4.9,0,9-4,9-8.9c0,0,0.1-13.7,0.2-27.5
			c0.1-6.9,0.1-13.7,0.1-18.9c0-2.6,0-4.7,0-6.3c0-0.8,0-1.4,0-1.8C220.7,277.6,215,275.8,213.8,275.6z M202.5,328.8
			c-37.1-7.8-66-36.8-73.7-73.9l37.7-0.1c5.9,17,19.2,30.4,36.2,36.3C202.7,299.7,202.6,315,202.5,328.8z"/>
	</g>
</g>
<g>
	<g>
		<path d="M326.6,238.1c-0.2-0.1-0.5-0.1-0.8-0.1h-54.9c-4.2,0-7.8,2.9-8.8,7c-3.4,15.1-16.4,27.9-31.6,31c-4.2,0.9-7.2,4.5-7.2,8.8
			l-0.2,54.9c0,5,4,9,9,9c0.3,0,0.6,0,0.9,0h0.2c53.5-5.2,96.2-47.6,101.5-100.8C335.2,243,331.6,238.5,326.6,238.1z M257.4,324.6
			l-16.2-16.2l0.1-16.7c2.6-0.9,5.1-2,7.6-3.3l26.6,26.6C269.8,318.8,263.8,322,257.4,324.6z M289.5,303.4l-25.9-25.9
			c4.7-4.6,8.6-10,11.6-16l26.7,26.7C298.3,293.7,294.1,298.8,289.5,303.4z M310.6,271.5L295.1,256h20.2
			C314.2,261.3,312.6,266.5,310.6,271.5z"/>
	</g>
</g>
<g>
</g>
<g>
</g>
<g>
</g>
<g>
</g>
<g>
</g>
<g>
</g>
<g>
</g>
<g>
</g>
<g>
</g>
<g>
</g>
<g>
</g>
<g>
</g>
<g>
</g>
<g>
</g>
<g>
</g>
</svg>
