<?xml version="1.0" encoding="iso-8859-1"?>
<!-- Generator: Adobe Illustrator 19.0.0, SVG Export Plug-In . SVG Version: 6.00 Build 0)  -->
<svg version="1.1" id="Capa_1" xmlns="http://www.w3.org/2000/svg" xmlns:xlink="http://www.w3.org/1999/xlink" x="0px" y="0px"
	 viewBox="0 0 472 472" style="enable-background:new 0 0 472 472;" xml:space="preserve">
<g>
	<g>
		<path d="M377.3,220.1c11,0,19.7-9.2,19.7-20.2v-44.5c0-11.2-8.7-20.4-19.7-20.4H370v-15.5c0-23-15.7-42.9-38-48.4V50.2
			C332,22.6,309.9,0,282.3,0h-120c-27.7,0.1-50.1,22.5-50.3,50.2v20.9c-21.8,6-37,25.8-37,48.4v239.1c0,22.6,15.2,42.5,37,48.4v14.8
			c0.2,27.7,22.6,50.1,50.3,50.2h120c27.6,0,49.7-22.6,49.7-50.2V407c22.3-5.5,38-25.5,38-48.4V337h7.3c11,0,19.7-9.2,19.7-20.2
			v-52.5c0-11-8.7-20.2-19.7-20.2H370v-24H377.3z M370,155h7v45h-7V155z M132,50.2c0.1-16.7,13.6-30.1,30.3-30.2h120
			c16.5,0.1,29.8,13.6,29.7,30.1V70H132V50.2z M312,421.8c0.1,16.6-13.2,30.1-29.7,30.2h-120c-16.6-0.1-30.1-13.5-30.3-30.2V409h180
			V421.8z M350,359c0,16.6-13.4,30-30,30H125c-16.6,0-30-13.4-30-30V120c0-16.6,13.4-30,30-30h195c16.6,0,30,13.4,30,30V359z
			 M377,264v53h-7v-53H377z"/>
	</g>
</g>
<g>
	<g>
		<path d="M325.4,129.6l-55.4-4c-5.5-0.4-10.3,3.8-10.7,9.3c-0.4,5.5,3.8,10.3,9.3,10.7l29.4,2.1l-62.3,48.4l-52.9-41.7
			c-3.9-3.1-9.5-2.8-13.1,0.6L113,209.6c-4,3.8-4.3,10.1-0.5,14.1s10.1,4.3,14.1,0.5c0.1-0.1,0.1-0.1,0.2-0.2l50.4-48.4l52.2,41.1
			c3.6,2.8,8.7,2.9,12.3,0l71.2-55.3l-2.2,28.9c-0.4,5.5,3.7,10.3,9.2,10.7c0.3,0,0.5,0,0.8,0c5.2,0,9.6-4,10-9.2l4-51.4
			C335.1,134.9,330.9,130.1,325.4,129.6z"/>
	</g>
</g>
<g>
	<g>
		<path d="M240,244h-35c-5.5,0-10,4.5-10,10v83c0,5.5,4.5,10,10,10h35c5.5,0,10-4.5,10-10v-83C250,248.5,245.5,244,240,244z
			 M230,326h-15v-62h15V326z"/>
	</g>
</g>
<g>
	<g>
		<path d="M169,267h-35c-5.5,0-10,4.5-10,10v59c0,5.5,4.5,10,10,10h35c5.5,0,10-4.5,10-10v-59C179,271.5,174.5,267,169,267z
			 M159,326h-15v-39h15V326z"/>
	</g>
</g>
<g>
	<g>
		<path d="M311,226h-35c-5.5,0-10,4.5-10,10v100c0,5.5,4.5,10,10,10h35c5.5,0,10-4.5,10-10V236C321,230.5,316.5,226,311,226z
			 M300,326h-14v-80h14V326z"/>
	</g>
</g>
<g>
</g>
<g>
</g>
<g>
</g>
<g>
</g>
<g>
</g>
<g>
</g>
<g>
</g>
<g>
</g>
<g>
</g>
<g>
</g>
<g>
</g>
<g>
</g>
<g>
</g>
<g>
</g>
<g>
</g>
</svg>
