<?xml version="1.0" encoding="iso-8859-1"?>
<!-- Generator: Adobe Illustrator 19.0.0, SVG Export Plug-In . SVG Version: 6.00 Build 0)  -->
<svg version="1.1" id="Capa_1" xmlns="http://www.w3.org/2000/svg" xmlns:xlink="http://www.w3.org/1999/xlink" x="0px" y="0px"
	 viewBox="0 0 472 472" style="enable-background:new 0 0 472 472;" xml:space="preserve">
<g>
	<g>
		<path d="M377.3,220.1c11,0,19.7-9.2,19.7-20.2v-44.5c0-11.2-8.7-20.4-19.7-20.4H370v-15.5c0-23-15.7-42.9-38-48.4V50.2
			C332,22.6,309.9,0,282.3,0h-120c-27.7,0.1-50.1,22.5-50.3,50.2v20.9c-21.8,6-37,25.8-37,48.4v239.1c0,22.6,15.2,42.5,37,48.4v14.8
			c0.2,27.7,22.6,50.1,50.3,50.2h120c27.6,0,49.7-22.6,49.7-50.2V407c22.3-5.5,38-25.5,38-48.4V337h7.3c11,0,19.7-9.2,19.7-20.2
			v-52.5c0-11-8.7-20.2-19.7-20.2H370v-24H377.3z M370,155h7v45h-7V155z M132,50.2c0.1-16.7,13.6-30.1,30.3-30.2h120
			c16.5,0.1,29.8,13.6,29.7,30.1V70H132V50.2z M312,421.8c0.1,16.6-13.2,30.1-29.7,30.2h-120c-16.6-0.1-30.1-13.5-30.3-30.2V409h180
			V421.8z M350,359c0,16.6-13.4,30-30,30H125c-16.6,0-30-13.4-30-30V120c0-16.6,13.4-30,30-30h195c16.6,0,30,13.4,30,30V359z
			 M377,264v53h-7v-53H377z"/>
	</g>
</g>
<g>
	<g>
		<path d="M322.6,143.8c-4.4-3.3-9.8-5.1-15.4-5.1c-14.1,0-25.6,11.4-25.6,25.5c0,1.1,0.1,2.2,0.2,3.2L265.5,179
			c-11.5-8.2-27.5-5.5-35.7,6c-4.1,5.8-5.7,13.1-4.2,20.1l-14.2,12c-10.4-9.6-26.6-8.9-36.2,1.5c-1.1,1.2-2.2,2.6-3,4l-10.2-4.1
			c-3.9-13.6-18.2-21.4-31.8-17.5c-13.6,3.9-21.4,18.2-17.5,31.8c3.9,13.6,18.2,21.4,31.8,17.5c6.2-1.8,11.4-5.8,14.7-11.3l10.2,4.1
			c3.9,13.6,18.2,21.4,31.7,17.5c10.8-3.1,18.3-13,18.5-24.3l17.4-14.7c12,7.5,27.8,3.9,35.3-8c2.6-4.1,3.9-8.8,3.9-13.7
			c0-1.3-0.1-2.5-0.3-3.7l16-11.3c11.3,8.5,27.4,6.2,35.9-5.2C336.3,168.4,334,152.3,322.6,143.8z M137.3,231.3
			c-3.1,0-5.6-2.5-5.6-5.6c0-3.1,2.5-5.6,5.6-5.6c3.1,0,5.6,2.5,5.6,5.6C142.9,228.7,140.4,231.2,137.3,231.3z M194,241.6
			c-3.1,0-5.6-2.5-5.6-5.6c0-3.1,2.5-5.6,5.6-5.6c3.1,0,5.6,2.5,5.6,5.6C199.6,239,197.1,241.5,194,241.6z M250.6,205.5
			c-3.1,0-5.6-2.5-5.6-5.6c0-3.1,2.5-5.6,5.6-5.6c3.1,0,5.6,2.5,5.6,5.6C256.2,203,253.7,205.5,250.6,205.5z M307.2,169.9
			c-3.1,0-5.6-2.5-5.6-5.6c0-3.1,2.5-5.6,5.6-5.6c3.1,0,5.6,2.5,5.6,5.6C312.9,167.4,310.3,169.9,307.2,169.9z"/>
	</g>
</g>
<g>
	<g>
		<path d="M321,196h-28c-5.5,0-10,4.5-10,10v117c0,5.5,4.5,10,10,10h28c5.5,0,10-4.5,10-10V206C331,200.5,326.5,196,321,196z
			 M311,313h-8v-97h8V313z"/>
	</g>
</g>
<g>
	<g>
		<path d="M265,232h-28c-5.5,0-10,4.5-10,10v82c0,5.5,4.5,10,10,10h28c5.5,0,10-4.5,10-10v-82C275,236.5,270.5,232,265,232z
			 M254,313h-7v-61h7V313z"/>
	</g>
</g>
<g>
	<g>
		<path d="M208,268h-28c-5.5,0-10,4.5-10,10v45c0,5.5,4.5,10,10,10h28c5.5,0,10-4.5,10-10v-45C218,272.5,213.5,268,208,268z
			 M198,313h-8v-25h8V313z"/>
	</g>
</g>
<g>
	<g>
		<path d="M151,258h-28c-5.5,0-10,4.5-10,10v55c0,5.5,4.5,10,10,10h28c5.5,0,10-4.5,10-10v-55C161,262.5,156.5,258,151,258z
			 M141,313h-8v-35h8V313z"/>
	</g>
</g>
<g>
</g>
<g>
</g>
<g>
</g>
<g>
</g>
<g>
</g>
<g>
</g>
<g>
</g>
<g>
</g>
<g>
</g>
<g>
</g>
<g>
</g>
<g>
</g>
<g>
</g>
<g>
</g>
<g>
</g>
</svg>
