<?xml version="1.0" encoding="iso-8859-1"?>
<!-- Generator: Adobe Illustrator 19.0.0, SVG Export Plug-In . SVG Version: 6.00 Build 0)  -->
<svg version="1.1" id="Capa_1" xmlns="http://www.w3.org/2000/svg" xmlns:xlink="http://www.w3.org/1999/xlink" x="0px" y="0px"
	 viewBox="0 0 467.7 467.7" style="enable-background:new 0 0 467.7 467.7;" xml:space="preserve">
<g>
	<g>
		<path d="M99,176.85H10c-5.5,0-10,4.5-10,10v120c0,5.5,4.5,10,10,10h89c5.5,0,10-4.5,10-10v-120C109,181.35,104.5,176.85,99,176.85
			z M89,296.85H20v-100h69V296.85z"/>
	</g>
</g>
<g>
	<g>
		<path d="M408,220.15V14.85c0-5.5-4-10-9.5-10h-89c-5.5,0-9.5,4.5-9.5,10v188.4c-14.7,4.1-28.6,10.8-41,19.7v-106.3
			c-0.1-5.5-4.7-9.9-10.3-9.8h-89c-5.3-0.1-9.7,4.2-9.8,9.5c0,0.1,0,0.2,0,0.3v190.1c-0.1,5.5,4.2,10,9.7,10.1c0,0,0,0,0.1,0h44.4
			c-0.5,4.6-0.7,9.2-0.7,13.8c0,72.9,59.3,132.2,132.3,132.2s132-59.4,132-132.3C467.7,286.05,445.3,244.55,408,220.15z M320,24.85
			h68v184.4c-16.5-7.3-34.3-11-52.3-11c-5.3,0-10.5,0.3-15.7,1V24.85z M170,296.85v-170h69v113.9c-14.9,15.8-25.7,35.1-31.1,56.1
			H170z M335.7,442.85c-62,0-112.3-50.3-112.3-112.3s50.3-112.3,112.3-112.3S448,268.55,448,330.55
			C447.9,392.55,397.7,442.75,335.7,442.85z"/>
	</g>
</g>
<g>
	<g>
		<path d="M407.6,275.05l-67.8-36.1c-3-1.6-6.6-1.6-9.5,0.1l-66,36.1c-3.2,1.7-5.3,5.1-5.3,8.8v41.7c0.1,41.4,24.6,78.9,62.6,95.4
			l9.2,4c2.5,1.1,5.4,1.1,8,0l10.4-4.4c38.6-16.2,63.8-54,63.8-95.9v-40.7C413,280.15,410.9,276.85,407.6,275.05z M341.3,402.15
			h-0.1l-6.4,2.7l-5.3-2.2c-30.7-13.4-50.5-43.6-50.6-77.1v-35.7l56.1-30.7l57.9,30.7v34.8h0.1
			C393,358.55,372.6,389.05,341.3,402.15z"/>
	</g>
</g>
<g>
	<g>
		<path d="M374.7,306.35c-3.4-4.3-9.8-4.9-14.1-1.5l-33.9,27.6l-11.5-13.4c-3.6-4.2-9.9-4.8-14.1-1.2s-4.8,9.9-1.2,14.1l0.1,0.1
			l17.8,20.9c3.5,4.1,9.7,4.7,13.9,1.3l41.5-33.8C377.5,316.95,378.1,310.65,374.7,306.35z"/>
	</g>
</g>
<g>
</g>
<g>
</g>
<g>
</g>
<g>
</g>
<g>
</g>
<g>
</g>
<g>
</g>
<g>
</g>
<g>
</g>
<g>
</g>
<g>
</g>
<g>
</g>
<g>
</g>
<g>
</g>
<g>
</g>
</svg>
