<?xml version="1.0" encoding="iso-8859-1"?>
<!-- Generator: Adobe Illustrator 19.0.0, SVG Export Plug-In . SVG Version: 6.00 Build 0)  -->
<svg version="1.1" id="Capa_1" xmlns="http://www.w3.org/2000/svg" xmlns:xlink="http://www.w3.org/1999/xlink" x="0px" y="0px"
	 viewBox="0 0 494 494" style="enable-background:new 0 0 494 494;" xml:space="preserve">
<g>
	<g>
		<path d="M457.7,37.75c-21.5-10.5-47.4-1.6-57.9,19.9c-7.2,14.7-5.4,32.2,4.5,45.2l-42.5,46.2c-15.2-18.3-42.4-20.8-60.7-5.6
			c-1.2,1-2.3,2-3.4,3.2l-36-29.4c0-0.2,0-0.4,0-0.6c0-23.9-19.3-43.2-43.2-43.2c-23.9,0-43.2,19.3-43.2,43.2
			c0,3.9,0.5,7.8,1.6,11.6l-39.6,49.5c-21.5-10.4-47.3-1.3-57.7,20.1c-10.4,21.4-1.3,47.3,20.1,57.7c5.9,2.9,12.3,4.3,18.8,4.3
			c23.8,0,43.2-19.3,43.2-43.1c0-9.5-3.1-18.8-8.9-26.3l34.9-43.6c16.6,17.1,43.9,17.4,61,0.8c2.8-2.8,5.3-5.9,7.2-9.3l31.4,25.7
			c-7,22.8,5.8,47,28.6,54s47-5.8,54-28.6c2.1-6.8,2.5-13.9,1.1-20.9l48.7-53c21.5,10.5,47.4,1.6,57.9-19.9S479.2,48.25,457.7,37.75
			z M118.5,239.85c-12.8,0-23.2-10.4-23.2-23.2c0-12.8,10.4-23.1,23.2-23.2c12.8,0,23.2,10.4,23.2,23.2
			C141.7,229.45,131.3,239.85,118.5,239.85z M218.5,139.85c-12.8,0-23.2-10.4-23.2-23.2c0-12.8,10.4-23.1,23.2-23.2
			c12.8,0,23.2,10.4,23.2,23.2S231.3,139.85,218.5,139.85z M328.5,199.85c-12.8,0-23.2-10.4-23.2-23.2c0-12.8,10.4-23.1,23.2-23.2
			c12.8,0,23.2,10.4,23.2,23.2C351.7,189.45,341.3,199.85,328.5,199.85z M438.5,99.85c-12.8,0-23.2-10.4-23.2-23.2
			c0-12.8,10.4-23.1,23.2-23.2c12.8,0,23.2,10.4,23.2,23.2C461.7,89.45,451.3,99.85,438.5,99.85z"/>
	</g>
</g>
<g>
	<g>
		<path d="M361.7,223.45c-44.6,0-86.1,22.5-110.5,59.8H60V16.65c0-5.5-4.5-10.4-10-10.4H10c-5.5,0-10,4.9-10,10.4v296.3
			c0,16.6,13.4,30.1,30,30.2h200c-0.4,4-0.6,8.2-0.6,12.4c0,72.9,59.3,132.2,132.3,132.2S494,428.55,494,355.65
			S434.6,223.45,361.7,223.45z M233.5,323.25H30c-5.6-0.1-10-4.7-10-10.2V26.25h20v266.8c0,5.6,4.5,10.1,10,10.2h190.3
			C237.4,309.65,235.1,316.35,233.5,323.25z M361.7,467.85c-62,0-112.3-50.3-112.3-112.3s50.3-112.3,112.3-112.3
			S474,293.55,474,355.55C473.9,417.55,423.7,467.75,361.7,467.85z"/>
	</g>
</g>
<g>
	<g>
		<path d="M435.8,336.05l-8.2-1.4c-1.1-3.6-2.6-7-4.3-10.4l4.8-6.9c2.8-4,2.3-9.4-1.1-12.8l-13.9-13.9c-3.5-3.5-8.9-3.9-12.9-1
			l-6.8,4.9c-3.3-1.7-6.8-3.1-10.3-4.2l-1.4-7.9c-0.8-4.8-5-8.2-9.9-8.1h-19.6c-4.8-0.1-9,3.3-9.9,8.1l-1.4,8
			c-3.6,1.1-7,2.5-10.4,4.2l-6.9-4.9c-4-2.8-9.4-2.3-12.8,1.1l-13.9,13.9c-3.4,3.4-3.9,8.8-1.1,12.8l4.8,6.8
			c-1.7,3.4-3.1,6.8-4.3,10.4l-8.1,1.4c-4.8,0.8-8.3,5-8.3,9.9v19.6c0,4.9,3.5,9,8.3,9.9l8.1,1.4c1.1,3.6,2.6,7,4.3,10.4l-4.8,6.9
			c-2.8,4-2.3,9.4,1.1,12.8l13.9,13.9c3.4,3.4,8.8,3.9,12.8,1.1l6.9-4.8c3.4,1.7,6.8,3.1,10.4,4.3l1.4,8.3c0.8,4.8,5,8.4,9.9,8.5
			h19.6c4.9-0.1,9.1-3.7,9.9-8.5l1.4-8.2c3.6-1.2,7-2.6,10.4-4.3l6.9,4.8c4,2.8,9.4,2.3,12.8-1.1l13.9-13.9
			c3.4-3.4,3.9-8.9,1.1-12.9l-5-7c1.7-3.3,3.1-6.8,4.3-10.4l8.3-1.4c4.8-0.8,8.3-5,8.3-9.9v-19.6
			C444.1,341.05,440.6,336.95,435.8,336.05z M424,356.95l-6.3,1.1c-4.1,0.7-7.3,3.8-8.1,7.8c-1.2,5.8-3.5,11.4-6.7,16.4
			c-2.2,3.4-2.1,7.9,0.2,11.2l3.8,5.4l-2,2l-5.2-3.6c-3.3-2.3-7.6-2.4-11.1-0.3c-5.1,3.2-10.7,5.5-16.5,6.8c-4,0.9-7.1,4.2-7.8,8.3
			l-1,6.3h-2.7l-1-6.3c-0.7-4.1-3.8-7.3-7.8-8.2c-5.8-1.2-11.4-3.5-16.4-6.8c-3.4-2.2-7.8-2.1-11.2,0.2l-5.2,3.6l-2-2l3.6-5.2
			c2.3-3.3,2.4-7.6,0.3-11.1c-3.2-5.1-5.5-10.7-6.8-16.5c-0.8-4-4-7.1-8.1-7.8l-6.1-1v-2.7l6.1-1c4-0.7,7.3-3.8,8.1-7.8
			c1.2-5.8,3.5-11.4,6.7-16.4c2.2-3.4,2.1-7.8-0.2-11.2l-3.6-5.2l2-2l5.2,3.6c3.3,2.3,7.6,2.4,11.1,0.3c5.1-3.2,10.7-5.5,16.5-6.8
			c4-0.7,7.1-3.9,7.8-7.9l1-5.9h2.7l1,5.9c0.7,4,3.8,7.2,7.8,8c5.8,1.2,11.4,3.5,16.4,6.6c3.5,2.2,7.9,2.1,11.3-0.3l5.1-3.7l2,2
			l-3.6,5.2c-2.3,3.3-2.4,7.6-0.3,11c3.2,5.1,5.5,10.7,6.8,16.5c0.8,4,4,7.1,8.1,7.8l6.1,1V356.95z"/>
	</g>
</g>
<g>
	<g>
		<path d="M362,322.15c-18.5,0-33.5,15-33.5,33.5s15,33.5,33.5,33.5s33.5-15,33.5-33.5S380.5,322.15,362,322.15z M362,369.15
			c-7.5,0-13.5-6.1-13.5-13.5c0-7.4,6.1-13.5,13.5-13.5c7.4,0,13.5,6.1,13.5,13.5C375.5,363.15,369.4,369.15,362,369.15z"/>
	</g>
</g>
<g>
</g>
<g>
</g>
<g>
</g>
<g>
</g>
<g>
</g>
<g>
</g>
<g>
</g>
<g>
</g>
<g>
</g>
<g>
</g>
<g>
</g>
<g>
</g>
<g>
</g>
<g>
</g>
<g>
</g>
</svg>
