<?xml version="1.0" encoding="iso-8859-1"?>
<!-- Generator: Adobe Illustrator 19.0.0, SVG Export Plug-In . SVG Version: 6.00 Build 0)  -->
<svg version="1.1" id="Capa_1" xmlns="http://www.w3.org/2000/svg" xmlns:xlink="http://www.w3.org/1999/xlink" x="0px" y="0px"
	 viewBox="0 0 502.8 502.8" style="enable-background:new 0 0 502.8 502.8;" xml:space="preserve">
<g>
	<g>
		<path d="M393.7,57.25l-0.1-0.1C357,21.05,309,1.25,258.4,1.25c-5.5,0-10,4.5-10,10v181.2c0,5.5,4.5,9.9,10,9.9h181.2
			c5.5,0,10-4.4,10-9.9C449.6,141.95,429.8,93.95,393.7,57.25z M268.4,21.55c18.6,1,36.8,5.1,54,12.1l-54,54V21.55z M268.4,115.95
			l73.2-73.2c10.8,6,21,13.2,30.3,21.4l-103.5,103.6V115.95z M282,182.35l104.1-104.1c8.2,9.3,15.4,19.4,21.5,30.2l-73.9,73.9H282z
			 M362,182.35l54.8-54.8c7.2,17.5,11.4,36,12.5,54.8H362z"/>
	</g>
</g>
<g>
	<g>
		<path d="M370.5,236.85c-18.6,0.2-37,4.1-54.1,11.5h-115v-171c0-5.5-4.6-10-10.1-10c-50.8-0.2-99.6,20-135.4,56
			c-36,36.7-55.9,84.7-55.9,135.2c0,105.4,85.8,191.2,191.2,191.2c22.7,0.1,45.1-3.9,66.4-11.7c24,39.4,66.8,63.5,112.9,63.5
			c72.9,0,132.3-59.4,132.3-132.3S443.5,236.85,370.5,236.85z M248.5,419.95c-18.5,6.5-37.8,9.8-57.3,9.8
			c-94.4,0-171.2-76.8-171.2-171.2c0-45.3,17.9-88.3,50.2-121.1c29.6-29.8,69.2-47.5,111.2-49.8v170.9c-0.1,5.3,4.2,9.7,9.5,9.8
			c0.1,0,0.2,0,0.3,0h93.7C241.1,305.65,226.4,366.85,248.5,419.95z M370.5,481.45c-62,0-112.3-50.3-112.3-112.3
			s50.3-112.3,112.3-112.3s112.3,50.3,112.3,112.3C482.7,431.15,432.5,481.45,370.5,481.45z"/>
	</g>
</g>
<g>
	<g>
		<path d="M444.4,349.75l-8-1.5c-1.2-3.6-2.6-7-4.3-10.4l4.8-6.9c2.8-4,2.3-9.4-1.1-12.8l-13.9-13.9c-3.5-3.5-8.9-3.9-12.9-1
			l-6.8,4.9c-3.3-1.7-6.8-3.1-10.3-4.2l-1.4-8.2c-0.8-4.8-5-8.3-9.9-8.4H361c-4.9,0-9.1,3.5-9.9,8.4l-1.4,8.2
			c-3.6,1.2-7,2.6-10.4,4.3l-6.9-4.8c-4-2.8-9.4-2.3-12.8,1.1l-13.8,13.8c-3.4,3.4-3.9,8.8-1.1,12.8l4.8,6.9
			c-1.7,3.4-3.1,6.8-4.3,10.4l-8.3,1.4c-4.8,0.8-8.4,4.9-8.5,9.9v19.6c0.1,4.9,3.7,9.1,8.5,9.9l8.2,1.4c1.2,3.6,2.6,7,4.3,10.4
			l-4.8,6.9c-2.8,4-2.3,9.4,1.1,12.8l13.9,13.9c3.4,3.4,8.8,3.9,12.8,1.1l6.9-4.8c3.4,1.7,6.8,3.1,10.4,4.3l1.4,8
			c0.8,4.8,5,8.3,9.9,8.2h19.6c4.9,0,9-3.4,9.9-8.2l1.4-8.1c3.6-1.1,7-2.6,10.4-4.3l6.9,4.9c4,2.8,9.4,2.3,12.8-1.1l13.9-13.9
			c3.4-3.4,3.9-8.9,1.1-12.8l-5-7c1.7-3.3,3.1-6.8,4.3-10.4l8.1-1.4c4.8-0.8,8.2-5,8.1-9.9v-19.6
			C452.6,354.85,449.2,350.65,444.4,349.75z M432.6,370.55h-0.2l-6.1,1.1c-4,0.7-7.2,3.8-8,7.8c-1.2,5.8-3.5,11.4-6.6,16.4
			c-2.2,3.4-2.1,7.9,0.3,11.2l3.8,5.3l-2,2l-5.2-3.6c-3.3-2.3-7.6-2.4-11-0.3c-5.1,3.2-10.7,5.5-16.5,6.8c-4,0.8-7.1,4-7.8,8l-1,6.1
			h-2.7l-1-6.1c-0.7-4-3.8-7.2-7.8-8.1c-5.8-1.2-11.4-3.5-16.4-6.7c-3.4-2.2-7.8-2.1-11.2,0.2l-5.2,3.6l-2-2l3.6-5.2
			c2.3-3.3,2.4-7.6,0.3-11c-3.2-5.1-5.5-10.7-6.8-16.5c-0.9-4-4.2-7.1-8.3-7.8l-6.3-1v-2.7l6.3-1c4.1-0.7,7.3-3.8,8.2-7.8
			c1.2-5.8,3.5-11.4,6.8-16.4c2.2-3.4,2.1-7.8-0.2-11.2l-3.6-5.2l2-2l5.2,3.6c3.3,2.3,7.6,2.4,11.1,0.3c5.1-3.2,10.7-5.5,16.5-6.8
			c4-0.9,7.1-4.1,7.8-8.1l1-6.2h2.7l1,6.2c0.7,4.1,3.8,7.3,7.8,8.1c5.8,1.2,11.4,3.5,16.4,6.7c3.5,2.2,7.9,2.1,11.3-0.3l5.1-3.7l2,2
			l-3.6,5.2c-2.3,3.3-2.4,7.6-0.3,11.1c3.2,5.1,5.5,10.7,6.8,16.5c0.7,4,3.9,7.1,7.9,7.8l5.9,1V370.55z"/>
	</g>
</g>
<g>
	<g>
		<path d="M370.8,335.75c-18.5,0-33.5,15-33.5,33.5s15,33.5,33.5,33.5s33.5-15,33.5-33.5S389.3,335.75,370.8,335.75z M370.8,382.85
			c-7.5,0-13.5-6.1-13.5-13.5c0-7.4,6.1-13.5,13.5-13.5c7.4,0,13.5,6.1,13.5,13.5C384.3,376.75,378.3,382.75,370.8,382.85z"/>
	</g>
</g>
<g>
</g>
<g>
</g>
<g>
</g>
<g>
</g>
<g>
</g>
<g>
</g>
<g>
</g>
<g>
</g>
<g>
</g>
<g>
</g>
<g>
</g>
<g>
</g>
<g>
</g>
<g>
</g>
<g>
</g>
</svg>
