<?xml version="1.0" encoding="iso-8859-1"?>
<!-- Generator: Adobe Illustrator 19.0.0, SVG Export Plug-In . SVG Version: 6.00 Build 0)  -->
<svg version="1.1" id="Capa_1" xmlns="http://www.w3.org/2000/svg" xmlns:xlink="http://www.w3.org/1999/xlink" x="0px" y="0px"
	 viewBox="0 0 500 500" style="enable-background:new 0 0 500 500;" xml:space="preserve">
<g>
	<g>
		<path d="M178.7,99.8H118c-5.4-0.1-9.9,4.2-10.1,9.6v0.1v253c0,5.6,4.5,10.1,10.1,10.2h60.7c5.6-0.1,10.2-4.6,10.3-10.2v-253
			C189,104,184.3,99.8,178.7,99.8z M169,352.8h-41v-84h41V352.8z M169,248.8h-41v-129h41V248.8z"/>
	</g>
</g>
<g>
	<g>
		<path d="M70.6,179.8H10c-5.6,0.1-10,4.7-10,10.2v172.5c0,5.6,4.4,10.1,10,10.2h60.7c5.6-0.1,10.2-4.6,10.4-10.2V190
			C80.9,184.4,76.3,179.9,70.6,179.8z M61,352.8H20v-84h41V352.8z M61,248.8H20v-49h41V248.8z"/>
	</g>
</g>
<g>
	<g>
		<path d="M406,233.2V17.6c0-5.4-4.3-9.7-9.7-9.8c-0.1,0-0.2,0-0.2,0h-61.8c-5.5,0-10.3,4.2-10.3,9.8v217.3c-9,3.4-19,7.9-27,13.3
			V63.6c-0.1-5.5-4.6-9.8-10.1-9.8c0,0,0,0-0.1,0h-60.7c-5.5-0.1-10,4.2-10.2,9.7c0,0,0,0,0,0.1v299c0.1,5.6,4.6,10.1,10.2,10.2h9.9
			c6.7,67.7,63.6,119.4,131.6,119.4c73.1,0,132.4-59.4,132.4-132.4C500,300.2,460,249.7,406,233.2z M344,27.8h42v201
			c-6.1-0.8-12.3-1.3-18.4-1.3c-7.9,0-15.8,0.7-23.6,2.1V27.8z M236,73.8h41v175h-41V73.8z M236,268.8h35.6
			c-19.5,21-32.6,47.8-35.6,77.6V268.8z M367.8,472c-62,0-112.3-50.3-112.3-112.3s50.3-112.3,112.3-112.3S480,297.8,480,359.8
			S429.7,472,367.8,472z"/>
	</g>
</g>
<g>
	<g>
		<path d="M441.7,340.2l-8.1-1.4c-1.1-3.6-2.6-7-4.3-10.4l4.8-6.9c2.8-4,2.3-9.4-1.1-12.8l-13.9-13.9c-3.5-3.5-8.9-3.9-12.9-1
			l-6.8,4.9c-3.3-1.7-6.8-3.1-10.3-4.2l-1.4-8.2c-0.8-4.8-5-8.4-9.9-8.4h-19.6c-4.9,0-9.1,3.6-9.9,8.4l-1.4,8.2
			c-3.6,1.2-7,2.6-10.4,4.3l-6.9-4.8c-4-2.8-9.4-2.3-12.8,1.1L303,308.9c-3.4,3.4-3.9,8.8-1.1,12.8l4.8,6.9
			c-1.7,3.4-3.1,6.8-4.3,10.4l-8.1,1.4c-4.8,0.8-8.3,5-8.3,9.9v19.5c0,4.9,3.5,9,8.3,9.9l8.1,1.4c1.1,3.6,2.6,7,4.3,10.4l-4.8,6.9
			c-2.8,4-2.3,9.4,1.1,12.8l13.9,13.9c3.4,3.4,8.8,3.9,12.8,1.1l6.9-4.8c3.4,1.7,6.8,3.1,10.4,4.3l1.4,8c0.8,4.8,5,8.2,9.9,8.2h19.6
			c4.8,0.1,9-3.4,9.9-8.2l1.4-8.1c3.6-1.1,7-2.6,10.4-4.2l6.9,4.9c4,2.8,9.4,2.3,12.8-1.1l13.9-13.9c3.4-3.4,3.9-8.9,1.1-12.8l-5-7
			c1.7-3.3,3.1-6.8,4.3-10.4l8.3-1.4c4.8-0.8,8.3-5,8.3-9.9v-19.6C450,345.2,446.5,341,441.7,340.2z M430,361.2l-6.3,1.1
			c-4.1,0.7-7.3,3.8-8.1,7.8c-1.2,5.8-3.5,11.4-6.7,16.4c-2.2,3.4-2.1,7.9,0.2,11.2l3.8,5.3l-2,2l-5.2-3.6
			c-3.3-2.3-7.6-2.4-11.1-0.3c-5.1,3.2-10.7,5.5-16.5,6.8c-4,0.8-7.1,3.9-7.8,8l-1,6h-2.7l-1-6c-0.7-4-3.8-7.2-7.8-8
			c-5.8-1.2-11.4-3.5-16.4-6.7c-3.4-2.2-7.8-2.1-11.2,0.2L325,405l-2-2l3.6-5.2c2.3-3.3,2.4-7.6,0.3-11.1
			c-3.2-5.1-5.5-10.7-6.8-16.5c-0.8-4-4-7.1-8.1-7.8l-6.1-1v-2.7l6.1-1c4-0.7,7.3-3.8,8.1-7.8c1.2-5.8,3.5-11.4,6.7-16.4
			c2.2-3.4,2.1-7.8-0.2-11.2l-3.6-5.2l2-2l5.2,3.6c3.3,2.3,7.6,2.4,11.1,0.3c5.1-3.2,10.7-5.5,16.5-6.8c4-0.9,7.1-4.1,7.8-8.2l1-6.2
			h2.7l1,6.2c0.7,4.1,3.8,7.3,7.8,8.2c5.8,1.2,11.4,3.5,16.4,6.7c3.5,2.2,7.9,2.1,11.3-0.3l5.1-3.7l2,2l-3.6,5.2
			c-2.3,3.3-2.4,7.6-0.3,11.1c3.2,5.1,5.5,10.7,6.8,16.5c0.8,4,4,7.1,8.1,7.8l6.1,1V361.2z"/>
	</g>
</g>
<g>
	<g>
		<path d="M368,326.3c-18.5,0-33.5,15-33.5,33.5s15,33.5,33.5,33.5s33.5-15,33.5-33.5C401.5,341.4,386.5,326.4,368,326.3z
			 M368,373.4c-7.5,0-13.5-6.1-13.5-13.5c0-7.4,6.1-13.5,13.5-13.5c7.4,0,13.5,6.1,13.5,13.5C381.5,367.3,375.5,373.4,368,373.4z"/>
	</g>
</g>
<g>
</g>
<g>
</g>
<g>
</g>
<g>
</g>
<g>
</g>
<g>
</g>
<g>
</g>
<g>
</g>
<g>
</g>
<g>
</g>
<g>
</g>
<g>
</g>
<g>
</g>
<g>
</g>
<g>
</g>
</svg>
