<?xml version="1.0" encoding="iso-8859-1"?>
<!-- Generator: Adobe Illustrator 19.0.0, SVG Export Plug-In . SVG Version: 6.00 Build 0)  -->
<svg version="1.1" id="Capa_1" xmlns="http://www.w3.org/2000/svg" xmlns:xlink="http://www.w3.org/1999/xlink" x="0px" y="0px"
	 viewBox="0 0 497.6 497.6" style="enable-background:new 0 0 497.6 497.6;" xml:space="preserve">
<g>
	<g>
		<path d="M422,245.767v-234.4c0-5.5-4.5-10-10-10c-0.5,0-1,0-1.5,0.1l-46.9,7.3l-32.4-8.4c-3.7-1-7.7,0.3-10.1,3.2l-31.8,37.4
			l-36.4-8.9c-3.7-0.9-7.6,0.4-10,3.3l-31.4,37.4l-36.9-34.5c-3.1-2.9-7.6-3.5-11.3-1.6l-28.4,14.1l-40.4-35.3
			c-2-1.8-4.7-2.6-7.4-2.4c-2.7,0.2-5.3,1.5-7.1,3.6l-22,26.3v-27c0-5.5-4.1-10.2-9.7-10.2H10.4c-5.6,0.1-10.2,4.6-10.4,10.2v294.9
			c0,15.9,13.4,28.9,29.4,28.9h206.1c-1.7,8.4-2.5,17-2.5,25.5c0,72.9,59.3,132.3,132.3,132.3s132.3-59.3,132.3-132.3
			C497.5,314.267,468.1,267.767,422,245.767z M58,74.167l30.9-36.9l37.9,32.9c3.1,2.7,7.5,3.2,11.1,1.4l28-14l39.6,36.9
			c4,3.8,10.4,3.6,14.1-0.5c0.1-0.1,0.2-0.3,0.4-0.4l34.2-40.8l36.4,8.9c3.7,0.9,7.6-0.4,10-3.2l31.7-37.4l28.4,7.4
			c1.3,0.3,2.7,0.4,4.1,0.2l37.3-5.8v61.2l-30.8-15.3c-4.1-2.1-9.2-1-12.2,2.5l-32.6,38.9l-36-22c-4.2-2.6-9.7-1.7-12.9,2.1
			l-36.8,43.7l-43.7-18.1c-3.6-1.5-7.8-0.7-10.7,1.9l-35.4,33.1l-21.2-36.5c-2.8-4.8-8.9-6.4-13.7-3.6c-0.4,0.2-0.7,0.4-1,0.7
			l-29.6,22.4l-27.5-16.4V74.167z M58,140.867l23.1,13.7c3.5,2.1,8,1.9,11.3-0.6l25.9-19.7l21.8,37.6c2.8,4.8,8.9,6.4,13.7,3.6
			c0.6-0.4,1.3-0.8,1.8-1.3l39.9-37.3l44.5,18.4c4,1.7,8.7,0.5,11.5-2.8l35.9-42.7l36,22.1c4.2,2.6,9.7,1.7,12.9-2.1l33.1-39.4
			l32.6,16.4v50.1l-29.9-10.8c-4.5-1.6-9.5,0.1-12,4.2l-32.8,53.7l-32.8-21.8c-4.3-2.9-10.1-2-13.3,2.1l-34.2,42.4l-33.1-26.9
			c-3.5-2.8-8.4-3-12.1-0.4l-33.4,23.6l-41.7-26.7c-3.9-2.5-9-2-12.3,1.2l-33.7,32l-22.7-6.6V140.867z M58,243.667l22.6,6.7
			c1,0.3,1.9,0.4,2.9,0.4c2.6,0,5.1-1,7-2.8l32-30.6l40.8,26.1c3.4,2.2,7.8,2.1,11.2-0.3l32.7-23.1l35.1,28.4
			c4.3,3.5,10.6,2.8,14.1-1.5l34.8-43.2l33.9,22.5c4.6,3.1,10.8,1.8,13.9-2.8c0.1-0.1,0.1-0.2,0.2-0.3l33.9-55.6l29,10.5v60
			c-12-3.3-24.4-5.1-36.8-5.1c-39.8-0.1-77.5,17.8-102.6,48.8H58V243.667z M241,319.767H29.4c-4.9,0-9.4-4-9.4-8.9v-285.1h18v266.1
			c0,5.5,4.8,9.9,10.3,9.9h200.9C246.1,307.567,243.4,313.567,241,319.767z M365.3,477.567c-62,0-112.3-50.3-112.3-112.3
			s50.3-112.3,112.3-112.3s112.3,50.3,112.3,112.3C477.5,427.267,427.3,477.467,365.3,477.567z"/>
	</g>
</g>
<g>
	<g>
		<path d="M439.5,345.867l-8.3-1.5c-1.2-3.6-2.6-7-4.3-10.4l4.8-6.9c2.8-4,2.3-9.4-1.1-12.8l-13.9-13.9c-3.5-3.5-8.9-3.9-12.9-1
			l-6.8,4.9c-3.3-1.7-6.8-3.1-10.3-4.2l-1.4-8c-0.8-4.8-5-8.3-9.9-8.2h-19.6c-4.9-0.1-9,3.4-9.9,8.2l-1.4,8.1
			c-3.6,1.1-7,2.6-10.4,4.2l-6.9-4.9c-4-2.8-9.4-2.3-12.8,1.1l-13.9,13.9c-3.4,3.4-3.9,8.8-1.1,12.8l4.8,6.9
			c-1.7,3.4-3.1,6.8-4.3,10.4l-8.4,1.4c-4.9,0.8-8.5,4.9-8.6,9.9v19.6c0.1,4.9,3.7,9.1,8.6,9.9l8.3,1.4c1.2,3.6,2.6,7,4.3,10.4
			l-4.8,6.9c-2.8,4-2.3,9.4,1.1,12.8l13.9,13.9c3.4,3.4,8.9,3.9,12.8,1.1l6.9-4.8c3.4,1.7,6.8,3.1,10.4,4.3l1.4,8.2
			c0.8,4.8,5,8.4,9.9,8.4h19.6c4.9,0,9.1-3.6,9.9-8.4l1.4-8.2c3.6-1.2,7-2.6,10.4-4.3l6.9,4.8c4,2.8,9.4,2.3,12.8-1.1l13.9-13.9
			c3.4-3.4,3.9-8.9,1.1-12.8l-5-7c1.7-3.3,3.1-6.8,4.3-10.4l8.5-1.4c4.9-0.8,8.4-4.9,8.5-9.9v-19.6
			C447.9,350.867,444.3,346.667,439.5,345.867z M421.5,367.767c-4.1,0.7-7.3,3.8-8.2,7.8c-1.2,5.8-3.5,11.4-6.8,16.4
			c-2.2,3.4-2.1,7.9,0.2,11.2l3.8,5.3l-2,2l-5.2-3.6c-3.3-2.3-7.6-2.4-11.1-0.3c-5.1,3.2-10.7,5.5-16.5,6.8c-4,0.9-7.1,4.1-7.8,8.2
			l-1,6.2h-2.7l-1-6.2c-0.7-4.1-3.8-7.3-7.8-8.2c-5.8-1.2-11.4-3.5-16.4-6.7c-3.4-2.2-7.8-2.1-11.2,0.2l-5.2,3.6l-2-2l3.6-5.2
			c2.3-3.3,2.4-7.6,0.3-11.1c-3.2-5.1-5.5-10.7-6.8-16.5c-1-4.1-4.3-7.1-8.4-7.8l-6.4-1v-2.7l6.4-1c4.1-0.7,7.3-3.8,8.2-7.8
			c1.2-5.8,3.5-11.4,6.8-16.4c2.2-3.4,2.1-7.8-0.2-11.2l-3.6-5.2l2-2l5.2,3.6c3.3,2.3,7.6,2.4,11.1,0.3c5.1-3.2,10.7-5.5,16.5-6.8
			c4-0.8,7.1-4,7.8-8l1-6h2.7l1,6c0.7,4,3.8,7.2,7.8,8c5.8,1.2,11.4,3.5,16.4,6.7c3.5,2.2,7.9,2.1,11.3-0.3l5.1-3.7l2,2l-3.6,5.2
			c-2.3,3.3-2.4,7.6-0.3,11c3.2,5.1,5.5,10.7,6.8,16.5c0.9,4,4.2,7.1,8.3,7.8l6.3,1v2.8h0.1L421.5,367.767z"/>
	</g>
</g>
<g>
	<g>
		<path d="M365.6,331.867c-18.5,0-33.5,15-33.5,33.5s15,33.5,33.5,33.5s33.5-15,33.5-33.5S384.1,331.867,365.6,331.867z
			 M365.6,378.867c-7.5,0-13.5-6.1-13.5-13.5c0-7.4,6.1-13.5,13.5-13.5c7.5,0,13.5,6,13.5,13.5S373,378.867,365.6,378.867z"/>
	</g>
</g>
<g>
</g>
<g>
</g>
<g>
</g>
<g>
</g>
<g>
</g>
<g>
</g>
<g>
</g>
<g>
</g>
<g>
</g>
<g>
</g>
<g>
</g>
<g>
</g>
<g>
</g>
<g>
</g>
<g>
</g>
</svg>
