<?xml version="1.0" encoding="iso-8859-1"?>
<!-- Generator: Adobe Illustrator 19.0.0, SVG Export Plug-In . SVG Version: 6.00 Build 0)  -->
<svg version="1.1" id="Capa_1" xmlns="http://www.w3.org/2000/svg" xmlns:xlink="http://www.w3.org/1999/xlink" x="0px" y="0px"
	 viewBox="0 0 503.2 503.2" style="enable-background:new 0 0 503.2 503.2;" xml:space="preserve">
<g>
	<g>
		<path d="M150.5,284.2c-6.6-10.3-11.3-21.7-13.8-33.6c-1-4.6-5.1-8-9.8-7.9H10c-5.5,0-10,4.5-10,10c0,0.1,0,0.1,0,0.2
			c0,0.5,0,1,0.1,1.5c4.4,45.7,22.4,89.1,51.6,124.5c1.8,2.2,4.4,3.5,7.2,3.6c0.2,0,0.3,0,0.5,0c2.7,0,5.2-1.1,7.1-2.9l82.7-82.7
			C152.5,293.4,153.1,288.1,150.5,284.2z M60.3,357.3c-20.6-27.9-34.1-60.4-39.1-94.7H119c2.5,8.9,6,17.4,10.5,25.5L60.3,357.3z"/>
	</g>
</g>
<g>
	<g>
		<path d="M211.2,325.6c-11.8-2.5-23-7.1-33-13.6c-4-2.6-9.2-2.1-12.6,1.3L83.1,396c-3.9,3.9-3.9,10.2,0,14.1
			c0.2,0.2,0.5,0.4,0.7,0.6c35.4,29.2,78.8,47.1,124.5,51.6c0.7,0.1,1.3,0.1,2,0.1h0.2c5.5,0,10-4.5,10-10V335.6
			C220.6,330.3,216.5,325.9,211.2,325.6z M200.6,441.2c-34.5-5-67.3-18.4-95.3-39.1l69-69.1c8.3,4.6,17.2,8.2,26.3,10.6V441.2z"/>
	</g>
</g>
<g>
	<g>
		<path d="M461.9,208.7C451.3,99.4,364.2,12,254.8,1c-5.5-0.6-10.4,3.5-11,8.9c0,0.3,0,0.6,0,0.9c0,0-0.2,29.3-0.4,58.5
			c-0.1,14.6-0.2,29.3-0.3,40.3c0,5.5-0.1,10.1-0.1,13.3c0,1.6,0,2.9,0,3.8c0,8.1,4.8,10.4,7.7,11c0.1,0,0.2,0,0.2,0
			c37.2,7.8,66.3,36.9,74.1,74.1c1,4.6,5.1,7.8,9.8,7.7H452c2.8,0.1,5.5-1,7.4-3.1C461.3,214.3,462.2,211.5,461.9,208.7z M342.7,200
			c-11-38.6-41.1-68.7-79.6-79.8c0-17.5,0.3-62.1,0.6-97.9c91.4,14.3,162.9,86.1,177,177.5L342.7,200z"/>
	</g>
</g>
<g>
	<g>
		<path d="M209.8,0.4c-0.4,0-0.8,0-1.2,0.1c-0.1,0-0.3,0-0.4,0C98.5,11.5,11.6,98,0.2,207.6c-0.6,5.5,3.4,10.4,8.9,11
			c0.3,0,0.7,0,1,0h117c4.7,0,8.8-3.3,9.8-7.9c7.9-36.4,37.8-66,74.3-73.5c4.6-1,8-5,8-9.8l0.5-117C219.7,4.9,215.3,0.4,209.8,0.4z
			 M21.5,198.6c0.9-5.8,2-11.6,3.4-17.3l17.3,17.3H21.5z M70.4,198.6l-39-39c2.4-6.8,5.2-13.4,8.4-19.9l58.9,58.9H70.4z
			 M121.3,192.8l-71.5-71.4c3.5-5.8,7.3-11.4,11.4-16.9l69,69C126.6,179.7,123.6,186.1,121.3,192.8z M148.9,149
			c-2.5,2.5-4.9,5.1-7.1,7.8L74,89c2.3-2.6,4.7-5.1,7.2-7.6c2.3-2.2,4.6-4.4,6.9-6.6l67.8,67.8C153.5,144.6,151.2,146.8,148.9,149z
			 M172.5,130.9L103.6,62c5.4-4.1,11-7.9,16.8-11.4l71.4,71.3C185.1,124.3,178.7,127.3,172.5,130.9z M199.3,101.2l-60.6-60.6
			c6.5-3.1,13.1-6,19.9-8.4L199.5,73L199.3,101.2z M199.5,44.8l-19.3-19.3c6.4-1.6,12.9-2.9,19.4-3.8L199.5,44.8z"/>
	</g>
</g>
<g>
	<g>
		<path d="M370.9,238.2c-72.9,0-132.3,59.3-132.3,132.3s59.3,132.3,132.3,132.3s132.3-59.3,132.3-132.3S443.9,238.2,370.9,238.2z
			 M370.9,482.7c-62,0-112.3-50.3-112.3-112.3s50.3-112.3,112.3-112.3s112.3,50.3,112.3,112.3C483.1,432.4,432.9,482.7,370.9,482.7z
			"/>
	</g>
</g>
<g>
	<g>
		<path d="M445,351l-8.2-1.5c-1.2-3.6-2.6-7-4.3-10.4l4.8-6.9c2.8-4,2.3-9.4-1.1-12.8l-13.9-13.9c-3.5-3.5-8.9-3.9-12.9-1l-6.8,4.9
			c-3.3-1.7-6.8-3.1-10.3-4.2l-1.4-8.2c-0.8-4.8-5-8.4-9.9-8.4h-19.6c-4.9,0-9.1,3.6-9.9,8.4l-1.4,8.2c-3.6,1.2-7,2.6-10.4,4.3
			l-6.9-4.8c-4-2.8-9.4-2.3-12.8,1.1l-13.9,13.8c-3.4,3.4-3.9,8.8-1.1,12.8l4.8,6.9c-1.7,3.4-3.1,6.8-4.3,10.4l-7.9,1.4
			c-4.8,0.8-8.2,5-8.1,9.9v19.6c-0.1,4.8,3.3,9,8.1,9.9l8,1.4c1.1,3.6,2.5,7,4.2,10.4l-4.9,6.9c-2.8,4-2.3,9.4,1.1,12.8l13.9,13.9
			c3.4,3.4,8.8,3.9,12.8,1.1l6.8-4.8c3.4,1.7,6.8,3.1,10.4,4.3l1.4,8c0.8,4.8,5,8.3,9.9,8.2h19.6c4.9,0.1,9-3.4,9.9-8.2l1.4-8.1
			c3.6-1.1,7-2.6,10.4-4.3l6.9,4.9c4,2.8,9.4,2.3,12.8-1.1l13.9-13.9c3.4-3.4,3.9-8.9,1.1-12.8l-5-7c1.7-3.3,3.1-6.8,4.3-10.4
			l8.5-1.4c4.9-0.8,8.4-4.9,8.5-9.9v-19.6C453.4,356,449.8,351.8,445,351z M427.1,373c-4.1,0.7-7.3,3.8-8.2,7.8
			c-1.2,5.8-3.5,11.4-6.8,16.4c-2.2,3.4-2.1,7.9,0.2,11.2l3.8,5.3l-2,2l-5.2-3.6c-3.3-2.3-7.6-2.4-11.1-0.3
			c-5.1,3.2-10.7,5.5-16.5,6.8c-4,0.8-7.1,4-7.8,8l-1,6h-2.7l-1-6c-0.7-4-3.8-7.2-7.8-8.1c-5.8-1.2-11.4-3.5-16.4-6.7
			c-3.4-2.2-7.8-2.1-11.2,0.2l-5.2,3.6l-2-2l3.6-5.2c2.3-3.3,2.4-7.6,0.3-11.1c-3.2-5.1-5.5-10.7-6.8-16.5c-0.7-4-3.9-7.1-7.9-7.8
			l-5.9-1v-2.7l5.9-1c4-0.7,7.2-3.8,8-7.8c1.2-5.8,3.5-11.4,6.6-16.4c2.2-3.4,2.1-7.8-0.3-11.2l-3.6-5.2l2-2l5.2,3.6
			c3.3,2.3,7.6,2.4,11,0.3c5.1-3.2,10.7-5.5,16.5-6.8c4-0.9,7.1-4.1,7.8-8.2l1-6.2h2.7l1,6.2c0.7,4.1,3.8,7.3,7.8,8.1
			c5.8,1.2,11.4,3.5,16.4,6.7c3.5,2.2,7.9,2.1,11.3-0.3l5.1-3.7l2,2l-3.6,5.2c-2.3,3.3-2.4,7.6-0.3,11.1c3.2,5.1,5.5,10.7,6.8,16.5
			c0.9,4,4.2,7.1,8.3,7.8l6.3,1l0.2,2.9L427.1,373z"/>
	</g>
</g>
<g>
	<g>
		<path d="M371.2,337.1c-18.5,0-33.5,15-33.5,33.5s15,33.5,33.5,33.5s33.5-15,33.5-33.5S389.7,337.1,371.2,337.1z M371.2,384.1
			c-7.5,0-13.5-6-13.5-13.5s6-13.5,13.5-13.5s13.5,6,13.5,13.5C384.7,378,378.6,384.1,371.2,384.1z"/>
	</g>
</g>
<g>
</g>
<g>
</g>
<g>
</g>
<g>
</g>
<g>
</g>
<g>
</g>
<g>
</g>
<g>
</g>
<g>
</g>
<g>
</g>
<g>
</g>
<g>
</g>
<g>
</g>
<g>
</g>
<g>
</g>
</svg>
