<?xml version="1.0" encoding="iso-8859-1"?>
<!-- Generator: Adobe Illustrator 19.0.0, SVG Export Plug-In . SVG Version: 6.00 Build 0)  -->
<svg version="1.1" id="Capa_1" xmlns="http://www.w3.org/2000/svg" xmlns:xlink="http://www.w3.org/1999/xlink" x="0px" y="0px"
	 viewBox="0 0 500.028 500.028" style="enable-background:new 0 0 500.028 500.028;" xml:space="preserve">
<g>
	<g>
		<path d="M395.864,7.227l-101.9-7.2c-5.5-0.4-10.3,3.7-10.7,9.2c-0.4,5.5,3.7,10.3,9.2,10.7c0,0,0,0,0.1,0l75.8,5.4l-136.9,106.4
			l-102.2-80.5c-3.9-3.1-9.5-2.8-13.1,0.6l-104.2,99.9c-4,3.8-4.1,10.2-0.3,14.1c1.9,2,4.5,3.1,7.2,3.1c2.6,0,5.1-1,6.9-2.8
			l97.9-93.9l101.6,80c3.6,2.8,8.7,2.9,12.3,0l145.7-113.1l-5.5,71.8c-0.4,5.5,3.7,10.3,9.2,10.7c0.3,0,0.5,0,0.8,0
			c5.2,0,9.6-4,10-9.2l7.3-94.5C405.464,12.427,401.364,7.627,395.864,7.227z"/>
	</g>
</g>
<g>
	<g>
		<path d="M376.964,236.127v-41.3c0-5.5-4.8-9.6-10.4-9.6h-63.6c-5.4-0.2-9.8,4-10,9.4c0,0.1,0,0.2,0,0.2v63.5
			c-18.8,12.4-34,29.6-44,49.9v-81.4c0-5.5-4.6-9.6-10.1-9.6h-63.6c-5.5,0-10.3,4-10.3,9.6v141.3h-44v-98.8
			c0.1-5.5-4.3-10.1-9.9-10.2h-63.6c-5.5,0-9.5,4.6-9.5,10.2v98.8h-27.1c-5.5,0-10,4.5-10,10s4.5,10,10,10h225.2
			c9.9,64.5,65.4,112.1,130.7,111.9c72.9,0,132.4-59.2,132.4-132.2C499.264,298.227,444.964,241.127,376.964,236.127z
			 M100.964,368.127h-43v-89h43V368.127z M228.964,368.127h-44v-131h44V368.127z M312.964,205.127h44v31c-15.2,1.1-30.1,4.9-44,11.1
			V205.127z M366.764,480.227c-62,0-112.3-50.3-112.3-112.3s50.3-112.3,112.3-112.3s112.3,50.3,112.3,112.3
			C478.964,429.927,428.764,480.227,366.764,480.227z"/>
	</g>
</g>
<g>
	<g>
		<path d="M440.864,348.527l-8.2-1.5c-1.2-3.6-2.6-7-4.3-10.4l4.8-6.9c2.8-4,2.3-9.4-1.1-12.8l-13.9-13.9c-3.5-3.5-8.9-3.9-12.9-1
			l-6.8,4.9c-3.3-1.7-6.8-3.1-10.3-4.2l-1.4-8.2c-0.8-4.8-5-8.3-9.9-8.4h-19.6c-4.9,0-9.1,3.5-9.9,8.4l-1.4,8.2
			c-3.6,1.2-7,2.6-10.4,4.3l-6.9-4.8c-4-2.8-9.4-2.3-12.8,1.1l-13.9,13.8c-3.4,3.4-3.9,8.8-1.1,12.8l4.8,6.9
			c-1.7,3.4-3.1,6.8-4.3,10.4l-8.1,1.4c-4.8,0.8-8.3,5-8.3,9.9v19.6c0,4.9,3.5,9,8.3,9.9l8.2,1.4c1.2,3.6,2.6,7,4.3,10.4l-4.8,6.9
			c-2.8,4-2.3,9.4,1.1,12.8l13.9,13.9c3.4,3.4,8.8,3.9,12.8,1.1l6.9-4.8c3.4,1.7,6.8,3.1,10.4,4.3l1.4,8c0.8,4.8,5,8.3,9.9,8.2h19.6
			c4.9,0,9-3.4,9.9-8.2l1.4-8.1c3.6-1.1,7-2.6,10.4-4.3l6.9,4.9c4,2.8,9.4,2.3,12.8-1.1l13.9-13.9c3.4-3.4,3.9-8.9,1.1-12.8l-5-7
			c1.7-3.3,3.1-6.8,4.3-10.4l8.2-1.4c4.8-0.8,8.3-5,8.3-9.9v-19.6C449.164,353.527,445.664,349.427,440.864,348.527z
			 M422.764,370.527c-4.1,0.7-7.3,3.8-8.1,7.8c-1.2,5.8-3.5,11.4-6.7,16.4c-2.2,3.4-2.1,7.9,0.2,11.2l3.8,5.4l-2,2l-5.2-3.6
			c-3.3-2.3-7.6-2.4-11.1-0.3c-5.1,3.2-10.7,5.5-16.5,6.8c-4,0.8-7.1,4-7.8,8l-1,6.1h-2.7l-1-6.1c-0.7-4-3.8-7.2-7.8-8.1
			c-5.8-1.2-11.4-3.5-16.4-6.7c-3.4-2.2-7.8-2.1-11.2,0.2l-5.2,3.6l-2-2l3.6-5.2c2.3-3.3,2.4-7.6,0.3-11.1
			c-3.2-5.1-5.5-10.7-6.8-16.5c-0.8-4-4.1-7.1-8.1-7.8l-6.2-1v-2.7l6.2-1c4.1-0.7,7.3-3.8,8.1-7.8c1.2-5.8,3.5-11.4,6.7-16.4
			c2.2-3.4,2.1-7.8-0.2-11.2l-3.6-5.2l2-2l5.2,3.6c3.3,2.3,7.6,2.4,11.1,0.3c5.1-3.2,10.7-5.5,16.5-6.8c4-0.9,7.1-4.1,7.8-8.1l1-6.2
			h2.7l1,6.2c0.7,4.1,3.8,7.3,7.8,8.1c5.8,1.2,11.4,3.5,16.4,6.7c3.5,2.2,7.9,2.1,11.3-0.3l5.1-3.7l2,2l-3.6,5.2
			c-2.3,3.3-2.4,7.6-0.3,11.1c3.2,5.1,5.5,10.7,6.8,16.5c0.8,4,4,7.1,8,7.8l6.1,1l0,2.7L422.764,370.527z"/>
	</g>
</g>
<g>
	<g>
		<path d="M367.064,334.527c-18.5,0-33.5,15-33.5,33.5s15,33.5,33.5,33.5s33.5-15,33.5-33.5S385.564,334.527,367.064,334.527z
			 M367.064,381.627c-7.5,0-13.5-6.1-13.5-13.5c0-7.4,6.1-13.5,13.5-13.5c7.4,0,13.5,6.1,13.5,13.5
			C380.564,375.527,374.464,381.627,367.064,381.627z"/>
	</g>
</g>
<g>
</g>
<g>
</g>
<g>
</g>
<g>
</g>
<g>
</g>
<g>
</g>
<g>
</g>
<g>
</g>
<g>
</g>
<g>
</g>
<g>
</g>
<g>
</g>
<g>
</g>
<g>
</g>
<g>
</g>
</svg>
