<?xml version="1.0" encoding="iso-8859-1"?>
<!-- Generator: Adobe Illustrator 19.0.0, SVG Export Plug-In . SVG Version: 6.00 Build 0)  -->
<svg version="1.1" id="Capa_1" xmlns="http://www.w3.org/2000/svg" xmlns:xlink="http://www.w3.org/1999/xlink" x="0px" y="0px"
	 viewBox="0 0 467.7 467.7" style="enable-background:new 0 0 467.7 467.7;" xml:space="preserve">
<g>
	<g>
		<path d="M99,176.85H10c-5.5,0-10,4.5-10,10v120c0,5.5,4.5,10,10,10h89c5.5,0,10-4.5,10-10v-120C109,181.35,104.5,176.85,99,176.85
			z M89,296.85H20v-100h69V296.85z"/>
	</g>
</g>
<g>
	<g>
		<path d="M408,220.15V14.85c0-5.5-4-10-9.5-10h-89c-5.5,0-9.5,4.5-9.5,10v188.4c-14.7,4.1-28.6,10.8-41,19.7v-106.3
			c-0.1-5.5-4.7-9.9-10.3-9.8h-89c-5.3-0.1-9.7,4.2-9.8,9.5c0,0.1,0,0.2,0,0.3v190.1c-0.1,5.5,4.2,10,9.7,10.1c0,0,0,0,0.1,0h44.4
			c-0.5,4.6-0.7,9.2-0.7,13.8c0,72.9,59.3,132.2,132.3,132.2s132-59.4,132-132.3C467.7,286.05,445.3,244.55,408,220.15z M320,24.85
			h68v184.4c-16.5-7.3-34.3-11-52.3-11c-5.3,0-10.5,0.3-15.7,1V24.85z M170,296.85v-170h69v113.9c-14.9,15.8-25.7,35.1-31.1,56.1
			H170z M335.7,442.85c-62,0-112.3-50.3-112.3-112.3s50.3-112.3,112.3-112.3S448,268.55,448,330.55
			C447.9,392.55,397.7,442.75,335.7,442.85z"/>
	</g>
</g>
<g>
	<g>
		<path d="M409.9,311.95l-8.3-1.4c-1.2-3.6-2.6-7-4.3-10.4l4.8-6.9c2.8-4,2.3-9.4-1.1-12.8l-13.9-13.9c-3.5-3.5-8.9-3.9-12.9-1
			l-6.8,4.9c-3.3-1.7-6.8-3.1-10.3-4.2l-1.4-8.1c-0.8-4.8-5-8.3-9.9-8.3h-19.6c-4.9,0-9,3.5-9.9,8.3l-1.4,8.1
			c-3.6,1.1-7,2.6-10.4,4.3l-6.9-4.8c-4-2.8-9.4-2.3-12.8,1.1l-13.8,13.8c-3.4,3.4-3.9,8.8-1.1,12.8l4.8,6.9
			c-1.7,3.4-3.1,6.8-4.3,10.4l-8.1,1.4c-4.8,0.8-8.3,5-8.3,9.9v19.6c0,4.9,3.5,9,8.3,9.9l8.1,1.4c1.1,3.6,2.6,7,4.3,10.4l-4.8,6.9
			c-2.8,4-2.3,9.4,1.1,12.8l13.9,13.9c3.4,3.4,8.8,3.9,12.8,1.1l6.9-4.8c3.4,1.7,6.8,3.1,10.4,4.3l1.4,8.1c0.8,4.8,5,8.3,9.9,8.3
			h19.6c4.9,0,9-3.5,9.9-8.3l1.4-8.1c3.6-1.1,7-2.6,10.4-4.3l6.9,4.8c4,2.8,9.4,2.3,12.8-1.1l13.9-13.9c3.4-3.4,3.9-8.9,1.1-12.8
			l-5-7c1.7-3.3,3.1-6.8,4.3-10.4l8.3-1.4c4.8-0.8,8.3-5,8.3-9.9v-19.7C418.2,316.95,414.7,312.85,409.9,311.95z M398,332.95
			l-6.3,1.1c-4.1,0.7-7.3,3.8-8.1,7.8c-1.2,5.8-3.5,11.4-6.7,16.4c-2.2,3.4-2.1,7.9,0.2,11.2l3.8,5.3l-2,2l-5.2-3.6
			c-3.3-2.3-7.6-2.4-11.1-0.3c-5.1,3.2-10.7,5.5-16.5,6.8c-4,0.8-7.1,4.1-7.8,8.1l-1,6.1h-2.7l-1-6.1c-0.7-4.1-3.8-7.3-7.8-8.1
			c-5.8-1.2-11.4-3.5-16.4-6.7c-3.4-2.2-7.8-2.1-11.2,0.2l-5.2,3.6l-2-2l3.6-5.2c2.3-3.3,2.4-7.6,0.3-11.1
			c-3.2-5.1-5.5-10.7-6.8-16.5c-0.8-4-4-7.1-8.1-7.8l-6.1-1v-2.7l6.1-1c4-0.7,7.3-3.8,8.1-7.8c1.2-5.8,3.5-11.4,6.7-16.4
			c2.2-3.4,2.1-7.8-0.2-11.2l-3.6-5.2l2-2l5.2,3.6c3.3,2.3,7.6,2.4,11.1,0.3c5.1-3.2,10.7-5.5,16.5-6.8c4-0.8,7.1-4,7.8-8.1l1-6.1
			h2.7l1,6.1c0.7,4,3.8,7.3,7.8,8.1c5.8,1.2,11.4,3.5,16.4,6.7c3.5,2.2,7.9,2.1,11.3-0.3l5.1-3.7l2,2l-3.6,5.2
			c-2.3,3.3-2.4,7.6-0.3,11.1c3.2,5.1,5.5,10.7,6.8,16.5c0.8,4,4,7.1,8.1,7.8l6.1,1V332.95z"/>
	</g>
</g>
<g>
	<g>
		<path d="M336,298.15c-18.5,0-33.5,15-33.5,33.5s15,33.5,33.5,33.5s33.5-15,33.5-33.5S354.5,298.15,336,298.15z M336,345.15
			c-7.5,0-13.5-6.1-13.5-13.5c0-7.4,6.1-13.5,13.5-13.5c7.4,0,13.5,6.1,13.5,13.5S343.5,345.15,336,345.15z"/>
	</g>
</g>
<g>
</g>
<g>
</g>
<g>
</g>
<g>
</g>
<g>
</g>
<g>
</g>
<g>
</g>
<g>
</g>
<g>
</g>
<g>
</g>
<g>
</g>
<g>
</g>
<g>
</g>
<g>
</g>
<g>
</g>
</svg>
