<?xml version="1.0" encoding="iso-8859-1"?>
<!-- Generator: Adobe Illustrator 19.0.0, SVG Export Plug-In . SVG Version: 6.00 Build 0)  -->
<svg version="1.1" id="Capa_1" xmlns="http://www.w3.org/2000/svg" xmlns:xlink="http://www.w3.org/1999/xlink" x="0px" y="0px"
	 viewBox="0 0 503.659 503.659" style="enable-background:new 0 0 503.659 503.659;" xml:space="preserve">
<g>
	<g>
		<path d="M186.683,262.759h-56c-5.5,0-10,4.5-10,10v92c0,5.5,4.5,10,10,10h56c5.5,0,10-4.5,10-10v-92
			C196.683,267.259,192.183,262.759,186.683,262.759z M176.683,355.759h-36v-73h36V355.759z"/>
	</g>
</g>
<g>
	<g>
		<path d="M70.683,242.759h-56c-5.5,0-10,4.5-10,10v113c0,5.5,4.5,10,10,10h56c5.5,0,10-4.5,10-10v-113
			C80.683,247.259,76.183,242.759,70.683,242.759z M61.683,355.759h-37v-93h37V355.759z"/>
	</g>
</g>
<g>
	<g>
		<path d="M419.583,13.159c-15.7-16.8-42.2-17.6-59-1.9c-11.3,10.6-15.8,26.5-11.7,41.4l-45.4,32.1c-16.2-16.4-42.7-16.6-59.1-0.4
			c-11.6,11.5-15.5,28.6-9.9,44l-41.8,35.2c-13.2-18.9-39.2-23.6-58.2-10.4c-7.2,5-12.6,12.2-15.5,20.4l-34.7-14.1
			c-3.9-22.8-25.4-38.1-48.2-34.2c-22.8,3.9-38.1,25.5-34.2,48.3c3.9,22.8,25.4,38.1,48.2,34.2c15-2.5,27.4-13,32.5-27.3l34.7,14.1
			c3.8,22.8,25.4,38.1,48.2,34.3c20.1-3.4,34.8-20.8,34.8-41.2c0-1.3-0.1-2.7-0.2-4l45.6-38.6c17.1,15.5,43.5,14.3,59-2.8
			c9.9-10.9,13.3-26.2,9.1-40.2l44.9-31.8c15.8,16.8,42.2,17.6,59,1.9C434.483,56.358,435.283,29.959,419.583,13.159z
			 M43.083,188.359c-12,0-21.8-9.8-21.8-21.8s9.8-21.8,21.8-21.8s21.8,9.8,21.8,21.8S55.083,188.359,43.083,188.359z
			 M158.383,209.359c-12,0-21.8-9.8-21.8-21.8s9.8-21.8,21.8-21.8s21.8,9.8,21.8,21.8S170.483,209.359,158.383,209.359z
			 M273.783,135.859c-12,0-21.8-9.8-21.8-21.8c0-12,9.8-21.7,21.8-21.8c12,0,21.8,9.8,21.8,21.8S285.783,135.859,273.783,135.859z
			 M389.183,63.459c-12,0-21.8-9.8-21.8-21.8s9.7-21.8,21.8-21.8c12,0,21.8,9.8,21.8,21.8S401.183,63.459,389.183,63.459z"/>
	</g>
</g>
<g>
	<g>
		<path d="M427.683,252.259v-125.3c-0.2-5.6-4.7-10.2-10.4-10.2h-56.3c-5.6,0.1-10.2,4.6-10.3,10.2v113.5c-13.6,1.9-26.7,6-39,12
			v-53.3c0-5.5-4.2-10.4-9.7-10.4h-56.3c-5.5,0-9.9,4.9-9.9,10.4v166.3c0.1,2.1,0.8,4.2,2,5.9c0,72.9,59.3,132.3,132.2,132.3
			s132.4-59.3,132.4-132.3C502.283,320.658,473.283,274.459,427.683,252.259z M370.683,136.759h37v107.8c-12-3.5-24.5-5.3-37-5.4
			V136.759z M255.683,208.759h36v55.8c-14,10.7-27,24.4-36,40.2V208.759z M369.883,483.658c-62,0-112.3-50.3-112.3-112.3
			s50.3-112.3,112.3-112.3s112.3,50.3,112.3,112.3C482.083,433.358,431.783,483.559,369.883,483.658z"/>
	</g>
</g>
<g>
	<g>
		<path d="M444.083,351.958l-8.4-1.5c-1.2-3.6-2.6-7-4.3-10.4l4.8-6.9c2.8-4,2.3-9.4-1.1-12.8l-13.9-13.9c-3.5-3.5-8.9-3.9-12.9-1
			l-6.8,4.9c-3.3-1.7-6.8-3.1-10.3-4.2l-1.4-8.1c-0.8-4.8-5-8.3-9.9-8.2h-19.6c-4.9,0-9,3.4-9.9,8.2l-1.4,8.1
			c-3.6,1.1-7,2.6-10.4,4.3l-6.9-4.9c-4-2.8-9.4-2.3-12.8,1.1l-13.9,13.9c-3.4,3.4-3.9,8.8-1.1,12.8l4.8,6.9
			c-1.7,3.4-3.1,6.8-4.3,10.4l-8.3,1.4c-4.8,0.8-8.4,4.9-8.5,9.9v19.6c0.1,4.9,3.7,9.1,8.5,9.9l8.2,1.4c1.2,3.6,2.6,7,4.3,10.4
			l-4.8,6.9c-2.8,4-2.3,9.4,1.1,12.8l13.9,13.9c3.4,3.4,8.8,3.9,12.8,1.1l6.9-4.8c3.4,1.7,6.8,3.1,10.4,4.3l1.4,8.2
			c0.8,4.8,5,8.3,9.9,8.3h19.6c4.9,0,9-3.5,9.9-8.3l1.4-8.2c3.6-1.2,7-2.6,10.4-4.3l6.9,4.8c4,2.8,9.4,2.3,12.8-1.1l13.9-13.9
			c3.4-3.4,3.9-8.9,1.1-12.8l-5-7c1.7-3.3,3.1-6.8,4.3-10.4l8.6-1.4c4.9-0.8,8.5-4.9,8.6-9.9v-19.6
			C452.583,356.958,448.983,352.758,444.083,351.958z M432.683,372.759l-6.6,1.1c-4.1,0.7-7.4,3.8-8.3,7.8
			c-1.2,5.8-3.5,11.4-6.8,16.4c-2.2,3.4-2.1,7.9,0.2,11.2l3.8,5.3l-2,2l-5.2-3.6c-3.3-2.3-7.6-2.4-11.1-0.3
			c-5.1,3.2-10.7,5.5-16.5,6.8c-4,0.9-7.1,4.1-7.8,8.1l-1,6.2h-2.7l-1-6.2c-0.7-4.1-3.8-7.3-7.8-8.1c-5.8-1.2-11.4-3.5-16.4-6.7
			c-3.4-2.2-7.8-2.1-11.2,0.2l-5.2,3.6l-2-2l3.6-5.2c2.3-3.3,2.4-7.6,0.3-11.1c-3.2-5.1-5.5-10.7-6.8-16.5c-0.9-4-4.2-7.1-8.3-7.8
			l-6.3-1v-2.7l6.3-1c4.1-0.7,7.3-3.8,8.2-7.8c1.2-5.8,3.5-11.4,6.8-16.4c2.2-3.4,2.1-7.8-0.2-11.2l-3.6-5.2l2-2l5.2,3.6
			c3.3,2.3,7.6,2.4,11.1,0.3c5.1-3.2,10.7-5.5,16.5-6.8c4-0.8,7.1-4,7.8-8l1-6.1h2.7l1,6.1c0.7,4,3.8,7.2,7.8,8.1
			c5.8,1.2,11.4,3.5,16.4,6.7c3.5,2.2,7.9,2.1,11.3-0.3l5.1-3.7l2,2l-3.6,5.2c-2.3,3.3-2.4,7.6-0.3,11.1c3.2,5.1,5.5,10.7,6.8,16.5
			c1,4.1,4.3,7.1,8.4,7.8l6.4,1V372.759z"/>
	</g>
</g>
<g>
	<g>
		<path d="M370.083,337.959c-18.5,0-33.5,15-33.5,33.5s15,33.5,33.5,33.5s33.5-15,33.5-33.5S388.583,337.959,370.083,337.959z
			 M370.083,384.959c-7.5,0-13.5-6.1-13.5-13.5c0-7.4,6.1-13.5,13.5-13.5c7.4,0,13.5,6.1,13.5,13.5
			C383.583,378.959,377.583,384.959,370.083,384.959z"/>
	</g>
</g>
<g>
</g>
<g>
</g>
<g>
</g>
<g>
</g>
<g>
</g>
<g>
</g>
<g>
</g>
<g>
</g>
<g>
</g>
<g>
</g>
<g>
</g>
<g>
</g>
<g>
</g>
<g>
</g>
<g>
</g>
</svg>
