<?xml version="1.0" encoding="iso-8859-1"?>
<!-- Generator: Adobe Illustrator 19.0.0, SVG Export Plug-In . SVG Version: 6.00 Build 0)  -->
<svg version="1.1" id="Capa_1" xmlns="http://www.w3.org/2000/svg" xmlns:xlink="http://www.w3.org/1999/xlink" x="0px" y="0px"
	 viewBox="0 0 502.8 502.8" style="enable-background:new 0 0 502.8 502.8;" xml:space="preserve">
<g>
	<g>
		<path d="M393.7,57.25l-0.1-0.1C357,21.05,309,1.25,258.4,1.25c-5.5,0-10,4.5-10,10v181.2c0,5.5,4.5,9.9,10,9.9h181.2
			c5.5,0,10-4.4,10-9.9C449.6,141.95,429.8,93.95,393.7,57.25z M268.4,21.55c18.6,1,36.8,5.1,54,12.1l-54,54V21.55z M268.4,115.95
			l73.2-73.2c10.8,6,21,13.2,30.3,21.4l-103.5,103.6V115.95z M282,182.35l104.1-104.1c8.2,9.3,15.4,19.4,21.5,30.2l-73.9,73.9H282z
			 M362,182.35l54.8-54.8c7.2,17.5,11.4,36,12.5,54.8H362z"/>
	</g>
</g>
<g>
	<g>
		<path d="M370.5,236.85c-18.6,0.2-37,4.1-54.1,11.5h-115v-171c0-5.5-4.6-10-10.1-10c-50.8-0.2-99.6,20-135.4,56
			c-36,36.7-55.9,84.7-55.9,135.2c0,105.4,85.8,191.2,191.2,191.2c22.7,0.1,45.1-3.9,66.4-11.7c24,39.4,66.8,63.5,112.9,63.5
			c72.9,0,132.3-59.4,132.3-132.3S443.5,236.85,370.5,236.85z M248.5,419.95c-18.5,6.5-37.8,9.8-57.3,9.8
			c-94.4,0-171.2-76.8-171.2-171.2c0-45.3,17.9-88.3,50.2-121.1c29.6-29.8,69.2-47.5,111.2-49.8v170.9c-0.1,5.3,4.2,9.7,9.5,9.8
			c0.1,0,0.2,0,0.3,0h93.7C241.1,305.65,226.4,366.85,248.5,419.95z M370.5,481.45c-62,0-112.3-50.3-112.3-112.3
			s50.3-112.3,112.3-112.3s112.3,50.3,112.3,112.3C482.7,431.15,432.5,481.45,370.5,481.45z"/>
	</g>
</g>
<g>
	<g>
		<path d="M439.9,424.35l-28.3-28.3c21.1-28.9,14.7-69.4-14.1-90.5c-28.9-21.1-69.4-14.7-90.5,14.1c-21.1,28.9-14.7,69.4,14.1,90.5
			c22.7,16.6,53.6,16.6,76.3,0l28.4,28.4c3.9,3.9,10.3,3.9,14.1-0.1C443.8,434.55,443.8,428.25,439.9,424.35z M359.3,402.65
			c-24.6,0-44.5-20-44.6-44.6c0-24.7,20-44.6,44.6-44.6c24.6,0,44.6,20,44.6,44.6C403.9,382.75,383.9,402.65,359.3,402.65z"/>
	</g>
</g>
<g>
</g>
<g>
</g>
<g>
</g>
<g>
</g>
<g>
</g>
<g>
</g>
<g>
</g>
<g>
</g>
<g>
</g>
<g>
</g>
<g>
</g>
<g>
</g>
<g>
</g>
<g>
</g>
<g>
</g>
</svg>
