<?xml version="1.0" encoding="iso-8859-1"?>
<!-- Generator: Adobe Illustrator 19.0.0, SVG Export Plug-In . SVG Version: 6.00 Build 0)  -->
<svg version="1.1" id="Capa_1" xmlns="http://www.w3.org/2000/svg" xmlns:xlink="http://www.w3.org/1999/xlink" x="0px" y="0px"
	 viewBox="0 0 500 500" style="enable-background:new 0 0 500 500;" xml:space="preserve">
<g>
	<g>
		<path d="M178.7,99.8H118c-5.4-0.1-9.9,4.2-10.1,9.6v0.1v253c0,5.6,4.5,10.1,10.1,10.2h60.7c5.6-0.1,10.2-4.6,10.3-10.2v-253
			C189,104,184.3,99.8,178.7,99.8z M169,352.8h-41v-84h41V352.8z M169,248.8h-41v-129h41V248.8z"/>
	</g>
</g>
<g>
	<g>
		<path d="M70.6,179.8H10c-5.6,0.1-10,4.7-10,10.2v172.5c0,5.6,4.4,10.1,10,10.2h60.7c5.6-0.1,10.2-4.6,10.4-10.2V190
			C80.9,184.4,76.3,179.9,70.6,179.8z M61,352.8H20v-84h41V352.8z M61,248.8H20v-49h41V248.8z"/>
	</g>
</g>
<g>
	<g>
		<path d="M406,233.2V17.6c0-5.4-4.3-9.7-9.7-9.8c-0.1,0-0.2,0-0.2,0h-61.8c-5.5,0-10.3,4.2-10.3,9.8v217.3c-9,3.4-19,7.9-27,13.3
			V63.6c-0.1-5.5-4.6-9.8-10.1-9.8c0,0,0,0-0.1,0h-60.7c-5.5-0.1-10,4.2-10.2,9.7c0,0,0,0,0,0.1v299c0.1,5.6,4.6,10.1,10.2,10.2h9.9
			c6.7,67.7,63.6,119.4,131.6,119.4c73.1,0,132.4-59.4,132.4-132.4C500,300.2,460,249.7,406,233.2z M344,27.8h42v201
			c-6.1-0.8-12.3-1.3-18.4-1.3c-7.9,0-15.8,0.7-23.6,2.1V27.8z M236,73.8h41v175h-41V73.8z M236,268.8h35.6
			c-19.5,21-32.6,47.8-35.6,77.6V268.8z M367.8,472c-62,0-112.3-50.3-112.3-112.3s50.3-112.3,112.3-112.3S480,297.8,480,359.8
			S429.7,472,367.8,472z"/>
	</g>
</g>
<g>
	<g>
		<path d="M437.1,415.1l-28.3-28.4c21.1-28.9,14.7-69.4-14.1-90.5c-28.9-21.1-69.4-14.7-90.5,14.1c-21.1,28.9-14.7,69.4,14.1,90.5
			c22.7,16.6,53.6,16.6,76.3,0l28.4,28.4c3.9,3.9,10.2,3.9,14.1,0C441,425.3,441,419,437.1,415.1z M356.5,393.2
			c-24.6,0-44.5-19.9-44.6-44.6c0-24.7,20-44.6,44.6-44.6c24.6,0,44.6,20,44.6,44.6C401.1,373.2,381.1,393.2,356.5,393.2z"/>
	</g>
</g>
<g>
</g>
<g>
</g>
<g>
</g>
<g>
</g>
<g>
</g>
<g>
</g>
<g>
</g>
<g>
</g>
<g>
</g>
<g>
</g>
<g>
</g>
<g>
</g>
<g>
</g>
<g>
</g>
<g>
</g>
</svg>
