<?xml version="1.0" encoding="iso-8859-1"?>
<!-- Generator: Adobe Illustrator 19.0.0, SVG Export Plug-In . SVG Version: 6.00 Build 0)  -->
<svg version="1.1" id="Capa_1" xmlns="http://www.w3.org/2000/svg" xmlns:xlink="http://www.w3.org/1999/xlink" x="0px" y="0px"
	 viewBox="0 0 500.028 500.028" style="enable-background:new 0 0 500.028 500.028;" xml:space="preserve">
<g>
	<g>
		<path d="M395.864,7.227l-101.9-7.2c-5.5-0.4-10.3,3.7-10.7,9.2c-0.4,5.5,3.7,10.3,9.2,10.7c0,0,0,0,0.1,0l75.8,5.4l-136.9,106.4
			l-102.2-80.5c-3.9-3.1-9.5-2.8-13.1,0.6l-104.2,99.9c-4,3.8-4.1,10.2-0.3,14.1c1.9,2,4.5,3.1,7.2,3.1c2.6,0,5.1-1,6.9-2.8
			l97.9-93.9l101.6,80c3.6,2.8,8.7,2.9,12.3,0l145.7-113.1l-5.5,71.8c-0.4,5.5,3.7,10.3,9.2,10.7c0.3,0,0.5,0,0.8,0
			c5.2,0,9.6-4,10-9.2l7.3-94.5C405.464,12.427,401.364,7.627,395.864,7.227z"/>
	</g>
</g>
<g>
	<g>
		<path d="M376.964,236.127v-41.3c0-5.5-4.8-9.6-10.4-9.6h-63.6c-5.4-0.2-9.8,4-10,9.4c0,0.1,0,0.2,0,0.2v63.5
			c-18.8,12.4-34,29.6-44,49.9v-81.4c0-5.5-4.6-9.6-10.1-9.6h-63.6c-5.5,0-10.3,4-10.3,9.6v141.3h-44v-98.8
			c0.1-5.5-4.3-10.1-9.9-10.2h-63.6c-5.5,0-9.5,4.6-9.5,10.2v98.8h-27.1c-5.5,0-10,4.5-10,10s4.5,10,10,10h225.2
			c9.9,64.5,65.4,112.1,130.7,111.9c72.9,0,132.4-59.2,132.4-132.2C499.264,298.227,444.964,241.127,376.964,236.127z
			 M100.964,368.127h-43v-89h43V368.127z M228.964,368.127h-44v-131h44V368.127z M312.964,205.127h44v31c-15.2,1.1-30.1,4.9-44,11.1
			V205.127z M366.764,480.227c-62,0-112.3-50.3-112.3-112.3s50.3-112.3,112.3-112.3s112.3,50.3,112.3,112.3
			C478.964,429.927,428.764,480.227,366.764,480.227z"/>
	</g>
</g>
<g>
	<g>
		<path d="M436.064,423.327l-28.3-28.4c21.1-28.9,14.7-69.4-14.2-90.5c-28.9-21.1-69.4-14.7-90.5,14.2
			c-21.1,28.9-14.7,69.4,14.2,90.5c22.7,16.6,53.6,16.6,76.3,0l28.4,28.4c3.9,3.9,10.3,3.9,14.1-0.1
			C439.964,433.527,439.964,427.227,436.064,423.327z M355.564,401.427c-24.6,0-44.6-20-44.6-44.6c0-24.7,20-44.6,44.6-44.6
			c24.6,0,44.6,20,44.6,44.6C400.164,381.527,380.164,401.427,355.564,401.427z"/>
	</g>
</g>
<g>
</g>
<g>
</g>
<g>
</g>
<g>
</g>
<g>
</g>
<g>
</g>
<g>
</g>
<g>
</g>
<g>
</g>
<g>
</g>
<g>
</g>
<g>
</g>
<g>
</g>
<g>
</g>
<g>
</g>
</svg>
