<?xml version="1.0" encoding="iso-8859-1"?>
<!-- Generator: Adobe Illustrator 19.0.0, SVG Export Plug-In . SVG Version: 6.00 Build 0)  -->
<svg version="1.1" id="Capa_1" xmlns="http://www.w3.org/2000/svg" xmlns:xlink="http://www.w3.org/1999/xlink" x="0px" y="0px"
	 viewBox="0 0 467.7 467.7" style="enable-background:new 0 0 467.7 467.7;" xml:space="preserve">
<g>
	<g>
		<path d="M99,176.85H10c-5.5,0-10,4.5-10,10v120c0,5.5,4.5,10,10,10h89c5.5,0,10-4.5,10-10v-120C109,181.35,104.5,176.85,99,176.85
			z M89,296.85H20v-100h69V296.85z"/>
	</g>
</g>
<g>
	<g>
		<path d="M408,220.15V14.85c0-5.5-4-10-9.5-10h-89c-5.5,0-9.5,4.5-9.5,10v188.4c-14.7,4.1-28.6,10.8-41,19.7v-106.3
			c-0.1-5.5-4.7-9.9-10.3-9.8h-89c-5.3-0.1-9.7,4.2-9.8,9.5c0,0.1,0,0.2,0,0.3v190.1c-0.1,5.5,4.2,10,9.7,10.1c0,0,0,0,0.1,0h44.4
			c-0.5,4.6-0.7,9.2-0.7,13.8c0,72.9,59.3,132.2,132.3,132.2s132-59.4,132-132.3C467.7,286.05,445.3,244.55,408,220.15z M320,24.85
			h68v184.4c-16.5-7.3-34.3-11-52.3-11c-5.3,0-10.5,0.3-15.7,1V24.85z M170,296.85v-170h69v113.9c-14.9,15.8-25.7,35.1-31.1,56.1
			H170z M335.7,442.85c-62,0-112.3-50.3-112.3-112.3s50.3-112.3,112.3-112.3S448,268.55,448,330.55
			C447.9,392.55,397.7,442.75,335.7,442.85z"/>
	</g>
</g>
<g>
	<g>
		<path d="M405.1,386.75l-28.3-28.3c21.1-28.9,14.7-69.4-14.1-90.5c-28.9-21.1-69.4-14.7-90.5,14.1c-21.1,28.9-14.7,69.4,14.1,90.5
			c22.7,16.6,53.6,16.6,76.3,0l28.4,28.4c3.9,3.9,10.3,3.9,14.1-0.1C409,396.95,409,390.65,405.1,386.75z M324.5,364.95
			c-24.6,0-44.6-19.9-44.6-44.6s20-44.6,44.6-44.6c24.6,0,44.6,20,44.6,44.6C369.1,345.05,349.1,364.95,324.5,364.95z"/>
	</g>
</g>
<g>
</g>
<g>
</g>
<g>
</g>
<g>
</g>
<g>
</g>
<g>
</g>
<g>
</g>
<g>
</g>
<g>
</g>
<g>
</g>
<g>
</g>
<g>
</g>
<g>
</g>
<g>
</g>
<g>
</g>
</svg>
