<?xml version="1.0" encoding="iso-8859-1"?>
<!-- Generator: Adobe Illustrator 19.0.0, SVG Export Plug-In . SVG Version: 6.00 Build 0)  -->
<svg version="1.1" id="Capa_1" xmlns="http://www.w3.org/2000/svg" xmlns:xlink="http://www.w3.org/1999/xlink" x="0px" y="0px"
	 viewBox="0 0 503.659 503.659" style="enable-background:new 0 0 503.659 503.659;" xml:space="preserve">
<g>
	<g>
		<path d="M186.367,262.759h-56c-5.5,0-10,4.5-10,10v92c0,5.5,4.5,10,10,10h56c5.5,0,10-4.5,10-10v-92
			C196.367,267.259,191.867,262.759,186.367,262.759z M176.367,355.759h-36v-73h36V355.759z"/>
	</g>
</g>
<g>
	<g>
		<path d="M71.367,242.759h-56c-5.5,0-10,4.5-10,10v113c0,5.5,4.5,10,10,10h56c5.5,0,10-4.5,10-10v-113
			C81.367,247.259,76.867,242.759,71.367,242.759z M61.367,355.759h-36v-93h36V355.759z"/>
	</g>
</g>
<g>
	<g>
		<path d="M419.767,13.159c-15.8-16.8-42.2-17.6-59-1.9c-11.3,10.6-15.8,26.5-11.7,41.4l-45.3,32.1c-16.2-16.4-42.7-16.6-59.1-0.4
			c-11.6,11.5-15.5,28.6-9.9,44l-41.8,35.2c-13.2-18.9-39.2-23.6-58.2-10.4c-7.2,5-12.6,12.2-15.5,20.4l-34.7-14.1
			c-3.9-22.7-25.5-38-48.2-34.1c-22.7,3.9-38.1,25.4-34.3,48.2s25.4,38.1,48.2,34.2c15-2.5,27.4-13,32.5-27.4l34.7,14.1
			c3.9,22.8,25.4,38.1,48.2,34.2c20.1-3.4,34.8-20.8,34.8-41.2c0-1.3-0.1-2.7-0.2-4l45.7-38.4c17.1,15.5,43.5,14.3,59-2.8
			c9.9-10.9,13.3-26.2,9.1-40.2l44.8-31.8c15.8,16.8,42.2,17.6,59,1.9C434.667,56.358,435.467,29.959,419.767,13.159z
			 M43.367,188.359c-12,0-21.8-9.8-21.8-21.8s9.7-21.8,21.8-21.8c12,0,21.8,9.8,21.8,21.8S55.367,188.359,43.367,188.359z
			 M158.667,209.359c-12,0-21.8-9.8-21.8-21.8s9.8-21.8,21.8-21.8s21.8,9.8,21.8,21.8S170.767,209.359,158.667,209.359z
			 M274.067,135.859c-12,0-21.8-9.8-21.8-21.8s9.7-21.7,21.8-21.8c12,0,21.8,9.8,21.8,21.8S286.067,135.859,274.067,135.859z
			 M389.367,63.459c-12,0-21.8-9.8-21.8-21.8s9.8-21.8,21.8-21.8s21.8,9.8,21.8,21.8S401.367,63.459,389.367,63.459z"/>
	</g>
</g>
<g>
	<g>
		<path d="M427.367,252.259v-125.3c0.1-5.5-4.3-10.1-9.8-10.2h-56.3c-5.5,0.1-9.9,4.7-9.9,10.2v113.5c-13.6,1.9-26.7,6-39,12v-53.3
			c0-5.6-4.5-10.2-10.2-10.4h-56.3c-5.5,0-9.5,4.9-9.5,10.4v166.3c0,2.2,0,4.3,1,5.9c0,72.9,59.6,132.3,132.5,132.3
			s132.3-59.3,132.3-132.3C502.167,319.059,471.367,273.658,427.367,252.259z M371.367,136.759h36v107.8c-11.7-3.5-23.8-5.3-36-5.4
			V136.759z M256.367,208.759h36v55.8c-14.8,10.6-27.1,24.4-36,40.2V208.759z M370.067,483.658c-62,0-112.3-50.3-112.3-112.3
			s50.3-112.3,112.3-112.3s112.3,50.3,112.3,112.3C482.267,433.358,432.067,483.559,370.067,483.658z"/>
	</g>
</g>
<g>
	<g>
		<path d="M439.467,426.658l-28.3-28.4c21.1-28.9,14.7-69.4-14.1-90.5c-28.9-21.1-69.4-14.7-90.5,14.1
			c-21.1,28.9-14.7,69.4,14.1,90.5c22.7,16.6,53.6,16.6,76.3,0l28.4,28.4c3.9,3.9,10.2,3.9,14.1,0
			C443.367,436.858,443.367,430.559,439.467,426.658z M358.967,404.858c-24.7,0-44.7-20-44.7-44.6c0-24.7,20-44.6,44.6-44.7
			c24.6-0.1,44.6,20,44.7,44.6C403.567,384.858,383.567,404.759,358.967,404.858z"/>
	</g>
</g>
<g>
</g>
<g>
</g>
<g>
</g>
<g>
</g>
<g>
</g>
<g>
</g>
<g>
</g>
<g>
</g>
<g>
</g>
<g>
</g>
<g>
</g>
<g>
</g>
<g>
</g>
<g>
</g>
<g>
</g>
</svg>
