<?xml version="1.0" encoding="iso-8859-1"?>
<!-- Generator: Adobe Illustrator 19.0.0, SVG Export Plug-In . SVG Version: 6.00 Build 0)  -->
<svg version="1.1" id="Capa_1" xmlns="http://www.w3.org/2000/svg" xmlns:xlink="http://www.w3.org/1999/xlink" x="0px" y="0px"
	 viewBox="0 0 500 500" style="enable-background:new 0 0 500 500;" xml:space="preserve">
<g>
	<g>
		<path d="M450.2,50.853c-0.1,0-0.1,0-0.2,0H319.9c-5.8-0.1-11.6,0.9-17.1,2.9l-42.6,15.4c-6.6,2.4-13.9,2.4-20.5,0l-42.6-15.3
			c-5.5-2-11.3-2.9-17.1-2.9H50c-27.5-0.2-49.9,22-50,49.4v0.1v278.4c0,27.6,22.4,50,50,50h130.1c3.5,0,7,0.6,10.3,1.8l42.6,15.5
			c11,4,23.1,4,34.2,0l42.6-15.5c3.3-1.2,6.8-1.8,10.3-1.8H450c27.6,0,49.9-22.4,50-50v-278.3C500,73.053,477.7,50.853,450.2,50.853
			z M240,427.353c-0.1,0-0.2-0.1-0.3-0.1l-42.5-15.4c-5.5-2-11.3-3-17.1-3H50c-16.5,0-30-13.4-30-30v-278.3
			c0-16.4,13.4-29.7,29.8-29.7c0.1,0,0.1,0,0.2,0h130.1c3.5-0.1,7,0.5,10.3,1.6l42.5,15.4c2.3,0.8,4.7,1.4,7.1,1.9V427.353z
			 M480,100.653v278.2c0,16.5-13.4,30-30,30H319.9c-5.8,0-11.6,1-17.1,3l-42.6,15.5c-0.1,0-0.2,0.1-0.3,0.1v-337.6
			c2.4-0.5,4.8-1.2,7.1-2l42.6-15.3c3.3-1.1,6.8-1.7,10.3-1.6H450c16.4-0.1,29.8,13.1,30,29.5C480,100.553,480,100.553,480,100.653z
			"/>
	</g>
</g>
<g>
	<g>
		<path d="M363.5,135.853h-51.2c-5.5,0-10,4.5-10,10s4.5,10,10,10h51.2c5.5,0,10-4.5,10-10S369,135.853,363.5,135.853z"/>
	</g>
</g>
<g>
	<g>
		<path d="M433.5,198.853H312.3c-5.5,0-10,4.5-10,10s4.5,10,10,10h121.2c5.5,0,10-4.5,10-10S439,198.853,433.5,198.853z"/>
	</g>
</g>
<g>
	<g>
		<path d="M433.5,261.853H312.3c-5.5,0-10,4.5-10,10s4.5,10,10,10h121.2c5.5,0,10-4.5,10-10S439,261.853,433.5,261.853z"/>
	</g>
</g>
<g>
	<g>
		<path d="M433.5,323.853H312.3c-5.5,0-10,4.5-10,10s4.5,10,10,10h121.2c5.5,0,10-4.5,10-10S439,323.853,433.5,323.853z"/>
	</g>
</g>
<g>
	<g>
		<path d="M208.5,303.853H55v-117.9c0-5.5-4.5-10-10-10s-10,4.5-10,10v119.6c0.1,10.1,8.3,18.2,18.4,18.3h155.1c5.5,0,10-4.5,10-10
			S214.1,303.853,208.5,303.853z"/>
	</g>
</g>
<g>
	<g>
		<path d="M217.2,194.953c-2-0.2-4-0.5-6-0.5c-13,0-23.5,10.5-23.5,23.5c0,3.4,0.7,6.8,2.2,9.9l-10.4,11.3
			c-7.7-5.2-17.8-5.3-25.7-0.4l-8.9-7.3c-1.5-12.9-13.1-22.2-26.1-20.7c-13,1.5-22.2,13.1-20.7,26.1c0,0.2,0,0.4,0.1,0.6l-11.8,14.7
			c-12.6-3.1-25.4,4.5-28.5,17.1c-3.1,12.6,4.5,25.4,17.1,28.5c12.6,3.1,25.4-4.5,28.5-17.1c1.3-5.3,0.8-11-1.6-15.9l8.1-10.1
			c8.9,5,20.1,3.7,27.6-3.4l5.4,4.4c-1.6,12.9,7.6,24.6,20.5,26.2c12.9,1.6,24.6-7.6,26.2-20.5c0.1-1,0.2-1.9,0.2-2.9
			c0-0.4,0-0.9,0-1.3l15.4-16.7c12.6,3.3,25.4-4.2,28.7-16.8C237.3,211.053,229.8,198.253,217.2,194.953z M80.7,278.653
			c-2,0-3.5-1.6-3.5-3.5c0-1.9,1.6-3.5,3.5-3.5c1.9,0,3.5,1.6,3.5,3.5S82.7,278.653,80.7,278.653z M121.5,237.853
			c-2,0-3.5-1.6-3.5-3.5c0-1.9,1.6-3.5,3.5-3.5c2,0,3.5,1.6,3.5,3.5C125,236.253,123.4,237.853,121.5,237.853z M166.3,262.253
			c-2,0-3.5-1.6-3.5-3.5c0-2,1.6-3.5,3.5-3.5c2,0,3.5,1.6,3.5,3.5C169.9,260.753,168.3,262.253,166.3,262.253z M211.2,221.553
			c-2,0-3.5-1.6-3.5-3.5c0-2,1.6-3.5,3.5-3.5c2,0,3.5,1.6,3.5,3.5C214.7,219.953,213.2,221.553,211.2,221.553z"/>
	</g>
</g>
<g>
</g>
<g>
</g>
<g>
</g>
<g>
</g>
<g>
</g>
<g>
</g>
<g>
</g>
<g>
</g>
<g>
</g>
<g>
</g>
<g>
</g>
<g>
</g>
<g>
</g>
<g>
</g>
<g>
</g>
</svg>
