<?xml version="1.0" encoding="iso-8859-1"?>
<!-- Generator: Adobe Illustrator 19.0.0, SVG Export Plug-In . SVG Version: 6.00 Build 0)  -->
<svg version="1.1" id="Capa_1" xmlns="http://www.w3.org/2000/svg" xmlns:xlink="http://www.w3.org/1999/xlink" x="0px" y="0px"
	 viewBox="0 0 500 500" style="enable-background:new 0 0 500 500;" xml:space="preserve">
<g>
	<g>
		<path d="M450.2,50.853c-0.1,0-0.1,0-0.2,0H319.9c-5.8-0.1-11.6,0.9-17.1,2.9l-42.6,15.4c-6.6,2.4-13.9,2.4-20.5,0l-42.6-15.3
			c-5.5-2-11.3-2.9-17.1-2.9H50c-27.5-0.2-49.9,22-50,49.4v0.1v278.4c0,27.6,22.4,50,50,50h130.1c3.5,0,7,0.6,10.3,1.8l42.6,15.5
			c11,4,23.1,4,34.2,0l42.6-15.5c3.3-1.2,6.8-1.8,10.3-1.8H450c27.6,0,49.9-22.4,50-50v-278.3C500,73.053,477.7,50.853,450.2,50.853
			z M240,427.353c-0.1,0-0.2-0.1-0.3-0.1l-42.5-15.4c-5.5-2-11.3-3-17.1-3H50c-16.5,0-30-13.4-30-30v-278.3
			c0-16.4,13.4-29.7,29.8-29.7c0.1,0,0.1,0,0.2,0h130.1c3.5-0.1,7,0.5,10.3,1.6l42.5,15.4c2.3,0.8,4.7,1.4,7.1,1.9V427.353z
			 M480,100.653v278.2c0,16.5-13.4,30-30,30H319.9c-5.8,0-11.6,1-17.1,3l-42.6,15.5c-0.1,0-0.2,0.1-0.3,0.1v-337.6
			c2.4-0.5,4.8-1.2,7.1-2l42.6-15.3c3.3-1.1,6.8-1.7,10.3-1.6H450c16.4-0.1,29.8,13.1,30,29.5C480,100.553,480,100.553,480,100.653z
			"/>
	</g>
</g>
<g>
	<g>
		<path d="M363.5,135.853h-51.2c-5.5,0-10,4.5-10,10s4.5,10,10,10h51.2c5.5,0,10-4.5,10-10S369,135.853,363.5,135.853z"/>
	</g>
</g>
<g>
	<g>
		<path d="M433.5,198.853H312.3c-5.5,0-10,4.5-10,10s4.5,10,10,10h121.2c5.5,0,10-4.5,10-10S439,198.853,433.5,198.853z"/>
	</g>
</g>
<g>
	<g>
		<path d="M433.5,261.853H312.3c-5.5,0-10,4.5-10,10s4.5,10,10,10h121.2c5.5,0,10-4.5,10-10S439,261.853,433.5,261.853z"/>
	</g>
</g>
<g>
	<g>
		<path d="M433.5,323.853H312.3c-5.5,0-10,4.5-10,10s4.5,10,10,10h121.2c5.5,0,10-4.5,10-10S439,323.853,433.5,323.853z"/>
	</g>
</g>
<g>
	<g>
		<path d="M190.6,252.853H127v-62.8c0.1-5.4-4.2-9.9-9.6-10h-0.1c-22.1-0.1-43.3,8.7-58.8,24.4c-32.5,32.5-32.4,85.3,0.1,117.8
			s85.3,32.4,117.8-0.1c15.6-15.7,24.4-36.9,24.3-59C200.6,257.453,196.2,252.953,190.6,252.853z M162.1,307.753
			c-24.6,24.8-64.6,25-89.5,0.4c-24.8-24.6-25-64.6-0.4-89.5c9.4-9.5,21.6-15.7,34.7-17.9v62.4c0,5.5,4.9,9.7,10.4,9.7h62.4
			C177.7,286.053,171.5,298.253,162.1,307.753z"/>
	</g>
</g>
<g>
	<g>
		<path d="M203.5,177.653c0,0.1-0.1,0-0.1-0.1c-15.5-15.5-36.6-24.3-58.6-24.3c-5.4,0-9.8,4.4-9.8,9.9v0.1v73.2
			c0,5.5,4.1,10.3,9.6,10.3h73.2c5.6-0.1,10-4.6,10-10.2C227.8,214.453,219.1,193.353,203.5,177.653z M155,174.153
			c1,0.2,3.2,0.5,4.8,0.9l-4.8,4.8V174.153z M155,208.053l24.3-24.5c0.8,0.5,1.7,1.1,2.5,1.6l-26.8,27V208.053z M172.5,226.853h-4
			l27.2-27.3c0.6,0.8,1.1,1.7,1.6,2.5L172.5,226.853z M200.8,226.853l5.1-5.1c0.4,1.7,0.8,3.4,1,5.1H200.8z"/>
	</g>
</g>
<g>
</g>
<g>
</g>
<g>
</g>
<g>
</g>
<g>
</g>
<g>
</g>
<g>
</g>
<g>
</g>
<g>
</g>
<g>
</g>
<g>
</g>
<g>
</g>
<g>
</g>
<g>
</g>
<g>
</g>
</svg>
