<?xml version="1.0" encoding="iso-8859-1"?>
<!-- Generator: Adobe Illustrator 19.0.0, SVG Export Plug-In . SVG Version: 6.00 Build 0)  -->
<svg version="1.1" id="Capa_1" xmlns="http://www.w3.org/2000/svg" xmlns:xlink="http://www.w3.org/1999/xlink" x="0px" y="0px"
	 viewBox="0 0 500 500" style="enable-background:new 0 0 500 500;" xml:space="preserve">
<g>
	<g>
		<path d="M450.2,50.853c-0.1,0-0.1,0-0.2,0H319.9c-5.8-0.1-11.6,0.9-17.1,2.9l-42.6,15.4c-6.6,2.4-13.9,2.4-20.5,0l-42.6-15.3
			c-5.5-2-11.3-2.9-17.1-2.9H50c-27.5-0.2-49.9,22-50,49.4v0.1v278.4c0,27.6,22.4,50,50,50h130.1c3.5,0,7,0.6,10.3,1.8l42.6,15.5
			c11,4,23.1,4,34.2,0l42.6-15.5c3.3-1.2,6.8-1.8,10.3-1.8H450c27.6,0,49.9-22.4,50-50v-278.3C500,73.053,477.7,50.853,450.2,50.853
			z M240,427.353c-0.1,0-0.2-0.1-0.3-0.1l-42.5-15.4c-5.5-2-11.3-3-17.1-3H50c-16.5,0-30-13.4-30-30v-278.3
			c0-16.4,13.4-29.7,29.8-29.7c0.1,0,0.1,0,0.2,0h130.1c3.5-0.1,7,0.5,10.3,1.6l42.5,15.4c2.3,0.8,4.7,1.4,7.1,1.9V427.353z
			 M480,100.653v278.2c0,16.5-13.4,30-30,30H319.9c-5.8,0-11.6,1-17.1,3l-42.6,15.5c-0.1,0-0.2,0.1-0.3,0.1v-337.6
			c2.4-0.5,4.8-1.2,7.1-2l42.6-15.3c3.3-1.1,6.8-1.7,10.3-1.6H450c16.4-0.1,29.8,13.1,30,29.5C480,100.553,480,100.553,480,100.653z
			"/>
	</g>
</g>
<g>
	<g>
		<path d="M363.5,135.853h-51.2c-5.5,0-10,4.5-10,10s4.5,10,10,10h51.2c5.5,0,10-4.5,10-10S369,135.853,363.5,135.853z"/>
	</g>
</g>
<g>
	<g>
		<path d="M433.5,198.853H312.3c-5.5,0-10,4.5-10,10s4.5,10,10,10h121.2c5.5,0,10-4.5,10-10S439,198.853,433.5,198.853z"/>
	</g>
</g>
<g>
	<g>
		<path d="M433.5,261.853H312.3c-5.5,0-10,4.5-10,10s4.5,10,10,10h121.2c5.5,0,10-4.5,10-10S439,261.853,433.5,261.853z"/>
	</g>
</g>
<g>
	<g>
		<path d="M433.5,323.853H312.3c-5.5,0-10,4.5-10,10s4.5,10,10,10h121.2c5.5,0,10-4.5,10-10S439,323.853,433.5,323.853z"/>
	</g>
</g>
<g>
	<g>
		<path d="M168.6,179.853h-28.7c-5.6,0.1-10,4.7-9.9,10.2v141.3c0,5.5,4.4,10.5,9.9,10.5h28.7c5.7-0.2,10.3-4.8,10.4-10.5v-141.3
			C178.8,184.453,174.2,179.953,168.6,179.853z M159,321.853h-9v-29h9V321.853z M159,272.853h-9v-73h9V272.853z"/>
	</g>
</g>
<g>
	<g>
		<path d="M220.2,157.853H191c-5.5,0-10,5-10,10.5v163c0,5.5,4.5,10.5,10,10.5h29.2c5.5,0,9.8-5,9.8-10.5v-163
			C230,162.853,225.7,157.853,220.2,157.853z M210,321.853h-9v-29h9V321.853z M210,272.853h-9v-95h9V272.853z"/>
	</g>
</g>
<g>
	<g>
		<path d="M117.5,201.853H88.9c-5.4,0-9.9,4.4-9.9,9.8v0.1v119.5c0,5.5,4.3,10.5,9.9,10.5h28.7c5.7-0.2,10.3-4.8,10.5-10.5v-119.4
			C128,206.253,123,201.853,117.5,201.853z M108,321.853h-9v-29h9V321.853z M108,272.853h-9v-51h9V272.853z"/>
	</g>
</g>
<g>
	<g>
		<path d="M66.4,239.853H37.8c-5.4,0-9.8,4.4-9.8,9.8c0,0.1,0,0.1,0,0.2v81.5c0,5.5,4.3,10.5,9.8,10.5h28.7c5.5,0,9.6-5,9.6-10.5
			v-81.5C76,244.353,72,239.853,66.4,239.853z M56,321.853h-8v-29h8V321.853z M56,272.853h-8v-13h8V272.853z"/>
	</g>
</g>
<g>
</g>
<g>
</g>
<g>
</g>
<g>
</g>
<g>
</g>
<g>
</g>
<g>
</g>
<g>
</g>
<g>
</g>
<g>
</g>
<g>
</g>
<g>
</g>
<g>
</g>
<g>
</g>
<g>
</g>
</svg>
