<?xml version="1.0" encoding="iso-8859-1"?>
<!-- Generator: Adobe Illustrator 19.0.0, SVG Export Plug-In . SVG Version: 6.00 Build 0)  -->
<svg version="1.1" id="Capa_1" xmlns="http://www.w3.org/2000/svg" xmlns:xlink="http://www.w3.org/1999/xlink" x="0px" y="0px"
	 viewBox="0 0 500 500" style="enable-background:new 0 0 500 500;" xml:space="preserve">
<g>
	<g>
		<path d="M450.2,50.853c-0.1,0-0.1,0-0.2,0H319.9c-5.8-0.1-11.6,0.9-17.1,2.9l-42.6,15.4c-6.6,2.4-13.9,2.4-20.5,0l-42.6-15.3
			c-5.5-2-11.3-2.9-17.1-2.9H50c-27.5-0.2-49.9,22-50,49.4v0.1v278.4c0,27.6,22.4,50,50,50h130.1c3.5,0,7,0.6,10.3,1.8l42.6,15.5
			c11,4,23.1,4,34.2,0l42.6-15.5c3.3-1.2,6.8-1.8,10.3-1.8H450c27.6,0,49.9-22.4,50-50v-278.3C500,73.053,477.7,50.853,450.2,50.853
			z M240,427.353c-0.1,0-0.2-0.1-0.3-0.1l-42.5-15.4c-5.5-2-11.3-3-17.1-3H50c-16.5,0-30-13.4-30-30v-278.3
			c0-16.4,13.4-29.7,29.8-29.7c0.1,0,0.1,0,0.2,0h130.1c3.5-0.1,7,0.5,10.3,1.6l42.5,15.4c2.3,0.8,4.7,1.4,7.1,1.9V427.353z
			 M480,100.653v278.2c0,16.5-13.4,30-30,30H319.9c-5.8,0-11.6,1-17.1,3l-42.6,15.5c-0.1,0-0.2,0.1-0.3,0.1v-337.6
			c2.4-0.5,4.8-1.2,7.1-2l42.6-15.3c3.3-1.1,6.8-1.7,10.3-1.6H450c16.4-0.1,29.8,13.1,30,29.5C480,100.553,480,100.553,480,100.653z
			"/>
	</g>
</g>
<g>
	<g>
		<path d="M363.5,135.853h-51.2c-5.5,0-10,4.5-10,10s4.5,10,10,10h51.2c5.5,0,10-4.5,10-10S369,135.853,363.5,135.853z"/>
	</g>
</g>
<g>
	<g>
		<path d="M433.5,198.853H312.3c-5.5,0-10,4.5-10,10s4.5,10,10,10h121.2c5.5,0,10-4.5,10-10S439,198.853,433.5,198.853z"/>
	</g>
</g>
<g>
	<g>
		<path d="M433.5,261.853H312.3c-5.5,0-10,4.5-10,10s4.5,10,10,10h121.2c5.5,0,10-4.5,10-10S439,261.853,433.5,261.853z"/>
	</g>
</g>
<g>
	<g>
		<path d="M433.5,323.853H312.3c-5.5,0-10,4.5-10,10s4.5,10,10,10h121.2c5.5,0,10-4.5,10-10S439,323.853,433.5,323.853z"/>
	</g>
</g>
<g>
	<g>
		<path d="M214.9,311.853H206v-128.5c0-5.5-4.5-10-10-10c-2.9,0-5.7,1.3-7.6,3.4l-14.8,17.1l-7.2-3.9c-4.5-2.4-10.1-1-13,3.2
			l-10.4,15.3l-10.3-2.5c-3.7-0.9-7.6,0.4-10.1,3.3l-8.5,10.2l-10.2-9.5c-3.1-2.9-7.6-3.5-11.3-1.6l-7.7,3.8l-13.1-11.5
			c-2-1.8-4.7-2.7-7.4-2.5c-1.9,0.2-3.8,0.9-5.3,2.1v-22.2c0-5.5-4.5-10-10-10s-10,4.5-10,10v143.8c0,5.6,4.5,10.1,10.1,10.1h165.9
			c5.5,0,10-4.5,10-10S220.5,311.853,214.9,311.853z M122.6,240.353l11.3-13.5l6.6,1.6c-1.5,0.6-2.9,1.6-3.9,2.8l-12,14.2l-5.8-2.4
			C120.3,242.453,121.6,241.553,122.6,240.353z M123.7,266.753c4,1.7,8.7,0.5,11.5-2.8l11.1-13.2l10.1,6.2c4.2,2.6,9.7,1.7,12.9-2.1
			l12.8-15.3l3.8-0.5v14.7l-4.8-1.7c-4.5-1.6-9.5,0.1-12,4.2l-9.9,16.3l-8-5.3c-4.3-2.9-10.1-2-13.3,2.1l-10,12.4l-8.7-7
			c-3.5-2.8-8.4-3-12.1-0.4l-10.1,7.2l-8.5-5.4c0.3,0,0.5,0.1,0.8,0.1c2.5,0,5-1,6.8-2.7l13.3-12.7L123.7,266.753z M59,231.253
			l7.3-8.9l10.4,9.2c3.1,2.7,7.4,3.3,11.1,1.4l7.5-3.7l10.7,10c-2.1,0.3-4,1.2-5.5,2.6l-8.7,8.2l-4.8-8.2c-2.8-4.8-8.9-6.4-13.7-3.6
			c-0.4,0.2-0.7,0.4-1,0.7l-8.6,6.6l-4.7-2.8V231.253z M59,265.953l0.2,0.1c3.5,2.1,8,1.9,11.2-0.6l5-3.8l5.4,9.2
			c0.1,0.2,0.3,0.4,0.4,0.6c-3.4-1-7.1-0.1-9.7,2.4l-11,10.5l-1.5-0.4V265.953z M186.1,311.853H59v-7.1l1.3,0.4
			c3.4,1,7.2,0.1,9.8-2.4l9.5-9l12.4,8c3.4,2.2,7.8,2.1,11.2-0.3l9.4-6.7l10.6,8.6c4.3,3.5,10.6,2.8,14.1-1.5l10.6-13.1l9.1,6
			c4.6,3.1,10.8,1.8,13.9-2.8c0.1-0.1,0.1-0.2,0.2-0.3l11.1-18.2l3.9,1.4V311.853z M186.1,218.653l-10.3,1.4
			c-2.5,0.3-4.7,1.6-6.3,3.5l-9.8,11.7l-9.6-5.9c2.1-0.5,4.1-1.9,5.5-3.9l9.3-13.6l6.4,3.4c4.1,2.2,9.2,1.3,12.3-2.3l2.5-2.9
			V218.653z"/>
	</g>
</g>
<g>
</g>
<g>
</g>
<g>
</g>
<g>
</g>
<g>
</g>
<g>
</g>
<g>
</g>
<g>
</g>
<g>
</g>
<g>
</g>
<g>
</g>
<g>
</g>
<g>
</g>
<g>
</g>
<g>
</g>
</svg>
