<?xml version="1.0" encoding="iso-8859-1"?>
<!-- Generator: Adobe Illustrator 19.0.0, SVG Export Plug-In . SVG Version: 6.00 Build 0)  -->
<svg version="1.1" id="Capa_1" xmlns="http://www.w3.org/2000/svg" xmlns:xlink="http://www.w3.org/1999/xlink" x="0px" y="0px"
	 viewBox="0 0 500 500" style="enable-background:new 0 0 500 500;" xml:space="preserve">
<g>
	<g>
		<path d="M450.2,50.853c-0.1,0-0.1,0-0.2,0H319.9c-5.8-0.1-11.6,0.9-17.1,2.9l-42.6,15.4c-6.6,2.4-13.9,2.4-20.5,0l-42.6-15.3
			c-5.5-2-11.3-2.9-17.1-2.9H50c-27.5-0.2-49.9,22-50,49.4v0.1v278.4c0,27.6,22.4,50,50,50h130.1c3.5,0,7,0.6,10.3,1.8l42.6,15.5
			c11,4,23.1,4,34.2,0l42.6-15.5c3.3-1.2,6.8-1.8,10.3-1.8H450c27.6,0,49.9-22.4,50-50v-278.3C500,73.053,477.7,50.853,450.2,50.853
			z M240,427.353c-0.1,0-0.2-0.1-0.3-0.1l-42.5-15.4c-5.5-2-11.3-3-17.1-3H50c-16.5,0-30-13.4-30-30v-278.3
			c0-16.4,13.4-29.7,29.8-29.7c0.1,0,0.1,0,0.2,0h130.1c3.5-0.1,7,0.5,10.3,1.6l42.5,15.4c2.3,0.8,4.7,1.4,7.1,1.9V427.353z
			 M480,100.653v278.2c0,16.5-13.4,30-30,30H319.9c-5.8,0-11.6,1-17.1,3l-42.6,15.5c-0.1,0-0.2,0.1-0.3,0.1v-337.6
			c2.4-0.5,4.8-1.2,7.1-2l42.6-15.3c3.3-1.1,6.8-1.7,10.3-1.6H450c16.4-0.1,29.8,13.1,30,29.5C480,100.553,480,100.553,480,100.653z
			"/>
	</g>
</g>
<g>
	<g>
		<path d="M363.5,135.853h-51.2c-5.5,0-10,4.5-10,10s4.5,10,10,10h51.2c5.5,0,10-4.5,10-10S369,135.853,363.5,135.853z"/>
	</g>
</g>
<g>
	<g>
		<path d="M433.5,198.853H312.3c-5.5,0-10,4.5-10,10s4.5,10,10,10h121.2c5.5,0,10-4.5,10-10S439,198.853,433.5,198.853z"/>
	</g>
</g>
<g>
	<g>
		<path d="M433.5,261.853H312.3c-5.5,0-10,4.5-10,10s4.5,10,10,10h121.2c5.5,0,10-4.5,10-10S439,261.853,433.5,261.853z"/>
	</g>
</g>
<g>
	<g>
		<path d="M433.5,323.853H312.3c-5.5,0-10,4.5-10,10s4.5,10,10,10h121.2c5.5,0,10-4.5,10-10S439,323.853,433.5,323.853z"/>
	</g>
</g>
<g>
	<g>
		<path d="M233.9,239.853c-1.9-20.7-10-40.3-23.3-56.4c-1.4-1.8-3.5-2.9-5.8-3c-2.3-0.1-4.5,0.7-6,2.3l-36,36.1
			c-2.7,2.7-3.1,6.9-1,10c2.6,4.3,4.4,8.9,5.5,13.8c0.9,3.6,4.1,6.2,7.8,6.2H226c4.4,0,8-3.5,8-7.9c0-0.2,0-0.3,0-0.5
			c0-0.1,0-0.1,0-0.2C234,240.153,234,239.953,233.9,239.853z M181.1,232.953v-0.1c-0.8-2.4-1.7-4.7-2.8-6.9l25.2-25.3
			c6.5,9.8,11,20.7,13.2,32.3H181.1z"/>
	</g>
</g>
<g>
	<g>
		<path d="M233.9,239.653L233.9,239.653C233.9,239.753,233.9,239.753,233.9,239.653C233.9,239.753,233.9,239.753,233.9,239.653z"/>
	</g>
</g>
<g>
	<g>
		<path d="M234,240.253C234,240.253,234,240.153,234,240.253L234,240.253L234,240.253z"/>
	</g>
</g>
<g>
	<g>
		<path d="M233.9,239.853c0,0,0,0.2,0,0.3C234,240.053,234,239.953,233.9,239.853z"/>
	</g>
</g>
<g>
	<g>
		<path d="M196.3,168.653c-16.1-13.1-35.6-21.2-56.2-23.3c-1,0-0.8,0-1.2,0h-0.3c-0.1,0-0.3,0-0.4,0c-4.4,0-8,3.6-8,8v50.9
			c-0.2,4.3,3.2,7.9,7.5,8c4.6,1,9.1,2.8,13.1,5.3c1.3,0.9,2.8,1.3,4.4,1.3c2.1,0,4.2-0.8,5.7-2.4l35.8-36c1.6-1.6,2.5-3.8,2.4-6
			C199,172.253,198,170.153,196.3,168.653z M138.5,145.453c0.4,0,0.7,0,1,0.1C139.2,145.453,138.8,145.453,138.5,145.453z
			 M153.7,200.953c-2.5-1.2-5.1-2.2-7.8-3v-35.4h0.1c11.7,2.2,22.8,6.7,32.7,13.3L153.7,200.953z"/>
	</g>
</g>
<g>
	<g>
		<path d="M118,145.553c-0.3,0-0.5,0-0.8,0c-48.9,4.8-86.5,43.6-91.4,94.4c-0.4,4.4,2.8,8.3,7.2,8.7c0.3,0.2,0.5,0.2,0.8,0.2h50.9
			c3.8,0,7-2.6,7.8-6.3c3.2-14.5,14.7-27.3,27.3-30.3c3.6-0.9,6.2-4.1,6.2-7.8v-50.9C126,149.153,122.4,145.553,118,145.553z
			 M110,198.753c-14.1,5.7-26,18.6-31.4,34.2H43c6.8-35.8,32.9-63.1,67-70V198.753z"/>
	</g>
</g>
<g>
	<g>
		<path d="M122,286.853c-0.1,0-0.1,0-0.2,0c-14.8-3.1-26.3-14.7-29.4-29.5c-0.8-3.7-4-6.4-7.8-6.4l-51,0.1c-4.5,0-8,3.7-8,8.2
			c0,0.2,0,0.4,0,0.7c4.9,49.5,44,88.7,93.4,93.8c0.3,0,0.5,0,0.8,0c4.4,0,8-3.5,8-7.9c0,0,0.1-12.7,0.2-25.5
			c0-6.4,0.1-12.7,0.1-17.5c0-2.4,0-4.4,0-5.8v-1.7C128.2,288.653,123.1,287.053,122,286.853z M111.9,336.353
			c-34.9-7.1-62.1-34.4-69.1-69.3l35.7-0.1c5.4,15.9,17.8,28.3,33.7,33.7C112.2,308.653,112.1,323.353,111.9,336.353z"/>
	</g>
</g>
<g>
	<g>
		<path d="M226.7,252.953c-0.2-0.1-0.5-0.1-0.7-0.1h-51c-3.7,0-7,2.6-7.8,6.3c-3.1,14.1-15,25.6-29.5,28.6c-3.7,0.8-6.4,4-6.4,7.8
			l-0.2,50.9c0,4.4,3.5,8,8,8c0.3,0,0.6,0,0.9,0h0.1c23.9-2.3,46.4-12.7,63.6-29.5c17.2-16.9,27.9-39.3,30.2-63.3
			C234.3,257.253,231.1,253.353,226.7,252.953z M162.7,332.653l-15.6-15.6l0.1-15.4c2.7-0.9,5.3-2,7.8-3.4l25.2,25.2
			C174.7,327.153,168.9,330.253,162.7,332.653z M192.7,313.353l-24.6-24.6c4.6-4.5,8.3-9.8,11.1-15.6l25.4,25.4
			C201.2,303.953,197.2,308.853,192.7,313.353z M212.3,283.653l-14.8-14.8h19.2C215.6,273.953,214.2,278.853,212.3,283.653z"/>
	</g>
</g>
<g>
</g>
<g>
</g>
<g>
</g>
<g>
</g>
<g>
</g>
<g>
</g>
<g>
</g>
<g>
</g>
<g>
</g>
<g>
</g>
<g>
</g>
<g>
</g>
<g>
</g>
<g>
</g>
<g>
</g>
</svg>
