<?xml version="1.0" encoding="iso-8859-1"?>
<!-- Generator: Adobe Illustrator 19.0.0, SVG Export Plug-In . SVG Version: 6.00 Build 0)  -->
<svg version="1.1" id="Capa_1" xmlns="http://www.w3.org/2000/svg" xmlns:xlink="http://www.w3.org/1999/xlink" x="0px" y="0px"
	 viewBox="0 0 500 500" style="enable-background:new 0 0 500 500;" xml:space="preserve">
<g>
	<g>
		<path d="M450.2,50.853c-0.1,0-0.1,0-0.2,0H319.9c-5.8-0.1-11.6,0.9-17.1,2.9l-42.6,15.4c-6.6,2.4-13.9,2.4-20.5,0l-42.6-15.3
			c-5.5-2-11.3-2.9-17.1-2.9H50c-27.5-0.2-49.9,22-50,49.4v0.1v278.4c0,27.6,22.4,50,50,50h130.1c3.5,0,7,0.6,10.3,1.8l42.6,15.5
			c11,4,23.1,4,34.2,0l42.6-15.5c3.3-1.2,6.8-1.8,10.3-1.8H450c27.6,0,49.9-22.4,50-50v-278.3C500,73.053,477.7,50.853,450.2,50.853
			z M240,427.353c-0.1,0-0.2-0.1-0.3-0.1l-42.5-15.4c-5.5-2-11.3-3-17.1-3H50c-16.5,0-30-13.4-30-30v-278.3
			c0-16.4,13.4-29.7,29.8-29.7c0.1,0,0.1,0,0.2,0h130.1c3.5-0.1,7,0.5,10.3,1.6l42.5,15.4c2.3,0.8,4.7,1.4,7.1,1.9V427.353z
			 M480,100.653v278.2c0,16.5-13.4,30-30,30H319.9c-5.8,0-11.6,1-17.1,3l-42.6,15.5c-0.1,0-0.2,0.1-0.3,0.1v-337.6
			c2.4-0.5,4.8-1.2,7.1-2l42.6-15.3c3.3-1.1,6.8-1.7,10.3-1.6H450c16.4-0.1,29.8,13.1,30,29.5C480,100.553,480,100.553,480,100.653z
			"/>
	</g>
</g>
<g>
	<g>
		<path d="M363.5,135.853h-51.2c-5.5,0-10,4.5-10,10s4.5,10,10,10h51.2c5.5,0,10-4.5,10-10S369,135.853,363.5,135.853z"/>
	</g>
</g>
<g>
	<g>
		<path d="M433.5,198.853H312.3c-5.5,0-10,4.5-10,10s4.5,10,10,10h121.2c5.5,0,10-4.5,10-10S439,198.853,433.5,198.853z"/>
	</g>
</g>
<g>
	<g>
		<path d="M433.5,261.853H312.3c-5.5,0-10,4.5-10,10s4.5,10,10,10h121.2c5.5,0,10-4.5,10-10S439,261.853,433.5,261.853z"/>
	</g>
</g>
<g>
	<g>
		<path d="M433.5,323.853H312.3c-5.5,0-10,4.5-10,10s4.5,10,10,10h121.2c5.5,0,10-4.5,10-10S439,323.853,433.5,323.853z"/>
	</g>
</g>
<g>
	<g>
		<path d="M220.9,165.153c-4.3-2.9-9.2-4.4-14.2-4.5c-13.3,0-24.1,10.8-24.2,24.2c0,0.8,0,1.6,0.1,2.4l-13.8,9.8
			c-11.1-7.5-26.1-4.5-33.5,6.5c-3.5,5.2-4.9,11.7-3.7,17.9l-11.9,10c-10.1-8.7-25.3-7.6-34,2.5c-0.7,0.8-1.3,1.7-1.9,2.5l-8.1-3.3
			c-4-12.8-17.5-19.9-30.3-15.9s-19.9,17.5-15.9,30.3c4,12.8,17.5,19.9,30.3,15.9c5.4-1.7,10-5.1,13.1-9.8l8.1,3.3
			c4,12.7,17.5,19.9,30.2,15.9c9.8-3.1,16.7-12,17-22.3l15-12.6c11.5,6.8,26.3,3,33.1-8.5c2.7-4.6,3.8-10,3.2-15.3l13.5-9.5
			c10.9,7.7,26,5.1,33.7-5.8C234.4,187.953,231.8,172.853,220.9,165.153z M52.7,244.653c-2.3,0-4.2-1.9-4.2-4.2
			c0-2.3,1.9-4.2,4.2-4.2s4.2,1.9,4.2,4.2C56.8,242.753,55,244.653,52.7,244.653z M104,253.953c-2.3,0-4.2-1.9-4.2-4.2
			c0-2.3,1.9-4.2,4.2-4.2s4.2,1.9,4.2,4.2C108.2,252.053,106.3,253.953,104,253.953z M155.4,221.253c-2.3,0-4.2-1.9-4.2-4.2
			c0-2.3,1.9-4.2,4.2-4.2c2.3,0,4.2,1.9,4.2,4.2C159.5,219.453,157.7,221.253,155.4,221.253z M206.7,189.053c-2.3,0-4.2-1.9-4.2-4.2
			s1.9-4.2,4.2-4.2s4.2,1.9,4.2,4.2S209,189.053,206.7,189.053z"/>
	</g>
</g>
<g>
	<g>
		<path d="M219,212.853h-25c-5.5,0-10,4.5-10,10v106c0,5.5,4.5,10,10,10h25c5.5,0,10-4.5,10-10v-106
			C229,217.353,224.5,212.853,219,212.853z M209,318.853h-5v-86h5V318.853z"/>
	</g>
</g>
<g>
	<g>
		<path d="M168,244.853h-25c-5.5,0-10,4.5-10,10v74c0,5.5,4.5,10,10,10h25c5.5,0,10-4.5,10-10v-74
			C178,249.353,173.5,244.853,168,244.853z M158,318.853h-5v-54h5V318.853z"/>
	</g>
</g>
<g>
	<g>
		<path d="M116,277.853H91c-5.5,0-10,4.5-10,10v41c0,5.5,4.5,10,10,10h25c5.5,0,10-4.5,10-10v-41
			C126,282.353,121.5,277.853,116,277.853z M107,318.853h-6v-21h6V318.853z"/>
	</g>
</g>
<g>
	<g>
		<path d="M65,268.853H40c-5.5,0-10,4.5-10,10v50c0,5.5,4.5,10,10,10h25c5.5,0,10-4.5,10-10v-50C75,273.353,70.5,268.853,65,268.853
			z M55,318.853h-5v-30h5V318.853z"/>
	</g>
</g>
<g>
</g>
<g>
</g>
<g>
</g>
<g>
</g>
<g>
</g>
<g>
</g>
<g>
</g>
<g>
</g>
<g>
</g>
<g>
</g>
<g>
</g>
<g>
</g>
<g>
</g>
<g>
</g>
<g>
</g>
</svg>
