<?xml version="1.0" encoding="iso-8859-1"?>
<!-- Generator: Adobe Illustrator 19.0.0, SVG Export Plug-In . SVG Version: 6.00 Build 0)  -->
<svg version="1.1" id="Capa_1" xmlns="http://www.w3.org/2000/svg" xmlns:xlink="http://www.w3.org/1999/xlink" x="0px" y="0px"
	 viewBox="0 0 480.3 480.3" style="enable-background:new 0 0 480.3 480.3;" xml:space="preserve">
<g>
	<g>
		<path d="M414.1,92H66.3c-27.6-0.1-50,22.2-50.1,49.7v235.7c0,27.6,22.5,49.6,50.1,49.6h46.4L80,463.5c-3.7,4.1-3.4,10.5,0.7,14.2
			c1.8,1.7,4.2,2.6,6.7,2.6c2.9-0.1,5.6-1.3,7.4-3.5l44.8-49.9H342l43.4,49.3c1.9,2.2,4.6,3.5,7.5,3.5c2.4,0,4.8-0.8,6.6-2.4
			c4.1-3.7,4.5-10.1,0.9-14.3l-31.7-36H414c27.6,0,50.1-22,50.1-49.5V141.7C464.1,114.2,441.7,91.9,414.1,92z M444.2,378
			c0,16.6-13.4,30-30,30h-348c-16.6,0-30-13.4-30-30V142c0-16.6,13.4-30,30-30h348c16.6,0,30,13.4,30,30V378z"/>
	</g>
</g>
<g>
	<g>
		<path d="M383,46H97.4c-5.5,0-10,4.5-10,10s4.5,10,10,10H383c5.5,0,10-4.5,10-10S388.5,46,383,46z"/>
	</g>
</g>
<g>
	<g>
		<path d="M301.1,0H179.3c-5.5,0-10,4.5-10,10s4.5,10,10,10h121.8c5.5,0,10-4.5,10-10S306.6,0,301.1,0z"/>
	</g>
</g>
<g>
	<g>
		<path d="M324.1,333H148.2V197.1c0-5.5-4.5-10-10-10s-10,4.5-10,10v136.6c0,10.6,8.2,19.4,18.9,19.4h177.1c5.5,0,10-4.5,10-10
			S329.7,333,324.1,333z"/>
	</g>
</g>
<g>
	<g>
		<path d="M334.6,209.1c-2.5-0.6-5-0.9-7.4-0.9c-14,0-25.4,11.4-25.5,25.4c0,4,1,8,2.8,11.6l-13.4,14.6c-8.7-6.5-20.6-6.7-29.6-0.5
			l-11.4-9.4c-1.3-14-13.7-24.3-27.7-22.9c-14,1.3-24.3,13.7-22.9,27.7c0.1,0.6,0.1,1.1,0.2,1.7l-14.4,18
			c-13.5-3.9-27.6,3.9-31.5,17.4c-3.9,13.5,3.9,27.6,17.4,31.5c13.5,3.9,27.6-3.9,31.5-17.4c1.8-6.3,1.1-13.1-1.9-18.9l10.5-13.2
			c10.2,6.4,23.4,4.8,31.8-3.9l7.8,6.4c-2.1,13.9,7.4,26.9,21.3,29c13.9,2.1,26.9-7.4,29-21.3c0.2-1.3,0.3-2.6,0.3-3.9
			c0-0.7,0-1.3-0.1-2l18.6-20.2c13.5,4,27.6-3.7,31.7-17.1C355.7,227.3,348,213.2,334.6,209.1z M178.2,304.2c-3,0-5.5-2.4-5.5-5.5
			c0-3,2.4-5.5,5.5-5.5c3,0,5.5,2.4,5.5,5.5C183.7,301.8,181.2,304.2,178.2,304.2z M224.8,257.7c-3,0-5.5-2.4-5.5-5.5
			c0-3,2.4-5.5,5.5-5.5c3,0,5.5,2.4,5.5,5.5C230.2,255.2,227.8,257.7,224.8,257.7z M276,285.6c-3,0-5.5-2.4-5.5-5.5
			c0-3.1,2.4-5.5,5.5-5.5c3,0,5.5,2.4,5.5,5.5C281.4,283.2,279,285.6,276,285.6z M327.2,239.1c-3,0-5.5-2.4-5.5-5.5
			c0-3.1,2.4-5.5,5.5-5.5c3,0,5.5,2.4,5.5,5.5C332.6,236.6,330.2,239.1,327.2,239.1z"/>
	</g>
</g>
<g>
</g>
<g>
</g>
<g>
</g>
<g>
</g>
<g>
</g>
<g>
</g>
<g>
</g>
<g>
</g>
<g>
</g>
<g>
</g>
<g>
</g>
<g>
</g>
<g>
</g>
<g>
</g>
<g>
</g>
</svg>
