<?xml version="1.0" encoding="iso-8859-1"?>
<!-- Generator: Adobe Illustrator 19.0.0, SVG Export Plug-In . SVG Version: 6.00 Build 0)  -->
<svg version="1.1" id="Capa_1" xmlns="http://www.w3.org/2000/svg" xmlns:xlink="http://www.w3.org/1999/xlink" x="0px" y="0px"
	 viewBox="0 0 480.3 480.3" style="enable-background:new 0 0 480.3 480.3;" xml:space="preserve">
<g>
	<g>
		<path d="M414.1,92H66.3c-27.6-0.1-50,22.2-50.1,49.7v235.7c0,27.6,22.5,49.6,50.1,49.6h46.4L80,463.5c-3.7,4.1-3.4,10.5,0.7,14.2
			c1.8,1.7,4.2,2.6,6.7,2.6c2.9-0.1,5.5-1.3,7.4-3.5l44.8-49.9H342l43.4,49.3c1.9,2.2,4.6,3.5,7.5,3.5c2.4,0,4.8-0.8,6.6-2.4
			c4.1-3.7,4.5-10.1,0.9-14.3l-31.7-36H414c27.6,0,50.1-22,50.1-49.5V141.7C464.1,114.2,441.7,91.9,414.1,92z M444.2,378
			c0,16.6-13.4,30-30,30h-348c-16.6,0-30-13.4-30-30V142c0-16.6,13.4-30,30-30h348c16.6,0,30,13.4,30,30V378z"/>
	</g>
</g>
<g>
	<g>
		<path d="M382.9,46H97.4c-5.5,0-10,4.5-10,10s4.5,10,10,10h285.5c5.5,0,10-4.5,10-10S388.4,46,382.9,46z"/>
	</g>
</g>
<g>
	<g>
		<path d="M301.1,0H179.3c-5.5,0-10,4.5-10,10s4.5,10,10,10h121.8c5.5,0,10-4.5,10-10S306.6,0,301.1,0z"/>
	</g>
</g>
<g>
	<g>
		<path d="M309.8,266h-75.6v-75.9c0-5.5-4.4-10-9.9-10c0,0,0,0-0.1,0c-25.4-0.1-49.7,10-67.6,28c-37.3,37.3-37.3,97.8,0.1,135.1
			s97.8,37.3,135.1-0.1c17.9-17.9,27.9-42.1,27.9-67.3C319.7,270.4,315.3,266,309.8,266z M277.7,329.2
			c-29.6,29.4-77.5,29.3-106.9-0.4c-14-14.1-21.9-33.3-22-53.2c-0.1-37.8,27.8-69.8,65.3-74.9v74.8c0,5.6,4.5,10.2,10.1,10.4H299
			C296.9,302.3,289.3,317.5,277.7,329.2z"/>
	</g>
</g>
<g>
	<g>
		<path d="M323.7,176.9c-0.1-0.1-0.1,0-0.2-0.1C305.6,159,281.4,149,256.1,149c-5.5,0-9.9,4.5-9.9,9.9c0,0,0,0,0,0.1v85.5
			c0,5.3,4.2,9.6,9.5,9.6c0.1,0,0.3,0,0.4,0h85.5c5.4,0.1,9.9-4.2,10-9.7v-0.1C351.6,219,341.6,194.8,323.7,176.9z M266.2,169.7
			c3.5,0.5,7,1.2,10.5,2.1l-10.5,10.5V169.7z M266.2,210.6l30-30c1.9,1.2,3.8,2.5,5.6,3.8L266.2,220V210.6z M280,234l35.9-35.7
			c1.4,1.8,2.7,3.6,3.9,5.5L289.4,234H280z M317.7,234l10.9-10.9c1,3.6,1.7,7.2,2.3,10.9H317.7z"/>
	</g>
</g>
<g>
</g>
<g>
</g>
<g>
</g>
<g>
</g>
<g>
</g>
<g>
</g>
<g>
</g>
<g>
</g>
<g>
</g>
<g>
</g>
<g>
</g>
<g>
</g>
<g>
</g>
<g>
</g>
<g>
</g>
</svg>
