<?xml version="1.0" encoding="iso-8859-1"?>
<!-- Generator: Adobe Illustrator 19.0.0, SVG Export Plug-In . SVG Version: 6.00 Build 0)  -->
<svg version="1.1" id="Capa_1" xmlns="http://www.w3.org/2000/svg" xmlns:xlink="http://www.w3.org/1999/xlink" x="0px" y="0px"
	 viewBox="0 0 480.3 480.3" style="enable-background:new 0 0 480.3 480.3;" xml:space="preserve">
<g>
	<g>
		<path d="M414.1,92H66.3c-27.6-0.1-50,22.2-50.1,49.7v235.7c0,27.6,22.5,49.6,50.1,49.6h46.4L80,463.5c-3.7,4.1-3.4,10.5,0.7,14.2
			c1.8,1.7,4.2,2.6,6.7,2.6c2.9-0.1,5.5-1.3,7.4-3.5l44.8-49.9H342l43.4,49.3c1.9,2.2,4.6,3.5,7.5,3.5c2.4,0,4.8-0.8,6.6-2.4
			c4.1-3.7,4.5-10.1,0.9-14.3l-31.7-36H414c27.6,0,50.1-22,50.1-49.5V141.7C464.1,114.2,441.7,91.9,414.1,92z M444.2,378
			c0,16.6-13.4,30-30,30h-348c-16.6,0-30-13.4-30-30V142c0-16.6,13.4-30,30-30h348c16.6,0,30,13.4,30,30V378z"/>
	</g>
</g>
<g>
	<g>
		<path d="M382.9,46H97.4c-5.5,0-10,4.5-10,10s4.5,10,10,10h285.5c5.5,0,10-4.5,10-10S388.4,46,382.9,46z"/>
	</g>
</g>
<g>
	<g>
		<path d="M301.1,0H179.3c-5.5,0-10,4.5-10,10s4.5,10,10,10h121.8c5.5,0,10-4.5,10-10S306.6,0,301.1,0z"/>
	</g>
</g>
<g>
	<g>
		<path d="M285.2,182h-32.6c-5.6,0-10.2,4.5-10.4,10.1v160.4c0.2,5.7,4.7,10.3,10.4,10.4h32.6c5.5,0,10-4.9,10-10.4V192.1
			C295.2,186.6,290.7,182.1,285.2,182z M275.2,343h-13v-36h13V343z M275.2,287h-13v-85h13V287z"/>
	</g>
</g>
<g>
	<g>
		<path d="M343.8,157h-33.2c-5.7,0.2-10.3,4.8-10.4,10.4v185.1c0.2,5.7,4.7,10.3,10.4,10.5h33.2c5.7-0.2,10.3-4.8,10.4-10.4V167.5
			C354,161.8,349.5,157.2,343.8,157z M334.2,343h-14v-36h14V343z M334.2,287h-14V177h14V287z"/>
	</g>
</g>
<g>
	<g>
		<path d="M227.3,207c-0.1,0-0.1,0-0.1,0h-32.6c-5.5,0-10.4,4.3-10.4,9.8v135.7c0.2,5.7,4.7,10.3,10.4,10.4h32.6
			c5.5,0,10-4.9,10-10.4V216.8C237.2,211.4,232.7,207,227.3,207z M217.2,343h-13v-36h13V343z M217.2,287h-13v-60h13V287z"/>
	</g>
</g>
<g>
	<g>
		<path d="M169.2,250h-32.6c-5.5,0-10.4,4.5-10.4,10v92.6c0.2,5.7,4.7,10.3,10.4,10.4h32.6c5.5,0,10-4.9,10-10.4V260
			C179.2,254.5,174.7,250,169.2,250z M159.2,343h-13v-36h13V343z M159.2,287h-13v-17h13V287z"/>
	</g>
</g>
<g>
</g>
<g>
</g>
<g>
</g>
<g>
</g>
<g>
</g>
<g>
</g>
<g>
</g>
<g>
</g>
<g>
</g>
<g>
</g>
<g>
</g>
<g>
</g>
<g>
</g>
<g>
</g>
<g>
</g>
</svg>
