<?xml version="1.0" encoding="iso-8859-1"?>
<!-- Generator: Adobe Illustrator 19.0.0, SVG Export Plug-In . SVG Version: 6.00 Build 0)  -->
<svg version="1.1" id="Capa_1" xmlns="http://www.w3.org/2000/svg" xmlns:xlink="http://www.w3.org/1999/xlink" x="0px" y="0px"
	 viewBox="0 0 480.3 480.3" style="enable-background:new 0 0 480.3 480.3;" xml:space="preserve">
<g>
	<g>
		<path d="M414.1,92H66.3c-27.6-0.1-50,22.2-50.1,49.7v235.7c0,27.6,22.5,49.6,50.1,49.6h46.4L80,463.5c-3.7,4.1-3.4,10.5,0.7,14.2
			c1.8,1.7,4.2,2.6,6.7,2.6c2.9-0.1,5.6-1.3,7.4-3.5l44.8-49.9H342l43.4,49.3c1.9,2.2,4.6,3.5,7.5,3.5c2.4,0,4.8-0.8,6.6-2.4
			c4.1-3.7,4.5-10.1,0.9-14.3l-31.7-36H414c27.6,0,50.1-22,50.1-49.5V141.7C464.1,114.2,441.7,91.9,414.1,92z M444.2,378
			c0,16.6-13.4,30-30,30h-348c-16.6,0-30-13.4-30-30V142c0-16.6,13.4-30,30-30h348c16.6,0,30,13.4,30,30V378z"/>
	</g>
</g>
<g>
	<g>
		<path d="M383,46H97.4c-5.5,0-10,4.5-10,10s4.5,10,10,10H383c5.5,0,10-4.5,10-10S388.5,46,383,46z"/>
	</g>
</g>
<g>
	<g>
		<path d="M301.1,0H179.3c-5.5,0-10,4.5-10,10s4.5,10,10,10h121.8c5.5,0,10-4.5,10-10S306.6,0,301.1,0z"/>
	</g>
</g>
<g>
	<g>
		<path d="M352.7,249.5c-2.4-22.1-11.1-42.8-25.2-59.8c-3.2-3.8-8.8-4.4-12.7-1.2c-0.2,0.2-0.4,0.4-0.6,0.6l-38.8,38.6
			c-3,3-3.5,7.7-1.2,11.3c2.7,4.4,4.7,9.2,6,14.3c1,4,4.6,6.8,8.7,6.8h53.7c0.3,0,0.7,0,1,0h0.1c4,0,7.5-2.6,8.7-6.5
			c0.2-0.8,0.4-1.7,0.4-2.5C352.8,250.6,352.8,250,352.7,249.5z M295.5,242c-0.7-2-1.6-4.2-2.6-6.4l26.6-26.5
			c6.6,10,11.3,21.2,13.7,32.9H295.5z"/>
	</g>
</g>
<g>
	<g>
		<path d="M312.7,174.9c-0.2-0.2-0.4-0.4-0.6-0.6c-17.2-14.2-38.2-23-60.4-25.1c-4.9-0.7-9.5,2.7-10.2,7.6c-0.1,0.4-0.1,0.9-0.1,1.3
			V213c-0.2,4.2,2.9,7.9,7.2,8.7c4.9,1,9.6,3,13.9,5.8c3.6,2.3,8.3,1.9,11.3-1.1l38.9-38.8C316.2,184.1,316.2,178.4,312.7,174.9z
			 M265.9,208.8c-2.2-1.1-4.4-2-6.7-2.8v-37.6c11.9,2.4,23.2,7.1,33.3,13.8L265.9,208.8z"/>
	</g>
</g>
<g>
	<g>
		<path d="M228.3,149.1c-0.3,0-0.6,0-0.9,0c-25.8,2.6-49.8,14.1-68,32.5c-18.1,18.5-29.3,42.6-31.8,68.4c-0.5,4.9,3.1,9.3,8.1,9.8
			c0.2,0.2,0.5,0.2,0.8,0.2h54.9c4.2,0,7.9-2.9,8.8-7.1c3.2-14.4,16.1-27.7,30.2-31.1c4-1,6.9-4.6,6.9-8.8v-54.9
			C237.3,153.1,233.3,149.1,228.3,149.1z M219.2,206.5c-15.4,6.1-28.7,19.8-34.5,35.5h-37.8c3.6-18,12.4-34.5,25.3-47.6
			c12.8-13,29.2-21.9,47-25.7V206.5z"/>
	</g>
</g>
<g>
	<g>
		<path d="M231.7,301.6c-0.1,0-0.1,0-0.2,0c-15.8-3.3-28.1-15.7-31.5-31.5c-0.9-4.2-4.6-7.1-8.8-7.1h-55c-2.5,0-4.9,1-6.7,2.9
			c-1.7,1.9-2.5,4.4-2.3,6.9c5.3,53.6,47.6,96,101.1,101.5c0.3,0,0.6,0,0.9,0c4.9,0,9-4,9-8.9c0,0,0.1-13.7,0.2-27.5
			c0.1-6.9,0.1-13.7,0.1-18.9c0-2.6,0-4.7,0-6.3c0-0.8,0-1.4,0-1.8C238.6,303.6,232.9,301.8,231.7,301.6z M220.4,354.8
			c-37.1-7.8-66-36.8-73.7-73.9l37.7-0.1c5.9,17,19.2,30.4,36.2,36.3C220.6,325.7,220.5,341,220.4,354.8z"/>
	</g>
</g>
<g>
	<g>
		<path d="M344.5,264.1c-0.2-0.1-0.5-0.1-0.8-0.1h-54.9c-4.2,0-7.8,2.9-8.8,7c-3.4,15.1-16.4,27.9-31.6,31c-4.2,0.9-7.2,4.5-7.2,8.8
			l-0.2,54.9c0,5,4,9,9,9c0.3,0,0.6,0,0.9,0h0.2c53.5-5.2,96.2-47.6,101.5-100.8C353.1,269,349.5,264.5,344.5,264.1z M275.3,350.6
			l-16.2-16.2l0.1-16.7c2.6-0.9,5.2-2,7.6-3.3l26.6,26.6C287.7,344.8,281.7,348,275.3,350.6z M307.4,329.4l-25.9-25.9
			c4.7-4.6,8.6-10,11.6-16l26.7,26.7C316.2,319.7,312,324.8,307.4,329.4z M328.5,297.5L313,282h20.2
			C332.1,287.3,330.5,292.5,328.5,297.5z"/>
	</g>
</g>
<g>
</g>
<g>
</g>
<g>
</g>
<g>
</g>
<g>
</g>
<g>
</g>
<g>
</g>
<g>
</g>
<g>
</g>
<g>
</g>
<g>
</g>
<g>
</g>
<g>
</g>
<g>
</g>
<g>
</g>
</svg>
