<?xml version="1.0" encoding="iso-8859-1"?>
<!-- Generator: Adobe Illustrator 19.0.0, SVG Export Plug-In . SVG Version: 6.00 Build 0)  -->
<svg version="1.1" id="Capa_1" xmlns="http://www.w3.org/2000/svg" xmlns:xlink="http://www.w3.org/1999/xlink" x="0px" y="0px"
	 viewBox="0 0 480.3 480.3" style="enable-background:new 0 0 480.3 480.3;" xml:space="preserve">
<g>
	<g>
		<path d="M414.1,92H66.3c-27.6-0.1-50,22.2-50.1,49.7v235.7c0,27.6,22.5,49.6,50.1,49.6h46.4L80,463.5c-3.7,4.1-3.4,10.5,0.7,14.2
			c1.8,1.7,4.2,2.6,6.7,2.6c2.9-0.1,5.6-1.3,7.4-3.5l44.8-49.9H342l43.4,49.3c1.9,2.2,4.6,3.5,7.5,3.5c2.4,0,4.8-0.8,6.6-2.4
			c4.1-3.7,4.5-10.1,0.9-14.3l-31.7-36H414c27.6,0,50.1-22,50.1-49.5V141.7C464.1,114.2,441.7,91.9,414.1,92z M444.2,378
			c0,16.6-13.4,30-30,30h-348c-16.6,0-30-13.4-30-30V142c0-16.6,13.4-30,30-30h348c16.6,0,30,13.4,30,30V378z"/>
	</g>
</g>
<g>
	<g>
		<path d="M383,46H97.4c-5.5,0-10,4.5-10,10s4.5,10,10,10H383c5.5,0,10-4.5,10-10S388.5,46,383,46z"/>
	</g>
</g>
<g>
	<g>
		<path d="M301.1,0H179.3c-5.5,0-10,4.5-10,10s4.5,10,10,10h121.8c5.5,0,10-4.5,10-10S306.6,0,301.1,0z"/>
	</g>
</g>
<g>
	<g>
		<path d="M262.2,227h-45c-5.5,0-10,4.5-10,10v97c0,5.5,4.5,10,10,10h45c5.5,0,10-4.5,10-10v-97C272.2,231.5,267.7,227,262.2,227z
			 M253.2,323h-26v-76h26V323z"/>
	</g>
</g>
<g>
	<g>
		<path d="M339.2,175h-45c-5.5,0-10,4.5-10,10v148c0,5.5,4.5,10,10,10h45c5.5,0,10-4.5,10-10V185C349.2,179.5,344.7,175,339.2,175z
			 M329.2,323h-25V195h25V323z"/>
	</g>
</g>
<g>
	<g>
		<path d="M186.2,262h-45c-5.5,0-10,4.5-10,10v61c0,5.5,4.5,10,10,10h45c5.5,0,10-4.5,10-10v-61C196.2,266.5,191.7,262,186.2,262z
			 M176.2,323h-25v-41h25V323z"/>
	</g>
</g>
<g>
</g>
<g>
</g>
<g>
</g>
<g>
</g>
<g>
</g>
<g>
</g>
<g>
</g>
<g>
</g>
<g>
</g>
<g>
</g>
<g>
</g>
<g>
</g>
<g>
</g>
<g>
</g>
<g>
</g>
</svg>
