<?xml version="1.0" encoding="iso-8859-1"?>
<!-- Generator: Adobe Illustrator 19.0.0, SVG Export Plug-In . SVG Version: 6.00 Build 0)  -->
<svg version="1.1" id="Capa_1" xmlns="http://www.w3.org/2000/svg" xmlns:xlink="http://www.w3.org/1999/xlink" x="0px" y="0px"
	 viewBox="0 0 480.3 480.3" style="enable-background:new 0 0 480.3 480.3;" xml:space="preserve">
<g>
	<g>
		<path d="M414.1,92H66.3c-27.6-0.1-50,22.2-50.1,49.7v235.7c0,27.6,22.5,49.6,50.1,49.6h46.4L80,463.5c-3.7,4.1-3.4,10.5,0.7,14.2
			c1.8,1.7,4.2,2.6,6.7,2.6c2.9-0.1,5.6-1.3,7.4-3.5l44.8-49.9H342l43.4,49.3c1.9,2.2,4.6,3.5,7.5,3.5c2.4,0,4.8-0.8,6.6-2.4
			c4.1-3.7,4.5-10.1,0.9-14.3l-31.7-36H414c27.6,0,50.1-22,50.1-49.5V141.7C464.1,114.2,441.7,91.9,414.1,92z M444.2,378
			c0,16.6-13.4,30-30,30h-348c-16.6,0-30-13.4-30-30V142c0-16.6,13.4-30,30-30h348c16.6,0,30,13.4,30,30V378z"/>
	</g>
</g>
<g>
	<g>
		<path d="M383,46H97.4c-5.5,0-10,4.5-10,10s4.5,10,10,10H383c5.5,0,10-4.5,10-10S388.5,46,383,46z"/>
	</g>
</g>
<g>
	<g>
		<path d="M301.1,0H179.3c-5.5,0-10,4.5-10,10s4.5,10,10,10h121.8c5.5,0,10-4.5,10-10S306.6,0,301.1,0z"/>
	</g>
</g>
<g>
	<g>
		<path d="M340.5,167.7c-4.4-3.2-9.8-5-15.3-5c-14.1,0-25.6,11.4-25.6,25.5c0,1.1,0.1,2.2,0.2,3.2L283.4,203
			c-11.5-8.2-27.5-5.5-35.7,6c-4.1,5.8-5.7,13.1-4.2,20.1l-14.2,12c-10.4-9.6-26.6-8.9-36.2,1.5c-1.1,1.2-2.2,2.6-3,4l-10.2-4.1
			c-3.9-13.6-18.2-21.4-31.8-17.5c-13.6,3.9-21.4,18.2-17.5,31.8c3.9,13.6,18.2,21.4,31.8,17.5c6.1-1.8,11.4-5.8,14.7-11.3l10.2,4.1
			c3.9,13.6,18.2,21.4,31.7,17.4c10.8-3.1,18.3-13,18.5-24.3l17.4-14.7c12,7.5,27.8,3.9,35.3-8c2.6-4.1,3.9-8.8,3.9-13.7
			c0-1.3-0.1-2.5-0.3-3.7l16-11.3c11.3,8.5,27.4,6.2,35.9-5.2C354.2,192.3,351.9,176.2,340.5,167.7z M155.2,255.3
			c-3.1,0-5.6-2.5-5.6-5.6c0-3.1,2.5-5.6,5.6-5.6c3.1,0,5.6,2.5,5.6,5.6C160.9,252.7,158.3,255.2,155.2,255.3z M211.9,265.6
			c-3.1,0-5.6-2.5-5.6-5.6c0-3.1,2.5-5.6,5.6-5.6c3.1,0,5.6,2.5,5.6,5.6C217.5,263,215,265.5,211.9,265.6z M268.5,229.5
			c-3.1,0-5.6-2.5-5.6-5.6c0-3.1,2.5-5.6,5.6-5.6c3.1,0,5.6,2.5,5.6,5.6C274.1,227,271.6,229.5,268.5,229.5z M325.2,193.9
			c-3.1,0-5.6-2.5-5.6-5.6c0-3.1,2.5-5.6,5.6-5.6c3.1,0,5.6,2.5,5.6,5.6C330.8,191.4,328.3,193.9,325.2,193.9z"/>
	</g>
</g>
<g>
	<g>
		<path d="M339.2,220h-28c-5.5,0-10,4.5-10,10v117c0,5.5,4.5,10,10,10h28c5.5,0,10-4.5,10-10V230C349.2,224.5,344.7,220,339.2,220z
			 M329.2,337h-8v-97h8V337z"/>
	</g>
</g>
<g>
	<g>
		<path d="M282.2,256h-28c-5.5,0-10,4.5-10,10v82c0,5.5,4.5,10,10,10h28c5.5,0,10-4.5,10-10v-82C292.2,260.5,287.7,256,282.2,256z
			 M272.2,337h-8v-61h8V337z"/>
	</g>
</g>
<g>
	<g>
		<path d="M226.2,292h-28c-5.5,0-10,4.5-10,10v45c0,5.5,4.5,10,10,10h28c5.5,0,10-4.5,10-10v-45C236.2,296.5,231.7,292,226.2,292z
			 M216.2,337h-8v-25h8V337z"/>
	</g>
</g>
<g>
	<g>
		<path d="M169.2,282h-28c-5.5,0-10,4.5-10,10v55c0,5.5,4.5,10,10,10h28c5.5,0,10-4.5,10-10v-55C179.2,286.5,174.7,282,169.2,282z
			 M159.2,337h-8v-35h8V337z"/>
	</g>
</g>
<g>
</g>
<g>
</g>
<g>
</g>
<g>
</g>
<g>
</g>
<g>
</g>
<g>
</g>
<g>
</g>
<g>
</g>
<g>
</g>
<g>
</g>
<g>
</g>
<g>
</g>
<g>
</g>
<g>
</g>
</svg>
