<?xml version="1.0" encoding="iso-8859-1"?>
<!-- Generator: Adobe Illustrator 19.0.0, SVG Export Plug-In . SVG Version: 6.00 Build 0)  -->
<svg version="1.1" id="Capa_1" xmlns="http://www.w3.org/2000/svg" xmlns:xlink="http://www.w3.org/1999/xlink" x="0px" y="0px"
	 viewBox="0 0 495.915 495.915" style="enable-background:new 0 0 495.915 495.915;" xml:space="preserve">
<g>
	<g>
		<path d="M457.202,86.958c-21.5-10.5-47.4-1.6-57.9,19.9c-7.2,14.7-5.4,32.2,4.5,45.2l-42.5,46.2c-15.2-18.3-42.4-20.8-60.7-5.6
			c-1.2,1-2.3,2-3.4,3.2l-35.9-29.4c0-0.2,0-0.4,0-0.6c0-23.9-19.3-43.2-43.2-43.2c-23.9,0-43.2,19.3-43.2,43.2
			c0,3.9,0.5,7.8,1.6,11.6l-39.8,49.5c-21.5-10.4-47.3-1.4-57.7,20.1c-10.4,21.5-1.4,47.3,20.1,57.7c6,2.9,12.4,4.3,18.9,4.3
			c23.8,0,43.2-19.3,43.2-43.1c0-9.5-3.1-18.8-8.9-26.3l34.9-43.6c16.6,17.1,43.9,17.4,61,0.8c2.8-2.8,5.3-5.9,7.2-9.3l31.4,25.7
			c-7,22.8,5.8,47,28.6,54s47-5.8,54-28.6c2.1-6.8,2.5-13.9,1.1-20.9l48.7-53c21.5,10.5,47.4,1.6,57.9-19.9
			S478.702,97.458,457.202,86.958z M118.002,289.058c-12.8,0-23.2-10.4-23.2-23.2c0-12.8,10.4-23.1,23.2-23.2
			c12.8,0,23.2,10.4,23.2,23.2S130.802,289.058,118.002,289.058z M218.002,189.058c-12.8,0-23.2-10.4-23.2-23.2
			c0-12.8,10.4-23.1,23.2-23.2c12.8,0,23.2,10.4,23.2,23.2C241.202,178.658,230.802,189.058,218.002,189.058z M328.002,249.058
			c-12.8,0-23.2-10.4-23.2-23.2c0-12.8,10.4-23.1,23.2-23.2c12.8,0,23.2,10.4,23.2,23.2
			C351.202,238.658,340.802,249.058,328.002,249.058z M438.002,149.058c-12.8,0-23.2-10.4-23.2-23.2c0-12.8,10.4-23.1,23.2-23.2
			c12.8,0,23.2,10.4,23.2,23.2S450.802,149.058,438.002,149.058z"/>
	</g>
</g>
<g>
	<g>
		<path d="M484.702,345.558l-16.3-1.7c-5.1-8.8-11.7-16.8-19.5-23.4l0.8-6.7c1.1-10,1.4-13.6,1-16.4c-0.9-7.3-6.9-12.3-14.5-12.4
			c-5.5-0.2-13.1,1.6-23.1,5.3c-9-22.6-34.7-33.6-57.3-24.6c-16.8,6.7-27.8,22.9-27.7,40.9c0,0.4,0,0.8,0,1.2
			c-11.7,5.9-22,14.1-30.4,24.2h-237.7v-306.1c0-5.5-5-9.9-10.5-9.9h-40c-5.5,0-9.5,4.4-9.5,9.9v336.3
			c-0.2,16.2,12.8,29.6,29.1,29.7c0.1,0,0.3,0,0.4,0h249.7c1.5,11.6,5.7,22.6,12.2,32.2c-7.5,14.1-5.2,31.4,5.7,43
			c7.5,7.9,17.8,12.4,28.6,12.7c0.1,0,0.2,0,0.3,0h1c10.5,0.1,20.5-3.9,28.1-11.1l2.9-2.7c11.3,2.1,22.9,2.5,34.3,1l1.6,1.6
			c7.9,7.3,18.2,11.4,28.9,11.4c9.5,0,18.8-3.2,26.2-9.2c11.7-9.6,16.4-25.2,12-39.7c2.8-3.5,5.3-7.2,7.5-11.1l16.6-1.8
			c0.2,0,0.5-0.1,0.7-0.1c5.9-1.2,10.1-6.3,10.1-12.3v-47.7C496.202,351.558,491.202,346.058,484.702,345.558z M279.202,371.958
			h-249.7c-5.2,0.1-9.5-4.1-9.5-9.3c0-0.1,0-0.3,0-0.4v-326.3h20v306.3c-0.2,5.2,3.8,9.5,9,9.7c0.2,0,0.3,0,0.5,0h235.8
			C282.402,358.358,280.402,365.058,279.202,371.958z M372.102,282.458c13.2,0.1,23.9,10.7,24.1,23.9c0,7.2-3.2,14.5-8.9,18.5h-30.4
			c-5.6-4-8.9-11.2-8.9-18.5C348.002,293.158,358.802,282.458,372.102,282.458z M476.102,399.058h-0.1l-14.3,1.5
			c-2.6,0.2-5.1,1.5-6.9,3.4c-0.8,0.8-1.4,1.7-1.9,2.8c-2.7,5.7-6.2,10.9-10.5,15.5c-1.2,1.3-2,2.9-2.4,4.6c-0.7,2.6-0.3,5.4,1,7.8
			c3.4,7.1,1.5,15.7-4.6,20.7c-8.2,6.7-20.9,6.1-28.7-1.3l-4.7-4.5c-2.1-2-4.8-3.1-7.7-3c-0.6,0-1.1,0-1.7,0.1
			c-11.9,2-24.1,1.6-35.9-1.1c-0.8-0.2-1.5-0.3-2.3-0.3c-2.9,0-5.7,1.1-7.7,3.1l-6.3,6c-3.9,3.6-9,5.6-14.3,5.6h-0.9
			c-5.6,0-10.9-2.4-14.6-6.5c-5.8-6.1-6.1-15.8-0.6-22.9c0.4-0.5,0.7-1,1-1.6c2-4,1.8-8.6-1-11.8c-7.9-10.1-12.1-22.5-12.1-35.3
			v-3.2c0-6,2.1-12.7,5.3-19.3l3.2-6.4c4.7-7.7,10.9-14.4,18.1-19.8c-0.2,0.7-0.3,1.4-0.3,2c0,5.4,4.4,9.8,9.8,9.8h0.1h73.9
			c5.4,0.1,9.9-4.3,10-9.7c0.1-4.5-2.9-8.4-7.2-9.6c2.3-4.7,3.7-9.9,4.2-15.1c4.7-1.9,9.5-3.6,14.5-4.8c-0.2,2.2-0.5,4.6-0.6,5.9
			l-1.3,11.6c0,0.4-0.1,0.7-0.1,1.1c0,2.9,1.1,5.8,3.2,7.8c0.3,0.3,0.6,0.6,1,0.8c8.6,6.5,15.5,14.8,20.4,24.3
			c0.5,1,1.1,1.8,1.9,2.6c1.7,1.9,4.2,3.2,6.8,3.4l14.3,1.5V399.058z"/>
	</g>
</g>
<g>
</g>
<g>
</g>
<g>
</g>
<g>
</g>
<g>
</g>
<g>
</g>
<g>
</g>
<g>
</g>
<g>
</g>
<g>
</g>
<g>
</g>
<g>
</g>
<g>
</g>
<g>
</g>
<g>
</g>
</svg>
