<?xml version="1.0" encoding="iso-8859-1"?>
<!-- Generator: Adobe Illustrator 19.0.0, SVG Export Plug-In . SVG Version: 6.00 Build 0)  -->
<svg version="1.1" id="Capa_1" xmlns="http://www.w3.org/2000/svg" xmlns:xlink="http://www.w3.org/1999/xlink" x="0px" y="0px"
	 viewBox="0 0 480.4 480.4" style="enable-background:new 0 0 480.4 480.4;" xml:space="preserve">
<g>
	<g>
		<path d="M398.699,56l-0.1-0.1c-36.7-36-84.7-55.9-135.2-55.9c-5.5,0-10,4.5-10,10v181.2c0,5.5,4.5,9.9,10,9.9h181.2
			c5.5,0,10-4.4,10-9.9C454.599,140.7,434.799,92.7,398.699,56z M273.399,20.3c18.6,1,36.8,5.1,54,12.1l-54,54V20.3z M273.399,114.7
			l73.2-73.2c10.8,6,21,13.2,30.3,21.4l-103.5,103.6V114.7z M286.999,181.1L391.099,77c8.2,9.3,15.4,19.4,21.5,30.2l-73.9,73.9
			H286.999z M366.999,181.1l54.8-54.8c7.2,17.5,11.4,36,12.5,54.8H366.999z"/>
	</g>
</g>
<g>
	<g>
		<path d="M464.099,345.8l-16.3-1.7c-5.1-8.8-11.7-16.8-19.5-23.4l0.8-6.7c1.1-10,1.4-13.6,1-16.4c-0.9-7.3-6.9-12.3-14.5-12.4
			c-5.5-0.1-13.1,1.6-23.1,5.3c-1.6-3.9-3.7-7.6-6.3-10.9c0.9-7.4,1.3-14.9,1.3-22.4c0-5.5-4.5-10-10-10.1h-171.1v-171
			c0-5.5-4.6-10-10.1-10c-50.8-0.2-99.6,20-135.4,56c-36,36.7-55.9,84.7-55.9,135.2c0,105.4,85.8,191.2,191.2,191.2
			c24.3,0.1,48.4-4.5,71-13.5c-2.3,11.7,1.2,23.8,9.4,32.5c7.5,7.8,17.8,12.4,28.6,12.7c0.1,0,0.2,0,0.3,0h1
			c10.5,0.1,20.5-3.9,28.1-11.1l2.9-2.7c11.3,2.1,22.9,2.5,34.3,1l1.6,1.6c7.9,7.3,18.2,11.4,28.9,11.4c9.5,0,18.8-3.2,26.2-9.2
			c11.7-9.6,16.4-25.2,12-39.7c2.8-3.5,5.3-7.2,7.5-11.1l16.6-1.8c0.2,0,0.5-0.1,0.7-0.1c5.9-1.2,10.1-6.3,10.1-12.3v-47.7
			C475.499,351.8,470.599,346.3,464.099,345.8z M351.399,282.7c13.2,0.2,23.9,10.9,24.1,24.1c0,7.5-3.5,14.3-9.6,19.3h-29
			c-6-5-9.6-11.6-9.6-19.3C327.299,293.5,338.099,282.7,351.399,282.7z M269.399,343c-0.1,0.2-0.2,0.4-0.3,0.6l-3.5,6.8
			c0,0.1-0.1,0.2-0.1,0.3c-4.5,9.2-7.2,18.4-7.8,27.2c0,0.2-0.2,0.4-0.2,0.6v3.5c0.1,11.1,2.6,22.1,7.4,32.2
			c-21.7,9.5-45.1,14.4-68.7,14.3c-94.5,0-171.2-76.8-171.2-171.2c0-45.3,17.9-88.3,50.2-121.1c29.7-29.7,69.3-47.5,111.2-49.8
			v170.9c-0.1,5.3,4.2,9.7,9.5,9.8c0.1,0,0.2,0,0.3,0h135.7c-15.1,7.4-24.6,22.8-24.5,39.6c0,0.4,0,0.9,0,1.4
			C291.799,316,278.599,328.1,269.399,343z M440.999,400.8c-2.6,0.2-5.1,1.5-6.9,3.4c-0.8,0.8-1.4,1.7-1.9,2.8
			c-2.7,5.7-6.2,10.9-10.5,15.5c-1.2,1.3-2,2.9-2.4,4.6c-0.7,2.6-0.3,5.4,1,7.8c3.4,7.1,1.5,15.7-4.6,20.7
			c-8.2,6.7-20.9,6.1-28.7-1.3l-4.7-4.5c-2.1-2-4.8-3.1-7.7-3c-0.6,0-1.1,0-1.7,0.1c-11.9,2-24.1,1.6-35.9-1.1
			c-0.8-0.2-1.5-0.3-2.3-0.3c-2.9,0-5.7,1.1-7.7,3.1l-6.3,6c-3.9,3.6-9,5.6-14.3,5.5h-0.9c-5.6,0-10.9-2.4-14.6-6.5
			c-5.8-6.1-6.1-15.7-0.6-22.9c0.4-0.5,0.7-1,1-1.6c1.9-3.9,1.4-8.5-1.4-11.8c-8.1-10.5-12.6-22.7-12.6-35.3v-3.2
			c1-6.7,2.9-13.2,5.7-19.3l3.4-6.4c4.8-7.7,11.1-14.5,18.4-20c-1.6,5.4,1.5,11,6.9,12.6c0.9,0.3,1.8,0.4,2.7,0.4h73.7
			c5.5,0,10-4.5,10-10c0-4.6-3.1-8.5-7.5-9.7c2.5-4.9,4-10.2,4.5-15.7c4.7-2,9.5-3.6,14.5-4.8c-0.2,2.2-0.5,4.5-0.6,5.9l-1.3,11.6
			c0,0.4-0.1,0.7-0.1,1.1c0,2.9,1.1,5.8,3.2,7.8c0.3,0.3,0.6,0.6,1,0.8c8.6,6.5,15.5,14.8,20.4,24.3c0.5,1,1.1,1.8,1.9,2.6
			c1.8,1.9,4.2,3.2,6.8,3.4l14.4,1.5v34.4h0.1L440.999,400.8z"/>
	</g>
</g>
<g>
</g>
<g>
</g>
<g>
</g>
<g>
</g>
<g>
</g>
<g>
</g>
<g>
</g>
<g>
</g>
<g>
</g>
<g>
</g>
<g>
</g>
<g>
</g>
<g>
</g>
<g>
</g>
<g>
</g>
</svg>
