<?xml version="1.0" encoding="iso-8859-1"?>
<!-- Generator: Adobe Illustrator 19.0.0, SVG Export Plug-In . SVG Version: 6.00 Build 0)  -->
<svg version="1.1" id="Capa_1" xmlns="http://www.w3.org/2000/svg" xmlns:xlink="http://www.w3.org/1999/xlink" x="0px" y="0px"
	 viewBox="0 0 489.802 489.802" style="enable-background:new 0 0 489.802 489.802;" xml:space="preserve">
<g>
	<g>
		<path d="M179.6,92.752c-0.1,0-0.2,0-0.4,0h-60.7c-5.2-0.1-9.5,4.1-9.6,9.3c0,0.2,0,0.3,0,0.5v253c0,5.5,4,10.2,9.6,10.2h60.7
			c5.5-0.1,9.9-4.7,9.8-10.2v-253C189.1,97.252,184.9,92.852,179.6,92.752z M169,345.752h-40v-84h40V345.752z M169,241.752h-40v-129
			h40V241.752z"/>
	</g>
</g>
<g>
	<g>
		<path d="M71.1,172.752H10.5c-5.7,0.1-10.3,4.6-10.5,10.2v172.5c0.2,5.7,4.8,10.2,10.5,10.2h60.7c5.5-0.1,9.9-4.7,9.9-10.2v-172.5
			C81.1,177.452,76.7,172.852,71.1,172.752z M61,345.752H20v-84h41V345.752z M61,241.752H20v-49h41V241.752z"/>
	</g>
</g>
<g>
	<g>
		<path d="M478.2,354.552l-16.5-1.7c-5.2-8.9-11.8-16.8-19.6-23.4l0.7-6.7c1.1-10,1.4-13.6,1-16.4c-0.9-7.3-6.7-12.3-14.3-12.4
			c-5.4-0.2-13.4,1.5-22.4,5.1v-288.5c0-5.5-4.9-9.8-10.4-9.8h-61.8c-5.3-0.1-9.7,4.1-9.8,9.4c0,0.1,0,0.2,0,0.3v287.4
			c-3,5.4-3.8,11.4-3.8,17.7c0,0.4-0.2,0.9-0.2,1.3c-8.8,4.5-16.9,10.3-24,17.1v-277.4c0.1-5.2-4-9.6-9.3-9.7c-0.1,0-0.3,0-0.4,0
			h-60.7c-5.3-0.1-9.6,4.1-9.7,9.4c0,0.1,0,0.3,0,0.4v299c0,5.5,4.1,10.2,9.7,10.2h49.8c-2.7,6.7-4.3,13.8-4.7,21
			c0,0.2,0.2,0.3,0.2,0.5v3.5c0,15.1,4.4,29.9,12.7,42.5c-7.3,14.1-5.4,31.3,5.6,42.9c7.5,7.8,17.8,12.4,28.6,12.6
			c0.1,0,0.1-0.1,0.2-0.1h1c10.5,0.1,20.5-3.9,28.1-11l2.9-2.7c11.3,2.1,22.9,2.5,34.3,1l1.6,1.6c7.8,7.3,18.2,11.4,28.9,11.4
			c9.5,0,18.8-3.2,26.2-9.2c11.7-9.6,16.4-25.2,12-39.7c2.8-3.5,5.3-7.2,7.5-11.1l16.6-1.8c0.3,0,0.8-0.1,1.1-0.1
			c6-1.1,10.4-6.3,10.5-12.3v-47.7C489.9,360.452,484.8,355.052,478.2,354.552z M277,345.752h-40v-84h40V345.752z M277,241.752h-40
			v-175h40V241.752z M345,20.752h42v221h-42V20.752z M345,261.752h42v15.3c-7-3.6-13.8-5.6-21.5-5.6c-7.1,0-14.2,1.7-20.5,5V261.752
			z M365.1,291.552c13.1,0,24.1,11.2,24.1,24.3c-0.1,7.3-3.3,14.2-8.9,18.9h-30.4v0c-5.6-4.7-8.8-11.7-8.9-19
			C341,302.452,351.8,291.652,365.1,291.552z M470,408.052l-14.8,1.5c-2.7,0.2-5.2,1.4-7.1,3.4c-0.8,0.8-1.5,1.7-2,2.7
			c-2.7,5.7-6.3,10.9-10.5,15.5c-1.2,1.3-2,2.9-2.4,4.6c-0.7,2.6-0.3,5.4,1,7.8c3.4,7.1,1.5,15.7-4.6,20.7
			c-8.2,6.7-20.9,6.1-28.7-1.3l-4.8-4.5c-2.1-2-4.8-3.1-7.7-3c-0.6,0-1.1,0-1.7,0.1c-11.9,2-24.1,1.6-35.9-1.1
			c-0.8-0.2-1.5-0.3-2.3-0.3c-2.9,0-5.7,1.1-7.7,3.1l-6.3,5.9c-3.9,3.6-9,5.6-14.3,5.5h-0.9c-5.6,0-10.8-2.3-14.6-6.4
			c-5.8-6.1-6.1-15.7-0.6-22.8c0.4-0.5,0.7-1,1-1.6c2.1-3.8,1.7-8.4-1-11.8c-7.9-10.1-12.2-22.5-12.2-35.3v-3.2
			c0-6,2.1-12.7,5.3-19.3l3.2-6.4c4.7-7.7,10.9-14.4,18.1-19.8c-0.2,0.8-0.3,1.6-0.3,2.5c0,5.6,4.4,10.1,10,10.3H402
			c5.6-0.1,10.1-4.8,10-10.4c-0.1-4.4-3-8.3-7.2-9.5c2.3-4.8,3.7-9.9,4.2-15.2c4.7-2,9.5-3.6,14.5-4.9c-0.2,2.2-0.5,4.5-0.6,5.8
			l-1.3,11.6c0,0.4-0.1,0.7-0.1,1.1c0,2.9,1.1,5.8,3.2,7.8c0.3,0.3,0.6,0.6,1,0.8c8.6,6.5,15.5,14.8,20.4,24.3
			c0.5,1,1.1,1.8,1.9,2.6c1.9,2,4.5,3.2,7.2,3.4l14.8,1.5V408.052z"/>
	</g>
</g>
<g>
</g>
<g>
</g>
<g>
</g>
<g>
</g>
<g>
</g>
<g>
</g>
<g>
</g>
<g>
</g>
<g>
</g>
<g>
</g>
<g>
</g>
<g>
</g>
<g>
</g>
<g>
</g>
<g>
</g>
</svg>
