<?xml version="1.0" encoding="iso-8859-1"?>
<!-- Generator: Adobe Illustrator 19.0.0, SVG Export Plug-In . SVG Version: 6.00 Build 0)  -->
<svg version="1.1" id="Capa_1" xmlns="http://www.w3.org/2000/svg" xmlns:xlink="http://www.w3.org/1999/xlink" x="0px" y="0px"
	 viewBox="0 0 497.8 497.8" style="enable-background:new 0 0 497.8 497.8;" xml:space="preserve">
<g>
	<g>
		<path d="M482.547,363.3l-16.3-1.7c-5.1-8.8-11.7-16.8-19.5-23.4l0.7-6.7c1.1-10,1.4-13.6,1-16.4c-0.2-1.7-0.7-3.3-1.5-4.9V10
			c0-5.5-4.5-10-10-10c-2.9,0-5.7,1.3-7.6,3.5l-46.1,54.5l-29-16c-4.5-2.5-10.2-1.2-13.1,3.1l-33.8,49.3l-38-9.3
			c-3.7-0.9-7.6,0.4-10,3.3l-33.5,39.9l-39.4-36.8c-3.1-2.9-7.6-3.5-11.3-1.6l-30.1,15.1l-43-37.5c-2-1.8-4.7-2.6-7.4-2.4
			c-2.6,0.2-5.1,1.5-6.7,3.6l-24,28.7V57.1c-0.1-5.6-4.7-10.1-10.3-10.2h-40c-5.5,0-9.7,4.7-9.7,10.2v336.3
			c0,16.5,13.1,30.4,29.7,30.4h246.6c2.3,6.4,5.3,12.6,9,18.4c-7.5,14-5.2,31.3,5.7,42.8c7.5,7.9,17.8,12.4,28.6,12.7
			c0.1,0,0.2,0.1,0.3,0.1h1c10.5,0,20.6-4,28.1-11.2l2.9-2.8c11.3,2.1,22.9,2.4,34.3,1l1.6,1.5c7.9,7.3,18.2,11.4,28.9,11.4
			c9.5,0,18.8-3.2,26.2-9.2c11.7-9.6,16.4-25.2,12-39.7c2.8-3.5,5.3-7.2,7.5-11.1l16.6-1.8c0.3,0,0.5-0.1,0.7-0.1
			c5.9-1.2,10.1-6.3,10.2-12.3v-47.7C494.047,369.3,489.047,363.8,482.547,363.3z M63.947,128.7l32.6-39.4l40.2,35.1
			c3,2.7,7.4,3.2,11,1.4l29.9-15l42,39.2c4,3.8,10.4,3.6,14.1-0.5c0.1-0.1,0.2-0.3,0.4-0.4l36.3-43.2l38.7,9.5c4,1,8.3-0.6,10.6-4.1
			l32.7-47.4l28.3,15.6c4.2,2.3,9.4,1.3,12.5-2.3l33.7-39.9v80.3l-38.7,5.3c-2.5,0.3-4.7,1.6-6.3,3.5l-34.7,41.4l-38.4-23.5
			c-4.2-2.6-9.7-1.7-12.9,2.1l-39,46.4l-46.5-19.2c-3.6-1.5-7.8-0.7-10.7,1.9l-37.8,35.4l-22.7-39.1c-2.8-4.8-8.9-6.4-13.7-3.6
			c-0.4,0.2-0.7,0.4-1,0.7l-31.2,23.9l-29.4-17.7V128.7z M63.947,198.4l24.9,15c3.5,2.1,7.9,1.9,11.1-0.6l27.7-21.1l23.3,40.2
			c2.8,4.8,8.9,6.4,13.6,3.6c0.7-0.4,1.3-0.8,1.8-1.4l42.3-39.6l47.3,19.5c4,1.7,8.7,0.5,11.5-2.8l38.2-45.4l38.4,23.5
			c4.2,2.6,9.7,1.7,12.9-2.1l37.8-45l32.2-4.4V217l-32-11.6c-4.5-1.6-9.5,0.1-12,4.2l-34.8,57.1l-35.1-23.3
			c-4.3-2.9-10.1-2-13.3,2.1l-36.5,45.2l-35.5-28.7c-3.5-2.8-8.4-3-12.1-0.4l-35.5,25.1l-44.2-28.3c-3.9-2.5-9-2-12.3,1.2l-35.4,34
			l-24.3-7.3V198.4z M363.047,280.8l32.8-53.8l31.1,11.3v65c-5.5,1.1-10.9,2.6-16.1,4.7C403.247,288.9,383.447,277.6,363.047,280.8z
			 M393.947,324.1c0,7.2-3.2,13.7-8.9,18.7h-30.4v0.1c-5.6-4-8.9-11.3-8.9-18.7c0-13.3,10.8-24.1,24.1-24.1
			C383.047,300.3,393.747,310.9,393.947,324.1z M276.447,403.9h-242.8c-5.5,0-9.7-4.9-9.7-10.4V66.9h20v306.6
			c0,5.5,4.2,10.4,9.7,10.4h224.6c-1.1,3.8-1.8,7.7-2.1,11.7c0,0.2-0.2,0.2-0.2,0.4v3.5C275.947,400.8,276.347,401.9,276.447,403.9z
			 M287.847,360.5c-0.1,0.2-0.2,0.6-0.3,0.8l-1.2,2.6h-222.4v-56.8l24.2,7.2c0.9,0.3,1.8,0.4,2.8,0.4c2.6,0,5-1,6.9-2.8l34-32.6
			l43.4,27.8c3.4,2.2,7.8,2.1,11.2-0.3l34.8-24.6l37.4,30.2c4.3,3.5,10.6,2.8,14.1-1.5l37-45.9l34.9,23.1
			c-11.7,8.2-18.7,21.7-18.7,36c0,0.4,0,0.9,0,1.3C309.947,333.8,296.647,346,287.847,360.5z M459.547,418.3
			c-2.7,0.2-5.1,1.5-6.9,3.4c-0.8,0.8-1.4,1.7-1.9,2.7c-2.7,5.7-6.3,10.9-10.5,15.5c-1.2,1.3-2,2.9-2.4,4.6c-0.7,2.6-0.3,5.4,1,7.8
			c3.4,7.1,1.5,15.7-4.6,20.7c-8.2,6.7-20.9,6.1-28.7-1.3l-4.8-4.5c-2.1-2-4.8-3.1-7.7-3c-0.6,0-1.1,0-1.7,0.1
			c-11.9,2-24.1,1.6-35.9-1.1c-0.8-0.2-1.5-0.3-2.3-0.3c-2.9,0-5.7,1.1-7.7,3.1l-6.3,6.1c-3.9,3.7-9,5.7-14.3,5.7h-0.9
			c-5.6-0.1-10.9-2.5-14.6-6.6c-5.8-6.1-6.1-15.8-0.6-22.9c0.4-0.5,0.7-1.1,1-1.6c2-3.9,1.4-8.5-1.4-11.8
			c-8.1-10.5-12.6-22.8-12.6-35.3v-3.2c1-6.7,2.9-13.2,5.7-19.3l3.4-6.4c4.8-7.7,10.9-14.4,18.2-19.8c-0.2,0.7-0.2,1.4-0.2,2.2
			c0,5.5,4.5,10,10,9.9h73.7c5.5,0,10-4.4,10-9.9c0-4.5-2.9-8.4-7.2-9.6c2.3-4.8,3.7-9.9,4.2-15.2c4.7-2,9.5-3.6,14.5-4.8
			c-0.2,2.2-0.5,4.6-0.6,5.9l-1.3,11.6c0,0.4-0.1,0.7-0.1,1.1c0,2.9,1.1,5.8,3.2,7.8c0.3,0.3,0.6,0.6,1,0.8
			c8.6,6.5,15.5,14.8,20.4,24.3c0.5,1,1.1,1.8,1.9,2.6c1.8,2,4.2,3.2,6.9,3.4l14.4,1.5v34.3h0.1L459.547,418.3z"/>
	</g>
</g>
<g>
</g>
<g>
</g>
<g>
</g>
<g>
</g>
<g>
</g>
<g>
</g>
<g>
</g>
<g>
</g>
<g>
</g>
<g>
</g>
<g>
</g>
<g>
</g>
<g>
</g>
<g>
</g>
<g>
</g>
</svg>
