<?xml version="1.0" encoding="iso-8859-1"?>
<!-- Generator: Adobe Illustrator 19.0.0, SVG Export Plug-In . SVG Version: 6.00 Build 0)  -->
<svg version="1.1" id="Capa_1" xmlns="http://www.w3.org/2000/svg" xmlns:xlink="http://www.w3.org/1999/xlink" x="0px" y="0px"
	 viewBox="0 0 486.406 486.406" style="enable-background:new 0 0 486.406 486.406;" xml:space="preserve">
<g>
	<g>
		<path d="M150.4,283.781c-6.6-10.3-11.3-21.7-13.8-33.7c-1-4.6-5.1-8-9.8-7.9H10c-2.7,0-5.3,1.2-7.1,3.1c-1.9,2-2.9,4.6-2.9,7.3
			c0,0.5,0,0.6,0.1,1.6c4.3,45.6,22.3,89,51.6,124.4c1.8,2.1,4.4,3.4,7.2,3.4c0.2,0,0.3,0,0.5,0c2.7,0,5.2-1.1,7.1-2.9l82.7-82.8
			C152.5,292.981,153,287.681,150.4,283.781z M60.3,356.981c-20.7-27.9-34.1-60.5-39.1-94.9H119c2.5,8.9,6,17.5,10.5,25.6
			L60.3,356.981z"/>
	</g>
</g>
<g>
	<g>
		<path d="M212.1,325.681c-0.4-0.1-0.7-0.2-1.1-0.3c-11.7-2.4-22.9-7.1-32.9-13.7c-4-2.6-9.2-2.1-12.6,1.3l-82.8,82.7
			c-3.9,3.9-3.9,10.2,0,14.1c0.2,0.2,0.5,0.5,0.7,0.7c35.3,29.1,78.4,47,123.8,51.5c0.6,0.1,1.2,0.1,1.8,0.2c0.1,0,0.1,0,0.2,0
			c5.5,0,10-4.5,10-10v-116.9C219.4,330.781,216.4,326.881,212.1,325.681z M199.4,440.881c-34.2-5-66.6-18.5-94.4-39l69.2-69.1
			c8,4.5,16.4,8,25.2,10.4V440.881z"/>
	</g>
</g>
<g>
	<g>
		<path d="M461.9,208.381c-10.6-109.3-97.7-196.7-207.2-207.7c-5.5-0.6-10.4,3.5-11,8.9c0,0.3,0,0.6,0,0.9c0,0-0.2,29.3-0.4,58.5
			c-0.1,14.6-0.2,29.3-0.3,40.3c0,5.5-0.1,10.1-0.1,13.3c0,1.6,0,2.9,0,3.8c0.1,8.1,4.9,10.5,7.8,11.1c0.1,0,0.2,0.1,0.2,0.1
			c37.2,7.9,66.3,37.1,74.1,74.3c0.9,4.7,5,8.1,9.8,8.1l117.2-0.4c2.8-0.1,5.5-1.3,7.4-3.5
			C461.3,213.981,462.2,211.181,461.9,208.381z M342.7,199.681c-11-38.6-41.1-68.7-79.6-79.8c-0.1-17.5,0.3-62.1,0.6-97.9
			c91.4,14.3,162.9,86.1,177,177.5L342.7,199.681z"/>
	</g>
</g>
<g>
	<g>
		<path d="M216.3,2.581c-2.1-1.9-5-2.8-7.8-2.5h-0.4c-109.6,10.6-197,97.7-208,207c-0.6,5.5,3.5,10.4,8.9,10.9c0.3,0,0.7,0.1,1,0.1
			h117c4.7,0,8.8-3.3,9.8-7.9c7.9-36.3,37.8-65.9,74.3-73.4c4.6-1,8-5,8-9.8l0.5-117C219.6,7.181,218.4,4.481,216.3,2.581z
			 M21.4,198.081c0.9-5.6,2-11.2,3.3-16.7l16.7,16.7H21.4z M69.7,198.081l-38.5-38.5c2.4-6.8,5.2-13.4,8.3-20l58.5,58.5H69.7z
			 M121,192.781l-71.5-71.5c3.5-5.8,7.3-11.4,11.4-16.9l69,69C126.3,179.581,123.4,186.081,121,192.781z M148.8,148.481
			c-2.5,2.7-5,5.4-7.3,8.2l-67.9-67.9c2.4-2.7,4.9-5.3,7.5-7.9c2.2-2.1,4.3-4.2,6.6-6.3l67.8,67.8
			C153.2,144.281,151,146.381,148.8,148.481z M172.1,130.681l-68.9-68.9c5.4-4.1,11-7.9,16.8-11.5l71.3,71.3
			C184.6,123.981,178.2,126.981,172.1,130.681z M199.3,101.381l-61-61.1c6.5-3.2,13.1-6,19.8-8.4l41.3,41.3L199.3,101.381z
			 M199.5,44.981l-19.7-19.7c6.5-1.6,13.2-2.9,19.8-3.9L199.5,44.981z"/>
	</g>
</g>
<g>
	<g>
		<path d="M475.1,351.781l-16.3-1.7c-4.8-8.2-10.8-15.7-18-22c11.1-23.7,18-49,20.6-75c0.5-5.5-3.5-10.4-8.9-10.9c-0.3,0-0.7,0-1,0
			H334.6c-4.7,0-8.8,3.3-9.8,8c-7.7,37-37.2,67.1-73.5,75c-4.6,1-7.9,5.1-7.9,9.8v116.8c0,5.5,4.5,10,10,10c0.3,0,0.6,0,1,0
			c8.2-0.8,16.4-2,24.4-3.7c1.6,5.8,4.6,11.2,8.8,15.5c7.5,7.8,17.8,12.4,28.6,12.6c0.1,0,0.2,0,0.3,0h1
			c10.5,0.1,20.5-3.9,28.1-11.1l2.9-2.7c11.3,2.1,22.9,2.5,34.3,1l1.6,1.6c7.8,7.3,18.2,11.4,28.9,11.4c9.5,0,18.8-3.2,26.2-9.2
			c11.7-9.6,16.4-25.2,12-39.7c2.8-3.5,5.3-7.2,7.5-11.1l16.6-1.8c0.2,0,0.5-0.1,0.7-0.1c5.9-1.2,10.1-6.3,10.1-12.3v-47.7
			C486.6,357.781,481.6,352.281,475.1,351.781z M342.5,262.181h97.684c-1.599,10.267-3.894,20.532-6.984,30.5
			c-2.1-1-4.3-1.5-6.6-1.5c-5.5-0.1-13.1,1.6-23.1,5.3c-9-22.6-34.6-33.6-57.2-24.6c-3.2,1.3-6.2,2.9-9.1,4.9
			C339.3,271.981,341,267.181,342.5,262.181z M386.5,312.481c0,7.2-3.2,14.6-8.9,18.6h-30.4c-5.6-4-8.9-11.1-8.9-18.5
			c0-13.3,10.8-24,24.1-24C375.6,288.681,386.3,299.281,386.5,312.481z M281.6,430.481c-1.1,2.2-2,4.5-2.6,6.9
			c-5.2,1.2-10.3,2.2-15.6,3v-97.8h0c21.7-6.6,40.9-19.3,55.5-36.6c-0.4,2.3-0.5,4.5-0.5,6.8c0,0.4,0,0.9,0,1.3
			c-15.9,8.2-29.2,20.4-38,34.9c-0.1,0.2-0.2,0.4-0.3,0.6l-3.5,6.8c0,0.1-0.1,0.2-0.1,0.3c-4.5,9.2-7.2,18.4-7.8,27.2
			c0,0.2-0.3,0.4-0.3,0.6v3.5C268.5,403.181,273.1,417.881,281.6,430.481z M466.4,405.281l-14.3,1.5c-2.6,0.2-5.1,1.5-6.9,3.4
			c-0.8,0.8-1.4,1.7-1.9,2.8c-2.7,5.7-6.2,10.9-10.5,15.5c-1.2,1.3-2,2.9-2.3,4.6c-0.7,2.6-0.3,5.4,1,7.8c3.4,7.1,1.5,15.7-4.6,20.7
			c-8.2,6.7-20.9,6.1-28.7-1.3l-4.7-4.5c-2.1-2-4.8-3.1-7.7-3c-0.6,0-1.1,0-1.7,0.1c-11.9,2-24.1,1.6-35.9-1.1
			c-0.8-0.2-1.5-0.3-2.3-0.3c-2.9,0-5.7,1.1-7.7,3.1l-6.3,6c-3.9,3.6-9,5.6-14.3,5.5h-0.9c-5.6,0-10.9-2.4-14.6-6.4
			c-5.8-6.1-6.1-15.7-0.6-22.9c0.4-0.5,0.7-1,1-1.6c1.9-3.9,1.4-8.5-1.4-11.8c-8.1-10.5-12.6-22.7-12.6-35.3v-3.2
			c1-6.7,2.9-13.2,5.7-19.3l3.4-6.4c4.8-7.7,11-14.4,18.2-19.8c-0.2,0.7-0.2,1.3-0.2,2c0,5.4,4.5,9.8,9.9,9.8h0.1h73.7
			c5.4,0.1,9.9-4.2,10-9.6c0.1-4.5-2.9-8.5-7.2-9.6c2.3-4.7,3.7-9.9,4.2-15.1c4.7-2,9.5-3.6,14.5-4.8c-0.2,2.2-0.5,4.6-0.6,5.9
			l-1.3,11.6c0,0.4-0.1,0.7-0.1,1.1c0,2.9,1.1,5.8,3.2,7.8c0.3,0.3,0.6,0.6,1,0.8c8.6,6.5,15.5,14.8,20.4,24.3
			c0.5,1,1.1,1.8,1.9,2.6c1.8,1.9,4.2,3.2,6.8,3.4l14.3,1.5V405.281z"/>
	</g>
</g>
<g>
</g>
<g>
</g>
<g>
</g>
<g>
</g>
<g>
</g>
<g>
</g>
<g>
</g>
<g>
</g>
<g>
</g>
<g>
</g>
<g>
</g>
<g>
</g>
<g>
</g>
<g>
</g>
<g>
</g>
</svg>
