<?xml version="1.0" encoding="iso-8859-1"?>
<!-- Generator: Adobe Illustrator 19.0.0, SVG Export Plug-In . SVG Version: 6.00 Build 0)  -->
<svg version="1.1" id="Capa_1" xmlns="http://www.w3.org/2000/svg" xmlns:xlink="http://www.w3.org/1999/xlink" x="0px" y="0px"
	 viewBox="0 0 492.006 492.006" style="enable-background:new 0 0 492.006 492.006;" xml:space="preserve">
<g>
	<g>
		<path d="M395,18.116l-101.9-7.2c-5.5-0.4-10.3,3.7-10.7,9.2s3.7,10.3,9.2,10.7c0,0,0,0,0.1,0l75.8,5.4l-136.9,106.4l-102.2-80.5
			c-3.9-3.1-9.5-2.8-13.1,0.6l-104.2,99.9c-4,3.8-4.1,10.2-0.3,14.1c1.9,2,4.5,3.1,7.2,3.1c2.6,0,5.1-1,6.9-2.8l97.9-93.9l101.6,80
			c3.6,2.8,8.7,2.9,12.3,0l145.7-113.1l-5.5,71.8c-0.4,5.5,3.7,10.3,9.2,10.7c0.3,0,0.5,0,0.8,0c5.2,0,9.6-4,10-9.2l7.3-94.5
			C404.6,23.316,400.5,18.516,395,18.116z"/>
	</g>
</g>
<g>
	<g>
		<path d="M480.6,346.716l-16.4-1.7c-5.1-8.8-11.8-16.8-19.5-23.4l0.7-6.7c1.1-10,1.4-13.6,1-16.4c-0.9-7.3-6.9-12.3-14.5-12.4
			c-5.5-0.2-13,1.6-23,5.3c-5.6-14-18-24.2-32.8-27v-58.7c0-5.5-4.8-9.6-10.4-9.6h-63.6c-5.4-0.2-9.8,4-10,9.4c0,0.1,0,0.2,0,0.2
			v129.1c-2,2.9-4.4,6-6.4,9.1c-0.1,0.2-0.2,0.4-0.3,0.6l-3.5,6.8c0,0.1-0.1,0.2-0.1,0.3c-4.3,8.5-6.9,17.7-7.6,27.2
			c0,0.2-0.1,0.4-0.1,0.6v-0.4h-26v-141.4c0-5.5-4.6-9.6-10.1-9.6h-63.6c-5.5,0-10.3,4-10.3,9.6v141.4h-44v-98.8
			c0.1-5.5-4.3-10.1-9.9-10.2H46.6c-5.5,0-9.5,4.6-9.5,10.2v98.8H10c-5.5,0-10,4.5-10,10s4.5,10,10,10h266
			c1.9,9.4,5.7,18.3,11.1,26.2c-7.5,14.1-5.2,31.4,5.7,43c7.5,7.9,17.8,12.4,28.6,12.7c0.1,0,0.2,0,0.3,0h1
			c10.5,0.1,20.5-3.9,28.1-11.1l2.9-2.7c11.3,2.1,22.9,2.5,34.3,1l1.6,1.6c7.9,7.3,18.2,11.4,28.9,11.4c9.5,0,18.8-3.2,26.2-9.2
			c11.7-9.6,16.4-25.2,12-39.7c2.8-3.5,5.3-7.2,7.5-11.1l16.6-1.8c0.3,0,0.6-0.1,0.9-0.1c5.9-1.1,10.2-6.3,10.3-12.3v-47.7
			C492.2,352.616,487.1,347.216,480.6,346.716z M100.1,379.016h-43v-89h43V379.016z M228.1,379.016h-44v-131h44V379.016z
			 M367.8,283.416c13.2,0.2,23.9,10.9,24.1,24.1c0,7.2-3.2,14.5-8.9,18.5h-30.4c-5.6-4-8.9-11.1-8.9-18.5
			C343.7,294.216,354.5,283.416,367.8,283.416z M312.1,216.016h44v49.3c-19.1,5.2-32.3,22.6-32.2,42.4c0,0.4-0.1,0.9-0.1,1.3
			c-4.1,2.1-7.7,4.5-11.7,7V216.016z M457.6,401.716c-2.7,0.2-5.2,1.5-7,3.4c-0.8,0.8-1.4,1.7-1.9,2.7c-2.7,5.7-6.3,10.9-10.5,15.5
			c-1.2,1.3-2,2.9-2.4,4.6c-0.7,2.6-0.3,5.4,1,7.8c3.4,7.1,1.5,15.7-4.6,20.7c-8.2,6.7-20.9,6.1-28.7-1.3l-4.8-4.5
			c-2.1-2-4.8-3.1-7.7-3c-0.6,0-1.1,0-1.7,0.1c-11.9,2-24.1,1.6-35.9-1.1c-0.8-0.2-1.5-0.3-2.3-0.3c-2.9,0-5.7,1.1-7.7,3.1l-6.3,6
			c-3.9,3.6-9,5.6-14.3,5.5h-0.9c-5.6,0-10.9-2.4-14.6-6.5c-5.8-6.1-6.1-15.7-0.6-22.9c0.4-0.5,0.7-1,1-1.6c2-4,1.8-8.6-1-11.8
			c-6.6-8.3-10.6-18.3-11.7-28.8c-0.1-0.7-0.3-1.4-0.5-2c-0.1-1.5-0.5-2.9-0.5-4.4v-3.2c0.9-6.7,2.8-13.2,5.6-19.3l3.3-6.4
			c4.8-7.7,10.9-14.4,18.2-19.8c-0.2,0.7-0.2,1.3-0.2,2c0,5.4,4.4,9.8,9.9,9.8h0.1h73.7c5.4,0.1,9.9-4.2,10-9.7
			c0.1-4.5-2.9-8.4-7.2-9.6c2.3-4.7,3.7-9.9,4.2-15.1c4.7-2,9.5-3.6,14.5-4.8c-0.2,2.2-0.5,4.6-0.6,5.9l-1.3,11.6
			c0,0.4-0.1,0.7-0.1,1.1c0,2.9,1.1,5.8,3.2,7.8c0.3,0.3,0.6,0.6,0.9,0.8c8.6,6.5,15.5,14.8,20.4,24.3c0.5,1,1.1,1.8,1.9,2.6
			c1.8,2,4.3,3.2,7,3.4l14.5,1.5v34.4h0.1L457.6,401.716z"/>
	</g>
</g>
<g>
</g>
<g>
</g>
<g>
</g>
<g>
</g>
<g>
</g>
<g>
</g>
<g>
</g>
<g>
</g>
<g>
</g>
<g>
</g>
<g>
</g>
<g>
</g>
<g>
</g>
<g>
</g>
<g>
</g>
</svg>
