<?xml version="1.0" encoding="iso-8859-1"?>
<!-- Generator: Adobe Illustrator 19.0.0, SVG Export Plug-In . SVG Version: 6.00 Build 0)  -->
<svg version="1.1" id="Capa_1" xmlns="http://www.w3.org/2000/svg" xmlns:xlink="http://www.w3.org/1999/xlink" x="0px" y="0px"
	 viewBox="0 0 480.001 480.001" style="enable-background:new 0 0 480.001 480.001;" xml:space="preserve">
<g>
	<g>
		<path d="M249,131.051h-89c-5.5,0-10,4.5-10,10v190c0,5.5,4.5,10,10,10h89c5.5,0,10-4.5,10-10v-190
			C259,135.551,254.5,131.051,249,131.051z M239,321.051h-69v-170h69V321.051z"/>
	</g>
</g>
<g>
	<g>
		<path d="M99,201.051H10c-5.5,0-10,4.5-10,10v120c0,5.5,4.5,10,10,10h89c5.5,0,10-4.5,10-10v-120
			C109,205.551,104.5,201.051,99,201.051z M89,321.051H20v-100h69V321.051z"/>
	</g>
</g>
<g>
	<g>
		<path d="M468.5,316.551l-16.4-1.7c-5.1-8.8-11.7-16.8-19.5-23.4l0.7-6.7c1.1-10,1.4-13.6,1-16.4c-0.9-7.3-7-12.3-14.7-12.4
			c-3.9,0-7.8,0.6-11.6,1.6v-218.5c0.2-5.4-4-9.9-9.4-10c-0.1,0-0.1,0-0.2,0h-89c-5.6,0-10.2,4.4-10.4,10v247.3
			c-10,7.5-19.1,16.8-25.5,27.4c-0.1,0.2-0.1,0.4-0.2,0.6l-3.5,6.8c0,0.1-0.1,0.2-0.1,0.3c-4.3,8.5-6.9,17.7-7.6,27.2
			c0,0.2-0.1,0.4-0.1,0.6v3.5c0.1,15.1,4.6,29.9,13,42.5c-7.5,14.1-5.2,31.3,5.8,42.9c7.5,7.9,17.8,12.4,28.7,12.7
			c0.1,0,0.2,0.1,0.3,0.1h1c10.5,0,20.6-4,28.1-11.2l2.9-2.8c11.3,2.1,22.9,2.4,34.3,1l1.6,1.5c7.9,7.3,18.2,11.4,28.9,11.4
			c9.5,0,18.8-3.2,26.2-9.2c11.7-9.6,16.4-25.2,12-39.7c2.8-3.5,5.3-7.2,7.5-11.1l16.6-1.8c0.3,0,0.5-0.1,0.8-0.1
			c5.9-1.1,10.2-6.3,10.3-12.3v-47.6C480.1,322.551,475.1,317.051,468.5,316.551z M319,49.051h69v198.9c-16.3-18-44.2-19.4-62.2-3
			c-2.5,2.3-4.8,4.9-6.8,7.8V49.051z M379.8,277.451c0,7.2-3.2,13.6-8.9,18.6h-30.4c-5.6-4-8.9-11.2-8.9-18.6
			c0-13.3,10.8-24,24.1-24C368.9,253.551,379.6,264.251,379.8,277.451z M445.5,371.551c-2.7,0.2-5.2,1.5-7,3.4
			c-0.8,0.8-1.4,1.7-1.9,2.7c-2.7,5.7-6.3,10.9-10.5,15.5c-1.2,1.3-2,2.9-2.4,4.6c-0.7,2.6-0.3,5.4,1,7.8c3.4,7.1,1.5,15.7-4.6,20.7
			c-8.2,6.7-20.9,6.1-28.7-1.3l-4.8-4.5c-2.1-2-4.8-3.1-7.7-3c-0.6,0-1.1,0-1.7,0.1c-11.9,2-24.1,1.6-35.9-1.1
			c-0.8-0.2-1.5-0.3-2.3-0.3c-2.9,0-5.7,1.1-7.7,3.1l-6.3,6.1c-3.9,3.7-9,5.7-14.3,5.6h-0.9c-5.6-0.1-10.9-2.4-14.6-6.5
			c-5.8-6.1-6.1-15.8-0.6-22.9c0.4-0.5,0.7-1.1,1-1.6c2-3.8,1.5-8.5-1.3-11.8c-8-10.1-12.3-22.5-12.5-35.3v-3.2
			c0.9-6.7,2.8-13.2,5.6-19.3l3.4-6.4c4.8-7.7,10.9-14.4,18.2-19.8c-0.2,0.7-0.2,1.4-0.2,2.1c0,5.5,4.5,9.9,9.9,9.9c0,0,0,0,0.1,0
			h73.7c5.5,0.1,9.9-4.3,10-9.8c0-4.5-2.9-8.4-7.2-9.6c2.3-4.7,3.7-9.9,4.2-15.1c4.7-2,9.5-3.6,14.5-4.8c-0.2,2.2-0.5,4.6-0.6,5.9
			l-1.3,11.6c0,0.4-0.1,0.7-0.1,1.1c0,2.9,1.1,5.8,3.2,7.8c0.3,0.3,0.6,0.6,0.9,0.8c8.6,6.5,15.5,14.8,20.4,24.3
			c0.5,1,1.1,1.8,1.9,2.6c1.8,2,4.3,3.2,7,3.4l14.5,1.5l0.1,34.2L445.5,371.551z"/>
	</g>
</g>
<g>
</g>
<g>
</g>
<g>
</g>
<g>
</g>
<g>
</g>
<g>
</g>
<g>
</g>
<g>
</g>
<g>
</g>
<g>
</g>
<g>
</g>
<g>
</g>
<g>
</g>
<g>
</g>
<g>
</g>
</svg>
