<?xml version="1.0" encoding="iso-8859-1"?>
<!-- Generator: Adobe Illustrator 19.0.0, SVG Export Plug-In . SVG Version: 6.00 Build 0)  -->
<svg version="1.1" id="Capa_1" xmlns="http://www.w3.org/2000/svg" xmlns:xlink="http://www.w3.org/1999/xlink" x="0px" y="0px"
	 viewBox="0 0 460.409 460.409" style="enable-background:new 0 0 460.409 460.409;" xml:space="preserve">
<g>
	<g>
		<path d="M185.407,276.034h-56c-5.5,0-10,4.5-10,10v92c0,5.5,4.5,10,10,10h56c5.5,0,10-4.5,10-10v-92
			C195.407,280.534,190.907,276.034,185.407,276.034z M175.407,369.034h-36v-73h36V369.034z"/>
	</g>
</g>
<g>
	<g>
		<path d="M69.407,256.034h-56c-5.5,0-10,4.5-10,10v113c0,5.5,4.5,10,10,10h56c5.5,0,10-4.5,10-10v-113
			C79.407,260.534,74.907,256.034,69.407,256.034z M60.407,369.034h-37v-93h37V369.034z"/>
	</g>
</g>
<g>
	<g>
		<path d="M418.207,26.434c-15.7-16.8-42.2-17.6-59-1.9c-11.3,10.6-15.8,26.5-11.7,41.4l-45.3,32.1c-16.2-16.4-42.7-16.6-59.1-0.4
			c-11.6,11.5-15.5,28.6-9.9,44l-41.8,35.2c-13.2-18.9-39.2-23.6-58.2-10.4c-7.2,5-12.6,12.2-15.5,20.4l-34.7-14.1
			c-3.9-22.8-25.4-38.1-48.2-34.2c-22.8,3.9-38.1,25.4-34.2,48.2c3.9,22.8,25.4,38.1,48.2,34.2c15-2.5,27.4-13,32.5-27.3l34.7,14.1
			c3.8,22.8,25.4,38.1,48.2,34.3c20.1-3.4,34.8-20.8,34.8-41.2c0-1.3-0.1-2.7-0.2-4l45.6-38.5c17.1,15.5,43.5,14.3,59-2.8
			c9.9-10.9,13.3-26.2,9.1-40.2l44.8-31.8c15.8,16.8,42.2,17.6,59,1.9C433.107,69.634,433.907,43.234,418.207,26.434z
			 M41.807,201.634c-12,0-21.8-9.8-21.8-21.8s9.7-21.8,21.8-21.8c12,0,21.8,9.8,21.8,21.8S53.807,201.634,41.807,201.634z
			 M157.107,222.634c-12,0-21.8-9.8-21.8-21.8s9.8-21.8,21.8-21.8s21.8,9.8,21.8,21.8S169.207,222.634,157.107,222.634z
			 M272.507,149.134c-12,0-21.8-9.8-21.8-21.8c0-12,9.8-21.7,21.8-21.8c12,0,21.8,9.8,21.8,21.8S284.507,149.134,272.507,149.134z
			 M387.907,76.734c-12,0-21.8-9.8-21.8-21.8c0-12,9.7-21.8,21.8-21.8c12,0,21.8,9.8,21.8,21.8
			C409.707,66.934,399.907,76.734,387.907,76.734z"/>
	</g>
</g>
<g>
	<g>
		<path d="M449.107,312.434l-16.1-1.7c-2-3.5-4.6-6.9-6.6-10.1v-160.4c-0.2-5.6-4.7-10.2-10.4-10.2h-56.3
			c-5.6,0.1-10.2,4.6-10.3,10.2v91.2c-4.3-1.4-8.7-2.1-13.2-2c-9.6,0-17.8,3.1-25.8,8.4v-25.3c0-5.5-4.2-10.4-9.7-10.4h-56.3
			c-5.5,0-9.9,4.9-9.9,10.4v166.3c-0.1,5.6,4.4,10.2,9.9,10.3h9.9c0.5,0.8,1,1.6,1.6,2.3c-7.5,14-5.2,31.3,5.7,42.9
			c7.5,7.9,17.8,12.4,28.6,12.7c0.1,0,0.2,0.1,0.3,0.1h1c10.5,0,20.6-4,28.1-11.2l2.9-2.8c11.3,2.1,22.9,2.4,34.3,1l1.6,1.5
			c7.9,7.3,18.2,11.4,28.9,11.4c9.5,0,18.8-3.2,26.2-9.2c11.7-9.6,16.4-25.2,12-39.7c2.8-3.5,5.3-7.2,7.5-11.1l16.6-1.8
			c0.2,0,0.5-0.1,0.7-0.1c5.9-1.2,10.1-6.3,10.1-12.3v-47.7C460.507,318.434,455.607,312.934,449.107,312.434z M369.407,150.034h37
			v102.8c-1.8-0.6-3.8-1-5.7-1c-5.5-0.2-13.4,1.6-23.4,5.3c-1.9-4.6-3.9-8.9-7.9-12.6V150.034z M336.407,249.434
			c13.2,0.1,23.9,10.8,24.1,24c0,7.2-3.2,13.6-8.9,18.6h-30.4c-5.6-4-8.9-11.3-8.9-18.6
			C312.407,260.134,323.207,249.334,336.407,249.434z M254.407,309.577v-87.544h36v53.7
			C275.662,283.704,263.202,295.349,254.407,309.577z M426.107,367.534c-2.6,0.2-5.1,1.5-6.9,3.4c-0.8,0.8-1.4,1.7-1.9,2.8
			c-2.7,5.7-6.2,10.9-10.5,15.5c-1.2,1.3-2,2.9-2.4,4.6c-0.7,2.6-0.3,5.4,1,7.8c3.4,7.1,1.5,15.7-4.6,20.7
			c-8.2,6.7-20.9,6.1-28.7-1.3l-4.7-4.5c-2.1-2-4.8-3.1-7.7-3c-0.6,0-1.1,0-1.7,0.1c-11.9,2-24.1,1.6-35.9-1.1
			c-0.8-0.2-1.5-0.3-2.3-0.3c-2.9,0-5.7,1.1-7.7,3.1l-6.3,6.1c-3.9,3.7-9,5.7-14.3,5.7h-0.9c-5.6-0.1-10.9-2.5-14.6-6.6
			c-5.8-6.1-6.1-15.8-0.6-22.9c0.4-0.5,0.7-1.1,1-1.6c1.9-3.9,1.4-8.5-1.4-11.8c-8.1-10.5-12.6-22.8-12.6-35.3v-3.2
			c1-6.7,2.9-13.2,5.7-19.3l3.4-6.4c4.8-7.7,11-14.4,18.2-19.8c-0.2,0.7-0.2,1.4-0.2,2.1c0,5.5,4.5,9.9,10,9.9h73.7
			c5.5,0,10-4.4,10-9.9c0-4.5-2.9-8.4-7.2-9.6c2.3-4.8,3.7-9.9,4.2-15.1c4.7-2,9.5-3.6,14.5-4.8c-0.2,2.2-0.5,4.6-0.6,5.9l-1.3,11.6
			c0,0.4-0.1,0.7-0.1,1.1c0,2.9,1.1,5.8,3.2,7.8c0.3,0.3,0.6,0.6,1,0.8c8.6,6.5,15.5,14.8,20.4,24.3c0.5,1,1.1,1.8,1.9,2.6
			c1.8,1.9,4.2,3.2,6.8,3.4l14.3,1.5v34.2h0.1L426.107,367.534z"/>
	</g>
</g>
<g>
</g>
<g>
</g>
<g>
</g>
<g>
</g>
<g>
</g>
<g>
</g>
<g>
</g>
<g>
</g>
<g>
</g>
<g>
</g>
<g>
</g>
<g>
</g>
<g>
</g>
<g>
</g>
<g>
</g>
</svg>
