<?xml version="1.0" encoding="iso-8859-1"?>
<!-- Generator: Adobe Illustrator 19.0.0, SVG Export Plug-In . SVG Version: 6.00 Build 0)  -->
<svg version="1.1" id="Capa_1" xmlns="http://www.w3.org/2000/svg" xmlns:xlink="http://www.w3.org/1999/xlink" x="0px" y="0px"
	 viewBox="0 0 427.91 427.91" style="enable-background:new 0 0 427.91 427.91;" xml:space="preserve">
<g>
	<g>
		<path d="M381.902,92.108l-96.2-89.7c-1.9-1.7-4.3-2.5-6.8-2.4h-186.3c-27.3-0.2-49.4,21.8-49.6,49c0,0.2,0,0.4,0,0.5v328.9
			c-0.1,27.2,21.8,49.4,49,49.5c0.2,0,0.4,0,0.5,0h242.9c27.2,0.2,49.4-21.8,49.5-49c0-0.2,0-0.4,0-0.5v-279.1
			C385.002,96.608,383.902,94.008,381.902,92.108z M289.002,69.308v-36.8l61,56.5h-41.1c-10.9,0.1-19.8-8.6-19.9-19.4
			C289.002,69.508,289.002,69.408,289.002,69.308z M365.002,378.508c0.2,16.2-12.8,29.4-29,29.5c-0.2,0-0.4,0-0.6,0h-242.9
			c-16.2,0.2-29.4-12.8-29.5-29c0-0.2,0-0.4,0-0.6v-328.9c-0.2-16.2,12.8-29.4,29-29.5c0.2,0,0.4,0,0.6,0h176.4v49.3
			c0,21.9,17.8,39.7,39.7,39.7c0.1,0,0.1,0,0.2,0h56.1V378.508z"/>
	</g>
</g>
<g>
	<g>
		<path d="M295.402,348.008h-162.9c-5.5,0-10,4.5-10,10s4.5,10,10,10h162.9c5.5,0,10-4.5,10-10S301.002,348.008,295.402,348.008z"/>
	</g>
</g>
<g>
	<g>
		<path d="M297.902,277.008h-175.9v-135.9c0-5.5-4.5-10-10-10s-10,4.5-10,10v136.6c0,10.6,8.2,19.4,18.9,19.4h177.1
			c5.5,0,10-4.5,10-10S303.502,277.008,297.902,277.008z"/>
	</g>
</g>
<g>
	<g>
		<path d="M308.402,153.108c-2.5-0.6-5-0.9-7.4-0.9c-14,0-25.4,11.4-25.5,25.4c0,4,1,8,2.8,11.6l-13.4,14.6
			c-8.7-6.5-20.6-6.7-29.6-0.5l-11.4-9.4c-1.3-14-13.7-24.3-27.7-22.9c-14,1.3-24.3,13.7-22.9,27.7c0.1,0.6,0.1,1.1,0.2,1.7
			l-14.4,18c-13.5-3.9-27.6,3.9-31.5,17.4c-3.9,13.5,3.9,27.6,17.4,31.5c13.5,3.9,27.6-3.9,31.5-17.4c1.8-6.3,1.1-13.1-1.9-18.9
			l10.5-13.2c10.2,6.4,23.4,4.8,31.8-3.9l7.8,6.4c-2.1,13.9,7.4,26.9,21.3,29c13.9,2.1,26.9-7.4,29-21.3c0.2-1.3,0.3-2.6,0.3-3.9
			c0-0.7,0-1.3-0.1-2l18.6-20.2c13.5,4,27.6-3.7,31.7-17.1C329.502,171.308,321.802,157.208,308.402,153.108z M152.002,248.208
			c-3,0-5.5-2.4-5.5-5.5c0-3,2.4-5.5,5.5-5.5c3,0,5.5,2.4,5.5,5.5C157.502,245.808,155.002,248.208,152.002,248.208z
			 M198.602,201.708c-3,0-5.5-2.4-5.5-5.5c0-3,2.4-5.5,5.5-5.5c3,0,5.5,2.4,5.5,5.5
			C204.002,199.208,201.602,201.708,198.602,201.708z M249.802,229.608c-3,0-5.5-2.4-5.5-5.5c0-3.1,2.4-5.5,5.5-5.5
			c3,0,5.5,2.4,5.5,5.5C255.202,227.208,252.802,229.608,249.802,229.608z M301.002,183.108c-3,0-5.5-2.4-5.5-5.5
			c0-3.1,2.4-5.5,5.5-5.5c3,0,5.5,2.4,5.5,5.5C306.402,180.608,304.002,183.108,301.002,183.108z"/>
	</g>
</g>
<g>
</g>
<g>
</g>
<g>
</g>
<g>
</g>
<g>
</g>
<g>
</g>
<g>
</g>
<g>
</g>
<g>
</g>
<g>
</g>
<g>
</g>
<g>
</g>
<g>
</g>
<g>
</g>
<g>
</g>
</svg>
