<?xml version="1.0" encoding="iso-8859-1"?>
<!-- Generator: Adobe Illustrator 19.0.0, SVG Export Plug-In . SVG Version: 6.00 Build 0)  -->
<svg version="1.1" id="Capa_1" xmlns="http://www.w3.org/2000/svg" xmlns:xlink="http://www.w3.org/1999/xlink" x="0px" y="0px"
	 viewBox="0 0 427.91 427.91" style="enable-background:new 0 0 427.91 427.91;" xml:space="preserve">
<g>
	<g>
		<path d="M381.902,92.108l-96.2-89.7c-1.9-1.7-4.3-2.5-6.8-2.4h-186.3c-27.3-0.2-49.4,21.8-49.6,49c0,0.2,0,0.4,0,0.5v328.9
			c-0.1,27.2,21.8,49.4,49,49.5c0.2,0,0.4,0,0.5,0h242.9c27.2,0.2,49.4-21.8,49.5-49c0-0.2,0-0.4,0-0.5v-279.1
			C385.002,96.608,383.902,94.008,381.902,92.108z M289.002,69.308v-36.8l61,56.5h-41.1c-10.9,0.1-19.8-8.6-19.9-19.4
			C289.002,69.508,289.002,69.408,289.002,69.308z M365.002,378.508c0.2,16.2-12.8,29.4-29,29.5c-0.2,0-0.4,0-0.6,0h-242.9
			c-16.2,0.2-29.4-12.8-29.5-29c0-0.2,0-0.4,0-0.6v-328.9c-0.2-16.2,12.8-29.4,29-29.5c0.2,0,0.4,0,0.6,0h176.4v49.3
			c0,21.9,17.8,39.7,39.7,39.7c0.1,0,0.1,0,0.2,0h56.1V378.508z"/>
	</g>
</g>
<g>
	<g>
		<path d="M295.402,348.008h-162.9c-5.5,0-10,4.5-10,10s4.5,10,10,10h162.9c5.5,0,10-4.5,10-10S301.002,348.008,295.402,348.008z"/>
	</g>
</g>
<g>
	<g>
		<path d="M283.702,219.908h-0.1h-75.6v-75.9c0-5.5-4.4-10-9.9-10c0,0,0,0-0.1,0c-25.4-0.1-49.7,10-67.6,28
			c-37.2,37.4-37.1,97.9,0.3,135.1c18,17.9,42.2,27.9,67.4,27.9c52.6,0.1,95.4-42.5,95.5-95.2c0,0,0,0,0-0.1
			C293.602,224.308,289.202,219.908,283.702,219.908z M251.502,283.208c-29.6,29.4-77.5,29.3-106.9-0.4c-14-14.1-21.9-33.3-22-53.2
			c0.1-20,8-39.2,22.1-53.4c11.7-11.7,26.9-19.2,43.3-21.4v74.8c0,5.6,4.5,10.2,10.1,10.4h74.8
			C270.602,256.308,263.102,271.508,251.502,283.208z"/>
	</g>
</g>
<g>
	<g>
		<path d="M297.502,131.008c-0.1-0.2-0.1-0.1-0.2-0.2c-17.9-17.8-42.1-27.8-67.4-27.8c-5.5,0-9.9,4.5-9.9,9.9c0,0,0,0,0,0.1v85.5
			c0,5.3,4.2,9.6,9.5,9.6c0.1,0,0.3,0,0.4,0h85.5c5.4,0.1,9.9-4.2,10-9.6v-0.1C325.402,173.108,315.402,148.908,297.502,131.008z
			 M240.002,123.708c3.5,0.5,7,1.2,10.5,2.1l-10.5,10.5V123.708z M240.002,164.608l30-30.1c1.9,1.2,3.8,2.5,5.6,3.9l-35.6,35.6
			V164.608z M253.802,188.008l35.9-35.7c1.4,1.8,2.7,3.6,3.9,5.5l-30.4,30.2H253.802z M291.502,188.008l10.9-10.9
			c1,3.6,1.7,7.2,2.3,10.9H291.502z"/>
	</g>
</g>
<g>
</g>
<g>
</g>
<g>
</g>
<g>
</g>
<g>
</g>
<g>
</g>
<g>
</g>
<g>
</g>
<g>
</g>
<g>
</g>
<g>
</g>
<g>
</g>
<g>
</g>
<g>
</g>
<g>
</g>
</svg>
