<?xml version="1.0" encoding="iso-8859-1"?>
<!-- Generator: Adobe Illustrator 19.0.0, SVG Export Plug-In . SVG Version: 6.00 Build 0)  -->
<svg version="1.1" id="Capa_1" xmlns="http://www.w3.org/2000/svg" xmlns:xlink="http://www.w3.org/1999/xlink" x="0px" y="0px"
	 viewBox="0 0 427.91 427.91" style="enable-background:new 0 0 427.91 427.91;" xml:space="preserve">
<g>
	<g>
		<path d="M381.902,92.108l-96.2-89.7c-1.9-1.7-4.3-2.5-6.8-2.4h-186.3c-27.3-0.2-49.4,21.8-49.6,49c0,0.2,0,0.4,0,0.5v328.9
			c-0.1,27.2,21.8,49.4,49,49.5c0.2,0,0.4,0,0.5,0h242.9c27.2,0.2,49.4-21.8,49.5-49c0-0.2,0-0.4,0-0.5v-279.1
			C385.002,96.608,383.902,94.008,381.902,92.108z M289.002,69.308v-36.8l61,56.5h-41.1c-10.9,0.1-19.8-8.6-19.9-19.4
			C289.002,69.508,289.002,69.408,289.002,69.308z M365.002,378.508c0.2,16.2-12.8,29.4-29,29.5c-0.2,0-0.4,0-0.6,0h-242.9
			c-16.2,0.2-29.4-12.8-29.5-29c0-0.2,0-0.4,0-0.6v-328.9c-0.2-16.2,12.8-29.4,29-29.5c0.2,0,0.4,0,0.6,0h176.4v49.3
			c0,21.9,17.8,39.7,39.7,39.7c0.1,0,0.1,0,0.2,0h56.1V378.508z"/>
	</g>
</g>
<g>
	<g>
		<path d="M295.402,348.008h-162.9c-5.5,0-10,4.5-10,10s4.5,10,10,10h162.9c5.5,0,10-4.5,10-10S301.002,348.008,295.402,348.008z"/>
	</g>
</g>
<g>
	<g>
		<path d="M326.502,203.508c-2.4-22.1-11.1-42.8-25.2-59.8c-3.2-3.8-8.8-4.4-12.7-1.2c-0.2,0.2-0.4,0.4-0.6,0.6l-38.8,38.6
			c-3,3-3.5,7.7-1.2,11.3c2.7,4.4,4.7,9.2,6,14.3c1,4,4.6,6.8,8.7,6.8h53.7c0.3,0,0.7,0,1,0h0.2c4,0,7.5-2.6,8.6-6.5
			c0.2-0.8,0.4-1.7,0.4-2.5C326.602,204.608,326.602,204.008,326.502,203.508z M269.302,196.008c-0.7-2-1.6-4.2-2.6-6.4l26.6-26.5
			c6.6,10,11.3,21.2,13.7,32.9H269.302z"/>
	</g>
</g>
<g>
	<g>
		<path d="M286.502,128.908c-0.2-0.2-0.4-0.4-0.6-0.6c-17.2-14.2-38.2-23-60.4-25.1c-4.9-0.7-9.5,2.7-10.2,7.6
			c-0.1,0.4-0.1,0.9-0.1,1.3v54.9c-0.2,4.2,2.9,7.9,7.2,8.7c4.9,1,9.6,3,13.9,5.8c3.6,2.3,8.3,1.9,11.3-1.1l38.9-38.8
			C290.002,138.108,290.002,132.408,286.502,128.908z M239.702,162.808c-2.2-1.1-4.4-2-6.7-2.8v-37.6c11.9,2.4,23.2,7.1,33.3,13.8
			L239.702,162.808z"/>
	</g>
</g>
<g>
	<g>
		<path d="M202.102,103.108c-0.3,0-0.6,0-0.9,0c-25.8,2.6-49.8,14.1-68,32.5c-18.1,18.5-29.3,42.6-31.8,68.4
			c-0.5,4.9,3.1,9.3,8.1,9.8c0.2,0.2,0.5,0.2,0.8,0.2h54.9c4.2,0,7.9-2.9,8.8-7.1c3.2-14.4,16.1-27.7,30.2-31.1c4-1,6.9-4.6,6.9-8.8
			v-54.9C211.102,107.108,207.102,103.108,202.102,103.108z M193.002,160.508c-15.4,6.1-28.7,19.8-34.5,35.5h-37.8
			c3.6-18,12.4-34.5,25.3-47.6c12.8-13,29.2-21.9,47-25.7V160.508z"/>
	</g>
</g>
<g>
	<g>
		<path d="M205.502,255.408h-0.2c-15.8-3.3-28.1-15.7-31.5-31.5c-0.9-4.2-4.6-7.2-8.8-7.2l-55,0.1c-5,0-9,4-9,9c0,0.3,0,0.6,0,0.9
			c5.4,53.6,47.7,96.1,101.2,101.5c0.3,0,0.6,0,0.9,0c4.9,0,9-4,9-8.9c0,0,0.1-13.7,0.2-27.5c0.1-6.9,0.1-13.8,0.1-18.9
			c0-2.6,0-4.7,0-6.3c0-0.8,0-1.4,0-1.8C212.402,257.508,206.602,255.708,205.502,255.408z M194.102,308.808
			c-37.1-7.8-66-36.8-73.7-73.9l37.8-0.1c5.9,17,19.2,30.4,36.2,36.3C194.402,279.608,194.202,295.008,194.102,308.808z"/>
	</g>
</g>
<g>
	<g>
		<path d="M318.402,218.108c-0.3-0.1-0.6-0.1-0.9-0.1h-54.9c-4.2,0-7.8,2.9-8.8,7c-3.4,15.1-16.4,27.9-31.6,31
			c-4.2,0.9-7.2,4.5-7.2,8.8l-0.2,54.9c0,5,4,9,9,9c0.3,0,0.6,0,1,0h0.2c53.5-5.2,96.2-47.6,101.5-100.8
			C327.002,223.008,323.402,218.508,318.402,218.108z M249.102,304.608l-16.2-16.2l0.1-16.7c2.6-0.9,5.2-2,7.6-3.3l26.6,26.6
			C261.502,298.808,255.502,302.008,249.102,304.608z M281.202,283.408l-25.9-25.9c4.7-4.6,8.6-10,11.6-16l26.7,26.7
			C290.002,273.708,285.802,278.808,281.202,283.408z M302.302,251.508l-15.5-15.5h20.2
			C305.902,241.308,304.302,246.508,302.302,251.508z"/>
	</g>
</g>
<g>
</g>
<g>
</g>
<g>
</g>
<g>
</g>
<g>
</g>
<g>
</g>
<g>
</g>
<g>
</g>
<g>
</g>
<g>
</g>
<g>
</g>
<g>
</g>
<g>
</g>
<g>
</g>
<g>
</g>
</svg>
