<?xml version="1.0" encoding="iso-8859-1"?>
<!-- Generator: Adobe Illustrator 19.0.0, SVG Export Plug-In . SVG Version: 6.00 Build 0)  -->
<svg version="1.1" id="Capa_1" xmlns="http://www.w3.org/2000/svg" xmlns:xlink="http://www.w3.org/1999/xlink" x="0px" y="0px"
	 viewBox="0 0 427.91 427.91" style="enable-background:new 0 0 427.91 427.91;" xml:space="preserve">
<g>
	<g>
		<path d="M381.902,92.108l-96.2-89.7c-1.9-1.7-4.3-2.5-6.8-2.4h-186.3c-27.3-0.2-49.4,21.8-49.6,49c0,0.2,0,0.4,0,0.5v328.9
			c-0.1,27.2,21.8,49.4,49,49.5c0.2,0,0.4,0,0.5,0h242.9c27.2,0.2,49.4-21.8,49.5-49c0-0.2,0-0.4,0-0.5v-279.1
			C385.002,96.608,383.902,94.008,381.902,92.108z M289.002,69.308v-36.8l61,56.5h-41.1c-10.9,0.1-19.8-8.6-19.9-19.4
			C289.002,69.508,289.002,69.408,289.002,69.308z M365.002,378.508c0.2,16.2-12.8,29.4-29,29.5c-0.2,0-0.4,0-0.6,0h-242.9
			c-16.2,0.2-29.4-12.8-29.5-29c0-0.2,0-0.4,0-0.6v-328.9c-0.2-16.2,12.8-29.4,29-29.5c0.2,0,0.4,0,0.6,0h176.4v49.3
			c0,21.9,17.8,39.7,39.7,39.7c0.1,0,0.1,0,0.2,0h56.1V378.508z"/>
	</g>
</g>
<g>
	<g>
		<path d="M295.402,348.008h-162.9c-5.5,0-10,4.5-10,10s4.5,10,10,10h162.9c5.5,0,10-4.5,10-10S301.002,348.008,295.402,348.008z"/>
	</g>
</g>
<g>
	<g>
		<path d="M300.402,143.408l-46.4-3.3c-5.5-0.4-10.3,3.7-10.7,9.2c-0.4,5.5,3.7,10.3,9.2,10.7h0.1l20.4,1.5l-47.8,37.1l-43.2-34.1
			c-3.9-3.1-9.5-2.8-13.1,0.6l-47.5,45.5c-4,3.8-4.2,10.1-0.4,14.1s10.1,4.2,14.1,0.4l0.1-0.1l41.2-39.5l42.6,33.5
			c3.6,2.8,8.7,2.9,12.3,0l56.7-44l-1.6,20.5c-0.4,5.5,3.7,10.3,9.2,10.7c0.3,0,0.5,0,0.8,0c5.2,0,9.6-4,10-9.2l3.3-43
			C310.102,148.608,306.002,143.808,300.402,143.408z"/>
	</g>
</g>
<g>
	<g>
		<path d="M229.002,239.008h-29c-5.5,0-10,4.5-10,10v69c0,5.5,4.5,10,10,10h29c5.5,0,10-4.5,10-10v-69
			C239.002,243.508,234.502,239.008,229.002,239.008z M219.002,308.008h-9v-49h9V308.008z"/>
	</g>
</g>
<g>
	<g>
		<path d="M170.002,258.008h-29c-5.5,0-10,4.5-10,10v50c0,5.5,4.5,10,10,10h29c5.5,0,10-4.5,10-10v-50
			C180.002,262.508,175.502,258.008,170.002,258.008z M159.002,308.008h-8v-30h8V308.008z"/>
	</g>
</g>
<g>
	<g>
		<path d="M288.002,224.008h-29c-5.5,0-10,4.5-10,10v84c0,5.5,4.5,10,10,10h29c5.5,0,10-4.5,10-10v-84
			C298.002,228.508,293.502,224.008,288.002,224.008z M278.002,308.008h-9v-64h9V308.008z"/>
	</g>
</g>
<g>
</g>
<g>
</g>
<g>
</g>
<g>
</g>
<g>
</g>
<g>
</g>
<g>
</g>
<g>
</g>
<g>
</g>
<g>
</g>
<g>
</g>
<g>
</g>
<g>
</g>
<g>
</g>
<g>
</g>
</svg>
