<?xml version="1.0" encoding="iso-8859-1"?>
<!-- Generator: Adobe Illustrator 19.0.0, SVG Export Plug-In . SVG Version: 6.00 Build 0)  -->
<svg version="1.1" id="Capa_1" xmlns="http://www.w3.org/2000/svg" xmlns:xlink="http://www.w3.org/1999/xlink" x="0px" y="0px"
	 viewBox="0 0 427.91 427.91" style="enable-background:new 0 0 427.91 427.91;" xml:space="preserve">
<g>
	<g>
		<path d="M381.902,92.108l-96.2-89.7c-1.9-1.7-4.3-2.5-6.8-2.4h-186.3c-27.3-0.2-49.4,21.8-49.6,49c0,0.2,0,0.4,0,0.5v328.9
			c-0.1,27.2,21.8,49.4,49,49.5c0.2,0,0.4,0,0.5,0h242.9c27.2,0.2,49.4-21.8,49.5-49c0-0.2,0-0.4,0-0.5v-279.1
			C385.002,96.608,383.902,94.008,381.902,92.108z M289.002,69.308v-36.8l61,56.5h-41.1c-10.9,0.1-19.8-8.6-19.9-19.4
			C289.002,69.508,289.002,69.408,289.002,69.308z M365.002,378.508c0.2,16.2-12.8,29.4-29,29.5c-0.2,0-0.4,0-0.6,0h-242.9
			c-16.2,0.2-29.4-12.8-29.5-29c0-0.2,0-0.4,0-0.6v-328.9c-0.2-16.2,12.8-29.4,29-29.5c0.2,0,0.4,0,0.6,0h176.4v49.3
			c0,21.9,17.8,39.7,39.7,39.7c0.1,0,0.1,0,0.2,0h56.1V378.508z"/>
	</g>
</g>
<g>
	<g>
		<path d="M295.402,348.008h-162.9c-5.5,0-10,4.5-10,10s4.5,10,10,10h162.9c5.5,0,10-4.5,10-10S301.002,348.008,295.402,348.008z"/>
	</g>
</g>
<g>
	<g>
		<path d="M314.302,128.708c-4.4-3.2-9.8-5-15.3-5c-14.1,0-25.6,11.4-25.6,25.5c0,1.1,0.1,2.2,0.2,3.2l-16.4,11.6
			c-11.5-8.2-27.5-5.5-35.7,6c-4.1,5.8-5.7,13.1-4.2,20.1l-14.2,12c-10.4-9.6-26.6-8.9-36.2,1.5c-1.1,1.2-2.2,2.6-3,4l-10.2-4.1
			c-3.9-13.6-18.2-21.4-31.8-17.5c-13.6,3.9-21.4,18.2-17.5,31.8c3.9,13.6,18.2,21.4,31.8,17.5c6.1-1.8,11.4-5.8,14.7-11.3l10.2,4.1
			c3.9,13.6,18.2,21.4,31.7,17.4c10.8-3.1,18.3-13,18.5-24.3l17.4-14.7c12,7.5,27.8,3.9,35.3-8c2.6-4.1,3.9-8.8,3.9-13.7
			c0-1.3-0.1-2.5-0.3-3.7l16-11.3c11.3,8.5,27.4,6.2,35.9-5.2C328.002,153.208,325.702,137.208,314.302,128.708z M129.002,216.308
			c-3.1,0-5.6-2.5-5.6-5.6c0-3.1,2.5-5.6,5.6-5.6c3.1,0,5.6,2.5,5.6,5.6C134.702,213.708,132.102,216.208,129.002,216.308z
			 M185.702,226.608c-3.1,0-5.6-2.5-5.6-5.6c0-3.1,2.5-5.6,5.6-5.6c3.1,0,5.6,2.5,5.6,5.6
			C191.302,224.008,188.802,226.508,185.702,226.608z M242.302,190.508c-3.1,0-5.6-2.5-5.6-5.6c0-3.1,2.5-5.6,5.6-5.6
			c3.1,0,5.6,2.5,5.6,5.6C247.902,188.008,245.402,190.508,242.302,190.508z M299.002,154.908c-3.1,0-5.6-2.5-5.6-5.6
			c0-3.1,2.5-5.6,5.6-5.6c3.1,0,5.6,2.5,5.6,5.6C304.602,152.408,302.102,154.908,299.002,154.908z"/>
	</g>
</g>
<g>
	<g>
		<path d="M313.002,181.008h-28c-5.5,0-10,4.5-10,10v117c0,5.5,4.5,10,10,10h28c5.5,0,10-4.5,10-10v-117
			C323.002,185.508,318.502,181.008,313.002,181.008z M303.002,298.008h-8v-97h8V298.008z"/>
	</g>
</g>
<g>
	<g>
		<path d="M256.002,217.008h-28c-5.5,0-10,4.5-10,10v82c0,5.5,4.5,10,10,10h28c5.5,0,10-4.5,10-10v-82
			C266.002,221.508,261.502,217.008,256.002,217.008z M246.002,298.008h-8v-61h8V298.008z"/>
	</g>
</g>
<g>
	<g>
		<path d="M200.002,253.008h-28c-5.5,0-10,4.5-10,10v45c0,5.5,4.5,10,10,10h28c5.5,0,10-4.5,10-10v-45
			C210.002,257.508,205.502,253.008,200.002,253.008z M190.002,298.008h-8v-25h8V298.008z"/>
	</g>
</g>
<g>
	<g>
		<path d="M143.002,243.008h-28c-5.5,0-10,4.5-10,10v55c0,5.5,4.5,10,10,10h28c5.5,0,10-4.5,10-10v-55
			C153.002,247.508,148.502,243.008,143.002,243.008z M133.002,298.008h-8v-35h8V298.008z"/>
	</g>
</g>
<g>
</g>
<g>
</g>
<g>
</g>
<g>
</g>
<g>
</g>
<g>
</g>
<g>
</g>
<g>
</g>
<g>
</g>
<g>
</g>
<g>
</g>
<g>
</g>
<g>
</g>
<g>
</g>
<g>
</g>
</svg>
