<?xml version="1.0" encoding="iso-8859-1"?>
<!-- Generator: Adobe Illustrator 19.0.0, SVG Export Plug-In . SVG Version: 6.00 Build 0)  -->
<svg version="1.1" id="Capa_1" xmlns="http://www.w3.org/2000/svg" xmlns:xlink="http://www.w3.org/1999/xlink" x="0px" y="0px"
	 viewBox="0 0 456 456" style="enable-background:new 0 0 456 456;" xml:space="preserve">
<g>
	<g>
		<path d="M446.5,6H94.3C88.7,6,84.2,10.5,84,16.1V261H9.5C4,261,0,265.5,0,271v126.5C0,426.4,23,450,51.9,450h341.6
			c34.7,0,62.5-28.4,62.5-63.1V16.1C456,10.6,452,6,446.5,6z M84,397.5c0,17.7-14.3,32-32,32s-32-14.3-32-32V281h64V397.5z
			 M436,386.9c0,23.7-18.8,43.1-42.5,43.1H93c7.2-9.3,11.1-20.7,11-32.5V26h332V386.9z"/>
	</g>
</g>
<g>
	<g>
		<path d="M362.1,347h-182c-5.5,0-10,4.5-10,10s4.5,10,10,10h182c5.5,0,10-4.5,10-10S367.6,347,362.1,347z"/>
	</g>
</g>
<g>
	<g>
		<path d="M342.7,204h-0.1H267v-75.9c0-5.5-4.4-10-9.9-10c0,0,0,0-0.1,0c-25.4-0.1-49.7,10-67.6,28c-37.2,37.4-37.1,97.9,0.3,135.1
			c18,17.8,42.2,27.8,67.4,27.8c52.6,0.1,95.4-42.6,95.5-95.2C352.6,208.4,348.2,204,342.7,204z M310.5,267.2
			c-29.6,29.4-77.5,29.3-106.9-0.4c-14-14.1-21.9-33.3-22-53.2c0.1-20,8-39.2,22.1-53.4c11.7-11.7,26.9-19.2,43.3-21.4v74.8
			c0,5.6,4.5,10.2,10.1,10.4h74.8C329.6,240.3,322.1,255.5,310.5,267.2z"/>
	</g>
</g>
<g>
	<g>
		<path d="M356.5,114.8c0,0-0.1,0-0.1-0.1c-17.9-17.8-42.1-27.8-67.4-27.8c-5.5,0-9.9,4.5-9.9,10v85.5c0,5.3,4.2,9.6,9.5,9.6
			c0,0,0.1,0,0.3,0h85.5c5.4,0.1,9.9-4.2,10-9.7v-0.1C384.4,156.9,374.4,132.7,356.5,114.8z M299,107.7c3.5,0.5,7,1.2,10.5,2.1
			L299,120.3V107.7z M299,148.6l30-30c1.9,1.2,3.8,2.5,5.6,3.8L299,158V148.6z M312.8,172l35.9-35.7c1.4,1.8,2.7,3.6,3.9,5.5
			L322.2,172H312.8z M350.5,172l10.9-10.9c1,3.6,1.7,7.2,2.3,10.9H350.5z"/>
	</g>
</g>
<g>
</g>
<g>
</g>
<g>
</g>
<g>
</g>
<g>
</g>
<g>
</g>
<g>
</g>
<g>
</g>
<g>
</g>
<g>
</g>
<g>
</g>
<g>
</g>
<g>
</g>
<g>
</g>
<g>
</g>
</svg>
