<?xml version="1.0" encoding="iso-8859-1"?>
<!-- Generator: Adobe Illustrator 19.0.0, SVG Export Plug-In . SVG Version: 6.00 Build 0)  -->
<svg version="1.1" id="Capa_1" xmlns="http://www.w3.org/2000/svg" xmlns:xlink="http://www.w3.org/1999/xlink" x="0px" y="0px"
	 viewBox="0 0 456 456" style="enable-background:new 0 0 456 456;" xml:space="preserve">
<g>
	<g>
		<path d="M446.5,6H94.3C88.7,6,84.2,10.5,84,16.1V261H9.5C4,261,0,265.5,0,271v126.5C0,426.4,23,450,51.9,450h341.6
			c34.7,0,62.5-28.4,62.5-63.1V16.1C456,10.6,452,6,446.5,6z M84,397.5c0,17.7-14.3,32-32,32s-32-14.3-32-32V281h64V397.5z
			 M436,386.9c0,23.7-18.8,43.1-42.5,43.1H93c7.2-9.3,11.1-20.7,11-32.5V26h332V386.9z"/>
	</g>
</g>
<g>
	<g>
		<path d="M362.1,347h-182c-5.5,0-10,4.5-10,10s4.5,10,10,10h182c5.5,0,10-4.5,10-10S367.6,347,362.1,347z"/>
	</g>
</g>
<g>
	<g>
		<path d="M316,125h-32.5c-5.6,0-10.2,4.5-10.4,10.1v160.4c0.1,5.7,4.6,10.3,10.3,10.5H316c5.5,0,10-4.9,10-10.4V135.1
			C326,129.5,321.5,125,316,125z M306,286h-13v-36h13V286z M306,230h-13v-85h13V230z"/>
	</g>
</g>
<g>
	<g>
		<path d="M374.6,100h-33.2c-5.7,0.2-10.3,4.8-10.4,10.4v185.1c0.2,5.7,4.7,10.3,10.4,10.5h33.2c5.7-0.2,10.3-4.8,10.4-10.4V110.5
			C384.8,104.8,380.3,100.2,374.6,100z M365,286h-14v-36h14V286z M365,230h-14V120h14V230z"/>
	</g>
</g>
<g>
	<g>
		<path d="M258.1,150H258h-32.6c-5.5,0-10.4,4.3-10.4,9.8v135.7c0.2,5.7,4.7,10.3,10.4,10.5H258c5.5,0,10-4.9,10-10.4V159.8
			C268,154.4,263.5,150,258.1,150z M248,286h-13v-36h13V286z M248,230h-13v-60h13V230z"/>
	</g>
</g>
<g>
	<g>
		<path d="M200,193h-32.6c-5.5,0-10.4,4.5-10.4,10v92.6c0.2,5.6,4.7,10.2,10.4,10.4H200c5.5,0,10-4.9,10-10.4V203
			C210,197.5,205.5,193,200,193z M190,286h-13v-36h13V286z M190,230h-13v-17h13V230z"/>
	</g>
</g>
<g>
</g>
<g>
</g>
<g>
</g>
<g>
</g>
<g>
</g>
<g>
</g>
<g>
</g>
<g>
</g>
<g>
</g>
<g>
</g>
<g>
</g>
<g>
</g>
<g>
</g>
<g>
</g>
<g>
</g>
</svg>
