<?xml version="1.0" encoding="iso-8859-1"?>
<!-- Generator: Adobe Illustrator 19.0.0, SVG Export Plug-In . SVG Version: 6.00 Build 0)  -->
<svg version="1.1" id="Capa_1" xmlns="http://www.w3.org/2000/svg" xmlns:xlink="http://www.w3.org/1999/xlink" x="0px" y="0px"
	 viewBox="0 0 456 456" style="enable-background:new 0 0 456 456;" xml:space="preserve">
<g>
	<g>
		<path d="M446.5,6H94.3C88.7,6,84.2,10.5,84,16.1V261H9.5C4,261,0,265.5,0,271v126.5C0,426.4,23,450,51.9,450h341.6
			c34.7,0,62.5-28.4,62.5-63.1V16.1C456,10.6,452,6,446.5,6z M84,397.5c0,17.7-14.3,32-32,32s-32-14.3-32-32V281h64V397.5z
			 M436,386.9c0,23.7-18.8,43.1-42.5,43.1H93c7.2-9.3,11.1-20.7,11-32.5V26h332V386.9z"/>
	</g>
</g>
<g>
	<g>
		<path d="M362.1,347h-182c-5.5,0-10,4.5-10,10s4.5,10,10,10h182c5.5,0,10-4.5,10-10S367.6,347,362.1,347z"/>
	</g>
</g>
<g>
	<g>
		<path d="M371.2,115.8c-11.3-8.5-27.4-6.1-35.8,5.2c-3.3,4.4-5.1,9.8-5.1,15.3c0,1,0.1,2.1,0.2,3.1L314.2,151
			c-11.5-8.2-27.5-5.5-35.7,6c-4.1,5.8-5.7,13.1-4.2,20.1l-14.2,12c-10.4-9.6-26.6-8.9-36.2,1.5c-1.1,1.2-2.2,2.6-3,4l-10.2-4.1
			c-3.9-13.6-18.2-21.4-31.8-17.4c-13.6,3.9-21.4,18.2-17.4,31.8c3.1,10.8,13.1,18.4,24.5,18.4c8.9,0,17.2-4.7,21.9-12.3l10.2,4.1
			c3.9,13.6,18.2,21.4,31.7,17.4c10.8-3.1,18.3-13,18.5-24.3l17.4-14.7c12,7.5,27.8,3.9,35.3-8c2.6-4.1,3.9-8.8,3.9-13.7
			c0-1.3-0.1-2.5-0.3-3.7l16-11.3c11.3,8.5,27.4,6.1,35.8-5.2C384.9,140.3,382.5,124.2,371.2,115.8z M186,203.2
			c-3.1,0-5.6-2.5-5.6-5.6c0-3.1,2.5-5.6,5.6-5.6c3.1,0,5.6,2.5,5.6,5.6C191.6,200.7,189.1,203.2,186,203.2z M242.7,213.5
			c-3.1,0-5.6-2.5-5.6-5.6c0-3.1,2.5-5.6,5.6-5.6c3.1,0,5.6,2.5,5.6,5.6C248.3,211,245.8,213.5,242.7,213.5z M299.3,177.5
			c-3.1,0-5.6-2.5-5.6-5.6c0-3.1,2.5-5.6,5.6-5.6c3.1,0,5.6,2.5,5.6,5.6C304.9,175,302.4,177.5,299.3,177.5z M356,141.9
			c-3.1,0-5.6-2.5-5.6-5.6c-0.1-3.1,2.5-5.6,5.6-5.6c3.1,0,5.6,2.5,5.6,5.6C361.6,139.4,359.1,141.9,356,141.9z"/>
	</g>
</g>
<g>
	<g>
		<path d="M370,168h-28c-5.5,0-10,4.5-10,10v117c0,5.5,4.5,10,10,10h28c5.5,0,10-4.5,10-10V178C380,172.5,375.5,168,370,168z
			 M360,285h-8v-97h8V285z"/>
	</g>
</g>
<g>
	<g>
		<path d="M313,204h-28c-5.5,0-10,4.5-10,10v82c0,5.5,4.5,10,10,10h28c5.5,0,10-4.5,10-10v-82C323,208.5,318.5,204,313,204z
			 M303,285h-8v-61h8V285z"/>
	</g>
</g>
<g>
	<g>
		<path d="M257,240h-28c-5.5,0-10,4.5-10,10v45c0,5.5,4.5,10,10,10h28c5.5,0,10-4.5,10-10v-45C267,244.5,262.5,240,257,240z
			 M247,285h-8v-25h8V285z"/>
	</g>
</g>
<g>
	<g>
		<path d="M200,230h-28c-5.5,0-10,4.5-10,10v55c0,5.5,4.5,10,10,10h28c5.5,0,10-4.5,10-10v-55C210,234.5,205.5,230,200,230z
			 M190,285h-8v-35h8V285z"/>
	</g>
</g>
<g>
</g>
<g>
</g>
<g>
</g>
<g>
</g>
<g>
</g>
<g>
</g>
<g>
</g>
<g>
</g>
<g>
</g>
<g>
</g>
<g>
</g>
<g>
</g>
<g>
</g>
<g>
</g>
<g>
</g>
</svg>
