<?xml version="1.0" encoding="iso-8859-1"?>
<!-- Generator: Adobe Illustrator 19.0.0, SVG Export Plug-In . SVG Version: 6.00 Build 0)  -->
<svg version="1.1" id="Capa_1" xmlns="http://www.w3.org/2000/svg" xmlns:xlink="http://www.w3.org/1999/xlink" x="0px" y="0px"
	 viewBox="0 0 465.9 465.9" style="enable-background:new 0 0 465.9 465.9;" xml:space="preserve">
<g>
	<g>
		<path d="M431.7,21.9H34.3C15.4,22,0.1,37.2,0,56.1v268.8c0.2,18.8,15.5,34,34.3,34.1h118.6l-15.3,65h-24.5c-5.5,0-10,4.5-10,10
			s4.5,10,10,10h239.2c5.5,0,10-4.5,10-10s-4.5-10-10-10h-24.5l-15.3-65h119.1c18.8,0,34.1-15.2,34.3-34.1V56.1
			C465.9,37.2,450.6,22,431.7,21.9z M158.1,423.9l15.3-65H292l15.3,65H158.1z M445,324.9c0,7.7-6.3,14-14,14H34c-7.7,0-14-6.3-14-14
			v-269c0-7.7,6.3-14,14-14h397c7.7,0,14,6.3,14,14V324.9z"/>
	</g>
</g>
<g>
	<g>
		<path d="M425,51.9H40c-5.5,0-10,4.5-10,10v257c0,5.5,4.5,10,10,10h385c5.5,0,10-4.5,10-10v-257C435,56.4,430.5,51.9,425,51.9z
			 M416,308.9H50v-237h366V308.9z"/>
	</g>
</g>
<g>
	<g>
		<path d="M317,253.9H141V118c0-5.5-4.5-10-10-10s-10,4.5-10,10v136.6c0,10.6,8.2,19.3,18.9,19.3H317c5.5,0,10-4.5,10-10
			S322.5,253.9,317,253.9z"/>
	</g>
</g>
<g>
	<g>
		<path d="M327.4,129.9c-13.5-4-27.7,3.6-31.7,17.1c-1.9,6.3-1.3,13.1,1.7,18.9L284,180.5c-8.7-6.5-20.6-6.7-29.6-0.5l-11.5-9.4
			c-1.3-14-13.7-24.3-27.7-23c-14,1.3-24.3,13.7-23,27.7c0.1,0.6,0.1,1.2,0.2,1.7L178,195c-13.5-3.9-27.6,3.9-31.5,17.4
			c-3.9,13.5,3.9,27.6,17.4,31.5c2.4,0.9,4.7,1.2,7.1,1.2c14,0,25.4-11.4,25.5-25.4c0-4.1-1-8.2-2.9-11.9l10.5-13.2
			c10.2,6.4,23.4,4.8,31.8-3.9l7.8,6.4c-2.1,13.9,7.4,26.9,21.3,29c13.9,2.1,26.9-7.4,29-21.3c0.2-1.3,0.3-2.6,0.3-3.9
			c0-0.7,0-1.3-0.1-2l18.6-20.2c13.5,4,27.7-3.6,31.7-17.1S340.9,133.9,327.4,129.9z M171,225.2c-3,0-5.5-2.4-5.5-5.5
			c0.1-3,2.5-5.5,5.5-5.5s5.5,2.4,5.5,5.5C176.5,222.7,174.1,225.2,171,225.2z M217.6,178.7c-3,0-5.5-2.4-5.5-5.5
			c0-3.1,2.5-5.5,5.5-5.5s5.5,2.4,5.5,5.5C223.1,176.2,220.7,178.7,217.6,178.7z M268.8,206.6c-3,0-5.5-2.4-5.5-5.5
			c0-3,2.5-5.5,5.5-5.5s5.5,2.4,5.5,5.5C274.3,204.2,271.9,206.6,268.8,206.6z M320,160.1c-3,0-5.5-2.4-5.5-5.5
			c0-3.1,2.5-5.5,5.5-5.5s5.5,2.4,5.5,5.5C325.5,157.7,323.1,160.1,320,160.1z"/>
	</g>
</g>
<g>
</g>
<g>
</g>
<g>
</g>
<g>
</g>
<g>
</g>
<g>
</g>
<g>
</g>
<g>
</g>
<g>
</g>
<g>
</g>
<g>
</g>
<g>
</g>
<g>
</g>
<g>
</g>
<g>
</g>
</svg>
