<?xml version="1.0" encoding="iso-8859-1"?>
<!-- Generator: Adobe Illustrator 19.0.0, SVG Export Plug-In . SVG Version: 6.00 Build 0)  -->
<svg version="1.1" id="Capa_1" xmlns="http://www.w3.org/2000/svg" xmlns:xlink="http://www.w3.org/1999/xlink" x="0px" y="0px"
	 viewBox="0 0 465.9 465.9" style="enable-background:new 0 0 465.9 465.9;" xml:space="preserve">
<g>
	<g>
		<path d="M431.7,21.9H34.3C15.4,22,0.1,37.2,0,56.1v268.8c0.2,18.8,15.5,34,34.3,34.1h118.6l-15.3,65h-24.5c-5.5,0-10,4.5-10,10
			s4.5,10,10,10h239.2c5.5,0,10-4.5,10-10s-4.5-10-10-10h-24.5l-15.3-65h119.1c18.8,0,34.1-15.2,34.3-34.1V56.1
			C465.9,37.2,450.6,22,431.7,21.9z M158.1,423.9l15.3-65H292l15.3,65H158.1z M445,324.9c0,7.7-6.3,14-14,14H34c-7.7,0-14-6.3-14-14
			v-269c0-7.7,6.3-14,14-14h397c7.7,0,14,6.3,14,14V324.9z"/>
	</g>
</g>
<g>
	<g>
		<path d="M425,51.9H40c-5.5,0-10,4.5-10,10v257c0,5.5,4.5,10,10,10h385c5.5,0,10-4.5,10-10v-257C435,56.4,430.5,51.9,425,51.9z
			 M416,308.9H50v-237h366V308.9z"/>
	</g>
</g>
<g>
	<g>
		<path d="M302.7,196.9h-0.1H227V121c0-5.5-4.4-10-9.9-10c0,0,0,0-0.1,0c-25.4-0.1-49.7,10-67.6,28c-37.2,37.4-37.1,97.9,0.3,135.1
			c18,17.8,42.2,27.8,67.4,27.8c52.6,0.1,95.4-42.5,95.5-95.2C312.6,201.3,308.2,196.9,302.7,196.9z M270.5,260.1
			c-29.6,29.4-77.5,29.3-106.9-0.4c-14-14.1-21.9-33.2-22-53.2c0.1-20,8-39.2,22.1-53.4c11.7-11.7,26.9-19.2,43.3-21.4v74.8
			c0,5.6,4.5,10.2,10.1,10.4h74.8C289.6,233.2,282.1,248.4,270.5,260.1z"/>
	</g>
</g>
<g>
	<g>
		<path d="M316.5,107.8c0,0-0.1,0-0.1-0.1c-17.9-17.8-42.1-27.8-67.4-27.8c-5.5,0-9.9,4.5-9.9,10v85.5c0,5.3,4.2,9.6,9.5,9.6
			c0-0.1,0.1-0.1,0.3-0.1h85.5c5.4,0.1,9.9-4.2,10-9.6v-0.1C344.4,149.9,334.4,125.7,316.5,107.8z M259,100.6
			c3.5,0.5,7,1.2,10.5,2.1L259,113.2V100.6z M259,141.5l30-30.1c1.9,1.2,3.8,2.5,5.6,3.8L259,150.9V141.5z M272.8,164.9l35.9-35.7
			c1.4,1.8,2.7,3.6,3.9,5.5l-30.4,30.2H272.8z M310.5,164.9l10.9-10.9c1,3.6,1.7,7.2,2.3,10.9H310.5z"/>
	</g>
</g>
<g>
</g>
<g>
</g>
<g>
</g>
<g>
</g>
<g>
</g>
<g>
</g>
<g>
</g>
<g>
</g>
<g>
</g>
<g>
</g>
<g>
</g>
<g>
</g>
<g>
</g>
<g>
</g>
<g>
</g>
</svg>
