<?xml version="1.0" encoding="iso-8859-1"?>
<!-- Generator: Adobe Illustrator 19.0.0, SVG Export Plug-In . SVG Version: 6.00 Build 0)  -->
<svg version="1.1" id="Capa_1" xmlns="http://www.w3.org/2000/svg" xmlns:xlink="http://www.w3.org/1999/xlink" x="0px" y="0px"
	 viewBox="0 0 465.9 465.9" style="enable-background:new 0 0 465.9 465.9;" xml:space="preserve">
<g>
	<g>
		<path d="M431.7,21.9H34.3C15.4,22,0.1,37.2,0,56.1v268.8c0.2,18.8,15.4,34,34.3,34.1h118.6l-15.3,65h-24.5c-5.5,0-10,4.5-10,10
			s4.5,10,10,10h239.2c5.5,0,10-4.5,10-10s-4.5-10-10-10h-24.5l-15.3-65h119.1c18.8,0,34.1-15.2,34.3-34.1V56.1
			C465.9,37.2,450.6,22,431.7,21.9z M158.1,423.9l15.3-65H292l15.3,65H158.1z M445,324.9c0,7.7-6.3,14-14,14H34c-7.7,0-14-6.3-14-14
			v-269c0-7.7,6.3-14,14-14h397c7.7,0,14,6.3,14,14V324.9z"/>
	</g>
</g>
<g>
	<g>
		<path d="M425,51.9H40c-5.5,0-10,4.5-10,10v257c0,5.5,4.5,10,10,10h385c5.5,0,10-4.5,10-10v-257C435,56.4,430.5,51.9,425,51.9z
			 M416,308.9H50v-237h366V308.9z"/>
	</g>
</g>
<g>
	<g>
		<path d="M342.6,178.1c-2.3-21.3-10.8-41.4-24.5-57.9c-3.2-3.8-8.8-4.4-12.7-1.2c-0.2,0.2-0.4,0.4-0.6,0.6l-37.7,37.5
			c-3,3-3.5,7.8-1.2,11.3c2.6,4.2,4.6,8.8,5.7,13.6c1,4,4.6,6.8,8.7,6.8H332c0.6,0.1,1.2,0.2,1.7,0.2c0.1,0,0.2,0,0.3,0
			c4.5-0.1,8.2-3.6,8.7-8.1c0-0.4,0.1-0.7,0.1-1.1C342.8,179.2,342.7,178.6,342.6,178.1z M287,170.9c-0.7-1.8-1.5-3.8-2.4-5.8
			l25.6-25.4c6.2,9.5,10.7,20.1,13.1,31.2H287z"/>
	</g>
</g>
<g>
	<g>
		<path d="M303.6,106c-0.2-0.2-0.4-0.4-0.7-0.6c-16.7-13.8-37-22.3-58.5-24.5c-4.9-0.9-9.6,2.4-10.4,7.4c-0.1,0.7-0.2,1.4-0.1,2.2
			v0.1v51.9c0,0.7,0.1,1.5,0.2,2.3c0.7,3.6,3.5,6.4,7,7.2c4.8,1,9.3,2.9,13.3,5.6c3.6,2.3,8.3,1.9,11.3-1.1l37.9-37.8
			C307.1,115.2,307.1,109.5,303.6,106z M258,138.8c-1.9-1-3.9-1.8-5.9-2.5v-36.177c11.263,2.306,21.928,6.796,31.5,13.077L258,138.8
			z"/>
	</g>
</g>
<g>
	<g>
		<path d="M220.9,80.9c-0.3,0-0.6,0-0.9,0c-51.1,5.2-91.9,46.4-97,98.1c-0.5,4.9,3.1,9.4,8.1,9.8c0.3,0.1,0.6,0.1,0.9,0.1h53.4
			c4.2,0,7.8-2.9,8.8-7c3-13.3,16-26.7,28.9-29.9c4-1,6.8-4.6,6.8-8.7V89.9C229.9,84.9,225.9,80.9,220.9,80.9z M212,136.8
			c-14.5,6.1-27.4,19.3-33.2,34.1h-36.4c7.5-35.2,34.9-63,69.6-70.5V136.8z"/>
	</g>
</g>
<g>
	<g>
		<path d="M224.7,229.2c-0.1,0-0.1,0-0.2,0c-15.3-3.2-27.2-15.1-30.4-30.4c-0.9-4.1-4.6-7-8.8-6.9l-53.5-0.1
			c-2.5-0.1-4.9,0.9-6.7,2.7c-1.7,1.9-2.5,4.4-2.3,6.9c5.2,52.3,46.5,93.6,98.7,99c0.3,0,0.6,0,0.9,0c4.9,0,9-4,9-8.9
			c0,0,0.1-13.4,0.2-26.8c0-6.7,0.1-13.4,0.1-18.4c0-2.5,0-4.6,0-6.1c0-0.8,0-1.3,0-1.7C231.7,231.2,225.9,229.5,224.7,229.2z
			 M213.4,281c-35.8-7.6-63.7-35.6-71.2-71.4l36.3-0.1c5.8,16.5,18.7,29.5,35.2,35.3C213.7,253.1,213.5,267.8,213.4,281z"/>
	</g>
</g>
<g>
	<g>
		<path d="M334.6,192.9c-0.3,0-0.6,0-0.9,0h-53.5c-4.2,0-7.8,2.9-8.8,7c-3.4,14.4-16.2,27-30.6,30c-4.2,0.9-7.2,4.5-7.2,8.8
			l-0.2,53.5c0.1,2.4,1.2,4.9,3.1,6.6c1.9,1.7,4.4,2.5,6.9,2.2h0.2c52.1-5.2,93.4-46.2,99-98.2C343.1,197.9,339.5,193.4,334.6,192.9
			z M267.3,276.8l-15.6-15.6l0.1-15.8c2.4-0.9,4.8-1.9,7.1-3.2l25.5,25.5C279,271.3,273.3,274.4,267.3,276.8z M298.4,256.3
			l-24.9-24.9c4.5-4.5,8.2-9.6,11.1-15.2l25.6,25.6C306.8,247,302.8,251.9,298.4,256.3z M318.9,225l-14.2-14.1h18.5
			C322.2,215.7,320.7,220.5,318.9,225z"/>
	</g>
</g>
<g>
</g>
<g>
</g>
<g>
</g>
<g>
</g>
<g>
</g>
<g>
</g>
<g>
</g>
<g>
</g>
<g>
</g>
<g>
</g>
<g>
</g>
<g>
</g>
<g>
</g>
<g>
</g>
<g>
</g>
</svg>
