<?xml version="1.0" encoding="iso-8859-1"?>
<!-- Generator: Adobe Illustrator 19.0.0, SVG Export Plug-In . SVG Version: 6.00 Build 0)  -->
<svg version="1.1" id="Capa_1" xmlns="http://www.w3.org/2000/svg" xmlns:xlink="http://www.w3.org/1999/xlink" x="0px" y="0px"
	 viewBox="0 0 465.9 465.9" style="enable-background:new 0 0 465.9 465.9;" xml:space="preserve">
<g>
	<g>
		<path d="M431.7,21.9H34.3C15.4,22,0.1,37.2,0,56.1v268.8c0.2,18.8,15.4,34,34.3,34.1h118.6l-15.3,65h-24.5c-5.5,0-10,4.5-10,10
			s4.5,10,10,10h239.2c5.5,0,10-4.5,10-10s-4.5-10-10-10h-24.5l-15.3-65h119.1c18.8,0,34.1-15.2,34.3-34.1V56.1
			C465.9,37.2,450.6,22,431.7,21.9z M158.1,423.9l15.3-65H292l15.3,65H158.1z M445,324.9c0,7.7-6.3,14-14,14H34c-7.7,0-14-6.3-14-14
			v-269c0-7.7,6.3-14,14-14h397c7.7,0,14,6.3,14,14V324.9z"/>
	</g>
</g>
<g>
	<g>
		<path d="M425,51.9H40c-5.5,0-10,4.5-10,10v257c0,5.5,4.5,10,10,10h385c5.5,0,10-4.5,10-10v-257C435,56.4,430.5,51.9,425,51.9z
			 M416,308.9H50v-237h366V308.9z"/>
	</g>
</g>
<g>
	<g>
		<path d="M336.2,83.6c0,0,0,0-0.1,0l-55.4-4c-5.5-0.4-10.3,3.8-10.7,9.3c-0.4,5.5,3.8,10.3,9.3,10.7l29.4,2.1l-62.3,48.4
			l-52.9-41.7c-3.9-3.1-9.5-2.8-13.1,0.6l-56.7,54.4c-4,3.8-4.1,10.2-0.3,14.1c1.9,2.1,4.5,3.2,7.2,3.2c2.6,0,5.1-1,6.9-2.8
			l50.4-48.4l52.2,41.1c3.6,2.8,8.7,2.9,12.3,0l71.2-55.3l-2.2,28.9c-0.4,5.5,3.7,10.3,9.2,10.7c0.3,0,0.5,0,0.8,0
			c5.2,0,9.6-4,10-9.2l4-51.4C345.8,88.8,341.7,84,336.2,83.6z"/>
	</g>
</g>
<g>
	<g>
		<path d="M251,197.9h-35c-5.5,0-10,4.5-10,10v83c0,5.5,4.5,10,10,10h35c5.5,0,10-4.5,10-10v-83C261,202.4,256.5,197.9,251,197.9z
			 M240,279.9h-14v-62h14V279.9z"/>
	</g>
</g>
<g>
	<g>
		<path d="M180,220.9h-35c-5.5,0-10,4.5-10,10v59c0,5.5,4.5,10,10,10h35c5.5,0,10-4.5,10-10v-59C190,225.4,185.5,220.9,180,220.9z
			 M170,279.9h-15v-39h15V279.9z"/>
	</g>
</g>
<g>
	<g>
		<path d="M321,179.9h-35c-5.5,0-10,4.5-10,10v100c0,5.5,4.5,10,10,10h35c5.5,0,10-4.5,10-10v-100C331,184.4,326.5,179.9,321,179.9z
			 M311,279.9h-15v-80h15V279.9z"/>
	</g>
</g>
<g>
</g>
<g>
</g>
<g>
</g>
<g>
</g>
<g>
</g>
<g>
</g>
<g>
</g>
<g>
</g>
<g>
</g>
<g>
</g>
<g>
</g>
<g>
</g>
<g>
</g>
<g>
</g>
<g>
</g>
</svg>
