<?xml version="1.0" encoding="iso-8859-1"?>
<!-- Generator: Adobe Illustrator 19.0.0, SVG Export Plug-In . SVG Version: 6.00 Build 0)  -->
<svg version="1.1" id="Capa_1" xmlns="http://www.w3.org/2000/svg" xmlns:xlink="http://www.w3.org/1999/xlink" x="0px" y="0px"
	 viewBox="0 0 465.9 465.9" style="enable-background:new 0 0 465.9 465.9;" xml:space="preserve">
<g>
	<g>
		<path d="M431.7,21.9H34.3C15.4,22,0.1,37.2,0,56.1v268.8c0.2,18.8,15.4,34,34.3,34.1h118.6l-15.3,65h-24.5c-5.5,0-10,4.5-10,10
			s4.5,10,10,10h239.2c5.5,0,10-4.5,10-10s-4.5-10-10-10h-24.5l-15.3-65h119.1c18.8,0,34.1-15.2,34.3-34.1V56.1
			C465.9,37.2,450.6,22,431.7,21.9z M158.1,423.9l15.3-65H292l15.3,65H158.1z M445,324.9c0,7.7-6.3,14-14,14H34c-7.7,0-14-6.3-14-14
			v-269c0-7.7,6.3-14,14-14h397c7.7,0,14,6.3,14,14V324.9z"/>
	</g>
</g>
<g>
	<g>
		<path d="M425,51.9H40c-5.5,0-10,4.5-10,10v257c0,5.5,4.5,10,10,10h385c5.5,0,10-4.5,10-10v-257C435,56.4,430.5,51.9,425,51.9z
			 M416,308.9H50v-237h366V308.9z"/>
	</g>
</g>
<g>
	<g>
		<path d="M255,156.9h-45c-5.5,0-10,4.5-10,10v97c0,5.5,4.5,10,10,10h45c5.5,0,10-4.5,10-10v-97C265,161.4,260.5,156.9,255,156.9z
			 M246,252.9h-26v-76h26V252.9z"/>
	</g>
</g>
<g>
	<g>
		<path d="M332,104.9h-45c-5.5,0-10,4.5-10,10v148c0,5.5,4.5,10,10,10h45c5.5,0,10-4.5,10-10v-148C342,109.4,337.5,104.9,332,104.9z
			 M322,252.9h-25v-128h25V252.9z"/>
	</g>
</g>
<g>
	<g>
		<path d="M179,191.9h-45c-5.5,0-10,4.5-10,10v61c0,5.5,4.5,10,10,10h45c5.5,0,10-4.5,10-10v-61C189,196.4,184.5,191.9,179,191.9z
			 M169,252.9h-25v-41h25V252.9z"/>
	</g>
</g>
<g>
</g>
<g>
</g>
<g>
</g>
<g>
</g>
<g>
</g>
<g>
</g>
<g>
</g>
<g>
</g>
<g>
</g>
<g>
</g>
<g>
</g>
<g>
</g>
<g>
</g>
<g>
</g>
<g>
</g>
</svg>
