<?xml version="1.0" encoding="iso-8859-1"?>
<!-- Generator: Adobe Illustrator 19.0.0, SVG Export Plug-In . SVG Version: 6.00 Build 0)  -->
<svg version="1.1" id="Capa_1" xmlns="http://www.w3.org/2000/svg" xmlns:xlink="http://www.w3.org/1999/xlink" x="0px" y="0px"
	 viewBox="0 0 465.9 465.9" style="enable-background:new 0 0 465.9 465.9;" xml:space="preserve">
<g>
	<g>
		<path d="M431.7,21.9H34.3C15.4,22,0.1,37.2,0,56.1v268.8c0.2,18.8,15.5,34,34.3,34.1h118.6l-15.3,65h-24.5c-5.5,0-10,4.5-10,10
			s4.5,10,10,10h239.2c5.5,0,10-4.5,10-10s-4.5-10-10-10h-24.5l-15.3-65h119.1c18.8,0,34.1-15.2,34.3-34.1V56.1
			C465.9,37.2,450.6,22,431.7,21.9z M158.1,423.9l15.3-65H292l15.3,65H158.1z M445,324.9c0,7.7-6.3,14-14,14H34c-7.7,0-14-6.3-14-14
			v-269c0-7.7,6.3-14,14-14h397c7.7,0,14,6.3,14,14V324.9z"/>
	</g>
</g>
<g>
	<g>
		<path d="M425,51.9H40c-5.5,0-10,4.5-10,10v257c0,5.5,4.5,10,10,10h385c5.5,0,10-4.5,10-10v-257C435,56.4,430.5,51.9,425,51.9z
			 M416,308.9H50v-237h366V308.9z"/>
	</g>
</g>
<g>
	<g>
		<path d="M333.5,99.7c-11.3-8.5-27.5-6.2-36,5.1c-4,5.3-5.8,12-4.9,18.6l-16.4,11.5c-11.5-8.2-27.5-5.5-35.7,6
			c-4.1,5.8-5.7,13.1-4.2,20.1l-14.2,12c-10.4-9.6-26.6-8.9-36.2,1.5c-1.1,1.2-2.2,2.6-3,4l-10.2-4.1c-4-13.6-18.2-21.4-31.8-17.4
			c-13.6,4-21.4,18.2-17.4,31.8c3.1,10.8,13.1,18.4,24.5,18.4c8.9,0,17.2-4.7,21.9-12.3l10.2,4.1c3.9,13.6,18.2,21.4,31.7,17.5
			c10.8-3.1,18.3-13,18.5-24.3l17.4-14.7c12,7.5,27.8,3.9,35.3-8c2.6-4.1,3.9-8.8,3.9-13.7c0-1.3-0.1-2.5-0.3-3.7l16-11.3
			c11.4,8.5,27.5,6.2,36-5.1C347.1,124.3,344.8,108.2,333.5,99.7z M148,187.1c-3.1,0-5.6-2.5-5.6-5.6c0-3.1,2.5-5.6,5.6-5.6
			c3.1,0,5.6,2.5,5.6,5.6C153.6,184.6,151.1,187.1,148,187.1z M204.7,197.4c-3.1,0-5.6-2.5-5.6-5.6c0-3.1,2.5-5.6,5.6-5.6
			s5.6,2.5,5.6,5.6C210.3,194.9,207.8,197.4,204.7,197.4z M261.3,161.4c-3.1,0-5.6-2.5-5.6-5.6c0-3.1,2.5-5.6,5.6-5.6
			c3.1,0,5.6,2.5,5.6,5.6C266.9,158.9,264.4,161.4,261.3,161.4z M318,125.8c-3.1,0-5.6-2.5-5.6-5.6c-0.1-3.1,2.5-5.6,5.6-5.6
			c3.1,0,5.6,2.5,5.6,5.6C323.6,123.3,321.1,125.8,318,125.8z"/>
	</g>
</g>
<g>
	<g>
		<path d="M332,151.9h-28c-5.5,0-10,4.5-10,10v117c0,5.5,4.5,10,10,10h28c5.5,0,10-4.5,10-10v-117C342,156.4,337.5,151.9,332,151.9z
			 M322,268.9h-8v-97h8V268.9z"/>
	</g>
</g>
<g>
	<g>
		<path d="M275,187.9h-28c-5.5,0-10,4.5-10,10v82c0,5.5,4.5,10,10,10h28c5.5,0,10-4.5,10-10v-82C285,192.4,280.5,187.9,275,187.9z
			 M265,268.9h-8v-61h8V268.9z"/>
	</g>
</g>
<g>
	<g>
		<path d="M219,223.9h-28c-5.5,0-10,4.5-10,10v45c0,5.5,4.5,10,10,10h28c5.5,0,10-4.5,10-10v-45C229,228.4,224.5,223.9,219,223.9z
			 M209,268.9h-8v-25h8V268.9z"/>
	</g>
</g>
<g>
	<g>
		<path d="M162,213.9h-28c-5.5,0-10,4.5-10,10v55c0,5.5,4.5,10,10,10h28c5.5,0,10-4.5,10-10v-55C172,218.4,167.5,213.9,162,213.9z
			 M152,268.9h-8v-35h8V268.9z"/>
	</g>
</g>
<g>
</g>
<g>
</g>
<g>
</g>
<g>
</g>
<g>
</g>
<g>
</g>
<g>
</g>
<g>
</g>
<g>
</g>
<g>
</g>
<g>
</g>
<g>
</g>
<g>
</g>
<g>
</g>
<g>
</g>
</svg>
