<?xml version="1.0" encoding="iso-8859-1"?>
<!-- Generator: Adobe Illustrator 19.0.0, SVG Export Plug-In . SVG Version: 6.00 Build 0)  -->
<svg version="1.1" id="Capa_1" xmlns="http://www.w3.org/2000/svg" xmlns:xlink="http://www.w3.org/1999/xlink" x="0px" y="0px"
	 viewBox="0 0 482 482" style="enable-background:new 0 0 482 482;" xml:space="preserve">
<g>
	<g>
		<path d="M457.5,97.6c-21.5-10.4-47.4-1.4-57.9,20.1c-7.1,14.7-5.4,32.2,4.6,45.2l-42.5,46.2c-15.2-18.3-42.4-20.9-60.7-5.7
			c-1.2,1-2.3,2-3.4,3.2l-35.9-29.4c0-0.1,0-0.3,0-0.4c0-23.9-19.3-43.2-43.2-43.2c-23.9,0-43.2,19.3-43.2,43.2
			c0,4,0.5,7.9,1.6,11.8L137.3,238c-21.5-10.4-47.3-1.5-57.7,20c-10.4,21.5-1.5,47.3,20,57.7c5.9,2.6,12.4,4.1,18.9,4.1
			c23.8,0,43.2-19.3,43.2-43.1c0-9.5-3.1-18.7-8.9-26.2l34.9-43.6c16.7,17,44,17.3,61,0.6c2.8-2.8,5.2-5.9,7.2-9.3l31.3,25.7
			c-7.1,22.8,5.7,47,28.4,54.1c22.7,7.1,47-5.7,54.1-28.4c2.1-6.8,2.5-13.9,1.2-20.9l48.8-53.1c21.5,10.4,47.4,1.4,57.9-20.1
			S479,108.1,457.5,97.6z M118.5,299.8c-12.8,0-23.2-10.4-23.2-23.2c0-12.8,10.4-23.2,23.2-23.2s23.2,10.4,23.2,23.2
			C141.7,289.4,131.3,299.8,118.5,299.8z M218.5,199.8c-12.8,0-23.2-10.4-23.2-23.2c0-12.8,10.4-23.2,23.2-23.2s23.2,10.4,23.2,23.2
			S231.3,199.8,218.5,199.8z M328.5,259.8c-12.8,0-23.2-10.4-23.2-23.2s10.4-23.2,23.2-23.2s23.2,10.4,23.2,23.2
			S341.3,259.8,328.5,259.8z M438.5,159.8c-12.8,0-23.2-10.4-23.2-23.2s10.4-23.2,23.2-23.2s23.2,10.4,23.2,23.2
			S451.3,159.8,438.5,159.8z"/>
	</g>
</g>
<g>
	<g>
		<path d="M451,300H263.4c-16.7,0-30.3,13.5-30.4,30.2c0,0.1,0,0.2,0,0.3V343H60V36.6c0.1-5.2-4.1-9.5-9.4-9.6c-0.1,0-0.3,0-0.4,0
			h-40C4.7,27,0,31.1,0,36.6v336.3c0.1,16.6,13.6,30,30.2,30.1H233v21.6c-0.1,16.6,13.3,30.2,29.9,30.4c0.2,0,0.3,0,0.5,0H451
			c17,0,31-13.4,31-30.4v-94.1C481.9,313.6,468,299.9,451,300z M233,383H30.2c-5.6,0-10.1-4.5-10.2-10.1V47h20v305.9
			c0.1,5.6,4.6,10,10.2,10.1H233V383z M253.1,330.6c-0.2-5.7,4.3-10.4,10-10.6c0,0,0.1,0,0.3,0h14.1c-0.7,13.1-11.3,23.5-24.4,23.9
			V330.6z M263.3,434.9c-5.6,0.1-10.2-4.3-10.4-9.8c0.1-0.1,0.1-0.3,0.1-0.5v-13.1c13,0.2,23.7,10.4,24.4,23.4H263.3z M462,424.7
			c0,5.9-5,10.3-11,10.3h-14c0.7-13,12-23.2,25-23.4V424.7z M462,391.6c-25,0.2-44.3,19.4-45,43.4H297.4
			c-0.8-24-20.4-43.2-44.4-43.4v-27.7c24-0.2,43.8-19.9,44.4-43.9H417c0.7,24.4,20.6,43.9,45,43.9V391.6z M462,343.9
			c-13.4,0-24.4-10.5-25-23.9h14c6-0.1,10.9,4.6,11,10.6V343.9z"/>
	</g>
</g>
<g>
	<g>
		<path d="M357.2,325c-29.1,0-52.8,23.6-52.8,52.8c0,29.2,23.6,52.8,52.8,52.8c29.2,0,52.8-23.6,52.8-52.8
			C409.9,348.6,386.3,325,357.2,325z M357.2,410.5c-18.1,0-32.8-14.7-32.8-32.8s14.7-32.8,32.8-32.8c18.1,0,32.8,14.7,32.8,32.8
			S375.3,410.5,357.2,410.5z"/>
	</g>
</g>
<g>
</g>
<g>
</g>
<g>
</g>
<g>
</g>
<g>
</g>
<g>
</g>
<g>
</g>
<g>
</g>
<g>
</g>
<g>
</g>
<g>
</g>
<g>
</g>
<g>
</g>
<g>
</g>
<g>
</g>
</svg>
