<?xml version="1.0" encoding="iso-8859-1"?>
<!-- Generator: Adobe Illustrator 19.0.0, SVG Export Plug-In . SVG Version: 6.00 Build 0)  -->
<svg version="1.1" id="Capa_1" xmlns="http://www.w3.org/2000/svg" xmlns:xlink="http://www.w3.org/1999/xlink" x="0px" y="0px"
	 viewBox="0 0 465.8 465.8" style="enable-background:new 0 0 465.8 465.8;" xml:space="preserve">
<g>
	<g>
		<path d="M393.8,56.749c0,0-0.1-0.1-0.1-0.2c-36.7-36-84.5-55.9-135.1-55.9c-5.4,0-9.9,4.4-9.9,9.9v0.1v181.2
			c0,5.6,4.3,10.2,9.8,10.3h181.2c5.5-0.1,10-4.6,10-10.1C449.7,141.549,429.9,93.45,393.8,56.749z M268.8,21.05
			c18.5,1.1,36.8,5.2,54,12.1l-54,54V21.05z M268.8,115.45l73-73.2c10.9,6,21,13.2,30.4,21.4l-103.4,103.6V115.45z M282.1,182.15
			l104.1-104.2c8.2,9.3,15.4,19.4,21.5,30.2l-73.9,74H282.1z M362.1,182.15l54.8-54.8c7.2,17.5,11.4,36,12.5,54.8H362.1z"/>
	</g>
</g>
<g>
	<g>
		<path d="M434.8,310.15h-59.5c4.8-16.9,7.2-34.4,7.2-52c0-5.5-4.5-10-10-10H200.8V76.85c0.1-5.4-4.2-9.9-9.6-10c-0.1,0-0.1,0-0.2,0
			c-50.7-0.2-99.4,20-135.2,56c-36,36.7-55.8,84.7-55.8,135.2c0,105.4,85.8,191.2,191.2,191.2c9.3-0.1,18.5-0.8,27.7-2.2
			c5,11.1,16,18.2,28.1,18.1h187.8c17,0,31-13.4,31-30.3v-94.1C465.8,323.749,451.7,310.15,434.8,310.15z M216.8,340.449
			c0,0.1,0,0.2,0,0.3v86.7c-8.4,1.2-16.8,1.8-25.3,1.8c-94.4,0-171.4-76.8-171.4-171.2c0-45.4,17.9-88.9,49.8-121.1
			c29.5-29.7,69-47.5,110.9-49.8v170.9c0,5.5,5,10.1,10.5,10.1h170.9c-0.9,14.3-3.5,28.4-7.8,42H247.1
			C230.4,310.149,216.8,323.649,216.8,340.449z M261.2,330.15c-0.7,13.1-11.3,23.5-24.4,23.9v-13.3c-0.2-5.7,4.3-10.4,9.9-10.6
			c0.1,0,0.2,0,0.4,0H261.2z M247.1,445.15c-5.5,0.2-10.1-4.2-10.3-9.7c0-0.2,0-0.4,0-0.6v-13.1c13,0.2,23.6,10.4,24.4,23.4H247.1z
			 M445.8,434.85c0,5.9-5.1,10.3-11,10.3h-14.1c0.7-13,11.1-23.2,25.1-23.4V434.85z M445.8,401.749c-25,0.3-44.3,19.4-45.1,43.4
			H281.2c-0.8-24-20.3-43.1-44.4-43.4v-27.7c24-0.2,43.7-19.9,44.4-43.9h119.5c0.7,24.4,20.7,43.9,45.1,43.9V401.749z
			 M445.8,354.049c-13.4,0-24.5-10.5-25.1-23.9h14.1c5.9-0.1,10.8,4.6,11,10.6V354.049z"/>
	</g>
</g>
<g>
	<g>
		<path d="M340.9,335.15c-29.1,0-52.8,23.6-52.8,52.8c0,29.2,23.6,52.8,52.8,52.8c29.2,0,52.8-23.6,52.8-52.8
			C393.7,358.749,370.1,335.15,340.9,335.15z M340.9,420.65c-18.1,0-32.8-14.7-32.8-32.8s14.7-32.7,32.8-32.7
			c18.1,0,32.8,14.7,32.8,32.8S359,420.65,340.9,420.65z"/>
	</g>
</g>
<g>
</g>
<g>
</g>
<g>
</g>
<g>
</g>
<g>
</g>
<g>
</g>
<g>
</g>
<g>
</g>
<g>
</g>
<g>
</g>
<g>
</g>
<g>
</g>
<g>
</g>
<g>
</g>
<g>
</g>
</svg>
