<?xml version="1.0" encoding="iso-8859-1"?>
<!-- Generator: Adobe Illustrator 19.0.0, SVG Export Plug-In . SVG Version: 6.00 Build 0)  -->
<svg version="1.1" id="Capa_1" xmlns="http://www.w3.org/2000/svg" xmlns:xlink="http://www.w3.org/1999/xlink" x="0px" y="0px"
	 viewBox="0 0 443.9 443.9" style="enable-background:new 0 0 443.9 443.9;" xml:space="preserve">
<g>
	<g>
		<path d="M178.9,101.95h-60.7c-5.7,0.2-10.2,4.8-10.3,10.4v253c0,5.5,4.7,9.6,10.3,9.6h60.7c5.5,0,10.1-4,10.1-9.6v-253
			C189,106.85,184.5,101.95,178.9,101.95z M169,354.95h-41v-83h41V354.95z M169,251.95h-41v-130h41V251.95z"/>
	</g>
</g>
<g>
	<g>
		<path d="M70.8,182.95H10.2c-5.5,0-10.1,4.4-10.2,9.9v172.5c0,5.5,4.6,9.6,10.2,9.6h60.7c5.5,0,10.2-4,10.2-9.6v-172.5
			C80.9,187.35,76.4,182.95,70.8,182.95z M61,354.95H20v-83h41V354.95z M61,251.95H20v-49h41V251.95z"/>
	</g>
</g>
<g>
	<g>
		<path d="M413.1,277.95H406V20.35c0-5.5-4.2-10.4-9.7-10.4h-61.8c-5.7,0.2-10.3,4.7-10.5,10.4v257.6h-27V66.35
			c0-5.5-4.4-10.4-10-10.4h-60.7c-5.7,0.2-10.2,4.8-10.4,10.4v212.9c-12.6,4.3-21.1,16.1-21,29.4v94.1c0,17,13.5,31.2,30.4,31.2H413
			c17,0,30.9-14.2,30.9-31.2v-94.1C443.9,291.65,430.1,277.95,413.1,277.95z M344,29.95h42v222h-42V29.95z M344,271.95h42v6h-42
			V271.95z M236,75.95h41v176h-41V75.95z M236,271.95h41v6h-41V271.95z M215,308.65c-0.1-5.8,4.4-10.6,10.2-10.7c0.1,0,0.2,0,0.2,0
			h14.1c-0.6,13-11.5,23.8-24.5,24V308.65z M225.4,413.85c-5.9,0.1-10.4-5.2-10.4-11.1v-13.1c13,0.2,23.7,10.2,24.5,24.2H225.4z
			 M424,402.85c0,6-4.9,10.9-10.9,11.1H399c0.6-13.4,11.5-24,25-24.2V402.85z M424,369.65c-24.5,0.3-44.3,19.9-45,44.3H259.5
			c-0.8-25-20.5-44-44.5-44.2v-27.8c24-0.2,43.9-20,44.5-44H379c0.6,24.4,20.5,43.9,45,44V369.65z M424,321.95
			c-13.4-0.1-24.4-10.6-25-24h14.1c6,0,10.8,4.8,10.9,10.7V321.95z"/>
	</g>
</g>
<g>
	<g>
		<path d="M319.3,303.05c-29.1,0-52.8,23.6-52.8,52.8c0,29.2,23.6,52.8,52.8,52.8c29.2,0,52.7-23.7,52.7-52.8
			C372,326.75,348.4,303.15,319.3,303.05z M319.3,388.65c-18.1,0-32.8-14.7-32.8-32.8s14.7-32.8,32.8-32.8
			c18.1,0,32.8,14.7,32.8,32.8C352,373.95,337.4,388.65,319.3,388.65z"/>
	</g>
</g>
<g>
</g>
<g>
</g>
<g>
</g>
<g>
</g>
<g>
</g>
<g>
</g>
<g>
</g>
<g>
</g>
<g>
</g>
<g>
</g>
<g>
</g>
<g>
</g>
<g>
</g>
<g>
</g>
<g>
</g>
</svg>
