<?xml version="1.0" encoding="iso-8859-1"?>
<!-- Generator: Adobe Illustrator 19.0.0, SVG Export Plug-In . SVG Version: 6.00 Build 0)  -->
<svg version="1.1" id="Capa_1" xmlns="http://www.w3.org/2000/svg" xmlns:xlink="http://www.w3.org/1999/xlink" x="0px" y="0px"
	 viewBox="0 0 476.1 476.1" style="enable-background:new 0 0 476.1 476.1;" xml:space="preserve">
<g>
	<g>
		<path d="M444.9,309.2H444V22c0-5.5-4.5-10-10-10c-2.9,0-5.7,1.3-7.6,3.5L380.1,70l-29.2-16.1c-4.5-2.5-10.2-1.1-13.1,3.1
			L304,106.4l-38-9.3c-3.7-0.9-7.6,0.4-10,3.3l-33.5,39.9L183,103.5c-3.1-2.9-7.6-3.5-11.3-1.6L141.6,117L98.7,79.5
			c-2-1.8-4.7-2.7-7.4-2.4c-2.7,0.2-5.3,1.5-7.1,3.6L60,109.5V69.1c0.2-5.3-4-9.7-9.3-9.9c-0.1,0-0.2,0-0.3,0h-40
			C4.8,59.2,0,63.6,0,69.1v336.3c0,16.5,13.8,29.7,30.4,29.7h196.2c1,16.2,14.4,28.9,30.7,29H445c17,0,31.1-13.6,31.1-30.6v-94.1
			C476,322.6,461.8,309.2,444.9,309.2z M60,140.7l33.1-39.4l40.4,35.2c3.1,2.7,7.5,3.2,11.1,1.4l29.9-14.9l42,39.2
			c4,3.8,10.4,3.6,14.1-0.5c0.1-0.1,0.2-0.3,0.4-0.4l36.3-43.2l38.7,9.5c4,1,8.3-0.6,10.6-4.1L349.2,76l28.4,15.6
			c4.2,2.3,9.4,1.3,12.4-2.3l34-40v80.3l-39,5.3c-2.5,0.3-4.7,1.6-6.3,3.5L344,179.8l-38.4-23.5c-4.2-2.6-9.7-1.7-12.9,2.1l-39,46.4
			l-46.5-19.2c-3.6-1.5-7.8-0.7-10.7,1.9l-37.8,35.4L136,183.8c-2.8-4.8-8.9-6.4-13.7-3.6c-0.4,0.2-0.7,0.4-1,0.7l-31.5,23.9
			L60,187.1V140.7z M424.1,250.4v58.8H280.9l25.5-31.8l36.2,23.9c4.7,3,10.9,1.7,13.9-3c0.1-0.1,0.1-0.2,0.2-0.3l36-59L424.1,250.4z
			 M60,210.4l25.2,15c3.5,2.1,8,1.9,11.3-0.6l27.8-21.1l23.3,40.2c2.8,4.8,8.9,6.4,13.7,3.6c0.6-0.4,1.2-0.8,1.8-1.3l42.3-39.6
			l47.3,19.5c4,1.7,8.7,0.5,11.5-2.8l38.2-45.4l38.4,23.5c4.2,2.6,9.7,1.7,12.9-2.1l37.8-45l32.5-4.4v79.4l-32.3-11.7
			c-4.5-1.6-9.5,0.1-12,4.2l-34.8,57.1l-35.1-23.3c-4.3-2.9-10.1-2-13.3,2.1L260,302.9L224.6,274c-3.5-2.8-8.4-3-12.1-0.4L177,298.7
			l-44.3-28.4c-3.9-2.5-9-2-12.3,1.2l-35.7,34L60,298.3V210.4z M246,339.5c0-5.9,5.3-10.3,11.2-10.3h14.1
			c-0.6,13-11.3,23.4-25.3,23.6L246,339.5L246,339.5z M226,415.2H30.4c-5.5,0-10.4-4.2-10.4-9.7V79.2h20v306.3
			c0,5.5,4.8,9.7,10.4,9.7H226V415.2z M225.9,339.4v35.8H60v-56.1l24.5,7.2c1,0.3,1.9,0.4,2.9,0.4c2.6,0,5.1-1,7-2.8l34.1-32.6
			l43.4,27.8c3.4,2.2,7.8,2.1,11.2-0.3l34.8-24.6l23.1,18.9C231.7,318.6,226,328.6,225.9,339.4z M257.2,444.1
			c-5.9,0.1-11.2-4.6-11.2-10.5v-13.1c14,0.2,24.5,10.6,25.3,23.6H257.2z M456,433.7c0,5.8-5.2,10.5-11.1,10.5h-14.1
			c0.7-13,11.2-23.4,25.2-23.6V433.7z M456,400.6c-24.4-0.1-44.4,19.2-45.2,43.6H291.3c-0.8-24-20.3-43.4-45.3-43.6v-27.7
			c25-0.2,44.7-19.6,45.3-43.6h119.5c0.6,24,20.2,43.4,45.2,43.6V400.6z M456,352.8c-14-0.2-24.6-10.6-25.2-23.6h14.1
			c5.9,0,11.1,4.4,11.1,10.3V352.8z"/>
	</g>
</g>
<g>
	<g>
		<path d="M351.1,333.9c-29.1,0-52.8,23.6-52.8,52.8c0,29.2,23.6,52.8,52.8,52.8c29.2,0,52.8-23.6,52.8-52.8
			C403.8,357.6,380.2,334,351.1,333.9z M351.1,419.5c-18.1,0-32.8-14.7-32.8-32.8s14.7-32.8,32.8-32.8s32.8,14.7,32.8,32.8
			C383.8,404.8,369.1,419.5,351.1,419.5z"/>
	</g>
</g>
<g>
</g>
<g>
</g>
<g>
</g>
<g>
</g>
<g>
</g>
<g>
</g>
<g>
</g>
<g>
</g>
<g>
</g>
<g>
</g>
<g>
</g>
<g>
</g>
<g>
</g>
<g>
</g>
<g>
</g>
</svg>
