<?xml version="1.0" encoding="iso-8859-1"?>
<!-- Generator: Adobe Illustrator 19.0.0, SVG Export Plug-In . SVG Version: 6.00 Build 0)  -->
<svg version="1.1" id="Capa_1" xmlns="http://www.w3.org/2000/svg" xmlns:xlink="http://www.w3.org/1999/xlink" x="0px" y="0px"
	 viewBox="0 0 484.2 484.2" style="enable-background:new 0 0 484.2 484.2;" xml:space="preserve">
<g>
	<g>
		<path d="M150.4,294.5c-6.1-9.4-11.2-21.9-13.8-34.4c-1-4.6-5.1-8-9.8-8H10c-5.5,0-10,4.5-10,10c0,0.1,0,0.1,0,0.2
			c0,0.7,0,1.4,0.1,2c4.3,45.9,22.3,89.5,51.6,125.1c1.8,2.2,4.4,3.5,7.3,3.6c0.2,0,0.3,0,0.5,0c2.7,0,5.2-1.1,7.1-2.9l82.7-83.1
			C152.5,303.6,153,298.4,150.4,294.5z M60.3,368c-20.8-28.2-34.3-61.2-39.1-95.9H119c2.5,9.1,6,18,10.5,26.3L60.3,368z"/>
	</g>
</g>
<g>
	<g>
		<path d="M211.5,336.7c-11.9-2.5-23.2-7.1-33.3-13.6c-4-2.6-9.2-2.1-12.6,1.3l-82.3,82.7c-3.9,3.9-3.9,10.2,0,14.1
			c0.2,0.2,0.5,0.4,0.7,0.6c35.5,29.3,79,47.2,124.9,51.6c0.6,0.1,1.1,0.1,2.1,0.1h0.2c5.5,0,10-4.5,10-10V346.7
			C221.2,341.3,216.9,336.8,211.5,336.7z M201.2,452.4c-34.7-4.9-67.6-18.4-95.8-39.2l68.8-69.1c8.5,4.7,17.6,8.3,27,10.7V452.4z"/>
	</g>
</g>
<g>
	<g>
		<path d="M254.7,12.1c-5.5-0.6-10.4,3.5-11,8.9c0,0.3,0,0.6,0,0.9c0,0-0.2,29.3-0.4,58.5c-0.1,14.6-0.2,29.3-0.3,40.3
			c0,5.5-0.1,10.1-0.1,13.3c0,1.6,0,2.9,0,3.8c0.1,8.1,4.9,10.4,7.8,11.1c0.1,0,0.1,0,0.2,0c37.2,7.9,66.3,37,74.1,74.2
			c1,4.6,5.1,8,9.8,7.9l117.2-0.2c5.5,0,10-4.5,10-10c0-0.3,0-0.7,0-1C451.3,110.5,364.2,23.1,254.7,12.1z M342.7,211.1
			c-11-38.6-41.1-68.7-79.6-79.8c-0.1-17.5,0.3-62.1,0.6-97.9c91.4,14.3,162.9,86.1,177,177.5L342.7,211.1z"/>
	</g>
</g>
<g>
	<g>
		<path d="M209.8,10.7c-0.4,0-0.8,0-1.2,0.1h-0.4C98.5,21.4,11,108.2,0.1,217.1c-0.6,5.5,3.5,10.4,8.9,10.9c0.4,0.1,0.7,0.1,1.1,0.1
			h117c4.7,0,8.8-3.3,9.8-7.9c7.9-36.5,37.1-65,74.3-72.7c4.6-1,8-5,8-9.8l0.5-117C219.7,15.2,215.3,10.7,209.8,10.7z M21.4,208.1
			c0.9-5.5,1.9-10.9,3.2-16.3l16.3,16.3H21.4z M69.2,208.1L31.1,170c2.4-6.8,5.2-13.5,8.3-20l58.1,58.1H69.2z M120.9,203.3
			l-71.6-71.6c3.5-5.8,7.3-11.4,11.4-16.9l69,69C126.2,190,123.2,196.5,120.9,203.3z M141.3,167L73.5,99.2
			c4.5-4.8,9.2-9.6,14.1-14.1l67.8,67.8C150.3,157.2,145.6,161.9,141.3,167z M172.1,141.3l-69-69c5.4-4.1,11-7.9,16.8-11.4
			l71.5,71.4C184.7,134.7,178.2,137.7,172.1,141.3z M199.2,111.9l-61-61c6.5-3.1,13.1-5.9,19.9-8.4l41.3,41.3L199.2,111.9z
			 M199.5,55.6l-19.7-19.7c6.5-1.6,13.1-2.9,19.8-3.9L199.5,55.6z"/>
	</g>
</g>
<g>
	<g>
		<path d="M453.5,250.1H265.9c-17,0-30.7,13.8-30.7,30.7v94.5c0,17,13.8,30.7,30.7,30.7h187.5c17,0,30.7-13.8,30.7-30.7v-94.5h0.1
			C484.2,263.8,470.4,250.1,453.5,250.1z M255.2,281.3c0-6.1,4.8-11,10.8-11.2h14.1c-0.5,13.5-11.4,24.2-24.9,24.5V281.3z M266,386
			c-5.9,0.1-10.8-4.7-10.8-10.7v-13.1c13.2,0.4,23.9,10.7,24.9,23.8H266z M464.2,375.4c0.1,5.8-4.6,10.7-10.4,10.8
			c0-0.1-0.1-0.1-0.1-0.1h-14.1c0.8-13.1,11.4-23.4,24.6-23.8V375.4z M464.2,342.3c-24,0.2-43.8,19.8-44.6,43.8H300.1
			c-1-24.2-20.7-43.4-44.9-43.8v-27.7c24.5-0.3,44.4-20,44.9-44.5h119.5c0.4,24.4,20.1,44.1,44.6,44.5V342.3z M464.2,294.5
			c-13.4-0.3-24.2-11-24.6-24.5h14.1c5.9,0.1,10.5,5.3,10.5,11.2V294.5z"/>
	</g>
</g>
<g>
	<g>
		<path d="M359.9,275.6c-29.1,0-52.8,23.6-52.8,52.8c0,29.2,23.6,52.8,52.8,52.8c29.2,0,52.8-23.6,52.8-52.8
			C412.6,299.3,389,275.7,359.9,275.6z M359.9,361.2c-18.1,0-32.8-14.7-32.8-32.8s14.7-32.8,32.8-32.8c18.1,0,32.8,14.7,32.8,32.8
			C392.6,346.5,377.9,361.2,359.9,361.2z"/>
	</g>
</g>
<g>
</g>
<g>
</g>
<g>
</g>
<g>
</g>
<g>
</g>
<g>
</g>
<g>
</g>
<g>
</g>
<g>
</g>
<g>
</g>
<g>
</g>
<g>
</g>
<g>
</g>
<g>
</g>
<g>
</g>
</svg>
