<?xml version="1.0" encoding="iso-8859-1"?>
<!-- Generator: Adobe Illustrator 19.0.0, SVG Export Plug-In . SVG Version: 6.00 Build 0)  -->
<svg version="1.1" id="Capa_1" xmlns="http://www.w3.org/2000/svg" xmlns:xlink="http://www.w3.org/1999/xlink" x="0px" y="0px"
	 viewBox="0 0 446.501 446.501" style="enable-background:new 0 0 446.501 446.501;" xml:space="preserve">
<g>
	<g>
		<path d="M395,13.312c0,0,0,0-0.1,0l-101.7-7.3c-5.5-0.4-10.3,3.8-10.7,9.3c-0.4,5.5,3.8,10.3,9.3,10.7l75.8,5.4l-137,106.4
			l-102.2-80.5c-3.9-3.1-9.5-2.8-13.1,0.6l-104.2,99.9c-4,3.8-4.1,10.2-0.3,14.1c1.9,2,4.5,3.1,7.2,3.1c2.6,0,5.1-1,6.9-2.8
			l97.9-93.9l101.6,80c3.6,2.8,8.7,2.9,12.3,0l145.7-113.1l-5.5,71.8c-0.4,5.5,3.7,10.3,9.2,10.7c0.3,0,0.5,0,0.8,0
			c5.2,0,9.6-4,10-9.2l7.3-94.5C404.6,18.512,400.5,13.712,395,13.312z"/>
	</g>
</g>
<g>
	<g>
		<path d="M416.4,285.512c-0.2,0-0.3,0-0.4,0h-40.6v-84.7c0-5.5-4.1-10.3-9.7-10.3h-63.6c-5.5,0-9.7,4.8-9.7,10.3v84.7h-44v-52.7
			c-0.2-5.7-4.8-10.2-10.4-10.3h-63.6c-5.6,0.1-10,4.7-10,10.3v141.7h-44v-99.2c-0.1-5.5-4.7-9.9-10.2-9.8H46.6
			c-5.5-0.1-10.1,4.3-10.2,9.8v99.2H10c-5.5,0-10,4.5-10,10s4.5,10,10,10h187.4v15.7c0,17,14,30.3,31,30.3h187.7
			c16.6,0.2,30.2-13.2,30.4-29.8c0-0.2,0-0.3,0-0.5v-94.1C446.6,299.312,433.2,285.612,416.4,285.512z M100.4,374.512h-44v-89h44
			V374.512z M312.4,210.512h43v75h-43V210.512z M242.4,305.512c-0.6,13.4-11.6,23.9-25,23.9v-13.3c0.1-5.9,5-10.7,11-10.6H242.4z
			 M197.4,316.112v58.4h-13v-132h44v42.9C211.4,285.612,197.4,299.312,197.4,316.112z M228.4,420.512c-6,0-11-4.4-11-10.3v-13.1
			c13,0.2,24.3,10.4,25,23.4H228.4z M426.3,410.212c0.1,5.6-4.3,10.2-9.8,10.3c-0.1,0-0.3,0-0.5,0h-14.1c0.8-13,11.4-23.2,24.4-23.4
			V410.212z M426.3,377.112c-23.9,0.3-43.5,19.4-44.3,43.4H262.4c-0.8-24-20-43.1-45-43.4v-27.7c24.4,0,44.4-19.5,45-43.9h119.5
			c0.6,24,20.4,43.7,44.4,43.9V377.112z M426.4,316.112v13.3c-13.1-0.4-23.8-10.8-24.4-23.9h14.1c5.7,0,10.3,4.6,10.4,10.3
			C426.4,315.912,426.4,316.012,426.4,316.112z"/>
	</g>
</g>
<g>
	<g>
		<path d="M322.2,310.512c-29.1,0-52.8,23.6-52.8,52.8c0,29.2,23.6,52.8,52.8,52.8c29.2,0,52.8-23.6,52.8-52.8
			C374.9,334.112,351.3,310.512,322.2,310.512z M322.2,396.112c-18.1,0-32.8-14.7-32.8-32.8s14.7-32.8,32.8-32.8
			c18.1,0,32.8,14.7,32.8,32.8C355,381.412,340.3,396.012,322.2,396.112z"/>
	</g>
</g>
<g>
</g>
<g>
</g>
<g>
</g>
<g>
</g>
<g>
</g>
<g>
</g>
<g>
</g>
<g>
</g>
<g>
</g>
<g>
</g>
<g>
</g>
<g>
</g>
<g>
</g>
<g>
</g>
<g>
</g>
</svg>
