<?xml version="1.0" encoding="iso-8859-1"?>
<!-- Generator: Adobe Illustrator 19.0.0, SVG Export Plug-In . SVG Version: 6.00 Build 0)  -->
<svg version="1.1" id="Capa_1" xmlns="http://www.w3.org/2000/svg" xmlns:xlink="http://www.w3.org/1999/xlink" x="0px" y="0px"
	 viewBox="0 0 444.002 444.002" style="enable-background:new 0 0 444.002 444.002;" xml:space="preserve">
<g>
	<g>
		<path d="M99,195.002H10c-5.5,0-10,4.5-10,10v120c0,5.5,4.5,10,10,10h89c5.5,0,10-4.5,10-10v-120
			C109,199.502,104.5,195.002,99,195.002z M89,316.002H20v-101h69V316.002z"/>
	</g>
</g>
<g>
	<g>
		<path d="M414.1,265.002c-0.1,0-0.3,0-0.4,0H408v-231.3c0-5.4-4.3-9.7-9.7-9.7c-0.1,0-0.1,0-0.2,0h-89c-5.4-0.1-10,4.2-10.1,9.6
			v0.1v231.3h-41v-129.5c0.1-5.2-4-9.4-9.2-9.5c-0.2,0-0.4,0-0.5,0h-89c-5.5,0-10.3,4-10.3,9.5v190.1c0.1,5.7,4.7,10.3,10.3,10.4
			H195v53.5c0,17,14.1,30.5,31,30.5h187.7c16.7,0.1,30.2-13.4,30.3-30.1c0-0.1,0-0.3,0-0.4v-94.1
			C444.2,278.802,430.8,265.102,414.1,265.002z M319,44.002h69v221h-69V44.002z M195,295.402v20.6h-26v-170h69v119h-12
			C209,265.002,195,278.502,195,295.402z M240.1,285.002c-0.6,13-11.1,23.5-25.1,23.7v-13.3c0-5.9,5.1-10.4,11-10.4H240.1z
			 M226,399.902c-5.9,0.1-11-4.5-11-10.4v-13.1c14,0.2,24.3,10.5,25.1,23.5H226z M424,389.602c0.2,5.6-4.2,10.3-9.9,10.5
			c-0.1-0.1-0.3-0.1-0.4-0.1h-14.1c0.7-13,11.3-23.3,24.4-23.5V389.602z M424,356.502c-24.1,0.3-43.6,19.5-44.4,43.5H260.1
			c-0.8-24-20.1-43.3-45.1-43.5v-27.7c24.4,0,44.4-19.4,45.1-43.7h119.5c0.7,24.1,20.3,43.4,44.4,43.7V356.502z M424,295.402v13.3
			c-13.1-0.3-23.7-10.7-24.4-23.7h14.1c5.6-0.1,10.2,4.4,10.3,9.9C424,295.102,424,295.302,424,295.402z"/>
	</g>
</g>
<g>
	<g>
		<path d="M319.9,289.802c-29.1,0-52.8,23.6-52.8,52.8c0,29.2,23.6,52.8,52.8,52.8c29.2,0,52.8-23.6,52.8-52.8
			C372.6,313.502,349,289.902,319.9,289.802z M319.9,375.402c-18.1,0-32.8-14.7-32.8-32.8s14.7-32.8,32.8-32.8s32.8,14.7,32.8,32.8
			C352.6,360.702,337.9,375.402,319.9,375.402z"/>
	</g>
</g>
<g>
</g>
<g>
</g>
<g>
</g>
<g>
</g>
<g>
</g>
<g>
</g>
<g>
</g>
<g>
</g>
<g>
</g>
<g>
</g>
<g>
</g>
<g>
</g>
<g>
</g>
<g>
</g>
<g>
</g>
</svg>
