<?xml version="1.0" encoding="iso-8859-1"?>
<!-- Generator: Adobe Illustrator 19.0.0, SVG Export Plug-In . SVG Version: 6.00 Build 0)  -->
<svg version="1.1" id="Capa_1" xmlns="http://www.w3.org/2000/svg" xmlns:xlink="http://www.w3.org/1999/xlink" x="0px" y="0px"
	 viewBox="0 0 455.707 455.707" style="enable-background:new 0 0 455.707 455.707;" xml:space="preserve">
<g>
	<g>
		<path d="M184.707,276.883h-56c-5.5,0-10,4.5-10,10v92c0,5.5,4.5,10,10,10h56c5.5,0,10-4.5,10-10v-92
			C194.707,281.383,190.207,276.883,184.707,276.883z M175.707,368.883h-37v-72h37V368.883z"/>
	</g>
</g>
<g>
	<g>
		<path d="M69.707,255.883h-56c-5.5,0-10,4.5-10,10v113c0,5.5,4.5,10,10,10h56c5.5,0,10-4.5,10-10v-113
			C79.707,260.383,75.207,255.883,69.707,255.883z M59.707,368.883h-36v-93h36V368.883z"/>
	</g>
</g>
<g>
	<g>
		<path d="M418.207,26.983c-15.8-16.8-42.2-17.6-59-1.9c-11.3,10.6-15.8,26.5-11.7,41.4l-45.3,32.1c-16.2-16.4-42.7-16.6-59.1-0.4
			c-11.6,11.5-15.5,28.6-9.9,44l-41.8,35.2c-13.2-18.9-39.2-23.6-58.2-10.4c-7.2,5-12.6,12.2-15.5,20.4l-34.7-14.1
			c-3.9-22.8-25.4-38.1-48.2-34.2c-22.8,3.9-38.1,25.4-34.2,48.2c3.9,22.8,25.4,38.1,48.2,34.2c15-2.5,27.4-13,32.5-27.3l34.7,14.1
			c3.9,22.8,25.4,38.1,48.2,34.2c20.1-3.4,34.8-20.8,34.8-41.2c0-1.3-0.1-2.7-0.2-4l45.6-38.4c17.1,15.5,43.5,14.3,59-2.8
			c9.9-10.9,13.3-26.2,9.1-40.2l44.8-31.8c15.8,16.8,42.2,17.6,59,1.9S433.907,43.783,418.207,26.983z M41.807,202.183
			c-12,0-21.8-9.8-21.8-21.8s9.8-21.8,21.8-21.8s21.8,9.8,21.8,21.8S53.807,202.183,41.807,202.183z M157.107,223.183
			c-12,0-21.8-9.8-21.8-21.8s9.8-21.8,21.8-21.8s21.8,9.8,21.8,21.8S169.207,223.083,157.107,223.183z M272.507,149.683
			c-12,0-21.8-9.8-21.8-21.8s9.8-21.8,21.8-21.8s21.8,9.8,21.8,21.8S284.507,149.683,272.507,149.683z M387.807,77.283
			c-12,0-21.8-9.8-21.8-21.8c0.1-12,9.8-21.8,21.8-21.8s21.8,9.8,21.8,21.8S399.807,77.283,387.807,77.283z"/>
	</g>
</g>
<g>
	<g>
		<path d="M425.707,286.583v-145.8c0.1-5.3-4.1-9.8-9.4-9.9c-0.1,0-0.2,0-0.3,0h-56.3c-5.5,0-9.9,4.4-10,9.9c0,0,0,0,0,0.1v146h-39
			v-73.9c0-5.5-4.5-10-10-10.1h-56.3c-5.4,0.1-9.7,4.5-9.6,9.9c0,0.1,0,0.1,0,0.2v73.7c-15.9,1.3-28.1,14.7-28,30.6v94.1
			c-0.2,16.7,13.2,30.4,29.9,30.5c0.1,0,0.2,0,0.4,0h187.6c17,0,31-13.6,31-30.5v-94.1
			C455.707,300.783,442.707,287.283,425.707,286.583z M369.707,150.883h36v136h-36V150.883z M254.707,222.883h36v64h-36V222.883z
			 M226.707,317.283c-0.2-5.6,4.2-10.2,9.8-10.4c0.2,0,0.3,0,0.5,0h14.1c-0.7,13.1-11.3,23.4-24.4,23.7V317.283z M237.007,421.883
			c-5.6,0.1-10.3-4.5-10.3-10.1c0-0.2,0-0.3,0-0.4v-13.1c13,0.3,23.7,10.6,24.4,23.6H237.007z M435.707,411.383
			c-0.2,5.9-5.1,10.6-11,10.5h-14.1c0.7-13,11.1-23.4,25.1-23.6V411.383z M435.707,378.283c-24.3-0.1-44.3,19.3-45.1,43.6h-119.5
			c-0.8-24.1-20.3-43.3-44.4-43.6v-27.7c24.1-0.3,43.7-19.6,44.4-43.7h119.5c0.6,24,20.1,43.5,45.1,43.7V378.283z M435.707,330.583
			c-14-0.2-24.5-10.7-25.1-23.7h14.1c5.9,0,11,4.4,11,10.4V330.583z"/>
	</g>
</g>
<g>
	<g>
		<path d="M330.907,311.683c-29.1,0-52.8,23.6-52.8,52.8c0,29.2,23.6,52.8,52.8,52.8c29.2,0,52.8-23.6,52.8-52.8
			C383.607,335.283,360.007,311.683,330.907,311.683z M330.907,397.183c-18.1,0-32.8-14.7-32.8-32.8s14.7-32.8,32.8-32.8
			c18.1,0,32.8,14.7,32.8,32.8C363.607,382.483,348.907,397.183,330.907,397.183z"/>
	</g>
</g>
<g>
</g>
<g>
</g>
<g>
</g>
<g>
</g>
<g>
</g>
<g>
</g>
<g>
</g>
<g>
</g>
<g>
</g>
<g>
</g>
<g>
</g>
<g>
</g>
<g>
</g>
<g>
</g>
<g>
</g>
</svg>
