<?xml version="1.0" encoding="iso-8859-1"?>
<!-- Generator: Adobe Illustrator 19.0.0, SVG Export Plug-In . SVG Version: 6.00 Build 0)  -->
<svg version="1.1" id="Capa_1" xmlns="http://www.w3.org/2000/svg" xmlns:xlink="http://www.w3.org/1999/xlink" x="0px" y="0px"
	 viewBox="0 0 500 500" style="enable-background:new 0 0 500 500;" xml:space="preserve">
<g>
	<g>
		<path d="M348,0H152c-27.6,0-50,22.4-50,50v400c0,27.6,22.4,50,50,50h196c27.6,0,50-22.4,50-50V50C398,22.4,375.6,0,348,0z
			 M378,450c0,16.6-13.4,30-30,30H152c-16.6,0-30-13.4-30-30v-41h256V450z M378,389H122V102h256V389z M378,82H122V50
			c0-16.6,13.4-30,30-30h196c16.6,0,30,13.4,30,30V82z"/>
	</g>
</g>
<g>
	<g>
		<path d="M265,52h-30c-5.5,0-10,4.5-10,10s4.5,10,10,10h30c5.5,0,10-4.5,10-10S270.5,52,265,52z"/>
	</g>
</g>
<g>
	<g>
		<path d="M250,415c-16.7,0-30.2,13.5-30.2,30.2s13.5,30.2,30.2,30.2s30.2-13.5,30.2-30.2C280.2,428.6,266.7,415,250,415z
			 M250,455.5c-5.7,0-10.2-4.6-10.2-10.2c0-5.7,4.6-10.2,10.2-10.2s10.2,4.6,10.2,10.2C260.2,450.9,255.6,455.5,250,455.5z"/>
	</g>
</g>
<g>
	<g>
		<path d="M334,313H158V177.1c0-5.5-4.5-10-10-10s-10,4.5-10,10v136.6c0,10.6,8.2,19.3,18.9,19.3H334c5.5,0,10-4.5,10-10
			S339.5,313,334,313z"/>
	</g>
</g>
<g>
	<g>
		<path d="M344.4,189c-13.5-4-27.7,3.6-31.7,17.1c-1.9,6.3-1.3,13.1,1.7,18.9L301,239.6c-8.7-6.5-20.6-6.7-29.6-0.5l-11.4-9.4
			c-1.3-14-13.7-24.3-27.7-23c-14,1.3-24.3,13.7-23,27.7c0.1,0.6,0.1,1.2,0.2,1.7l-14.4,18c-13.5-3.9-27.6,3.9-31.5,17.4
			c-3.9,13.5,3.9,27.6,17.4,31.5c2.3,0.9,4.6,1.2,7,1.2c14,0,25.4-11.4,25.5-25.4c0-4.1-1-8.2-2.9-11.9l10.5-13.2
			c10.2,6.4,23.4,4.8,31.8-3.9l7.8,6.4c-2.1,13.9,7.4,26.9,21.3,29c13.9,2.1,26.9-7.4,29-21.3c0.2-1.3,0.3-2.6,0.3-3.9
			c0-0.7,0-1.3-0.1-2l18.6-20.2c13.5,4,27.7-3.6,31.7-17.1S357.9,193,344.4,189z M188,284.3c-3,0-5.5-2.4-5.5-5.5
			c0.1-3,2.5-5.5,5.5-5.5s5.5,2.4,5.5,5.5C193.5,281.8,191.1,284.3,188,284.3z M234.6,237.8c-3,0-5.5-2.4-5.5-5.5
			c0-3.1,2.5-5.5,5.5-5.5s5.5,2.4,5.5,5.5C240.1,235.3,237.7,237.8,234.6,237.8z M285.8,265.7c-3,0-5.5-2.4-5.5-5.5
			c0-3,2.5-5.5,5.5-5.5s5.5,2.4,5.5,5.5C291.3,263.3,288.9,265.7,285.8,265.7z M337,219.2c-3,0-5.5-2.4-5.5-5.5
			c0-3.1,2.5-5.5,5.5-5.5s5.5,2.4,5.5,5.5C342.5,216.8,340.1,219.2,337,219.2z"/>
	</g>
</g>
<g>
</g>
<g>
</g>
<g>
</g>
<g>
</g>
<g>
</g>
<g>
</g>
<g>
</g>
<g>
</g>
<g>
</g>
<g>
</g>
<g>
</g>
<g>
</g>
<g>
</g>
<g>
</g>
<g>
</g>
</svg>
