<?xml version="1.0" encoding="iso-8859-1"?>
<!-- Generator: Adobe Illustrator 19.0.0, SVG Export Plug-In . SVG Version: 6.00 Build 0)  -->
<svg version="1.1" id="Capa_1" xmlns="http://www.w3.org/2000/svg" xmlns:xlink="http://www.w3.org/1999/xlink" x="0px" y="0px"
	 viewBox="0 0 500 500" style="enable-background:new 0 0 500 500;" xml:space="preserve">
<g>
	<g>
		<path d="M348,0H152c-27.6,0-50,22.4-50,50v400c0,27.6,22.4,50,50,50h196c27.6,0,50-22.4,50-50V50C398,22.4,375.6,0,348,0z
			 M378,450c0,16.6-13.4,30-30,30H152c-16.6,0-30-13.4-30-30v-41h256V450z M378,389H122V102h256V389z M378,82H122V50
			c0-16.6,13.4-30,30-30h196c16.6,0,30,13.4,30,30V82z"/>
	</g>
</g>
<g>
	<g>
		<path d="M265,52h-30c-5.5,0-10,4.5-10,10s4.5,10,10,10h30c5.5,0,10-4.5,10-10S270.5,52,265,52z"/>
	</g>
</g>
<g>
	<g>
		<path d="M250,415c-16.7,0-30.2,13.5-30.2,30.2s13.5,30.2,30.2,30.2s30.2-13.5,30.2-30.2C280.2,428.6,266.7,415,250,415z
			 M250,455.5c-5.7,0-10.2-4.6-10.2-10.2c0-5.7,4.6-10.2,10.2-10.2s10.2,4.6,10.2,10.2C260.2,450.9,255.6,455.5,250,455.5z"/>
	</g>
</g>
<g>
	<g>
		<path d="M319.7,256h-0.1H244v-75.9c0-5.5-4.4-10-9.9-10c0,0,0,0-0.1,0c-25.4-0.1-49.7,10-67.6,28c-37.2,37.4-37.1,97.9,0.3,135.1
			c18,17.8,42.2,27.8,67.4,27.8c52.6,0.1,95.4-42.5,95.5-95.2C329.6,260.4,325.2,256,319.7,256z M287.5,319.2
			c-29.6,29.4-77.5,29.3-106.9-0.4c-14-14.1-21.9-33.2-22-53.2c0.1-20,8-39.2,22.1-53.4c11.7-11.7,26.9-19.2,43.3-21.4v74.8
			c0,5.6,4.5,10.2,10.1,10.4h74.8C306.6,292.3,299.1,307.5,287.5,319.2z"/>
	</g>
</g>
<g>
	<g>
		<path d="M333.5,166.9c0,0-0.1,0-0.1-0.1C315.5,149,291.3,139,266,139c-5.5,0-9.9,4.5-9.9,10v85.5c0,5.3,4.2,9.6,9.5,9.6
			c0-0.1,0.1-0.1,0.3-0.1h85.5c5.4,0.1,9.9-4.2,10-9.6v-0.1C361.4,209,351.4,184.8,333.5,166.9z M276,159.7c3.5,0.5,7,1.2,10.5,2.1
			L276,172.3V159.7z M276,200.6l30-30.1c1.9,1.2,3.8,2.5,5.6,3.8L276,210V200.6z M289.8,224l35.9-35.7c1.4,1.8,2.7,3.6,3.9,5.5
			L299.2,224H289.8z M327.5,224l10.9-10.9c1,3.6,1.7,7.2,2.3,10.9H327.5z"/>
	</g>
</g>
<g>
</g>
<g>
</g>
<g>
</g>
<g>
</g>
<g>
</g>
<g>
</g>
<g>
</g>
<g>
</g>
<g>
</g>
<g>
</g>
<g>
</g>
<g>
</g>
<g>
</g>
<g>
</g>
<g>
</g>
</svg>
