<?xml version="1.0" encoding="iso-8859-1"?>
<!-- Generator: Adobe Illustrator 19.0.0, SVG Export Plug-In . SVG Version: 6.00 Build 0)  -->
<svg version="1.1" id="Capa_1" xmlns="http://www.w3.org/2000/svg" xmlns:xlink="http://www.w3.org/1999/xlink" x="0px" y="0px"
	 viewBox="0 0 500 500" style="enable-background:new 0 0 500 500;" xml:space="preserve">
<g>
	<g>
		<path d="M348,0H152c-27.6,0-50,22.4-50,50v400c0,27.6,22.4,50,50,50h196c27.6,0,50-22.4,50-50V50C398,22.4,375.6,0,348,0z
			 M378,450c0,16.6-13.4,30-30,30H152c-16.6,0-30-13.4-30-30v-41h256V450z M378,389H122V102h256V389z M378,82H122V50
			c0-16.6,13.4-30,30-30h196c16.6,0,30,13.4,30,30V82z"/>
	</g>
</g>
<g>
	<g>
		<path d="M265,52h-30c-5.5,0-10,4.5-10,10s4.5,10,10,10h30c5.5,0,10-4.5,10-10S270.5,52,265,52z"/>
	</g>
</g>
<g>
	<g>
		<path d="M250,415c-16.7,0-30.2,13.5-30.2,30.2s13.5,30.2,30.2,30.2s30.2-13.5,30.2-30.2C280.2,428.6,266.7,415,250,415z
			 M250,455.5c-5.7,0-10.2-4.6-10.2-10.2c0-5.7,4.6-10.2,10.2-10.2s10.2,4.6,10.2,10.2C260.2,450.9,255.6,455.5,250,455.5z"/>
	</g>
</g>
<g>
	<g>
		<path d="M295,172h-32.6c-5.6,0-10.2,4.5-10.4,10.1v160.4c0.2,5.7,4.7,10.3,10.4,10.5H295c5.5,0,10-4.9,10-10.4V182.1
			C305,176.5,300.5,172,295,172z M285,333h-13v-36h13V333z M285,277h-13v-85h13V277z"/>
	</g>
</g>
<g>
	<g>
		<path d="M353.6,147h-33.2c-5.7,0.2-10.3,4.8-10.4,10.4v185.1c0.2,5.7,4.7,10.3,10.4,10.5h33.2c5.7-0.2,10.3-4.8,10.4-10.4V157.5
			C363.8,151.8,359.3,147.2,353.6,147z M344,333h-14v-36h14V333z M344,277h-14V167h14V277z"/>
	</g>
</g>
<g>
	<g>
		<path d="M237.1,197H237h-32.6c-5.5,0-10.4,4.3-10.4,9.8v135.7c0.2,5.7,4.7,10.3,10.4,10.5H237c5.5,0,10-4.9,10-10.4V206.8
			C247,201.4,242.5,197,237.1,197z M227,333h-13v-36h13V333z M227,277h-13v-60h13V277z"/>
	</g>
</g>
<g>
	<g>
		<path d="M179,240h-32.6c-5.5,0-10.4,4.5-10.4,10v92.6c0.2,5.6,4.7,10.2,10.4,10.4H179c5.5,0,10-4.9,10-10.4V250
			C189,244.5,184.5,240,179,240z M169,333h-13v-36h13V333z M169,277h-13v-17h13V277z"/>
	</g>
</g>
<g>
</g>
<g>
</g>
<g>
</g>
<g>
</g>
<g>
</g>
<g>
</g>
<g>
</g>
<g>
</g>
<g>
</g>
<g>
</g>
<g>
</g>
<g>
</g>
<g>
</g>
<g>
</g>
<g>
</g>
</svg>
