<?xml version="1.0" encoding="iso-8859-1"?>
<!-- Generator: Adobe Illustrator 19.0.0, SVG Export Plug-In . SVG Version: 6.00 Build 0)  -->
<svg version="1.1" id="Capa_1" xmlns="http://www.w3.org/2000/svg" xmlns:xlink="http://www.w3.org/1999/xlink" x="0px" y="0px"
	 viewBox="0 0 500 500" style="enable-background:new 0 0 500 500;" xml:space="preserve">
<g>
	<g>
		<path d="M348,0H152c-27.6,0-50,22.4-50,50v400c0,27.6,22.4,50,50,50h196c27.6,0,50-22.4,50-50V50C398,22.4,375.6,0,348,0z
			 M378,450c0,16.6-13.4,30-30,30H152c-16.6,0-30-13.4-30-30v-41h256V450z M378,389H122V102h256V389z M378,82H122V50
			c0-16.6,13.4-30,30-30h196c16.6,0,30,13.4,30,30V82z"/>
	</g>
</g>
<g>
	<g>
		<path d="M265,52h-30c-5.5,0-10,4.5-10,10s4.5,10,10,10h30c5.5,0,10-4.5,10-10S270.5,52,265,52z"/>
	</g>
</g>
<g>
	<g>
		<path d="M250,415c-16.7,0-30.2,13.5-30.2,30.2s13.5,30.2,30.2,30.2s30.2-13.5,30.2-30.2C280.2,428.6,266.7,415,250,415z
			 M250,455.5c-5.7,0-10.2-4.6-10.2-10.2c0-5.7,4.6-10.2,10.2-10.2s10.2,4.6,10.2,10.2C260.2,450.9,255.6,455.5,250,455.5z"/>
	</g>
</g>
<g>
	<g>
		<path d="M362.5,237.4c-2.3-21.9-11-42.7-25.1-59.7c-3.2-3.8-8.8-4.4-12.7-1.2c-0.2,0.2-0.4,0.4-0.6,0.6l-38.9,38.5
			c-3,3-3.5,7.7-1.2,11.3c2.7,4.4,4.7,9.2,6,14.3c1,4,4.6,6.8,8.7,6.8h53.7c0.3,0,0.7,0,1,0h0.2c4,0,7.5-2.6,8.6-6.5
			c0.2-0.8,0.4-1.7,0.4-2.5C362.6,238.5,362.6,237.9,362.5,237.4z M305.3,230c-0.7-2-1.6-4.2-2.6-6.4l26.6-26.5
			c6.7,10,11.3,21.2,13.8,32.9H305.3z"/>
	</g>
</g>
<g>
	<g>
		<path d="M322.5,162.9c-0.2-0.2-0.4-0.4-0.6-0.6c-17.2-14.2-38.2-23-60.4-25.1c-4.9-0.7-9.5,2.7-10.2,7.6c-0.1,0.4-0.1,0.9-0.1,1.3
			V201c-0.2,4.2,2.9,7.9,7.2,8.7c4.9,1,9.6,3,13.9,5.8c3.6,2.3,8.3,1.9,11.3-1.1l38.9-38.8C326,172.1,326,166.4,322.5,162.9z
			 M275.7,196.8c-2.2-1.1-4.4-2-6.7-2.8v-37.6c11.9,2.4,23.2,7.1,33.3,13.8L275.7,196.8z"/>
	</g>
</g>
<g>
	<g>
		<path d="M238.1,137.1c-0.3,0-0.6,0-0.9,0c-25.8,2.6-49.8,14.1-68,32.5c-18.1,18.5-29.3,42.6-31.8,68.4c-0.5,4.9,3.1,9.3,8.1,9.8
			c0.2,0.2,0.5,0.2,0.8,0.2h54.9c4.2,0,7.9-2.9,8.8-7.1c3.2-14.4,16.1-27.7,30.2-31.1c4-1,6.9-4.6,6.9-8.8v-54.9
			C247.1,141.1,243.1,137.1,238.1,137.1z M229,194.5c-15.4,6.1-28.7,19.8-34.5,35.5h-37.8c3.6-18,12.4-34.5,25.3-47.6
			c12.8-13,29.2-21.9,47-25.7V194.5z"/>
	</g>
</g>
<g>
	<g>
		<path d="M241.5,289.6c-0.1,0-0.1,0-0.2,0c-15.8-3.3-28.1-15.7-31.5-31.5c-0.9-4.2-4.6-7.1-8.8-7.1h-55c-2.5,0-4.9,1-6.7,2.9
			c-1.7,1.9-2.5,4.4-2.3,6.9c5.3,53.6,47.6,96,101.1,101.5c0.3,0,0.6,0,0.9,0c4.9,0,9-4,9-8.9c0,0,0.1-13.7,0.2-27.5
			c0.1-6.9,0.1-13.7,0.1-18.9c0-2.6,0-4.7,0-6.3c0-0.8,0-1.4,0-1.8C248.4,291.6,242.7,289.8,241.5,289.6z M230.2,342.8
			c-37.1-7.8-66-36.8-73.7-73.9l37.7-0.1c5.9,17,19.2,30.4,36.2,36.3C230.4,313.7,230.3,329,230.2,342.8z"/>
	</g>
</g>
<g>
	<g>
		<path d="M354.4,252.2c-0.3,0-0.6,0-0.9,0h-54.9c-4.2,0-7.8,2.9-8.8,7c-3.4,15.1-16.4,27.9-31.6,31c-4.2,0.9-7.2,4.5-7.2,8.8
			l-0.2,54.9c0,2.4,1.1,4.9,3,6.6c1.6,1.5,3.8,2.3,6,2.3c0.3,0,0.6,0,1,0h0.2c53.5-5.2,96.2-47.6,101.5-100.8
			C363,257.1,359.4,252.6,354.4,252.2z M285.1,338.6l-16.2-16.2l0.1-16.7c2.6-0.9,5.2-2,7.6-3.3l26.6,26.6
			C297.5,332.8,291.5,336,285.1,338.6z M317.2,317.4l-25.9-25.9c4.7-4.6,8.6-10,11.6-16l26.7,26.7
			C326,307.7,321.8,312.8,317.2,317.4z M338.3,285.5L322.8,270H343C341.9,275.3,340.3,280.5,338.3,285.5z"/>
	</g>
</g>
<g>
</g>
<g>
</g>
<g>
</g>
<g>
</g>
<g>
</g>
<g>
</g>
<g>
</g>
<g>
</g>
<g>
</g>
<g>
</g>
<g>
</g>
<g>
</g>
<g>
</g>
<g>
</g>
<g>
</g>
</svg>
