<?xml version="1.0" encoding="iso-8859-1"?>
<!-- Generator: Adobe Illustrator 19.0.0, SVG Export Plug-In . SVG Version: 6.00 Build 0)  -->
<svg version="1.1" id="Capa_1" xmlns="http://www.w3.org/2000/svg" xmlns:xlink="http://www.w3.org/1999/xlink" x="0px" y="0px"
	 viewBox="0 0 500 500" style="enable-background:new 0 0 500 500;" xml:space="preserve">
<g>
	<g>
		<path d="M348,0H152c-27.6,0-50,22.4-50,50v400c0,27.6,22.4,50,50,50h196c27.6,0,50-22.4,50-50V50C398,22.4,375.6,0,348,0z
			 M378,450c0,16.6-13.4,30-30,30H152c-16.6,0-30-13.4-30-30v-41h256V450z M378,389H122V102h256V389z M378,82H122V50
			c0-16.6,13.4-30,30-30h196c16.6,0,30,13.4,30,30V82z"/>
	</g>
</g>
<g>
	<g>
		<path d="M265,52h-30c-5.5,0-10,4.5-10,10s4.5,10,10,10h30c5.5,0,10-4.5,10-10S270.5,52,265,52z"/>
	</g>
</g>
<g>
	<g>
		<path d="M250,415c-16.7,0-30.2,13.5-30.2,30.2s13.5,30.2,30.2,30.2s30.2-13.5,30.2-30.2C280.2,428.6,266.7,415,250,415z
			 M250,455.5c-5.7,0-10.2-4.6-10.2-10.2c0-5.7,4.6-10.2,10.2-10.2s10.2,4.6,10.2,10.2C260.2,450.9,255.6,455.5,250,455.5z"/>
	</g>
</g>
<g>
	<g>
		<path d="M353.2,143.7c0,0,0,0-0.1,0l-55.4-4c-5.5-0.4-10.3,3.8-10.7,9.3c-0.4,5.5,3.8,10.3,9.3,10.7l29.4,2.1l-62.3,48.4
			l-52.9-41.7c-3.9-3.1-9.5-2.8-13.1,0.6l-56.7,54.4c-4,3.9-4.1,10.2-0.3,14.2s10.2,4.1,14.1,0.3l50.4-48.4l52.2,41.1
			c3.6,2.8,8.7,2.9,12.3,0l71.2-55.3l-2.2,28.9c-0.4,5.5,3.7,10.3,9.2,10.7c0.3,0,0.5,0,0.8,0c5.2,0,9.6-4,10-9.2l4-51.4
			C362.8,148.9,358.7,144.1,353.2,143.7z"/>
	</g>
</g>
<g>
	<g>
		<path d="M268,258h-35c-5.5,0-10,4.5-10,10v83c0,5.5,4.5,10,10,10h35c5.5,0,10-4.5,10-10v-83C278,262.5,273.5,258,268,258z
			 M257,340h-14v-62h14V340z"/>
	</g>
</g>
<g>
	<g>
		<path d="M197,281h-35c-5.5,0-10,4.5-10,10v59c0,5.5,4.5,10,10,10h35c5.5,0,10-4.5,10-10v-59C207,285.5,202.5,281,197,281z
			 M187,340h-15v-39h15V340z"/>
	</g>
</g>
<g>
	<g>
		<path d="M338,240h-35c-5.5,0-10,4.5-10,10v100c0,5.5,4.5,10,10,10h35c5.5,0,10-4.5,10-10V250C348,244.5,343.5,240,338,240z
			 M328,340h-15v-80h15V340z"/>
	</g>
</g>
<g>
</g>
<g>
</g>
<g>
</g>
<g>
</g>
<g>
</g>
<g>
</g>
<g>
</g>
<g>
</g>
<g>
</g>
<g>
</g>
<g>
</g>
<g>
</g>
<g>
</g>
<g>
</g>
<g>
</g>
</svg>
