<?xml version="1.0" encoding="iso-8859-1"?>
<!-- Generator: Adobe Illustrator 19.0.0, SVG Export Plug-In . SVG Version: 6.00 Build 0)  -->
<svg version="1.1" id="Capa_1" xmlns="http://www.w3.org/2000/svg" xmlns:xlink="http://www.w3.org/1999/xlink" x="0px" y="0px"
	 viewBox="0 0 434.002 434.002" style="enable-background:new 0 0 434.002 434.002;" xml:space="preserve">
<g>
	<g>
		<path d="M430.248,173.202l-45.2-36.4V9.902c0-5.5-4.4-9.9-9.9-9.9h-0.1h-316c-5.5-0.1-9.9,4.3-10,9.8v0.1v126.9l-45.1,36.3h-0.1
			c-2.4,1.9-3.8,4.7-3.8,7.8v203.2c0.1,27.6,22.5,49.9,50.1,49.9h333.7c27.6,0,50-22.3,50.1-49.9v-203.2
			C434.048,177.902,432.648,175.002,430.248,173.202z M385.048,162.502l22.1,17.8l-22.1,15.2V162.502z M69.048,20.002h296v189.3
			l-131,90.1c-10.3,7-23.7,7-34,0l-131-90.1V20.002z M49.048,162.502v33l-22.1-15.2L49.048,162.502z M414.048,384.102
			c-0.1,16.6-13.6,29.9-30.1,29.9h-333.8c-16.6,0-30-13.3-30.1-29.9v-184.1l168.6,115.9c17.1,11.7,39.6,11.7,56.8,0l168.6-115.9
			V384.102z"/>
	</g>
</g>
<g>
	<g>
		<path d="M286.748,154.902h-0.1h-75.6v-75.9c0-5.5-4.4-10-9.9-10c0,0,0,0-0.1,0c-25.4-0.1-49.7,10-67.6,28
			c-37.2,37.4-37.1,97.9,0.3,135.1c18,17.9,42.2,27.9,67.4,27.9c52.6,0.1,95.4-42.5,95.5-95.2c0,0,0,0,0-0.1
			C296.648,159.302,292.248,154.902,286.748,154.902z M254.548,218.202c-29.6,29.4-77.5,29.3-106.9-0.4c-14-14.1-21.9-33.3-22-53.2
			c0.1-20,8-39.2,22.1-53.4c11.7-11.7,26.9-19.2,43.3-21.4v74.8c0,5.6,4.5,10.2,10.1,10.4h74.8
			C273.648,191.302,266.148,206.502,254.548,218.202z"/>
	</g>
</g>
<g>
	<g>
		<path d="M300.548,65.902c0,0-0.1,0-0.1-0.1c-18-17.8-42.2-27.8-67.5-27.9c-5.5,0-9.9,4.5-9.9,10v85.5c0,5.3,4.2,9.6,9.5,9.6
			c0.1,0,0.2,0,0.4,0h85.5c5.4,0.1,9.9-4.2,10-9.6v-0.1C328.448,108.002,318.448,83.802,300.548,65.902z M243.048,58.602
			c3.5,0.6,7,1.3,10.5,2.2l-10.5,10.5V58.602z M243.048,99.602l30-30.1c1.9,1.2,3.8,2.5,5.6,3.8l-35.6,35.7V99.602z
			 M256.848,123.002l35.9-35.7c1.4,1.8,2.7,3.6,3.9,5.5l-30.4,30.2H256.848z M294.548,123.002l10.9-10.9c1,3.6,1.7,7.2,2.3,10.9
			H294.548z"/>
	</g>
</g>
<g>
</g>
<g>
</g>
<g>
</g>
<g>
</g>
<g>
</g>
<g>
</g>
<g>
</g>
<g>
</g>
<g>
</g>
<g>
</g>
<g>
</g>
<g>
</g>
<g>
</g>
<g>
</g>
<g>
</g>
</svg>
