<?xml version="1.0" encoding="iso-8859-1"?>
<!-- Generator: Adobe Illustrator 19.0.0, SVG Export Plug-In . SVG Version: 6.00 Build 0)  -->
<svg version="1.1" id="Capa_1" xmlns="http://www.w3.org/2000/svg" xmlns:xlink="http://www.w3.org/1999/xlink" x="0px" y="0px"
	 viewBox="0 0 434.002 434.002" style="enable-background:new 0 0 434.002 434.002;" xml:space="preserve">
<g>
	<g>
		<path d="M430.248,173.202l-45.2-36.4V9.902c0-5.5-4.4-9.9-9.9-9.9h-0.1h-316c-5.5-0.1-9.9,4.3-10,9.8v0.1v126.9l-45.1,36.3h-0.1
			c-2.4,1.9-3.8,4.7-3.8,7.8v203.2c0.1,27.6,22.5,49.9,50.1,49.9h333.7c27.6,0,50-22.3,50.1-49.9v-203.2
			C434.048,177.902,432.648,175.002,430.248,173.202z M385.048,162.502l22.1,17.8l-22.1,15.2V162.502z M69.048,20.002h296v189.3
			l-131,90.1c-10.3,7-23.7,7-34,0l-131-90.1V20.002z M49.048,162.502v33l-22.1-15.2L49.048,162.502z M414.048,384.102
			c-0.1,16.6-13.6,29.9-30.1,29.9h-333.8c-16.6,0-30-13.3-30.1-29.9v-184.1l168.6,115.9c17.1,11.7,39.6,11.7,56.8,0l168.6-115.9
			V384.102z"/>
	</g>
</g>
<g>
	<g>
		<path d="M262.048,53.002h-32.5c-5.6,0-10.2,4.5-10.4,10.1v160.4c0.1,5.7,4.6,10.3,10.3,10.5h32.6c5.5,0,10-4.9,10-10.4v-160.5
			C272.048,57.502,267.548,53.002,262.048,53.002z M252.048,214.002h-13v-36h13V214.002z M252.048,158.002h-13v-85h13V158.002z"/>
	</g>
</g>
<g>
	<g>
		<path d="M320.648,28.002h-33.2c-5.7,0.2-10.3,4.8-10.4,10.4v185.1c0.2,5.7,4.7,10.3,10.4,10.5h33.2c5.7-0.2,10.3-4.8,10.4-10.4
			v-185.2C330.848,32.702,326.348,28.102,320.648,28.002z M311.048,214.002h-14v-36h14V214.002z M311.048,158.002h-14v-110h14
			V158.002z"/>
	</g>
</g>
<g>
	<g>
		<path d="M204.148,78.002h-0.1h-32.6c-5.5,0-10.4,4.3-10.4,9.8v135.7c0.2,5.7,4.7,10.3,10.4,10.5h32.6c5.5,0,10-4.9,10-10.4v-135.8
			C214.048,82.402,209.548,78.002,204.148,78.002z M194.048,214.002h-13v-36h13V214.002z M194.048,158.002h-13v-60h13V158.002z"/>
	</g>
</g>
<g>
	<g>
		<path d="M146.048,121.002h-32.6c-5.5,0-10.4,4.5-10.4,10v92.6c0.2,5.6,4.7,10.2,10.4,10.4h32.6c5.5,0,10-4.9,10-10.4v-92.6
			C156.048,125.502,151.548,121.002,146.048,121.002z M136.048,214.002h-13v-36h13V214.002z M136.048,158.002h-13v-17h13V158.002z"
			/>
	</g>
</g>
<g>
</g>
<g>
</g>
<g>
</g>
<g>
</g>
<g>
</g>
<g>
</g>
<g>
</g>
<g>
</g>
<g>
</g>
<g>
</g>
<g>
</g>
<g>
</g>
<g>
</g>
<g>
</g>
<g>
</g>
</svg>
