<?xml version="1.0" encoding="iso-8859-1"?>
<!-- Generator: Adobe Illustrator 19.0.0, SVG Export Plug-In . SVG Version: 6.00 Build 0)  -->
<svg version="1.1" id="Capa_1" xmlns="http://www.w3.org/2000/svg" xmlns:xlink="http://www.w3.org/1999/xlink" x="0px" y="0px"
	 viewBox="0 0 434.002 434.002" style="enable-background:new 0 0 434.002 434.002;" xml:space="preserve">
<g>
	<g>
		<path d="M430.248,173.202l-45.2-36.4V9.902c0-5.5-4.4-9.9-9.9-9.9h-0.1h-316c-5.5-0.1-9.9,4.3-10,9.8v0.1v126.9l-45.1,36.3h-0.1
			c-2.4,1.9-3.8,4.7-3.8,7.8v203.2c0.1,27.6,22.5,49.9,50.1,49.9h333.7c27.6,0,50-22.3,50.1-49.9v-203.2
			C434.048,177.902,432.648,175.002,430.248,173.202z M385.048,162.502l22.1,17.8l-22.1,15.2V162.502z M69.048,20.002h296v189.3
			l-131,90.1c-10.3,7-23.7,7-34,0l-131-90.1V20.002z M49.048,162.502v33l-22.1-15.2L49.048,162.502z M414.048,384.102
			c-0.1,16.6-13.6,29.9-30.1,29.9h-333.8c-16.6,0-30-13.3-30.1-29.9v-184.1l168.6,115.9c17.1,11.7,39.6,11.7,56.8,0l168.6-115.9
			V384.102z"/>
	</g>
</g>
<g>
	<g>
		<path d="M329.548,134.402c-2.3-21.9-11-42.7-25.1-59.7c-3.2-3.8-8.8-4.4-12.7-1.2c-0.2,0.2-0.4,0.4-0.6,0.6l-38.9,38.5
			c-3,3-3.5,7.7-1.2,11.3c2.7,4.4,4.7,9.2,6,14.3c1,4,4.6,6.8,8.7,6.8h53.7c0.3,0,0.7,0,1,0h0.2c4,0,7.5-2.6,8.6-6.5
			c0.2-0.8,0.4-1.7,0.4-2.5C329.648,135.502,329.648,134.902,329.548,134.402z M272.348,127.002c-0.7-2-1.6-4.2-2.6-6.4l26.6-26.5
			c6.7,10,11.3,21.2,13.8,32.9H272.348z"/>
	</g>
</g>
<g>
	<g>
		<path d="M289.548,59.902c-0.2-0.2-0.4-0.4-0.6-0.6c-17.2-14.2-38.2-23-60.4-25.2c-4.9-0.7-9.5,2.7-10.2,7.6
			c-0.1,0.4-0.1,0.9-0.1,1.3v54.9c-0.2,4.3,2.9,8,7.2,8.8c4.9,1,9.6,3,13.9,5.8c3.6,2.3,8.3,1.9,11.3-1.1l38.9-38.8
			C293.048,69.102,293.048,63.402,289.548,59.902z M242.748,93.802c-2.2-1.1-4.4-2-6.7-2.8v-37.6c11.9,2.4,23.2,7.1,33.3,13.8
			L242.748,93.802z"/>
	</g>
</g>
<g>
	<g>
		<path d="M205.148,34.202c-0.3,0-0.6,0-0.9,0c-25.8,2.6-49.8,14.1-68,32.5c-18.1,18.5-29.3,42.6-31.8,68.4
			c-0.5,4.9,3.1,9.3,8.1,9.8c0.2,0.1,0.5,0.1,0.8,0.1h54.9c4.2,0,7.9-2.9,8.8-7.1c3.2-14.4,16.1-27.7,30.2-31.1c4-1,6.9-4.6,6.9-8.8
			v-54.8C214.148,38.202,210.148,34.202,205.148,34.202z M196.048,91.502c-15.4,6.1-28.7,19.8-34.5,35.5h-37.8
			c3.6-18,12.4-34.5,25.3-47.6c12.8-13,29.2-21.9,47-25.7V91.502z"/>
	</g>
</g>
<g>
	<g>
		<path d="M208.548,186.502c-0.1,0-0.1,0-0.2,0c-15.8-3.3-28.1-15.7-31.5-31.5c-0.9-4.2-4.6-7.1-8.8-7.1h-55c-2.5,0-4.9,1-6.7,2.9
			c-1.7,1.9-2.5,4.4-2.3,6.9c5.4,53.6,47.7,96.1,101.2,101.5c0.3,0,0.6,0,0.9,0c4.9,0,9-4,9-8.9c0,0,0.1-13.7,0.2-27.5
			c0.1-6.9,0.1-13.7,0.1-18.9c0-2.6,0-4.7,0-6.3c0-0.8,0-1.4,0-1.8C215.448,188.502,209.648,186.702,208.548,186.502z
			 M197.148,239.802c-37.1-7.8-66-36.8-73.7-73.9l37.8-0.1c5.9,17,19.2,30.4,36.2,36.3
			C197.448,210.602,197.248,226.002,197.148,239.802z"/>
	</g>
</g>
<g>
	<g>
		<path d="M321.448,149.202c-0.3,0-0.6,0-0.9,0h-54.9c-4.2,0-7.8,2.9-8.8,7c-3.4,15.1-16.4,27.9-31.6,31c-4.2,0.9-7.2,4.5-7.2,8.8
			l-0.2,54.9c0,2.4,1.1,4.9,3,6.6c1.6,1.5,3.8,2.3,6,2.3c0.3,0,0.6,0,1,0h0.2c53.5-5.2,96.2-47.6,101.5-100.8
			C330.048,154.102,326.448,149.602,321.448,149.202z M252.148,235.602l-16.2-16.2l0.1-16.7c2.6-0.9,5.2-2,7.6-3.3l26.6,26.6
			C264.548,229.802,258.548,233.002,252.148,235.602z M284.248,214.402l-25.9-25.9c4.7-4.6,8.6-10,11.6-16l26.7,26.7
			C293.048,204.702,288.848,209.802,284.248,214.402z M305.348,182.502l-15.5-15.5h20.2
			C308.948,172.302,307.348,177.502,305.348,182.502z"/>
	</g>
</g>
<g>
</g>
<g>
</g>
<g>
</g>
<g>
</g>
<g>
</g>
<g>
</g>
<g>
</g>
<g>
</g>
<g>
</g>
<g>
</g>
<g>
</g>
<g>
</g>
<g>
</g>
<g>
</g>
<g>
</g>
</svg>
