<?xml version="1.0" encoding="iso-8859-1"?>
<!-- Generator: Adobe Illustrator 19.0.0, SVG Export Plug-In . SVG Version: 6.00 Build 0)  -->
<svg version="1.1" id="Capa_1" xmlns="http://www.w3.org/2000/svg" xmlns:xlink="http://www.w3.org/1999/xlink" x="0px" y="0px"
	 viewBox="0 0 434.002 434.002" style="enable-background:new 0 0 434.002 434.002;" xml:space="preserve">
<g>
	<g>
		<path d="M430.248,173.202l-45.2-36.4V9.902c0-5.5-4.4-9.9-9.9-9.9h-0.1h-316c-5.5-0.1-9.9,4.3-10,9.8v0.1v126.9l-45.1,36.3h-0.1
			c-2.4,1.9-3.8,4.7-3.8,7.8v203.2c0.1,27.6,22.5,49.9,50.1,49.9h333.7c27.6,0,50-22.3,50.1-49.9v-203.2
			C434.048,177.902,432.648,175.002,430.248,173.202z M385.048,162.502l22.1,17.8l-22.1,15.2V162.502z M69.048,20.002h296v189.3
			l-131,90.1c-10.3,7-23.7,7-34,0l-131-90.1V20.002z M49.048,162.502v33l-22.1-15.2L49.048,162.502z M414.048,384.102
			c-0.1,16.6-13.6,29.9-30.1,29.9h-333.8c-16.6,0-30-13.3-30.1-29.9v-184.1l168.6,115.9c17.1,11.7,39.6,11.7,56.8,0l168.6-115.9
			V384.102z"/>
	</g>
</g>
<g>
	<g>
		<path d="M315.048,35.502l-52.6-3.8c-5.5-0.4-10.3,3.8-10.7,9.3s3.8,10.3,9.3,10.7l26.6,1.9l-57.7,44.9l-49.8-39.3
			c-3.9-3.1-9.5-2.8-13.1,0.6l-54,51.8c-4,3.8-4.1,10.2-0.3,14.1c1.8,2,4.5,3.1,7.2,3.1c2.6,0,5.1-1,6.9-2.8l47.5-45.6l49.2,38.7
			c3.6,2.8,8.7,2.9,12.3,0l66.6-51.8l-2,26.2c-0.4,5.5,3.7,10.3,9.2,10.7c0.3,0,0.5,0,0.8,0c5.2,0,9.6-4,10-9.2l3.8-48.8
			C324.648,40.702,320.548,35.902,315.048,35.502z"/>
	</g>
</g>
<g>
	<g>
		<path d="M234.048,144.002h-33c-5.5,0-10,4.5-10,10v78c0,5.5,4.5,10,10,10h33c5.5,0,10-4.5,10-10v-78
			C244.048,148.502,239.548,144.002,234.048,144.002z M223.048,222.002h-12v-58h12V222.002z"/>
	</g>
</g>
<g>
	<g>
		<path d="M167.048,166.002h-33c-5.5,0-10,4.5-10,10v56c0,5.5,4.5,10,10,10h33c5.5,0,10-4.5,10-10v-56
			C177.048,170.502,172.548,166.002,167.048,166.002z M157.048,222.002h-13v-36h13V222.002z"/>
	</g>
</g>
<g>
	<g>
		<path d="M301.048,127.002h-33c-5.5,0-10,4.5-10,10v95c0,5.5,4.5,10,10,10h33c5.5,0,10-4.5,10-10v-95
			C311.048,131.502,306.548,127.002,301.048,127.002z M290.048,222.002h-12v-75h12V222.002z"/>
	</g>
</g>
<g>
</g>
<g>
</g>
<g>
</g>
<g>
</g>
<g>
</g>
<g>
</g>
<g>
</g>
<g>
</g>
<g>
</g>
<g>
</g>
<g>
</g>
<g>
</g>
<g>
</g>
<g>
</g>
<g>
</g>
</svg>
