<?xml version="1.0" encoding="iso-8859-1"?>
<!-- Generator: Adobe Illustrator 19.0.0, SVG Export Plug-In . SVG Version: 6.00 Build 0)  -->
<svg version="1.1" id="Capa_1" xmlns="http://www.w3.org/2000/svg" xmlns:xlink="http://www.w3.org/1999/xlink" x="0px" y="0px"
	 viewBox="0 0 434.002 434.002" style="enable-background:new 0 0 434.002 434.002;" xml:space="preserve">
<g>
	<g>
		<path d="M430.248,173.202l-45.2-36.4V9.902c0-5.5-4.4-9.9-9.9-9.9h-0.1h-316c-5.5-0.1-9.9,4.3-10,9.8v0.1v126.9l-45.1,36.3h-0.1
			c-2.4,1.9-3.8,4.7-3.8,7.8v203.2c0.1,27.6,22.5,49.9,50.1,49.9h333.7c27.6,0,50-22.3,50.1-49.9v-203.2
			C434.048,177.902,432.648,175.002,430.248,173.202z M385.048,162.502l22.1,17.8l-22.1,15.2V162.502z M69.048,20.002h296v189.3
			l-131,90.1c-10.3,7-23.7,7-34,0l-131-90.1V20.002z M49.048,162.502v33l-22.1-15.2L49.048,162.502z M414.048,384.102
			c-0.1,16.6-13.6,29.9-30.1,29.9h-333.8c-16.6,0-30-13.3-30.1-29.9v-184.1l168.6,115.9c17.1,11.7,39.6,11.7,56.8,0l168.6-115.9
			V384.102z"/>
	</g>
</g>
<g>
	<g>
		<path d="M239.048,101.002h-45c-5.5,0-10,4.5-10,10v97c0,5.5,4.5,10,10,10h45c5.5,0,10-4.5,10-10v-97
			C249.048,105.502,244.548,101.002,239.048,101.002z M230.048,197.002h-26v-76h26V197.002z"/>
	</g>
</g>
<g>
	<g>
		<path d="M316.048,49.002h-45c-5.5,0-10,4.5-10,10v148c0,5.5,4.5,10,10,10h45c5.5,0,10-4.5,10-10v-148
			C326.048,53.502,321.548,49.002,316.048,49.002z M306.048,197.002h-25v-128h25V197.002z"/>
	</g>
</g>
<g>
	<g>
		<path d="M163.048,136.002h-45c-5.5,0-10,4.5-10,10v61c0,5.5,4.5,10,10,10h45c5.5,0,10-4.5,10-10v-61
			C173.048,140.502,168.548,136.002,163.048,136.002z M153.048,197.002h-25v-41h25V197.002z"/>
	</g>
</g>
<g>
</g>
<g>
</g>
<g>
</g>
<g>
</g>
<g>
</g>
<g>
</g>
<g>
</g>
<g>
</g>
<g>
</g>
<g>
</g>
<g>
</g>
<g>
</g>
<g>
</g>
<g>
</g>
<g>
</g>
</svg>
