<?xml version="1.0" encoding="iso-8859-1"?>
<!-- Generator: Adobe Illustrator 19.0.0, SVG Export Plug-In . SVG Version: 6.00 Build 0)  -->
<svg version="1.1" id="Capa_1" xmlns="http://www.w3.org/2000/svg" xmlns:xlink="http://www.w3.org/1999/xlink" x="0px" y="0px"
	 viewBox="0 0 434.002 434.002" style="enable-background:new 0 0 434.002 434.002;" xml:space="preserve">
<g>
	<g>
		<path d="M430.248,173.202l-45.2-36.4V9.902c0-5.5-4.4-9.9-9.9-9.9h-0.1h-316c-5.5-0.1-9.9,4.3-10,9.8v0.1v126.9l-45.1,36.3h-0.1
			c-2.4,1.9-3.8,4.7-3.8,7.8v203.2c0.1,27.6,22.5,49.9,50.1,49.9h333.7c27.6,0,50-22.3,50.1-49.9v-203.2
			C434.048,177.902,432.648,175.002,430.248,173.202z M385.048,162.502l22.1,17.8l-22.1,15.2V162.502z M69.048,20.002h296v189.3
			l-131,90.1c-10.3,7-23.7,7-34,0l-131-90.1V20.002z M49.048,162.502v33l-22.1-15.2L49.048,162.502z M414.048,384.102
			c-0.1,16.6-13.6,29.9-30.1,29.9h-333.8c-16.6,0-30-13.3-30.1-29.9v-184.1l168.6,115.9c17.1,11.7,39.6,11.7,56.8,0l168.6-115.9
			V384.102z"/>
	</g>
</g>
<g>
	<g>
		<path d="M317.548,35.802c-11.3-8.5-27.5-6.2-36,5.1c-4,5.3-5.8,12-4.9,18.6l-16.4,11.5c-11.5-8.2-27.5-5.5-35.7,6
			c-4.1,5.8-5.7,13.1-4.2,20.1l-14.2,12c-10.4-9.6-26.6-8.9-36.2,1.5c-1.1,1.2-2.2,2.6-3,4l-10.2-4.1c-4-13.6-18.2-21.4-31.8-17.4
			c-13.6,4-21.4,18.2-17.4,31.8c3.1,10.8,13.1,18.4,24.5,18.4c8.9,0,17.2-4.7,21.9-12.3l10.2,4.1c3.9,13.6,18.2,21.4,31.7,17.5
			c10.8-3.1,18.3-13,18.5-24.3l17.4-14.7c12,7.5,27.8,3.9,35.3-8c2.6-4.1,3.9-8.8,3.9-13.7c0-1.3-0.1-2.5-0.3-3.7l16-11.3
			c11.4,8.5,27.5,6.2,36-5.1C331.148,60.402,328.848,44.302,317.548,35.802z M132.048,123.202c-3.1,0-5.6-2.5-5.6-5.6
			c0-3.1,2.5-5.6,5.6-5.6c3.1,0,5.6,2.5,5.6,5.6C137.648,120.702,135.148,123.202,132.048,123.202z M188.748,133.502
			c-3.1,0-5.6-2.5-5.6-5.6c0-3.1,2.5-5.6,5.6-5.6s5.6,2.5,5.6,5.6C194.348,131.002,191.848,133.502,188.748,133.502z
			 M245.348,97.502c-3.1,0-5.6-2.5-5.6-5.6c0-3.1,2.5-5.6,5.6-5.6c3.1,0,5.6,2.5,5.6,5.6
			C250.948,95.002,248.448,97.502,245.348,97.502z M302.048,61.902c-3.1,0-5.6-2.5-5.6-5.6c-0.1-3.1,2.5-5.6,5.6-5.6
			c3.1,0,5.6,2.5,5.6,5.6S305.148,61.902,302.048,61.902z"/>
	</g>
</g>
<g>
	<g>
		<path d="M316.048,88.002h-28c-5.5,0-10,4.5-10,10v117c0,5.5,4.5,10,10,10h28c5.5,0,10-4.5,10-10v-117
			C326.048,92.502,321.548,88.002,316.048,88.002z M306.048,205.002h-8v-97h8V205.002z"/>
	</g>
</g>
<g>
	<g>
		<path d="M259.048,124.002h-28c-5.5,0-10,4.5-10,10v82c0,5.5,4.5,10,10,10h28c5.5,0,10-4.5,10-10v-82
			C269.048,128.502,264.548,124.002,259.048,124.002z M249.048,205.002h-8v-61h8V205.002z"/>
	</g>
</g>
<g>
	<g>
		<path d="M203.048,160.002h-28c-5.5,0-10,4.5-10,10v45c0,5.5,4.5,10,10,10h28c5.5,0,10-4.5,10-10v-45
			C213.048,164.502,208.548,160.002,203.048,160.002z M193.048,205.002h-8v-25h8V205.002z"/>
	</g>
</g>
<g>
	<g>
		<path d="M146.048,150.002h-28c-5.5,0-10,4.5-10,10v55c0,5.5,4.5,10,10,10h28c5.5,0,10-4.5,10-10v-55
			C156.048,154.502,151.548,150.002,146.048,150.002z M136.048,205.002h-8v-35h8V205.002z"/>
	</g>
</g>
<g>
</g>
<g>
</g>
<g>
</g>
<g>
</g>
<g>
</g>
<g>
</g>
<g>
</g>
<g>
</g>
<g>
</g>
<g>
</g>
<g>
</g>
<g>
</g>
<g>
</g>
<g>
</g>
<g>
</g>
</svg>
