<?xml version="1.0" encoding="iso-8859-1"?>
<!-- Generator: Adobe Illustrator 19.0.0, SVG Export Plug-In . SVG Version: 6.00 Build 0)  -->
<svg version="1.1" id="Capa_1" xmlns="http://www.w3.org/2000/svg" xmlns:xlink="http://www.w3.org/1999/xlink" x="0px" y="0px"
	 viewBox="0 0 486 486" style="enable-background:new 0 0 486 486;" xml:space="preserve">
<g>
	<g>
		<path d="M476.1,344H476h-11V101.4c0-27.6-22.6-50.4-50.1-50.4H71.1C43.6,51,21,73.8,21,101.4V344H10c-5.5-0.1-9.9,4.3-10,9.7v0.1
			v30.8C0,412.2,22.4,435,50,435h386c27.6,0,50-22.8,50-50.4v-30.8C486,348.3,481.5,343.9,476.1,344z M41,101.4
			C41,84.9,54.6,71,71.1,71h343.7c16.5,0,30.1,13.9,30.1,30.4V344h-20V103.7c0.2-5.2-4-9.6-9.2-9.7c-0.2,0-0.3,0-0.5,0H70.6
			c-5.2-0.1-9.5,4-9.6,9.3c0,0.2,0,0.3,0,0.5V344H41V101.4z M405,114v230H301.7c-2.8,0-5.5,1.1-7.4,3.1l-8.1,9
			c-5.7,6.2-13.7,9.8-22.1,9.9h-42.3c-8.4-0.1-16.4-3.7-22.1-9.9l-8.1-8.8c-1.9-2.1-4.6-3.2-7.4-3.3H81V114H405z M466,384.6
			c0,16.5-13.5,30.4-30,30.4H50c-16.5,0-30-13.9-30-30.4V364h159.9l5.1,5.7c9.5,10.3,22.8,16.2,36.8,16.3h42.3
			c14-0.1,27.3-6,36.8-16.3l5.1-5.7h160V384.6z"/>
	</g>
</g>
<g>
	<g>
		<path d="M327,296H151V160.1c0-5.5-4.5-10-10-10s-10,4.5-10,10v136.6c0,10.6,8.2,19.3,18.9,19.3H327c5.5,0,10-4.5,10-10
			S332.5,296,327,296z"/>
	</g>
</g>
<g>
	<g>
		<path d="M337.4,172c-13.5-4-27.7,3.6-31.7,17.1c-1.9,6.3-1.3,13.1,1.7,18.9L294,222.6c-8.7-6.5-20.6-6.7-29.6-0.5l-11.5-9.4
			c-1.3-14-13.7-24.3-27.7-23c-14,1.3-24.3,13.7-23,27.7c0.1,0.6,0.1,1.1,0.2,1.7l-14.4,18c-13.5-3.9-27.6,3.9-31.5,17.4
			c-3.9,13.5,3.9,27.6,17.4,31.5c2.4,0.9,4.7,1.2,7.1,1.2c14,0,25.4-11.4,25.5-25.4c0-4.1-1-8.2-2.9-11.9l10.5-13.2
			c10.2,6.4,23.4,4.8,31.8-3.9l7.8,6.4c-2.1,13.9,7.4,26.9,21.3,29c13.9,2.1,26.9-7.4,29-21.3c0.2-1.3,0.3-2.6,0.3-3.9
			c0-0.7,0-1.3-0.1-2l18.6-20.2c13.5,4,27.7-3.6,31.7-17.1S350.9,176,337.4,172z M181,267.3c-3,0-5.5-2.4-5.5-5.5
			c0.1-3,2.5-5.5,5.5-5.5s5.5,2.4,5.5,5.5C186.5,264.8,184.1,267.3,181,267.3z M227.6,220.8c-3,0-5.5-2.4-5.5-5.5
			c0-3.1,2.5-5.5,5.5-5.5s5.5,2.4,5.5,5.5C233.1,218.3,230.7,220.8,227.6,220.8z M278.8,248.7c-3,0-5.5-2.4-5.5-5.5
			c0-3,2.5-5.5,5.5-5.5s5.5,2.4,5.5,5.5C284.3,246.2,281.9,248.7,278.8,248.7z M330,202.2c-3,0-5.5-2.4-5.5-5.5
			c0-3.1,2.5-5.5,5.5-5.5s5.5,2.4,5.5,5.5C335.5,199.8,333.1,202.2,330,202.2z"/>
	</g>
</g>
<g>
</g>
<g>
</g>
<g>
</g>
<g>
</g>
<g>
</g>
<g>
</g>
<g>
</g>
<g>
</g>
<g>
</g>
<g>
</g>
<g>
</g>
<g>
</g>
<g>
</g>
<g>
</g>
<g>
</g>
</svg>
