<?xml version="1.0" encoding="iso-8859-1"?>
<!-- Generator: Adobe Illustrator 19.0.0, SVG Export Plug-In . SVG Version: 6.00 Build 0)  -->
<svg version="1.1" id="Capa_1" xmlns="http://www.w3.org/2000/svg" xmlns:xlink="http://www.w3.org/1999/xlink" x="0px" y="0px"
	 viewBox="0 0 486 486" style="enable-background:new 0 0 486 486;" xml:space="preserve">
<g>
	<g>
		<path d="M476.1,344H476h-11V101.4c0-27.6-22.6-50.4-50.1-50.4H71.1C43.6,51,21,73.8,21,101.4V344H10c-5.5-0.1-9.9,4.3-10,9.7v0.1
			v30.8C0,412.2,22.4,435,50,435h386c27.6,0,50-22.8,50-50.4v-30.8C486,348.3,481.5,343.9,476.1,344z M41,101.4
			C41,84.9,54.6,71,71.1,71h343.7c16.5,0,30.1,13.9,30.1,30.4V344h-20V103.7c0.2-5.2-4-9.6-9.2-9.7c-0.2,0-0.3,0-0.5,0H70.6
			c-5.2-0.1-9.5,4-9.6,9.3c0,0.2,0,0.3,0,0.5V344H41V101.4z M405,114v230H301.7c-2.8,0-5.5,1.1-7.4,3.1l-8.1,9
			c-5.7,6.2-13.7,9.8-22.1,9.9h-42.3c-8.4-0.1-16.4-3.7-22.1-9.9l-8.1-8.8c-1.9-2.1-4.6-3.2-7.4-3.3H81V114H405z M466,384.6
			c0,16.5-13.5,30.4-30,30.4H50c-16.5,0-30-13.9-30-30.4V364h159.9l5.1,5.7c9.5,10.3,22.8,16.2,36.8,16.3h42.3
			c14-0.1,27.3-6,36.8-16.3l5.1-5.7h160V384.6z"/>
	</g>
</g>
<g>
	<g>
		<path d="M312.7,239h-0.1H237v-75.9c0-5.5-4.4-10-9.9-10c0,0,0,0-0.1,0c-25.4-0.1-49.7,10-67.6,28c-37.2,37.4-37.1,97.9,0.3,135.1
			c18,17.8,42.2,27.8,67.4,27.8c52.6,0.1,95.4-42.5,95.5-95.2C322.6,243.4,318.2,239,312.7,239z M280.5,302.2
			c-29.6,29.4-77.5,29.3-106.9-0.4c-14-14.1-21.9-33.2-22-53.2c0.1-20,8-39.2,22.1-53.4c11.7-11.7,26.9-19.2,43.3-21.4v74.8
			c0,5.6,4.5,10.2,10.1,10.4h74.8C299.6,275.3,292.1,290.5,280.5,302.2z"/>
	</g>
</g>
<g>
	<g>
		<path d="M326.5,149.9c0,0-0.1,0-0.1-0.1C308.5,132,284.3,122,259,122c-5.5,0-9.9,4.5-9.9,10v85.5c0,5.3,4.2,9.6,9.5,9.6
			c0-0.1,0.1-0.1,0.3-0.1h85.5c5.4,0.1,9.9-4.2,10-9.6v-0.1C354.4,192,344.4,167.8,326.5,149.9z M269,142.7c3.5,0.5,7,1.2,10.5,2.1
			L269,155.3V142.7z M269,183.6l30-30.1c1.9,1.2,3.8,2.5,5.6,3.8L269,193V183.6z M282.8,207l35.9-35.7c1.4,1.8,2.7,3.6,3.9,5.5
			L292.2,207H282.8z M320.5,207l10.9-10.9c1,3.6,1.7,7.2,2.3,10.9H320.5z"/>
	</g>
</g>
<g>
</g>
<g>
</g>
<g>
</g>
<g>
</g>
<g>
</g>
<g>
</g>
<g>
</g>
<g>
</g>
<g>
</g>
<g>
</g>
<g>
</g>
<g>
</g>
<g>
</g>
<g>
</g>
<g>
</g>
</svg>
