<?xml version="1.0" encoding="iso-8859-1"?>
<!-- Generator: Adobe Illustrator 19.0.0, SVG Export Plug-In . SVG Version: 6.00 Build 0)  -->
<svg version="1.1" id="Capa_1" xmlns="http://www.w3.org/2000/svg" xmlns:xlink="http://www.w3.org/1999/xlink" x="0px" y="0px"
	 viewBox="0 0 486 486" style="enable-background:new 0 0 486 486;" xml:space="preserve">
<g>
	<g>
		<path d="M476.1,344H476h-11V101.4c0-27.6-22.6-50.4-50.1-50.4H71.1C43.6,51,21,73.8,21,101.4V344H10c-5.5-0.1-9.9,4.3-10,9.7v0.1
			v30.8C0,412.2,22.4,435,50,435h386c27.6,0,50-22.8,50-50.4v-30.8C486,348.3,481.5,343.9,476.1,344z M41,101.4
			C41,84.9,54.6,71,71.1,71h343.7c16.5,0,30.1,13.9,30.1,30.4V344h-20V103.7c0.2-5.2-4-9.6-9.2-9.7c-0.2,0-0.3,0-0.5,0H70.6
			c-5.2-0.1-9.5,4-9.6,9.3c0,0.2,0,0.3,0,0.5V344H41V101.4z M405,114v230H301.7c-2.8,0-5.5,1.1-7.4,3.1l-8.1,9
			c-5.7,6.2-13.7,9.8-22.1,9.9h-42.3c-8.4-0.1-16.4-3.7-22.1-9.9l-8.1-8.8c-1.9-2.1-4.6-3.2-7.4-3.3H81V114H405z M466,384.6
			c0,16.5-13.5,30.4-30,30.4H50c-16.5,0-30-13.9-30-30.4V364h159.9l5.1,5.7c9.5,10.3,22.8,16.2,36.8,16.3h42.3
			c14-0.1,27.3-6,36.8-16.3l5.1-5.7h160V384.6z"/>
	</g>
</g>
<g>
	<g>
		<path d="M288,151h-32.6c-5.6,0-10.2,4.5-10.4,10.1v160.4c0.2,5.7,4.7,10.3,10.4,10.5H288c5.5,0,10-4.9,10-10.4V161.1
			C298,155.5,293.5,151,288,151z M278,312h-13v-36h13V312z M278,256h-13v-85h13V256z"/>
	</g>
</g>
<g>
	<g>
		<path d="M346.6,126h-33.2c-5.7,0.2-10.3,4.8-10.4,10.4v185.1c0.2,5.7,4.7,10.3,10.4,10.5h33.2c5.7-0.2,10.3-4.8,10.4-10.4V136.5
			C356.8,130.8,352.3,126.2,346.6,126z M337,312h-14v-36h14V312z M337,256h-14V146h14V256z"/>
	</g>
</g>
<g>
	<g>
		<path d="M230.1,176H230h-32.6c-5.5,0-10.4,4.3-10.4,9.8v135.7c0.2,5.7,4.7,10.3,10.4,10.5H230c5.5,0,10-4.9,10-10.4V185.8
			C240,180.4,235.5,176,230.1,176z M220,312h-13v-36h13V312z M220,256h-13v-60h13V256z"/>
	</g>
</g>
<g>
	<g>
		<path d="M172,219h-32.6c-5.5,0-10.4,4.5-10.4,10v92.6c0.2,5.6,4.7,10.2,10.4,10.4H172c5.5,0,10-4.9,10-10.4V229
			C182,223.5,177.5,219,172,219z M162,312h-13v-36h13V312z M162,256h-13v-17h13V256z"/>
	</g>
</g>
<g>
</g>
<g>
</g>
<g>
</g>
<g>
</g>
<g>
</g>
<g>
</g>
<g>
</g>
<g>
</g>
<g>
</g>
<g>
</g>
<g>
</g>
<g>
</g>
<g>
</g>
<g>
</g>
<g>
</g>
</svg>
