<?xml version="1.0" encoding="iso-8859-1"?>
<!-- Generator: Adobe Illustrator 19.0.0, SVG Export Plug-In . SVG Version: 6.00 Build 0)  -->
<svg version="1.1" id="Capa_1" xmlns="http://www.w3.org/2000/svg" xmlns:xlink="http://www.w3.org/1999/xlink" x="0px" y="0px"
	 viewBox="0 0 486 486" style="enable-background:new 0 0 486 486;" xml:space="preserve">
<g>
	<g>
		<path d="M476.1,344H476h-11V101.4c0-27.6-22.6-50.4-50.1-50.4H71.1C43.6,51,21,73.8,21,101.4V344H10c-5.5-0.1-9.9,4.3-10,9.7v0.1
			v30.8C0,412.2,22.4,435,50,435h386c27.6,0,50-22.8,50-50.4v-30.8C486,348.3,481.5,343.9,476.1,344z M41,101.4
			C41,84.9,54.6,71,71.1,71h343.7c16.5,0,30.1,13.9,30.1,30.4V344h-20V103.7c0.2-5.2-4-9.6-9.2-9.7c-0.2,0-0.3,0-0.5,0H70.6
			c-5.2-0.1-9.5,4-9.6,9.3c0,0.2,0,0.3,0,0.5V344H41V101.4z M405,114v230H301.7c-2.8,0-5.5,1.1-7.4,3.1l-8.1,9
			c-5.7,6.2-13.7,9.8-22.1,9.9h-42.3c-8.4-0.1-16.4-3.7-22.1-9.9l-8.1-8.8c-1.9-2.1-4.6-3.2-7.4-3.3H81V114H405z M466,384.6
			c0,16.5-13.5,30.4-30,30.4H50c-16.5,0-30-13.9-30-30.4V364h159.9l5.1,5.7c9.5,10.3,22.8,16.2,36.8,16.3h42.3
			c14-0.1,27.3-6,36.8-16.3l5.1-5.7h160V384.6z"/>
	</g>
</g>
<g>
	<g>
		<path d="M342.6,305H330V149.1c0-5.5-4.5-10-10-10c-2.9,0-5.7,1.3-7.5,3.4l-18.9,21.8l-10.1-5.4c-4.5-2.4-10.1-1-12.9,3.2
			l-13.4,19.5l-13.8-3.4c-3.7-0.9-7.6,0.4-10.1,3.3l-11.6,13.9l-13.8-12.9c-3.1-2.9-7.6-3.5-11.3-1.6l-10.4,5.2l-16.8-14.8
			c-2-1.8-4.7-2.7-7.4-2.5c-2.7,0.2-5.3,1.5-7.1,3.6l-1.8,2v-31.7c0-5.5-4.5-10-10-10s-10,4.5-10,10v172.8
			c-0.1,5.4,4.7,9.5,10.2,9.5h199.3c5.5,0,10-4.5,10-10S348.1,305,342.6,305z M152.8,205.3l10.9-12.4l14.2,12.4
			c3.1,2.7,7.5,3.3,11.1,1.4l10.2-5.1l16.4,15.4c4,3.8,10.4,3.6,14.1-0.5c0.1-0.1,0.2-0.3,0.4-0.4l14.4-17.2l14.4,3.5
			c4,1,8.3-0.6,10.6-4.1l12.2-17.8l9.3,4.9c4.1,2.2,9.2,1.3,12.3-2.3l6.6-7.6v17.6l-14.3,1.9c-2.5,0.3-4.7,1.6-6.3,3.5l-12.9,15.4
			l-13.6-8.3c-4.2-2.6-9.7-1.7-12.9,2.1l-15.3,18.2l-17.6-7.3c-3.6-1.5-7.8-0.7-10.7,1.9L194,232l-7-12c-2.8-4.8-8.9-6.4-13.7-3.6
			c-0.4,0.2-0.7,0.4-1,0.7l-11.6,8.7l-7.9-4.6V205.3z M152.7,244.8h0.3l3.4,2c3.5,2.1,8,1.9,11.3-0.6l7.8-5.9l7.6,13.1
			c2.8,4.8,8.9,6.4,13.7,3.6c0.6-0.4,1.3-0.8,1.8-1.3l16.8-15.7l18.4,7.6c4,1.7,8.7,0.5,11.5-2.8l14.5-17.2l13.6,8.3
			c4.2,2.6,9.7,1.7,12.9-2.1l15.9-19l7.7-1.1v22.9l-8.6-3.1c-4.5-1.6-9.5,0.1-12,4.2l-13,21.3l-11.4-7.5c-4.3-2.9-10.1-2-13.3,2.1
			l-13.3,16.5l-12-9.7c-3.5-2.8-8.4-3-12.1-0.4l-13.3,9.4l-17.2-11c-3.9-2.5-9-2-12.3,1.2L157.2,273l-4.5-1.3V244.8z M310,305H153
			v-12.7l4.3,1.2c1,0.3,1.9,0.4,2.9,0.4c2.6,0,5.1-1,7-2.8l12.5-12l16.3,10.4c3.4,2.2,7.8,2.1,11.2-0.3l12.6-8.9l13.9,11.3
			c4.3,3.5,10.6,2.8,14.1-1.5l13.8-17.2l12.4,8.2c4.6,3.1,10.8,1.8,13.9-2.8c0.1-0.1,0.1-0.2,0.2-0.3l14.2-23.2l7.7,2.8V305z"/>
	</g>
</g>
<g>
</g>
<g>
</g>
<g>
</g>
<g>
</g>
<g>
</g>
<g>
</g>
<g>
</g>
<g>
</g>
<g>
</g>
<g>
</g>
<g>
</g>
<g>
</g>
<g>
</g>
<g>
</g>
<g>
</g>
</svg>
