<?xml version="1.0" encoding="iso-8859-1"?>
<!-- Generator: Adobe Illustrator 19.0.0, SVG Export Plug-In . SVG Version: 6.00 Build 0)  -->
<svg version="1.1" id="Capa_1" xmlns="http://www.w3.org/2000/svg" xmlns:xlink="http://www.w3.org/1999/xlink" x="0px" y="0px"
	 viewBox="0 0 486 486" style="enable-background:new 0 0 486 486;" xml:space="preserve">
<g>
	<g>
		<path d="M476.1,344H476h-11V101.4c0-27.6-22.6-50.4-50.1-50.4H71.1C43.6,51,21,73.8,21,101.4V344H10c-5.5-0.1-9.9,4.3-10,9.7v0.1
			v30.8C0,412.2,22.4,435,50,435h386c27.6,0,50-22.8,50-50.4v-30.8C486,348.3,481.5,343.9,476.1,344z M41,101.4
			C41,84.9,54.6,71,71.1,71h343.7c16.5,0,30.1,13.9,30.1,30.4V344h-20V103.7c0.2-5.2-4-9.6-9.2-9.7c-0.2,0-0.3,0-0.5,0H70.6
			c-5.2-0.1-9.5,4-9.6,9.3c0,0.2,0,0.3,0,0.5V344H41V101.4z M405,114v230H301.7c-2.8,0-5.5,1.1-7.4,3.1l-8.1,9
			c-5.7,6.2-13.7,9.8-22.1,9.9h-42.3c-8.4-0.1-16.4-3.7-22.1-9.9l-8.1-8.8c-1.9-2.1-4.6-3.2-7.4-3.3H81V114H405z M466,384.6
			c0,16.5-13.5,30.4-30,30.4H50c-16.5,0-30-13.9-30-30.4V364h159.9l5.1,5.7c9.5,10.3,22.8,16.2,36.8,16.3h42.3
			c14-0.1,27.3-6,36.8-16.3l5.1-5.7h160V384.6z"/>
	</g>
</g>
<g>
	<g>
		<path d="M355.6,227.4c-2.3-21.9-11-42.7-25.1-59.7c-3.2-3.8-8.8-4.4-12.7-1.2c-0.2,0.2-0.4,0.4-0.6,0.6l-39,38.5
			c-3,3-3.5,7.7-1.2,11.3c2.7,4.4,4.7,9.2,6,14.3c1,4,4.6,6.8,8.7,6.8h53.7c0.3,0,0.7,0,1,0h0.2c4,0,7.6-2.7,8.7-6.5
			c0.2-0.8,0.4-1.6,0.4-2.5C355.7,228.5,355.7,227.9,355.6,227.4z M298.3,220c-0.7-2-1.6-4.2-2.6-6.4l26.6-26.5
			c6.7,10,11.3,21.2,13.8,32.9H298.3z"/>
	</g>
</g>
<g>
	<g>
		<path d="M315.5,152.9c-0.2-0.2-0.4-0.4-0.6-0.6c-17.2-14.2-38.2-23-60.4-25.1c-4.9-0.7-9.5,2.7-10.2,7.6c-0.1,0.4-0.1,0.9-0.1,1.3
			V191c-0.2,4.2,2.9,7.9,7.2,8.7c4.9,1,9.6,3,13.9,5.8c3.6,2.3,8.3,1.9,11.3-1.1l38.9-38.8C319,162.1,319,156.4,315.5,152.9z
			 M268.7,186.8c-2.2-1.1-4.4-2-6.7-2.8v-37.6c11.9,2.4,23.2,7.1,33.3,13.8L268.7,186.8z"/>
	</g>
</g>
<g>
	<g>
		<path d="M231.1,127.1c-0.3,0-0.6,0-0.9,0c-25.8,2.6-49.8,14.1-68,32.5c-18.1,18.5-29.3,42.6-31.8,68.4c-0.5,4.9,3.1,9.3,8.1,9.8
			c0.2,0.2,0.5,0.2,0.8,0.2h54.9c4.2,0,7.9-2.9,8.8-7.1c3.2-14.4,16.1-27.7,30.2-31.1c4-1,6.9-4.6,6.9-8.8v-54.9
			C240.1,131.1,236.1,127.1,231.1,127.1z M222,184.5c-15.4,6.1-28.7,19.8-34.5,35.5h-37.8c3.6-18,12.4-34.5,25.3-47.6
			c12.8-13,29.2-21.9,47-25.7V184.5z"/>
	</g>
</g>
<g>
	<g>
		<path d="M234.5,279.5c-0.1,0-0.1,0-0.2,0c-15.8-3.3-28.1-15.7-31.5-31.5c-0.9-4.2-4.6-7.1-8.8-7.1h-55c-2.5,0-4.9,1-6.7,2.9
			c-1.7,1.9-2.5,4.4-2.3,6.9c5.4,53.6,47.7,96.1,101.2,101.5c0.3,0,0.6,0,0.9,0c4.9,0,9-4,9-8.9c0,0,0.1-13.7,0.2-27.5
			c0.1-6.9,0.1-13.7,0.1-18.9c0-2.6,0-4.7,0-6.3c0-0.8,0-1.4,0-1.8C241.4,281.5,235.6,279.7,234.5,279.5z M223.1,332.8
			c-37.1-7.8-66-36.8-73.7-73.9l37.8-0.1c5.9,17,19.2,30.4,36.2,36.3C223.4,303.6,223.2,319,223.1,332.8z"/>
	</g>
</g>
<g>
	<g>
		<path d="M347.3,242.1c-0.3,0-0.6,0-0.9,0h-54.9c-4.2,0-7.8,2.9-8.8,7c-3.4,15.1-16.4,27.9-31.6,31c-4.2,0.9-7.2,4.5-7.2,8.8
			l-0.2,54.9c0.1,2.5,1.2,5,3.1,6.7c1.9,1.7,4.4,2.5,7,2.2h0.1c53.5-5.2,96.2-47.6,101.5-100.8C355.9,247,352.3,242.5,347.3,242.1z
			 M278.1,328.6l-16.2-16.2l0.1-16.7c2.6-0.9,5.2-2,7.6-3.3l26.6,26.6C290.5,322.8,284.5,326,278.1,328.6z M310.2,307.4l-25.9-25.9
			c4.7-4.6,8.6-10,11.6-16l26.7,26.7C319,297.7,314.8,302.8,310.2,307.4z M331.3,275.5L315.8,260H336
			C334.9,265.3,333.3,270.5,331.3,275.5z"/>
	</g>
</g>
<g>
</g>
<g>
</g>
<g>
</g>
<g>
</g>
<g>
</g>
<g>
</g>
<g>
</g>
<g>
</g>
<g>
</g>
<g>
</g>
<g>
</g>
<g>
</g>
<g>
</g>
<g>
</g>
<g>
</g>
</svg>
