<?xml version="1.0" encoding="iso-8859-1"?>
<!-- Generator: Adobe Illustrator 19.0.0, SVG Export Plug-In . SVG Version: 6.00 Build 0)  -->
<svg version="1.1" id="Capa_1" xmlns="http://www.w3.org/2000/svg" xmlns:xlink="http://www.w3.org/1999/xlink" x="0px" y="0px"
	 viewBox="0 0 486 486" style="enable-background:new 0 0 486 486;" xml:space="preserve">
<g>
	<g>
		<path d="M476.1,344H476h-11V101.4c0-27.6-22.6-50.4-50.1-50.4H71.1C43.6,51,21,73.8,21,101.4V344H10c-5.5-0.1-9.9,4.3-10,9.7v0.1
			v30.8C0,412.2,22.4,435,50,435h386c27.6,0,50-22.8,50-50.4v-30.8C486,348.3,481.5,343.9,476.1,344z M41,101.4
			C41,84.9,54.6,71,71.1,71h343.7c16.5,0,30.1,13.9,30.1,30.4V344h-20V103.7c0.2-5.2-4-9.6-9.2-9.7c-0.2,0-0.3,0-0.5,0H70.6
			c-5.2-0.1-9.5,4-9.6,9.3c0,0.2,0,0.3,0,0.5V344H41V101.4z M405,114v230H301.7c-2.8,0-5.5,1.1-7.4,3.1l-8.1,9
			c-5.7,6.2-13.7,9.8-22.1,9.9h-42.3c-8.4-0.1-16.4-3.7-22.1-9.9l-8.1-8.8c-1.9-2.1-4.6-3.2-7.4-3.3H81V114H405z M466,384.6
			c0,16.5-13.5,30.4-30,30.4H50c-16.5,0-30-13.9-30-30.4V364h159.9l5.1,5.7c9.5,10.3,22.8,16.2,36.8,16.3h42.3
			c14-0.1,27.3-6,36.8-16.3l5.1-5.7h160V384.6z"/>
	</g>
</g>
<g>
	<g>
		<path d="M336,136.3c0,0,0,0-0.1,0l-49.9-3.6c-5.5-0.4-10.3,3.8-10.6,9.3c-0.4,5.5,3.7,10.2,9.2,10.6l23.9,1.7L255,195.9l-47-37
			c-3.9-3.1-9.5-2.8-13.1,0.6l-51.1,49c-4,3.8-4.1,10.2-0.3,14.1c1.9,2,4.6,3.1,7.3,3.1c2.6,0,5.1-1,6.9-2.8l44.8-43l46.3,36.5
			c3.6,2.8,8.7,2.9,12.3,0l62.3-48.4l-1.8,23.8c-0.4,5.5,3.7,10.3,9.2,10.7c0.3,0,0.5,0,0.8,0c5.2,0,9.6-4,10-9.2l3.6-46.3
			C345.6,141.5,341.5,136.7,336,136.3z"/>
	</g>
</g>
<g>
	<g>
		<path d="M258,239h-31c-5.5,0-10,4.5-10,10v74c0,5.5,4.5,10,10,10h31c5.5,0,10-4.5,10-10v-74C268,243.5,263.5,239,258,239z
			 M249,313h-12v-54h12V313z"/>
	</g>
</g>
<g>
	<g>
		<path d="M195,260h-31c-5.5,0-10,4.5-10,10v54c0,5.5,4.5,10,10,10h31c5.5,0,10-4.5,10-10v-54C205,264.5,200.5,260,195,260z
			 M185,313h-11v-33h11V313z"/>
	</g>
</g>
<g>
	<g>
		<path d="M322,223h-31c-5.5,0-10,4.5-10,10v90c0,5.5,4.5,10,10,10h31c5.5,0,10-4.5,10-10v-90C332,227.5,327.5,223,322,223z
			 M312,313h-11v-70h11V313z"/>
	</g>
</g>
<g>
</g>
<g>
</g>
<g>
</g>
<g>
</g>
<g>
</g>
<g>
</g>
<g>
</g>
<g>
</g>
<g>
</g>
<g>
</g>
<g>
</g>
<g>
</g>
<g>
</g>
<g>
</g>
<g>
</g>
</svg>
