<?xml version="1.0" encoding="iso-8859-1"?>
<!-- Generator: Adobe Illustrator 19.0.0, SVG Export Plug-In . SVG Version: 6.00 Build 0)  -->
<svg version="1.1" id="Capa_1" xmlns="http://www.w3.org/2000/svg" xmlns:xlink="http://www.w3.org/1999/xlink" x="0px" y="0px"
	 viewBox="0 0 490.002 490.002" style="enable-background:new 0 0 490.002 490.002;" xml:space="preserve">
<g>
	<g>
		<path d="M461.629,71.102c-5.9-2.9-12.3-4.4-18.9-4.4c-23.8,0-43.2,19.3-43.2,43.1c0,9.5,3.1,18.7,8.8,26.2l-42.5,46.2
			c-15.2-18.3-42.4-20.8-60.7-5.6c-1.2,1-2.3,2-3.4,3.2l-35.9-29.4c0-0.2,0-0.4,0-0.6c0-23.9-19.3-43.2-43.2-43.2
			s-43.2,19.3-43.2,43.2c0,3.9,0.5,7.8,1.6,11.6l-39.5,49.6c-21.5-10.4-47.4-1.4-57.9,20.1s-1.4,47.4,20.1,57.9
			c21.5,10.4,47.4,1.4,57.9-20.1c7.1-14.7,5.4-32.2-4.6-45.2l34.9-43.6c16.6,17.1,43.9,17.4,61,0.8c2.8-2.8,5.3-5.9,7.2-9.3
			l31.4,25.7c-7,22.8,5.8,47,28.6,54c22.8,7,47-5.8,54-28.6c2.1-6.8,2.5-14,1.1-20.9l48.7-53c21.5,10.4,47.3,1.5,57.7-20
			C492.029,107.302,483.129,81.502,461.629,71.102z M122.729,273.102c-12.8,0-23.2-10.4-23.2-23.2c0-12.8,10.4-23.2,23.2-23.2
			c12.8,0,23.2,10.4,23.2,23.2C145.929,262.702,135.529,273.102,122.729,273.102z M222.729,173.102c-12.8,0-23.2-10.4-23.2-23.2
			c0-12.8,10.4-23.2,23.2-23.2c12.8,0,23.2,10.4,23.2,23.2C245.929,162.702,235.529,173.102,222.729,173.102z M332.729,233.102
			c-12.8,0-23.2-10.4-23.2-23.2c0-12.8,10.4-23.2,23.2-23.2c12.8,0,23.2,10.4,23.2,23.2
			C355.929,222.702,345.529,233.102,332.729,233.102z M442.729,133.102c-12.8,0-23.2-10.4-23.2-23.2c0-12.8,10.4-23.2,23.2-23.2
			c12.8,0,23.2,10.4,23.2,23.2C465.929,122.702,455.529,133.102,442.729,133.102z"/>
	</g>
</g>
<g>
	<g>
		<path d="M373.929,278.302c-28.5,0-53.6,15.7-67.6,37.7h-242.2V9.902c0.1-5.4-4.3-9.8-9.7-9.9c-0.1,0-0.1,0-0.2,0h-40
			c-5.5-0.1-10.1,4.4-10.2,9.9v336.3c0.1,16.5,13.6,29.9,30.2,29.7h262.3c5.1,21.6,19.1,40.1,38.5,51v24.6c0,5.6,4.5,10.2,10.1,10.3
			h57.4c5.5,0,9.5-4.8,9.5-10.3v-24.4c25.1-14.1,40.8-40.6,41-69.4C453.129,314.002,417.729,278.302,373.929,278.302z
			 M294.529,356.002h-260.2c-5.5,0.1-10.1-4.2-10.2-9.7v-326.3h20v306.3c0.1,5.5,4.6,9.8,10.1,9.7c0,0,0,0,0.1,0h243.2
			C295.729,342.502,294.729,349.202,294.529,356.002z M398.129,412.002c-3.6,1.6-6,5.1-6,9.1v20.9h-37v-21.2c0-3.9-2.3-7.5-5.9-9.1
			c-21.2-9.5-34.8-30.6-34.8-53.9c0-32.8,26.6-59.4,59.4-59.4s59.4,26.6,59.4,59.4C433.229,381.302,419.529,402.502,398.129,412.002
			z"/>
	</g>
</g>
<g>
	<g>
		<path d="M391.929,470.002h-36.1c-5.5,0-10,4.5-10,10s4.5,10,10,10h36.1c5.5,0,10-4.5,10-10S397.529,470.002,391.929,470.002z"/>
	</g>
</g>
<g>
</g>
<g>
</g>
<g>
</g>
<g>
</g>
<g>
</g>
<g>
</g>
<g>
</g>
<g>
</g>
<g>
</g>
<g>
</g>
<g>
</g>
<g>
</g>
<g>
</g>
<g>
</g>
<g>
</g>
</svg>
