<?xml version="1.0" encoding="iso-8859-1"?>
<!-- Generator: Adobe Illustrator 19.0.0, SVG Export Plug-In . SVG Version: 6.00 Build 0)  -->
<svg version="1.1" id="Capa_1" xmlns="http://www.w3.org/2000/svg" xmlns:xlink="http://www.w3.org/1999/xlink" x="0px" y="0px"
	 viewBox="0 0 486.2 486.2" style="enable-background:new 0 0 486.2 486.2;" xml:space="preserve">
<g>
	<g>
		<path d="M412,56c0,0,0,0-0.1-0.1C375.2,19.9,327.4,0,276.9,0c-5.4,0-9.8,4.4-9.8,9.9V10v181.2c-0.2,5.3,4,9.7,9.3,9.9
			c0.1,0,0.2,0,0.3,0h181.2c5.5,0,10-4.4,10-9.9C467.9,140.7,448.1,92.7,412,56z M287.1,20.4c18.5,1.1,36.8,5.2,54,12.1l-54,54V20.4
			z M287.1,114.8l73-73.2c10.9,6,21.1,13.2,30.4,21.4L287.1,166.6V114.8z M300.3,181.2L404.4,77.1c8.2,9.3,15.4,19.4,21.5,30.2
			L352,181.2H300.3z M380.3,181.2l54.8-54.8c7.2,17.5,11.4,36,12.5,54.8H380.3z"/>
	</g>
</g>
<g>
	<g>
		<path d="M441.2,315.6c-9.3-16.6-24.1-29.3-41.8-36c0.9-7.4,1.3-14.9,1.3-22.3c0-5.5-4.5-10-10-10.1H219.1v-171
			c0.1-5.4-4.2-9.9-9.7-10h-0.1c-50.8-0.2-99.5,20-135.2,56c-36,36.7-55.8,84.7-55.8,135.2c0,105.4,85.8,191.2,191.2,191.2
			c39.4,0.2,77.9-12,110.1-34.7c4.1,3.6,8.7,6.8,13.5,9.4v24.6c0,5.6,4.4,10.2,10,10.3h57.4c5.5,0,9.7-4.8,9.7-10.3v-24.4
			C448.6,402.2,462.4,353.9,441.2,315.6z M209.5,428.6c-94.4,0-171.2-76.8-171.2-171.2c0-45.4,17.9-88.9,49.9-121.1
			c29.6-29.7,69.1-47.5,110.9-49.8v170.9c0,5.5,4.9,9.8,10.4,9.8h170.9c-0.1,3-0.4,5.2-0.6,7.8c-43.7-4.4-82.6,27.4-87,71.1
			c-1.9,18.6,2.9,37.3,13.4,52.8C277.7,418.4,244,428.8,209.5,428.6z M396.1,408.3c-3.6,1.6-5.9,5.2-6,9.1v20.8h-37v-21.1
			c0-4-2.3-7.5-5.9-9.1c-21.2-9.5-34.9-30.6-34.8-53.8c0-32.8,26.6-59.4,59.4-59.4s59.4,26.6,59.4,59.4
			C431.1,377.5,417.4,398.7,396.1,408.3z"/>
	</g>
</g>
<g>
	<g>
		<path d="M389.8,466.2h-36.1c-5.5,0-10,4.5-10,10s4.5,10,10,10h36.1c5.5,0,10-4.5,10-10S395.3,466.2,389.8,466.2z"/>
	</g>
</g>
<g>
</g>
<g>
</g>
<g>
</g>
<g>
</g>
<g>
</g>
<g>
</g>
<g>
</g>
<g>
</g>
<g>
</g>
<g>
</g>
<g>
</g>
<g>
</g>
<g>
</g>
<g>
</g>
<g>
</g>
</svg>
