<?xml version="1.0" encoding="iso-8859-1"?>
<!-- Generator: Adobe Illustrator 19.0.0, SVG Export Plug-In . SVG Version: 6.00 Build 0)  -->
<svg version="1.1" id="Capa_1" xmlns="http://www.w3.org/2000/svg" xmlns:xlink="http://www.w3.org/1999/xlink" x="0px" y="0px"
	 viewBox="0 0 494 494" style="enable-background:new 0 0 494 494;" xml:space="preserve">
<g>
	<g>
		<path d="M303.3,46h-60.7c-5.7,0.1-10.2,4.6-10.4,10.2v299c0,5.5,4.9,9.8,10.4,9.8h60.7c5.4,0.1,9.8-4.2,9.9-9.5c0-0.1,0-0.2,0-0.2
			v-299C313.3,50.7,308.9,46.1,303.3,46z M293.2,345h-41v-83h41V345z M293.2,242h-41V66h41V242z"/>
	</g>
</g>
<g>
	<g>
		<path d="M195.2,92h-60.7c-5.6,0.1-10.2,4.6-10.3,10.2v253c0,5.5,4.8,9.8,10.3,9.8h60.7c5.4,0.1,9.9-4.2,10-9.6c0-0.1,0-0.1,0-0.2
			v-253C205.2,96.7,200.8,92.1,195.2,92z M185.2,345h-41v-83h41V345z M185.2,242h-41V112h41V242z"/>
	</g>
</g>
<g>
	<g>
		<path d="M87.2,173h-0.1H26.4c-5.5-0.1-10.1,4.2-10.2,9.7v172.5c0.1,5.5,4.7,9.9,10.2,9.8h60.7c5.5,0.1,10-4.2,10.1-9.7v-0.1V182.8
			C97.1,177.3,92.7,173,87.2,173z M77.2,345h-41v-83h41V345z M77.2,242h-41v-49h41V242z"/>
	</g>
</g>
<g>
	<g>
		<path d="M422.2,285.8V10.2c0-5.5-4.1-10.2-9.6-10.2h-61.8c-5.5,0-9.5,4.7-9.5,10.2v296.9c-14,14.2-21.7,33.4-21.7,54.4
			c-0.1,28.8,15.5,55.3,40.7,69.2v24.6c-0.1,5.2,4,9.5,9.2,9.7c0.2,0,0.3,0,0.5,0h57.2c5.4,0.2,9.8-4.1,10-9.4c0-0.1,0-0.2,0-0.2
			V431c25-14.1,40.6-40.6,40.6-69.4C477.8,326.1,454.2,296,422.2,285.8z M361.2,20h41v222h-41V20z M361.2,262h41v20.2
			c-1-0.1-2.3-0.1-3.6-0.1c-13.1,0-26,3.3-37.4,9.6V262z M423,415.7c-3.5,1.6-5.8,5.2-5.8,9.1V445h-37v-20.5c-0.1-4-2.5-7.6-6.1-9.1
			c-29.8-13.6-43-48.7-29.4-78.6c13.6-29.8,48.7-43,78.6-29.4c21.2,9.7,34.8,30.8,34.7,54.1C457.9,384.8,444.2,406,423,415.7z"/>
	</g>
</g>
<g>
	<g>
		<path d="M416.6,474h-36.1c-5.5,0-10,4.5-10,10s4.5,10,10,10h36.1c5.5,0,10-4.5,10-10S422.1,474,416.6,474z"/>
	</g>
</g>
<g>
</g>
<g>
</g>
<g>
</g>
<g>
</g>
<g>
</g>
<g>
</g>
<g>
</g>
<g>
</g>
<g>
</g>
<g>
</g>
<g>
</g>
<g>
</g>
<g>
</g>
<g>
</g>
<g>
</g>
</svg>
