<?xml version="1.0" encoding="iso-8859-1"?>
<!-- Generator: Adobe Illustrator 19.0.0, SVG Export Plug-In . SVG Version: 6.00 Build 0)  -->
<svg version="1.1" id="Capa_1" xmlns="http://www.w3.org/2000/svg" xmlns:xlink="http://www.w3.org/1999/xlink" x="0px" y="0px"
	 viewBox="0 0 503.7 503.7" style="enable-background:new 0 0 503.7 503.7;" xml:space="preserve">
<g>
	<g>
		<path d="M488.563,332.4c-8.9-15.8-22.8-28.1-39.6-34.9V10c0-5.5-4.5-10-10-10c-2.9,0-5.7,1.3-7.6,3.5l-46.3,54.5l-29.1-16
			c-4.5-2.5-10.2-1.1-13.1,3.1l-33.9,49.3l-38-9.3c-3.7-0.9-7.6,0.4-10,3.3l-33.5,39.9l-39.4-36.8c-3.1-2.9-7.6-3.5-11.3-1.6
			l-30.1,15l-42.9-37.5c-2-1.8-4.7-2.6-7.4-2.4c-2.7,0.2-5.3,1.5-7.1,3.6l-24.3,28.6V57.7c0-5.5-4-10-9.6-10h-40
			c-5.5,0-10.4,4.5-10.4,10V394c0,16.6,13.9,29.7,30.4,29.7h324.6c5.8,7,13,12.3,20,16.6v24.6c0,5.5,4.9,9.8,10.5,9.8h57.4
			c5.5,0.1,10.1-4.3,10.2-9.8v-24.4C496.363,419.1,510.063,370.7,488.563,332.4z M64.963,128.4l33.1-39.3l40.4,35.2
			c3.1,2.7,7.5,3.2,11.1,1.4l29.9-14.9l42,39.2c4,3.8,10.4,3.6,14.2-0.5c0.1-0.1,0.2-0.3,0.3-0.4l36.3-43.2l38.7,9.5
			c4,1,8.3-0.6,10.6-4.1l32.6-47.5l28.4,15.6c4.2,2.3,9.4,1.3,12.4-2.3l33.9-40v80.2l-39,5.4c-2.5,0.3-4.7,1.6-6.3,3.5l-34.6,41.5
			l-38.4-23.5c-4.2-2.6-9.7-1.7-12.9,2.1l-39,46.4l-46.5-19.2c-3.6-1.5-7.8-0.7-10.7,1.9l-37.8,35.4l-22.7-39.1
			c-2.8-4.8-8.9-6.4-13.7-3.6c-0.4,0.2-0.7,0.4-1,0.7l-31.6,23.9l-29.7-17.7V128.4z M64.963,198.3l25.3,15c3.5,2.1,8,1.9,11.3-0.6
			l27.8-21.1l23.3,40.2c2.8,4.8,8.9,6.4,13.7,3.6c0.6-0.4,1.3-0.8,1.8-1.3l42.3-39.6l47.3,19.5c4,1.7,8.7,0.5,11.5-2.8l38.2-45.4
			l38.4,23.5c4.2,2.6,9.7,1.7,12.9-2.1l37.8-45.1l32.4-4.5v79.7l-32.1-11.9c-4.5-1.7-9.5,0.1-12,4.2l-34.9,57.1l-35.1-23.3
			c-4.3-2.9-10.1-2-13.3,2.1l-36.5,45.2l-35.5-28.7c-3.5-2.8-8.4-3-12.1-0.4l-35.4,25.1l-44.3-28.4c-3.9-2.5-9-2-12.3,1.2l-35.8,34
			l-24.7-7.3V198.3z M64.963,307.1l24.6,7.2c1,0.3,2,0.4,3,0.4c2.6,0,5.1-1,7-2.8l34.1-32.6l43.4,27.8c3.4,2.2,7.8,2.1,11.2-0.3
			l34.8-24.6l37.4,30.2c4.3,3.5,10.6,2.8,14.1-1.5l37-45.9l36.2,24c4.6,3.1,10.8,1.8,13.9-2.8c0.1-0.1,0.1-0.2,0.2-0.3l36-59
			l31.4,11.6v53.7c-3.6-0.4-6.9-0.6-10.2-0.7c-41.4,0-75.5,32.2-79.1,72.2h-275V307.1z M35.363,403.7c-5.5,0-10.4-4.2-10.4-9.7V67.7
			h20V374c0,5.5,4.9,9.7,10.4,9.7h285.3c1.1,6.9,3.1,13.7,6.1,20H35.363z M443.663,425.3c-3.5,1.6-5.8,5.2-5.7,9.1v20.3h-38v-20.6
			c0.1-3.9-2.2-7.5-5.7-9.1c-21.2-9.5-34.8-30.6-34.7-53.9c0-32.9,26.7-59.5,59.5-59.5s59.5,26.7,59.5,59.5
			C478.563,394.5,464.863,415.6,443.663,425.3z"/>
	</g>
</g>
<g>
	<g>
		<path d="M437.163,483.7h-36.1c-5.5,0-10,4.5-10,10s4.5,10,10,10h36.1c5.5,0,10-4.5,10-10S442.663,483.7,437.163,483.7z"/>
	</g>
</g>
<g>
</g>
<g>
</g>
<g>
</g>
<g>
</g>
<g>
</g>
<g>
</g>
<g>
</g>
<g>
</g>
<g>
</g>
<g>
</g>
<g>
</g>
<g>
</g>
<g>
</g>
<g>
</g>
<g>
</g>
</svg>
