<?xml version="1.0" encoding="iso-8859-1"?>
<!-- Generator: Adobe Illustrator 19.0.0, SVG Export Plug-In . SVG Version: 6.00 Build 0)  -->
<svg version="1.1" id="Capa_1" xmlns="http://www.w3.org/2000/svg" xmlns:xlink="http://www.w3.org/1999/xlink" x="0px" y="0px"
	 viewBox="0 0 481.8 481.8" style="enable-background:new 0 0 481.8 481.8;" xml:space="preserve">
<g>
	<g>
		<path d="M160.422,283.8c-6.6-10.1-11.3-21.3-13.8-33.1c-1-4.6-5.1-7.9-9.8-8h-116.9c-5.5,0-10,4.5-10,10c0,0.1,0,0.1,0,0.2
			c0,0.7,0.1,1.4,0.2,2.1c4.6,45.2,22.5,88,51.5,123.1c1.8,2.2,4.4,3.5,7.2,3.6c0.2,0,0.3,0,0.5,0c2.6,0,5.2-1,7.1-2.9l82.7-82.5
			C162.422,293,163.022,287.8,160.422,283.8z M70.322,356.7c-20.5-27.6-33.9-59.9-39-93.9h97.7c2.5,8.7,6,17.1,10.4,25L70.322,356.7
			z"/>
	</g>
</g>
<g>
	<g>
		<path d="M221.122,324.7c-11.7-2.5-22.9-7.1-33-13.6c-4-2.6-9.2-2.1-12.6,1.3l-82.6,82.7c-3.9,3.9-3.9,10.2,0,14.1
			c0.2,0.2,0.5,0.4,0.7,0.6c35.4,29.2,78.8,47.2,124.5,51.6c0.6,0.1,1.1,0.1,1.7,0.1c0.1,0,0.1,0,0.2,0c5.5,0,10-4.5,10-10V334.6
			C230.122,329.5,226.222,325.2,221.122,324.7z M184.122,332c8.2,4.5,16.9,8.1,25.9,10.6v97.684
			c-34.363-5.011-66.927-18.404-94.9-39.084L184.122,332z M226.122,327.2c-0.3-0.3-0.6-0.5-1-0.8
			C225.522,326.6,225.822,326.9,226.122,327.2z M223.522,442.4c1.3,0.5,2.5,1.4,3.4,2.5C226.022,443.8,224.822,443,223.522,442.4z"
			/>
	</g>
</g>
<g>
	<g>
		<path d="M471.822,207.9c-10.6-109.4-97.7-196.8-207.1-207.8c-5.5-0.6-10.4,3.5-11,8.9c0,0.3,0,0.6,0,0.9c0,0-0.2,29.3-0.4,58.5
			c-0.1,14.6-0.2,29.3-0.3,40.3c0,5.5-0.1,10.1-0.1,13.3c0,1.6,0,2.9,0,3.8c0,8,4.9,10.3,7.7,11c0.1,0,0.1,0,0.2,0
			c37.2,7.8,66.3,36.9,74.1,74.1c1,4.6,5.1,7.9,9.8,7.8h117.2c2.8,0.1,5.5-1.1,7.4-3.1C471.222,213.5,472.122,210.7,471.822,207.9z
			 M352.622,199.1c-11-38.6-41.1-68.7-79.6-79.8c0.1-17.5,0.4-62.2,0.7-97.9c91.4,14.3,162.9,86.1,177,177.5L352.622,199.1z"/>
	</g>
</g>
<g>
	<g>
		<path d="M219.722,0c-0.4,0-0.8,0-1.2,0.1c-0.1,0-0.3,0-0.4,0c-109.8,11.2-196.7,98-208,207.7c-0.6,5.5,3.5,10.4,8.9,10.9
			c0.4,0.1,0.7,0.1,1,0.1h117c4.7,0,8.8-3.3,9.8-7.9c8-36.8,37.9-66.5,74.3-74.1c4.6-1,8-5,8-9.8l0.5-117
			C229.622,4.5,225.222,0,219.722,0z M31.422,198.8c0.9-6.1,2.1-12.2,3.6-18.2l18.2,18.2H31.422z M81.522,198.8l-39.8-39.8
			c2.5-6.8,5.3-13.4,8.4-19.9l59.7,59.7H81.522z M131.422,192.2l-71.3-71.4c3.5-5.8,7.4-11.4,11.4-16.8l69,69
			C136.922,179.1,133.922,185.6,131.422,192.2z M152.222,156.4l-67.9-67.9c2.2-2.4,4.5-4.8,6.8-7.2c2.4-2.4,4.9-4.7,7.3-7l67.9,67.9
			C161.222,146.5,156.522,151.2,152.222,156.4z M182.922,130.5l-69-69c5.4-4.1,11.1-7.9,16.8-11.4l71.4,71.4
			C195.422,123.9,189.022,126.9,182.922,130.5z M209.222,100.2l-60.2-60.2c6.5-3.1,13.1-5.9,19.9-8.4l40.4,40.4L209.222,100.2z
			 M209.422,43.9l-18.8-18.8c6.2-1.5,12.5-2.8,18.9-3.7L209.422,43.9z"/>
	</g>
</g>
<g>
	<g>
		<path d="M429.822,310.6c-14.3-25.1-40.9-40.6-69.6-40.6c-43.8,0-79.6,35.6-79.6,79.4c-0.1,28.7,15.4,55.3,40.6,69.2v24.6
			c0,5.5,4.9,9.5,10.4,9.5h57.4c5.5,0,10.3-4,10.3-9.5v-24.4C437.622,397.3,451.222,348.9,429.822,310.6z M384.822,403.6
			c-3.5,1.6-5.7,5.2-5.7,9.1v20.1h-38v-20.4c0.1-3.9-2.2-7.5-5.8-9.1c-21.2-9.5-34.8-30.6-34.7-53.9c0-32.9,26.7-59.5,59.5-59.5
			c32.9,0,59.5,26.7,59.5,59.5C419.622,372.8,406.022,394,384.822,403.6z"/>
	</g>
</g>
<g>
	<g>
		<path d="M378.222,461.8h-36.1c-5.5,0-10,4.5-10,10s4.5,10,10,10h36.1c5.5,0,10-4.5,10-10S383.722,461.8,378.222,461.8z"/>
	</g>
</g>
<g>
</g>
<g>
</g>
<g>
</g>
<g>
</g>
<g>
</g>
<g>
</g>
<g>
</g>
<g>
</g>
<g>
</g>
<g>
</g>
<g>
</g>
<g>
</g>
<g>
</g>
<g>
</g>
<g>
</g>
</svg>
