<?xml version="1.0" encoding="iso-8859-1"?>
<!-- Generator: Adobe Illustrator 19.0.0, SVG Export Plug-In . SVG Version: 6.00 Build 0)  -->
<svg version="1.1" id="Capa_1" xmlns="http://www.w3.org/2000/svg" xmlns:xlink="http://www.w3.org/1999/xlink" x="0px" y="0px"
	 viewBox="0 0 486.226 486.226" style="enable-background:new 0 0 486.226 486.226;" xml:space="preserve">
<g>
	<g>
		<path d="M425.913,7.326c0,0,0,0-0.1,0l-101.7-7.3c-5.5-0.4-10.3,3.8-10.7,9.3c-0.4,5.5,3.8,10.3,9.3,10.7l75.8,5.4l-136.9,106.4
			l-102.3-80.5c-3.9-3.1-9.5-2.8-13.1,0.6l-104.1,99.9c-4,3.8-4.1,10.2-0.3,14.1c1.9,2,4.5,3.1,7.2,3.1c2.6,0,5.1-1,6.9-2.8
			l97.9-93.9l101.6,80c3.6,2.8,8.7,2.9,12.3,0l145.6-113.1l-5.5,71.8c-0.4,5.5,3.7,10.3,9.2,10.7c0.3,0,0.5,0,0.8,0
			c5.2,0,9.6-4,10-9.2l7.3-94.5C435.513,12.526,431.413,7.726,425.913,7.326z"/>
	</g>
</g>
<g>
	<g>
		<path d="M407.113,280.926v-86.1c0-5.5-4.9-9.6-10.4-9.6h-63.6c-5.3-0.2-9.8,4-10,9.4c0,0.1,0,0.2,0,0.3v99.9
			c-16,14.6-26.7,35.6-26.7,59.1c0,4.8,0.4,9.6,1.3,14.3h-18.6v-141.4c0-5.5-4.6-9.6-10.2-9.6h-63.6c-5.5,0-10.2,4.1-10.2,9.6v141.4
			h-44v-98.8c0.1-5.5-4.4-10.1-9.9-10.2h-63.6c-5.5,0-10.5,4.6-10.5,10.2v98.8h-26.1c-5.5,0-10,4.5-10,10s4.5,10,10,10h263.3
			c7.1,14.8,18.5,27.1,32.8,35.1v24.6c0,5.6,4.4,10.2,10,10.3h57.4c5.5,0,9.6-4.8,9.6-10.3v-24.4c25-14.1,41.1-40.6,41.1-69.4
			C455.213,322.326,436.313,293.626,407.113,280.926z M131.113,368.226h-44v-89h44V368.226z M259.113,368.226h-44v-131h44V368.226z
			 M343.113,205.226h44v70.2c-3.7-0.5-7.4-0.7-11.1-0.8c-11.3,0-22.6,2.4-32.9,7.1V205.226z M400.113,408.326
			c-3.6,1.6-5.9,5.1-6,9.1v20.8h-37v-21.1c0-4-2.3-7.5-5.9-9.1c-14.1-6.3-25.1-17.9-30.7-32.2c-0.1-0.4-0.3-0.9-0.5-1.3
			c-11.3-30.8,4.6-64.9,35.4-76.1c30.8-11.3,64.9,4.6,76.1,35.4c2.4,6.5,3.6,13.5,3.6,20.4
			C435.013,377.426,421.313,398.626,400.113,408.326z"/>
	</g>
</g>
<g>
	<g>
		<path d="M393.913,466.226h-36.1c-5.5,0-10,4.5-10,10s4.5,10,10,10h36.1c5.5,0,10-4.5,10-10S399.413,466.226,393.913,466.226z"/>
	</g>
</g>
<g>
</g>
<g>
</g>
<g>
</g>
<g>
</g>
<g>
</g>
<g>
</g>
<g>
</g>
<g>
</g>
<g>
</g>
<g>
</g>
<g>
</g>
<g>
</g>
<g>
</g>
<g>
</g>
<g>
</g>
</svg>
