<?xml version="1.0" encoding="iso-8859-1"?>
<!-- Generator: Adobe Illustrator 19.0.0, SVG Export Plug-In . SVG Version: 6.00 Build 0)  -->
<svg version="1.1" id="Capa_1" xmlns="http://www.w3.org/2000/svg" xmlns:xlink="http://www.w3.org/1999/xlink" x="0px" y="0px"
	 viewBox="0 0 439.801 439.801" style="enable-background:new 0 0 439.801 439.801;" xml:space="preserve">
<g>
	<g>
		<path d="M249,107.9h-89c-5.5,0-10,4.5-10,10v190c0,5.5,4.5,10,10,10h89c5.5,0,10-4.5,10-10v-190C259,112.4,254.5,107.9,249,107.9z
			 M239,297.9h-69v-170h69V297.9z"/>
	</g>
</g>
<g>
	<g>
		<path d="M99,177.9H10c-5.5,0-10,4.5-10,10v120c0,5.5,4.5,10,10,10h89c5.5,0,10-4.5,10-10v-120C109,182.4,104.5,177.9,99,177.9z
			 M89,297.9H20v-100h69V297.9z"/>
	</g>
</g>
<g>
	<g>
		<path d="M409,238.9v-223c-0.1-5.6-4.6-10-10.2-10h-89c-5.5,0-9.9,4.5-9.9,10c0,0,0,0,0,0.1v234.2c-12.3,14.3-19,32.6-18.9,51.5
			c0,28.8,15.7,55.3,40.9,69.2v24.6c0,5.5,4,10.5,9.6,10.5h57.4c5.5,0,10.1-4.9,10.1-10.5v-24.4c25.1-14.1,40.7-40.6,40.8-69.4
			C439.9,277,428.5,253.8,409,238.9z M320,25.9h69v201.6c-22.7-8.8-48.1-6.7-69,5.7V25.9z M384.8,355.8c-3.5,1.6-5.8,5.2-5.8,9.1v21
			h-37v-21.3c-0.1-4-2.5-7.6-6.2-9.1c-29.8-13.6-43-48.7-29.4-78.5c13.6-29.8,48.7-43,78.5-29.4c21.2,9.6,34.8,30.8,34.7,54.1
			C419.6,324.9,406,346.1,384.8,355.8z"/>
	</g>
</g>
<g>
	<g>
		<path d="M378.3,413.9h-36.1c-5.5,0-10,4.5-10,10s4.5,10,10,10h36.1c5.5,0,10-4.5,10-10S383.8,413.9,378.3,413.9z"/>
	</g>
</g>
<g>
</g>
<g>
</g>
<g>
</g>
<g>
</g>
<g>
</g>
<g>
</g>
<g>
</g>
<g>
</g>
<g>
</g>
<g>
</g>
<g>
</g>
<g>
</g>
<g>
</g>
<g>
</g>
<g>
</g>
</svg>
