<?xml version="1.0" encoding="iso-8859-1"?>
<!-- Generator: Adobe Illustrator 19.0.0, SVG Export Plug-In . SVG Version: 6.00 Build 0)  -->
<svg version="1.1" id="Capa_1" xmlns="http://www.w3.org/2000/svg" xmlns:xlink="http://www.w3.org/1999/xlink" x="0px" y="0px"
	 viewBox="0 0 469.759 469.759" style="enable-background:new 0 0 469.759 469.759;" xml:space="preserve">
<g>
	<g>
		<path d="M440.032,289.759v-162.8h-0.2c0.1-5.6-4.4-10.1-9.9-10.2h-56.3c-5.5,0.1-9.9,4.7-9.7,10.2v132.1c-14.4,2.3-28,8.7-39,18.3
			v-78.2c-0.1-5.7-4.6-10.2-10.3-10.4h-56.3c-5.7,0.1-10.2,4.7-10.4,10.4v166.3c0.2,5.7,4.7,10.2,10.4,10.3h48.4
			c7.1,13,18.2,23.6,31.2,30.8v24.6c0,5.5,4.3,9.5,9.9,9.5h57.4c5.2,0.2,9.6-3.8,9.8-9c0-0.2,0-0.3,0-0.5v-24.4
			c25.1-14.1,40.7-40.6,40.8-69.4C455.932,320.158,450.332,303.459,440.032,289.759z M304.832,303.559c-5.1,10.6-7.8,22.3-7.7,34
			c0,6.1,0.6,12.2,1.9,18.2h-31.2v-147h37V303.559z M383.832,136.759h36v134.3c-10.8-7.1-23.2-11.4-36-12.7V136.759z
			 M400.732,391.559c-3.6,1.6-5.9,5.2-5.9,9.1v20.1h-37v-20.3c0-4-2.4-7.5-6-9.1c-29.8-13.6-42.9-48.8-29.3-78.6
			c13.6-29.8,48.8-42.9,78.6-29.3c21.2,9.7,34.7,30.8,34.7,54.1C435.632,360.759,421.932,381.858,400.732,391.559z"/>
	</g>
</g>
<g>
	<g>
		<path d="M198.832,262.759h-56c-5.5,0-10,4.5-10,10v92c0,5.5,4.5,10,10,10h56c5.5,0,10-4.5,10-10v-92
			C208.832,267.259,204.332,262.759,198.832,262.759z M188.832,355.759h-36v-73h36V355.759z"/>
	</g>
</g>
<g>
	<g>
		<path d="M83.832,242.759h-56c-5.5,0-10,4.5-10,10v113c0,5.5,4.5,10,10,10h56c5.5,0,10-4.5,10-10v-113
			C93.832,247.259,89.332,242.759,83.832,242.759z M73.832,355.759h-36v-93h36V355.759z"/>
	</g>
</g>
<g>
	<g>
		<path d="M432.132,13.159c-15.7-16.8-42.2-17.6-59-1.9c-11.3,10.6-15.8,26.5-11.7,41.4l-45.3,32.1c-16.2-16.4-42.7-16.6-59.1-0.4
			c-11.6,11.5-15.5,28.6-9.9,44l-41.8,35.2c-13.2-18.9-39.3-23.6-58.2-10.4c-7.2,5-12.6,12.2-15.5,20.4l-34.7-14.1
			c-3.9-22.8-25.4-38.1-48.2-34.2c-22.8,3.9-38.1,25.4-34.2,48.2c3.9,22.8,25.3,38.2,48.1,34.3c15-2.5,27.4-13,32.5-27.3l34.7,14.1
			c3.9,22.8,25.4,38.1,48.2,34.2c20.1-3.4,34.8-20.8,34.8-41.2c0-1.3-0.1-2.7-0.2-4l45.7-38.5c17.1,15.5,43.5,14.3,59-2.8
			c9.9-10.9,13.3-26.2,9.1-40.2l44.8-31.8c15.8,16.8,42.2,17.6,59,1.9C447.032,56.358,447.832,29.959,432.132,13.159z
			 M55.632,188.359c-12,0-21.8-9.8-21.8-21.8s9.8-21.8,21.8-21.8s21.8,9.8,21.8,21.8C77.432,178.559,67.732,188.359,55.632,188.359z
			 M171.032,209.359c-12,0-21.8-9.8-21.8-21.8s9.8-21.8,21.8-21.8s21.8,9.8,21.8,21.8S183.032,209.359,171.032,209.359z
			 M286.432,135.859c-12,0-21.8-9.8-21.8-21.8c0-12,9.7-21.7,21.8-21.8c12,0,21.8,9.8,21.8,21.8S298.432,135.859,286.432,135.859z
			 M401.732,63.459c-12,0-21.8-9.8-21.8-21.8c0-12,9.8-21.8,21.8-21.8s21.8,9.8,21.8,21.8
			C423.532,53.658,413.732,63.459,401.732,63.459z"/>
	</g>
</g>
<g>
	<g>
		<path d="M394.432,449.759h-36.1c-5.5,0-10,4.5-10,10s4.5,10,10,10h36.1c5.5,0,10-4.5,10-10S399.932,449.759,394.432,449.759z"/>
	</g>
</g>
<g>
</g>
<g>
</g>
<g>
</g>
<g>
</g>
<g>
</g>
<g>
</g>
<g>
</g>
<g>
</g>
<g>
</g>
<g>
</g>
<g>
</g>
<g>
</g>
<g>
</g>
<g>
</g>
<g>
</g>
</svg>
