<?xml version="1.0" encoding="iso-8859-1"?>
<!-- Generator: Adobe Illustrator 19.0.0, SVG Export Plug-In . SVG Version: 6.00 Build 0)  -->
<svg version="1.1" id="Capa_1" xmlns="http://www.w3.org/2000/svg" xmlns:xlink="http://www.w3.org/1999/xlink" x="0px" y="0px"
	 viewBox="0 0 406 406" style="enable-background:new 0 0 406 406;" xml:space="preserve">
<g>
	<g>
		<path d="M286.8,66.5h-60.7c-5.5,0-10.1,4-10.1,9.5v299c0,5.5,4.6,10.5,10.1,10.5h60.7c5.5,0,10.2-5,10.2-10.5V76
			C297,70.5,292.3,66.5,286.8,66.5z M277,365.5h-41v-84h41V365.5z M277,261.5h-41v-175h41V261.5z"/>
	</g>
</g>
<g>
	<g>
		<path d="M396.1,20.5h-61.8c-5.5,0-10.2,4-10.2,9.5v345c0,5.5,4.7,10.5,10.2,10.5h61.8c5.5,0,9.9-5,9.9-10.5V30
			C406,24.5,401.6,20.5,396.1,20.5z M386,365.5h-42v-84h42V365.5z M386,261.5h-42v-221h42V261.5z"/>
	</g>
</g>
<g>
	<g>
		<path d="M178.7,112.5H118c-5.5,0-10,4-10,9.5v253c0,5.5,4.5,10.5,10,10.5h60.7c5.7-0.2,10.2-4.8,10.3-10.5V122
			C189,116.5,184.2,112.5,178.7,112.5z M169,365.5h-41v-84h41V365.5z M169,261.5h-41v-129h41V261.5z"/>
	</g>
</g>
<g>
	<g>
		<path d="M70.6,192.5H9.9c-5.5,0-9.9,4.5-9.9,10V375c0,5.5,4.4,10.5,9.9,10.5h60.7c5.7-0.2,10.2-4.8,10.4-10.5V202.5
			C81,197,76.1,192.5,70.6,192.5z M61,365.5H20v-84h41V365.5z M61,261.5H20v-49h41V261.5z"/>
	</g>
</g>
<g>
</g>
<g>
</g>
<g>
</g>
<g>
</g>
<g>
</g>
<g>
</g>
<g>
</g>
<g>
</g>
<g>
</g>
<g>
</g>
<g>
</g>
<g>
</g>
<g>
</g>
<g>
</g>
<g>
</g>
</svg>
