<?xml version="1.0" encoding="iso-8859-1"?>
<!-- Generator: Adobe Illustrator 19.0.0, SVG Export Plug-In . SVG Version: 6.00 Build 0)  -->
<svg version="1.1" id="Capa_1" xmlns="http://www.w3.org/2000/svg" xmlns:xlink="http://www.w3.org/1999/xlink" x="0px" y="0px"
	 viewBox="0 0 508.302 508.302" style="enable-background:new 0 0 508.302 508.302;" xml:space="preserve">
<g>
	<g>
		<path d="M470.9,70.802c-21.5-10.5-47.4-1.6-57.9,19.8c-7.2,14.7-5.5,32.1,4.4,45.2l-42.7,46.2c-15.3-18.3-42.4-20.7-60.7-5.5
			c-1.2,1-2.3,2.1-3.4,3.2l-35.8-29.3c0-0.2,0-0.4,0-0.7c0-23.9-19.3-43.2-43.2-43.2c-23.9,0-43.2,19.3-43.2,43.2
			c0,3.9,0.5,7.8,1.6,11.5l-39.7,49.6c-21.5-10.3-47.3-1.2-57.6,20.3s-1.2,47.3,20.3,57.6c5.8,2.7,12.2,4.2,18.6,4.2
			c23.8,0,43.2-19.3,43.2-43.1c0-9.6-3.2-18.8-9-26.4l34.9-43.6c16.6,17.1,43.9,17.5,61,0.9c2.8-2.8,5.3-5.9,7.3-9.3l31.4,25.7
			c-7,22.8,5.9,47,28.7,53.9c22.8,6.9,47-5.9,53.9-28.7c2.1-6.8,2.4-14,1.1-20.9l48.7-52.9c21.5,10.5,47.4,1.6,57.9-19.8
			C501.2,107.202,492.3,81.302,470.9,70.802z M131.6,272.902c-12.8,0-23.2-10.4-23.2-23.2c0-12.8,10.4-23.2,23.2-23.2
			s23.2,10.4,23.2,23.2C154.8,262.502,144.4,272.902,131.6,272.902z M231.6,172.902c-12.8,0-23.2-10.4-23.2-23.2
			c0-12.8,10.4-23.2,23.2-23.2s23.2,10.4,23.2,23.2C254.8,162.502,244.4,172.902,231.6,172.902z M341.6,232.902
			c-12.8,0-23.2-10.4-23.2-23.2c0-12.8,10.4-23.2,23.2-23.2s23.2,10.4,23.2,23.2C364.8,222.502,354.4,232.902,341.6,232.902z
			 M451.6,132.902c-12.8,0-23.2-10.4-23.2-23.2s10.4-23.2,23.2-23.2s23.2,10.4,23.2,23.2S464.4,132.902,451.6,132.902z"/>
	</g>
</g>
<g>
	<g>
		<path d="M493.6,415.402l-24.9-38.4l24.9-38.4c1.9-3.1,2.1-7,0.3-10.2c-1.7-3.3-5.1-5.3-8.8-5.4h-70v-15.8
			c-0.2-5.6-4.8-10.1-10.4-10.2H302.9c-5.5,0.1-9.9,4.7-9.8,10.2v8.8h-220V9.702c-0.1-5.4-4.5-9.7-9.9-9.7c-0.1,0-0.1,0-0.2,0H23
			c-5.4-0.1-9.8,4.1-9.9,9.4c0,0.1,0,0.2,0,0.3v336.3c0,16.5,13.4,30,29.9,30h250.1v122.3c0,5.5,4.5,10,10,10s10-4.5,10-10v-91.3h39
			v13.8c0,5.6,4.4,10.1,10,10.2h123.1c5.6-0.1,10.1-4.6,10-10.2C495.2,418.902,494.6,417.002,493.6,415.402z M293.1,356.002H43
			c-5.5,0-9.9-4.4-9.9-9.9v-326.1h20v306c0,5.5,4.4,9.9,9.9,10c0,0,0,0,0.1,0h230V356.002z M313.1,387.002v-70h82v70H313.1z
			 M448.4,382.602l18.4,28.4h-94.7v-4h32.6c5.5,0,10.4-4.3,10.4-9.8v-54.2h51.7l-18.4,28.5
			C446.3,374.802,446.4,379.102,448.4,382.602z"/>
	</g>
</g>
<g>
</g>
<g>
</g>
<g>
</g>
<g>
</g>
<g>
</g>
<g>
</g>
<g>
</g>
<g>
</g>
<g>
</g>
<g>
</g>
<g>
</g>
<g>
</g>
<g>
</g>
<g>
</g>
<g>
</g>
</svg>
