<?xml version="1.0" encoding="iso-8859-1"?>
<!-- Generator: Adobe Illustrator 19.0.0, SVG Export Plug-In . SVG Version: 6.00 Build 0)  -->
<svg version="1.1" id="Capa_1" xmlns="http://www.w3.org/2000/svg" xmlns:xlink="http://www.w3.org/1999/xlink" x="0px" y="0px"
	 viewBox="0 0 486 486" style="enable-background:new 0 0 486 486;" xml:space="preserve">
<g>
	<g>
		<path d="M393.7,56.65l-0.1-0.1c-36.7-36-84.9-55.9-135.4-55.9c-5.6,0-10.1,4.4-10.2,10v181.2c0.2,5.7,4.8,10.2,10.4,10.2h181.2
			c5.5,0,10-4.5,10-10.1C449.6,141.45,429.8,93.35,393.7,56.65z M268,20.95c18.6,1.1,36.8,5.2,54,12.2l-54,54V20.95z M268,115.45
			l73.4-73.2c10.8,6,20.9,13.2,30.2,21.4L268,167.15V115.45z M282,182.05l104.1-104.1c8.2,9.2,15.4,19.3,21.5,30.1l-73.9,74H282z
			 M362,182.05l54.8-54.8c7.2,17.5,11.4,36,12.5,54.8H362z"/>
	</g>
</g>
<g>
	<g>
		<path d="M484.4,392.35l-24.9-38.4l24.9-38.4c2-2.9,2.1-6.9,0.4-10.1c-1.7-3.3-5.1-5.3-8.8-5.4h-70v-15.7
			c-0.2-5.7-4.8-10.2-10.5-10.3h-13.8c0.5-5,0.7-10.7,0.7-16.2c0-5.5-4.4-9.9-9.9-9.8h-0.1H201V76.85c0-5.5-4.4-10-9.8-10
			c0,0,0,0-0.1,0c-50.8-0.2-99.5,20-135.3,56c-36,36.6-55.8,84.6-55.8,135.1c0,105.4,85.9,191.2,191.3,191.2
			c32.4,0.1,64.3-8.1,92.7-23.7v49.9c0,5.5,4.5,10,10,10s10-4.5,10-10v-62.7c8.1-5.9,15.6-12.5,22.7-19.6c2.8-2.9,5.5-6.1,8.2-9.1
			h8.2v13.9c-0.1,5.5,4.4,10.1,9.9,10.1h123c5.6,0,10-4.6,10-10.2C486,395.85,485.4,393.95,484.4,392.35z M293.6,274.05
			c-5.5,0-9.7,4.7-9.7,10.3v117.9c-27.9,17.5-59.2,26.9-92.6,26.9c-94.4,0-171.3-76.8-171.3-171.2c0-45.3,17.7-88.3,49.9-121.1
			c29.6-29.7,69.1-47.5,111-49.8v170.9c0.1,5.6,4.6,10,10.2,10.1H362c-0.1,2-0.3,4-0.5,6H293.6z M304,387.15v-3.1h3
			C305.9,385.05,305,386.25,304,387.15z M304,364.05v-70h82v70H304z M439.2,359.65l18.4,28.4H363v-4h32.5c5.5,0,10.5-4.3,10.5-9.8
			v-54.2h51.6l-18.4,28.5C437.1,351.95,437.1,356.25,439.2,359.65z"/>
	</g>
</g>
<g>
</g>
<g>
</g>
<g>
</g>
<g>
</g>
<g>
</g>
<g>
</g>
<g>
</g>
<g>
</g>
<g>
</g>
<g>
</g>
<g>
</g>
<g>
</g>
<g>
</g>
<g>
</g>
<g>
</g>
</svg>
