<?xml version="1.0" encoding="iso-8859-1"?>
<!-- Generator: Adobe Illustrator 19.0.0, SVG Export Plug-In . SVG Version: 6.00 Build 0)  -->
<svg version="1.1" id="Capa_1" xmlns="http://www.w3.org/2000/svg" xmlns:xlink="http://www.w3.org/1999/xlink" x="0px" y="0px"
	 viewBox="0 0 472.5 472.5" style="enable-background:new 0 0 472.5 472.5;" xml:space="preserve">
<g>
	<g>
		<path d="M187.9,92h-60.7c-5.5,0-10,4-10,9.5v253c0,5.5,4.5,10.5,10,10.5h60.7c5.7-0.2,10.2-4.8,10.3-10.5v-253
			C198.2,96,193.4,92,187.9,92z M178.2,345h-41v-84h41V345z M178.2,241h-41V112h41V241z"/>
	</g>
</g>
<g>
	<g>
		<path d="M79.8,172H19.1c-5.5,0-9.9,4.5-9.9,10c0,0,0,0,0,0.1v172.5c0,5.5,4.4,10.5,9.9,10.5h60.7c5.7-0.2,10.3-4.8,10.4-10.5V182
			C90.2,176.5,85.3,172,79.8,172z M70.2,345h-41v-84h41V345z M70.2,241h-41v-49h41V241z"/>
	</g>
</g>
<g>
	<g>
		<path d="M461.7,379.6l-24.9-38.3l24.9-38.5c2-3.2,2.1-7.1,0.4-10.4c-1.7-3.3-5.1-5.3-8.8-5.4h-38.1V9.5c0-5.5-4.5-9.5-10-9.5
			h-61.8c-5.5,0-10.2,4-10.2,9.5V261h-27V55.5c0-5.5-4.7-9.5-10.2-9.5h-60.7c-5.5,0-10.1,4-10.1,9.5v299c0,5.5,4.6,10.5,10.1,10.5
			h25.9v97.5c0,5.5,4.5,10,10,10s10-4.5,10-10V371h39v14c0,5.5,4.5,10,10,10h123.1c5.5,0,10-4.5,10-10
			C463.3,383.1,462.7,381.2,461.7,379.6z M353.2,20h42v221h-42V20z M372.8,261h22.4v26h-12v-15.6C383.1,265.7,378.5,261.2,372.8,261
			z M261.2,271.4V345h-16v-84h25.9C265.6,261,261.2,265.9,261.2,271.4z M245.2,241V66h41v175H245.2z M281.2,351v-70h82v70H281.2z
			 M416.5,346.6l18.4,28.4h-94.7v-4h32.6c5.5,0,10.4-4.2,10.4-9.7V307h51.7l-18.4,28.6C414.4,338.9,414.4,343.3,416.5,346.6z"/>
	</g>
</g>
<g>
</g>
<g>
</g>
<g>
</g>
<g>
</g>
<g>
</g>
<g>
</g>
<g>
</g>
<g>
</g>
<g>
</g>
<g>
</g>
<g>
</g>
<g>
</g>
<g>
</g>
<g>
</g>
<g>
</g>
</svg>
