<?xml version="1.0" encoding="iso-8859-1"?>
<!-- Generator: Adobe Illustrator 19.0.0, SVG Export Plug-In . SVG Version: 6.00 Build 0)  -->
<svg version="1.1" id="Capa_1" xmlns="http://www.w3.org/2000/svg" xmlns:xlink="http://www.w3.org/1999/xlink" x="0px" y="0px"
	 viewBox="0 0 485.902 485.902" style="enable-background:new 0 0 485.902 485.902;" xml:space="preserve">
<g>
	<g>
		<path d="M484.3,391.251l-24.9-38.4l24.9-38.4c2-3.1,2.1-7,0.4-10.3c-1.7-3.2-5.1-5.2-8.8-5.2H444v-287.1c0-5.5-4.5-10-10-10
			c-2.6,0-5.1,1-7,2.9l-46.4,45.6l-30-16.4c-4.5-2.5-10.1-1.1-13.1,3.1l-33.8,49.3l-38-9.3c-3.7-0.9-7.6,0.4-10,3.3l-33.5,39.9
			l-39.4-36.8c-3.1-2.9-7.6-3.5-11.3-1.6l-30.1,15l-42.9-37.5c-2-1.8-4.7-2.7-7.4-2.4c-2.7,0.2-5.2,1.5-6.9,3.6L60,89.251v-40.3
			c0-5.5-4.4-10-9.8-10c0,0,0,0-0.1,0h-40c-5.5,0-10,4.5-10.1,10v336.3c0.1,16.5,13.5,29.8,30,29.7h0.1H284v59.1c0,5.5,4.5,10,10,10
			s10-4.5,10-10v-91.1h39v13.6c0,5.5,4.3,10.4,9.8,10.4h123.1c5.7-0.1,10.1-4.8,10-10.5C485.9,394.551,485.3,392.751,484.3,391.251z
			 M60,120.451l33-39.5l40.3,35.2c3.1,2.7,7.4,3.2,11.1,1.4l29.9-14.9l42,39.2c4,3.8,10.4,3.6,14.1-0.5c0.1-0.1,0.2-0.3,0.4-0.4
			l36.3-43.2l38.7,9.5c4,1,8.3-0.6,10.6-4.1l32.6-47.5l28.6,15.7c3.9,2.1,8.7,1.5,11.8-1.6l34.6-34.1v73.7l-39.3,5.4
			c-2.5,0.3-4.7,1.6-6.3,3.5l-34.7,41.4l-38.4-23.5c-4.2-2.6-9.7-1.7-12.9,2.1l-39,46.4l-46.5-19.2c-3.6-1.5-7.8-0.7-10.7,1.9
			l-37.8,35.4l-22.7-39.1c-2.8-4.8-8.9-6.4-13.7-3.6c-0.4,0.2-0.7,0.4-1,0.7l-31.4,23.9l-29.6-17.8V120.451z M284,394.951H30.1
			c-5.4,0.2-9.9-4.1-10.1-9.5v-0.1v-326.4h20v306.3c0.1,5.4,4.5,9.7,9.9,9.7c0.1,0,0.1,0,0.2,0H284V394.951z M284.1,354.951H60v-56
			l24.4,7.2c0.9,0.3,1.9,0.4,2.9,0.4c2.6,0,5.1-1,6.9-2.8l34.1-32.6l43.4,27.8c3.4,2.2,7.8,2.1,11.2-0.3l34.8-24.6l37.4,30.2
			c2.1,1.7,4.7,2.5,7.3,2.2c2.7-0.3,5.2-1.6,6.9-3.7l14.8-18.1V354.951z M259.8,282.551l-35.5-28.7c-3.5-2.8-8.4-3-12.1-0.4
			l-35.5,25.1l-44.3-28.4c-3.9-2.5-9-2-12.3,1.2l-35.6,34l-24.5-7.2v-87.9l25.1,15c3.5,2.1,8,1.9,11.2-0.6l27.7-21.1l23.3,40.2
			c1.5,2.6,4.2,4.4,7.2,4.9c0.5,0.1,1,0.1,1.5,0.1c2.5,0,5-1,6.8-2.7l42.3-39.6l47.3,19.5c4,1.7,8.7,0.5,11.5-2.8l38.2-45.4
			l38.4,23.5c4.2,2.6,9.7,1.7,12.9-2.1l37.8-45l32.8-4.5v79.5l-32.5-11.8c-4.5-1.6-9.5,0.1-12,4.2l-34.8,57.1l-35.1-23.3
			c-4.3-2.9-10.1-2-13.3,2.1L259.8,282.551z M395.4,272.951h-36.1l33-54.1l31.7,11.5v68.6h-19v-16
			C405,277.451,401,272.951,395.4,272.951z M293.6,272.951c-0.1,0-0.3,0-0.4,0l12.9-16l24.1,16H293.6z M304,362.951v-70h81v70H304z
			 M439.1,358.451l18.4,28.5H363v-4h32.4c5.5,0,9.6-4.5,9.6-10.1v-53.9h52.5l-18.4,28.5C437,350.751,437,355.051,439.1,358.451z"/>
	</g>
</g>
<g>
</g>
<g>
</g>
<g>
</g>
<g>
</g>
<g>
</g>
<g>
</g>
<g>
</g>
<g>
</g>
<g>
</g>
<g>
</g>
<g>
</g>
<g>
</g>
<g>
</g>
<g>
</g>
<g>
</g>
</svg>
