<?xml version="1.0" encoding="iso-8859-1"?>
<!-- Generator: Adobe Illustrator 19.0.0, SVG Export Plug-In . SVG Version: 6.00 Build 0)  -->
<svg version="1.1" id="Capa_1" xmlns="http://www.w3.org/2000/svg" xmlns:xlink="http://www.w3.org/1999/xlink" x="0px" y="0px"
	 viewBox="0 0 491.826 491.826" style="enable-background:new 0 0 491.826 491.826;" xml:space="preserve">
<g>
	<g>
		<path d="M410.246,7.326c0,0,0,0-0.1,0l-101.7-7.3c-5.5-0.4-10.3,3.8-10.7,9.3c-0.4,5.5,3.8,10.3,9.3,10.7l75.8,5.4l-137,106.4
			l-102.2-80.6c-3.9-3.1-9.5-2.8-13.1,0.6l-104.2,100c-4,3.8-4.1,10.2-0.3,14.1c1.9,2,4.5,3.1,7.2,3.1c2.6,0,5.1-1,6.9-2.8
			l97.9-93.9l101.6,80c3.6,2.8,8.7,2.9,12.3,0l145.7-113.1l-5.5,71.8c-0.4,5.5,3.7,10.3,9.2,10.7c0.3,0,0.5,0,0.8,0
			c5.2,0,9.6-4,10-9.2l7.3-94.5C419.846,12.526,415.746,7.726,410.246,7.326z"/>
	</g>
</g>
<g>
	<g>
		<path d="M450.046,360.526l24.9-38.3c2-3.1,2.2-7,0.4-10.2s-5.1-5.2-8.8-5.1h-70.6v-16.2c0-3.6-1.9-6.9-5-8.7v-87.1
			c0-5.5-4.4-9.9-9.8-9.9h-0.1h-63.6c-5.5,0-10.4,4.4-10.4,9.9v86h-22.6c-5.5,0-10.4,4.2-10.4,9.8v78.2h-11v-142.2
			c0.1-5.3-4.1-9.7-9.4-9.8c-0.1,0-0.2,0-0.3,0h-63.6c-5.3,0-9.6,4.2-9.7,9.5c0,0.1,0,0.2,0,0.3v142.2h-44v-99.6
			c-0.2-5.7-4.8-10.3-10.5-10.4h-63.7c-5.5,0-9.9,4.9-9.9,10.4v99.6h-26.7c-5.5,0-10,4.5-10,10s4.5,10,10,10h248.7v92.9
			c0,5.5,4.5,10,10,10s10-4.5,10-10v-90.9h40v13.4c-0.2,5.2,3.9,9.5,9,9.6c0.2,0,0.4,0,0.5,0h123.1c5.4,0.1,9.9-4.1,10-9.5
			c0-2-0.5-4-1.6-5.6L450.046,360.526z M115.946,368.926h-44v-90h44V368.926z M242.946,368.926h-43v-132h43V368.926z
			 M326.946,204.926h44v76h-44V204.926z M293.946,370.926v-70h82v70H293.946z M429.846,365.726l18.4,28.2h-94.3v-3h32.2
			c5.5,0,9.8-4.8,9.8-10.3v-53.7h52.3l-18.4,28.2C427.646,358.326,427.646,362.526,429.846,365.726z"/>
	</g>
</g>
<g>
</g>
<g>
</g>
<g>
</g>
<g>
</g>
<g>
</g>
<g>
</g>
<g>
</g>
<g>
</g>
<g>
</g>
<g>
</g>
<g>
</g>
<g>
</g>
<g>
</g>
<g>
</g>
<g>
</g>
</svg>
