<?xml version="1.0" encoding="iso-8859-1"?>
<!-- Generator: Adobe Illustrator 19.0.0, SVG Export Plug-In . SVG Version: 6.00 Build 0)  -->
<svg version="1.1" id="Capa_1" xmlns="http://www.w3.org/2000/svg" xmlns:xlink="http://www.w3.org/1999/xlink" x="0px" y="0px"
	 viewBox="0 0 475.702 475.702" style="enable-background:new 0 0 475.702 475.702;" xml:space="preserve">
<g>
	<g>
		<path d="M249,111.752h-89c-5.5,0-10,4.5-10,10v190c0,5.5,4.5,10,10,10h89c5.5,0,10-4.5,10-10v-190
			C259,116.252,254.5,111.752,249,111.752z M239,301.752h-69v-170h69V301.752z"/>
	</g>
</g>
<g>
	<g>
		<path d="M99,180.752H10c-5.5,0-10,4.5-10,10v120c0,5.5,4.5,10,10,10h89c5.5,0,10-4.5,10-10v-120
			C109,185.252,104.5,180.752,99,180.752z M89,301.752H20v-101h69V301.752z"/>
	</g>
</g>
<g>
	<g>
		<path d="M474.1,373.052l-24.9-38.4l24.9-38.4c2-3,2.1-7,0.4-10.2s-5.1-5.3-8.8-5.3H409v-261.2c-0.1-5.5-4.7-9.9-10.2-9.8h-89
			c-5.3-0.1-9.7,4.2-9.8,9.6c0,0.1,0,0.2,0,0.3v235.1h-16.6c-5.5,0-10.4,4.6-10.4,10.1v191.1c0,5.5,4.5,10,10,10s10-4.5,10-10v-91.2
			h40v13.7c0,5.5,4.1,10.3,9.6,10.3h123.1c5.6-0.1,10.1-4.8,10-10.4C475.7,376.452,475.1,374.652,474.1,373.052z M320,29.752h69
			v225.7c-1.2-0.5-2.5-0.7-3.8-0.7H320V29.752z M293,344.752v-70h82v70H293z M428.9,340.252l18.4,28.5H353v-4h32.2
			c5.4,0,9.8-4.4,9.8-9.8c0-0.1,0-0.1,0-0.2v-54h52.3l-18.4,28.5C426.8,332.552,426.8,336.852,428.9,340.252z"/>
	</g>
</g>
<g>
</g>
<g>
</g>
<g>
</g>
<g>
</g>
<g>
</g>
<g>
</g>
<g>
</g>
<g>
</g>
<g>
</g>
<g>
</g>
<g>
</g>
<g>
</g>
<g>
</g>
<g>
</g>
<g>
</g>
</svg>
