<?xml version="1.0" encoding="iso-8859-1"?>
<!-- Generator: Adobe Illustrator 19.0.0, SVG Export Plug-In . SVG Version: 6.00 Build 0)  -->
<svg version="1.1" id="Capa_1" xmlns="http://www.w3.org/2000/svg" xmlns:xlink="http://www.w3.org/1999/xlink" x="0px" y="0px"
	 viewBox="0 0 506.059 506.059" style="enable-background:new 0 0 506.059 506.059;" xml:space="preserve">
<g>
	<g>
		<path d="M210.982,262.959h-56c-5.5,0-10,4.5-10,10v92c0,5.5,4.5,10,10,10h56c5.5,0,10-4.5,10-10v-92
			C220.982,267.459,216.482,262.959,210.982,262.959z M201.982,354.959h-37v-72h37V354.959z"/>
	</g>
</g>
<g>
	<g>
		<path d="M95.982,242.959h-56c-5.5,0-10,4.5-10,10v113c0,5.5,4.5,10,10,10h56c5.5,0,10-4.5,10-10v-113
			C105.982,247.459,101.482,242.959,95.982,242.959z M85.982,354.959h-36v-92h36V354.959z"/>
	</g>
</g>
<g>
	<g>
		<path d="M444.682,13.159c-15.7-16.8-42.2-17.6-59-1.9c-11.2,10.5-15.7,26.5-11.7,41.4l-45.3,32.1c-16.2-16.4-42.7-16.6-59.1-0.4
			c-11.6,11.5-15.5,28.6-9.9,44l-41.8,35.2c-13.2-18.9-39.3-23.6-58.2-10.4c-7.2,5-12.6,12.2-15.5,20.4l-34.7-14.1
			c-3.9-22.8-25.4-38.1-48.2-34.2c-22.8,3.9-38.1,25.4-34.2,48.2c3.9,22.8,25.4,38.1,48.2,34.2c15-2.5,27.4-13,32.5-27.3l34.7,14.1
			c3.9,22.8,25.4,38.1,48.2,34.2c20.1-3.4,34.8-20.8,34.8-41.2c0-1.3-0.1-2.7-0.2-4l45.6-38.4c17.1,15.5,43.5,14.3,59-2.8
			c9.9-10.9,13.3-26.2,9.1-40.2l44.8-31.8c15.8,16.8,42.2,17.6,59,1.9C459.582,56.359,460.382,29.959,444.682,13.159z
			 M68.282,188.358c-12,0-21.8-9.8-21.8-21.8s9.8-21.8,21.8-21.8s21.8,9.8,21.8,21.8C90.082,178.559,80.282,188.358,68.282,188.358z
			 M183.682,209.259c-12,0-21.8-9.8-21.8-21.8s9.8-21.8,21.8-21.8s21.8,9.8,21.8,21.8
			C205.482,199.559,195.682,209.259,183.682,209.259z M298.982,135.859c-12,0-21.8-9.8-21.8-21.8s9.8-21.8,21.8-21.8
			s21.8,9.8,21.8,21.8S310.982,135.859,298.982,135.859z M414.382,63.459c-12,0-21.8-9.8-21.8-21.8s9.7-21.8,21.8-21.8
			c12,0,21.8,9.8,21.8,21.8S426.382,63.459,414.382,63.459z"/>
	</g>
</g>
<g>
	<g>
		<path d="M477.982,413.259l-25-38.4l24.9-38.4c2-3.1,2.1-7,0.4-10.2s-5.1-5.2-8.8-5.3h-16.5v-194c0-5.5-4.9-10-10.5-10h-56.3
			c-5.6,0-10.1,4.4-10.2,10v168h-39v-95.8c0.1-5.5-4.3-10.1-9.8-10.2h-56.3c-5.5,0.1-9.9,4.6-9.8,10.2v166.3c0,5.2,4.2,9.5,9.4,9.5
			c0.1,0,0.3,0,0.4,0h6.2v121.1c0,5.5,4.5,10,10,10s10-4.5,10-10v-91.1h39v13.6c0.2,5.7,4.7,10.2,10.4,10.4h123.1
			c5.6-0.1,10.1-4.8,10-10.4C479.582,416.659,478.982,414.858,477.982,413.259z M395.982,136.959h37v184h-34v-16c0.1-2.6-1-5.2-3-7
			V136.959z M287.182,294.959c-2.3,0.1-4.5,0.9-6.2,2.3v-88.3h36v86H287.182z M296.982,384.959v-70h82v70H296.982z M432.682,380.459
			l18.4,28.5h-95.1v-4h33c5.5,0,10-4.5,10-10v-54h52.1l-18.4,28.5C430.582,372.759,430.582,377.059,432.682,380.459z"/>
	</g>
</g>
<g>
</g>
<g>
</g>
<g>
</g>
<g>
</g>
<g>
</g>
<g>
</g>
<g>
</g>
<g>
</g>
<g>
</g>
<g>
</g>
<g>
</g>
<g>
</g>
<g>
</g>
<g>
</g>
<g>
</g>
</svg>
