<?xml version="1.0" encoding="iso-8859-1"?>
<!-- Generator: Adobe Illustrator 19.0.0, SVG Export Plug-In . SVG Version: 6.00 Build 0)  -->
<svg version="1.1" id="Capa_1" xmlns="http://www.w3.org/2000/svg" xmlns:xlink="http://www.w3.org/1999/xlink" x="0px" y="0px"
	 viewBox="0 0 454.1 454.1" style="enable-background:new 0 0 454.1 454.1;" xml:space="preserve">
<g>
	<g>
		<path d="M395.6,0H131.1c-27.4,0.1-49.7,22.3-50,49.7L78.9,336H57.3c-26.7,0-48.4,21.6-48.5,48.4c-0.1,37.2,29.3,67.8,66.5,69.3
			v0.4h297v-0.4c2,0.1,2.5,0.1,3.7,0.1c38.2,0,69.2-31,69.3-69.3V50.3C445.3,22.7,423.1,0,395.6,0z M78.3,434
			C51.1,433.9,29,411.8,29,384.5c0-15.7,12.6-28.4,28.3-28.5h221.4c15.7,0.1,28.3,12.9,28.3,28.5c0,19.3,7.9,36.5,20.6,49.5H78.3z
			 M425.3,384.4c0,27.2-22,49.2-49.2,49.1c-27.2-0.1-49.2-22-49.1-49.2c0-26.7-21.6-48.3-48.2-48.4H98.9l2.2-286.1
			c0.2-16.5,13.5-29.8,30-29.9h264.5c16.5,0,29.7,13.8,29.7,30.3V384.4z"/>
	</g>
</g>
<g>
	<g>
		<path d="M344.2,259H168.3V123.1c0-5.5-4.5-10-10-10s-10,4.5-10,10v136.6c0,10.6,8.2,19.4,18.9,19.4h177.1c5.5,0,10-4.5,10-10
			S349.8,259,344.2,259z"/>
	</g>
</g>
<g>
	<g>
		<path d="M354.5,135c-2.3-0.5-4.8-0.8-7.2-0.8c-14,0-25.4,11.4-25.5,25.4c0,4,1,8,2.8,11.6l-13.4,14.6c-8.7-6.5-20.6-6.7-29.6-0.5
			l-11.5-9.4c-1.3-14-13.7-24.3-27.7-23c-14,1.3-24.3,13.7-23,27.7c0.1,0.6,0.1,1.1,0.2,1.7l-14.4,18c-13.5-3.9-27.6,3.9-31.5,17.4
			c-3.9,13.5,3.9,27.6,17.4,31.5c13.5,3.9,27.6-3.9,31.5-17.4c1.8-6.3,1.1-13.1-1.9-18.9l10.5-13.2c10.2,6.4,23.4,4.8,31.8-3.9
			l7.8,6.4c-2.1,13.9,7.4,26.9,21.3,29c13.9,2.1,26.9-7.4,29-21.3c0.2-1.3,0.3-2.6,0.3-3.9c0-0.7,0-1.3-0.1-2l18.6-20.2
			c13.5,4,27.6-3.7,31.7-17.1C375.6,153.2,367.9,139.1,354.5,135z M198.3,230.2c-3,0-5.5-2.4-5.5-5.5c0-3,2.4-5.5,5.5-5.5
			c3,0,5.5,2.4,5.5,5.5C203.8,227.8,201.3,230.2,198.3,230.2z M244.9,183.7c-3,0-5.5-2.4-5.5-5.5c0-3.1,2.4-5.5,5.5-5.5
			c3,0,5.5,2.4,5.5,5.5C250.3,181.2,247.9,183.7,244.9,183.7z M296.1,211.6c-3,0-5.5-2.4-5.5-5.5c0-3.1,2.4-5.5,5.5-5.5
			c3,0,5.5,2.4,5.5,5.5C301.5,209.2,299.1,211.6,296.1,211.6z M347.3,165.1c-3,0-5.5-2.4-5.5-5.5c0-3.1,2.4-5.5,5.5-5.5
			c3,0,5.5,2.4,5.5,5.5C352.7,162.6,350.3,165.1,347.3,165.1z"/>
	</g>
</g>
<g>
</g>
<g>
</g>
<g>
</g>
<g>
</g>
<g>
</g>
<g>
</g>
<g>
</g>
<g>
</g>
<g>
</g>
<g>
</g>
<g>
</g>
<g>
</g>
<g>
</g>
<g>
</g>
<g>
</g>
</svg>
