<?xml version="1.0" encoding="iso-8859-1"?>
<!-- Generator: Adobe Illustrator 19.0.0, SVG Export Plug-In . SVG Version: 6.00 Build 0)  -->
<svg version="1.1" id="Capa_1" xmlns="http://www.w3.org/2000/svg" xmlns:xlink="http://www.w3.org/1999/xlink" x="0px" y="0px"
	 viewBox="0 0 454.1 454.1" style="enable-background:new 0 0 454.1 454.1;" xml:space="preserve">
<g>
	<g>
		<path d="M395.6,0H131.1c-27.4,0.1-49.7,22.3-50,49.7L78.9,336H57.3c-26.7,0-48.4,21.6-48.5,48.4c-0.1,37.2,29.3,67.8,66.5,69.3
			v0.4h297v-0.4c2,0.1,2.5,0.1,3.7,0.1c38.2,0,69.2-31,69.3-69.3V50.3C445.3,22.7,423.1,0,395.6,0z M78.3,434
			C51.1,433.9,29,411.8,29,384.5c0-15.7,12.6-28.4,28.3-28.5h221.4c15.7,0.1,28.3,12.9,28.3,28.5c0,19.3,7.9,36.5,20.6,49.5H78.3z
			 M425.3,384.4c0,27.2-22,49.2-49.2,49.1c-27.2-0.1-49.2-22-49.1-49.2c0-26.7-21.6-48.3-48.2-48.4H98.9l2.2-286.1
			c0.2-16.5,13.5-29.8,30-29.9h264.5c16.5,0,29.7,13.8,29.7,30.3V384.4z"/>
	</g>
</g>
<g>
	<g>
		<path d="M329.9,193h-75.6v-75.9c0-5.5-4.4-10-9.9-10c0,0,0,0-0.1,0c-25.4-0.1-49.7,10-67.6,28c-37.3,37.3-37.3,97.8,0.1,135.1
			s97.8,37.3,135.1-0.1c17.9-17.9,27.9-42.1,27.9-67.3C339.8,197.4,335.4,193,329.9,193z M297.8,256.2
			c-29.6,29.4-77.5,29.3-106.9-0.4c-14-14.1-21.9-33.3-22-53.2c-0.1-37.8,27.8-69.8,65.3-74.9v74.8c0,5.6,4.5,10.2,10.1,10.4h74.8
			C317,229.3,309.4,244.5,297.8,256.2z"/>
	</g>
</g>
<g>
	<g>
		<path d="M343.8,103.9c-0.1-0.1-0.1,0-0.2-0.1C325.7,86,301.5,76,276.2,76c-5.5,0-9.9,4.5-9.9,9.9c0,0,0,0,0,0.1v85.5
			c0,5.3,4.2,9.6,9.5,9.6c0.1,0,0.3,0,0.4,0h85.5c5.4,0.1,9.9-4.2,10-9.7v-0.1C371.7,146,361.7,121.8,343.8,103.9z M286.3,96.7
			c3.5,0.5,7,1.2,10.5,2.1l-10.5,10.5V96.7z M286.3,137.6l30-30c1.9,1.2,3.8,2.5,5.6,3.8L286.3,147V137.6z M300.1,161l35.9-35.7
			c1.4,1.8,2.7,3.6,3.9,5.5L309.5,161H300.1z M337.8,161l10.9-10.9c1,3.6,1.7,7.2,2.3,10.9H337.8z"/>
	</g>
</g>
<g>
</g>
<g>
</g>
<g>
</g>
<g>
</g>
<g>
</g>
<g>
</g>
<g>
</g>
<g>
</g>
<g>
</g>
<g>
</g>
<g>
</g>
<g>
</g>
<g>
</g>
<g>
</g>
<g>
</g>
</svg>
