<?xml version="1.0" encoding="iso-8859-1"?>
<!-- Generator: Adobe Illustrator 19.0.0, SVG Export Plug-In . SVG Version: 6.00 Build 0)  -->
<svg version="1.1" id="Capa_1" xmlns="http://www.w3.org/2000/svg" xmlns:xlink="http://www.w3.org/1999/xlink" x="0px" y="0px"
	 viewBox="0 0 454.1 454.1" style="enable-background:new 0 0 454.1 454.1;" xml:space="preserve">
<g>
	<g>
		<path d="M395.6,0H131.1c-27.4,0.1-49.7,22.3-50,49.7L78.9,336H57.3c-26.7,0-48.4,21.6-48.5,48.4c-0.1,37.2,29.3,67.8,66.5,69.3
			v0.4h297v-0.4c2,0.1,2.5,0.1,3.7,0.1c38.2,0,69.2-31,69.3-69.3V50.3C445.3,22.7,423.1,0,395.6,0z M78.3,434
			C51.1,433.9,29,411.8,29,384.5c0-15.7,12.6-28.4,28.3-28.5h221.4c15.7,0.1,28.3,12.9,28.3,28.5c0,19.3,7.9,36.5,20.6,49.5H78.3z
			 M425.3,384.4c0,27.2-22,49.2-49.2,49.1c-27.2-0.1-49.2-22-49.1-49.2c0-26.7-21.6-48.3-48.2-48.4H98.9l2.2-286.1
			c0.2-16.5,13.5-29.8,30-29.9h264.5c16.5,0,29.7,13.8,29.7,30.3V384.4z"/>
	</g>
</g>
<g>
	<g>
		<path d="M309.3,111h-32.6c-5.6,0-10.2,4.5-10.4,10.1v160.4c0.2,5.7,4.7,10.3,10.4,10.4h32.6c5.5,0,10-4.9,10-10.4V121.1
			C319.3,115.6,314.8,111.1,309.3,111z M299.3,272h-13v-36h13V272z M299.3,216h-13v-85h13V216z"/>
	</g>
</g>
<g>
	<g>
		<path d="M367.9,86h-33.2c-5.7,0.2-10.3,4.8-10.4,10.4v185.1c0.2,5.7,4.7,10.3,10.4,10.5h33.2c5.7-0.2,10.3-4.8,10.4-10.4V96.5
			C378.1,90.8,373.6,86.2,367.9,86z M358.3,272h-14v-36h14V272z M358.3,216h-14V106h14V216z"/>
	</g>
</g>
<g>
	<g>
		<path d="M251.4,136c-0.1,0-0.1,0-0.1,0h-32.6c-5.5,0-10.4,4.3-10.4,9.8v135.7c0.2,5.7,4.7,10.3,10.4,10.4h32.6
			c5.5,0,10-4.9,10-10.4V145.8C261.3,140.4,256.8,136,251.4,136z M241.3,272h-13v-36h13V272z M241.3,216h-13v-60h13V216z"/>
	</g>
</g>
<g>
	<g>
		<path d="M193.3,179h-32.6c-5.5,0-10.4,4.5-10.4,10v92.6c0.2,5.7,4.7,10.3,10.4,10.4h32.6c5.5,0,10-4.9,10-10.4V189
			C203.3,183.5,198.8,179,193.3,179z M183.3,272h-13v-36h13V272z M183.3,216h-13v-17h13V216z"/>
	</g>
</g>
<g>
</g>
<g>
</g>
<g>
</g>
<g>
</g>
<g>
</g>
<g>
</g>
<g>
</g>
<g>
</g>
<g>
</g>
<g>
</g>
<g>
</g>
<g>
</g>
<g>
</g>
<g>
</g>
<g>
</g>
</svg>
