<?xml version="1.0" encoding="iso-8859-1"?>
<!-- Generator: Adobe Illustrator 19.0.0, SVG Export Plug-In . SVG Version: 6.00 Build 0)  -->
<svg version="1.1" id="Capa_1" xmlns="http://www.w3.org/2000/svg" xmlns:xlink="http://www.w3.org/1999/xlink" x="0px" y="0px"
	 viewBox="0 0 454.1 454.1" style="enable-background:new 0 0 454.1 454.1;" xml:space="preserve">
<g>
	<g>
		<path d="M395.6,0H131.1c-27.4,0.1-49.7,22.3-50,49.7L78.9,336H57.3c-26.7,0-48.4,21.6-48.5,48.4c-0.1,37.2,29.3,67.8,66.5,69.3
			v0.4h297v-0.4c2,0.1,2.5,0.1,3.7,0.1c38.2,0,69.2-31,69.3-69.3V50.3C445.3,22.7,423.1,0,395.6,0z M78.3,434
			C51.1,433.9,29,411.8,29,384.5c0-15.7,12.6-28.4,28.3-28.5h221.4c15.7,0.1,28.3,12.9,28.3,28.5c0,19.3,7.9,36.5,20.6,49.5H78.3z
			 M425.3,384.4c0,27.2-22,49.2-49.2,49.1c-27.2-0.1-49.2-22-49.1-49.2c0-26.7-21.6-48.3-48.2-48.4H98.9l2.2-286.1
			c0.2-16.5,13.5-29.8,30-29.9h264.5c16.5,0,29.7,13.8,29.7,30.3V384.4z"/>
	</g>
</g>
<g>
	<g>
		<path d="M369.9,176.5c-2.5-22.1-11.2-42.8-25.3-59.8c-3.2-3.8-8.8-4.4-12.7-1.2c-0.2,0.2-0.4,0.4-0.6,0.6l-38.8,38.6
			c-3,3-3.5,7.7-1.2,11.3c2.7,4.4,4.7,9.2,6,14.3c1,4,4.6,6.8,8.7,6.8h53.7c0.3,0,0.7,0,1,0h0.2c4,0,7.6-2.7,8.7-6.5
			c0.2-0.8,0.4-1.6,0.4-2.5C370,177.6,370,177,369.9,176.5z M312.6,169c-0.7-2-1.6-4.2-2.6-6.4l26.6-26.5
			c6.6,10,11.3,21.2,13.7,32.9H312.6z"/>
	</g>
</g>
<g>
	<g>
		<path d="M329.8,101.9c-0.2-0.2-0.4-0.4-0.6-0.6c-17.2-14.2-38.2-23-60.4-25.2c-4.9-0.7-9.5,2.7-10.2,7.6c-0.1,0.4-0.1,0.9-0.1,1.3
			v54.9c-0.2,4.3,2.9,8,7.2,8.8c4.9,1,9.6,3,13.9,5.8c3.6,2.3,8.3,1.9,11.3-1.1l38.9-38.8C333.3,111.1,333.3,105.4,329.8,101.9z
			 M283,135.8c-2.2-1.1-4.4-2-6.7-2.8V95.4c11.9,2.4,23.2,7.1,33.3,13.8L283,135.8z"/>
	</g>
</g>
<g>
	<g>
		<path d="M245.4,76.1c-0.3,0-0.6,0-0.9,0c-25.8,2.6-49.8,14.1-68,32.5c-18.1,18.5-29.3,42.6-31.8,68.4c-0.5,4.9,3.1,9.3,8.1,9.8
			c0.2,0.2,0.5,0.2,0.8,0.2h54.9c4.2,0,7.9-2.9,8.8-7.1c3.2-14.4,16.2-27.7,30.2-31.1c4-1,6.9-4.6,6.9-8.8V85.1
			C254.4,80.1,250.4,76.1,245.4,76.1z M236.3,133.5c-15.4,6.1-28.7,19.8-34.5,35.5H164c3.6-18,12.4-34.5,25.3-47.6
			c12.8-13,29.2-21.9,47-25.7V133.5z"/>
	</g>
</g>
<g>
	<g>
		<path d="M248.8,228.6c-0.1,0-0.1,0-0.2,0c-15.8-3.3-28.1-15.7-31.5-31.5c-0.9-4.2-4.6-7.1-8.8-7.1h-55c-2.5,0-4.9,1-6.7,2.9
			c-1.7,1.9-2.5,4.4-2.3,6.9c5.3,53.6,47.6,96,101.1,101.5c0.3,0,0.6,0,0.9,0c4.9,0,9-4,9-8.9c0,0,0.1-13.7,0.2-27.5
			c0-6.9,0.1-13.7,0.1-18.9c0-2.6,0-4.7,0-6.3c0-0.8,0-1.4,0-1.8C255.7,230.6,250,228.8,248.8,228.6z M237.5,281.8
			c-37.1-7.8-66-36.8-73.7-73.9l37.7-0.1c5.9,17,19.2,30.4,36.2,36.3C237.7,252.7,237.6,268,237.5,281.8z"/>
	</g>
</g>
<g>
	<g>
		<path d="M361.6,191.1c-0.2-0.1-0.5-0.1-0.8-0.1h-54.9c-4.2,0-7.8,2.9-8.8,7c-3.4,15.1-16.4,27.9-31.6,31.1
			c-4.2,0.9-7.2,4.5-7.2,8.8l-0.2,54.9c0,5,4,9,9,9c0.3,0,0.7,0,1-0.1h0.1c53.5-5.2,96.2-47.6,101.5-100.8
			C370.2,196,366.6,191.5,361.6,191.1z M292.4,277.6l-16.2-16.2l0.1-16.7c2.6-0.9,5.2-2,7.6-3.3l26.6,26.6
			C304.8,271.8,298.8,275,292.4,277.6z M324.5,256.4l-25.9-25.9c4.7-4.6,8.6-10,11.6-16l26.7,26.7
			C333.3,246.7,329.1,251.8,324.5,256.4z M345.6,224.5L330.1,209h20.2C349.2,214.3,347.6,219.5,345.6,224.5z"/>
	</g>
</g>
<g>
</g>
<g>
</g>
<g>
</g>
<g>
</g>
<g>
</g>
<g>
</g>
<g>
</g>
<g>
</g>
<g>
</g>
<g>
</g>
<g>
</g>
<g>
</g>
<g>
</g>
<g>
</g>
<g>
</g>
</svg>
