<?xml version="1.0" encoding="iso-8859-1"?>
<!-- Generator: Adobe Illustrator 19.0.0, SVG Export Plug-In . SVG Version: 6.00 Build 0)  -->
<svg version="1.1" id="Capa_1" xmlns="http://www.w3.org/2000/svg" xmlns:xlink="http://www.w3.org/1999/xlink" x="0px" y="0px"
	 viewBox="0 0 454.1 454.1" style="enable-background:new 0 0 454.1 454.1;" xml:space="preserve">
<g>
	<g>
		<path d="M395.6,0H131.1c-27.4,0.1-49.7,22.3-50,49.7L78.9,336H57.3c-26.7,0-48.4,21.6-48.5,48.4c-0.1,37.2,29.3,67.8,66.5,69.3
			v0.4h297v-0.4c2,0.1,2.5,0.1,3.7,0.1c38.2,0,69.2-31,69.3-69.3V50.3C445.3,22.7,423.1,0,395.6,0z M78.3,434
			C51.1,433.9,29,411.8,29,384.5c0-15.7,12.6-28.4,28.3-28.5h221.4c15.7,0.1,28.3,12.9,28.3,28.5c0,19.3,7.9,36.5,20.6,49.5H78.3z
			 M425.3,384.4c0,27.2-22,49.2-49.2,49.1c-27.2-0.1-49.2-22-49.1-49.2c0-26.7-21.6-48.3-48.2-48.4H98.9l2.2-286.1
			c0.2-16.5,13.5-29.8,30-29.9h264.5c16.5,0,29.7,13.8,29.7,30.3V384.4z"/>
	</g>
</g>
<g>
	<g>
		<path d="M365.4,81.7l-55.4-4c-5.5-0.4-10.3,3.8-10.7,9.3c-0.4,5.5,3.8,10.3,9.3,10.7l29.4,2.1l-62.3,48.4l-52.9-41.7
			c-3.9-3.1-9.5-2.8-13.1,0.6L153,161.5c-4,3.8-4.2,10.1-0.5,14.1s10.1,4.2,14.1,0.5c0.1-0.1,0.1-0.1,0.2-0.2l50.4-48.4l52.2,41.1
			c3.6,2.8,8.7,2.9,12.3,0l71.2-55.3l-2.2,28.9c-0.4,5.5,3.7,10.3,9.2,10.7c0.3,0,0.5,0,0.8,0c5.2,0,9.6-4,10-9.2l4-51.4
			C375.1,86.9,371,82.1,365.4,81.7z"/>
	</g>
</g>
<g>
	<g>
		<path d="M280.3,196h-35c-5.5,0-10,4.5-10,10v83c0,5.5,4.5,10,10,10h35c5.5,0,10-4.5,10-10v-83C290.3,200.5,285.8,196,280.3,196z
			 M269.3,278h-14v-62h14V278z"/>
	</g>
</g>
<g>
	<g>
		<path d="M209.3,219h-35c-5.5,0-10,4.5-10,10v59c0,5.5,4.5,10,10,10h35c5.5,0,10-4.5,10-10v-59C219.3,223.5,214.8,219,209.3,219z
			 M199.3,278h-15v-39h15V278z"/>
	</g>
</g>
<g>
	<g>
		<path d="M350.3,178h-35c-5.5,0-10,4.5-10,10v100c0,5.5,4.5,10,10,10h35c5.5,0,10-4.5,10-10V188C360.3,182.5,355.8,178,350.3,178z
			 M340.3,278h-15v-80h15V278z"/>
	</g>
</g>
<g>
</g>
<g>
</g>
<g>
</g>
<g>
</g>
<g>
</g>
<g>
</g>
<g>
</g>
<g>
</g>
<g>
</g>
<g>
</g>
<g>
</g>
<g>
</g>
<g>
</g>
<g>
</g>
<g>
</g>
</svg>
