<?xml version="1.0" encoding="iso-8859-1"?>
<!-- Generator: Adobe Illustrator 19.0.0, SVG Export Plug-In . SVG Version: 6.00 Build 0)  -->
<svg version="1.1" id="Capa_1" xmlns="http://www.w3.org/2000/svg" xmlns:xlink="http://www.w3.org/1999/xlink" x="0px" y="0px"
	 viewBox="0 0 454.1 454.1" style="enable-background:new 0 0 454.1 454.1;" xml:space="preserve">
<g>
	<g>
		<path d="M395.6,0H131.1c-27.4,0.1-49.7,22.3-50,49.7L78.9,336H57.3c-26.7,0-48.4,21.6-48.5,48.4c-0.1,37.2,29.3,67.8,66.5,69.3
			v0.4h297v-0.4c2,0.1,2.5,0.1,3.7,0.1c38.2,0,69.2-31,69.3-69.3V50.3C445.3,22.7,423.1,0,395.6,0z M78.3,434
			C51.1,433.9,29,411.8,29,384.5c0-15.7,12.6-28.4,28.3-28.5h221.4c15.7,0.1,28.3,12.9,28.3,28.5c0,19.3,7.9,36.5,20.6,49.5H78.3z
			 M425.3,384.4c0,27.2-22,49.2-49.2,49.1c-27.2-0.1-49.2-22-49.1-49.2c0-26.7-21.6-48.3-48.2-48.4H98.9l2.2-286.1
			c0.2-16.5,13.5-29.8,30-29.9h264.5c16.5,0,29.7,13.8,29.7,30.3V384.4z"/>
	</g>
</g>
<g>
	<g>
		<path d="M282.3,166h-45c-5.5,0-10,4.5-10,10v97c0,5.5,4.5,10,10,10h45c5.5,0,10-4.5,10-10v-97C292.3,170.5,287.8,166,282.3,166z
			 M273.3,262h-26v-76h26V262z"/>
	</g>
</g>
<g>
	<g>
		<path d="M359.3,114h-45c-5.5,0-10,4.5-10,10v148c0,5.5,4.5,10,10,10h45c5.5,0,10-4.5,10-10V124C369.3,118.5,364.8,114,359.3,114z
			 M349.3,262h-25V134h25V262z"/>
	</g>
</g>
<g>
	<g>
		<path d="M206.3,201h-45c-5.5,0-10,4.5-10,10v61c0,5.5,4.5,10,10,10h45c5.5,0,10-4.5,10-10v-61C216.3,205.5,211.8,201,206.3,201z
			 M196.3,262h-25v-41h25V262z"/>
	</g>
</g>
<g>
</g>
<g>
</g>
<g>
</g>
<g>
</g>
<g>
</g>
<g>
</g>
<g>
</g>
<g>
</g>
<g>
</g>
<g>
</g>
<g>
</g>
<g>
</g>
<g>
</g>
<g>
</g>
<g>
</g>
</svg>
