<?xml version="1.0" encoding="iso-8859-1"?>
<!-- Generator: Adobe Illustrator 19.0.0, SVG Export Plug-In . SVG Version: 6.00 Build 0)  -->
<svg version="1.1" id="Capa_1" xmlns="http://www.w3.org/2000/svg" xmlns:xlink="http://www.w3.org/1999/xlink" x="0px" y="0px"
	 viewBox="0 0 416 416" style="enable-background:new 0 0 416 416;" xml:space="preserve">
<g>
	<g>
		<path d="M230.4,348h-136c-5.5,0-10,4.5-10,10s4.5,10,10,10h136c5.5,0,10-4.5,10-10S235.9,348,230.4,348z"/>
	</g>
</g>
<g>
	<g>
		<path d="M387.9,82.3L303.6,2.9c-1.8-1.8-4.3-2.8-6.8-2.9H155.9c-22,0-39.9,18.4-39.9,40.5V66H64.8C42.9,66,25,83.7,25,105.6
			c0,0.1,0,0.1,0,0.2v269.7c0,22.1,17.7,40.5,39.8,40.5h195.3c22.1,0,39.9-18.4,39.9-40.5V350h51.2c21.9,0,39.7-17.7,39.8-39.6
			c0-0.1,0-0.1,0-0.2V89.7C391,86.9,389.9,84.2,387.9,82.3z M306.9,33.5h0.1L355.9,80h-39.2c-5.5,0-9.8-4.8-9.8-10.3V33.5z
			 M280,375.5c0,11.1-8.9,20.5-19.9,20.5H64.8c-11,0-19.8-9.4-19.8-20.5V105.8C44.9,94.9,53.7,86,64.6,86c0.1,0,0.2,0,0.2,0H196v49
			c-0.2,16.4,13,29.8,29.4,30c0.1,0,0.2,0,0.2,0H280V375.5z M216,135.3c0-0.1,0-0.2,0-0.3V98.9l48.8,46.1h-39.2
			C220.3,145,216,140.6,216,135.3z M371,310.2c0.1,10.9-8.7,19.8-19.6,19.8c0,0-0.1,0-0.2,0H300V155c0-2.8-1.1-5.4-3.1-7.3
			l-84.4-79.1c-1.9-1.7-4.3-2.7-6.8-2.6H136V40.5c0-11,8.9-20.5,19.9-20.5H287v49.7c0,16.5,13.2,30.3,29.8,30.3H371V310.2z"/>
	</g>
</g>
<g>
	<g>
		<path d="M236.1,297H95V188.8c0-5.5-4.5-10-10-10s-10,4.5-10,10v110.9c0,9.5,7.7,17.3,17.2,17.3c0.1,0,0.1,0,0.2,0h143.7
			c5.5,0,10-4.5,10-10S241.7,297,236.1,297z"/>
	</g>
</g>
<g>
	<g>
		<path d="M244.1,196.5c-1.9-0.4-3.7-0.6-5.5-0.6c-12.4,0-22.5,10.1-22.5,22.5c0,3.1,0.6,6.2,1.9,9.1l-8.9,9.7
			c-7.2-4.6-16.3-4.7-23.6-0.3l-7.6-6.3c-1.6-12.3-12.9-21.1-25.2-19.5c-12.3,1.6-21.1,12.9-19.5,25.2l-10.4,13
			c-12.2-2.8-24.2,4.8-27,17c-2.8,12.2,4.8,24.2,17,27c12.2,2.8,24.2-4.8,27-17c1.1-4.8,0.6-9.9-1.5-14.4l6.8-8.5
			c8.3,4.4,18.4,3.1,25.4-3.1l4.2,3.5c-1.3,12.4,7.7,23.5,20.1,24.8c12.4,1.3,23.5-7.7,24.8-20.1c0.1-0.8,0.1-1.6,0.1-2.3
			c0-0.3,0-0.6,0-0.9l13.8-15c12.1,2.9,24.3-4.5,27.2-16.6C263.6,211.6,256.2,199.4,244.1,196.5z M117.7,273.9
			c-1.4,0-2.5-1.1-2.5-2.5c0-1.4,1.1-2.5,2.5-2.5c1.4,0,2.5,1.1,2.5,2.5C120.2,272.8,119.1,273.9,117.7,273.9z M155.5,236.1
			c-1.4,0-2.5-1.1-2.5-2.5c0-1.4,1.1-2.5,2.5-2.5c1.4,0,2.5,1.1,2.5,2.5C158,235,156.9,236.1,155.5,236.1z M197,258.8
			c-1.4,0-2.5-1.1-2.5-2.5c0-1.4,1.1-2.5,2.5-2.5c1.4,0,2.5,1.1,2.5,2.5C199.6,257.7,198.4,258.8,197,258.8z M238.6,221
			c-1.4,0-2.5-1.1-2.5-2.5c0-1.4,1.1-2.5,2.5-2.5c1.4,0,2.5,1.1,2.5,2.5C241.1,219.9,240,221,238.6,221z"/>
	</g>
</g>
<g>
</g>
<g>
</g>
<g>
</g>
<g>
</g>
<g>
</g>
<g>
</g>
<g>
</g>
<g>
</g>
<g>
</g>
<g>
</g>
<g>
</g>
<g>
</g>
<g>
</g>
<g>
</g>
<g>
</g>
</svg>
