<?xml version="1.0" encoding="iso-8859-1"?>
<!-- Generator: Adobe Illustrator 19.0.0, SVG Export Plug-In . SVG Version: 6.00 Build 0)  -->
<svg version="1.1" id="Capa_1" xmlns="http://www.w3.org/2000/svg" xmlns:xlink="http://www.w3.org/1999/xlink" x="0px" y="0px"
	 viewBox="0 0 416 416" style="enable-background:new 0 0 416 416;" xml:space="preserve">
<g>
	<g>
		<path d="M230.4,348h-136c-5.5,0-10,4.5-10,10s4.5,10,10,10h136c5.5,0,10-4.5,10-10S235.9,348,230.4,348z"/>
	</g>
</g>
<g>
	<g>
		<path d="M387.9,82.3L303.6,2.9c-1.8-1.8-4.3-2.8-6.8-2.9H155.9c-22,0-39.9,18.4-39.9,40.5V66H64.8C42.9,66,25,83.7,25,105.6
			c0,0.1,0,0.1,0,0.2v269.7c0,22.1,17.7,40.5,39.8,40.5h195.3c22.1,0,39.9-18.4,39.9-40.5V350h51.2c21.9,0,39.7-17.7,39.8-39.6
			c0-0.1,0-0.1,0-0.2V89.7C391,86.9,389.9,84.2,387.9,82.3z M306.9,33.5h0.1L355.9,80h-39.2c-5.5,0-9.8-4.8-9.8-10.3V33.5z
			 M280,375.5c0,11.1-8.9,20.5-19.9,20.5H64.8c-11,0-19.8-9.4-19.8-20.5V105.8C44.9,94.9,53.7,86,64.6,86c0.1,0,0.2,0,0.2,0H196v49
			c-0.2,16.4,13,29.8,29.4,30c0.1,0,0.2,0,0.2,0H280V375.5z M216,135.3c0-0.1,0-0.2,0-0.3V98.9l48.8,46.1h-39.2
			C220.3,145,216,140.6,216,135.3z M371,310.2c0.1,10.9-8.7,19.8-19.6,19.8c0,0-0.1,0-0.2,0H300V155c0-2.8-1.1-5.4-3.1-7.3
			l-84.4-79.1c-1.9-1.7-4.3-2.7-6.8-2.6H136V40.5c0-11,8.9-20.5,19.9-20.5H287v49.7c0,16.5,13.2,30.3,29.8,30.3H371V310.2z"/>
	</g>
</g>
<g>
	<g>
		<path d="M213.1,249H160v-52.4c0.1-5.4-4.3-9.9-9.7-10h-0.1c-19.3-0.1-37.9,7.6-51.5,21.4c-28.4,28.6-28.3,74.7,0.3,103.1
			c13.6,13.6,32.1,21.2,51.3,21.2c19.4,0.1,37.9-7.6,51.6-21.4c13.6-13.8,21.2-32.4,21.2-51.7C223.1,253.6,218.7,249.1,213.1,249z
			 M187.7,296.6c-20.7,20.6-54.2,20.6-74.8-0.1c-20.4-20.5-20.5-53.8-0.1-74.4c7.4-7.4,16.9-12.5,27.2-14.5v51.9
			c0,5.5,4.8,9.5,10.3,9.5h51.9C200.3,279.5,195.3,289.1,187.7,296.6z"/>
	</g>
</g>
<g>
	<g>
		<path d="M225.4,185.3c-0.2-0.2-0.2-0.3-0.3-0.4c-13.6-13.6-32.1-21.2-51.3-21.2c-5.4,0-9.8,4.4-9.8,9.9v0.1v62.9
			c0,5.5,4.1,10.5,9.7,10.5h62.9c5.6-0.1,10-4.7,10-10.2C246.6,217.6,239,199,225.4,185.3z M184,226.9v-42.3
			c10.3,2.2,19.8,7.3,27.2,14.7c7.5,7.5,12.5,17.2,14.3,27.6H184z"/>
	</g>
</g>
<g>
</g>
<g>
</g>
<g>
</g>
<g>
</g>
<g>
</g>
<g>
</g>
<g>
</g>
<g>
</g>
<g>
</g>
<g>
</g>
<g>
</g>
<g>
</g>
<g>
</g>
<g>
</g>
<g>
</g>
</svg>
