<?xml version="1.0" encoding="iso-8859-1"?>
<!-- Generator: Adobe Illustrator 19.0.0, SVG Export Plug-In . SVG Version: 6.00 Build 0)  -->
<svg version="1.1" id="Capa_1" xmlns="http://www.w3.org/2000/svg" xmlns:xlink="http://www.w3.org/1999/xlink" x="0px" y="0px"
	 viewBox="0 0 416 416" style="enable-background:new 0 0 416 416;" xml:space="preserve">
<g>
	<g>
		<path d="M230.4,348h-136c-5.5,0-10,4.5-10,10s4.5,10,10,10h136c5.5,0,10-4.5,10-10S235.9,348,230.4,348z"/>
	</g>
</g>
<g>
	<g>
		<path d="M387.9,82.3L303.6,2.9c-1.8-1.8-4.3-2.8-6.8-2.9H155.9c-22,0-39.9,18.4-39.9,40.5V66H64.8C42.9,66,25,83.7,25,105.6
			c0,0.1,0,0.1,0,0.2v269.7c0,22.1,17.7,40.5,39.8,40.5h195.3c22.1,0,39.9-18.4,39.9-40.5V350h51.2c21.9,0,39.7-17.7,39.8-39.6
			c0-0.1,0-0.1,0-0.2V89.7C391,86.9,389.9,84.2,387.9,82.3z M306.9,33.5h0.1L355.9,80h-39.2c-5.5,0-9.8-4.8-9.8-10.3V33.5z
			 M280,375.5c0,11.1-8.9,20.5-19.9,20.5H64.8c-11,0-19.8-9.4-19.8-20.5V105.8C44.9,94.9,53.7,86,64.6,86c0.1,0,0.2,0,0.2,0H196v49
			c-0.2,16.4,13,29.8,29.4,30c0.1,0,0.2,0,0.2,0H280V375.5z M216,135.3c0-0.1,0-0.2,0-0.3V98.9l48.8,46.1h-39.2
			C220.3,145,216,140.6,216,135.3z M371,310.2c0.1,10.9-8.7,19.8-19.6,19.8c0,0-0.1,0-0.2,0H300V155c0-2.8-1.1-5.4-3.1-7.3
			l-84.4-79.1c-1.9-1.7-4.3-2.7-6.8-2.6H136V40.5c0-11,8.9-20.5,19.9-20.5H287v49.7c0,16.5,13.2,30.3,29.8,30.3H371V310.2z"/>
	</g>
</g>
<g>
	<g>
		<path d="M242.1,307H233V183.7c0-5.5-4.5-10-10-10c-2.9,0-5.7,1.3-7.6,3.5l-13.7,16.1l-6.2-3.4c-4.5-2.5-10.2-1.1-13.1,3.1
			l-10,14.5l-9.8-2.4c-3.7-0.9-7.6,0.4-10,3.3l-8,9.6l-9.6-9c-3.1-2.9-7.6-3.5-11.3-1.6l-7.3,3.7l-12.6-11c-2-1.8-4.7-2.6-7.3-2.4
			c-1.6,0.1-3.2,0.6-4.5,1.5v-20.7c0-5.5-4.5-10-10-10s-10,4.5-10,10v138.9c0,5.3,4.2,9.5,9.5,9.6c0.1,0,0.3,0,0.4,0h160.2
			c5.5,0,10-4.5,10-10S247.6,307,242.1,307z M185,224.6l8.8-12.8l5.4,3c4.2,2.3,9.4,1.3,12.4-2.3l1.3-1.6v6.8l-8.9,1.2
			c-2.5,0.3-4.7,1.6-6.3,3.5l-9.3,11.1l-8.4-5.1C182.1,227.7,183.8,226.4,185,224.6z M209.6,249.7c-3.6-1.3-7.7-0.4-10.4,2.2
			l11.4-13.6l2.3-0.3v12.865L209.6,249.7z M153.2,239l10.8-12.9l5.2,1.3c-1.2,0.6-2.2,1.4-3,2.4l-11.4,13.5l-4.6-1.9
			C151.3,240.8,152.3,240,153.2,239z M153.9,264.6c4,1.7,8.7,0.5,11.5-2.8l10.6-12.5l9.5,5.8c4.1,2.5,9.4,1.7,12.6-1.8
			c-0.1,0.2-0.3,0.4-0.4,0.6l-9.4,15.4l-7.4-4.9c-4.3-2.9-10.1-2-13.3,2.1l-9.4,11.7l-8.1-6.6c-3.5-2.8-8.4-3-12.1-0.4l-9.6,6.8
			l-7-4.5c2.4-0.1,4.6-1.1,6.4-2.7l12.5-11.8L153.9,264.6z M91.9,229.9l6.5-7.9l9.9,8.7c3.1,2.7,7.4,3.2,11,1.4l7.1-3.5l9.7,9
			c-1.8,0.4-3.4,1.2-4.8,2.5l-8.1,7.6l-4.4-7.5c-2.8-4.8-8.9-6.4-13.7-3.6c-0.4,0.2-0.7,0.4-1,0.7l-8.1,6.2l-4.1-2.5V229.9z
			 M112.2,268.4c-3.2-0.6-6.5,0.3-8.9,2.6l-10.4,10l-0.9-0.3v-16.6c3,1.9,7.6,1.6,10.8-0.8l4.5-3.4L112.2,268.4z M213,307H92v-5.5
			l0.8,0.2c0.9,0.3,1.9,0.4,2.8,0.4c2.6,0,5-1,6.9-2.8l8.9-8.5l11.8,7.5c3.4,2.2,7.8,2.1,11.2-0.3l8.9-6.3l10,8.1
			c4.3,3.5,10.6,2.8,14.1-1.5l10-12.4l8.5,5.6c4.6,3.1,10.8,1.8,13.9-2.8c0.1-0.1,0.1-0.2,0.2-0.3l10.5-17.3l2.5,0.9V307z"/>
	</g>
</g>
<g>
</g>
<g>
</g>
<g>
</g>
<g>
</g>
<g>
</g>
<g>
</g>
<g>
</g>
<g>
</g>
<g>
</g>
<g>
</g>
<g>
</g>
<g>
</g>
<g>
</g>
<g>
</g>
<g>
</g>
</svg>
