<?xml version="1.0" encoding="iso-8859-1"?>
<!-- Generator: Adobe Illustrator 19.0.0, SVG Export Plug-In . SVG Version: 6.00 Build 0)  -->
<svg version="1.1" id="Capa_1" xmlns="http://www.w3.org/2000/svg" xmlns:xlink="http://www.w3.org/1999/xlink" x="0px" y="0px"
	 viewBox="0 0 416 416" style="enable-background:new 0 0 416 416;" xml:space="preserve">
<g>
	<g>
		<path d="M230.4,348h-136c-5.5,0-10,4.5-10,10s4.5,10,10,10h136c5.5,0,10-4.5,10-10S235.9,348,230.4,348z"/>
	</g>
</g>
<g>
	<g>
		<path d="M387.9,82.3L303.6,2.9c-1.8-1.8-4.3-2.8-6.8-2.9H155.9c-22,0-39.9,18.4-39.9,40.5V66H64.8C42.9,66,25,83.7,25,105.6
			c0,0.1,0,0.1,0,0.2v269.7c0,22.1,17.7,40.5,39.8,40.5h195.3c22.1,0,39.9-18.4,39.9-40.5V350h51.2c21.9,0,39.7-17.7,39.8-39.6
			c0-0.1,0-0.1,0-0.2V89.7C391,86.9,389.9,84.2,387.9,82.3z M306.9,33.5h0.1L355.9,80h-39.2c-5.5,0-9.8-4.8-9.8-10.3V33.5z
			 M280,375.5c0,11.1-8.9,20.5-19.9,20.5H64.8c-11,0-19.8-9.4-19.8-20.5V105.8C44.9,94.9,53.7,86,64.6,86c0.1,0,0.2,0,0.2,0H196v49
			c-0.2,16.4,13,29.8,29.4,30c0.1,0,0.2,0,0.2,0H280V375.5z M216,135.3c0-0.1,0-0.2,0-0.3V98.9l48.8,46.1h-39.2
			C220.3,145,216,140.6,216,135.3z M371,310.2c0.1,10.9-8.7,19.8-19.6,19.8c0,0-0.1,0-0.2,0H300V155c0-2.8-1.1-5.4-3.1-7.3
			l-84.4-79.1c-1.9-1.7-4.3-2.7-6.8-2.6H136V40.5c0-11,8.9-20.5,19.9-20.5H287v49.7c0,16.5,13.2,30.3,29.8,30.3H371V310.2z"/>
	</g>
</g>
<g>
	<g>
		<polygon points="254.2,239.5 254.2,239.5 254.2,239.5 		"/>
	</g>
</g>
<g>
	<g>
		<path d="M254.2,238.7L254.2,238.7C254.2,238.8,254.2,238.8,254.2,238.7C254.2,238.8,254.2,238.8,254.2,238.7z"/>
	</g>
</g>
<g>
	<g>
		<path d="M254.2,239.5c0-0.2,0-0.5-0.1-0.7c-0.01-0.119-0.027-0.236-0.038-0.355c0.009,0.053,0.03,0.101,0.038,0.155
			c-0.011-0.067-0.03-0.132-0.043-0.199c-1.768-19.053-9.242-37.104-21.457-51.801c-1.4-1.8-3.5-2.9-5.8-3c-2.3-0.1-4.5,0.7-6,2.4
			l-33.1,33.3c-2.7,2.7-3.1,6.9-1,10c2.4,3.8,4,8.1,5,12.5c0.8,3.7,4.1,6.3,7.8,6.3h46.8c4.4,0,8-3.5,8-7.9c0-0.2,0-0.3,0-0.4
			C254.2,239.6,254.2,239.5,254.2,239.5z M205.5,232c-0.7-2-1.4-3.9-2.3-5.8l22.3-22.4c5.5,8.6,9.4,18.2,11.5,28.2H205.5z
			 M253.861,237.631c-0.364-1.169-1.012-2.26-1.863-3.156C252.891,235.363,253.515,236.422,253.861,237.631z"/>
	</g>
</g>
<g>
	<g>
		<path d="M254.2,238.8c0,0.1,0,0.1,0,0.2c0,0.1,0,0.3,0.1,0.4C254.2,239.2,254.2,239,254.2,238.8z"/>
	</g>
</g>
<g>
	<g>
		<path d="M219.2,172.9c-14.9-12.1-33-19.6-52.2-21.5c-1,0-0.8,0-1.3,0h-0.4c-0.1,0-0.2,0-0.4,0c-4.4,0-8,3.6-8,8v46.8
			c0.1,4.3,3.6,7.8,7.9,7.9c4.2,0.9,8.2,2.5,11.9,4.8c3.2,2.1,7.4,1.7,10.1-1.1l32.8-33.1c1.6-1.6,2.4-3.8,2.4-6
			C221.9,176.5,220.9,174.4,219.2,172.9z M179.7,202.3c-2.2-1-4.4-1.9-6.7-2.6v-31.2c10.2,2,19.9,6,28.7,11.6L179.7,202.3z"/>
	</g>
</g>
<g>
	<g>
		<path d="M150.8,281.4c-0.1,0-0.1-0.1-0.2-0.1c-13.4-2.9-23.8-13.3-26.6-26.7c-0.8-3.7-4-6.5-7.8-6.5h0.1c3.8,0,7-2.6,7.8-6.3
			c2.8-13.1,13-24.9,23.8-27.6c3.6-0.9,6.1-4.1,6.1-7.8v-46.8c0-4.4-3.6-8-8-8c-0.3,0-0.5,0-0.8,0c-44,4.5-79.1,41.3-83.6,87.7
			c-0.4,4.4,2.8,8.3,7.2,8.7c0.3,0,0.5,0,0.8,0h46.7l-46.9,0.3c-2.3,0.1-4.4,1.1-5.9,2.8s-2.2,3.9-2,6.1
			c4.4,45.8,40.6,82.1,86.4,86.8c0.3,0,0.5,0,0.8,0c4.4,0,8-3.5,8-7.9c0,0,0.1-11.7,0.2-23.4c0-5.9,0.1-11.7,0.1-16.1
			c0-2.2,0-4.1,0-5.3C157,288.8,157,282.9,150.8,281.4z M110.3,232H78.8c6.3-31.5,29.7-56.3,59.2-63.1v31.7
			C125.6,206,115.1,217.8,110.3,232z M140.8,326.7c-31.2-6.7-55.5-31.1-62.1-62.3h31.5c5.1,14.4,16.4,25.8,30.8,30.8
			C141,302.4,140.9,315.2,140.8,326.7z"/>
	</g>
</g>
<g>
	<g>
		<path d="M246.9,250.1c-0.2-0.1-0.4-0.1-0.7-0.1h-46.8c-3.8,0-7,2.6-7.8,6.3c-3,13.1-13.5,23.2-26.7,25.8c-3.7,0.8-6.4,4-6.4,7.8
			l-0.2,46.8c0,4.4,3.5,8,8,8c0.3,0,0.6,0,0.8,0h0.1c22.2-2.1,43-11.8,58.9-27.4c15.9-15.6,25.8-36.3,28-58.5
			C254.5,254.4,251.3,250.5,246.9,250.1z M188.3,323.3l-13.8-13.8l0.1-13.5c2.1-0.7,4.2-1.6,6.3-2.7l22.2,22.2
			C198.4,318.6,193.5,321.2,188.3,323.3z M215.4,305.3L194,283.8c3.8-3.9,7-8.3,9.4-13.2l22.2,22.2
			C222.6,297.3,219.2,301.5,215.4,305.3z M233.3,277.8L221.5,266h15.4C236,270,234.8,274,233.3,277.8z"/>
	</g>
</g>
<g>
</g>
<g>
</g>
<g>
</g>
<g>
</g>
<g>
</g>
<g>
</g>
<g>
</g>
<g>
</g>
<g>
</g>
<g>
</g>
<g>
</g>
<g>
</g>
<g>
</g>
<g>
</g>
<g>
</g>
</svg>
