<?xml version="1.0" encoding="iso-8859-1"?>
<!-- Generator: Adobe Illustrator 19.0.0, SVG Export Plug-In . SVG Version: 6.00 Build 0)  -->
<svg version="1.1" id="Capa_1" xmlns="http://www.w3.org/2000/svg" xmlns:xlink="http://www.w3.org/1999/xlink" x="0px" y="0px"
	 viewBox="0 0 416 416" style="enable-background:new 0 0 416 416;" xml:space="preserve">
<g>
	<g>
		<path d="M230.4,348h-136c-5.5,0-10,4.5-10,10s4.5,10,10,10h136c5.5,0,10-4.5,10-10S235.9,348,230.4,348z"/>
	</g>
</g>
<g>
	<g>
		<path d="M387.9,82.3L303.6,2.9c-1.8-1.8-4.3-2.8-6.8-2.9H155.9c-22,0-39.9,18.4-39.9,40.5V66H64.8C42.9,66,25,83.7,25,105.6
			c0,0.1,0,0.1,0,0.2v269.7c0,22.1,17.7,40.5,39.8,40.5h195.3c22.1,0,39.9-18.4,39.9-40.5V350h51.2c21.9,0,39.7-17.7,39.8-39.6
			c0-0.1,0-0.1,0-0.2V89.7C391,86.9,389.9,84.2,387.9,82.3z M306.9,33.5h0.1L355.9,80h-39.2c-5.5,0-9.8-4.8-9.8-10.3V33.5z
			 M280,375.5c0,11.1-8.9,20.5-19.9,20.5H64.8c-11,0-19.8-9.4-19.8-20.5V105.8C44.9,94.9,53.7,86,64.6,86c0.1,0,0.2,0,0.2,0H196v49
			c-0.2,16.4,13,29.8,29.4,30c0.1,0,0.2,0,0.2,0H280V375.5z M216,135.3c0-0.1,0-0.2,0-0.3V98.9l48.8,46.1h-39.2
			C220.3,145,216,140.6,216,135.3z M371,310.2c0.1,10.9-8.7,19.8-19.6,19.8c0,0-0.1,0-0.2,0H300V155c0-2.8-1.1-5.4-3.1-7.3
			l-84.4-79.1c-1.9-1.7-4.3-2.7-6.8-2.6H136V40.5c0-11,8.9-20.5,19.9-20.5H287v49.7c0,16.5,13.2,30.3,29.8,30.3H371V310.2z"/>
	</g>
</g>
<g>
	<g>
		<path d="M235.3,173.8l-40.4-2.9c-5.5-0.4-10.3,3.7-10.7,9.2c-0.4,5.5,3.7,10.3,9.2,10.7h0.1l14.4,1l-38.2,29.7l-36.9-29.1
			c-3.9-3.1-9.5-2.8-13.1,0.6l-41.3,39.7c-4,3.8-4.2,10.1-0.3,14.1c3.9,4,10.1,4.2,14.1,0.3c0,0,0,0,0.1-0.1l35.1-33.6l36.2,28.5
			c3.6,2.8,8.7,2.9,12.3,0l47.1-36.6l-1.1,14.9c-0.4,5.5,3.7,10.3,9.2,10.7c0.3,0,0.5,0,0.8,0c5.2,0,9.6-4,10-9.2l2.9-37.5
			C245,179,240.9,174.2,235.3,173.8z"/>
	</g>
</g>
<g>
	<g>
		<path d="M172,257h-25c-5.5,0-10,4.5-10,10v60c0,5.5,4.5,10,10,10h25c5.5,0,10-4.5,10-10v-60C182,261.5,177.5,257,172,257z
			 M163,317h-6v-40h6V317z"/>
	</g>
</g>
<g>
	<g>
		<path d="M121,274H96c-5.5,0-10,4.5-10,10v43c0,5.5,4.5,10,10,10h25c5.5,0,10-4.5,10-10v-43C131,278.5,126.5,274,121,274z M111,317
			h-5v-23h5V317z"/>
	</g>
</g>
<g>
	<g>
		<path d="M224,244h-25c-5.5,0-10,4.5-10,10v73c0,5.5,4.5,10,10,10h25c5.5,0,10-4.5,10-10v-73C234,248.5,229.5,244,224,244z
			 M214,317h-5v-53h5V317z"/>
	</g>
</g>
<g>
</g>
<g>
</g>
<g>
</g>
<g>
</g>
<g>
</g>
<g>
</g>
<g>
</g>
<g>
</g>
<g>
</g>
<g>
</g>
<g>
</g>
<g>
</g>
<g>
</g>
<g>
</g>
<g>
</g>
</svg>
