<?xml version="1.0" encoding="iso-8859-1"?>
<!-- Generator: Adobe Illustrator 19.0.0, SVG Export Plug-In . SVG Version: 6.00 Build 0)  -->
<svg version="1.1" id="Capa_1" xmlns="http://www.w3.org/2000/svg" xmlns:xlink="http://www.w3.org/1999/xlink" x="0px" y="0px"
	 viewBox="0 0 416 416" style="enable-background:new 0 0 416 416;" xml:space="preserve">
<g>
	<g>
		<path d="M230.4,348h-136c-5.5,0-10,4.5-10,10s4.5,10,10,10h136c5.5,0,10-4.5,10-10S235.9,348,230.4,348z"/>
	</g>
</g>
<g>
	<g>
		<path d="M387.9,82.3L303.6,2.9c-1.8-1.8-4.3-2.8-6.8-2.9H155.9c-22,0-39.9,18.4-39.9,40.5V66H64.8C42.9,66,25,83.7,25,105.6
			c0,0.1,0,0.1,0,0.2v269.7c0,22.1,17.7,40.5,39.8,40.5h195.3c22.1,0,39.9-18.4,39.9-40.5V350h51.2c21.9,0,39.7-17.7,39.8-39.6
			c0-0.1,0-0.1,0-0.2V89.7C391,86.9,389.9,84.2,387.9,82.3z M306.9,33.5h0.1L355.9,80h-39.2c-5.5,0-9.8-4.8-9.8-10.3V33.5z
			 M280,375.5c0,11.1-8.9,20.5-19.9,20.5H64.8c-11,0-19.8-9.4-19.8-20.5V105.8C44.9,94.9,53.7,86,64.6,86c0.1,0,0.2,0,0.2,0H196v49
			c-0.2,16.4,13,29.8,29.4,30c0.1,0,0.2,0,0.2,0H280V375.5z M216,135.3c0-0.1,0-0.2,0-0.3V98.9l48.8,46.1h-39.2
			C220.3,145,216,140.6,216,135.3z M371,310.2c0.1,10.9-8.7,19.8-19.6,19.8c0,0-0.1,0-0.2,0H300V155c0-2.8-1.1-5.4-3.1-7.3
			l-84.4-79.1c-1.9-1.7-4.3-2.7-6.8-2.6H136V40.5c0-11,8.9-20.5,19.9-20.5H287v49.7c0,16.5,13.2,30.3,29.8,30.3H371V310.2z"/>
	</g>
</g>
<g>
	<g>
		<path d="M244.5,178.8c-3.6-2.5-8-3.8-12.4-3.8c-12.5,0-22.7,10.2-22.7,22.7c0,0.6,0,1.1,0.1,1.7l-11.4,8.1
			c-10.6-6.7-24.6-3.4-31.3,7.2c-2.9,4.6-4,10.1-3.2,15.5l-9.5,8c-9.8-7.8-24-6.2-31.8,3.6c-0.3,0.3-0.5,0.7-0.8,1l-6-2.5
			c-4-11.9-16.8-18.3-28.7-14.3c-11.9,4-18.3,16.8-14.3,28.7S89.3,273,101.2,269c4.6-1.5,8.5-4.5,11.3-8.4l6,2.5
			c4,11.9,16.9,18.3,28.7,14.3c8.8-3,15-11,15.4-20.3l12.5-10.5c11,6,24.8,2,30.8-9c1.8-3.3,2.8-7.1,2.8-10.9c0-0.7,0-1.5-0.1-2.2
			l11-7.8c10.5,6.9,24.5,4,31.4-6.5C257.9,199.7,255,185.7,244.5,178.8z M93.9,250.3c-1.5,0-2.7-1.2-2.7-2.7s1.2-2.7,2.7-2.7
			s2.7,1.2,2.7,2.7S95.4,250.3,93.9,250.3z M140,258.6c-1.5,0-2.7-1.2-2.7-2.7s1.2-2.7,2.7-2.7s2.7,1.2,2.7,2.7
			S141.5,258.6,140,258.6z M186,229.3c-1.5,0-2.7-1.2-2.7-2.7s1.2-2.7,2.7-2.7s2.7,1.2,2.7,2.7S187.5,229.3,186,229.3z M232.1,200.4
			c-1.5,0-2.7-1.2-2.7-2.7s1.2-2.7,2.7-2.7s2.7,1.2,2.7,2.7S233.6,200.4,232.1,200.4z"/>
	</g>
</g>
<g>
	<g>
		<path d="M243,222h-22c-5.5,0-10,4.5-10,10v95c0,5.5,4.5,10,10,10h22c5.5,0,10-4.5,10-10v-95C253,226.5,248.5,222,243,222z
			 M233,317h-2v-75h2V317z"/>
	</g>
</g>
<g>
	<g>
		<path d="M197,251h-22c-5.5,0-10,4.5-10,10v66c0,5.5,4.5,10,10,10h22c5.5,0,10-4.5,10-10v-66C207,255.5,202.5,251,197,251z
			 M187,317h-2v-46h2V317z"/>
	</g>
</g>
<g>
	<g>
		<path d="M151,280h-22c-5.5,0-10,4.5-10,10v37c0,5.5,4.5,10,10,10h22c5.5,0,10-4.5,10-10v-37C161,284.5,156.5,280,151,280z
			 M141,317h-2v-17h2V317z"/>
	</g>
</g>
<g>
	<g>
		<path d="M105,272H83c-5.5,0-10,4.5-10,10v45c0,5.5,4.5,10,10,10h22c5.5,0,10-4.5,10-10v-45C115,276.5,110.5,272,105,272z M95,317
			h-2v-25h2V317z"/>
	</g>
</g>
<g>
</g>
<g>
</g>
<g>
</g>
<g>
</g>
<g>
</g>
<g>
</g>
<g>
</g>
<g>
</g>
<g>
</g>
<g>
</g>
<g>
</g>
<g>
</g>
<g>
</g>
<g>
</g>
<g>
</g>
</svg>
