<?xml version="1.0" encoding="iso-8859-1"?>
<!-- Generator: Adobe Illustrator 19.0.0, SVG Export Plug-In . SVG Version: 6.00 Build 0)  -->
<svg version="1.1" id="Capa_1" xmlns="http://www.w3.org/2000/svg" xmlns:xlink="http://www.w3.org/1999/xlink" x="0px" y="0px"
	 viewBox="0 0 470 470" style="enable-background:new 0 0 470 470;" xml:space="preserve">
<g>
	<g>
		<path d="M309.5,143h-47.1c-5.5,0-10,4.5-10,10s4.4,10,10,10h47.1c5.5,0,10-4.5,10-10S315,143,309.5,143z"/>
	</g>
</g>
<g>
	<g>
		<path d="M360.5,201h-98.1c-5.5,0-10,4.5-10,10s4.4,10,10,10h98.1c5.5,0,10-4.5,10-10S366,201,360.5,201z"/>
	</g>
</g>
<g>
	<g>
		<path d="M360.5,260h-98.1c-5.5,0-10,4.5-10,10s4.5,10,10,10h98.1c5.5,0,10-4.5,10-10S366,260,360.5,260z"/>
	</g>
</g>
<g>
	<g>
		<path d="M419.7,109H416v-3.3c0-27.6-22.6-49.7-50.2-49.7H50.3C22.7,56,0,78.1,0,105.7v204.7C0,338,22.7,360,50.3,360H54v4.3
			c-0.1,27.3,22,49.6,49.3,49.7c0.1,0,0.2,0,0.4,0h316c27.6,0,50.3-22.1,50.3-49.7V159.1C469.9,131.4,447.4,109.1,419.7,109z
			 M50,341c-16.6,0-30-13.4-30-30V106c0-16.6,13.4-30,30-30h316c16.6,0,30,13.4,30,30v205c0,16.6-13.4,30-30,30H50z M450,364.3
			c0,16.5-13.7,29.7-30.3,29.7h-316c-16.3,0.1-29.6-13-29.7-29.3c0-0.1,0-0.3,0-0.4V360h291.8c27.6,0,50.2-22,50.2-49.6V129h3.7
			c16.6,0,30.1,13.5,30.3,30.1V364.3z"/>
	</g>
</g>
<g>
	<g>
		<path d="M213.9,261H58V140.9c0-5.5-4.5-10-10-10s-10,4.5-10,10v121.9c-0.2,9.9,7.7,18,17.5,18.2c0.1,0,0.2,0,0.3,0h158.1
			c5.5,0,10-4.5,10-10S219.5,261,213.9,261z"/>
	</g>
</g>
<g>
	<g>
		<path d="M222.8,150.8c-2-0.8-4.1-1.1-6.2-1.1c-13.1,0-23.8,10.6-23.8,23.8c0,3.5,0.8,7,2.3,10.2l-10.8,11.8
			c-7.9-5.4-18.2-5.5-26.2-0.4l-9.3-7.6c-1.5-13.1-13.2-22.5-26.3-21c-13.1,1.5-22.5,13.2-21,26.3c0,0.3,0.1,0.5,0.1,0.8l-12.1,15.2
			c-12.7-3.3-25.7,4.4-29,17.2c-3.3,12.7,4.4,25.7,17.2,29s25.7-4.4,29-17.2c1.4-5.5,0.8-11.3-1.7-16.3l8.4-10.5
			c9.1,5.2,20.6,3.8,28.2-3.4l5.7,4.7c-1.7,13,7.5,25,20.6,26.6c13,1.7,25-7.5,26.6-20.6c0.1-1,0.2-2,0.2-3c0-0.5,0-0.9,0-1.4
			l15.8-17.2c12.7,3.4,25.7-4.1,29.1-16.8C243,167.2,235.5,154.2,222.8,150.8z M83.7,235.5c-2.1,0-3.8-1.7-3.8-3.8
			c0-2.1,1.7-3.8,3.8-3.8c2.1,0,3.8,1.7,3.8,3.8C87.5,233.8,85.8,235.5,83.7,235.5z M125.2,193.9c-2.1,0-3.8-1.7-3.8-3.8
			c0-2.1,1.7-3.8,3.8-3.8c2.1,0,3.8,1.7,3.8,3.8C129,192.2,127.3,193.9,125.2,193.9z M170.9,218.9c-2.1,0-3.8-1.7-3.8-3.8
			c0-2.1,1.7-3.8,3.8-3.8c2.1,0,3.8,1.7,3.8,3.8C174.7,217.2,173,218.9,170.9,218.9z M216.6,177.3c-2.1,0-3.8-1.7-3.8-3.8
			c0-2.1,1.7-3.8,3.8-3.8c2.1,0,3.8,1.7,3.8,3.8C220.4,175.6,218.7,177.3,216.6,177.3z"/>
	</g>
</g>
<g>
</g>
<g>
</g>
<g>
</g>
<g>
</g>
<g>
</g>
<g>
</g>
<g>
</g>
<g>
</g>
<g>
</g>
<g>
</g>
<g>
</g>
<g>
</g>
<g>
</g>
<g>
</g>
<g>
</g>
</svg>
