<?xml version="1.0" encoding="iso-8859-1"?>
<!-- Generator: Adobe Illustrator 19.0.0, SVG Export Plug-In . SVG Version: 6.00 Build 0)  -->
<svg version="1.1" id="Capa_1" xmlns="http://www.w3.org/2000/svg" xmlns:xlink="http://www.w3.org/1999/xlink" x="0px" y="0px"
	 viewBox="0 0 470 470" style="enable-background:new 0 0 470 470;" xml:space="preserve">
<g>
	<g>
		<path d="M309.5,143h-47.1c-5.5,0-10,4.5-10,10s4.4,10,10,10h47.1c5.5,0,10-4.5,10-10S315,143,309.5,143z"/>
	</g>
</g>
<g>
	<g>
		<path d="M360.5,201h-98.1c-5.5,0-10,4.5-10,10s4.4,10,10,10h98.1c5.5,0,10-4.5,10-10S366,201,360.5,201z"/>
	</g>
</g>
<g>
	<g>
		<path d="M360.5,260h-98.1c-5.5,0-10,4.5-10,10s4.5,10,10,10h98.1c5.5,0,10-4.5,10-10S366,260,360.5,260z"/>
	</g>
</g>
<g>
	<g>
		<path d="M419.7,109H416v-3.3c0-27.6-22.6-49.7-50.2-49.7H50.3C22.7,56,0,78.1,0,105.7v204.7C0,338,22.7,360,50.3,360H54v4.3
			c-0.1,27.3,22,49.6,49.3,49.7c0.1,0,0.2,0,0.4,0h316c27.6,0,50.3-22.1,50.3-49.7V159.1C469.9,131.4,447.4,109.1,419.7,109z
			 M50,341c-16.6,0-30-13.4-30-30V106c0-16.6,13.4-30,30-30h316c16.6,0,30,13.4,30,30v205c0,16.6-13.4,30-30,30H50z M450,364.3
			c0,16.5-13.7,29.7-30.3,29.7h-316c-16.3,0.1-29.6-13-29.7-29.3c0-0.1,0-0.3,0-0.4V360h291.8c27.6,0,50.2-22,50.2-49.6V129h3.7
			c16.6,0,30.1,13.5,30.3,30.1V364.3z"/>
	</g>
</g>
<g>
	<g>
		<path d="M201.8,212H131v-71.1c0-5.5-4.5-10-10-10c-50.2,0-90.9,40.6-90.9,90.8c0,50.2,40.6,90.9,90.8,90.9
			c50.2,0,90.8-40.6,90.9-90.8C211.8,216.4,207.3,212,201.8,212z M171.1,272c-27.8,27.6-72.6,27.5-100.2-0.3
			c-13.2-13.3-20.6-31.2-20.6-49.9c-0.1-35.3,25.9-65.2,60.8-70.1v70.1c0,5.6,4.4,10.1,10,10.3h70.1
			C188.9,247.1,181.9,261.1,171.1,272z"/>
	</g>
</g>
<g>
	<g>
		<path d="M215.3,128c-0.1,0-0.1,0-0.1,0c-17.1-17-40.2-26.5-64.2-26.5c-5.5,0-10,4.5-10,10v80.8c0,5.4,4.4,9.8,9.8,9.7
			c0.1,0,0.1,0,0.2,0h80.8c5.5,0.1,9.9-4.3,10-9.8v-0.1C241.8,168.1,232.3,145,215.3,128z M161,122.2c2.8,0.4,5.6,0.9,8.3,1.7
			l-8.3,8.3V122.2z M161,160.5l27.9-27.9c1.5,0.9,2.9,1.9,4.4,3L161,167.9V160.5z M174.9,182l32.6-32.5c1.1,1.4,2.1,2.8,3,4.3
			L182.3,182H174.9z M210.5,182l8.7-8.7c0.8,2.9,1.4,5.8,1.8,8.7H210.5z"/>
	</g>
</g>
<g>
</g>
<g>
</g>
<g>
</g>
<g>
</g>
<g>
</g>
<g>
</g>
<g>
</g>
<g>
</g>
<g>
</g>
<g>
</g>
<g>
</g>
<g>
</g>
<g>
</g>
<g>
</g>
<g>
</g>
</svg>
