<?xml version="1.0" encoding="iso-8859-1"?>
<!-- Generator: Adobe Illustrator 19.0.0, SVG Export Plug-In . SVG Version: 6.00 Build 0)  -->
<svg version="1.1" id="Capa_1" xmlns="http://www.w3.org/2000/svg" xmlns:xlink="http://www.w3.org/1999/xlink" x="0px" y="0px"
	 viewBox="0 0 470 470" style="enable-background:new 0 0 470 470;" xml:space="preserve">
<g>
	<g>
		<path d="M309.5,143h-47.1c-5.5,0-10,4.5-10,10s4.4,10,10,10h47.1c5.5,0,10-4.5,10-10S315,143,309.5,143z"/>
	</g>
</g>
<g>
	<g>
		<path d="M360.5,201h-98.1c-5.5,0-10,4.5-10,10s4.4,10,10,10h98.1c5.5,0,10-4.5,10-10S366,201,360.5,201z"/>
	</g>
</g>
<g>
	<g>
		<path d="M360.5,260h-98.1c-5.5,0-10,4.5-10,10s4.5,10,10,10h98.1c5.5,0,10-4.5,10-10S366,260,360.5,260z"/>
	</g>
</g>
<g>
	<g>
		<path d="M419.7,109H416v-3.3c0-27.6-22.6-49.7-50.2-49.7H50.3C22.7,56,0,78.1,0,105.7v204.7C0,338,22.7,360,50.3,360H54v4.3
			c-0.1,27.3,22,49.6,49.3,49.7c0.1,0,0.2,0,0.3,0h316.1c27.6,0,50.3-22.1,50.3-49.7V159.1C469.9,131.4,447.4,109.1,419.7,109z
			 M50,341c-16.6,0-30-13.4-30-30V106c0-16.6,13.4-30,30-30h316c16.6,0,30,13.4,30,30v205c0,16.6-13.4,30-30,30H50z M450,364.3
			c0,16.5-13.7,29.7-30.3,29.7h-316c-16.3,0.1-29.6-13-29.7-29.3c0-0.1,0-0.3,0-0.4V360h291.8c27.6,0,50.2-22,50.2-49.6V129h3.7
			c16.6,0,30.1,13.5,30.3,30.1V364.3z"/>
	</g>
</g>
<g>
	<g>
		<path d="M175.1,138H175h-27.5c-5.5,0-10.5,4.2-10.5,9.7v135.4c0,5.5,5,9.9,10.5,9.9H175c5.5,0.1,10-4.4,10-9.8V147.7
			C185,142.3,180.5,137.9,175.1,138z M165,273h-8v-27h8V273z M165,226h-8v-68h8V226z"/>
	</g>
</g>
<g>
	<g>
		<path d="M224.8,117c-0.1,0-0.3,0-0.4,0h-28c-5.5,0-10.4,4.4-10.4,9.9v156.2c0,5.5,4.9,9.9,10.4,9.9h28c5.3,0,9.6-4.2,9.6-9.5
			c0-0.1,0-0.2,0-0.4V126.9C234.2,121.6,230.1,117.2,224.8,117z M214,273h-8v-27h8V273z M214,226h-8v-89h8V226z"/>
	</g>
</g>
<g>
	<g>
		<path d="M126,159H98.5c-5.1-0.2-9.4,3.8-9.5,8.9c0,0.2,0,0.4,0,0.6v114.6c0,5.5,4,9.9,9.5,9.9H126c5.5,0.1,9.9-4.3,10-9.8v-0.1
			V168.5C136,163,131.5,159,126,159z M116,273h-7v-27h7V273z M116,226h-7v-47h7V226z"/>
	</g>
</g>
<g>
	<g>
		<path d="M77.1,195H49.6c-5.5,0-9.6,4.5-9.6,10v78.1c-0.2,5.3,3.9,9.7,9.2,9.9c0.1,0,0.2,0,0.4,0h27.5c5.4,0,9.9-4.3,9.9-9.8v-0.1
			V205C87,199.5,82.6,195,77.1,195z M67,273h-7v-27h7V273z M67,226h-7v-11h7V226z"/>
	</g>
</g>
<g>
</g>
<g>
</g>
<g>
</g>
<g>
</g>
<g>
</g>
<g>
</g>
<g>
</g>
<g>
</g>
<g>
</g>
<g>
</g>
<g>
</g>
<g>
</g>
<g>
</g>
<g>
</g>
<g>
</g>
</svg>
