<?xml version="1.0" encoding="iso-8859-1"?>
<!-- Generator: Adobe Illustrator 19.0.0, SVG Export Plug-In . SVG Version: 6.00 Build 0)  -->
<svg version="1.1" id="Capa_1" xmlns="http://www.w3.org/2000/svg" xmlns:xlink="http://www.w3.org/1999/xlink" x="0px" y="0px"
	 viewBox="0 0 470 470" style="enable-background:new 0 0 470 470;" xml:space="preserve">
<g>
	<g>
		<path d="M309.5,143h-47.1c-5.5,0-10,4.5-10,10s4.4,10,10,10h47.1c5.5,0,10-4.5,10-10S315,143,309.5,143z"/>
	</g>
</g>
<g>
	<g>
		<path d="M360.5,201h-98.1c-5.5,0-10,4.5-10,10s4.4,10,10,10h98.1c5.5,0,10-4.5,10-10S366,201,360.5,201z"/>
	</g>
</g>
<g>
	<g>
		<path d="M360.5,260h-98.1c-5.5,0-10,4.5-10,10s4.5,10,10,10h98.1c5.5,0,10-4.5,10-10S366,260,360.5,260z"/>
	</g>
</g>
<g>
	<g>
		<path d="M419.7,109H416v-3.3c0-27.6-22.6-49.7-50.2-49.7H50.3C22.7,56,0,78.1,0,105.7v204.7C0,338,22.7,360,50.3,360H54v4.3
			c-0.1,27.3,22,49.6,49.3,49.7c0.1,0,0.2,0,0.4,0h316c27.6,0,50.3-22.1,50.3-49.7V159.1C469.9,131.4,447.4,109.1,419.7,109z
			 M50,341c-16.6,0-30-13.4-30-30V106c0-16.6,13.4-30,30-30h316c16.6,0,30,13.4,30,30v205c0,16.6-13.4,30-30,30H50z M450,364.3
			c0,16.5-13.7,29.7-30.3,29.7h-316c-16.3,0.1-29.6-13-29.7-29.3c0-0.1,0-0.3,0-0.4V360h291.8c27.6,0,50.2-22,50.2-49.6V129h3.7
			c16.6,0,30.1,13.5,30.3,30.1V364.3z"/>
	</g>
</g>
<g>
	<g>
		<path d="M235.4,275H225V134.5c0-5.5-4.5-10-10-10c-2.9,0-5.6,1.2-7.5,3.4l-16.8,19.2l-8.7-4.6c-4.5-2.4-10.1-1-12.9,3.2
			l-11.7,17.1l-11.9-2.9c-3.7-0.9-7.6,0.4-10.1,3.3l-9.9,11.8l-11.8-11c-3.1-2.9-7.6-3.5-11.3-1.6l-8.9,4.4l-14.7-13
			c-2-1.8-4.6-2.7-7.2-2.5c-2.7,0.2-5.7,1.5-6.7,3.5v-26.2c0-5.5-4.5-10-10-10s-10,4.5-10,10v156.6c-0.1,5.2,4,9.5,9.2,9.7
			c0.2,0,0.3,0,0.5,0h180.7c5.5,0,10-4.5,10-10S240.9,275,235.4,275z M169.9,179.9l10.6-15.5l7.8,4.1c4.1,2.2,9.2,1.2,12.2-2.3
			l4.5-5.1v12.7l-12.3,1.7c-2.5,0.3-4.7,1.6-6.3,3.5l-11.2,13.3l-11.6-7.1c-0.7-0.4-1.4-0.7-2.2-1
			C164.8,184.3,168,182.7,169.9,179.9z M134.1,196l12.7-15.1l11.7,2.9c-3,0-5.8,1.3-7.8,3.6l-13.4,16l-9.3-3.8
			C130.4,199.1,132.5,197.9,134.1,196z M65.1,186.4l8.5-10.7l11.9,10.6c3,2.7,7.4,3.3,11,1.4l8.7-4.3l13.7,12.9
			c-2.8-0.2-5.6,0.7-7.6,2.7l-10.3,9.7l-5.7-9.9c-2.8-4.8-8.9-6.4-13.7-3.6c-0.4,0.2-0.7,0.4-1,0.7l-9.7,7.5l-5.8-3.6V186.4z
			 M65,223l1.4,0.9c3.5,2.1,7.9,1.9,11.1-0.6l6.2-4.7l6.3,10.9c2.8,4.8,8.9,6.4,13.6,3.6c0.7-0.4,1.3-0.8,1.8-1.4l14.8-13.9
			l16.1,6.7c4,1.7,8.7,0.5,11.5-2.8l12.6-15l11.6,7.1c4.2,2.6,9.7,1.7,12.9-2.1l14.2-17l5.8-0.8v18.5l-6.7-2.4
			c-4.5-1.6-9.5,0.1-11.9,4.2L175,232.8l-9.5-6.3c-4.3-2.9-10.1-2-13.3,2.1l-11.4,14.2l-10.2-8.2c-3.5-2.8-8.4-3-12.1-0.4l-11.5,8.1
			l-15.1-9.6c-3.9-2.5-9-2-12.3,1.2l-12.1,11.8l-2.5-0.8V223z M205.2,275H65v-9.4l2.4,0.8c0.9,0.3,1.8,0.4,2.8,0.4
			c2.6,0,5-1,6.9-2.8l10.8-10.3l14.1,9c3.4,2.2,7.8,2.1,11.2-0.3l10.8-7.7l12.1,9.8c4.3,3.5,10.6,2.8,14.1-1.5l12-14.9l10.6,7
			c4.6,3.1,10.8,1.8,13.9-2.8c0.1-0.1,0.1-0.2,0.2-0.3l12.4-20.4l5.9,2.1V275z"/>
	</g>
</g>
<g>
</g>
<g>
</g>
<g>
</g>
<g>
</g>
<g>
</g>
<g>
</g>
<g>
</g>
<g>
</g>
<g>
</g>
<g>
</g>
<g>
</g>
<g>
</g>
<g>
</g>
<g>
</g>
<g>
</g>
</svg>
