<?xml version="1.0" encoding="iso-8859-1"?>
<!-- Generator: Adobe Illustrator 19.0.0, SVG Export Plug-In . SVG Version: 6.00 Build 0)  -->
<svg version="1.1" id="Capa_1" xmlns="http://www.w3.org/2000/svg" xmlns:xlink="http://www.w3.org/1999/xlink" x="0px" y="0px"
	 viewBox="0 0 470 470" style="enable-background:new 0 0 470 470;" xml:space="preserve">
<g>
	<g>
		<path d="M309.5,143h-47.1c-5.5,0-10,4.5-10,10s4.4,10,10,10h47.1c5.5,0,10-4.5,10-10S315,143,309.5,143z"/>
	</g>
</g>
<g>
	<g>
		<path d="M360.5,201h-98.1c-5.5,0-10,4.5-10,10s4.4,10,10,10h98.1c5.5,0,10-4.5,10-10S366,201,360.5,201z"/>
	</g>
</g>
<g>
	<g>
		<path d="M360.5,260h-98.1c-5.5,0-10,4.5-10,10s4.5,10,10,10h98.1c5.5,0,10-4.5,10-10S366,260,360.5,260z"/>
	</g>
</g>
<g>
	<g>
		<path d="M419.7,109H416v-3.3c0-27.6-22.6-49.7-50.2-49.7H50.3C22.7,56,0,78.1,0,105.7v204.7C0,338,22.7,360,50.3,360H54v4.3
			c-0.1,27.3,22,49.6,49.3,49.7c0.1,0,0.2,0,0.4,0h316c27.6,0,50.3-22.1,50.3-49.7V159.1C469.9,131.4,447.4,109.1,419.7,109z
			 M50,341c-16.6,0-30-13.4-30-30V106c0-16.6,13.4-30,30-30h316c16.6,0,30,13.4,30,30v205c0,16.6-13.4,30-30,30H50z M450,364.3
			c0,16.5-13.7,29.7-30.3,29.7h-316c-16.3,0.1-29.6-13-29.7-29.3c0-0.1,0-0.3,0-0.4V360h291.8c27.6,0,50.2-22,50.2-49.6V129h3.7
			c16.6,0,30.1,13.5,30.3,30.1V364.3z"/>
	</g>
</g>
<g>
	<g>
		<path d="M238.5,204.9c-1.9-20.2-9.8-39.3-22.7-55c-2.8-3.4-7.8-3.9-11.3-1.1c-0.2,0.2-0.4,0.3-0.6,0.5l-35.1,35.2
			c-2.7,2.7-3.1,6.9-1,10c1.8,2.7,3.6,7.3,5.5,13.7c1,3.4,4.1,5.8,7.7,5.8h49.6c4.4,0,8-3.6,8-8c0-0.2,0-0.4,0-0.6
			C238.5,205.2,238.5,205,238.5,204.9z M186.8,198c-0.8-2.3-1.6-4.5-2.5-6.4l24.4-24.4c6.2,9.3,10.5,19.8,12.6,30.8H186.8z"/>
	</g>
</g>
<g>
	<g>
		<path d="M147,113.1c0,0.1,0.1,0.1,0.1,0H147z"/>
	</g>
</g>
<g>
	<g>
		<path d="M201.3,135.9c-15.4-12.8-34.3-20.6-54.2-22.6c-0.4,0-0.7-0.1-1.1-0.1c-0.2-0.1-0.3-0.1-0.5-0.1c-0.1,0-0.3,0-0.4,0
			c-4.4,0-8,3.6-8,8v49.6c-0.1,4.1,3.2,7.6,7.4,7.9c4.5,1,8.7,2.7,12.6,5.2c3.2,2.1,7.4,1.7,10-1l34.9-35.1c1.6-1.6,2.4-3.8,2.3-6
			C204.1,139.4,203.1,137.3,201.3,135.9z M160.1,167.1c-2.3-1.1-4.7-2-7.1-2.8v-34.1c11.1,2.1,21.8,6.5,31.2,12.7L160.1,167.1z"/>
	</g>
</g>
<g>
	<g>
		<path d="M125,113.2c-0.3,0-0.5,0-0.8,0c-46.8,4.7-84.2,43.4-88.9,92c-0.4,4.4,2.8,8.3,7.2,8.7c0.2,0.1,0.5,0.1,0.7,0.1h49.6
			c3.7,0,7-2.6,7.8-6.2c3-13.5,14.6-26.3,26.3-29.2c3.6-0.9,6.1-4.1,6.1-7.8v-49.6C133,116.8,129.4,113.2,125,113.2z M117,165
			c-13.3,5.6-24.9,18.3-30.1,33H52.5c6.7-33.8,32.2-60.5,64.5-67.5V165z"/>
	</g>
</g>
<g>
	<g>
		<path d="M135,260.8v-1.6c0-6.6-4.9-8.1-6-8.3c0.037,0,0.1,0,0.1,0c-14.3-3-25.5-14.2-28.5-28.6c-0.8-3.7-4.1-6.3-7.8-6.3H43
			c-4.4-0.1-7.9,3.4-8,7.8c0,0.3,0,0.6,0,0.9c4.8,48.3,42.9,86.6,91.3,91.6c2.2,0.2,4.4-0.5,6.1-2s2.6-3.6,2.6-5.9
			c0,0,0-12.4,0.1-24.8c0.1-6.3,0.1-12.5,0.1-17.1C135.2,264.2,135,262.2,135,260.8z M119.2,299c-33.7-7-60-33.4-66.9-67.1l34.4-0.1
			c5.3,15.4,17.4,27.5,32.8,32.8C119.4,272.4,119.3,286.5,119.2,299z"/>
	</g>
</g>
<g>
	<g>
		<path d="M231.3,218c-0.2,0-0.5,0-0.8,0h-49.6c-3.7,0-7,2.6-7.8,6.2c-3.1,13.4-14.9,24.8-28.7,27.7c-3.7,0.8-6.4,4-6.4,7.8
			l-0.2,49.6c0,4.4,3.5,8,8,8c0.3,0,0.6,0,0.9,0h0.1c48.3-4.7,86.9-42.7,91.7-90.5C238.9,222.4,235.7,218.5,231.3,218z M169,295.6
			l-15-15.1l0.1-14.7c2.5-0.9,5-2,7.3-3.2l24.2,24.2C180.4,290.3,174.9,293.3,169,295.6z M198,276.5L174.5,253
			c4.3-4.3,7.9-9.3,10.6-14.8l24.4,24.4C206.1,267.6,202.3,272.3,198,276.5z M217.1,247.6L203.5,234h17.7
			C220.2,238.6,218.9,243.2,217.1,247.6z"/>
	</g>
</g>
<g>
</g>
<g>
</g>
<g>
</g>
<g>
</g>
<g>
</g>
<g>
</g>
<g>
</g>
<g>
</g>
<g>
</g>
<g>
</g>
<g>
</g>
<g>
</g>
<g>
</g>
<g>
</g>
<g>
</g>
</svg>
