<?xml version="1.0" encoding="iso-8859-1"?>
<!-- Generator: Adobe Illustrator 19.0.0, SVG Export Plug-In . SVG Version: 6.00 Build 0)  -->
<svg version="1.1" id="Capa_1" xmlns="http://www.w3.org/2000/svg" xmlns:xlink="http://www.w3.org/1999/xlink" x="0px" y="0px"
	 viewBox="0 0 470 470" style="enable-background:new 0 0 470 470;" xml:space="preserve">
<g>
	<g>
		<path d="M309.5,143h-47.1c-5.5,0-10,4.5-10,10s4.4,10,10,10h47.1c5.5,0,10-4.5,10-10S315,143,309.5,143z"/>
	</g>
</g>
<g>
	<g>
		<path d="M360.5,201h-98.1c-5.5,0-10,4.5-10,10s4.4,10,10,10h98.1c5.5,0,10-4.5,10-10S366,201,360.5,201z"/>
	</g>
</g>
<g>
	<g>
		<path d="M360.5,260h-98.1c-5.5,0-10,4.5-10,10s4.5,10,10,10h98.1c5.5,0,10-4.5,10-10S366,260,360.5,260z"/>
	</g>
</g>
<g>
	<g>
		<path d="M419.7,109H416v-3.3c0-27.6-22.6-49.7-50.2-49.7H50.3C22.7,56,0,78.1,0,105.7v204.7C0,338,22.7,360,50.3,360H54v4.3
			c-0.1,27.3,22,49.6,49.3,49.7c0.1,0,0.2,0,0.4,0h316c27.6,0,50.3-22.1,50.3-49.7V159.1C469.9,131.4,447.4,109.1,419.7,109z
			 M50,341c-16.6,0-30-13.4-30-30V106c0-16.6,13.4-30,30-30h316c16.6,0,30,13.4,30,30v205c0,16.6-13.4,30-30,30H50z M450,364.3
			c0,16.5-13.7,29.7-30.3,29.7h-316c-16.3,0.1-29.6-13-29.7-29.3c0-0.1,0-0.3,0-0.4V360h291.8c27.6,0,50.2-22,50.2-49.6V129h3.7
			c16.6,0,30.1,13.5,30.3,30.1V364.3z"/>
	</g>
</g>
<g>
	<g>
		<path d="M225.2,111.8l-47.9-3.4c-5.5-0.4-10.3,3.7-10.7,9.2c-0.4,5.5,3.7,10.3,9.2,10.7h0.1l21.9,1.6l-50.2,39l-44.9-35.3
			c-3.9-3.1-9.5-2.8-13.1,0.6l-49,47c-4,3.8-4.1,10.2-0.3,14.1c3.8,3.9,10.2,4.1,14.1,0.3l42.7-41l44.2,34.8c3.6,2.8,8.7,2.9,12.3,0
			l59.1-45.9l-1.7,21.9c-0.4,5.5,3.7,10.3,9.2,10.7c0.3,0,0.5,0,0.8,0c5.2,0,9.6-4,10-9.2l3.4-44.4
			C234.9,117,230.7,112.2,225.2,111.8z"/>
	</g>
</g>
<g>
	<g>
		<path d="M151,210h-30c-5.5,0-10,4.5-10,10v71c0,5.5,4.5,10,10,10h30c5.5,0,10-4.5,10-10v-71C161,214.5,156.5,210,151,210z
			 M141,282h-10v-52h10V282z"/>
	</g>
</g>
<g>
	<g>
		<path d="M90,230H60c-5.5,0-10,4.5-10,10v51c0,5.5,4.5,10,10,10h30c5.5,0,10-4.5,10-10v-51C100,234.5,95.5,230,90,230z M80,282H70
			v-32h10V282z"/>
	</g>
</g>
<g>
	<g>
		<path d="M212,195h-30c-5.5,0-10,4.5-10,10v86c0,5.5,4.5,10,10,10h30c5.5,0,10-4.5,10-10v-86C222,199.5,217.5,195,212,195z
			 M202,282h-10v-67h10V282z"/>
	</g>
</g>
<g>
</g>
<g>
</g>
<g>
</g>
<g>
</g>
<g>
</g>
<g>
</g>
<g>
</g>
<g>
</g>
<g>
</g>
<g>
</g>
<g>
</g>
<g>
</g>
<g>
</g>
<g>
</g>
<g>
</g>
</svg>
