<?xml version="1.0" encoding="iso-8859-1"?>
<!-- Generator: Adobe Illustrator 19.0.0, SVG Export Plug-In . SVG Version: 6.00 Build 0)  -->
<svg version="1.1" id="Capa_1" xmlns="http://www.w3.org/2000/svg" xmlns:xlink="http://www.w3.org/1999/xlink" x="0px" y="0px"
	 viewBox="0 0 470 470" style="enable-background:new 0 0 470 470;" xml:space="preserve">
<g>
	<g>
		<path d="M309.5,143h-47.1c-5.5,0-10,4.5-10,10s4.4,10,10,10h47.1c5.5,0,10-4.5,10-10S315,143,309.5,143z"/>
	</g>
</g>
<g>
	<g>
		<path d="M360.5,201h-98.1c-5.5,0-10,4.5-10,10s4.4,10,10,10h98.1c5.5,0,10-4.5,10-10S366,201,360.5,201z"/>
	</g>
</g>
<g>
	<g>
		<path d="M360.5,260h-98.1c-5.5,0-10,4.5-10,10s4.5,10,10,10h98.1c5.5,0,10-4.5,10-10S366,260,360.5,260z"/>
	</g>
</g>
<g>
	<g>
		<path d="M419.7,109H416v-3.3c0-27.6-22.6-49.7-50.2-49.7H50.3C22.7,56,0,78.1,0,105.7v204.7C0,338,22.7,360,50.3,360H54v4.3
			c-0.1,27.3,22,49.6,49.3,49.7c0.1,0,0.2,0,0.4,0h316c27.6,0,50.3-22.1,50.3-49.7V159.1C469.9,131.4,447.4,109.1,419.7,109z
			 M50,341c-16.6,0-30-13.4-30-30V106c0-16.6,13.4-30,30-30h316c16.6,0,30,13.4,30,30v205c0,16.6-13.4,30-30,30H50z M450,364.3
			c0,16.5-13.7,29.7-30.3,29.7h-316c-16.3,0.1-29.6-13-29.7-29.3c0-0.1,0-0.3,0-0.4V360h291.8c27.6,0,50.2-22,50.2-49.6V129h3.7
			c16.6,0,30.1,13.5,30.3,30.1V364.3z"/>
	</g>
</g>
<g>
	<g>
		<path d="M156,176h-38c-5.5,0-10,4.5-10,10v81c0,5.5,4.5,10,10,10h38c5.5,0,10-4.5,10-10v-81C166,180.5,161.5,176,156,176z
			 M146,257h-18v-61h18V257z"/>
	</g>
</g>
<g>
	<g>
		<path d="M220,133h-38c-5.5,0-10,4.5-10,10v124c0,5.5,4.5,10,10,10h38c5.5,0,10-4.5,10-10V143C230,137.5,225.5,133,220,133z
			 M210,257h-18V153h18V257z"/>
	</g>
</g>
<g>
	<g>
		<path d="M92,206H54c-5.5,0-10,4.5-10,10v51c0,5.5,4.5,10,10,10h38c5.5,0,10-4.5,10-10v-51C102,210.5,97.5,206,92,206z M82,257H64
			v-31h18V257z"/>
	</g>
</g>
<g>
</g>
<g>
</g>
<g>
</g>
<g>
</g>
<g>
</g>
<g>
</g>
<g>
</g>
<g>
</g>
<g>
</g>
<g>
</g>
<g>
</g>
<g>
</g>
<g>
</g>
<g>
</g>
<g>
</g>
</svg>
