<?xml version="1.0" encoding="iso-8859-1"?>
<!-- Generator: Adobe Illustrator 19.0.0, SVG Export Plug-In . SVG Version: 6.00 Build 0)  -->
<svg version="1.1" id="Capa_1" xmlns="http://www.w3.org/2000/svg" xmlns:xlink="http://www.w3.org/1999/xlink" x="0px" y="0px"
	 viewBox="0 0 470 470" style="enable-background:new 0 0 470 470;" xml:space="preserve">
<g>
	<g>
		<path d="M309.5,143h-47.1c-5.5,0-10,4.5-10,10s4.4,10,10,10h47.1c5.5,0,10-4.5,10-10S315,143,309.5,143z"/>
	</g>
</g>
<g>
	<g>
		<path d="M360.5,201h-98.1c-5.5,0-10,4.5-10,10s4.4,10,10,10h98.1c5.5,0,10-4.5,10-10S366,201,360.5,201z"/>
	</g>
</g>
<g>
	<g>
		<path d="M360.5,260h-98.1c-5.5,0-10,4.5-10,10s4.5,10,10,10h98.1c5.5,0,10-4.5,10-10S366,260,360.5,260z"/>
	</g>
</g>
<g>
	<g>
		<path d="M419.7,109H416v-3.3c0-27.6-22.6-49.7-50.2-49.7H50.3C22.7,56,0,78.1,0,105.7v204.7C0,338,22.7,360,50.3,360H54v4.3
			c-0.1,27.3,22,49.6,49.3,49.7c0.1,0,0.2,0,0.4,0h316c27.6,0,50.3-22.1,50.3-49.7V159.1C469.9,131.4,447.4,109.1,419.7,109z
			 M50,341c-16.6,0-30-13.4-30-30V106c0-16.6,13.4-30,30-30h316c16.6,0,30,13.4,30,30v205c0,16.6-13.4,30-30,30H50z M450,364.3
			c0,16.5-13.7,29.7-30.3,29.7h-316c-16.3,0.1-29.6-13-29.7-29.3c0-0.1,0-0.3,0-0.4V360h291.8c27.6,0,50.2-22,50.2-49.6V129h3.7
			c16.6,0,30.1,13.5,30.3,30.1V364.3z"/>
	</g>
</g>
<g>
	<g>
		<path d="M224.8,124.2c-3.8-2.5-8.4-3.9-13.1-3.9c-12.9,0-23.4,10.5-23.4,23.4c0,0.7,0,1.3,0.1,2l-12.5,8.9
			c-10.8-7-25.3-4-32.3,6.8c-3.2,4.9-4.4,10.9-3.5,16.7l-10.6,8.9c-9.9-8.2-24.7-6.8-32.9,3.1c-0.5,0.5-0.9,1.1-1.3,1.7l-7-2.8
			c-4-12.3-17.1-19-29.4-15.1C46.6,177.8,40,191,44,203.3s17.1,19,29.4,15.1c4.9-1.6,9.2-4.8,12.1-9.1l7,2.8c4,12.3,17.1,19,29.4,15
			c9.3-3,15.8-11.5,16.2-21.3l13.6-11.5c11.2,6.4,25.5,2.4,31.8-8.8c2-3.5,3-7.5,3-11.5c0-0.8,0-1.7-0.1-2.5l12.1-8.6
			c10.7,7.3,25.2,4.5,32.5-6.2C238.3,146,235.5,131.5,224.8,124.2z M66.3,199.5c-1.9,0-3.4-1.5-3.4-3.4c0-1.9,1.5-3.4,3.4-3.4
			c1.9,0,3.4,1.5,3.4,3.4C69.6,198,68.1,199.5,66.3,199.5z M114.8,208.3c-1.9,0-3.4-1.5-3.4-3.4c0-1.9,1.5-3.4,3.4-3.4
			c1.9,0,3.4,1.5,3.4,3.4C118.1,206.8,116.6,208.3,114.8,208.3z M163.2,177.5c-1.9,0-3.4-1.5-3.4-3.4c0-1.9,1.5-3.4,3.4-3.4
			c1.9,0,3.4,1.5,3.4,3.4C166.6,175.9,165.1,177.5,163.2,177.5z M211.7,147c-1.9,0-3.4-1.5-3.4-3.4c0-1.9,1.5-3.4,3.4-3.4
			c1.9,0,3.4,1.5,3.4,3.4C215.1,145.5,213.6,147,211.7,147z"/>
	</g>
</g>
<g>
	<g>
		<path d="M224,170h-24c-5.5,0-10,4.5-10,10v100c0,5.5,4.5,10,10,10h24c5.5,0,10-4.5,10-10V180C234,174.5,229.5,170,224,170z
			 M214,270h-4v-80h4V270z"/>
	</g>
</g>
<g>
	<g>
		<path d="M175,200h-24c-5.5,0-10,4.5-10,10v70c0,5.5,4.5,10,10,10h24c5.5,0,10-4.5,10-10v-70C185,204.5,180.5,200,175,200z
			 M165,270h-4v-50h4V270z"/>
	</g>
</g>
<g>
	<g>
		<path d="M127,231h-24c-5.5,0-10,4.5-10,10v39c0,5.5,4.5,10,10,10h24c5.5,0,10-4.5,10-10v-39C137,235.5,132.5,231,127,231z
			 M117,270h-4v-19h4V270z"/>
	</g>
</g>
<g>
	<g>
		<path d="M78,222H54c-5.5,0-10,4.5-10,10v47c0,5.5,4.5,10,10,10h24c5.5,0,10-4.5,10-10v-47C88,226.5,83.5,222,78,222z M68,270h-4
			v-28h4V270z"/>
	</g>
</g>
<g>
</g>
<g>
</g>
<g>
</g>
<g>
</g>
<g>
</g>
<g>
</g>
<g>
</g>
<g>
</g>
<g>
</g>
<g>
</g>
<g>
</g>
<g>
</g>
<g>
</g>
<g>
</g>
<g>
</g>
</svg>
