<?xml version="1.0" encoding="iso-8859-1"?>
<!-- Generator: Adobe Illustrator 19.0.0, SVG Export Plug-In . SVG Version: 6.00 Build 0)  -->
<svg version="1.1" id="Capa_1" xmlns="http://www.w3.org/2000/svg" xmlns:xlink="http://www.w3.org/1999/xlink" x="0px" y="0px"
	 viewBox="0 0 494.001 494.001" style="enable-background:new 0 0 494.001 494.001;" xml:space="preserve">
<g>
	<g>
		<path d="M440.6,24.001c-0.1,0-0.1,0-0.2,0h-317c-28.7,0-52,22.8-52,51.1l-2,276.9H9.6c-5.6,0-9.6,4.9-9.6,10.5v38.3
			c-0.1,37,29,67.6,66,69.2h267v-0.1c1,0.1,2.6,0.1,4,0.1c38.2-0.1,69.1-31.1,69-69.3v-242.7h78.4c5.2,0.1,9.5-4,9.6-9.2
			c0-0.2,0-0.3,0-0.5v-70.3C494.2,48.301,470.3,24.101,440.6,24.001z M68.8,450.001c-27-0.1-48.9-22-48.8-49c0-0.1,0-0.2,0-0.2
			v-28.8h248v28.8c0,19.3,7.7,36.2,20.4,49.2H68.8z M386.1,78.001v322.8H386c0,27.1-21.9,49-49,49c-27.1,0-49-21.9-49-49v-38.3
			c-0.1-5.7-4.6-10.3-10.2-10.5H89.4l2-276.8c0-17.3,14.3-31.2,32-31.2h275.1C390.5,53.501,386.1,65.601,386.1,78.001z M474,138.001
			h-68v-60c0-18.8,15.2-34,34-34s34,15.2,34,34V138.001z"/>
	</g>
</g>
<g>
	<g>
		<path d="M330.9,280.001H155v-135.9c0-5.5-4.5-10-10-10s-10,4.5-10,10v136.6c0,10.6,8.2,19.4,18.9,19.4H331c5.5,0,10-4.5,10-10
			S336.5,280.001,330.9,280.001z"/>
	</g>
</g>
<g>
	<g>
		<path d="M341.2,156.001c-2.3-0.5-4.8-0.8-7.2-0.8c-14,0-25.4,11.4-25.5,25.4c0,4,1,8,2.8,11.6l-13.4,14.6
			c-8.7-6.5-20.6-6.7-29.6-0.5l-11.5-9.4c-1.3-14-13.7-24.3-27.7-23c-14,1.3-24.3,13.7-23,27.7c0.1,0.6,0.1,1.1,0.2,1.7l-14.4,18
			c-13.5-3.9-27.6,3.9-31.5,17.4c-3.9,13.5,3.9,27.6,17.4,31.5c13.5,3.9,27.6-3.9,31.5-17.4c1.8-6.3,1.1-13.1-1.9-18.9l10.5-13.2
			c10.2,6.4,23.4,4.8,31.8-3.9l7.8,6.4c-2.1,13.9,7.4,26.9,21.3,29c13.9,2.1,26.9-7.4,29-21.3c0.2-1.3,0.3-2.6,0.3-3.9
			c0-0.7,0-1.3-0.1-2l18.6-20.2c13.5,4,27.6-3.7,31.7-17.1C362.3,174.201,354.6,160.101,341.2,156.001z M185,251.201
			c-3,0-5.5-2.4-5.5-5.5c0-3,2.4-5.5,5.5-5.5c3,0,5.5,2.4,5.5,5.5C190.5,248.801,188,251.201,185,251.201z M231.6,204.701
			c-3,0-5.5-2.4-5.5-5.5c0-3,2.4-5.5,5.5-5.5c3,0,5.5,2.4,5.5,5.5C237,202.201,234.6,204.701,231.6,204.701z M282.8,232.601
			c-3,0-5.5-2.4-5.5-5.5c0-3.1,2.4-5.5,5.5-5.5c3,0,5.5,2.4,5.5,5.5C288.2,230.201,285.8,232.601,282.8,232.601z M334,186.101
			c-3,0-5.5-2.4-5.5-5.5c0-3.1,2.4-5.5,5.5-5.5c3,0,5.5,2.4,5.5,5.5C339.4,183.601,337,186.101,334,186.101z"/>
	</g>
</g>
<g>
</g>
<g>
</g>
<g>
</g>
<g>
</g>
<g>
</g>
<g>
</g>
<g>
</g>
<g>
</g>
<g>
</g>
<g>
</g>
<g>
</g>
<g>
</g>
<g>
</g>
<g>
</g>
<g>
</g>
</svg>
