<?xml version="1.0" encoding="iso-8859-1"?>
<!-- Generator: Adobe Illustrator 19.0.0, SVG Export Plug-In . SVG Version: 6.00 Build 0)  -->
<svg version="1.1" id="Capa_1" xmlns="http://www.w3.org/2000/svg" xmlns:xlink="http://www.w3.org/1999/xlink" x="0px" y="0px"
	 viewBox="0 0 494.001 494.001" style="enable-background:new 0 0 494.001 494.001;" xml:space="preserve">
<g>
	<g>
		<path d="M440.6,24.001c-0.1,0-0.1,0-0.2,0h-317c-28.7,0-52,22.8-52,51.1l-2,276.9H9.6c-5.6,0-9.6,4.9-9.6,10.5v38.3
			c-0.1,37,29,67.6,66,69.2h267v-0.1c1,0.1,2.6,0.1,4,0.1c38.2-0.1,69.1-31.1,69-69.3v-242.7h78.4c5.2,0.1,9.5-4,9.6-9.2
			c0-0.2,0-0.3,0-0.5v-70.3C494.2,48.301,470.3,24.101,440.6,24.001z M68.8,450.001c-27-0.1-48.9-22-48.8-49c0-0.1,0-0.2,0-0.2
			v-28.8h248v28.8c0,19.3,7.7,36.2,20.4,49.2H68.8z M386.1,78.001v322.8H386c0,27.1-21.9,49-49,49c-27.1,0-49-21.9-49-49v-38.3
			c-0.1-5.7-4.6-10.3-10.2-10.5H89.4l2-276.8c0-17.3,14.3-31.2,32-31.2h275.1C390.5,53.501,386.1,65.601,386.1,78.001z M474,138.001
			h-68v-60c0-18.8,15.2-34,34-34s34,15.2,34,34V138.001z"/>
	</g>
</g>
<g>
	<g>
		<path d="M316.6,209.001H241v-75.9c0-5.5-4.4-10-9.9-10c0,0,0,0-0.1,0c-25.4-0.1-49.7,10-67.6,28c-37.3,37.3-37.3,97.8,0.1,135.1
			s97.8,37.3,135.1-0.1c17.9-17.9,27.9-42.1,27.9-67.3C326.5,213.401,322.1,209.001,316.6,209.001z M284.5,272.201
			c-29.6,29.4-77.5,29.3-106.9-0.4c-14-14.1-21.9-33.3-22-53.2c-0.1-37.8,27.8-69.8,65.3-74.9v74.8c0,5.6,4.5,10.2,10.1,10.4h74.8
			C303.7,245.301,296.1,260.501,284.5,272.201z"/>
	</g>
</g>
<g>
	<g>
		<path d="M330.5,119.901c-0.1-0.1-0.1,0-0.2-0.1c-17.9-17.8-42.1-27.8-67.4-27.8c-5.5,0-9.9,4.5-9.9,9.9c0,0,0,0,0,0.1v85.5
			c0,5.3,4.2,9.6,9.5,9.6c0.1,0,0.3,0,0.4,0h85.5c5.4,0.1,9.9-4.2,10-9.7v-0.1C358.4,162.001,348.4,137.801,330.5,119.901z
			 M273,112.701c3.5,0.5,7,1.2,10.5,2.1l-10.5,10.5V112.701z M273,153.601l30-30c1.9,1.2,3.8,2.5,5.6,3.8l-35.6,35.6V153.601z
			 M286.8,177.001l35.9-35.7c1.4,1.8,2.7,3.6,3.9,5.5l-30.4,30.2H286.8z M324.5,177.001l10.9-10.9c1,3.6,1.7,7.2,2.3,10.9H324.5z"/>
	</g>
</g>
<g>
</g>
<g>
</g>
<g>
</g>
<g>
</g>
<g>
</g>
<g>
</g>
<g>
</g>
<g>
</g>
<g>
</g>
<g>
</g>
<g>
</g>
<g>
</g>
<g>
</g>
<g>
</g>
<g>
</g>
</svg>
