<?xml version="1.0" encoding="iso-8859-1"?>
<!-- Generator: Adobe Illustrator 19.0.0, SVG Export Plug-In . SVG Version: 6.00 Build 0)  -->
<svg version="1.1" id="Capa_1" xmlns="http://www.w3.org/2000/svg" xmlns:xlink="http://www.w3.org/1999/xlink" x="0px" y="0px"
	 viewBox="0 0 494.001 494.001" style="enable-background:new 0 0 494.001 494.001;" xml:space="preserve">
<g>
	<g>
		<path d="M440.6,24.001c-0.1,0-0.1,0-0.2,0h-317c-28.7,0-52,22.8-52,51.1l-2,276.9H9.6c-5.6,0-9.6,4.9-9.6,10.5v38.3
			c-0.1,37,29,67.6,66,69.2h267v-0.1c1,0.1,2.6,0.1,4,0.1c38.2-0.1,69.1-31.1,69-69.3v-242.7h78.4c5.2,0.1,9.5-4,9.6-9.2
			c0-0.2,0-0.3,0-0.5v-70.3C494.2,48.301,470.3,24.101,440.6,24.001z M68.8,450.001c-27-0.1-48.9-22-48.8-49c0-0.1,0-0.2,0-0.2
			v-28.8h248v28.8c0,19.3,7.7,36.2,20.4,49.2H68.8z M386.1,78.001v322.8H386c0,27.1-21.9,49-49,49c-27.1,0-49-21.9-49-49v-38.3
			c-0.1-5.7-4.6-10.3-10.2-10.5H89.4l2-276.8c0-17.3,14.3-31.2,32-31.2h275.1C390.5,53.501,386.1,65.601,386.1,78.001z M474,138.001
			h-68v-60c0-18.8,15.2-34,34-34s34,15.2,34,34V138.001z"/>
	</g>
</g>
<g>
	<g>
		<path d="M277,135.001h-32.6c-5.6,0-10.2,4.5-10.4,10.1v160.4c0.2,5.7,4.7,10.3,10.4,10.4H277c5.5,0,10-4.9,10-10.4v-160.4
			C287,139.601,282.5,135.101,277,135.001z M267,296.001h-13v-36h13V296.001z M267,240.001h-13v-85h13V240.001z"/>
	</g>
</g>
<g>
	<g>
		<path d="M335.6,110.001h-33.2c-5.7,0.2-10.3,4.8-10.4,10.4v185.1c0.2,5.7,4.7,10.3,10.4,10.5h33.2c5.7-0.2,10.3-4.8,10.4-10.4
			v-185.1C345.8,114.801,341.3,110.201,335.6,110.001z M326,296.001h-14v-36h14V296.001z M326,240.001h-14v-110h14V240.001z"/>
	</g>
</g>
<g>
	<g>
		<path d="M219.1,160.001c-0.1,0-0.1,0-0.1,0h-32.6c-5.5,0-10.4,4.3-10.4,9.8v135.7c0.2,5.7,4.7,10.3,10.4,10.4H219
			c5.5,0,10-4.9,10-10.4v-135.7C229,164.401,224.5,160.001,219.1,160.001z M209,296.001h-13v-36h13V296.001z M209,240.001h-13v-60
			h13V240.001z"/>
	</g>
</g>
<g>
	<g>
		<path d="M161,203.001h-32.6c-5.5,0-10.4,4.5-10.4,10v92.6c0.2,5.7,4.7,10.3,10.4,10.4H161c5.5,0,10-4.9,10-10.4v-92.6
			C171,207.501,166.5,203.001,161,203.001z M151,296.001h-13v-36h13V296.001z M151,240.001h-13v-17h13V240.001z"/>
	</g>
</g>
<g>
</g>
<g>
</g>
<g>
</g>
<g>
</g>
<g>
</g>
<g>
</g>
<g>
</g>
<g>
</g>
<g>
</g>
<g>
</g>
<g>
</g>
<g>
</g>
<g>
</g>
<g>
</g>
<g>
</g>
</svg>
