<?xml version="1.0" encoding="iso-8859-1"?>
<!-- Generator: Adobe Illustrator 19.0.0, SVG Export Plug-In . SVG Version: 6.00 Build 0)  -->
<svg version="1.1" id="Capa_1" xmlns="http://www.w3.org/2000/svg" xmlns:xlink="http://www.w3.org/1999/xlink" x="0px" y="0px"
	 viewBox="0 0 494.001 494.001" style="enable-background:new 0 0 494.001 494.001;" xml:space="preserve">
<g>
	<g>
		<path d="M440.6,24.001c-0.1,0-0.1,0-0.2,0h-317c-28.7,0-52,22.8-52,51.1l-2,276.9H9.6c-5.6,0-9.6,4.9-9.6,10.5v38.3
			c-0.1,37,29,67.6,66,69.2h267v-0.1c1,0.1,2.6,0.1,4,0.1c38.2-0.1,69.1-31.1,69-69.3v-242.7h78.4c5.2,0.1,9.5-4,9.6-9.2
			c0-0.2,0-0.3,0-0.5v-70.3C494.2,48.301,470.3,24.101,440.6,24.001z M68.8,450.001c-27-0.1-48.9-22-48.8-49c0-0.1,0-0.2,0-0.2
			v-28.8h248v28.8c0,19.3,7.7,36.2,20.4,49.2H68.8z M386.1,78.001v322.8H386c0,27.1-21.9,49-49,49c-27.1,0-49-21.9-49-49v-38.3
			c-0.1-5.7-4.6-10.3-10.2-10.5H89.4l2-276.8c0-17.3,14.3-31.2,32-31.2h275.1C390.5,53.501,386.1,65.601,386.1,78.001z M474,138.001
			h-68v-60c0-18.8,15.2-34,34-34s34,15.2,34,34V138.001z"/>
	</g>
</g>
<g>
	<g>
		<path d="M345.6,202.501c-2.5-22.1-11.2-42.8-25.3-59.8c-3.2-3.8-8.8-4.4-12.7-1.2c-0.2,0.2-0.4,0.4-0.6,0.6l-38.8,38.6
			c-3,3-3.5,7.7-1.2,11.3c2.7,4.4,4.7,9.2,6,14.3c1,4,4.6,6.8,8.7,6.8h53.7c0.3,0,0.7,0,1,0h0.2c4,0,7.6-2.7,8.7-6.5
			c0.2-0.8,0.4-1.6,0.4-2.5C345.7,203.601,345.7,203.001,345.6,202.501z M288.3,195.001c-0.7-2-1.6-4.2-2.6-6.4l26.6-26.5
			c6.6,10,11.3,21.2,13.7,32.9H288.3z"/>
	</g>
</g>
<g>
	<g>
		<path d="M305.5,127.901c-0.2-0.2-0.4-0.4-0.6-0.6c-17.2-14.2-38.2-23-60.4-25.2c-4.9-0.7-9.5,2.7-10.2,7.6
			c-0.1,0.4-0.1,0.9-0.1,1.3v54.9c-0.2,4.3,2.9,8,7.2,8.8c4.9,1,9.6,3,13.9,5.8c3.6,2.3,8.3,1.9,11.3-1.1l38.9-38.8
			C309,137.101,309,131.401,305.5,127.901z M258.7,161.801c-2.2-1.1-4.4-2-6.7-2.8v-37.6c11.9,2.4,23.2,7.1,33.3,13.8L258.7,161.801
			z"/>
	</g>
</g>
<g>
	<g>
		<path d="M221.1,102.101c-0.3,0-0.6,0-0.9,0c-25.8,2.6-49.8,14.1-68,32.5c-18.1,18.5-29.3,42.6-31.8,68.4c-0.5,4.9,3.1,9.3,8.1,9.8
			c0.2,0.2,0.5,0.2,0.8,0.2h54.9c4.2,0,7.9-2.9,8.8-7.1c3.2-14.4,16.1-27.7,30.2-31.1c4-1,6.9-4.6,6.9-8.8v-54.9
			C230.1,106.101,226.1,102.101,221.1,102.101z M212,159.501c-15.4,6.1-28.7,19.8-34.5,35.5h-37.8c3.6-18,12.4-34.5,25.3-47.6
			c12.8-13,29.2-21.9,47-25.7V159.501z"/>
	</g>
</g>
<g>
	<g>
		<path d="M224.5,254.601c-0.1,0-0.1,0-0.2,0c-15.8-3.3-28.1-15.7-31.5-31.5c-0.9-4.2-4.6-7.1-8.8-7.1h-55c-2.5,0-4.9,1-6.7,2.9
			c-1.7,1.9-2.5,4.4-2.3,6.9c5.3,53.6,47.6,96,101.1,101.5c0.3,0,0.6,0,0.9,0c4.9,0,9-4,9-8.9c0,0,0.1-13.7,0.2-27.5
			c0.1-6.9,0.1-13.7,0.1-18.9c0-2.6,0-4.7,0-6.3c0-0.8,0-1.4,0-1.8C231.4,256.601,225.7,254.801,224.5,254.601z M213.2,307.801
			c-37.1-7.8-66-36.8-73.7-73.9l37.7-0.1c5.9,17,19.2,30.4,36.2,36.3C213.4,278.701,213.3,294.001,213.2,307.801z"/>
	</g>
</g>
<g>
	<g>
		<path d="M337.3,217.101c-0.2-0.1-0.5-0.1-0.8-0.1h-54.9c-4.2,0-7.8,2.9-8.8,7c-3.4,15.1-16.4,27.9-31.6,31.1
			c-4.2,0.9-7.2,4.5-7.2,8.8l-0.2,54.9c0,5,4,9,9,9c0.3,0,0.7,0,1-0.1h0.1c53.5-5.2,96.2-47.6,101.5-100.8
			C345.9,222.001,342.3,217.501,337.3,217.101z M268.1,303.601l-16.2-16.2l0.1-16.7c2.6-0.9,5.2-2,7.6-3.3l26.6,26.6
			C280.5,297.801,274.5,301.001,268.1,303.601z M300.2,282.401l-25.9-25.9c4.7-4.6,8.6-10,11.6-16l26.7,26.7
			C309,272.701,304.8,277.801,300.2,282.401z M321.3,250.501l-15.5-15.5H326C324.9,240.301,323.3,245.501,321.3,250.501z"/>
	</g>
</g>
<g>
</g>
<g>
</g>
<g>
</g>
<g>
</g>
<g>
</g>
<g>
</g>
<g>
</g>
<g>
</g>
<g>
</g>
<g>
</g>
<g>
</g>
<g>
</g>
<g>
</g>
<g>
</g>
<g>
</g>
</svg>
