<?xml version="1.0" encoding="iso-8859-1"?>
<!-- Generator: Adobe Illustrator 19.0.0, SVG Export Plug-In . SVG Version: 6.00 Build 0)  -->
<svg version="1.1" id="Capa_1" xmlns="http://www.w3.org/2000/svg" xmlns:xlink="http://www.w3.org/1999/xlink" x="0px" y="0px"
	 viewBox="0 0 504.4 504.4" style="enable-background:new 0 0 504.4 504.4;" xml:space="preserve">
<g>
	<g>
		<path d="M460.8,397.6c14.7-9,23.7-25,23.6-42.3c0.1-17.6-9.2-33.9-24.5-42.6V104.2h19.6c5.5,0,10.4-4.2,10.4-9.8V61
			c0-27.2-22.5-49.8-49.7-49.8h-376C37.1,11.2,15,33.8,15,61v33.5c0,5.4,4.4,9.8,9.8,9.8c0.1,0,0.1,0,0.2,0h19v208.5
			c-15.2,8.8-24.6,25-24.4,42.6c0,17.3,8.9,33.3,23.6,42.3c-26,10.4-43.1,35.7-43.2,63.8v21.3c0,5.6,4.5,10.3,10.2,10.4H128
			c5.5,0,10.1-4.9,10.1-10.4v-21.3c0-28.1-17.1-53.3-43.1-63.9c4.9-3,9.3-7.4,12.9-11.4h105.6c3.6,4,7.9,8.4,12.9,11.4
			c-26,10.5-43.1,35.8-43.2,63.9v21.3c0,5.5,4.6,10.4,10.1,10.4h117.8c5.5,0,10.1-4.9,10.1-10.4v-21.3
			c-0.1-28.1-17.1-53.3-43.2-63.9c4.9-3,9.2-7.4,12.9-11.4h105.6c3.6,4,7.9,8.4,12.9,11.4c-26,10.5-43.1,35.8-43.1,63.9v21.3
			c0,5.5,4.5,10.4,10.1,10.4h117.8c5.6-0.2,10.1-4.8,10.2-10.4v-21.3C503.9,433.4,486.9,408.1,460.8,397.6z M35,84.2V61
			c0-16.2,13.1-29.8,29.3-29.8h376c16.4,0.2,29.6,13.4,29.7,29.8v23.2H35z M103.6,427c9.2,9.1,14.4,21.5,14.4,34.5v11.7H20v-11.7
			c0-27,21.9-48.9,48.9-48.9C81.9,412.6,94.4,417.8,103.6,427z M69,384.8c-16.3,0-29.5-13.2-29.5-29.5s13.2-29.5,29.5-29.5
			s29.5,13.2,29.5,29.5C98.6,371.6,85.3,384.8,69,384.8z M301,461.5v11.7h-98v-11.7c0-27.1,21.9-49,49-49
			C279.1,412.5,301,434.4,301,461.5z M252,384.8c-16.3,0-29.5-13.2-29.5-29.5s13.2-29.5,29.5-29.5s29.5,13.2,29.5,29.5
			S268.3,384.8,252,384.8z M385.4,355.2c0,3.7,0.5,7.3,1.3,10.9h-86.381c0.785-3.567,1.181-7.134,1.181-10.8
			c0-27.4-22.2-49.5-49.5-49.5s-49.5,22.2-49.5,49.5c0,3.7,0.4,7.3,1.2,10.9h-86.3c0.8-3.6,1.2-7.2,1.2-10.9
			c0-27.3-22.1-49.5-49.5-49.5c-1.8,0-3.1,0.1-5.1,0.3V104.2h376V306c-2-0.2-3.4-0.3-5.1-0.3C407.6,305.7,385.4,327.9,385.4,355.2z
			 M405.5,355.3c-0.1-16.3,13.2-29.5,29.5-29.5s29.5,13.2,29.5,29.5s-13.2,29.5-29.5,29.5S405.5,371.6,405.5,355.3z M484,473.2h-98
			v-11.7c0-27.1,21.9-49,49-49c27.1,0,49,21.9,49,49V473.2z"/>
	</g>
</g>
<g>
	<g>
		<path d="M351.7,278.2H339V122.3c0-5.5-4.5-10-10-10c-2.9,0-5.7,1.3-7.5,3.4l-18.9,21.8l-10.1-5.4c-4.5-2.4-10.1-1-12.9,3.2
			l-13.4,19.5l-13.8-3.4c-3.7-0.9-7.6,0.4-10.1,3.3l-11.6,13.9l-13.8-12.9c-3.1-2.9-7.6-3.5-11.3-1.6l-10.4,5.2l-16.8-14.8
			c-2-1.8-4.7-2.7-7.4-2.5c-2.7,0.2-5.3,1.5-7.1,3.6l-1.8,2v-21.7c0-5.5-4.5-10-10-10s-10,4.5-10,10v162.8c0,5.5,4.8,9.6,10.3,9.6
			h199.3c5.5,0,10-4.5,10-10S357.2,278.2,351.7,278.2z M161.8,178.5l10.9-12.4l14.2,12.4c3.1,2.7,7.5,3.3,11.1,1.4l10.2-5.1
			l16.4,15.4c4,3.8,10.4,3.6,14.1-0.5c0.1-0.1,0.2-0.3,0.4-0.4l14.4-17.2l14.4,3.5c4,1,8.3-0.6,10.6-4.1l12.2-17.8l9.3,4.9
			c4.1,2.2,9.2,1.3,12.3-2.3l6.6-7.6v17.6l-14.3,1.9c-2.5,0.3-4.7,1.6-6.3,3.5l-12.9,15.4l-13.6-8.3c-4.2-2.6-9.7-1.7-12.9,2.1
			l-15.3,18.2l-17.6-7.3c-3.6-1.5-7.8-0.7-10.7,1.9L203,205.2l-7-12c-2.8-4.8-8.9-6.4-13.7-3.6c-0.4,0.2-0.7,0.4-1,0.7l-11.6,8.7
			l-7.9-4.6V178.5z M161.7,218h0.3l3.4,2c3.5,2.1,8,1.9,11.3-0.6l7.8-5.9l7.6,13.1c2.8,4.8,8.9,6.4,13.7,3.6
			c0.6-0.4,1.3-0.8,1.8-1.3l16.8-15.7l18.4,7.6c4,1.7,8.7,0.5,11.5-2.8l14.5-17.2l13.6,8.3c4.2,2.6,9.7,1.7,12.9-2.1l15.9-19
			l7.7-1.1v22.9l-8.6-3.1c-4.5-1.6-9.5,0.1-12,4.2l-13,21.3l-11.4-7.5c-4.3-2.9-10.1-2-13.3,2.1l-13.3,16.5l-12-9.7
			c-3.5-2.8-8.4-3-12.1-0.4l-13.3,9.4l-17.2-11c-3.9-2.5-9-2-12.3,1.2l-14.2,13.4l-4.5-1.3V218z M319,278.2H162v-12.7l4.3,1.2
			c1,0.3,1.9,0.4,2.9,0.4c2.6,0,5.1-1,7-2.8l12.5-12l16.3,10.4c3.4,2.2,7.8,2.1,11.2-0.3l12.6-8.9l13.9,11.3
			c4.3,3.5,10.6,2.8,14.1-1.5l13.8-17.2l12.4,8.2c4.6,3.1,10.8,1.8,13.9-2.8c0.1-0.1,0.1-0.2,0.2-0.3l14.2-23.2l7.7,2.8V278.2z"/>
	</g>
</g>
<g>
</g>
<g>
</g>
<g>
</g>
<g>
</g>
<g>
</g>
<g>
</g>
<g>
</g>
<g>
</g>
<g>
</g>
<g>
</g>
<g>
</g>
<g>
</g>
<g>
</g>
<g>
</g>
<g>
</g>
</svg>
