<?xml version="1.0" encoding="iso-8859-1"?>
<!-- Generator: Adobe Illustrator 19.0.0, SVG Export Plug-In . SVG Version: 6.00 Build 0)  -->
<svg version="1.1" id="Capa_1" xmlns="http://www.w3.org/2000/svg" xmlns:xlink="http://www.w3.org/1999/xlink" x="0px" y="0px"
	 viewBox="0 0 504.4 504.4" style="enable-background:new 0 0 504.4 504.4;" xml:space="preserve">
<g>
	<g>
		<path d="M460.8,397.6c14.7-9,23.7-25,23.6-42.3c0.1-17.6-9.2-33.9-24.5-42.6V104.2h19.6c5.5,0,10.4-4.2,10.4-9.8V61
			c0-27.2-22.5-49.8-49.7-49.8h-376C37.1,11.2,15,33.8,15,61v33.5c0,5.4,4.4,9.8,9.8,9.8c0.1,0,0.1,0,0.2,0h19v208.5
			c-15.2,8.8-24.6,25-24.4,42.6c0,17.3,8.9,33.3,23.6,42.3c-26,10.4-43.1,35.7-43.2,63.8v21.3c0,5.6,4.5,10.3,10.2,10.4H128
			c5.5,0,10.1-4.9,10.1-10.4v-21.3c0-28.1-17.1-53.3-43.1-63.9c4.9-3,9.3-7.4,12.9-11.4h105.6c3.6,4,7.9,8.4,12.9,11.4
			c-26,10.5-43.1,35.8-43.2,63.9v21.3c0,5.5,4.6,10.4,10.1,10.4h117.8c5.5,0,10.1-4.9,10.1-10.4v-21.3
			c-0.1-28.1-17.1-53.3-43.2-63.9c4.9-3,9.2-7.4,12.9-11.4h105.6c3.6,4,7.9,8.4,12.9,11.4c-26,10.5-43.1,35.8-43.1,63.9v21.3
			c0,5.5,4.5,10.4,10.1,10.4h117.8c5.6-0.2,10.1-4.8,10.2-10.4v-21.3C503.9,433.4,486.9,408.1,460.8,397.6z M35,84.2V61
			c0-16.2,13.1-29.8,29.3-29.8h376c16.4,0.2,29.6,13.4,29.7,29.8v23.2H35z M103.6,427c9.2,9.1,14.4,21.5,14.4,34.5v11.7H20v-11.7
			c0-27,21.9-48.9,48.9-48.9C81.9,412.6,94.4,417.8,103.6,427z M69,384.8c-16.3,0-29.5-13.2-29.5-29.5s13.2-29.5,29.5-29.5
			s29.5,13.2,29.5,29.5C98.6,371.6,85.3,384.8,69,384.8z M301,461.5v11.7h-98v-11.7c0-27.1,21.9-49,49-49
			C279.1,412.5,301,434.4,301,461.5z M252,384.8c-16.3,0-29.5-13.2-29.5-29.5s13.2-29.5,29.5-29.5s29.5,13.2,29.5,29.5
			S268.3,384.8,252,384.8z M385.4,355.2c0,3.7,0.5,7.3,1.3,10.9h-86.381c0.785-3.567,1.181-7.134,1.181-10.8
			c0-27.4-22.2-49.5-49.5-49.5s-49.5,22.2-49.5,49.5c0,3.7,0.4,7.3,1.2,10.9h-86.3c0.8-3.6,1.2-7.2,1.2-10.9
			c0-27.3-22.1-49.5-49.5-49.5c-1.8,0-3.1,0.1-5.1,0.3V104.2h376V306c-2-0.2-3.4-0.3-5.1-0.3C407.6,305.7,385.4,327.9,385.4,355.2z
			 M405.5,355.3c-0.1-16.3,13.2-29.5,29.5-29.5s29.5,13.2,29.5,29.5s-13.2,29.5-29.5,29.5S405.5,371.6,405.5,355.3z M484,473.2h-98
			v-11.7c0-27.1,21.9-49,49-49c27.1,0,49,21.9,49,49V473.2z"/>
	</g>
</g>
<g>
	<g>
		<path d="M346.7,122.7l-50.9-3.6c-5.5-0.4-10.3,3.8-10.7,9.3s3.8,10.3,9.3,10.7l24.9,1.8l-55,42.8l-48.1-37.9
			c-3.9-3.1-9.5-2.8-13.1,0.6l-52.1,50c-4,3.8-4.1,10.2-0.3,14.1c3.8,3.9,10.2,4.1,14.1,0.3l45.8-43.9l47.4,37.3
			c3.6,2.8,8.7,2.9,12.3,0l63.9-49.7l-1.9,24.7c-0.4,5.5,3.7,10.3,9.2,10.7c0.3,0,0.5,0,0.8,0c5.2,0,9.6-4,10-9.2l3.6-47.2
			C356.4,127.9,352.3,123.1,346.7,122.7z"/>
	</g>
</g>
<g>
	<g>
		<path d="M268,217.2h-32c-5.5,0-10,4.5-10,10v56c0,5.5,4.5,10,10,10h32c5.5,0,10-4.5,10-10v-56C278,221.7,273.5,217.2,268,217.2z
			 M258,273.2h-12v-36h12V273.2z"/>
	</g>
</g>
<g>
	<g>
		<path d="M203,239.2h-32c-5.5,0-10,4.5-10,10v35c0,5.5,4.5,10,10,10h32c5.5,0,10-4.5,10-10v-35C213,243.7,208.5,239.2,203,239.2z
			 M193,273.2h-12v-14h12V273.2z"/>
	</g>
</g>
<g>
	<g>
		<path d="M333,201.2h-32c-5.5,0-10,4.5-10,10v72c0,5.5,4.5,10,10,10h32c5.5,0,10-4.5,10-10v-72C343,205.7,338.5,201.2,333,201.2z
			 M323,273.2h-12v-52h12V273.2z"/>
	</g>
</g>
<g>
</g>
<g>
</g>
<g>
</g>
<g>
</g>
<g>
</g>
<g>
</g>
<g>
</g>
<g>
</g>
<g>
</g>
<g>
</g>
<g>
</g>
<g>
</g>
<g>
</g>
<g>
</g>
<g>
</g>
</svg>
