<?xml version="1.0" encoding="iso-8859-1"?>
<!-- Generator: Adobe Illustrator 19.0.0, SVG Export Plug-In . SVG Version: 6.00 Build 0)  -->
<svg version="1.1" id="Capa_1" xmlns="http://www.w3.org/2000/svg" xmlns:xlink="http://www.w3.org/1999/xlink" x="0px" y="0px"
	 viewBox="0 0 504.4 504.4" style="enable-background:new 0 0 504.4 504.4;" xml:space="preserve">
<g>
	<g>
		<path d="M460.8,397.6c14.7-9,23.7-25,23.6-42.3c0.1-17.6-9.2-33.9-24.5-42.6V104.2h19.6c5.5,0,10.4-4.2,10.4-9.8V61
			c0-27.2-22.5-49.8-49.7-49.8h-376C37.1,11.2,15,33.8,15,61v33.5c0,5.4,4.4,9.8,9.8,9.8c0.1,0,0.1,0,0.2,0h19v208.5
			c-15.2,8.8-24.6,25-24.4,42.6c0,17.3,8.9,33.3,23.6,42.3c-26,10.4-43.1,35.7-43.2,63.8v21.3c0,5.6,4.5,10.3,10.2,10.4H128
			c5.5,0,10.1-4.9,10.1-10.4v-21.3c0-28.1-17.1-53.3-43.1-63.9c4.9-3,9.3-7.4,12.9-11.4h105.6c3.6,4,7.9,8.4,12.9,11.4
			c-26,10.5-43.1,35.8-43.2,63.9v21.3c0,5.5,4.6,10.4,10.1,10.4h117.8c5.5,0,10.1-4.9,10.1-10.4v-21.3
			c-0.1-28.1-17.1-53.3-43.2-63.9c4.9-3,9.2-7.4,12.9-11.4h105.6c3.6,4,7.9,8.4,12.9,11.4c-26,10.5-43.1,35.8-43.1,63.9v21.3
			c0,5.5,4.5,10.4,10.1,10.4h117.8c5.6-0.2,10.1-4.8,10.2-10.4v-21.3C503.9,433.4,486.9,408.1,460.8,397.6z M35,84.2V61
			c0-16.2,13.1-29.8,29.3-29.8h376c16.4,0.2,29.6,13.4,29.7,29.8v23.2H35z M103.6,427c9.2,9.1,14.4,21.5,14.4,34.5v11.7H20v-11.7
			c0-27,21.9-48.9,48.9-48.9C81.9,412.6,94.4,417.8,103.6,427z M69,384.8c-16.3,0-29.5-13.2-29.5-29.5s13.2-29.5,29.5-29.5
			s29.5,13.2,29.5,29.5C98.6,371.6,85.3,384.8,69,384.8z M301,461.5v11.7h-98v-11.7c0-27.1,21.9-49,49-49
			C279.1,412.5,301,434.4,301,461.5z M252,384.8c-16.3,0-29.5-13.2-29.5-29.5s13.2-29.5,29.5-29.5s29.5,13.2,29.5,29.5
			S268.3,384.8,252,384.8z M385.4,355.2c0,3.7,0.5,7.3,1.3,10.9h-86.381c0.785-3.567,1.181-7.134,1.181-10.8
			c0-27.4-22.2-49.5-49.5-49.5s-49.5,22.2-49.5,49.5c0,3.7,0.4,7.3,1.2,10.9h-86.3c0.8-3.6,1.2-7.2,1.2-10.9
			c0-27.3-22.1-49.5-49.5-49.5c-1.8,0-3.1,0.1-5.1,0.3V104.2h376V306c-2-0.2-3.4-0.3-5.1-0.3C407.6,305.7,385.4,327.9,385.4,355.2z
			 M405.5,355.3c-0.1-16.3,13.2-29.5,29.5-29.5s29.5,13.2,29.5,29.5s-13.2,29.5-29.5,29.5S405.5,371.6,405.5,355.3z M484,473.2h-98
			v-11.7c0-27.1,21.9-49,49-49c27.1,0,49,21.9,49,49V473.2z"/>
	</g>
</g>
<g>
	<g>
		<path d="M343.8,121.8c-4-3-8.9-4.6-14-4.6c-13.4,0-24.3,10.9-24.3,24.3c0,0.8,0,1.6,0.1,2.5l-14.1,10c-11.1-7.5-26.2-4.6-33.7,6.5
			c-3.6,5.3-5,11.8-3.8,18.1l-12.1,10.2c-10.1-8.8-25.4-7.7-34.2,2.4c-0.7,0.9-1.4,1.8-2,2.7l-8.3-3.4c-4-12.8-17.6-20.1-30.4-16.1
			s-20.1,17.6-16.1,30.4s17.6,20.1,30.4,16.1c5.4-1.7,10.1-5.2,13.2-10l8.3,3.4c4,12.8,17.6,20,30.4,16.1
			c9.9-3.1,16.8-12.1,17.1-22.5l15.2-12.8c11.5,6.9,26.4,3.1,33.3-8.5c2.2-3.8,3.4-8,3.4-12.4c0-1-0.1-2-0.2-3l13.7-9.7
			c10.9,7.8,26.1,5.2,33.9-5.8S354.8,129.6,343.8,121.8z M174.2,202c-2.4,0-4.3-1.9-4.3-4.3s1.9-4.3,4.3-4.3c2.4,0,4.3,1.9,4.3,4.3
			C178.5,200.1,176.5,202,174.2,202z M226.1,211.4c-2.4,0-4.3-1.9-4.3-4.3c0-2.4,1.9-4.3,4.3-4.3c2.4,0,4.3,1.9,4.3,4.3
			C230.4,209.5,228.4,211.4,226.1,211.4z M277.9,178.4c-2.4,0-4.3-1.9-4.3-4.3c0-2.4,1.9-4.3,4.3-4.3c2.4,0,4.3,1.9,4.3,4.3
			C282.3,176.5,280.3,178.4,277.9,178.4z M329.8,145.8c-2.4,0-4.3-1.9-4.3-4.3s1.9-4.3,4.3-4.3c2.4,0,4.3,1.9,4.3,4.3
			C334.1,143.9,332.2,145.8,329.8,145.8z"/>
	</g>
</g>
<g>
	<g>
		<path d="M342,170.2h-25c-5.5,0-10,4.5-10,10v107c0,5.5,4.5,10,10,10h25c5.5,0,10-4.5,10-10v-107C352,174.7,347.5,170.2,342,170.2z
			 M333,277.2h-6v-87h6V277.2z"/>
	</g>
</g>
<g>
	<g>
		<path d="M290,202.2h-25c-5.5,0-10,4.5-10,10v75c0,5.5,4.5,10,10,10h25c5.5,0,10-4.5,10-10v-75C300,206.7,295.5,202.2,290,202.2z
			 M281,277.2h-6v-55h6V277.2z"/>
	</g>
</g>
<g>
	<g>
		<path d="M238,235.2h-25c-5.5,0-10,4.5-10,10v41c0,5.5,4.5,10,10,10h25c5.5,0,10-4.5,10-10v-41C248,239.7,243.5,235.2,238,235.2z
			 M229,277.2h-6v-22h6V277.2z"/>
	</g>
</g>
<g>
	<g>
		<path d="M186,226.2h-25c-5.5,0-10,4.5-10,10v51c0,5.5,4.5,10,10,10h25c5.5,0,10-4.5,10-10v-51C196,230.7,191.5,226.2,186,226.2z
			 M177,277.2h-6v-31h6V277.2z"/>
	</g>
</g>
<g>
</g>
<g>
</g>
<g>
</g>
<g>
</g>
<g>
</g>
<g>
</g>
<g>
</g>
<g>
</g>
<g>
</g>
<g>
</g>
<g>
</g>
<g>
</g>
<g>
</g>
<g>
</g>
<g>
</g>
</svg>
