<?xml version="1.0" encoding="iso-8859-1"?>
<!-- Generator: Adobe Illustrator 19.0.0, SVG Export Plug-In . SVG Version: 6.00 Build 0)  -->
<svg version="1.1" id="Capa_1" xmlns="http://www.w3.org/2000/svg" xmlns:xlink="http://www.w3.org/1999/xlink" x="0px" y="0px"
	 viewBox="0 0 500 500" style="enable-background:new 0 0 500 500;" xml:space="preserve">
<g>
	<g>
		<path d="M178.7,99.8H118c-5.4-0.1-9.9,4.2-10.1,9.6v0.1v253c0,5.6,4.5,10.1,10.1,10.2h60.7c5.6-0.1,10.2-4.6,10.3-10.2v-253
			C189,104,184.3,99.8,178.7,99.8z M169,352.8h-41v-84h41V352.8z M169,248.8h-41v-129h41V248.8z"/>
	</g>
</g>
<g>
	<g>
		<path d="M70.6,179.8H10c-5.6,0.1-10,4.7-10,10.2v172.5c0,5.6,4.4,10.1,10,10.2h60.7c5.6-0.1,10.2-4.6,10.4-10.2V190
			C80.9,184.4,76.3,179.9,70.6,179.8z M61,352.8H20v-84h41V352.8z M61,248.8H20v-49h41V248.8z"/>
	</g>
</g>
<g>
	<g>
		<path d="M406,233.2V17.6c0-5.4-4.3-9.7-9.7-9.8c-0.1,0-0.2,0-0.2,0h-61.8c-5.5,0-10.3,4.2-10.3,9.8v217.3c-9,3.4-19,7.9-27,13.3
			V63.6c-0.1-5.5-4.6-9.8-10.1-9.8c0,0,0,0-0.1,0h-60.7c-5.5-0.1-10,4.2-10.2,9.7c0,0,0,0,0,0.1v299c0.1,5.6,4.6,10.1,10.2,10.2h9.9
			c6.7,67.7,63.6,119.4,131.6,119.4c73.1,0,132.4-59.4,132.4-132.4C500,300.2,460,249.7,406,233.2z M344,27.8h42v201
			c-6.1-0.8-12.3-1.3-18.4-1.3c-7.9,0-15.8,0.7-23.6,2.1V27.8z M236,73.8h41v175h-41V73.8z M236,268.8h35.6
			c-19.5,21-32.6,47.8-35.6,77.6V268.8z M367.8,472c-62,0-112.3-50.3-112.3-112.3s50.3-112.3,112.3-112.3S480,297.8,480,359.8
			S429.7,472,367.8,472z"/>
	</g>
</g>
<g>
	<g>
		<path d="M423.6,299.8c-0.1,0-0.1,0-0.2,0H417v-19.2c-0.1-5.5-4.7-9.9-10.3-9.8h-77.4c-5.5,0-10.3,4.3-10.3,9.8v19.2h-6.3
			c-5.4,0-9.7,4.4-9.7,9.8c0,0.1,0,0.1,0,0.2v123.7c0,5.5,4.2,10.3,9.7,10.3h110.7c5.5,0,9.6-4.8,9.6-10.3V309.8
			C433.2,304.5,429,300,423.6,299.8z M339,290.8h58v9h-58V290.8z M381,423.8h-28v-18h28V423.8z M401,423.8v-28
			c-0.1-5.5-4.6-10-10.2-10h-47.6c-5.6,0-10.1,4.4-10.3,10v28h-10v-104h90v104H401z"/>
	</g>
</g>
<g>
	<g>
		<path d="M388,329.8h-40c-5.5,0-10,4.5-10,10s4.5,10,10,10h40c5.5,0,10-4.5,10-10S393.5,329.8,388,329.8z"/>
	</g>
</g>
<g>
	<g>
		<path d="M388,357.8h-40c-5.5,0-10,4.5-10,10s4.5,10,10,10h40c5.5,0,10-4.5,10-10S393.5,357.8,388,357.8z"/>
	</g>
</g>
<g>
</g>
<g>
</g>
<g>
</g>
<g>
</g>
<g>
</g>
<g>
</g>
<g>
</g>
<g>
</g>
<g>
</g>
<g>
</g>
<g>
</g>
<g>
</g>
<g>
</g>
<g>
</g>
<g>
</g>
</svg>
