<?xml version="1.0" encoding="iso-8859-1"?>
<!-- Generator: Adobe Illustrator 19.0.0, SVG Export Plug-In . SVG Version: 6.00 Build 0)  -->
<svg version="1.1" id="Capa_1" xmlns="http://www.w3.org/2000/svg" xmlns:xlink="http://www.w3.org/1999/xlink" x="0px" y="0px"
	 viewBox="0 0 496.4 496.4" style="enable-background:new 0 0 496.4 496.4;" xml:space="preserve">
<g>
	<g>
		<path d="M393.7,59.15l-0.1-0.1c-36.7-36-84.7-55.9-135.2-55.9c-5.5,0-10,4.5-10,10v181.2c0,5.5,4.5,9.9,10,9.9h181.2
			c5.5,0,10-4.4,10-9.9C449.6,143.85,429.8,95.85,393.7,59.15z M268.4,23.45c18.6,1,36.8,5.1,54,12.1l-54,54V23.45z M268.4,117.85
			l73.2-73.2c10.8,6,21,13.2,30.3,21.4l-103.5,103.6V117.85z M282,184.25l104.1-104.1c8.2,9.3,15.4,19.4,21.5,30.2l-73.9,73.9H282z
			 M362,184.25l54.8-54.8c7.2,17.5,11.4,36,12.5,54.8H362z"/>
	</g>
</g>
<g>
	<g>
		<path d="M486.8,227.25H380c-5.5,0-9.6,5-9.6,10.5v12.5h-169v-171c0-5.5-4.6-10-10.1-10c-50.8-0.2-99.6,20-135.4,56
			c-36,36.7-55.9,84.7-55.9,135.2c0,105.4,85.8,191.2,191.2,191.2c15.9,0,31.8-1.9,47.3-5.8c-6.3,11.5-9.5,24.4-9.5,37.5
			c0,5.5,4.5,9.9,10,9.9h137.7c5.5,0,10-4.4,10-9.9c-0.1-36.9-25.6-68.8-61.6-76.9c27.2-9.1,43.9-36.5,39.4-64.9
			c2.1-4.4,3.9-8.9,5.9-13.4v20.8c-0.1,4,2.3,7.7,6,9.2c1.2,0.5,2.4,0.8,3.7,0.8c2.7-0.1,5.2-1.2,7-3.1l22.3-22.6h77.4
			c5.1,0.2,9.4-3.9,9.6-9c0-0.2,0-0.4,0-0.6v-85.9C496.4,232.25,492.3,227.25,486.8,227.25z M365.8,473.25h-116
			c5.5-32,36-53.5,68-48C342.4,429.45,361.6,448.75,365.8,473.25z M307.8,389.15c-20.6,0-37.4-16.7-37.4-37.4
			c0-20.7,16.7-37.4,37.4-37.4c20.6,0,37.4,16.7,37.4,37.4C345.2,372.35,328.4,389.05,307.8,389.15z M353,316.35
			c-10.9-13.9-27.6-22-45.2-22c-31.7,0-57.4,25.7-57.4,57.3c0,22.7,13.3,43.2,34.1,52.4c-27.7,18.1-60.2,27.7-93.3,27.5
			c-94.4,0-171.2-76.8-171.2-171.2c0-45.3,17.9-88.3,50.2-121.1c29.6-29.7,69.2-47.4,111.2-49.7v170.9c-0.1,5.3,4.2,9.7,9.5,9.8
			c0.1,0,0.2,0,0.3,0h170.9C361.2,285.95,358.2,301.45,353,316.35z M476.4,313.25h-71.1c-2.6,0.1-5.1,1.2-6.9,3.1l-8,8.5v-77.6h86
			V313.25z"/>
	</g>
</g>
<g>
</g>
<g>
</g>
<g>
</g>
<g>
</g>
<g>
</g>
<g>
</g>
<g>
</g>
<g>
</g>
<g>
</g>
<g>
</g>
<g>
</g>
<g>
</g>
<g>
</g>
<g>
</g>
<g>
</g>
</svg>
