<?xml version="1.0" encoding="iso-8859-1"?>
<!-- Generator: Adobe Illustrator 19.0.0, SVG Export Plug-In . SVG Version: 6.00 Build 0)  -->
<svg version="1.1" id="Capa_1" xmlns="http://www.w3.org/2000/svg" xmlns:xlink="http://www.w3.org/1999/xlink" x="0px" y="0px"
	 viewBox="0 0 495.902 495.902" style="enable-background:new 0 0 495.902 495.902;" xml:space="preserve">
<g>
	<g>
		<path d="M179.2,93.001h-60.7c-5.5,0-9.6,4.7-9.6,10.2v253c-0.2,5.2,3.9,9.6,9.1,9.7c0.2,0,0.3,0,0.5,0h60.7
			c5.3,0.1,9.7-4.1,9.8-9.4c0-0.1,0-0.2,0-0.3v-253C189.1,97.701,184.8,93.101,179.2,93.001z M169,346.001h-40v-83h40V346.001z
			 M169,243.001h-40v-130h40V243.001z"/>
	</g>
</g>
<g>
	<g>
		<path d="M71.5,174.001c-0.2,0-0.3,0-0.4,0H10.5c-5.5,0-10.5,4.2-10.5,9.8v172.5c0,5.5,4.9,9.8,10.5,9.8h60.7
			c5.3,0.1,9.8-4.1,9.9-9.5c0-0.1,0-0.2,0-0.3v-172.5C81.1,178.501,76.9,174.101,71.5,174.001z M61,346.001H20v-83h41V346.001z
			 M61,243.001H20v-49h41V243.001z"/>
	</g>
</g>
<g>
	<g>
		<path d="M485.5,259.001H407v-247.8c-0.2-5.7-4.8-10.2-10.4-10.2h-61.8c-5.5,0.1-9.9,4.7-9.8,10.2v288.6
			c-6.9-2.7-14.2-4.1-21.5-4.1c-2.2,0-4.3,0.1-6.5,0.3v-238.8c0-5.5-4.1-10.2-9.7-10.2h-60.7c-5.5,0-9.7,4.7-9.7,10.2v299
			c-0.1,5.3,4,9.6,9.3,9.7c0.1,0,0.3,0,0.4,0h21c4.6,19.8,19.2,35.6,38.6,41.7c-36,8.2-61.6,40.2-61.6,77.1c0,5.6,4.4,10.1,10,10.2
			h137.7c5.5-0.1,10-4.6,10-10.1c0-36.9-25.6-68.9-61.6-77.1c19.3-6.1,34-22,38.6-41.8h9.6v14.4c-0.1,4,2.3,7.7,6,9.2
			c1.2,0.5,2.5,0.8,3.7,0.8c2.6,0,5.2-1.1,7-2.9l22.4-22.4h77.4c5.5,0,10.5-4.4,10.5-10v-85.9
			C496,263.601,491.1,259.001,485.5,259.001z M237,67.001h40v176h-40V67.001z M246.6,346.001H237v-83h40v39.1
			C261,310.601,248.9,327.001,246.6,346.001z M361.5,475.001h-116c5.5-32,36-53.5,68-48C338.1,431.201,357.3,450.501,361.5,475.001z
			 M303.5,390.501c-20.6,0-37.4-16.7-37.4-37.4c0-20.7,16.7-37.4,37.4-37.4c20.6,0,37.4,16.7,37.4,37.4
			C340.9,373.701,324.2,390.501,303.5,390.501z M369,269.101v76.9h-8.5c-1.5-12-7.5-23.9-15.5-32.7v-50.3h26
			C369.6,264.001,369,266.701,369,269.101z M387,243.001h-42v-222h42V243.001z M476,345.001h-72c-2.6,0-5.1,1.1-6.9,2.9l-8.1,8.3
			v-77.2h87V345.001z"/>
	</g>
</g>
<g>
</g>
<g>
</g>
<g>
</g>
<g>
</g>
<g>
</g>
<g>
</g>
<g>
</g>
<g>
</g>
<g>
</g>
<g>
</g>
<g>
</g>
<g>
</g>
<g>
</g>
<g>
</g>
<g>
</g>
</svg>
