<?xml version="1.0" encoding="iso-8859-1"?>
<!-- Generator: Adobe Illustrator 19.0.0, SVG Export Plug-In . SVG Version: 6.00 Build 0)  -->
<svg version="1.1" id="Capa_1" xmlns="http://www.w3.org/2000/svg" xmlns:xlink="http://www.w3.org/1999/xlink" x="0px" y="0px"
	 viewBox="0 0 508.302 508.302" style="enable-background:new 0 0 508.302 508.302;" xml:space="preserve">
<g>
	<g>
		<path d="M493.85,243.3c-0.1,0.1-0.2,0.1-0.4,0.1h-45.3V10c0-5.5-4.5-10-10-10c-2.9,0-5.7,1.3-7.6,3.5L384.45,58l-29-16
			c-4.5-2.5-10.2-1.2-13.1,3.1l-33.9,49.3l-38-9.4c-3.7-0.9-7.6,0.4-10,3.3l-33.5,39.9l-39.4-36.8c-3-2.9-7.5-3.5-11.3-1.6l-30.1,15
			l-43-37.6c-2-1.8-4.7-2.7-7.4-2.4c-2.6,0.2-5.1,1.5-6.7,3.5l-23.9,28.6V57.1c0-5.5-4.8-9.7-10.3-9.7h-40c-5.2-0.1-9.6,4.1-9.7,9.3
			c0,0.1,0,0.3,0,0.4v336.3c-0.1,16.4,13.1,29.8,29.5,29.9c0.1,0,0.1,0,0.2,0h256.2c-32.9,10.2-55.4,40.7-55.4,75.1
			c0,5.5,4.4,9.9,9.9,9.9h0.1h137.7c5.5,0.1,9.9-4.3,10-9.8v-0.1c0-34.5-22.5-64.9-55.4-75.1h126.2c5.5,0,10-4.4,10-9.9v-40
			c0-5.5-4.5-10-10-10.1h-16v-14h45.3c5.5,0,9.7-4.8,9.7-10.4V253C503.25,247.8,499.15,243.4,493.85,243.3z M65.15,128l32.6-39
			l40.3,35.3c3,2.7,7.4,3.2,11,1.4l29.9-14.9l42,39.3c4,3.8,10.4,3.6,14.1-0.5c0.1-0.1,0.2-0.3,0.4-0.4l36.3-43.2l38.7,9.5
			c4,1,8.3-0.6,10.6-4.1l32.6-47.5l28.2,15.6c4.2,2.3,9.4,1.3,12.5-2.3l33.8-39.9v80.2l-38.8,5.4c-2.5,0.3-4.7,1.6-6.3,3.5
			l-34.7,41.4l-38.4-23.5c-4.2-2.6-9.7-1.7-12.9,2.1l-39,46.4l-46.5-19.2c-3.6-1.5-7.8-0.7-10.7,1.9l-37.7,35.4l-22.7-39.1
			c-2.8-4.8-8.9-6.4-13.7-3.6c-0.4,0.2-0.7,0.4-1,0.7l-31.2,23.9l-29.4-17.7V128z M65.15,198.4l24.9,15c3.5,2.1,7.9,1.9,11.1-0.6
			l27.7-21.1l23.3,40.2c2.8,4.8,8.9,6.4,13.6,3.6c0.7-0.4,1.3-0.8,1.8-1.4l42.3-39.6l47.3,19.5c4,1.7,8.7,0.5,11.5-2.8l38.2-45.4
			l38.4,23.5c4.2,2.6,9.7,1.7,12.9-2.1l37.8-45.1l32.2-4.5v79.6l-31.9-11.8c-4.5-1.6-9.5,0.1-12,4.2l-34.8,57.1l-35.1-23.3
			c-4.3-2.9-10.1-2-13.3,2.1l-36.5,45.2l-35.5-28.7c-3.5-2.8-8.4-3-12.1-0.4l-35.5,25.1l-44.3-28.3c-3.9-2.5-9-2-12.3,1.2l-35.4,34
			l-24.3-7.3V198.4z M428.15,238.6v4.8h-40.9l9.8-16.2L428.15,238.6z M34.85,403.4c-5.3,0-9.7-4.3-9.7-9.7c0-0.1,0-0.2,0-0.2V67.4
			h20v306.1c-0.1,5.3,4.1,9.8,9.4,9.9c0.1,0,0.2,0,0.3,0h204.7c2.3,7.3,5.9,14,10.6,20H34.85z M372.45,488.4h-116
			c4.8-27,29-48.8,58-48.8S367.75,461.4,372.45,488.4z M314.55,404.5c-20.7,0-37.4-16.7-37.4-37.4c0-20.6,16.7-37.4,37.4-37.4
			c20.7,0,37.4,16.7,37.4,37.4C351.95,387.7,335.25,404.5,314.55,404.5z M310.85,309.8c-28.8,1.8-51.7,24.8-53.6,53.6H65.15v-56.3
			l24.2,7.2c0.9,0.3,1.8,0.4,2.8,0.4c2.6,0,5-1,6.9-2.8l34-32.6l43.4,27.8c3.4,2.2,7.8,2.1,11.2-0.3l34.8-24.6l37.4,30.2
			c4.3,3.5,10.6,2.8,14.1-1.5l37-45.9l36.2,24c2.3,1.5,5,2,7.7,1.4c2.6-0.6,4.8-2.2,6.1-4.6l15.3-25.5v103.1h-4.5
			C369.75,331.8,342.45,307.8,310.85,309.8z M454.15,383.4v20h-95.3c4.7-6,8.3-12.7,10.6-20H454.15z M428.05,363.4h-26.4l14.4-14h12
			V363.4z M483.15,329.4h-71.2c-2.7-0.1-5.3,0.9-7.3,2.7l-8.5,8.1v-76.8h87V329.4z"/>
	</g>
</g>
<g>
</g>
<g>
</g>
<g>
</g>
<g>
</g>
<g>
</g>
<g>
</g>
<g>
</g>
<g>
</g>
<g>
</g>
<g>
</g>
<g>
</g>
<g>
</g>
<g>
</g>
<g>
</g>
<g>
</g>
</svg>
