<?xml version="1.0" encoding="iso-8859-1"?>
<!-- Generator: Adobe Illustrator 19.0.0, SVG Export Plug-In . SVG Version: 6.00 Build 0)  -->
<svg version="1.1" id="Capa_1" xmlns="http://www.w3.org/2000/svg" xmlns:xlink="http://www.w3.org/1999/xlink" x="0px" y="0px"
	 viewBox="0 0 501.6 501.6" style="enable-background:new 0 0 501.6 501.6;" xml:space="preserve">
<g>
	<g>
		<path d="M391,7.963l-101.9-7.2c-5.5-0.4-10.3,3.8-10.6,9.3c-0.4,5.5,3.7,10.2,9.2,10.6l75.8,5.4l-136.9,106.4l-102.2-80.5
			c-3.9-3.1-9.5-2.8-13.1,0.6l-104.2,99.9c-4,3.8-4.1,10.2-0.3,14.1c1.9,2,4.5,3.1,7.2,3.1c2.6,0,5.1-1,6.9-2.8l97.9-93.9l101.6,80
			c3.6,2.8,8.7,2.9,12.3,0l145.7-113.1l-5.5,71.8c-0.4,5.5,3.7,10.3,9.2,10.7c0.3,0,0.5,0,0.8,0c5.2,0,9.6-4,10-9.2l7.3-94.5
			C400.6,13.163,396.5,8.363,391,7.963z"/>
	</g>
</g>
<g>
	<g>
		<path d="M394.3,368.863h-22.7v-173.4c0-5.3-4.2-9.6-9.5-9.6c-0.1,0-0.2,0-0.3,0h-63.6c-5.1-0.1-9.4,3.9-9.5,9.1c0,0.2,0,0.4,0,0.6
			v107.6c-21.5,4-38.9,19.7-45,40.7v-116.4c0.1-5.1-3.9-9.4-9.1-9.6c-0.2,0-0.4,0-0.6,0h-63.6c-5.2-0.2-9.6,3.9-9.8,9.1
			c0,0.2,0,0.3,0,0.5v141.4h-44v-98.8c-0.2-5.6-4.7-10.1-10.4-10.2H42.6c-5.6,0.1-10,4.6-10,10.2v98.8H10c-5.5,0-10,4.5-10,10
			s4.5,10,10,10h240.2c7.1,12,18.4,20.9,31.7,25c-36,8.1-61.5,40.1-61.6,77c0,5.5,4.5,10,10,10H368c5.5,0,10-4.4,10-9.9
			c0-36.9-25.6-68.9-61.6-77.1c13.3-4.1,24.6-13,31.7-25h46.2c5.5,0,10-4.5,10-10S399.8,368.863,394.3,368.863z M96.6,368.863h-44
			v-89h44V368.863z M223.6,368.863h-43v-131h43V368.863z M357.2,480.863h-116c5.5-32,36-53.5,68-48
			C333.7,437.063,352.9,456.363,357.2,480.863z M299.2,396.763c-20.6,0-37.4-16.7-37.4-37.4c0-20.7,16.7-37.4,37.4-37.4
			c20.6,0,37.4,16.7,37.4,37.4C336.5,379.963,319.8,396.663,299.2,396.763z M351.6,336.363c-8-17.6-24-30.6-43-33.7v-96.8h43
			V336.363z"/>
	</g>
</g>
<g>
	<g>
		<path d="M491.2,234.863H384.3c-5.5,0-9.7,5-9.7,10.5v111.2c-0.1,4,2.3,7.7,6,9.2c1.2,0.5,2.5,0.8,3.8,0.8c2.7-0.1,5.2-1.2,7-3.1
			l22.4-22.6h77.4c5.5,0,10.4-4.1,10.4-9.6v-85.9C501.4,239.663,496.9,235.063,491.2,234.863z M481.7,320.863h-0.1h-71.9
			c-2.6,0.1-5.1,1.2-6.9,3.1l-8.1,8.5v-77.6h87V320.863z"/>
	</g>
</g>
<g>
</g>
<g>
</g>
<g>
</g>
<g>
</g>
<g>
</g>
<g>
</g>
<g>
</g>
<g>
</g>
<g>
</g>
<g>
</g>
<g>
</g>
<g>
</g>
<g>
</g>
<g>
</g>
<g>
</g>
</svg>
