<?xml version="1.0" encoding="iso-8859-1"?>
<!-- Generator: Adobe Illustrator 19.0.0, SVG Export Plug-In . SVG Version: 6.00 Build 0)  -->
<svg version="1.1" id="Capa_1" xmlns="http://www.w3.org/2000/svg" xmlns:xlink="http://www.w3.org/1999/xlink" x="0px" y="0px"
	 viewBox="0 0 490.1 490.1" style="enable-background:new 0 0 490.1 490.1;" xml:space="preserve">
<g>
	<g>
		<path d="M99,191.05H10c-5.5,0-10,4.5-10,10v120c0,5.5,4.5,10,10,10h89c5.5,0,10-4.5,10-10v-120C109,195.55,104.5,191.05,99,191.05
			z M89,311.05H20v-100h69V311.05z"/>
	</g>
</g>
<g>
	<g>
		<path d="M480.1,205.05H408v-176c0.2-5.4-4-9.9-9.4-10c-0.1,0-0.1,0-0.2,0h-89c-5.6,0-10.2,4.4-10.4,10v243
			c-15.4,0.5-29.9,7.3-40,18.9v-160.1c0-5.5-4.9-9.8-10.4-9.8h-89c-5.3-0.1-9.6,4.2-9.6,9.4c0,0.1,0,0.3,0,0.4v190.1
			c0,5.5,4.1,10.1,9.6,10.1h84.2c0.7,24.4,16.8,45.8,40.1,53.1c-36,8.1-61.5,40-61.6,76.9c0,5.5,4.5,10,10,10H370
			c5.5,0,10-4.5,10-10c-0.1-36.9-25.6-68.8-61.6-76.9c23.3-7.4,39.4-28.7,40.1-53.1h5.8c1.1,2.2,3,3.9,5.2,4.9
			c1.2,0.5,2.5,0.7,3.8,0.7c2.7-0.1,5.2-1.2,7.1-3.1l22.4-22.5h77.4c5.4,0.1,9.8-4.2,9.9-9.5c0-0.1,0-0.2,0-0.2v-85.9
			C490,209.85,485.6,205.05,480.1,205.05z M239,311.05h-69v-170h69V311.05z M359.1,451.05h-116c5.5-32,36-53.5,68-48
			C335.7,407.25,354.9,426.55,359.1,451.05z M301.1,366.75c-20.6,0-37.4-16.7-37.4-37.4c0-20.6,16.7-37.4,37.4-37.4
			c20.6,0,37.4,16.7,37.4,37.4C338.5,350.05,321.8,366.75,301.1,366.75z M373.3,205.05c-5.6,0.1-10.2,4.7-10.3,10.3v95.7h-7.6
			c-5.9-17-19.3-30.4-36.4-36v-236h69v166H373.3z M470,291.05h-71.4c-2.7,0-5.3,1.1-7.2,3l-8.4,8.4v-77.4h87V291.05z"/>
	</g>
</g>
<g>
</g>
<g>
</g>
<g>
</g>
<g>
</g>
<g>
</g>
<g>
</g>
<g>
</g>
<g>
</g>
<g>
</g>
<g>
</g>
<g>
</g>
<g>
</g>
<g>
</g>
<g>
</g>
<g>
</g>
</svg>
