<?xml version="1.0" encoding="iso-8859-1"?>
<!-- Generator: Adobe Illustrator 19.0.0, SVG Export Plug-In . SVG Version: 6.00 Build 0)  -->
<svg version="1.1" id="Capa_1" xmlns="http://www.w3.org/2000/svg" xmlns:xlink="http://www.w3.org/1999/xlink" x="0px" y="0px"
	 viewBox="0 0 493.859 493.859" style="enable-background:new 0 0 493.859 493.859;" xml:space="preserve">
<g>
	<g>
		<path d="M194.833,262.759h-56c-5.5,0-10,4.5-10,10v92c0,5.5,4.5,10,10,10h56c5.5,0,10-4.5,10-10v-92
			C204.833,267.259,200.333,262.759,194.833,262.759z M184.833,355.759h-36v-73h36V355.759z"/>
	</g>
</g>
<g>
	<g>
		<path d="M79.833,242.759h-56c-5.5,0-10,4.5-10,10v113c0,5.5,4.5,10,10,10h56c5.5,0,10-4.5,10-10v-113
			C89.833,247.259,85.333,242.759,79.833,242.759z M69.833,355.759h-36v-93h36V355.759z"/>
	</g>
</g>
<g>
	<g>
		<path d="M428.133,13.159c-15.7-16.8-42.2-17.6-59-1.9c-11.3,10.6-15.8,26.5-11.7,41.4l-45.3,32.1c-16.2-16.4-42.7-16.6-59.1-0.4
			c-11.6,11.5-15.5,28.6-9.9,44l-41.8,35.2c-13.2-18.9-39.2-23.6-58.2-10.4c-7.2,5-12.6,12.2-15.5,20.4l-34.7-14.1
			c-3.9-22.8-25.4-38.1-48.2-34.2c-22.8,3.9-38.1,25.4-34.2,48.2c3.9,22.8,25.4,38.1,48.2,34.2c15-2.5,27.4-13,32.5-27.3l34.7,14.1
			c3.9,22.8,25.4,38.1,48.2,34.2c20.1-3.4,34.8-20.8,34.8-41.2c0-1.3-0.1-2.7-0.2-4l45.6-38.4c17.1,15.5,43.5,14.3,59-2.8
			c9.9-10.9,13.3-26.2,9.1-40.2l44.8-31.8c15.8,16.8,42.2,17.6,59,1.9C443.033,56.358,443.833,29.959,428.133,13.159z
			 M51.733,188.359c-12,0-21.8-9.8-21.8-21.8s9.7-21.8,21.8-21.8c12,0,21.8,9.8,21.8,21.8S63.733,188.359,51.733,188.359z
			 M167.033,209.359c-12,0-21.8-9.8-21.8-21.8s9.8-21.8,21.8-21.8s21.8,9.8,21.8,21.8S179.133,209.359,167.033,209.359z
			 M282.433,135.859c-12,0-21.8-9.8-21.8-21.8c0-12,9.8-21.7,21.8-21.8c12,0,21.8,9.8,21.8,21.8S294.433,135.859,282.433,135.859z
			 M397.833,63.459c-12,0-21.8-9.8-21.8-21.8s9.7-21.8,21.8-21.8c12,0,21.8,9.8,21.8,21.8S409.833,63.459,397.833,63.459z"/>
	</g>
</g>
<g>
	<g>
		<path d="M312.033,406.759c23.9-7.5,40.1-29.7,40.2-54.7c0-22.3-13.4-41.7-31.4-51.2v-101.7c-0.1-5.6-4.6-10.2-10.2-10.4h-56.3
			c-5.7,0.1-10.3,4.7-10.4,10.4v125.7c-4.3,8.4-6.6,17.7-6.7,27.2c0.1,25,16.3,47.2,40.2,54.7c-36,8.1-61.5,40.1-61.5,77
			c0,5.5,4.5,10,10.1,10.1h137.7c5.5,0,10-4.5,10-10.1C373.533,446.858,348.033,414.858,312.033,406.759z M263.833,208.759h37v86.2
			c-2-0.2-4.2-0.3-6.2-0.3c-10.9,0-21.6,3.1-30.8,8.8V208.759z M257.433,352.059c0-20.6,16.7-37.4,37.4-37.4
			c20.6,0,37.4,16.7,37.4,37.4c0,20.6-16.7,37.4-37.4,37.4C274.133,389.358,257.433,372.658,257.433,352.059z M236.733,473.759
			c5.5-32,36-53.5,68-48c24.5,4.2,43.8,23.5,48,48H236.733z"/>
	</g>
</g>
<g>
	<g>
		<path d="M473.733,227.759h-37.9v-100.8c0.1-5.5-4.3-10.1-9.9-10.2h-56.3c-5.5,0.1-9.9,4.7-9.8,10.2v104.2c-1.9,1.7-3,4.2-3,6.8
			v111.2c0,5.5,4.5,10,10,10c2.7,0,5.3-1.1,7.2-3l22.4-22.5h77.4c5.5,0.1,10-4.3,10.1-9.8c0,0,0,0,0-0.1v-85.9
			C483.833,232.459,479.333,227.859,473.733,227.759z M379.833,136.759h36v91h-36V136.759z M463.833,313.759h-71.6
			c-2.7,0-5.2,1.1-7.1,3l-8.3,8.4v-77.4h87V313.759z"/>
	</g>
</g>
<g>
</g>
<g>
</g>
<g>
</g>
<g>
</g>
<g>
</g>
<g>
</g>
<g>
</g>
<g>
</g>
<g>
</g>
<g>
</g>
<g>
</g>
<g>
</g>
<g>
</g>
<g>
</g>
<g>
</g>
</svg>
