<?xml version="1.0" encoding="iso-8859-1"?>
<!-- Generator: Adobe Illustrator 19.0.0, SVG Export Plug-In . SVG Version: 6.00 Build 0)  -->
<svg version="1.1" id="Capa_1" xmlns="http://www.w3.org/2000/svg" xmlns:xlink="http://www.w3.org/1999/xlink" x="0px" y="0px"
	 viewBox="0 0 488.437 488.437" style="enable-background:new 0 0 488.437 488.437;" xml:space="preserve">
<g>
	<g>
		<path d="M380.819,72.537c-0.1,0-0.2,0-0.3,0h-47.7l-0.3-2.5c-1.9-15-14.6-26.3-29.8-26.5h-13.2c-1-25-22.1-44.5-47.1-43.5
			c-23.7,0.9-42.6,19.9-43.5,43.5h-13.2c-15.1,0.2-27.9,11.5-29.8,26.5l-0.3,2.5h-47.7c-27.3-0.1-49.6,22-49.7,49.3
			c0,0.1,0,0.2,0,0.3v316.7c-0.1,27.3,22,49.6,49.4,49.6c0.1,0,0.2,0,0.3,0h272.6c27.3,0.1,49.6-22,49.7-49.3c0-0.1,0-0.2,0-0.3
			v-316.6C430.319,94.937,408.219,72.637,380.819,72.537z M175.719,72.337c0.6-5,4.9-8.8,9.9-8.8h23.2c5.5,0,10.4-4.3,10.4-9.8v-8.2
			c0-13.8,11.2-25,25-25s25,11.2,25,25v8.2c0,5.5,4.8,9.8,10.4,9.8h23.2c5.1,0.1,9.3,3.8,9.9,8.8l4.3,34.2h-145.6L175.719,72.337z
			 M380.919,468.537c-0.1,0-0.3,0-0.4,0h-272.6c-16.3,0.1-29.6-13-29.7-29.3c0-0.1,0-0.3,0-0.4v-316.6c-0.1-16.3,13-29.6,29.3-29.7
			c0.1,0,0.3,0,0.4,0h45.1l-2.9,22.9c-0.4,2.8,0.5,5.7,2.4,7.8c1.9,2.1,4.6,3.3,7.5,3.3h168.3c2.9,0,5.6-1.2,7.5-3.4
			c1.9-2.1,2.8-4.9,2.4-7.7l-2.9-22.9h45.1c16.3-0.1,29.6,13,29.7,29.3c0,0.1,0,0.3,0,0.4v316.7h0.1
			C410.319,455.237,397.219,468.537,380.919,468.537z"/>
	</g>
</g>
<g>
	<g>
		<path d="M337.919,403.537h-187.4c-5.5,0-10,4.5-10,10s4.5,10,10,10h187.5c5.5,0,10-4.5,10-10S343.519,403.537,337.919,403.537z"/>
	</g>
</g>
<g>
	<g>
		<path d="M289.219,193.537h-32.5c-5.6,0-10.2,4.5-10.4,10.1v160.4c0.1,5.7,4.6,10.3,10.3,10.5h32.6c5.5,0,10-4.9,10-10.4v-160.5
			C299.219,198.037,294.719,193.537,289.219,193.537z M279.219,354.537h-13v-36h13V354.537z M279.219,298.537h-13v-85h13V298.537z"
			/>
	</g>
</g>
<g>
	<g>
		<path d="M231.319,218.537h-0.1h-32.6c-5.5,0-10.4,4.3-10.4,9.8v135.7c0.2,5.7,4.7,10.3,10.4,10.5h32.6c5.5,0,10-4.9,10-10.4
			v-135.8C241.219,222.937,236.719,218.537,231.319,218.537z M221.219,354.537h-13v-36h13V354.537z M221.219,298.537h-13v-60h13
			V298.537z"/>
	</g>
</g>
<g>
	<g>
		<path d="M173.219,261.537h-32.6c-5.5,0-10.4,4.5-10.4,10v92.6c0.2,5.7,4.7,10.3,10.4,10.4h32.6c5.5,0,10-4.9,10-10.4v-92.6
			C183.219,266.037,178.719,261.537,173.219,261.537z M163.219,354.537h-13v-36h13V354.537z M163.219,298.537h-13v-17h13V298.537z"
			/>
	</g>
</g>
<g>
	<g>
		<path d="M347.819,168.537h-33.2c-5.7,0.2-10.3,4.8-10.4,10.4v185.1c0.2,5.7,4.7,10.3,10.4,10.5h33.2c5.7-0.2,10.3-4.8,10.4-10.4
			v-185.1C358.019,173.337,353.519,168.737,347.819,168.537z M338.219,354.537h-14v-36h14V354.537z M338.219,298.537h-14v-110h14
			V298.537z"/>
	</g>
</g>
<g>
</g>
<g>
</g>
<g>
</g>
<g>
</g>
<g>
</g>
<g>
</g>
<g>
</g>
<g>
</g>
<g>
</g>
<g>
</g>
<g>
</g>
<g>
</g>
<g>
</g>
<g>
</g>
<g>
</g>
</svg>
