<?xml version="1.0" encoding="iso-8859-1"?>
<!-- Generator: Adobe Illustrator 19.0.0, SVG Export Plug-In . SVG Version: 6.00 Build 0)  -->
<svg version="1.1" id="Capa_1" xmlns="http://www.w3.org/2000/svg" xmlns:xlink="http://www.w3.org/1999/xlink" x="0px" y="0px"
	 viewBox="0 0 488.437 488.437" style="enable-background:new 0 0 488.437 488.437;" xml:space="preserve">
<g>
	<g>
		<path d="M380.819,72.537c-0.1,0-0.2,0-0.3,0h-47.7l-0.3-2.5c-1.9-15-14.6-26.3-29.8-26.5h-13.2c-1-25-22.1-44.5-47.1-43.5
			c-23.7,0.9-42.6,19.9-43.5,43.5h-13.2c-15.1,0.2-27.9,11.5-29.8,26.5l-0.3,2.5h-47.7c-27.3-0.1-49.6,22-49.7,49.3
			c0,0.1,0,0.2,0,0.3v316.7c-0.1,27.3,22,49.6,49.4,49.6c0.1,0,0.2,0,0.3,0h272.6c27.3,0.1,49.6-22,49.7-49.3c0-0.1,0-0.2,0-0.3
			v-316.6C430.319,94.937,408.219,72.637,380.819,72.537z M175.719,72.337c0.6-5,4.9-8.8,9.9-8.8h23.2c5.5,0,10.4-4.3,10.4-9.8v-8.2
			c0-13.8,11.2-25,25-25s25,11.2,25,25v8.2c0,5.5,4.8,9.8,10.4,9.8h23.2c5.1,0.1,9.3,3.8,9.9,8.8l4.3,34.2h-145.6L175.719,72.337z
			 M380.919,468.537c-0.1,0-0.3,0-0.4,0h-272.6c-16.3,0.1-29.6-13-29.7-29.3c0-0.1,0-0.3,0-0.4v-316.6c-0.1-16.3,13-29.6,29.3-29.7
			c0.1,0,0.3,0,0.4,0h45.1l-2.9,22.9c-0.4,2.8,0.5,5.7,2.4,7.8c1.9,2.1,4.6,3.3,7.5,3.3h168.3c2.9,0,5.6-1.2,7.5-3.4
			c1.9-2.1,2.8-4.9,2.4-7.7l-2.9-22.9h45.1c16.3-0.1,29.6,13,29.7,29.3c0,0.1,0,0.3,0,0.4v316.7h0.1
			C410.319,455.237,397.219,468.537,380.919,468.537z"/>
	</g>
</g>
<g>
	<g>
		<path d="M337.919,403.537h-187.4c-5.5,0-10,4.5-10,10s4.5,10,10,10h187.5c5.5,0,10-4.5,10-10S343.519,403.537,337.919,403.537z"/>
	</g>
</g>
<g>
	<g>
		<path d="M356.819,252.037c-2.5-22.1-11.2-42.8-25.3-59.8c-3.2-3.8-8.8-4.4-12.7-1.2c-0.2,0.2-0.4,0.4-0.6,0.6l-38.8,38.6
			c-3,3-3.5,7.7-1.2,11.3c2.7,4.4,4.7,9.2,6,14.3c1,4,4.6,6.8,8.7,6.8h53.7c0.3,0,0.7,0,1,0h0.2c4,0,7.6-2.7,8.7-6.5
			c0.2-0.8,0.4-1.6,0.4-2.5C356.919,253.137,356.919,252.537,356.819,252.037z M299.519,244.537c-0.7-2-1.6-4.2-2.6-6.4l26.6-26.5
			c6.6,10,11.3,21.2,13.7,32.9H299.519z"/>
	</g>
</g>
<g>
	<g>
		<path d="M316.719,177.437c-0.2-0.2-0.4-0.4-0.6-0.6c-17.2-14.2-38.2-23-60.4-25.1c-4.9-0.7-9.5,2.7-10.2,7.6
			c-0.1,0.4-0.1,0.9-0.1,1.3v54.9c-0.2,4.2,2.9,7.9,7.2,8.7c4.9,1,9.6,3,13.9,5.8c3.6,2.3,8.3,1.9,11.3-1.1l38.9-38.8
			C320.219,186.637,320.219,180.937,316.719,177.437z M269.919,211.337c-2.2-1.1-4.4-2-6.7-2.8v-37.6c11.9,2.4,23.2,7.1,33.3,13.8
			L269.919,211.337z"/>
	</g>
</g>
<g>
	<g>
		<path d="M232.319,151.637c-0.3,0-0.6,0-0.9,0c-25.8,2.6-49.8,14.1-68,32.5c-18.1,18.5-29.3,42.6-31.8,68.4
			c-0.5,4.9,3.1,9.3,8.1,9.8c0.2,0.2,0.5,0.2,0.8,0.2h54.9c4.2,0,7.9-2.9,8.8-7.1c3.2-14.4,16.1-27.7,30.2-31.1c4-1,6.9-4.6,6.9-8.8
			v-54.9C241.319,155.637,237.319,151.637,232.319,151.637z M223.219,209.037c-15.4,6.1-28.7,19.8-34.5,35.5h-37.8
			c3.6-18,12.4-34.5,25.3-47.6c12.8-13,29.2-21.9,47-25.7V209.037z"/>
	</g>
</g>
<g>
	<g>
		<path d="M235.719,304.037c-0.1,0-0.1,0-0.2,0c-15.8-3.3-28.1-15.7-31.5-31.5c-0.9-4.2-4.6-7.1-8.8-7.1h-55c-2.5,0-4.9,1-6.7,2.9
			c-1.7,1.9-2.5,4.4-2.3,6.9c5.4,53.6,47.7,96.1,101.2,101.5c0.3,0,0.6,0,0.9,0c4.9,0,9-4,9-8.9c0,0,0.1-13.7,0.2-27.5
			c0.1-6.9,0.1-13.7,0.1-18.9c0-2.6,0-4.7,0-6.3c0-0.8,0-1.4,0-1.8C242.619,306.037,236.819,304.237,235.719,304.037z
			 M224.319,357.337c-37.1-7.8-66-36.8-73.7-73.9l37.8-0.1c5.9,17,19.2,30.4,36.2,36.3
			C224.619,328.137,224.419,343.537,224.319,357.337z"/>
	</g>
</g>
<g>
	<g>
		<path d="M348.519,266.537c-0.2,0-0.5,0-0.8,0h-54.9c-4.2,0-7.8,2.9-8.8,7c-3.4,15.1-16.4,27.9-31.6,31c-4.2,0.9-7.2,4.5-7.2,8.8
			l-0.2,54.9c0,5,4,9,9,9c0.3,0,0.7,0,1-0.1h0.1c53.5-5.2,96.2-47.6,101.5-100.8C357.119,271.437,353.519,266.937,348.519,266.537z
			 M279.319,353.137l-16.2-16.2l0.1-16.7c2.6-0.9,5.2-2,7.6-3.3l26.6,26.6C291.719,347.337,285.719,350.537,279.319,353.137z
			 M311.419,331.937l-25.9-25.9c4.7-4.6,8.6-10,11.6-16l26.7,26.7C320.219,322.237,316.019,327.337,311.419,331.937z
			 M332.519,300.037l-15.5-15.5h20.2C336.119,289.837,334.519,295.037,332.519,300.037z"/>
	</g>
</g>
<g>
</g>
<g>
</g>
<g>
</g>
<g>
</g>
<g>
</g>
<g>
</g>
<g>
</g>
<g>
</g>
<g>
</g>
<g>
</g>
<g>
</g>
<g>
</g>
<g>
</g>
<g>
</g>
<g>
</g>
</svg>
