<?xml version="1.0" encoding="iso-8859-1"?>
<!-- Generator: Adobe Illustrator 19.0.0, SVG Export Plug-In . SVG Version: 6.00 Build 0)  -->
<svg version="1.1" id="Capa_1" xmlns="http://www.w3.org/2000/svg" xmlns:xlink="http://www.w3.org/1999/xlink" x="0px" y="0px"
	 viewBox="0 0 488.437 488.437" style="enable-background:new 0 0 488.437 488.437;" xml:space="preserve">
<g>
	<g>
		<path d="M380.819,72.537c-0.1,0-0.2,0-0.3,0h-47.7l-0.3-2.5c-1.9-15-14.6-26.3-29.8-26.5h-13.2c-1-25-22.1-44.5-47.1-43.5
			c-23.7,0.9-42.6,19.9-43.5,43.5h-13.2c-15.1,0.2-27.9,11.5-29.8,26.5l-0.3,2.5h-47.7c-27.3-0.1-49.6,22-49.7,49.3
			c0,0.1,0,0.2,0,0.3v316.7c-0.1,27.3,22,49.6,49.4,49.6c0.1,0,0.2,0,0.3,0h272.6c27.3,0.1,49.6-22,49.7-49.3c0-0.1,0-0.2,0-0.3
			v-316.6C430.319,94.937,408.219,72.637,380.819,72.537z M175.719,72.337c0.6-5,4.9-8.8,9.9-8.8h23.2c5.5,0,10.4-4.3,10.4-9.8v-8.2
			c0-13.8,11.2-25,25-25s25,11.2,25,25v8.2c0,5.5,4.8,9.8,10.4,9.8h23.2c5.1,0.1,9.3,3.8,9.9,8.8l4.3,34.2h-145.6L175.719,72.337z
			 M380.919,468.537c-0.1,0-0.3,0-0.4,0h-272.6c-16.3,0.1-29.6-13-29.7-29.3c0-0.1,0-0.3,0-0.4v-316.6c-0.1-16.3,13-29.6,29.3-29.7
			c0.1,0,0.3,0,0.4,0h45.1l-2.9,22.9c-0.4,2.8,0.5,5.7,2.4,7.8c1.9,2.1,4.6,3.3,7.5,3.3h168.3c2.9,0,5.6-1.2,7.5-3.4
			c1.9-2.1,2.8-4.9,2.4-7.7l-2.9-22.9h45.1c16.3-0.1,29.6,13,29.7,29.3c0,0.1,0,0.3,0,0.4v316.7h0.1
			C410.319,455.237,397.219,468.537,380.919,468.537z"/>
	</g>
</g>
<g>
	<g>
		<path d="M337.919,403.537h-187.4c-5.5,0-10,4.5-10,10s4.5,10,10,10h187.5c5.5,0,10-4.5,10-10S343.519,403.537,337.919,403.537z"/>
	</g>
</g>
<g>
	<g>
		<path d="M347.319,155.137l-55.4-4c-5.5-0.4-10.3,3.8-10.7,9.3c-0.4,5.5,3.8,10.3,9.3,10.7l29.4,2.1l-62.3,48.4l-52.9-41.7
			c-3.9-3.1-9.5-2.8-13.1,0.6l-56.7,54.4c-4,3.8-4.2,10.1-0.5,14.1s10.1,4.2,14.1,0.5c0.1-0.1,0.1-0.1,0.2-0.2l50.4-48.4l52.2,41.1
			c3.6,2.8,8.7,2.9,12.3,0l71.2-55.3l-2.2,28.9c-0.4,5.5,3.7,10.3,9.2,10.7c0.3,0,0.5,0,0.8,0c5.2,0,9.6-4,10-9.2l4-51.4
			C357.019,160.437,352.919,155.637,347.319,155.137z"/>
	</g>
</g>
<g>
	<g>
		<path d="M262.219,269.537h-35c-5.5,0-10,4.5-10,10v83c0,5.5,4.5,10,10,10h35c5.5,0,10-4.5,10-10v-83
			C272.219,274.037,267.719,269.537,262.219,269.537z M251.219,351.537h-14v-62h14V351.537z"/>
	</g>
</g>
<g>
	<g>
		<path d="M191.219,292.537h-35c-5.5,0-10,4.5-10,10v59c0,5.5,4.5,10,10,10h35c5.5,0,10-4.5,10-10v-59
			C201.219,297.037,196.719,292.537,191.219,292.537z M181.219,351.537h-15v-39h15V351.537z"/>
	</g>
</g>
<g>
	<g>
		<path d="M332.219,251.537h-35c-5.5,0-10,4.5-10,10v100c0,5.5,4.5,10,10,10h35c5.5,0,10-4.5,10-10v-100
			C342.219,256.037,337.719,251.537,332.219,251.537z M322.219,351.537h-15v-80h15V351.537z"/>
	</g>
</g>
<g>
</g>
<g>
</g>
<g>
</g>
<g>
</g>
<g>
</g>
<g>
</g>
<g>
</g>
<g>
</g>
<g>
</g>
<g>
</g>
<g>
</g>
<g>
</g>
<g>
</g>
<g>
</g>
<g>
</g>
</svg>
