<?xml version="1.0" encoding="iso-8859-1"?>
<!-- Generator: Adobe Illustrator 19.0.0, SVG Export Plug-In . SVG Version: 6.00 Build 0)  -->
<svg version="1.1" id="Capa_1" xmlns="http://www.w3.org/2000/svg" xmlns:xlink="http://www.w3.org/1999/xlink" x="0px" y="0px"
	 viewBox="0 0 488.437 488.437" style="enable-background:new 0 0 488.437 488.437;" xml:space="preserve">
<g>
	<g>
		<path d="M380.819,72.537c-0.1,0-0.2,0-0.3,0h-47.7l-0.3-2.5c-1.9-15-14.6-26.3-29.8-26.5h-13.2c-1-25-22.1-44.5-47.1-43.5
			c-23.7,0.9-42.6,19.9-43.5,43.5h-13.2c-15.1,0.2-27.9,11.5-29.8,26.5l-0.3,2.5h-47.7c-27.3-0.1-49.6,22-49.7,49.3
			c0,0.1,0,0.2,0,0.3v316.7c-0.1,27.3,22,49.6,49.4,49.6c0.1,0,0.2,0,0.3,0h272.6c27.3,0.1,49.6-22,49.7-49.3c0-0.1,0-0.2,0-0.3
			v-316.6C430.319,94.937,408.219,72.637,380.819,72.537z M175.719,72.337c0.6-5,4.9-8.8,9.9-8.8h23.2c5.5,0,10.4-4.3,10.4-9.8v-8.2
			c0-13.8,11.2-25,25-25s25,11.2,25,25v8.2c0,5.5,4.8,9.8,10.4,9.8h23.2c5.1,0.1,9.3,3.8,9.9,8.8l4.3,34.2h-145.6L175.719,72.337z
			 M380.919,468.537c-0.1,0-0.3,0-0.4,0h-272.6c-16.3,0.1-29.6-13-29.7-29.3c0-0.1,0-0.3,0-0.4v-316.6c-0.1-16.3,13-29.6,29.3-29.7
			c0.1,0,0.3,0,0.4,0h45.1l-2.9,22.9c-0.4,2.8,0.5,5.7,2.4,7.8c1.9,2.1,4.6,3.3,7.5,3.3h168.3c2.9,0,5.6-1.2,7.5-3.4
			c1.9-2.1,2.8-4.9,2.4-7.7l-2.9-22.9h45.1c16.3-0.1,29.6,13,29.7,29.3c0,0.1,0,0.3,0,0.4v316.7h0.1
			C410.319,455.237,397.219,468.537,380.919,468.537z"/>
	</g>
</g>
<g>
	<g>
		<path d="M337.919,403.537h-187.4c-5.5,0-10,4.5-10,10s4.5,10,10,10h187.5c5.5,0,10-4.5,10-10S343.519,403.537,337.919,403.537z"/>
	</g>
</g>
<g>
	<g>
		<path d="M344.519,166.237c-4.4-3.2-9.8-5-15.3-5c-14.1,0-25.6,11.4-25.6,25.5c0,1.1,0.1,2.2,0.2,3.2l-16.4,11.6
			c-11.5-8.2-27.5-5.5-35.7,6c-4.1,5.8-5.7,13.1-4.2,20.1l-14.2,12c-10.4-9.6-26.6-8.9-36.2,1.5c-1.1,1.2-2.2,2.6-3,4l-10.2-4.1
			c-3.9-13.6-18.2-21.4-31.8-17.5c-13.6,3.9-21.4,18.2-17.5,31.8c3.9,13.6,18.2,21.4,31.8,17.5c6.1-1.8,11.4-5.8,14.7-11.3l10.2,4.1
			c3.9,13.6,18.2,21.4,31.7,17.4c10.8-3.1,18.3-13,18.5-24.3l17.4-14.7c12,7.5,27.8,3.9,35.3-8c2.6-4.1,3.9-8.8,3.9-13.7
			c0-1.3-0.1-2.5-0.3-3.7l16-11.3c11.3,8.5,27.4,6.2,35.9-5.2C358.219,190.837,355.919,174.737,344.519,166.237z M159.219,253.837
			c-3.1,0-5.6-2.5-5.6-5.6c0-3.1,2.5-5.6,5.6-5.6c3.1,0,5.6,2.5,5.6,5.6C164.919,251.237,162.319,253.837,159.219,253.837z
			 M215.919,264.137c-3.1,0-5.6-2.5-5.6-5.6c0-3.1,2.5-5.6,5.6-5.6c3.1,0,5.6,2.5,5.6,5.6
			C221.519,261.537,219.019,264.037,215.919,264.137z M272.519,228.037c-3.1,0-5.6-2.5-5.6-5.6c0-3.1,2.5-5.6,5.6-5.6
			c3.1,0,5.6,2.5,5.6,5.6C278.119,225.537,275.619,228.037,272.519,228.037z M329.219,192.437c-3.1,0-5.6-2.5-5.6-5.6
			c0-3.1,2.5-5.6,5.6-5.6c3.1,0,5.6,2.5,5.6,5.6C334.819,189.937,332.319,192.437,329.219,192.437z"/>
	</g>
</g>
<g>
	<g>
		<path d="M343.219,218.537h-28c-5.5,0-10,4.5-10,10v117c0,5.5,4.5,10,10,10h28c5.5,0,10-4.5,10-10v-117
			C353.219,223.037,348.719,218.537,343.219,218.537z M333.219,335.537h-8v-97h8V335.537z"/>
	</g>
</g>
<g>
	<g>
		<path d="M286.219,254.537h-28c-5.5,0-10,4.5-10,10v82c0,5.5,4.5,10,10,10h28c5.5,0,10-4.5,10-10v-82
			C296.219,259.037,291.719,254.537,286.219,254.537z M276.219,335.537h-8v-61h8V335.537z"/>
	</g>
</g>
<g>
	<g>
		<path d="M230.219,290.537h-28c-5.5,0-10,4.5-10,10v45c0,5.5,4.5,10,10,10h28c5.5,0,10-4.5,10-10v-45
			C240.219,295.037,235.719,290.537,230.219,290.537z M220.219,335.537h-8v-25h8V335.537z"/>
	</g>
</g>
<g>
	<g>
		<path d="M173.219,280.537h-28c-5.5,0-10,4.5-10,10v55c0,5.5,4.5,10,10,10h28c5.5,0,10-4.5,10-10v-55
			C183.219,285.037,178.719,280.537,173.219,280.537z M163.219,335.537h-8v-35h8V335.537z"/>
	</g>
</g>
<g>
</g>
<g>
</g>
<g>
</g>
<g>
</g>
<g>
</g>
<g>
</g>
<g>
</g>
<g>
</g>
<g>
</g>
<g>
</g>
<g>
</g>
<g>
</g>
<g>
</g>
<g>
</g>
<g>
</g>
</svg>
