<?xml version="1.0" encoding="iso-8859-1"?>
<!-- Generator: Adobe Illustrator 19.0.0, SVG Export Plug-In . SVG Version: 6.00 Build 0)  -->
<svg version="1.1" id="Capa_1" xmlns="http://www.w3.org/2000/svg" xmlns:xlink="http://www.w3.org/1999/xlink" x="0px" y="0px"
	 viewBox="0 0 384 384" style="enable-background:new 0 0 384 384;" xml:space="preserve">
<g>
	<g>
		<path d="M333.5,4.739h-283c-27.6,0-50.5,22-50.5,49.5v183.2c0,27.6,22.9,50.3,50.5,50.3h46.9l19.5,83.9c1.4,5.4,6.9,8.7,12.3,7.3
			c1.8-0.5,3.5-1.5,4.8-2.8l80.2-88.4h119.3c27.6,0,50.5-22.7,50.5-50.3v-183.2C384,26.739,361.1,4.739,333.5,4.739z M364,237.439
			c0,16.5-13.9,30.3-30.5,30.3H209.7c-2.8-0.1-5.5,1.1-7.4,3.1l-70.3,77.6l-17-73c-1.1-4.5-5.1-7.7-9.7-7.6H50.5
			c-16.6-0.1-30.5-13.9-30.5-30.4v-183.2c0-16.5,13.9-29.5,30.5-29.5h283c16.5,0,30.5,13,30.5,29.5V237.439z"/>
	</g>
</g>
<g>
	<g>
		<path d="M261.6,147.739H186v-75.9c0-5.5-4.4-10-9.9-10c0,0,0,0-0.1,0c-25.4-0.1-49.7,10-67.6,28c-37.3,37.3-37.3,97.8,0.1,135.1
			s97.8,37.3,135.1-0.1c17.9-17.9,27.9-42.1,27.9-67.3C271.5,152.139,267.1,147.739,261.6,147.739z M229.5,210.939
			c-29.6,29.4-77.5,29.3-106.9-0.4c-14-14.1-21.9-33.3-22-53.2c-0.1-37.8,27.8-69.8,65.3-74.9v74.8c0,5.6,4.5,10.2,10.1,10.4h74.8
			C248.7,184.039,241.1,199.239,229.5,210.939z"/>
	</g>
</g>
<g>
	<g>
		<path d="M275.5,58.739c-0.1-0.2-0.1-0.1-0.2-0.2c-17.9-17.8-42.1-27.8-67.4-27.8c-5.5,0-9.9,4.5-9.9,9.9c0,0,0,0,0,0.1v85.5
			c0,5.3,4.2,9.6,9.5,9.6c0.1,0,0.3,0,0.4,0h85.5c5.4,0.1,9.9-4.2,10-9.6v-0.1C303.4,100.839,293.4,76.639,275.5,58.739z
			 M218,51.439c3.5,0.5,7,1.2,10.5,2.1l-10.5,10.5V51.439z M218,92.339l30-30.1c1.9,1.2,3.8,2.5,5.6,3.8l-35.6,35.7V92.339z
			 M231.8,115.739l35.9-35.7c1.4,1.8,2.7,3.6,3.9,5.5l-30.4,30.2H231.8z M269.5,115.739l10.9-10.9c1,3.6,1.7,7.2,2.3,10.9H269.5z"/>
	</g>
</g>
<g>
</g>
<g>
</g>
<g>
</g>
<g>
</g>
<g>
</g>
<g>
</g>
<g>
</g>
<g>
</g>
<g>
</g>
<g>
</g>
<g>
</g>
<g>
</g>
<g>
</g>
<g>
</g>
<g>
</g>
</svg>
