<?xml version="1.0" encoding="iso-8859-1"?>
<!-- Generator: Adobe Illustrator 19.0.0, SVG Export Plug-In . SVG Version: 6.00 Build 0)  -->
<svg version="1.1" id="Capa_1" xmlns="http://www.w3.org/2000/svg" xmlns:xlink="http://www.w3.org/1999/xlink" x="0px" y="0px"
	 viewBox="0 0 384 384" style="enable-background:new 0 0 384 384;" xml:space="preserve">
<g>
	<g>
		<path d="M333.5,4.739h-283c-27.6,0-50.5,22-50.5,49.5v183.2c0,27.6,22.9,50.3,50.5,50.3h46.9l19.5,83.9c1.4,5.4,6.9,8.7,12.3,7.3
			c1.8-0.5,3.5-1.5,4.8-2.8l80.2-88.4h119.3c27.6,0,50.5-22.7,50.5-50.3v-183.2C384,26.739,361.1,4.739,333.5,4.739z M364,237.439
			c0,16.5-13.9,30.3-30.5,30.3H209.7c-2.8-0.1-5.5,1.1-7.4,3.1l-70.3,77.6l-17-73c-1.1-4.5-5.1-7.7-9.7-7.6H50.5
			c-16.6-0.1-30.5-13.9-30.5-30.4v-183.2c0-16.5,13.9-29.5,30.5-29.5h283c16.5,0,30.5,13,30.5,29.5V237.439z"/>
	</g>
</g>
<g>
	<g>
		<path d="M237,66.739h-32.6c-5.6,0-10.2,4.5-10.4,10.1v160.4c0.2,5.7,4.7,10.3,10.4,10.4H237c5.5,0,10-4.9,10-10.4v-160.4
			C247,71.339,242.5,66.839,237,66.739z M227,227.739h-13v-36h13V227.739z M227,171.739h-13v-85h13V171.739z"/>
	</g>
</g>
<g>
	<g>
		<path d="M295.6,41.739h-33.2c-5.7,0.2-10.3,4.8-10.4,10.4v185.1c0.2,5.7,4.7,10.3,10.4,10.5h33.2c5.7-0.2,10.3-4.8,10.4-10.4
			v-185.1C305.8,46.539,301.3,41.939,295.6,41.739z M286,227.739h-14v-36h14V227.739z M286,171.739h-14v-110h14V171.739z"/>
	</g>
</g>
<g>
	<g>
		<path d="M179.1,91.739c-0.1,0-0.1,0-0.1,0h-32.6c-5.5,0-10.4,4.3-10.4,9.8v135.7c0.2,5.7,4.7,10.3,10.4,10.4H179
			c5.5,0,10-4.9,10-10.4v-135.7C189,96.139,184.5,91.739,179.1,91.739z M169,227.739h-13v-36h13V227.739z M169,171.739h-13v-60h13
			V171.739z"/>
	</g>
</g>
<g>
	<g>
		<path d="M121,134.739H88.4c-5.5,0-10.4,4.5-10.4,10v92.6c0.2,5.7,4.7,10.3,10.4,10.4H121c5.5,0,10-4.9,10-10.4v-92.6
			C131,139.239,126.5,134.739,121,134.739z M111,227.739H98v-36h13V227.739z M111,171.739H98v-17h13V171.739z"/>
	</g>
</g>
<g>
</g>
<g>
</g>
<g>
</g>
<g>
</g>
<g>
</g>
<g>
</g>
<g>
</g>
<g>
</g>
<g>
</g>
<g>
</g>
<g>
</g>
<g>
</g>
<g>
</g>
<g>
</g>
<g>
</g>
</svg>
