<?xml version="1.0" encoding="iso-8859-1"?>
<!-- Generator: Adobe Illustrator 19.0.0, SVG Export Plug-In . SVG Version: 6.00 Build 0)  -->
<svg version="1.1" id="Capa_1" xmlns="http://www.w3.org/2000/svg" xmlns:xlink="http://www.w3.org/1999/xlink" x="0px" y="0px"
	 viewBox="0 0 384 384" style="enable-background:new 0 0 384 384;" xml:space="preserve">
<g>
	<g>
		<path d="M333.5,4.739h-283c-27.6,0-50.5,22-50.5,49.5v183.2c0,27.6,22.9,50.3,50.5,50.3h46.9l19.5,83.9c1.4,5.4,6.9,8.7,12.3,7.3
			c1.8-0.5,3.5-1.5,4.8-2.8l80.2-88.4h119.3c27.6,0,50.5-22.7,50.5-50.3v-183.2C384,26.739,361.1,4.739,333.5,4.739z M364,237.439
			c0,16.5-13.9,30.3-30.5,30.3H209.7c-2.8-0.1-5.5,1.1-7.4,3.1l-70.3,77.6l-17-73c-1.1-4.5-5.1-7.7-9.7-7.6H50.5
			c-16.6-0.1-30.5-13.9-30.5-30.4v-183.2c0-16.5,13.9-29.5,30.5-29.5h283c16.5,0,30.5,13,30.5,29.5V237.439z"/>
	</g>
</g>
<g>
	<g>
		<path d="M214,112.739h-45c-5.5,0-10,4.5-10,10v97c0,5.5,4.5,10,10,10h45c5.5,0,10-4.5,10-10v-97
			C224,117.239,219.5,112.739,214,112.739z M205,208.739h-26v-76h26V208.739z"/>
	</g>
</g>
<g>
	<g>
		<path d="M291,60.739h-45c-5.5,0-10,4.5-10,10v148c0,5.5,4.5,10,10,10h45c5.5,0,10-4.5,10-10v-148
			C301,65.239,296.5,60.739,291,60.739z M281,208.739h-25v-128h25V208.739z"/>
	</g>
</g>
<g>
	<g>
		<path d="M138,147.739H93c-5.5,0-10,4.5-10,10v61c0,5.5,4.5,10,10,10h45c5.5,0,10-4.5,10-10v-61
			C148,152.239,143.5,147.739,138,147.739z M128,208.739h-25v-41h25V208.739z"/>
	</g>
</g>
<g>
</g>
<g>
</g>
<g>
</g>
<g>
</g>
<g>
</g>
<g>
</g>
<g>
</g>
<g>
</g>
<g>
</g>
<g>
</g>
<g>
</g>
<g>
</g>
<g>
</g>
<g>
</g>
<g>
</g>
</svg>
