<?xml version="1.0" encoding="iso-8859-1"?>
<!-- Generator: Adobe Illustrator 19.0.0, SVG Export Plug-In . SVG Version: 6.00 Build 0)  -->
<svg version="1.1" id="Capa_1" xmlns="http://www.w3.org/2000/svg" xmlns:xlink="http://www.w3.org/1999/xlink" x="0px" y="0px"
	 viewBox="0 0 384 384" style="enable-background:new 0 0 384 384;" xml:space="preserve">
<g>
	<g>
		<path d="M333.5,4.739h-283c-27.6,0-50.5,22-50.5,49.5v183.2c0,27.6,22.9,50.3,50.5,50.3h46.9l19.5,83.9c1.4,5.4,6.9,8.7,12.3,7.3
			c1.8-0.5,3.5-1.5,4.8-2.8l80.2-88.4h119.3c27.6,0,50.5-22.7,50.5-50.3v-183.2C384,26.739,361.1,4.739,333.5,4.739z M364,237.439
			c0,16.5-13.9,30.3-30.5,30.3H209.7c-2.8-0.1-5.5,1.1-7.4,3.1l-70.3,77.6l-17-73c-1.1-4.5-5.1-7.7-9.7-7.6H50.5
			c-16.6-0.1-30.5-13.9-30.5-30.4v-183.2c0-16.5,13.9-29.5,30.5-29.5h283c16.5,0,30.5,13,30.5,29.5V237.439z"/>
	</g>
</g>
<g>
	<g>
		<path d="M292.3,49.539c-4.4-3.3-9.8-5.1-15.3-5.1c-14.1,0-25.6,11.4-25.6,25.5c0,1.1,0.1,2.2,0.2,3.2l-16.4,11.6
			c-11.5-8.2-27.5-5.5-35.7,6c-4.1,5.8-5.7,13.1-4.2,20.1l-14.2,12c-10.4-9.6-26.6-8.9-36.2,1.5c-1.1,1.2-2.2,2.6-3,4l-10.2-4.1
			c-3.9-13.6-18.2-21.4-31.8-17.5c-13.6,3.9-21.4,18.2-17.5,31.8c3.9,13.6,18.2,21.4,31.8,17.5c6.1-1.8,11.4-5.8,14.7-11.3l10.2,4.1
			c3.9,13.6,18.2,21.4,31.7,17.5c10.8-3.1,18.3-13,18.5-24.3l17.4-14.7c12,7.5,27.8,3.9,35.3-8c2.6-4.1,3.9-8.8,3.9-13.7
			c0-1.3-0.1-2.5-0.3-3.7l16-11.3c11.3,8.5,27.4,6.2,35.9-5.2C306,74.139,303.7,58.039,292.3,49.539z M107,137.039
			c-3.1,0-5.6-2.5-5.6-5.6c0-3.1,2.5-5.6,5.6-5.6c3.1,0,5.6,2.5,5.6,5.6C112.7,134.439,110.1,137.039,107,137.039z M163.7,147.339
			c-3.1,0-5.6-2.5-5.6-5.6c0-3.1,2.5-5.6,5.6-5.6c3.1,0,5.6,2.5,5.6,5.6C169.3,144.739,166.8,147.239,163.7,147.339z M220.3,111.239
			c-3.1,0-5.6-2.5-5.6-5.6c0-3.1,2.5-5.6,5.6-5.6c3.1,0,5.6,2.5,5.6,5.6C225.9,108.739,223.4,111.239,220.3,111.239z M277,75.639
			c-3.1,0-5.6-2.5-5.6-5.6c0-3.1,2.5-5.6,5.6-5.6c3.1,0,5.6,2.5,5.6,5.6C282.6,73.139,280.1,75.639,277,75.639z"/>
	</g>
</g>
<g>
	<g>
		<path d="M291,101.739h-28c-5.5,0-10,4.5-10,10v117c0,5.5,4.5,10,10,10h28c5.5,0,10-4.5,10-10v-117
			C301,106.239,296.5,101.739,291,101.739z M281,218.739h-8v-97h8V218.739z"/>
	</g>
</g>
<g>
	<g>
		<path d="M234,137.739h-28c-5.5,0-10,4.5-10,10v82c0,5.5,4.5,10,10,10h28c5.5,0,10-4.5,10-10v-82
			C244,142.239,239.5,137.739,234,137.739z M224,218.739h-8v-61h8V218.739z"/>
	</g>
</g>
<g>
	<g>
		<path d="M178,173.739h-28c-5.5,0-10,4.5-10,10v45c0,5.5,4.5,10,10,10h28c5.5,0,10-4.5,10-10v-45
			C188,178.239,183.5,173.739,178,173.739z M168,218.739h-8v-25h8V218.739z"/>
	</g>
</g>
<g>
	<g>
		<path d="M121,163.739H93c-5.5,0-10,4.5-10,10v55c0,5.5,4.5,10,10,10h28c5.5,0,10-4.5,10-10v-55
			C131,168.239,126.5,163.739,121,163.739z M111,218.739h-8v-35h8V218.739z"/>
	</g>
</g>
<g>
</g>
<g>
</g>
<g>
</g>
<g>
</g>
<g>
</g>
<g>
</g>
<g>
</g>
<g>
</g>
<g>
</g>
<g>
</g>
<g>
</g>
<g>
</g>
<g>
</g>
<g>
</g>
<g>
</g>
</svg>
