<?xml version="1.0" encoding="iso-8859-1"?>
<!-- Generator: Adobe Illustrator 19.0.0, SVG Export Plug-In . SVG Version: 6.00 Build 0)  -->
<svg version="1.1" id="Capa_1" xmlns="http://www.w3.org/2000/svg" xmlns:xlink="http://www.w3.org/1999/xlink" x="0px" y="0px"
	 viewBox="0 0 500.027 500.027" style="enable-background:new 0 0 500.027 500.027;" xml:space="preserve">
<g>
	<g>
		<path d="M395.863,7.226l-101.9-7.2c-5.5-0.4-10.3,3.8-10.6,9.3c-0.4,5.5,3.7,10.2,9.2,10.6l75.8,5.4l-136.9,106.4l-102.2-80.5
			c-3.9-3.1-9.5-2.8-13.1,0.6l-104.2,99.9c-4,3.8-4.1,10.2-0.3,14.1c1.9,2,4.5,3.1,7.2,3.1c2.6,0,5.1-1,6.9-2.8l97.9-93.9l101.6,80
			c3.6,2.8,8.7,2.9,12.3,0l145.7-113.1l-5.5,71.8c-0.4,5.5,3.7,10.3,9.2,10.7c0.3,0,0.5,0,0.8,0c5.2,0,9.6-4,10-9.2l7.3-94.5
			C405.463,12.426,401.363,7.626,395.863,7.226z"/>
	</g>
</g>
<g>
	<g>
		<path d="M376.963,236.126v-41.3c0-5.5-4.8-9.6-10.4-9.6h-63.6c-5.4-0.2-9.8,4-10,9.4c0,0.1,0,0.2,0,0.2v63.5
			c-18.8,12.4-34,29.6-44,49.9v-81.4c0-5.5-4.6-9.6-10.1-9.6h-63.6c-5.5,0-10.3,4-10.3,9.6v141.3h-44v-98.8
			c0.1-5.5-4.3-10.1-9.9-10.2h-63.6c-5.5,0-9.5,4.6-9.5,10.2v98.8h-27.1c-5.5,0-10,4.5-10,10s4.5,10,10,10h225.2
			c9.9,64.5,65.4,112.1,130.7,111.9c72.9,0,132.4-59.2,132.4-132.2C499.263,298.226,444.963,241.126,376.963,236.126z
			 M100.963,368.126h-43v-89h43V368.126z M228.963,368.126h-44v-131h44V368.126z M312.963,205.126h44v31c-15.2,1.1-30.1,4.9-44,11.1
			V205.126z M366.763,480.226c-62,0-112.3-50.3-112.3-112.3s50.3-112.3,112.3-112.3s112.3,50.3,112.3,112.3
			C478.963,429.926,428.763,480.226,366.763,480.226z"/>
	</g>
</g>
<g>
	<g>
		<path d="M405.263,381.226c11.3-10.5,17.7-25.3,17.7-40.8c0-30.9-25-56-55.9-56c-30.9,0-56,25-56,55.9c0,15.4,6.3,30.1,17.5,40.7
			l-2.1,60.6c-0.2,5.5,4.1,10.2,9.6,10.3c2,0.1,4-0.5,5.8-1.6l25.2-16.2l25.2,16.2c4.6,3,10.8,1.6,13.8-3c1.1-1.7,1.7-3.8,1.6-5.8
			L405.263,381.226z M372.363,413.926c-3.3-2.1-7.5-2.1-10.8,0l-14.6,9.3l1.1-30.1c12.1,4.4,25.4,4.4,37.5,0.1l1.3,30
			L372.363,413.926z M367.063,376.326c-19.8,0-35.9-16.1-35.9-35.9s16-35.9,35.9-35.9c19.8,0,35.9,16.1,35.9,35.9
			S386.863,376.326,367.063,376.326z"/>
	</g>
</g>
<g>
</g>
<g>
</g>
<g>
</g>
<g>
</g>
<g>
</g>
<g>
</g>
<g>
</g>
<g>
</g>
<g>
</g>
<g>
</g>
<g>
</g>
<g>
</g>
<g>
</g>
<g>
</g>
<g>
</g>
</svg>
