<?xml version="1.0" encoding="iso-8859-1"?>
<!-- Generator: Adobe Illustrator 19.0.0, SVG Export Plug-In . SVG Version: 6.00 Build 0)  -->
<svg version="1.1" id="Capa_1" xmlns="http://www.w3.org/2000/svg" xmlns:xlink="http://www.w3.org/1999/xlink" x="0px" y="0px"
	 viewBox="0 0 467.7 467.7" style="enable-background:new 0 0 467.7 467.7;" xml:space="preserve">
<g>
	<g>
		<path d="M99,176.85H10c-5.5,0-10,4.5-10,10v120c0,5.5,4.5,10,10,10h89c5.5,0,10-4.5,10-10v-120C109,181.35,104.5,176.85,99,176.85
			z M89,296.85H20v-100h69V296.85z"/>
	</g>
</g>
<g>
	<g>
		<path d="M408,220.15V14.85c0-5.5-4-10-9.5-10h-89c-5.5,0-9.5,4.5-9.5,10v188.4c-14.7,4.1-28.6,10.8-41,19.7v-106.3
			c-0.1-5.5-4.7-9.9-10.3-9.8h-89c-5.3-0.1-9.7,4.2-9.8,9.5c0,0.1,0,0.2,0,0.3v190.1c-0.1,5.5,4.2,10,9.7,10.1c0,0,0,0,0.1,0h44.4
			c-0.5,4.6-0.7,9.2-0.7,13.8c0,72.9,59.3,132.2,132.3,132.2s132-59.4,132-132.3C467.7,286.05,445.3,244.55,408,220.15z M320,24.85
			h68v184.4c-16.5-7.3-34.3-11-52.3-11c-5.3,0-10.5,0.3-15.7,1V24.85z M170,296.85v-170h69v113.9c-14.9,15.8-25.7,35.1-31.1,56.1
			H170z M335.7,442.85c-62,0-112.3-50.3-112.3-112.3s50.3-112.3,112.3-112.3S448,268.55,448,330.55
			C447.9,392.55,397.7,442.75,335.7,442.85z"/>
	</g>
</g>
<g>
	<g>
		<path d="M374.2,344.85c11.3-10.6,17.7-25.4,17.7-40.8c0-30.9-25-56-55.9-56c-30.9,0-56,25-56,55.9c0,15.4,6.3,30.1,17.5,40.7
			l-2.1,60.6c-0.2,5.5,4.1,10.2,9.6,10.3c2,0.1,4-0.5,5.8-1.6l25.2-16.2l25.2,16.2c4.6,3,10.8,1.6,13.8-3c1.1-1.7,1.7-3.8,1.6-5.8
			L374.2,344.85z M341.4,377.45c-3.3-2.1-7.5-2.1-10.8,0l-14.6,9.4l1.1-30.1c12.1,4.4,25.4,4.4,37.5,0.1l1.3,29.9L341.4,377.45z
			 M336,339.85c-19.8,0-35.9-16.1-35.9-35.9s16.1-35.8,35.9-35.9c19.8,0,35.9,16.1,35.9,35.9S355.8,339.85,336,339.85z"/>
	</g>
</g>
<g>
</g>
<g>
</g>
<g>
</g>
<g>
</g>
<g>
</g>
<g>
</g>
<g>
</g>
<g>
</g>
<g>
</g>
<g>
</g>
<g>
</g>
<g>
</g>
<g>
</g>
<g>
</g>
<g>
</g>
</svg>
