<?xml version="1.0" encoding="iso-8859-1"?>
<!-- Generator: Adobe Illustrator 19.0.0, SVG Export Plug-In . SVG Version: 6.00 Build 0)  -->
<svg version="1.1" id="Capa_1" xmlns="http://www.w3.org/2000/svg" xmlns:xlink="http://www.w3.org/1999/xlink" x="0px" y="0px"
	 viewBox="0 0 497.9 497.9" style="enable-background:new 0 0 497.9 497.9;" xml:space="preserve">
<g>
	<g>
		<path d="M457.7,74.5c-21.5-10.5-47.4-1.6-57.9,19.9c-7.2,14.7-5.4,32.2,4.5,45.2l-42.5,46.2c-15.2-18.3-42.4-20.8-60.7-5.6
			c-1.2,1-2.3,2.1-3.4,3.2l-36-29.4c0-0.2,0-0.4,0-0.6c0-23.9-19.3-43.2-43.2-43.2c-23.9,0-43.2,19.3-43.2,43.2
			c0,3.9,0.5,7.8,1.6,11.6l-39.6,49.5c-21.5-10.4-47.3-1.3-57.7,20.1c-10.4,21.4-1.3,47.3,20.1,57.7c5.9,2.9,12.3,4.3,18.8,4.3
			c23.8,0,43.2-19.3,43.2-43.1c0-9.5-3.1-18.8-8.9-26.3l34.9-43.6c16.6,17.1,43.9,17.4,61,0.8c2.8-2.8,5.3-5.9,7.2-9.3l31.4,25.7
			c-7,22.8,5.8,47,28.6,54s47-5.8,54-28.6c2.1-6.8,2.5-13.9,1.1-20.9l48.7-53c21.5,10.5,47.4,1.6,57.9-19.9S479.2,85,457.7,74.5z
			 M118.5,276.6c-12.8,0-23.2-10.4-23.2-23.2c0-12.8,10.4-23.1,23.2-23.2c12.8,0,23.2,10.4,23.2,23.2S131.3,276.6,118.5,276.6z
			 M218.5,176.6c-12.8,0-23.2-10.4-23.2-23.2c0-12.8,10.4-23.1,23.2-23.2c12.8,0,23.2,10.4,23.2,23.2
			C241.7,166.2,231.3,176.6,218.5,176.6z M328.5,236.6c-12.8,0-23.2-10.4-23.2-23.2c0-12.8,10.4-23.1,23.2-23.2
			c12.8,0,23.2,10.4,23.2,23.2C351.7,226.2,341.3,236.6,328.5,236.6z M438.5,136.6c-12.8,0-23.2-10.4-23.2-23.2
			c0-12.8,10.4-23.1,23.2-23.2c12.8,0,23.2,10.4,23.2,23.2S451.3,136.6,438.5,136.6z"/>
	</g>
</g>
<g>
	<g>
		<path d="M458,274H336c-22,0-39.9,17.8-39.9,39.9v6.1H60V13.4C60,7.9,55.5,3,50,3H10C4.5,3,0,7.9,0,13.4v336.3
			c0,16.6,13.4,30.1,30,30.2h266v74.6c0,22.1,17.9,40.4,39.9,40.4h122c22.1,0,40-18.4,40-40.4V313.9C498,291.8,480,274,458,274z
			 M296,360H30c-5.6-0.1-10-4.7-10-10.2V23h20v306.8c0,5.6,4.5,10.1,10,10.2h246V360z M478,455c0,11-9,20-20,20H336
			c-11,0-20-9-20-20V314c0-11,9-20,20-20h122c11,0,20,9,20,20V455z"/>
	</g>
</g>
<g>
	<g>
		<path d="M460,301H333c-5.5,0-10,4.5-10,10v31c0,5.5,4.5,10,10,10h127c5.5,0,10-4.5,10-10v-31C470,305.5,465.5,301,460,301z
			 M450,332H343v-11h107V332z"/>
	</g>
</g>
<g>
	<g>
		<path d="M356.9,363h-23.5c-5.5,0-10,4.5-10,10s4.5,10,10,10h23.5c5.5,0,10-4.5,10-10S362.5,363,356.9,363z"/>
	</g>
</g>
<g>
	<g>
		<path d="M356.9,404h-23.5c-5.5,0-10,4.5-10,10s4.5,10,10,10h23.5c5.5,0,10-4.5,10-10S362.5,404,356.9,404z"/>
	</g>
</g>
<g>
	<g>
		<path d="M356.9,444h-23.5c-5.5,0-10,4.5-10,10s4.5,10,10,10h23.5c5.5,0,10-4.5,10-10S362.5,444,356.9,444z"/>
	</g>
</g>
<g>
	<g>
		<path d="M408.4,363H385c-5.5,0-10,4.5-10,10s4.5,10,10,10h23.5c5.5,0,10-4.5,10-10S414,363,408.4,363z"/>
	</g>
</g>
<g>
	<g>
		<path d="M408.4,404H385c-5.5,0-10,4.5-10,10s4.5,10,10,10h23.5c5.5,0,10-4.5,10-10S414,404,408.4,404z"/>
	</g>
</g>
<g>
	<g>
		<path d="M408.4,444H385c-5.5,0-10,4.5-10,10s4.5,10,10,10h23.5c5.5,0,10-4.5,10-10S414,444,408.4,444z"/>
	</g>
</g>
<g>
	<g>
		<path d="M460.2,363h-23.5c-5.5,0-10,4.5-10,10s4.5,10,10,10h23.5c5.5,0,10-4.5,10-10S465.7,363,460.2,363z"/>
	</g>
</g>
<g>
	<g>
		<path d="M460.2,404h-23.5c-5.5,0-10,4.5-10,10s4.5,10,10,10h23.5c5.5,0,10-4.5,10-10S465.7,404,460.2,404z"/>
	</g>
</g>
<g>
	<g>
		<path d="M460.2,444h-23.5c-5.5,0-10,4.5-10,10s4.5,10,10,10h23.5c5.5,0,10-4.5,10-10S465.7,444,460.2,444z"/>
	</g>
</g>
<g>
</g>
<g>
</g>
<g>
</g>
<g>
</g>
<g>
</g>
<g>
</g>
<g>
</g>
<g>
</g>
<g>
</g>
<g>
</g>
<g>
</g>
<g>
</g>
<g>
</g>
<g>
</g>
<g>
</g>
</svg>
