<?xml version="1.0" encoding="iso-8859-1"?>
<!-- Generator: Adobe Illustrator 19.0.0, SVG Export Plug-In . SVG Version: 6.00 Build 0)  -->
<svg version="1.1" id="Capa_1" xmlns="http://www.w3.org/2000/svg" xmlns:xlink="http://www.w3.org/1999/xlink" x="0px" y="0px"
	 viewBox="0 0 497.6 497.6" style="enable-background:new 0 0 497.6 497.6;" xml:space="preserve">
<g>
	<g>
		<path d="M403.6,56.1c0,0-0.1-0.1-0.1-0.2C366.8,19.9,319.1,0,268.5,0c-5.4,0-9.8,4.4-9.8,9.8c0,0.1,0,0.1,0,0.2v181.2
			c0.1,5.5,4.1,10.4,9.6,10.4h181.2c5.6-0.1,10-4.6,10-10.2C459.5,140.9,439.7,92.7,403.6,56.1z M278.8,20.3
			c18.5,1.1,36.8,5.2,54,12.1l-54,54V20.3z M278.8,114.7l72.9-73.1c10.9,6,21.1,13.2,30.4,21.4L278.8,166.5V114.7z M291.9,181.6
			L396,77.4c8.2,9.2,15.4,19.3,21.5,30.1l-73.9,74.1H291.9z M371.9,181.6l54.8-54.8c7.2,17.5,11.4,36,12.5,54.8H371.9z"/>
	</g>
</g>
<g>
	<g>
		<path d="M447.7,276.6h-56.4c0.7-6.4,1-12.7,1-19.1c0-5.5-4.4-9.9-9.9-9.9h-0.1H210.8V76.1c0.1-5.5-4.3-9.9-9.8-10h-0.1
			c-50.8-0.2-99.5,20-135.3,56c-36,36.7-55.8,84.7-55.8,135.2c0,105.4,85.9,191.2,191.3,191.2c29.3,0,58.3-6.6,84.7-19.6v28.3
			c0,22.1,17.8,40.4,39.9,40.4h122c22.1,0,40.1-18.3,40.1-40.4V316.5C487.7,294.4,469.8,276.6,447.7,276.6z M285.9,316.5
			c0,0,0,0,0,0.1v89.8c-25.9,14.4-55.1,22.1-84.7,22.1C106.8,428.5,30,351.7,30,257.3C30,212,47.6,169,79.9,136.2
			c29.6-29.7,69.1-47.5,111-49.8v170.9c0.1,5.6,4.6,10.2,10.3,10.3h170.9c-0.2,3-0.4,6-0.8,9h-45.5
			C303.8,276.6,285.9,294.5,285.9,316.5z M467.8,457.6c0,11-9,20-20,20h-122c-11,0-20-9-20-20v-141c0-11,9-20,20-20h122
			c11,0,20,9,20,20V457.6z"/>
	</g>
</g>
<g>
	<g>
		<path d="M449.8,303.6h-127c-5.5,0-10,4.5-10,10v31c0,5.5,4.5,10,10,10h127c5.5,0,10-4.5,10-10v-31
			C459.8,308.1,455.3,303.6,449.8,303.6z M439.8,334.6h-107v-11h107V334.6z"/>
	</g>
</g>
<g>
	<g>
		<path d="M346.7,365.6h-23.5c-5.5,0-10,4.5-10,10s4.5,10,10,10h23.5c5.5,0,10-4.5,10-10S352.2,365.6,346.7,365.6z"/>
	</g>
</g>
<g>
	<g>
		<path d="M346.7,406.6h-23.5c-5.5,0-10,4.5-10,10s4.5,10,10,10h23.5c5.5,0,10-4.5,10-10S352.2,406.6,346.7,406.6z"/>
	</g>
</g>
<g>
	<g>
		<path d="M346.7,446.6h-23.5c-5.5,0-10,4.5-10,10s4.5,10,10,10h23.5c5.5,0,10-4.5,10-10S352.2,446.6,346.7,446.6z"/>
	</g>
</g>
<g>
	<g>
		<path d="M398.2,365.6h-23.5c-5.5,0-10,4.5-10,10s4.5,10,10,10h23.5c5.5,0,10-4.5,10-10S403.7,365.6,398.2,365.6z"/>
	</g>
</g>
<g>
	<g>
		<path d="M398.2,406.6h-23.5c-5.5,0-10,4.5-10,10s4.5,10,10,10h23.5c5.5,0,10-4.5,10-10S403.7,406.6,398.2,406.6z"/>
	</g>
</g>
<g>
	<g>
		<path d="M398.2,446.6h-23.5c-5.5,0-10,4.5-10,10s4.5,10,10,10h23.5c5.5,0,10-4.5,10-10S403.7,446.6,398.2,446.6z"/>
	</g>
</g>
<g>
	<g>
		<path d="M449.9,365.6h-23.5c-5.5,0-10,4.5-10,10s4.5,10,10,10h23.5c5.5,0,10-4.5,10-10S455.5,365.6,449.9,365.6z"/>
	</g>
</g>
<g>
	<g>
		<path d="M449.9,406.6h-23.5c-5.5,0-10,4.5-10,10s4.5,10,10,10h23.5c5.5,0,10-4.5,10-10S455.5,406.6,449.9,406.6z"/>
	</g>
</g>
<g>
	<g>
		<path d="M449.9,446.6h-23.5c-5.5,0-10,4.5-10,10s4.5,10,10,10h23.5c5.5,0,10-4.5,10-10S455.5,446.6,449.9,446.6z"/>
	</g>
</g>
<g>
</g>
<g>
</g>
<g>
</g>
<g>
</g>
<g>
</g>
<g>
</g>
<g>
</g>
<g>
</g>
<g>
</g>
<g>
</g>
<g>
</g>
<g>
</g>
<g>
</g>
<g>
</g>
<g>
</g>
</svg>
