<?xml version="1.0" encoding="iso-8859-1"?>
<!-- Generator: Adobe Illustrator 19.0.0, SVG Export Plug-In . SVG Version: 6.00 Build 0)  -->
<svg version="1.1" id="Capa_1" xmlns="http://www.w3.org/2000/svg" xmlns:xlink="http://www.w3.org/1999/xlink" x="0px" y="0px"
	 viewBox="0 0 488.126 488.126" style="enable-background:new 0 0 488.126 488.126;" xml:space="preserve">
<g>
	<g>
		<path d="M404.063,7.226l-101.9-7.2c-5.5-0.4-10.3,3.8-10.6,9.3c-0.4,5.5,3.7,10.2,9.2,10.6l75.8,5.4l-136.9,106.4l-102.2-80.5
			c-3.9-3.1-9.5-2.8-13.1,0.6l-104.2,99.9c-4,3.8-4.1,10.2-0.3,14.1c1.9,2,4.5,3.1,7.2,3.1c2.6,0,5.1-1,6.9-2.8l97.9-93.9l101.6,80
			c3.6,2.8,8.7,2.9,12.3,0l145.7-113.1l-5.5,71.8c-0.4,5.5,3.7,10.3,9.2,10.7c0.3,0,0.5,0,0.8,0c5.2,0,9.6-4,10-9.2l7.3-94.5
			C413.663,12.426,409.563,7.626,404.063,7.226z"/>
	</g>
</g>
<g>
	<g>
		<path d="M439.263,267.126h-54.1v-72.4c0-5.5-4.8-9.6-10.4-9.6h-63.6c-5.4-0.2-9.8,4-10,9.4c0,0.1,0,0.2,0,0.2v76.2
			c-14.5,6.4-23.9,20.8-24,36.6v60.6h-20v-141.4c0-5.5-4.6-9.6-10.1-9.6h-63.6c-5.5,0-10.3,4-10.3,9.6v141.4h-44v-98.8
			c0.1-5.5-4.3-10.1-9.9-10.2h-63.6c-5.5,0-9.5,4.6-9.5,10.2v98.8h-27.1c-5.5,0-10,4.5-10,10s4.5,10,10,10h258.1v60.1
			c0.1,22.1,18,39.9,40,39.9h122c22,0,39.9-17.8,39.9-39.8c0,0,0,0,0-0.1v-140.7C479.163,285.526,461.263,267.126,439.263,267.126z
			 M109.163,368.126h-43v-89h43V368.126z M237.163,368.126h-44v-131h44V368.126z M321.163,205.126h44v62h-44V205.126z
			 M459.163,448.126c0,11-9,20-20,20h-122c-11,0-20-9-20-20v-141c0-11,9-20,20-20h122c11,0,20,9,20,20V448.126z"/>
	</g>
</g>
<g>
	<g>
		<path d="M442.163,294.126h-127c-5.5,0-10,4.5-10,10v31c0,5.5,4.5,10,10,10h127c5.5,0,10-4.5,10-10v-31
			C452.163,298.626,447.663,294.126,442.163,294.126z M432.163,326.126h-107v-12h107V326.126z"/>
	</g>
</g>
<g>
	<g>
		<path d="M338.163,357.126h-23.5c-5.5,0-10,4.5-10,10s4.5,10,10,10h23.5c5.5,0,10-4.5,10-10S343.763,357.126,338.163,357.126z"/>
	</g>
</g>
<g>
	<g>
		<path d="M338.163,397.126h-23.5c-5.5,0-10,4.5-10,10s4.5,10,10,10h23.5c5.5,0,10-4.5,10-10S343.763,397.126,338.163,397.126z"/>
	</g>
</g>
<g>
	<g>
		<path d="M338.163,437.126h-23.5c-5.5,0-10,4.5-10,10s4.5,10,10,10h23.5c5.5,0,10-4.5,10-10S343.763,437.126,338.163,437.126z"/>
	</g>
</g>
<g>
	<g>
		<path d="M389.663,357.126h-23.5c-5.5,0-10,4.5-10,10s4.5,10,10,10h23.5c5.5,0,10-4.5,10-10S395.263,357.126,389.663,357.126z"/>
	</g>
</g>
<g>
	<g>
		<path d="M389.663,397.126h-23.5c-5.5,0-10,4.5-10,10s4.5,10,10,10h23.5c5.5,0,10-4.5,10-10S395.263,397.126,389.663,397.126z"/>
	</g>
</g>
<g>
	<g>
		<path d="M389.663,437.126h-23.5c-5.5,0-10,4.5-10,10s4.5,10,10,10h23.5c5.5,0,10-4.5,10-10S395.263,437.126,389.663,437.126z"/>
	</g>
</g>
<g>
	<g>
		<path d="M441.463,357.126h-23.5c-5.5,0-10,4.5-10,10s4.5,10,10,10h23.5c5.5,0,10-4.5,10-10S446.963,357.126,441.463,357.126z"/>
	</g>
</g>
<g>
	<g>
		<path d="M441.463,397.126h-23.5c-5.5,0-10,4.5-10,10s4.5,10,10,10h23.5c5.5,0,10-4.5,10-10S446.963,397.126,441.463,397.126z"/>
	</g>
</g>
<g>
	<g>
		<path d="M441.463,437.126h-23.5c-5.5,0-10,4.5-10,10s4.5,10,10,10h23.5c5.5,0,10-4.5,10-10S446.963,437.126,441.463,437.126z"/>
	</g>
</g>
<g>
</g>
<g>
</g>
<g>
</g>
<g>
</g>
<g>
</g>
<g>
</g>
<g>
</g>
<g>
</g>
<g>
</g>
<g>
</g>
<g>
</g>
<g>
</g>
<g>
</g>
<g>
</g>
<g>
</g>
</svg>
