<?xml version="1.0" encoding="iso-8859-1"?>
<!-- Generator: Adobe Illustrator 19.0.0, SVG Export Plug-In . SVG Version: 6.00 Build 0)  -->
<svg version="1.1" id="Capa_1" xmlns="http://www.w3.org/2000/svg" xmlns:xlink="http://www.w3.org/1999/xlink" x="0px" y="0px"
	 viewBox="0 0 478 478" style="enable-background:new 0 0 478 478;" xml:space="preserve">
<g>
	<g>
		<path d="M249,121h-89c-5.5,0-10,4.5-10,10v190c0,5.5,4.5,10,10,10h89c5.5,0,10-4.5,10-10V131C259,125.5,254.5,121,249,121z
			 M239,311h-69V141h69V311z"/>
	</g>
</g>
<g>
	<g>
		<path d="M99,191H10c-5.5,0-10,4.5-10,10v120c0,5.5,4.5,10,10,10h89c5.5,0,10-4.5,10-10V201C109,195.5,104.5,191,99,191z M89,311
			H20V211h69V311z"/>
	</g>
</g>
<g>
	<g>
		<path d="M437.6,238H409V29.5c0-5.5-4.6-9.5-10.1-9.5h-89c-5.5,0-9.9,4-9.9,9.5V241c-14.6,6.4-24,20.9-24,36.8v140.7
			c-0.1,21.7,17.3,39.4,39.1,39.5c0.2,0,0.4,0,0.5,0h122c22.1,0,40.4-17.5,40.4-39.5V277.8C478,255.7,459.7,238,437.6,238z M320,40
			h69v198h-69V40z M458,419c0,11-9,20-20,20H316c-11,0-20-9-20-20V278c0-11,9-20,20-20h122c11,0,20,9,20,20V419z"/>
	</g>
</g>
<g>
	<g>
		<path d="M440,265H313c-5.5,0-10,4.5-10,10v31c0,5.5,4.5,10,10,10h127c5.5,0,10-4.5,10-10v-31C450,269.5,445.5,265,440,265z
			 M430,296H323v-11h107V296z"/>
	</g>
</g>
<g>
	<g>
		<path d="M336.6,327h-23.5c-5.5,0-10,4.5-10,10s4.5,10,10,10h23.5c5.5,0,10-4.5,10-10S342.1,327,336.6,327z"/>
	</g>
</g>
<g>
	<g>
		<path d="M336.6,368h-23.5c-5.5,0-10,4.5-10,10s4.5,10,10,10h23.5c5.5,0,10-4.5,10-10S342.1,368,336.6,368z"/>
	</g>
</g>
<g>
	<g>
		<path d="M336.6,408h-23.5c-5.5,0-10,4.5-10,10s4.5,10,10,10h23.5c5.5,0,10-4.5,10-10S342.1,408,336.6,408z"/>
	</g>
</g>
<g>
	<g>
		<path d="M388.1,327h-23.5c-5.5,0-10,4.5-10,10s4.5,10,10,10h23.5c5.5,0,10-4.5,10-10S393.6,327,388.1,327z"/>
	</g>
</g>
<g>
	<g>
		<path d="M388.1,368h-23.5c-5.5,0-10,4.5-10,10s4.5,10,10,10h23.5c5.5,0,10-4.5,10-10S393.6,368,388.1,368z"/>
	</g>
</g>
<g>
	<g>
		<path d="M388.1,408h-23.5c-5.5,0-10,4.5-10,10s4.5,10,10,10h23.5c5.5,0,10-4.5,10-10S393.6,408,388.1,408z"/>
	</g>
</g>
<g>
	<g>
		<path d="M439.9,327h-23.5c-5.5,0-10,4.5-10,10s4.5,10,10,10h23.5c5.5,0,10-4.5,10-10S445.4,327,439.9,327z"/>
	</g>
</g>
<g>
	<g>
		<path d="M439.9,368h-23.5c-5.5,0-10,4.5-10,10s4.5,10,10,10h23.5c5.5,0,10-4.5,10-10S445.4,368,439.9,368z"/>
	</g>
</g>
<g>
	<g>
		<path d="M439.9,408h-23.5c-5.5,0-10,4.5-10,10s4.5,10,10,10h23.5c5.5,0,10-4.5,10-10S445.4,408,439.9,408z"/>
	</g>
</g>
<g>
</g>
<g>
</g>
<g>
</g>
<g>
</g>
<g>
</g>
<g>
</g>
<g>
</g>
<g>
</g>
<g>
</g>
<g>
</g>
<g>
</g>
<g>
</g>
<g>
</g>
<g>
</g>
<g>
</g>
</svg>
