<?xml version="1.0" encoding="iso-8859-1"?>
<!-- Generator: Adobe Illustrator 19.0.0, SVG Export Plug-In . SVG Version: 6.00 Build 0)  -->
<svg version="1.1" id="Capa_1" xmlns="http://www.w3.org/2000/svg" xmlns:xlink="http://www.w3.org/1999/xlink" x="0px" y="0px"
	 viewBox="0 0 499.927 499.927" style="enable-background:new 0 0 499.927 499.927;" xml:space="preserve">
<g>
	<g>
		<path d="M287.927,194.956h-54c-5.5,0-10,4.5-10,10v159c0,5.5,4.5,10,10,10h54c5.5,0,10-4.5,10-10v-159
			C297.927,199.456,293.427,194.956,287.927,194.956z M276.927,353.956h-33v-139h33V353.956z"/>
	</g>
</g>
<g>
	<g>
		<path d="M177.927,264.956h-54c-5.5,0-10,4.5-10,10v88c0,5.5,4.5,10,10,10h54c5.5,0,10-4.5,10-10v-88
			C187.927,269.456,183.427,264.956,177.927,264.956z M166.927,353.956h-33v-69h33V353.956z"/>
	</g>
</g>
<g>
	<g>
		<path d="M66.927,245.956h-54c-5.5,0-10,4.5-10,10v108c0,5.5,4.5,10,10,10h54c5.5,0,10-4.5,10-10v-108
			C76.927,250.456,72.427,245.956,66.927,245.956z M56.927,353.956h-34v-88h34V353.956z"/>
	</g>
</g>
<g>
	<g>
		<path d="M399.627,26.456c-15.4-16-40.8-16.6-56.9-1.2c-10.6,10.1-14.8,25.2-11,39.3l-42.7,30.2c-15.8-15.7-41.3-15.7-57.1,0.1
			c-10.9,11-14.6,27.3-9.4,41.9l-39.3,33.1c-13-18.1-38.2-22.3-56.3-9.3c-6.6,4.7-11.6,11.3-14.4,19l-32.5-13.2
			c-3.9-21.9-24.8-36.6-46.7-32.7c-21.9,3.9-36.6,24.8-32.7,46.7c3.9,21.9,24.8,36.6,46.7,32.7c14.2-2.5,26-12.4,30.9-25.9
			l32.5,13.2c3.9,22,24.8,36.6,46.7,32.8c19.3-3.4,33.4-20.2,33.4-39.8c0-1.2-0.1-2.4-0.2-3.6l43.1-36.3c16.6,14.8,42.1,13.4,57-3.2
			c9.3-10.4,12.5-24.9,8.6-38.3l42.2-29.8c15.4,16,40.8,16.6,56.9,1.2C414.427,67.956,415.027,42.556,399.627,26.456z
			 M40.227,193.956c-11.3,0-20.4-9.1-20.4-20.4s9.1-20.4,20.4-20.4s20.4,9.1,20.4,20.4S51.527,193.956,40.227,193.956z
			 M150.427,213.956c-11.3,0-20.4-9.1-20.4-20.4s9.1-20.4,20.4-20.4s20.4,9.1,20.4,20.4
			C170.727,204.856,161.627,213.956,150.427,213.956z M260.527,143.856c-11.3,0-20.4-9.1-20.4-20.4s9.1-20.4,20.4-20.4
			s20.4,9.1,20.4,20.4S271.727,143.856,260.527,143.856z M370.627,74.756c-11.3,0-20.4-9.1-20.4-20.4c0.1-11.3,9.2-20.4,20.4-20.4
			c11.3,0,20.4,9.1,20.4,20.4C391.027,65.656,381.927,74.756,370.627,74.756z"/>
	</g>
</g>
<g>
	<g>
		<path d="M460.827,269.956c-0.1,0-0.1,0-0.2,0h-52.7v-134.2c0-5.5-4.8-9.8-10.4-9.8h-53.8c-5.4-0.1-9.8,4.3-9.8,9.6
			c0,0.1,0,0.1,0,0.2v134.5c-18.5,3.6-31.9,19.8-32,38.6v137.6c0,21.7,17.6,39.3,39.3,39.4h119.4c21.7,0,39.3-17.6,39.3-39.4v-137.5
			C499.927,287.356,482.427,269.956,460.827,269.956z M353.927,145.956h34v124h-34V145.956z M460.627,465.956h-119.4
			c-10.7,0-19.3-8.7-19.3-19.3v-137.4c0-10.7,8.7-19.3,19.3-19.3h119.3c10.7,0,19.3,8.7,19.3,19.3v137.4h0.1
			C479.927,457.356,471.227,465.956,460.627,465.956z"/>
	</g>
</g>
<g>
	<g>
		<path d="M462.927,295.956h-124c-5.5,0-10,4.5-10,10v31c0,5.5,4.5,10,10,10h124c5.5,0,10-4.5,10-10v-31
			C472.927,300.456,468.427,295.956,462.927,295.956z M452.927,326.956h-104v-11h104V326.956z"/>
	</g>
</g>
<g>
	<g>
		<path d="M361.827,356.956h-23c-5.5,0-10,4.5-10,10s4.5,10,10,10h23c5.5,0,10-4.5,10-10S367.327,356.956,361.827,356.956z"/>
	</g>
</g>
<g>
	<g>
		<path d="M361.827,396.956h-23c-5.5,0-10,4.5-10,10s4.5,10,10,10h23c5.5,0,10-4.5,10-10S367.327,396.956,361.827,396.956z"/>
	</g>
</g>
<g>
	<g>
		<path d="M361.827,435.956h-23c-5.5,0-10,4.5-10,10s4.5,10,10,10h23c5.5,0,10-4.5,10-10S367.327,435.956,361.827,435.956z"/>
	</g>
</g>
<g>
	<g>
		<path d="M412.227,356.956h-23c-5.5,0-10,4.5-10,10s4.5,10,10,10h23c5.5,0,10-4.5,10-10S417.727,356.956,412.227,356.956z"/>
	</g>
</g>
<g>
	<g>
		<path d="M412.227,396.956h-23c-5.5,0-10,4.5-10,10s4.5,10,10,10h23c5.5,0,10-4.5,10-10S417.727,396.956,412.227,396.956z"/>
	</g>
</g>
<g>
	<g>
		<path d="M412.227,435.956h-23c-5.5,0-10,4.5-10,10s4.5,10,10,10h23c5.5,0,10-4.5,10-10S417.727,435.956,412.227,435.956z"/>
	</g>
</g>
<g>
	<g>
		<path d="M462.827,356.956h-23c-5.5,0-10,4.5-10,10s4.5,10,10,10h23c5.5,0,10-4.5,10-10S468.327,356.956,462.827,356.956z"/>
	</g>
</g>
<g>
	<g>
		<path d="M462.827,396.956h-23c-5.5,0-10,4.5-10,10s4.5,10,10,10h23c5.5,0,10-4.5,10-10S468.327,396.956,462.827,396.956z"/>
	</g>
</g>
<g>
	<g>
		<path d="M462.827,435.956h-23c-5.5,0-10,4.5-10,10s4.5,10,10,10h23c5.5,0,10-4.5,10-10S468.327,435.956,462.827,435.956z"/>
	</g>
</g>
<g>
</g>
<g>
</g>
<g>
</g>
<g>
</g>
<g>
</g>
<g>
</g>
<g>
</g>
<g>
</g>
<g>
</g>
<g>
</g>
<g>
</g>
<g>
</g>
<g>
</g>
<g>
</g>
<g>
</g>
</svg>
