<?xml version="1.0" encoding="iso-8859-1"?>
<!-- Generator: Adobe Illustrator 19.0.0, SVG Export Plug-In . SVG Version: 6.00 Build 0)  -->
<svg version="1.1" id="Capa_1" xmlns="http://www.w3.org/2000/svg" xmlns:xlink="http://www.w3.org/1999/xlink" x="0px" y="0px"
	 viewBox="0 0 496.102 496.102" style="enable-background:new 0 0 496.102 496.102;" xml:space="preserve">
<g>
	<g>
		<path d="M457.502,82.351c-21.5-10.5-47.4-1.6-57.9,19.9c-7.2,14.7-5.4,32.2,4.5,45.2l-42.5,46.2c-15.2-18.3-42.4-20.8-60.7-5.6
			c-1.2,1-2.3,2.1-3.4,3.2l-35.9-29.4c0-0.2,0-0.4,0-0.6c0-23.9-19.3-43.2-43.2-43.2c-23.9,0-43.2,19.3-43.2,43.2
			c0,3.9,0.5,7.8,1.6,11.6l-39.8,49.5c-21.5-10.4-47.3-1.3-57.7,20.1c-10.4,21.4-1.3,47.3,20.1,57.7c6,2.8,12.4,4.3,18.9,4.3
			c23.8,0,43.2-19.3,43.2-43.1c0-9.5-3.1-18.8-8.9-26.3l34.9-43.6c16.6,17.1,43.9,17.4,61,0.8c2.8-2.8,5.3-5.9,7.2-9.3l31.4,25.7
			c-7,22.8,5.8,47,28.6,54c22.8,7,47-5.8,54-28.6c2.1-6.8,2.5-13.9,1.1-20.9l48.7-53c21.5,10.5,47.4,1.6,57.9-19.9
			S479.002,92.851,457.502,82.351z M118.302,284.451c-12.8,0-23.2-10.4-23.2-23.2c0-12.8,10.4-23.2,23.2-23.2
			c12.8,0,23.2,10.4,23.2,23.2C141.502,274.051,131.102,284.451,118.302,284.451z M218.302,184.451c-12.8,0-23.2-10.4-23.2-23.2
			c0-12.8,10.4-23.2,23.2-23.2c12.8,0,23.2,10.4,23.2,23.2C241.502,174.051,231.102,184.451,218.302,184.451z M328.302,244.451
			c-12.8,0-23.2-10.4-23.2-23.2c0-12.8,10.4-23.2,23.2-23.2s23.2,10.4,23.2,23.2C351.502,234.051,341.102,244.451,328.302,244.451z
			 M438.302,144.451c-12.8,0-23.2-10.4-23.2-23.2c0-12.8,10.4-23.2,23.2-23.2s23.2,10.4,23.2,23.2S451.102,144.451,438.302,144.451z
			"/>
	</g>
</g>
<g>
	<g>
		<path d="M465.502,306.051c-0.3,0-0.4,0-0.5,0h-41v-1c0.1-17-13.6-30.9-30.7-31c-0.1,0-0.2,0-0.2,0h-36.2
			c-17,0-30.9,13.7-30.9,30.8c0,0.1,0,0.2,0,0.3v1h-38c-13.7-0.1-25.8,8.9-29.8,22h-198.2v-306.9c-0.1-5.6-4.6-10.1-10.2-10.2h-40
			c-5.5,0.1-9.9,4.7-9.8,10.2v336.3c0,16.6,13.2,30.5,29.8,30.5h227.2v0.9c-0.1,5.5,4.3,10,9.8,10.1c0,0,0,0,0.1,0h2.2v54.6
			c0,17.2,14.4,31.4,31.6,31.4h151.8c17.3-0.1,31.4-14,31.6-31.4v-54.6h2.2c5.5-0.1,9.8-4.5,9.8-10v-0.1v-52.1
			C496.102,319.851,482.402,306.051,465.502,306.051z M257.002,368.051h-227.2c-5.5,0-9.8-5-9.8-10.5v-326.5h20v306.5
			c0,5.5,4.3,10.5,9.8,10.5h207.2V368.051z M346.002,305.051c-0.1-6,4.6-10.9,10.6-11c0.1,0,0.2,0,0.3,0h36.2
			c6-0.1,10.9,4.8,10.9,10.7c0,0.1,0,0.2,0,0.3v1h-58V305.051z M452.402,465.051h-151.8c-6.3-0.1-11.4-5.1-11.6-11.4v-54.6h46v8
			c0.1,5.6,4.6,10,10.1,10h59.4c5.5,0,10.4-4.5,10.4-10v-8h49l0.1,54.6C463.802,459.951,458.702,464.951,452.402,465.051z
			 M355.002,397.051v-16h40v16H355.002z M476.002,336.851v42.2h-61v-8.1c0-5.5-4.9-9.9-10.4-9.9h-59.4c-5.5-0.1-10.1,4.3-10.2,9.8
			v8.1h-58v-42.1c0-5.9,4.8-10.8,10.7-10.8c0.1,0,0.2,0,0.3,0h177c5.9-0.2,10.8,4.5,11,10.4
			C476.002,336.551,476.002,336.751,476.002,336.851z"/>
	</g>
</g>
<g>
</g>
<g>
</g>
<g>
</g>
<g>
</g>
<g>
</g>
<g>
</g>
<g>
</g>
<g>
</g>
<g>
</g>
<g>
</g>
<g>
</g>
<g>
</g>
<g>
</g>
<g>
</g>
<g>
</g>
</svg>
