<?xml version="1.0" encoding="iso-8859-1"?>
<!-- Generator: Adobe Illustrator 19.0.0, SVG Export Plug-In . SVG Version: 6.00 Build 0)  -->
<svg version="1.1" id="Capa_1" xmlns="http://www.w3.org/2000/svg" xmlns:xlink="http://www.w3.org/1999/xlink" x="0px" y="0px"
	 viewBox="0 0 499.7 499.7" style="enable-background:new 0 0 499.7 499.7;" xml:space="preserve">
<g>
	<g>
		<path d="M408.5,55.9c0,0-0.1,0-0.1-0.1C371.7,19.8,323.6,0,273,0c-5.6,0-10.1,4.5-10.1,10v181.2c0,5.5,4.8,9.6,10.3,9.6h181.2
			c5.4,0.1,9.9-4.3,10-9.7V191C464.4,140.5,444.6,92.5,408.5,55.9z M282.9,20.2c18.6,1.1,36.8,5.2,54,12.2l-54,54V20.2z
			 M282.9,114.7l73.3-73.2c10.8,6,21,13.2,30.3,21.4L282.9,166.4V114.7z M296.8,180.8l104.1-104c8.2,9.3,15.4,19.5,21.5,30.3
			l-73.9,73.7H296.8z M376.8,180.8l54.8-54.8c7.2,17.5,11.4,36,12.5,54.8H376.8z"/>
	</g>
</g>
<g>
	<g>
		<path d="M454.1,320.7c-0.1,0.1-0.2,0.1-0.3,0.1h-40.9v-0.9c0-12.5-7.4-23.8-18.9-28.7c2-11.3,3.1-22.7,3.1-34.1
			c0-5.6-4.4-10.1-10-10.2H215.9V76c0-5.5-4.4-10-10-10c-50.8-0.2-99.5,20-135.3,56c-36,36.7-55.8,84.7-55.8,135.2
			c0,105.4,85.6,191.2,191,191.2c17.6,0,35.2-2.4,52.1-7.2v27.2c0,17.2,14.4,31.3,31.6,31.3h151.8c17.2,0,31.6-14.1,31.6-31.3v-54.6
			h2.1c5.5,0,9.9-4.5,9.9-10c0,0,0,0,0-0.1v-52.1C484.9,334.6,471.1,320.8,454.1,320.7z M392.9,319.6c0,0.1,0,0.1,0,0.2v0.9h-58
			v-0.8c-0.1-6,4.6-10.9,10.5-11.1c0.1,0,0.2,0,0.3,0h36.2C387.9,308.8,392.9,313.6,392.9,319.6z M258,420.4
			c-16.9,5.4-34.5,8.1-52.2,8c-94.4,0-171.1-76.8-171.1-171.2c0-45.3,17.8-88.3,50.1-121.1C114.4,106.4,154,88.6,196,86.3v170.9
			c0,5.5,4.5,9.6,10.1,9.6h170.8c-0.4,7.4-1.2,14.7-2.6,22h-28.5c-17,0-30.8,13.8-30.8,30.8c0,0.1,0,0.2,0,0.3v0.9h-38
			c-17-0.1-30.9,13.5-31,30.5c0,0.1,0,0.2,0,0.3v52.2c-0.1,5.4,4.2,9.9,9.7,10h0.1h2.2V420.4z M452.9,468.5
			c0,6.2-5.5,11.3-11.6,11.3H289.5c-6.3,0-11.4-5.1-11.6-11.3v-54.7h46v8c0,5.5,4.5,10,10.1,10h59.4c5.5,0,9.5-4.4,9.5-10v-8h50
			V468.5z M343.9,411.8v-16h39v16H343.9z M464.9,351.7v42.1h-62v-8.1c0-5.5-4-9.9-9.5-9.9H334c-5.5-0.1-10,4.4-10.1,9.9v8.1h-58
			v-42.1c-0.1-5.9,4.7-10.8,10.6-10.9c0.1,0,0.2,0,0.4,0h177c6-0.1,10.9,4.6,11.1,10.5C464.9,351.4,464.9,351.5,464.9,351.7z"/>
	</g>
</g>
<g>
</g>
<g>
</g>
<g>
</g>
<g>
</g>
<g>
</g>
<g>
</g>
<g>
</g>
<g>
</g>
<g>
</g>
<g>
</g>
<g>
</g>
<g>
</g>
<g>
</g>
<g>
</g>
<g>
</g>
</svg>
