<?xml version="1.0" encoding="iso-8859-1"?>
<!-- Generator: Adobe Illustrator 19.0.0, SVG Export Plug-In . SVG Version: 6.00 Build 0)  -->
<svg version="1.1" id="Capa_1" xmlns="http://www.w3.org/2000/svg" xmlns:xlink="http://www.w3.org/1999/xlink" x="0px" y="0px"
	 viewBox="0 0 488.002 488.002" style="enable-background:new 0 0 488.002 488.002;" xml:space="preserve">
<g>
	<g>
		<path d="M178.502,97.001h-60.7c-5.5,0-9.9,4.5-9.8,9.9v0.1v253c-0.1,5.4,4.3,9.9,9.7,10h0.1h60.7c5.5,0,10.5-4.5,10.5-10v-253
			C189.002,101.501,184.002,97.001,178.502,97.001z M169.002,350.001h-41v-83h41V350.001z M169.002,247.001h-41v-130h41V247.001z"/>
	</g>
</g>
<g>
	<g>
		<path d="M71.002,178.001c-0.2,0-0.4,0-0.6,0h-60.7c-5.2-0.2-9.5,3.8-9.7,9c0,0.2,0,0.3,0,0.5v172.5c-0.1,5.4,4.1,9.9,9.5,10
			c0.1,0,0.1,0,0.2,0h60.7c5.3,0,9.6-4.4,9.6-9.7c0-0.1,0-0.2,0-0.3v-172.5C80.102,182.401,76.102,178.101,71.002,178.001z
			 M60.002,350.001h-40v-83h40V350.001z M60.002,247.001h-40v-49h40V247.001z"/>
	</g>
</g>
<g>
	<g>
		<path d="M457.302,304.001c-0.1,0-0.1,0-0.2,0h-41.1v-0.8c0-8.8-3.6-17.2-10-23.3v-264.9c-0.1-5.6-4.6-10-10.1-10h-61.9
			c-5.5,0-10,4.5-10,10v269.4c-4,5.4-6.1,12-6,18.7v0.8h-21v-242.9c0-5.5-4.9-10-10.4-10h-60.7c-5.5,0-9.9,4.5-9.9,10v299
			c0,5.5,4.4,10,9.9,10c0,0,0,0,0.1,0h23v17.1c0,5.4,4.3,9.9,9.8,9.9h0.1h2.1v54.8c0,17.2,14.5,31.2,31.7,31.2h151.8
			c17.2,0,31.5-14,31.5-31.2v-54.8h2.3c5.4,0,9.7-4.3,9.7-9.7c0-0.1,0-0.2,0-0.3v-52
			C488.102,318.001,474.402,304.101,457.302,304.001z M344.002,25.001h42v222h-42V25.001z M344.002,267.001h42v5c0,0-0.6,0-0.9,0
			h-36.1c-1.7,0-3.3,0.1-5,0.4V267.001z M348.802,292.001c0.1,0,0.1,0,0.2,0h36.2c6,0,10.9,4.9,10.9,11c0,0.1,0,0.1,0,0.2v0.8h-58
			v-0.8h-0.1C337.902,297.101,342.702,292.101,348.802,292.001z M236.002,71.001h41v176h-41V71.001z M249.002,335.001v15h-13v-83h41
			v37C261.102,305.601,249.002,319.001,249.002,335.001z M456.002,451.801c-0.2,6.2-5.3,11.2-11.5,11.2h-151.8
			c-6.2,0-11.7-5-11.7-11.2v-54.8h46v8.2c0.1,5.5,4.7,9.9,10.2,9.8h59.4c5.5,0,10.4-4.3,10.4-9.8v-8.2h49V451.801z M347.002,395.001
			v-16h40v16H347.002z M468.002,335.001v42h-61v-8c0-5.5-4.9-10-10.4-10h-59.4c-5.6,0-10.1,4.5-10.2,10v8h-58v-42
			c0-6,4.9-11,10.9-11c0.1,0,0.1,0,0.2,0h177c6-0.1,10.9,4.7,10.9,10.7C468.002,334.801,468.002,334.901,468.002,335.001z"/>
	</g>
</g>
<g>
</g>
<g>
</g>
<g>
</g>
<g>
</g>
<g>
</g>
<g>
</g>
<g>
</g>
<g>
</g>
<g>
</g>
<g>
</g>
<g>
</g>
<g>
</g>
<g>
</g>
<g>
</g>
<g>
</g>
</svg>
