<?xml version="1.0" encoding="iso-8859-1"?>
<!-- Generator: Adobe Illustrator 19.0.0, SVG Export Plug-In . SVG Version: 6.00 Build 0)  -->
<svg version="1.1" id="Capa_1" xmlns="http://www.w3.org/2000/svg" xmlns:xlink="http://www.w3.org/1999/xlink" x="0px" y="0px"
	 viewBox="0 0 507.6 507.6" style="enable-background:new 0 0 507.6 507.6;" xml:space="preserve">
<g>
	<g>
		<path d="M462.699,327.6h-4.9V10c0-5.5-4.5-10-10-10c-2.9,0-5.7,1.3-7.6,3.5l-46.5,54.6l-29.4-16.1c-4.5-2.5-10.1-1.1-13,3.1
			l-33.8,49.3l-38-9.4c-3.7-0.9-7.6,0.4-10,3.3l-33.7,40l-39.4-36.8c-3.1-2.9-7.6-3.5-11.3-1.6l-30.1,15l-42.9-37.6
			c-4.1-3.6-10.4-3.2-14.1,0.9c-0.1,0.1-0.1,0.1-0.2,0.2l-24,28.9V57.1c0-5.5-4.5-10.5-10.1-10.5h-40c-5.5,0-9.9,5-9.9,10.5v336.3
			c0,16.6,13.4,30.1,29.9,30.2h223.1V476c0.1,17.4,14.1,31.4,31.5,31.6h151.8c17.2,0,30.7-14.4,30.7-31.6v-54.4h3.1
			c5.6-0.2,10-4.7,9.9-10.3v-52.1C493.799,342,479.899,327.6,462.699,327.6z M73.799,128.5l32.9-39.5l40.2,35.2
			c3.1,2.7,7.4,3.2,11,1.4l29.9-14.9l42,39.3c4,3.8,10.4,3.6,14.1-0.5c0.1-0.1,0.2-0.3,0.4-0.4l36.3-43.2l38.7,9.5
			c4,1,8.3-0.6,10.6-4.1l32.6-47.5l28.6,15.7c4.2,2.3,9.3,1.3,12.4-2.3l34.3-40.1v80.3l-39.5,5.4c-2.5,0.3-4.7,1.6-6.3,3.5
			l-34.7,41.4l-38.4-23.5c-4.2-2.6-9.7-1.7-12.9,2.1l-39,46.4l-46.5-19.2c-3.6-1.5-7.8-0.7-10.7,1.9l-37.8,35.4l-22.7-39.1
			c-2.8-4.8-8.9-6.4-13.7-3.6c-0.4,0.2-0.7,0.4-1,0.7l-31.3,23.9l-29.5-17.7V128.5z M73.799,198.3l25,15c3.5,2.1,7.9,1.9,11.2-0.6
			l27.7-21.1l23.3,40.2c2.8,4.8,8.9,6.4,13.7,3.6c0.7-0.4,1.3-0.8,1.8-1.3l42.3-39.6l47.3,19.5c4,1.7,8.7,0.5,11.5-2.8l38.2-45.4
			l38.4,23.5c4.2,2.6,9.7,1.7,12.9-2.1l37.8-45l32.9-4.5v79.6l-32.7-11.9c-4.5-1.6-9.5,0.1-12,4.2l-34.8,57.1l-35.1-23.3
			c-4.3-2.9-10.1-2-13.3,2.1l-36.5,45.2l-35.5-28.7c-3.5-2.8-8.4-3-12.1-0.4l-35.5,25.1l-44.3-28.4c-3.9-2.5-9-2-12.3,1.2l-35.5,34
			l-24.4-7.3V198.3z M254.799,403.6h-211.1c-5.5-0.1-9.9-4.6-9.9-10.2V66.6h20v306.8c0,5.5,4.4,10.1,9.9,10.2h191.1V403.6z
			 M254.699,359.2v4.4h-180.9v-56.5l24.3,7.2c3.4,1,7.2,0.1,9.7-2.4l34.1-32.6l43.4,27.8c3.4,2.2,7.8,2.1,11.2-0.3l34.8-24.6
			l37.4,30.2c4.3,3.5,10.6,2.8,14.1-1.5l37-45.9l36.2,24c4.6,3.1,10.8,1.8,13.9-2.8c0.1-0.1,0.1-0.2,0.2-0.3l36-59l31.8,11.6v89.1
			h-16.1v-0.2c0-17-13.8-30.8-30.8-30.8c-0.1,0-0.2,0-0.3,0h-36.2c-16.9-0.1-30.6,13.4-30.8,30.3c0,0.2,0,0.4,0,0.5v0.2h-38.1
			C268.399,327.6,254.699,342,254.699,359.2z M401.899,327.1c0,0.1,0,0.2,0,0.3v0.2h-0.1h-58v-0.2c-0.2-5.8,4.4-10.6,10.2-10.8
			c0.2,0,0.4,0,0.6,0h36.2C396.699,316.4,401.699,321.1,401.899,327.1z M460.799,476c0,6.2-4.6,11.6-10.7,11.6h-151.8
			c-6.3-0.2-11.4-5.3-11.5-11.6v-54.4h46v7.8c0,5.6,4.4,10.1,10,10.2h59.4c5.5,0,9.6-4.7,9.6-10.2v-7.8h49V476z M352.799,419.6v-16
			h39v16H352.799z M473.799,401.6h-62v-8.4c0.2-5.2-3.9-9.5-9.1-9.6c-0.2,0-0.4,0-0.5,0h-59.4c-5.3-0.2-9.8,4-10,9.4
			c0,0.1,0,0.2,0,0.3v8.4h-58v-42.4c0-6.2,4.7-11.6,10.9-11.6h177c6.1-0.1,11.1,5.3,11.1,11.5V401.6z"/>
	</g>
</g>
<g>
</g>
<g>
</g>
<g>
</g>
<g>
</g>
<g>
</g>
<g>
</g>
<g>
</g>
<g>
</g>
<g>
</g>
<g>
</g>
<g>
</g>
<g>
</g>
<g>
</g>
<g>
</g>
<g>
</g>
</svg>
