<?xml version="1.0" encoding="iso-8859-1"?>
<!-- Generator: Adobe Illustrator 19.0.0, SVG Export Plug-In . SVG Version: 6.00 Build 0)  -->
<svg version="1.1" id="Capa_1" xmlns="http://www.w3.org/2000/svg" xmlns:xlink="http://www.w3.org/1999/xlink" x="0px" y="0px"
	 viewBox="0 0 485.9 485.9" style="enable-background:new 0 0 485.9 485.9;" xml:space="preserve">
<g>
	<g>
		<path d="M160.35,283.8c-6.6-10.3-11.3-21.8-13.8-33.9c-1-4.6-5.1-8-9.8-7.9H19.85c-5.5,0-10,4.5-10,10c0,0.1,0,0.1,0,0.2
			c0,0.6,0,1.1,0.1,1.7c4.4,45.8,22.4,89.2,51.6,124.7c1.8,2.2,4.4,3.5,7.2,3.6c0.2,0,0.3,0,0.5,0c2.7,0,5.2-1.1,7.1-2.9l82.7-82.9
			C162.45,293,162.95,287.8,160.35,283.8z M70.25,357.1c-20.7-28-34.1-60.6-39.1-95.1h97.8c2.5,9,6,17.6,10.5,25.8L70.25,357.1z"/>
	</g>
</g>
<g>
	<g>
		<path d="M221.05,325.5c-11.7-2.5-22.9-7.1-32.9-13.6c-4-2.6-9.2-2.1-12.6,1.3l-82.6,82.7c-3.9,3.9-3.9,10.2,0,14.1
			c0.2,0.2,0.5,0.4,0.7,0.6c35.5,29.2,78.9,47.2,124.6,51.6c0.5,0.1,1,0.1,1.6,0.1c0.1,0,0.1,0,0.2,0c5.5,0,10-4.5,10-10V335.4
			C230.05,330.3,226.15,326,221.05,325.5z M184.05,332.8c8.2,4.5,16.9,8.1,25.9,10.6v97.684
			c-34.363-5.011-66.927-18.404-94.9-39.084L184.05,332.8z M226.05,328c0.3,0.2,0.6,0.6,0.9,0.9
			C226.65,328.6,226.35,328.3,226.05,328z"/>
	</g>
</g>
<g>
	<g>
		<path d="M264.65,0.9c-5.5-0.5-10.4,3.5-10.9,9c0,0.3,0,0.6,0,0.9c0,0-0.2,29.3-0.4,58.5c-0.1,14.6-0.2,29.3-0.3,40.3
			c0,5.5-0.1,10.1-0.1,13.3c0,1.6,0,2.9,0,3.8c-0.1,8,4.8,10.3,7.7,11c0.1,0,0.1,0,0.2,0.1c37.2,7.9,66.3,37,74.1,74.3
			c1,4.6,5,8,9.8,8l117.2-0.2c5.6,0,10-4.6,10-10.1c0-0.3,0-0.6,0-0.9C461.25,99.3,374.05,11.9,264.65,0.9z M352.55,199.9
			c-11-38.6-41.1-68.7-79.6-79.8c0-17.5,0.3-62.1,0.6-97.9c91.4,14.3,162.9,86.1,177,177.5L352.55,199.9z"/>
	</g>
</g>
<g>
	<g>
		<path d="M219.65,0c-0.4,0-0.8,0-1.2,0.1c-0.1,0-0.2,0-0.4,0c-109.6,10.7-197.1,97.7-208,206.9c-0.6,5.5,3.5,10.4,8.9,10.9
			c0.4,0.1,0.7,0.1,1,0.1h117c4.7,0,8.8-3.3,9.8-7.9c7.9-36.3,37.7-65.7,74.3-73.3c4.6-1,8-5,8-9.8l0.5-117
			C229.55,4.5,225.15,0,219.65,0z M31.35,198c0.8-5.6,1.9-11.1,3.2-16.5l16.5,16.5H31.35z M79.35,198l-38.3-38.4
			c2.4-6.8,5.2-13.5,8.3-20l58.3,58.4H79.35z M130.95,192.9l-71.6-71.6c3.5-5.8,7.3-11.5,11.4-16.9l69,69.1
			C136.15,179.7,133.25,186.2,130.95,192.9z M158.75,148.6c-2.7,2.6-5.2,5.4-7.5,8.2l-67.9-67.9c4.5-5,9.2-9.7,14.1-14.2l67.9,67.9
			C163.15,144.5,160.95,146.5,158.75,148.6z M181.95,130.9l-69-69c5.4-4.1,11-7.9,16.8-11.5l71.4,71.4
			C194.45,124.2,188.05,127.3,181.95,130.9z M209.15,101.5l-61.2-61.2c6.5-3.1,13.1-6,19.8-8.4l41.4,41.4V101.5z M209.35,45.2
			l-19.9-19.9c6.5-1.6,13.2-2.9,20-3.9L209.35,45.2z"/>
	</g>
</g>
<g>
	<g>
		<path d="M458.45,309.8c6.7-18.3,11-37.4,12.9-56.9c0.5-5.5-3.5-10.4-8.9-10.9c-0.3,0-0.7,0-1,0h-117c-4.7,0-8.8,3.3-9.8,8
			c-1.9,9.6-5.3,18.9-10,27.6c-11.4,5-18.7,16.2-18.6,28.6v0.8h-38c-17-0.1-30.9,13.7-31,30.7c0,0.1,0,0.2,0,0.2V390
			c-0.1,5.4,4.2,9.9,9.6,9.9c0.1,0,0.1,0,0.2,0h2.2v54.8c0,17.2,14.4,31.2,31.6,31.2h151.8c17.2,0,31.6-14,31.6-31.2V400h2.2
			c5.4,0,9.8-4.4,9.8-9.8c0-0.1,0-0.1,0-0.2v-52C476.05,326,469.25,315,458.45,309.8z M352.35,262h97.8c-2.3,15.4-6.3,30.5-11.8,45
			h-34.3v-0.8c0.1-17.1-13.7-31.1-30.9-31.2h-0.1h-25.2C349.65,270.8,351.15,266.4,352.35,262z M326.05,306.2
			c-0.1-6,4.6-11,10.6-11.2c0.1,0,0.2,0,0.2,0h36.2c6.1,0,11,4.9,11,11c0,0.1,0,0.1,0,0.2v0.8h-58V306.2z M444.05,454.8
			c0,6.2-5.5,11.2-11.6,11.2h-151.8c-6.2,0-11.6-5.1-11.6-11.2V400h46v8.1c0.1,5.5,4.6,9.9,10.1,9.9h59.4c5.5,0,10.5-4.4,10.5-9.9
			V400h49V454.8z M335.05,398v-16h40v16H335.05z M456.05,338v42h-61v-8c0-5.5-5-10-10.5-10h-59.4c-5.5,0-10.1,4.4-10.1,10v8h-58v-42
			c-0.1-6,4.7-10.9,10.7-11c0.1,0,0.2,0,0.3,0h177c6-0.1,10.9,4.7,11,10.7C456.05,337.8,456.05,337.9,456.05,338z"/>
	</g>
</g>
<g>
</g>
<g>
</g>
<g>
</g>
<g>
</g>
<g>
</g>
<g>
</g>
<g>
</g>
<g>
</g>
<g>
</g>
<g>
</g>
<g>
</g>
<g>
</g>
<g>
</g>
<g>
</g>
<g>
</g>
</svg>
