<?xml version="1.0" encoding="iso-8859-1"?>
<!-- Generator: Adobe Illustrator 19.0.0, SVG Export Plug-In . SVG Version: 6.00 Build 0)  -->
<svg version="1.1" id="Capa_1" xmlns="http://www.w3.org/2000/svg" xmlns:xlink="http://www.w3.org/1999/xlink" x="0px" y="0px"
	 viewBox="0 0 491.8 491.8" style="enable-background:new 0 0 491.8 491.8;" xml:space="preserve">
<g>
	<g>
		<path d="M394.9,23.263c0,0,0,0-0.1,0l-101.7-7.3c-5.5-0.4-10.3,3.8-10.7,9.3c-0.4,5.5,3.8,10.3,9.3,10.7l75.8,5.4l-136.9,106.4
			l-102.3-80.6c-3.9-3.1-9.5-2.8-13.1,0.6l-104.1,100c-4,3.8-4.1,10.2-0.3,14.1c1.9,2,4.5,3.1,7.2,3.1c2.6,0,5.1-1,6.9-2.8
			l97.9-93.9l101.6,80c3.6,2.8,8.7,2.9,12.3,0l145.6-113.1l-5.5,71.8c-0.4,5.5,3.7,10.3,9.2,10.7c0.3,0,0.5,0,0.8,0
			c5.2,0,9.6-4,10-9.2l7.3-94.5C404.5,28.463,400.4,23.663,394.9,23.263z"/>
	</g>
</g>
<g>
	<g>
		<path d="M460.4,296.863h-40.6v-0.9c-0.1-17.2-14.1-31.1-31.3-31.1h-12.7v-54.1c-0.1-5.5-4.6-10-10.1-9.9h-63.6
			c-5.6-0.1-10.1,4.3-10.3,9.9v86.1h-8.4c-17.2,0-31.6,13.7-31.6,30.9v52.1c0,1.7,0.9,3,1.6,5h-5.6v-142.2c0.1-5.4-4.3-9.8-9.6-9.8
			c-0.1,0-0.1,0-0.2,0h-63.6c-5.2,0-9.5,4.2-9.5,9.4c0,0.1,0,0.3,0,0.4v142.2h-45v-99.6c0-5.5-4.1-10.4-9.6-10.4H46.6
			c-5.5,0-9.8,4.9-9.8,10.4v99.6H10c-5.5,0-10,4.5-10,10s4.5,10,10,10h254.8v39.7c0,17.3,14,31.3,31.2,31.3h151.8
			c17.2-0.1,31.1-14.1,31-31.3v-54.7h2.8c5.6,0,10.1-4.5,10.2-10v-52.1C491.8,310.563,477.6,296.863,460.4,296.863z M99.8,384.863
			h-43v-90h43V384.863z M227.8,384.863h-43v-132h43V384.863z M388.5,284.863c6.2-0.1,11.2,4.9,11.3,11.1v0.9h-59v-0.9
			c0-6.2,5.3-11.1,11.5-11.1H388.5z M311.8,220.863h44v44h-3.5c-17.2,0-31.5,13.9-31.5,31.1v0.9h-9V220.863z M458.8,444.563
			c0.1,6.2-4.8,11.2-11,11.3H296c-6.2-0.1-11.2-5.1-11.2-11.3v-54.7h46v8c-0.1,5.4,4.2,9.8,9.5,10c0.1,0,0.1,0,0.2,0h59.4
			c5.4,0,9.8-4.4,9.9-9.8v-0.1v-8h49V444.563z M350.8,387.863v-16h39v16H350.8z M471.8,327.763v42.1h-62v-8.1
			c0.1-5.4-4.3-9.8-9.7-9.9c-0.1,0-0.1,0-0.2,0h-59.4c-5.4,0-9.7,4.3-9.8,9.6c0,0.1,0,0.2,0,0.3v8.1h-59v-42.1h0.1
			c0-6.2,5.5-10.9,11.6-10.9h177c6.1-0.2,11.2,4.7,11.4,10.8C471.8,327.663,471.8,327.663,471.8,327.763z"/>
	</g>
</g>
<g>
</g>
<g>
</g>
<g>
</g>
<g>
</g>
<g>
</g>
<g>
</g>
<g>
</g>
<g>
</g>
<g>
</g>
<g>
</g>
<g>
</g>
<g>
</g>
<g>
</g>
<g>
</g>
<g>
</g>
</svg>
