<?xml version="1.0" encoding="iso-8859-1"?>
<!-- Generator: Adobe Illustrator 19.0.0, SVG Export Plug-In . SVG Version: 6.00 Build 0)  -->
<svg version="1.1" id="Capa_1" xmlns="http://www.w3.org/2000/svg" xmlns:xlink="http://www.w3.org/1999/xlink" x="0px" y="0px"
	 viewBox="0 0 499.901 499.901" style="enable-background:new 0 0 499.901 499.901;" xml:space="preserve">
<g>
	<g>
		<path d="M249,145.95h-89c-5.5,0-10,4.5-10,10v190c0,5.5,4.5,10,10,10h89c5.5,0,10-4.5,10-10v-190
			C259,150.45,254.5,145.95,249,145.95z M239,335.95h-69v-170h69V335.95z"/>
	</g>
</g>
<g>
	<g>
		<path d="M99,215.95H10c-5.5,0-10,4.5-10,10v120c0,5.5,4.5,10,10,10h89c5.5,0,10-4.5,10-10v-120C109,220.45,104.5,215.95,99,215.95
			z M89,335.95H20v-100h69V335.95z"/>
	</g>
</g>
<g>
	<g>
		<path d="M468.7,275.95H428v-0.1c0-12.5-7.5-23.9-19-28.8V54.25c-0.1-5.7-4.7-10.2-10.4-10.3h-89c-5.5,0-9.7,4.8-9.7,10.3v221.7
			h-8.3c-17.4,0.2-31.5,14.3-31.7,31.7v52.1c0,5.5,5,10.2,10.5,10.2h2.5v54.5c0,17.3,14,31.4,31.3,31.5H456
			c17.2,0,30.9-14.3,30.9-31.5v-54.5h2.9c5.6-0.1,10.1-4.6,10.1-10.2v-52.1C500,290.45,485.9,275.95,468.7,275.95z M408.1,275.75
			v0.1v0.1H349v-0.1c0-6.2,5.4-10.9,11.6-10.9h36.2C402.9,264.85,407.9,269.65,408.1,275.75z M320,63.95h69v181h-28.4
			c-17.2,0-31.6,13.7-31.6,30.9v0.1h-9V63.95z M467,424.45c0,6.2-4.8,11.5-10.9,11.5H304.3c-6.3-0.1-11.3-5.2-11.3-11.5v-54.5h46
			v7.9c-0.1,5.5,4.3,10,9.8,10.1h59.4c5.5-0.1,9.9-4.6,9.8-10.1v-7.9h49V424.45z M359,367.95v-16h39v16H359z M480,349.95h-62v-8.3
			c0.1-5.3-4.2-9.7-9.5-9.7c-0.1,0-0.2,0-0.3,0h-59.4c-5.3-0.1-9.7,4.1-9.8,9.4c0,0.1,0,0.2,0,0.3v8.3h-59v-42.3h0
			c0.2-6.4,5.3-11.5,11.7-11.7h177c6.2,0,11.3,5.5,11.3,11.7V349.95z"/>
	</g>
</g>
<g>
</g>
<g>
</g>
<g>
</g>
<g>
</g>
<g>
</g>
<g>
</g>
<g>
</g>
<g>
</g>
<g>
</g>
<g>
</g>
<g>
</g>
<g>
</g>
<g>
</g>
<g>
</g>
<g>
</g>
</svg>
