<?xml version="1.0" encoding="iso-8859-1"?>
<!-- Generator: Adobe Illustrator 19.0.0, SVG Export Plug-In . SVG Version: 6.00 Build 0)  -->
<svg version="1.1" id="Capa_1" xmlns="http://www.w3.org/2000/svg" xmlns:xlink="http://www.w3.org/1999/xlink" x="0px" y="0px"
	 viewBox="0 0 500.179 500.179" style="enable-background:new 0 0 500.179 500.179;" xml:space="preserve">
<g>
	<g>
		<path d="M185.179,282.119h-56c-5.5,0-10,4.5-10,10v92c0,5.5,4.5,10,10,10h56c5.5,0,10-4.5,10-10v-92
			C195.179,286.619,190.679,282.119,185.179,282.119z M175.179,374.119h-36v-72h36V374.119z"/>
	</g>
</g>
<g>
	<g>
		<path d="M69.179,262.119h-56c-5.5,0-10,4.5-10,10v113c0,5.5,4.5,10,10,10h56c5.5,0,10-4.5,10-10v-113
			C79.179,266.619,74.679,262.119,69.179,262.119z M60.179,374.119h-37v-92h37V374.119z"/>
	</g>
</g>
<g>
	<g>
		<path d="M418.279,32.219c-15.7-16.8-42.2-17.6-59-1.9c-11.3,10.6-15.8,26.5-11.7,41.4l-45.3,32.1c-16.2-16.4-42.7-16.6-59.1-0.4
			c-11.6,11.5-15.5,28.6-9.9,44l-41.8,35.2c-13.2-18.9-39.2-23.6-58.2-10.4c-7.2,5-12.6,12.2-15.5,20.4l-34.7-14.1
			c-3.9-22.8-25.4-38.1-48.2-34.2c-22.8,3.9-38.1,25.6-34.3,48.3c3.8,22.7,25.4,38.1,48.2,34.2c15-2.5,27.4-13,32.5-27.3l34.7,14.1
			c3.9,22.8,25.4,38.1,48.2,34.2c20.1-3.4,34.8-20.8,34.8-41.2c0-1.3-0.1-2.7-0.2-4l45.7-38.5c17.1,15.5,43.5,14.3,59-2.8
			c9.9-10.9,13.3-26.1,9.1-40.2l44.8-31.8c15.8,16.8,42.2,17.6,59,1.9C433.179,75.419,433.979,49.019,418.279,32.219z
			 M41.879,207.519c-12,0-21.8-9.8-21.8-21.8s9.8-21.8,21.8-21.8s21.8,9.8,21.8,21.8C63.579,197.719,53.879,207.419,41.879,207.519z
			 M157.179,228.419c-12,0-21.8-9.8-21.8-21.8s9.8-21.8,21.8-21.8s21.8,9.8,21.8,21.8
			C178.979,218.719,169.279,228.419,157.179,228.419z M272.579,155.019c-12,0-21.8-9.8-21.8-21.8s9.7-21.8,21.8-21.8
			c12,0,21.8,9.8,21.8,21.8S284.579,155.019,272.579,155.019z M387.879,82.619c-12,0-21.8-9.8-21.8-21.8c0-12.1,9.8-21.8,21.8-21.8
			s21.8,9.8,21.8,21.8S399.879,82.619,387.879,82.619z"/>
	</g>
</g>
<g>
	<g>
		<path d="M469.179,302.119h-41v-0.7c-0.1-4-0.8-8-2-11.8v-143.5c0-5.5-4.6-10-10.1-10h-56.3c-5.5,0-9.6,4.5-9.6,10v126.3
			c-12.1,4.5-20.1,16.1-20,29.1v0.7h-19v-83.9c0-5.5-4.9-10.1-10.5-10.1h-56.3c-5.6,0.1-10.1,4.6-10.2,10.1v166.3
			c0,5.5,4.7,9.5,10.2,9.5h22.7c1.1,0.8,2.5,1.2,3.9,1h2.2v54.9c0,17.2,14.4,31.1,31.6,31.1h151.8c17.2,0,31.6-13.9,31.6-31.1v-54.9
			h2.2c5.3,0.1,9.7-4.2,9.8-9.5c0-0.1,0-0.2,0-0.3v-52.1C500.179,316.119,486.379,302.119,469.179,302.119z M370.179,156.119h36
			v115.4c-2.9-0.9-5.9-1.4-9-1.4h-27V156.119z M350.179,301.419c-0.2-6.1,4.6-11.2,10.7-11.3h0.1h36.2c6.2,0.1,11.1,5.1,11,11.3v0.7
			h-58V301.419z M261.179,333.319v40.8h-7v-146h37v74C274.379,302.719,261.179,316.519,261.179,333.319z M468.179,450.019
			c0,6.2-5.5,11.1-11.6,11.1h-151.8c-6.2,0-11.6-4.9-11.6-11.1v-54.9h46v8.3c0.1,5.4,4.5,9.8,10,9.7h0.1h59.4c5.2,0.1,9.4-4,9.5-9.2
			c0-0.2,0-0.4,0-0.5v-8.3h50V450.019z M359.179,393.119v-16h39v16H359.179z M480.179,333.219v41.9h-62v-7.8c0-5.5-4-10.2-9.5-10.2
			h-59.4c-5.6,0.1-10.1,4.6-10.1,10.2v7.8h-58v-41.9c-0.1-6.1,4.8-11,10.8-11.1c0.1,0,0.1,0,0.2,0h177c6.1,0,11,4.9,11,11V333.219z"
			/>
	</g>
</g>
<g>
</g>
<g>
</g>
<g>
</g>
<g>
</g>
<g>
</g>
<g>
</g>
<g>
</g>
<g>
</g>
<g>
</g>
<g>
</g>
<g>
</g>
<g>
</g>
<g>
</g>
<g>
</g>
<g>
</g>
</svg>
