<?xml version="1.0" encoding="iso-8859-1"?>
<!-- Generator: Adobe Illustrator 19.0.0, SVG Export Plug-In . SVG Version: 6.00 Build 0)  -->
<svg version="1.1" id="Capa_1" xmlns="http://www.w3.org/2000/svg" xmlns:xlink="http://www.w3.org/1999/xlink" x="0px" y="0px"
	 viewBox="0 0 458 458" style="enable-background:new 0 0 458 458;" xml:space="preserve">
<g>
	<g>
		<path d="M388.3,0h-293C67.6,0,45.2,22.4,45.1,50.1V70H29.9c-5.5,0-10,4.5-10,10s4.5,10,10,10h15.2v55H29.9c-5.5,0-10,4.5-10,10
			s4.5,10,10,10h15.2v54H29.9c-5.5,0-10,4.5-10,10s4.5,10,10,10h15.2v54H29.9c-5.5,0-10,4.5-10,10s4.5,10,10,10h15.2v55H29.9
			c-5.5,0-10,4.5-10,10s4.5,10,10,10h15.2v19.9c0.1,27.6,22.5,50,50.2,50.1h293c27.6-0.1,49.9-22.5,49.8-50V50.1
			C438.2,22.5,415.9,0.1,388.3,0z M418.1,50.1v357.8c0.1,16.5-13.2,30-29.7,30.1c0,0,0,0-0.1,0h-293c-16.6,0-30.1-13.4-30.2-30.1
			V388h15.1c5.5,0,10-4.5,10-10s-4.5-10-10-10H65.1v-55h15.1c5.5,0,10-4.5,10-10s-4.5-10-10-10H65.1v-54h15.1c5.5,0,10-4.5,10-10
			s-4.5-10-10-10H65.1v-54h15.1c5.5,0,10-4.5,10-10s-4.5-10-10-10H65.1V90h15.1c5.5,0,10-4.5,10-10s-4.5-10-10-10H65.1V50.1
			c0.1-16.6,13.6-30,30.2-30.1h293c16.5,0.1,29.8,13.5,29.8,30C418.1,50,418.1,50,418.1,50.1z"/>
	</g>
</g>
<g>
	<g>
		<path d="M329.7,364H177c-5.5,0-10,4.5-10,10s4.5,10,10,10h152.7c5.5,0,10-4.5,10-10S335.2,364,329.7,364z"/>
	</g>
</g>
<g>
	<g>
		<path d="M346,282H170.1V146.1c0-5.5-4.5-10-10-10s-10,4.5-10,10v136.6c0,10.6,8.2,19.4,18.9,19.4h177.1c5.5,0,10-4.5,10-10
			S351.6,282,346,282z"/>
	</g>
</g>
<g>
	<g>
		<path d="M356.3,158c-2.3-0.5-4.8-0.8-7.2-0.8c-14,0-25.4,11.4-25.5,25.4c0,4,1,8,2.8,11.6L313,208.8c-8.7-6.5-20.6-6.7-29.6-0.5
			l-11.5-9.4c-1.3-14-13.7-24.3-27.7-23c-14,1.3-24.3,13.7-23,27.7c0.1,0.6,0.1,1.1,0.2,1.7l-14.4,18c-13.5-3.9-27.6,3.9-31.5,17.4
			c-3.9,13.5,3.9,27.6,17.4,31.5c13.5,3.9,27.6-3.9,31.5-17.4c1.8-6.3,1.1-13.1-1.9-18.9l10.5-13.2c10.2,6.4,23.4,4.8,31.8-3.9
			l7.8,6.4c-2.1,13.9,7.4,26.9,21.3,29c13.9,2.1,26.9-7.4,29-21.3c0.2-1.3,0.3-2.6,0.3-3.9c0-0.7,0-1.3-0.1-2l18.6-20.2
			c13.5,4,27.6-3.7,31.7-17.1C377.4,176.2,369.7,162.1,356.3,158z M200.1,253.2c-3,0-5.5-2.4-5.5-5.5c0-3,2.4-5.5,5.5-5.5
			c3,0,5.5,2.4,5.5,5.5C205.6,250.8,203.1,253.2,200.1,253.2z M246.7,206.7c-3,0-5.5-2.4-5.5-5.5c0-3.1,2.4-5.5,5.5-5.5
			c3,0,5.5,2.4,5.5,5.5C252.1,204.2,249.7,206.7,246.7,206.7z M297.9,234.6c-3,0-5.5-2.4-5.5-5.5c0-3,2.4-5.5,5.5-5.5
			c3,0,5.5,2.4,5.5,5.5C303.3,232.2,300.9,234.6,297.9,234.6z M349.1,188.1c-3,0-5.5-2.4-5.5-5.5c0-3.1,2.4-5.5,5.5-5.5
			c3,0,5.5,2.4,5.5,5.5C354.5,185.6,352.1,188.1,349.1,188.1z"/>
	</g>
</g>
<g>
</g>
<g>
</g>
<g>
</g>
<g>
</g>
<g>
</g>
<g>
</g>
<g>
</g>
<g>
</g>
<g>
</g>
<g>
</g>
<g>
</g>
<g>
</g>
<g>
</g>
<g>
</g>
<g>
</g>
</svg>
