<?xml version="1.0" encoding="iso-8859-1"?>
<!-- Generator: Adobe Illustrator 19.0.0, SVG Export Plug-In . SVG Version: 6.00 Build 0)  -->
<svg version="1.1" id="Capa_1" xmlns="http://www.w3.org/2000/svg" xmlns:xlink="http://www.w3.org/1999/xlink" x="0px" y="0px"
	 viewBox="0 0 458 458" style="enable-background:new 0 0 458 458;" xml:space="preserve">
<g>
	<g>
		<path d="M388.3,0h-293C67.6,0,45.2,22.4,45.1,50.1V70H29.9c-5.5,0-10,4.5-10,10s4.5,10,10,10h15.2v55H29.9c-5.5,0-10,4.5-10,10
			s4.5,10,10,10h15.2v54H29.9c-5.5,0-10,4.5-10,10s4.5,10,10,10h15.2v54H29.9c-5.5,0-10,4.5-10,10s4.5,10,10,10h15.2v55H29.9
			c-5.5,0-10,4.5-10,10s4.5,10,10,10h15.2v19.9c0.1,27.6,22.5,50,50.2,50.1h293c27.6-0.1,49.9-22.5,49.8-50V50.1
			C438.2,22.5,415.9,0.1,388.3,0z M418.1,50.1v357.8c0.1,16.5-13.2,30-29.7,30.1c0,0,0,0-0.1,0h-293c-16.6,0-30.1-13.4-30.2-30.1
			V388h15.1c5.5,0,10-4.5,10-10s-4.5-10-10-10H65.1v-55h15.1c5.5,0,10-4.5,10-10s-4.5-10-10-10H65.1v-54h15.1c5.5,0,10-4.5,10-10
			s-4.5-10-10-10H65.1v-54h15.1c5.5,0,10-4.5,10-10s-4.5-10-10-10H65.1V90h15.1c5.5,0,10-4.5,10-10s-4.5-10-10-10H65.1V50.1
			c0.1-16.6,13.6-30,30.2-30.1h293c16.5,0.1,29.8,13.5,29.8,30C418.1,50,418.1,50,418.1,50.1z"/>
	</g>
</g>
<g>
	<g>
		<path d="M329.7,364H177c-5.5,0-10,4.5-10,10s4.5,10,10,10h152.7c5.5,0,10-4.5,10-10S335.2,364,329.7,364z"/>
	</g>
</g>
<g>
	<g>
		<path d="M328.8,206h-0.1h-75.6v-75.9c0-5.5-4.4-10-9.9-10c0,0,0,0-0.1,0c-25.4-0.1-49.7,10-67.6,28
			c-37.2,37.4-37.1,97.9,0.3,135.1c18,17.8,42.2,27.8,67.4,27.8c52.6,0.1,95.4-42.6,95.5-95.2C338.7,210.4,334.3,206,328.8,206z
			 M296.6,269.2c-29.6,29.4-77.5,29.3-106.9-0.4c-14-14.1-21.9-33.3-22-53.2c0.1-20,8-39.2,22.1-53.4c11.7-11.7,26.9-19.2,43.3-21.4
			v74.8c0,5.6,4.5,10.2,10.1,10.4H318C315.7,242.3,308.2,257.5,296.6,269.2z"/>
	</g>
</g>
<g>
	<g>
		<path d="M342.6,116.9c-0.1-0.1-0.1,0-0.2-0.1C324.5,99,300.3,89,275,89c-5.5,0-9.9,4.5-9.9,9.9c0,0,0,0,0,0.1v85.5
			c0,5.3,4.2,9.6,9.5,9.6c0.1,0,0.3,0,0.4,0h85.5c5.4,0.1,9.9-4.2,10-9.7v-0.1C370.5,159,360.5,134.8,342.6,116.9z M285.1,109.7
			c3.5,0.5,7,1.2,10.5,2.1l-10.5,10.5V109.7z M285.1,150.6l30-30c1.9,1.2,3.8,2.5,5.6,3.8L285.1,160V150.6z M298.9,174l35.9-35.7
			c1.4,1.8,2.7,3.6,3.9,5.5L308.3,174H298.9z M336.6,174l10.9-10.9c1,3.6,1.7,7.2,2.3,10.9H336.6z"/>
	</g>
</g>
<g>
</g>
<g>
</g>
<g>
</g>
<g>
</g>
<g>
</g>
<g>
</g>
<g>
</g>
<g>
</g>
<g>
</g>
<g>
</g>
<g>
</g>
<g>
</g>
<g>
</g>
<g>
</g>
<g>
</g>
</svg>
