<?xml version="1.0" encoding="iso-8859-1"?>
<!-- Generator: Adobe Illustrator 19.0.0, SVG Export Plug-In . SVG Version: 6.00 Build 0)  -->
<svg version="1.1" id="Capa_1" xmlns="http://www.w3.org/2000/svg" xmlns:xlink="http://www.w3.org/1999/xlink" x="0px" y="0px"
	 viewBox="0 0 458 458" style="enable-background:new 0 0 458 458;" xml:space="preserve">
<g>
	<g>
		<path d="M388.3,0h-293C67.6,0,45.2,22.4,45.1,50.1V70H29.9c-5.5,0-10,4.5-10,10s4.5,10,10,10h15.2v55H29.9c-5.5,0-10,4.5-10,10
			s4.5,10,10,10h15.2v54H29.9c-5.5,0-10,4.5-10,10s4.5,10,10,10h15.2v54H29.9c-5.5,0-10,4.5-10,10s4.5,10,10,10h15.2v55H29.9
			c-5.5,0-10,4.5-10,10s4.5,10,10,10h15.2v19.9c0.1,27.6,22.5,50,50.2,50.1h293c27.6-0.1,49.9-22.5,49.8-50V50.1
			C438.2,22.5,415.9,0.1,388.3,0z M418.1,50.1v357.8c0.1,16.5-13.2,30-29.7,30.1c0,0,0,0-0.1,0h-293c-16.6,0-30.1-13.4-30.2-30.1
			V388h15.1c5.5,0,10-4.5,10-10s-4.5-10-10-10H65.1v-55h15.1c5.5,0,10-4.5,10-10s-4.5-10-10-10H65.1v-54h15.1c5.5,0,10-4.5,10-10
			s-4.5-10-10-10H65.1v-54h15.1c5.5,0,10-4.5,10-10s-4.5-10-10-10H65.1V90h15.1c5.5,0,10-4.5,10-10s-4.5-10-10-10H65.1V50.1
			c0.1-16.6,13.6-30,30.2-30.1h293c16.5,0.1,29.8,13.5,29.8,30C418.1,50,418.1,50,418.1,50.1z"/>
	</g>
</g>
<g>
	<g>
		<path d="M329.7,364H177c-5.5,0-10,4.5-10,10s4.5,10,10,10h152.7c5.5,0,10-4.5,10-10S335.2,364,329.7,364z"/>
	</g>
</g>
<g>
	<g>
		<path d="M364.7,206.5c-2.5-22.1-11.2-42.8-25.3-59.8c-3.2-3.8-8.8-4.4-12.7-1.2c-0.2,0.2-0.4,0.4-0.6,0.6l-38.8,38.6
			c-3,3-3.5,7.7-1.2,11.3c2.7,4.4,4.7,9.2,6,14.3c1,4,4.6,6.8,8.7,6.8h53.7c0.3,0,0.7,0,1,0h0.2c4,0,7.6-2.7,8.7-6.5
			c0.2-0.8,0.4-1.6,0.4-2.5C364.8,207.6,364.8,207,364.7,206.5z M307.4,199c-0.7-2-1.6-4.2-2.6-6.4l26.6-26.5
			c6.6,10,11.3,21.2,13.7,32.9H307.4z"/>
	</g>
</g>
<g>
	<g>
		<path d="M324.6,131.9c-0.2-0.2-0.4-0.4-0.6-0.6c-17.2-14.2-38.2-23-60.4-25.1c-4.9-0.7-9.5,2.7-10.2,7.6c-0.1,0.4-0.1,0.9-0.1,1.3
			V170c-0.2,4.2,2.9,7.9,7.2,8.7c4.9,1,9.6,3,13.9,5.8c3.6,2.3,8.3,1.9,11.3-1.1l38.9-38.8C328.1,141.1,328.1,135.4,324.6,131.9z
			 M277.8,165.8c-2.2-1.1-4.4-2-6.7-2.8v-37.6c11.9,2.4,23.2,7.1,33.3,13.8L277.8,165.8z"/>
	</g>
</g>
<g>
	<g>
		<path d="M240.2,106.1c-0.3,0-0.6,0-0.9,0c-25.8,2.6-49.8,14.1-68,32.5c-18.1,18.5-29.3,42.6-31.8,68.4c-0.5,4.9,3.1,9.3,8.1,9.8
			c0.2,0.2,0.5,0.2,0.8,0.2h54.9c4.2,0,7.9-2.9,8.8-7.1c3.2-14.4,16.1-27.7,30.2-31.1c4-1,6.9-4.6,6.9-8.8v-54.9
			C249.2,110.1,245.2,106.1,240.2,106.1z M231.1,163.5c-15.4,6.1-28.7,19.8-34.5,35.5h-37.8c3.6-18,12.4-34.5,25.3-47.6
			c12.8-13,29.2-21.9,47-25.7V163.5z"/>
	</g>
</g>
<g>
	<g>
		<path d="M243.6,258.5c-0.1,0-0.1,0-0.2,0c-15.8-3.3-28.1-15.7-31.5-31.5c-0.9-4.2-4.6-7.1-8.8-7.1h-55c-2.5,0-4.9,1-6.7,2.9
			c-1.7,1.9-2.5,4.4-2.3,6.9c5.4,53.6,47.7,96.1,101.2,101.5c0.3,0,0.6,0,0.9,0c4.9,0,9-4,9-8.9c0,0,0.1-13.7,0.2-27.5
			c0-6.9,0.1-13.7,0.1-18.9c0-2.6,0-4.7,0-6.3c0-0.8,0-1.4,0-1.8C250.5,260.5,244.7,258.7,243.6,258.5z M232.2,311.8
			c-37.1-7.8-66-36.8-73.7-73.9l37.8-0.1c5.9,17,19.2,30.4,36.2,36.3C232.5,282.6,232.3,298,232.2,311.8z"/>
	</g>
</g>
<g>
	<g>
		<path d="M356.4,221.1c-0.2-0.1-0.5-0.1-0.8-0.1h-54.9c-4.2,0-7.8,2.9-8.8,7c-3.4,15.1-16.4,27.9-31.6,31.1
			c-4.2,0.9-7.2,4.5-7.2,8.8l-0.2,54.9c0,5,4,9,9,9c0.3,0,0.7,0,1-0.1h0.1c53.5-5.2,96.2-47.6,101.5-100.8
			C365,226,361.4,221.5,356.4,221.1z M287.2,307.6L271,291.4l0.1-16.7c2.6-0.9,5.2-2,7.6-3.3l26.6,26.6
			C299.6,301.8,293.6,305,287.2,307.6z M319.3,286.4l-25.9-25.9c4.7-4.6,8.6-10,11.6-16l26.7,26.7
			C328.1,276.7,323.9,281.8,319.3,286.4z M340.4,254.5L324.9,239h20.2C344,244.3,342.4,249.5,340.4,254.5z"/>
	</g>
</g>
<g>
</g>
<g>
</g>
<g>
</g>
<g>
</g>
<g>
</g>
<g>
</g>
<g>
</g>
<g>
</g>
<g>
</g>
<g>
</g>
<g>
</g>
<g>
</g>
<g>
</g>
<g>
</g>
<g>
</g>
</svg>
