<?xml version="1.0" encoding="iso-8859-1"?>
<!-- Generator: Adobe Illustrator 19.0.0, SVG Export Plug-In . SVG Version: 6.00 Build 0)  -->
<svg version="1.1" id="Capa_1" xmlns="http://www.w3.org/2000/svg" xmlns:xlink="http://www.w3.org/1999/xlink" x="0px" y="0px"
	 viewBox="0 0 458 458" style="enable-background:new 0 0 458 458;" xml:space="preserve">
<g>
	<g>
		<path d="M388.3,0h-293C67.6,0,45.2,22.4,45.1,50.1V70H29.9c-5.5,0-10,4.5-10,10s4.5,10,10,10h15.2v55H29.9c-5.5,0-10,4.5-10,10
			s4.5,10,10,10h15.2v54H29.9c-5.5,0-10,4.5-10,10s4.5,10,10,10h15.2v54H29.9c-5.5,0-10,4.5-10,10s4.5,10,10,10h15.2v55H29.9
			c-5.5,0-10,4.5-10,10s4.5,10,10,10h15.2v19.9c0.1,27.6,22.5,50,50.2,50.1h293c27.6-0.1,49.9-22.5,49.8-50V50.1
			C438.2,22.5,415.9,0.1,388.3,0z M418.1,50.1v357.8c0.1,16.5-13.2,30-29.7,30.1c0,0,0,0-0.1,0h-293c-16.6,0-30.1-13.4-30.2-30.1
			V388h15.1c5.5,0,10-4.5,10-10s-4.5-10-10-10H65.1v-55h15.1c5.5,0,10-4.5,10-10s-4.5-10-10-10H65.1v-54h15.1c5.5,0,10-4.5,10-10
			s-4.5-10-10-10H65.1v-54h15.1c5.5,0,10-4.5,10-10s-4.5-10-10-10H65.1V90h15.1c5.5,0,10-4.5,10-10s-4.5-10-10-10H65.1V50.1
			c0.1-16.6,13.6-30,30.2-30.1h293c16.5,0.1,29.8,13.5,29.8,30C418.1,50,418.1,50,418.1,50.1z"/>
	</g>
</g>
<g>
	<g>
		<path d="M329.7,364H177c-5.5,0-10,4.5-10,10s4.5,10,10,10h152.7c5.5,0,10-4.5,10-10S335.2,364,329.7,364z"/>
	</g>
</g>
<g>
	<g>
		<path d="M281.1,187h-45c-5.5,0-10,4.5-10,10v97c0,5.5,4.5,10,10,10h45c5.5,0,10-4.5,10-10v-97C291.1,191.5,286.6,187,281.1,187z
			 M272.1,283h-26v-76h26V283z"/>
	</g>
</g>
<g>
	<g>
		<path d="M358.1,135h-45c-5.5,0-10,4.5-10,10v148c0,5.5,4.5,10,10,10h45c5.5,0,10-4.5,10-10V145C368.1,139.5,363.6,135,358.1,135z
			 M348.1,283h-25V155h25V283z"/>
	</g>
</g>
<g>
	<g>
		<path d="M205.1,222h-45c-5.5,0-10,4.5-10,10v61c0,5.5,4.5,10,10,10h45c5.5,0,10-4.5,10-10v-61C215.1,226.5,210.6,222,205.1,222z
			 M195.1,283h-25v-41h25V283z"/>
	</g>
</g>
<g>
</g>
<g>
</g>
<g>
</g>
<g>
</g>
<g>
</g>
<g>
</g>
<g>
</g>
<g>
</g>
<g>
</g>
<g>
</g>
<g>
</g>
<g>
</g>
<g>
</g>
<g>
</g>
<g>
</g>
</svg>
