<?xml version="1.0" encoding="iso-8859-1"?>
<!-- Generator: Adobe Illustrator 19.0.0, SVG Export Plug-In . SVG Version: 6.00 Build 0)  -->
<svg version="1.1" id="Capa_1" xmlns="http://www.w3.org/2000/svg" xmlns:xlink="http://www.w3.org/1999/xlink" x="0px" y="0px"
	 viewBox="0 0 458 458" style="enable-background:new 0 0 458 458;" xml:space="preserve">
<g>
	<g>
		<path d="M388.3,0h-293C67.6,0,45.2,22.4,45.1,50.1V70H29.9c-5.5,0-10,4.5-10,10s4.5,10,10,10h15.2v55H29.9c-5.5,0-10,4.5-10,10
			s4.5,10,10,10h15.2v54H29.9c-5.5,0-10,4.5-10,10s4.5,10,10,10h15.2v54H29.9c-5.5,0-10,4.5-10,10s4.5,10,10,10h15.2v55H29.9
			c-5.5,0-10,4.5-10,10s4.5,10,10,10h15.2v19.9c0.1,27.6,22.5,50,50.2,50.1h293c27.6-0.1,49.9-22.5,49.8-50V50.1
			C438.2,22.5,415.9,0.1,388.3,0z M418.1,50.1v357.8c0.1,16.5-13.2,30-29.7,30.1c0,0,0,0-0.1,0h-293c-16.6,0-30.1-13.4-30.2-30.1
			V388h15.1c5.5,0,10-4.5,10-10s-4.5-10-10-10H65.1v-55h15.1c5.5,0,10-4.5,10-10s-4.5-10-10-10H65.1v-54h15.1c5.5,0,10-4.5,10-10
			s-4.5-10-10-10H65.1v-54h15.1c5.5,0,10-4.5,10-10s-4.5-10-10-10H65.1V90h15.1c5.5,0,10-4.5,10-10s-4.5-10-10-10H65.1V50.1
			c0.1-16.6,13.6-30,30.2-30.1h293c16.5,0.1,29.8,13.5,29.8,30C418.1,50,418.1,50,418.1,50.1z"/>
	</g>
</g>
<g>
	<g>
		<path d="M329.7,364H177c-5.5,0-10,4.5-10,10s4.5,10,10,10h152.7c5.5,0,10-4.5,10-10S335.2,364,329.7,364z"/>
	</g>
</g>
<g>
	<g>
		<path d="M353.4,114.7c-4.4-3.2-9.8-5-15.3-5c-14.1,0-25.6,11.4-25.6,25.5c0,1.1,0.1,2.2,0.2,3.2L296.3,150
			c-11.5-8.2-27.5-5.5-35.7,6c-4.1,5.8-5.7,13.1-4.2,20.1l-14.2,12c-10.4-9.6-26.6-8.9-36.2,1.5c-1.1,1.2-2.2,2.6-3,4l-10.2-4.1
			c-3.9-13.6-18.2-21.4-31.8-17.5c-13.6,3.9-21.4,18.2-17.5,31.8c3.9,13.6,18.2,21.4,31.8,17.5c6.1-1.8,11.4-5.8,14.7-11.3l10.2,4.1
			c3.9,13.6,18.2,21.4,31.7,17.4c10.8-3.1,18.3-13,18.5-24.3l17.4-14.7c12,7.5,27.8,3.9,35.3-8c2.6-4.1,3.9-8.8,3.9-13.7
			c0-1.3-0.1-2.5-0.3-3.7l16-11.3c11.3,8.5,27.4,6.2,35.9-5.2C367.1,139.3,364.8,123.2,353.4,114.7z M168.1,202.3
			c-3.1,0-5.6-2.5-5.6-5.6c0-3.1,2.5-5.6,5.6-5.6c3.1,0,5.6,2.5,5.6,5.6C173.8,199.7,171.2,202.3,168.1,202.3z M224.8,212.6
			c-3.1,0-5.6-2.5-5.6-5.6c0-3.1,2.5-5.6,5.6-5.6c3.1,0,5.6,2.5,5.6,5.6C230.4,210,227.9,212.5,224.8,212.6z M281.4,176.5
			c-3.1,0-5.6-2.5-5.6-5.6c0-3.1,2.5-5.6,5.6-5.6c3.1,0,5.6,2.5,5.6,5.6C287,174,284.5,176.5,281.4,176.5z M338.1,140.9
			c-3.1,0-5.6-2.5-5.6-5.6c0-3.1,2.5-5.6,5.6-5.6c3.1,0,5.6,2.5,5.6,5.6C343.7,138.4,341.2,140.9,338.1,140.9z"/>
	</g>
</g>
<g>
	<g>
		<path d="M352.1,167h-28c-5.5,0-10,4.5-10,10v117c0,5.5,4.5,10,10,10h28c5.5,0,10-4.5,10-10V177C362.1,171.5,357.6,167,352.1,167z
			 M342.1,284h-8v-97h8V284z"/>
	</g>
</g>
<g>
	<g>
		<path d="M295.1,203h-28c-5.5,0-10,4.5-10,10v82c0,5.5,4.5,10,10,10h28c5.5,0,10-4.5,10-10v-82C305.1,207.5,300.6,203,295.1,203z
			 M285.1,284h-8v-61h8V284z"/>
	</g>
</g>
<g>
	<g>
		<path d="M239.1,239h-28c-5.5,0-10,4.5-10,10v45c0,5.5,4.5,10,10,10h28c5.5,0,10-4.5,10-10v-45C249.1,243.5,244.6,239,239.1,239z
			 M229.1,284h-8v-25h8V284z"/>
	</g>
</g>
<g>
	<g>
		<path d="M182.1,229h-28c-5.5,0-10,4.5-10,10v55c0,5.5,4.5,10,10,10h28c5.5,0,10-4.5,10-10v-55C192.1,233.5,187.6,229,182.1,229z
			 M172.1,284h-8v-35h8V284z"/>
	</g>
</g>
<g>
</g>
<g>
</g>
<g>
</g>
<g>
</g>
<g>
</g>
<g>
</g>
<g>
</g>
<g>
</g>
<g>
</g>
<g>
</g>
<g>
</g>
<g>
</g>
<g>
</g>
<g>
</g>
<g>
</g>
</svg>
