<?xml version="1.0" encoding="iso-8859-1"?>
<!-- Generator: Adobe Illustrator 19.0.0, SVG Export Plug-In . SVG Version: 6.00 Build 0)  -->
<svg version="1.1" id="Capa_1" xmlns="http://www.w3.org/2000/svg" xmlns:xlink="http://www.w3.org/1999/xlink" x="0px" y="0px"
	 viewBox="0 0 481.908 481.908" style="enable-background:new 0 0 481.908 481.908;" xml:space="preserve">
<g>
	<g>
		<path d="M432.507,13.166h-383c-27.6,0-49.5,22.9-49.5,50.5v29c-0.2,5.1,3.8,9.3,8.9,9.5c0.2,0,0.4,0,0.6,0h12.5v249.1
			c0,27.5,22.3,49.8,49.8,49.9c0,0,0,0,0.1,0h139.3l-68.2,49.4c-4.5,3.3-5.4,9.6-2.1,14c3.2,4.4,9.4,5.4,13.9,2.3l86-62.2l86,62.2
			c4.5,3.2,10.7,2.2,14-2.2c3.2-4.5,2.2-10.8-2.2-14l-68.4-49.5h139.3c27.6,0,50.4-22.3,50.4-49.9v-249.1h12.5
			c5.1,0.2,9.3-3.8,9.5-8.9c0-0.2,0-0.4,0-0.6v-29C482.007,36.066,460.107,13.166,432.507,13.166z M440.007,351.266
			c0,16.5-13.9,29.9-30.4,29.9h-337.7c-16.5,0-29.9-13.3-29.9-29.7v-0.1v-249.2h398V351.266z M462.007,82.166h-442v-18.5
			c0-16.6,13-30.5,29.5-30.5h383c16.5,0,29.5,13.9,29.5,30.5V82.166z"/>
	</g>
</g>
<g>
	<g>
		<path d="M325.007,304.166h-176v-135.9c0-5.5-4.5-10-10-10s-10,4.5-10,10v136.6c0,10.6,8.2,19.3,18.9,19.3h177.1
			c5.5,0,10-4.5,10-10S330.507,304.166,325.007,304.166z"/>
	</g>
</g>
<g>
	<g>
		<path d="M335.407,180.166c-13.5-4-27.7,3.6-31.7,17.1c-1.9,6.3-1.3,13.1,1.7,18.9l-13.4,14.6c-8.7-6.5-20.6-6.7-29.6-0.5
			l-11.4-9.4c-1.3-14-13.7-24.3-27.7-23c-14,1.3-24.3,13.7-23,27.7c0.1,0.6,0.1,1.2,0.2,1.7l-14.4,18c-13.5-3.9-27.6,3.9-31.5,17.4
			c-3.9,13.5,3.9,27.6,17.4,31.5c2.3,0.9,4.6,1.2,7,1.2c14,0,25.4-11.4,25.5-25.4c0-4.1-1-8.2-2.9-11.9l10.5-13.2
			c10.2,6.4,23.4,4.8,31.8-3.9l7.8,6.4c-2.1,13.9,7.4,26.9,21.3,29c13.9,2.1,26.9-7.4,29-21.3c0.2-1.3,0.3-2.6,0.3-3.9
			c0-0.7,0-1.3-0.1-2l18.6-20.2c13.5,4,27.7-3.6,31.7-17.1S348.907,184.166,335.407,180.166z M179.007,275.466c-3,0-5.5-2.4-5.5-5.5
			c0.1-3,2.5-5.5,5.5-5.5s5.5,2.4,5.5,5.5C184.507,272.966,182.107,275.466,179.007,275.466z M225.607,228.966c-3,0-5.5-2.4-5.5-5.5
			c0-3.1,2.5-5.5,5.5-5.5s5.5,2.4,5.5,5.5C231.107,226.466,228.707,228.966,225.607,228.966z M276.807,256.866c-3,0-5.5-2.4-5.5-5.5
			c0-3,2.5-5.5,5.5-5.5s5.5,2.4,5.5,5.5C282.307,254.466,279.907,256.866,276.807,256.866z M328.007,210.366c-3,0-5.5-2.4-5.5-5.5
			c0-3.1,2.5-5.5,5.5-5.5s5.5,2.4,5.5,5.5C333.507,207.966,331.107,210.366,328.007,210.366z"/>
	</g>
</g>
<g>
</g>
<g>
</g>
<g>
</g>
<g>
</g>
<g>
</g>
<g>
</g>
<g>
</g>
<g>
</g>
<g>
</g>
<g>
</g>
<g>
</g>
<g>
</g>
<g>
</g>
<g>
</g>
<g>
</g>
</svg>
