<?xml version="1.0" encoding="iso-8859-1"?>
<!-- Generator: Adobe Illustrator 19.0.0, SVG Export Plug-In . SVG Version: 6.00 Build 0)  -->
<svg version="1.1" id="Capa_1" xmlns="http://www.w3.org/2000/svg" xmlns:xlink="http://www.w3.org/1999/xlink" x="0px" y="0px"
	 viewBox="0 0 481.908 481.908" style="enable-background:new 0 0 481.908 481.908;" xml:space="preserve">
<g>
	<g>
		<path d="M432.507,13.166h-383c-27.6,0-49.5,22.9-49.5,50.5v29c-0.2,5.1,3.8,9.3,8.9,9.5c0.2,0,0.4,0,0.6,0h12.5v249.1
			c0,27.5,22.3,49.8,49.8,49.9c0,0,0,0,0.1,0h139.3l-68.2,49.4c-4.5,3.3-5.4,9.6-2.1,14c3.2,4.4,9.4,5.4,13.9,2.3l86-62.2l86,62.2
			c4.5,3.2,10.7,2.2,14-2.2c3.2-4.5,2.2-10.8-2.2-14l-68.4-49.5h139.3c27.6,0,50.4-22.3,50.4-49.9v-249.1h12.5
			c5.1,0.2,9.3-3.8,9.5-8.9c0-0.2,0-0.4,0-0.6v-29C482.007,36.066,460.107,13.166,432.507,13.166z M440.007,351.266
			c0,16.5-13.9,29.9-30.4,29.9h-337.7c-16.5,0-29.9-13.3-29.9-29.7v-0.1v-249.2h398V351.266z M462.007,82.166h-442v-18.5
			c0-16.6,13-30.5,29.5-30.5h383c16.5,0,29.5,13.9,29.5,30.5V82.166z"/>
	</g>
</g>
<g>
	<g>
		<path d="M310.707,247.166h-0.1h-75.6v-75.9c0-5.5-4.4-10-9.9-10c0,0,0,0-0.1,0c-25.4-0.1-49.7,10-67.6,28
			c-37.2,37.4-37.1,97.9,0.3,135.1c18,17.8,42.2,27.8,67.4,27.8c52.6,0.1,95.4-42.5,95.5-95.2
			C320.607,251.566,316.207,247.166,310.707,247.166z M278.507,310.366c-29.6,29.4-77.5,29.3-106.9-0.4c-14-14.1-21.9-33.2-22-53.2
			c0.1-20,8-39.2,22.1-53.4c11.7-11.7,26.9-19.2,43.3-21.4v74.8c0,5.6,4.5,10.2,10.1,10.4h74.8
			C297.607,283.466,290.107,298.666,278.507,310.366z"/>
	</g>
</g>
<g>
	<g>
		<path d="M324.507,158.066c0,0-0.1,0-0.1-0.1c-17.9-17.8-42.1-27.8-67.4-27.8c-5.5,0-9.9,4.5-9.9,10v85.5c0,5.3,4.2,9.6,9.5,9.6
			c0-0.1,0.1-0.1,0.3-0.1h85.5c5.4,0.1,9.9-4.2,10-9.6v-0.1C352.407,200.166,342.407,175.966,324.507,158.066z M267.007,150.866
			c3.5,0.5,7,1.2,10.5,2.1l-10.5,10.5V150.866z M267.007,191.766l30-30.1c1.9,1.2,3.8,2.5,5.6,3.8l-35.6,35.7V191.766z
			 M280.807,215.166l35.9-35.7c1.4,1.8,2.7,3.6,3.9,5.5l-30.4,30.2H280.807z M318.507,215.166l10.9-10.9c1,3.6,1.7,7.2,2.3,10.9
			H318.507z"/>
	</g>
</g>
<g>
</g>
<g>
</g>
<g>
</g>
<g>
</g>
<g>
</g>
<g>
</g>
<g>
</g>
<g>
</g>
<g>
</g>
<g>
</g>
<g>
</g>
<g>
</g>
<g>
</g>
<g>
</g>
<g>
</g>
</svg>
