<?xml version="1.0" encoding="iso-8859-1"?>
<!-- Generator: Adobe Illustrator 19.0.0, SVG Export Plug-In . SVG Version: 6.00 Build 0)  -->
<svg version="1.1" id="Capa_1" xmlns="http://www.w3.org/2000/svg" xmlns:xlink="http://www.w3.org/1999/xlink" x="0px" y="0px"
	 viewBox="0 0 481.908 481.908" style="enable-background:new 0 0 481.908 481.908;" xml:space="preserve">
<g>
	<g>
		<path d="M432.507,13.204h-383c-27.6,0-49.5,22.9-49.5,50.5v29c-0.2,5.1,3.8,9.3,8.9,9.5c0.2,0,0.4,0,0.6,0h12.5v249.1
			c0,27.5,22.3,49.8,49.8,49.9c0,0,0,0,0.1,0h139.3l-68.2,49.4c-4.5,3.3-5.5,9.5-2.2,14c1.9,2.6,4.9,4.1,8.1,4.1
			c2.1,0,4.1-0.7,5.8-1.9l86-62.2l86,62.2c4.5,3.2,10.7,2.2,14-2.2c3.2-4.5,2.2-10.8-2.2-14l-68.3-49.4h139.3
			c27.6,0,50.4-22.3,50.4-49.9v-249.1h12.5c5.1,0.2,9.3-3.8,9.5-8.9c0-0.2,0-0.4,0-0.6v-29
			C482.007,36.104,460.107,13.204,432.507,13.204z M440.007,351.304c0,16.5-13.9,29.9-30.4,29.9h-337.7c-16.5,0-29.9-13.3-29.9-29.7
			v-0.1v-249.2h398V351.304z M462.007,82.204h-442v-18.5c0-16.6,13-30.5,29.5-30.5h383c16.5,0,29.5,13.9,29.5,30.5V82.204z"/>
	</g>
</g>
<g>
	<g>
		<path d="M286.007,163.204h-32.6c-5.6,0-10.2,4.5-10.4,10.1v160.4c0.2,5.7,4.7,10.3,10.4,10.5h32.6c5.5,0,10-4.9,10-10.4v-160.5
			C296.007,167.704,291.507,163.204,286.007,163.204z M276.007,324.204h-13v-36h13V324.204z M276.007,268.204h-13v-85h13V268.204z"
			/>
	</g>
</g>
<g>
	<g>
		<path d="M344.607,138.204h-33.2c-5.7,0.2-10.3,4.8-10.4,10.4v185.1c0.2,5.7,4.7,10.3,10.4,10.5h33.2c5.7-0.2,10.3-4.8,10.4-10.4
			v-185.1C354.807,143.004,350.307,138.404,344.607,138.204z M335.007,324.204h-14v-36h14V324.204z M335.007,268.204h-14v-110h14
			V268.204z"/>
	</g>
</g>
<g>
	<g>
		<path d="M228.107,188.204h-0.1h-32.6c-5.5,0-10.4,4.3-10.4,9.8v135.7c0.2,5.7,4.7,10.3,10.4,10.5h32.6c5.5,0,10-4.9,10-10.4
			v-135.8C238.007,192.604,233.507,188.204,228.107,188.204z M218.007,324.204h-13v-36h13V324.204z M218.007,268.204h-13v-60h13
			V268.204z"/>
	</g>
</g>
<g>
	<g>
		<path d="M170.007,231.204h-32.6c-5.5,0-10.4,4.5-10.4,10v92.6c0.2,5.6,4.7,10.2,10.4,10.4h32.6c5.5,0,10-4.9,10-10.4v-92.6
			C180.007,235.704,175.507,231.204,170.007,231.204z M160.007,324.204h-13v-36h13V324.204z M160.007,268.204h-13v-17h13V268.204z"
			/>
	</g>
</g>
<g>
</g>
<g>
</g>
<g>
</g>
<g>
</g>
<g>
</g>
<g>
</g>
<g>
</g>
<g>
</g>
<g>
</g>
<g>
</g>
<g>
</g>
<g>
</g>
<g>
</g>
<g>
</g>
<g>
</g>
</svg>
