<?xml version="1.0" encoding="iso-8859-1"?>
<!-- Generator: Adobe Illustrator 19.0.0, SVG Export Plug-In . SVG Version: 6.00 Build 0)  -->
<svg version="1.1" id="Capa_1" xmlns="http://www.w3.org/2000/svg" xmlns:xlink="http://www.w3.org/1999/xlink" x="0px" y="0px"
	 viewBox="0 0 482.007 482.007" style="enable-background:new 0 0 482.007 482.007;" xml:space="preserve">
<g>
	<g>
		<path d="M432.507,13.219h-383c-27.6,0-49.5,22.9-49.5,50.5v29c-0.2,5.1,3.8,9.3,8.9,9.5c0.2,0,0.4,0,0.6,0h12.5v249.1
			c0,27.5,22.3,49.8,49.8,49.9c0,0,0,0,0.1,0h140.4l-69.2,49.3c-4.5,3.2-5.6,9.5-2.3,14c3.2,4.5,9.4,5.5,13.9,2.4l86-61.3l86,61.3
			c4.5,3.2,10.7,2.2,13.9-2.3c3.2-4.5,2.2-10.8-2.3-14l-69.1-49.4h140.4c27.6,0,50.4-22.3,50.4-49.9v-249.1h12.5
			c5.1,0.2,9.3-3.8,9.5-8.9c0-0.2,0-0.4,0-0.6v-29C482.007,36.119,460.107,13.219,432.507,13.219z M440.007,351.319
			c0,16.5-13.9,29.9-30.4,29.9h-337.7c-16.5,0-29.9-13.3-29.9-29.7v-0.1v-249.2h398V351.319z M462.007,82.219h-442v-18.5
			c0-16.6,13-30.5,29.5-30.5h383c16.5,0,29.5,13.9,29.5,30.5V82.219z"/>
	</g>
</g>
<g>
	<g>
		<path d="M340.607,317.219h-12.6v-155.9c0-5.5-4.5-10-10-10c-2.9,0-5.7,1.3-7.5,3.4l-18.9,21.8l-10.1-5.4c-4.5-2.4-10.1-1-12.9,3.2
			l-13.4,19.5l-13.8-3.4c-3.7-0.9-7.6,0.4-10.1,3.3l-11.6,13.9l-13.8-12.9c-3.1-2.9-7.6-3.5-11.3-1.6l-10.4,5.2l-16.8-14.8
			c-2-1.8-4.7-2.7-7.4-2.5c-2.7,0.2-5.3,1.5-7.1,3.6l-1.8,2v-31.7c0-5.5-4.5-10-10-10s-10,4.5-10,10v172.8
			c-0.1,5.4,4.7,9.5,10.2,9.5h199.3c5.5,0,10-4.5,10-10S346.107,317.219,340.607,317.219z M150.807,217.519l10.9-12.4l14.2,12.4
			c3.1,2.7,7.5,3.3,11.1,1.4l10.2-5.1l16.4,15.4c4,3.8,10.4,3.6,14.1-0.5c0.1-0.1,0.2-0.3,0.4-0.4l14.4-17.2l14.4,3.5
			c4,1,8.3-0.6,10.6-4.1l12.2-17.8l9.3,4.9c4.1,2.2,9.2,1.3,12.3-2.3l6.6-7.6v17.6l-14.3,1.9c-2.5,0.3-4.7,1.6-6.3,3.5l-12.9,15.4
			l-13.6-8.3c-4.2-2.6-9.7-1.7-12.9,2.1l-15.3,18.2l-17.6-7.3c-3.6-1.5-7.8-0.7-10.7,1.9l-12.3,11.5l-7-12
			c-2.8-4.8-8.9-6.4-13.7-3.6c-0.4,0.2-0.7,0.4-1,0.7l-11.6,8.7l-7.9-4.6V217.519z M150.707,257.019h0.3l3.4,2
			c3.5,2.1,8,1.9,11.3-0.6l7.8-5.9l7.6,13.1c2.8,4.8,8.9,6.4,13.7,3.6c0.6-0.4,1.3-0.8,1.8-1.3l16.8-15.7l18.4,7.6
			c4,1.7,8.7,0.5,11.5-2.8l14.5-17.2l13.6,8.3c4.2,2.6,9.7,1.7,12.9-2.1l15.9-19l7.7-1.1v22.9l-8.6-3.1c-4.5-1.6-9.5,0.1-12,4.2
			l-13,21.3l-11.4-7.5c-4.3-2.9-10.1-2-13.3,2.1l-13.3,16.5l-12-9.7c-3.5-2.8-8.4-3-12.1-0.4l-13.3,9.4l-17.2-11
			c-3.9-2.5-9-2-12.3,1.2l-14.2,13.4l-4.5-1.3V257.019z M308.007,317.219h-157v-12.7l4.3,1.2c1,0.3,1.9,0.4,2.9,0.4
			c2.6,0,5.1-1,7-2.8l12.5-12l16.3,10.4c3.4,2.2,7.8,2.1,11.2-0.3l12.6-8.9l13.9,11.3c4.3,3.5,10.6,2.8,14.1-1.5l13.8-17.2l12.4,8.2
			c4.6,3.1,10.8,1.8,13.9-2.8c0.1-0.1,0.1-0.2,0.2-0.3l14.2-23.2l7.7,2.8V317.219z"/>
	</g>
</g>
<g>
</g>
<g>
</g>
<g>
</g>
<g>
</g>
<g>
</g>
<g>
</g>
<g>
</g>
<g>
</g>
<g>
</g>
<g>
</g>
<g>
</g>
<g>
</g>
<g>
</g>
<g>
</g>
<g>
</g>
</svg>
