<?xml version="1.0" encoding="iso-8859-1"?>
<!-- Generator: Adobe Illustrator 19.0.0, SVG Export Plug-In . SVG Version: 6.00 Build 0)  -->
<svg version="1.1" id="Capa_1" xmlns="http://www.w3.org/2000/svg" xmlns:xlink="http://www.w3.org/1999/xlink" x="0px" y="0px"
	 viewBox="0 0 481.908 481.908" style="enable-background:new 0 0 481.908 481.908;" xml:space="preserve">
<g>
	<g>
		<path d="M432.507,13.166h-383c-27.6,0-49.5,22.9-49.5,50.5v29c-0.2,5.1,3.8,9.3,8.9,9.5c0.2,0,0.4,0,0.6,0h12.5v249.1
			c0,27.5,22.3,49.8,49.8,49.9c0,0,0,0,0.1,0h139.3l-68.2,49.4c-4.5,3.3-5.4,9.6-2.1,14c3.2,4.4,9.4,5.4,13.9,2.3l86-62.2l86,62.2
			c4.5,3.2,10.7,2.2,14-2.2c3.2-4.5,2.2-10.8-2.2-14l-68.4-49.5h139.3c27.6,0,50.4-22.3,50.4-49.9v-249.1h12.5
			c5.1,0.2,9.3-3.8,9.5-8.9c0-0.2,0-0.4,0-0.6v-29C482.007,36.066,460.107,13.166,432.507,13.166z M440.007,351.266
			c0,16.5-13.9,29.9-30.4,29.9h-337.7c-16.5,0-29.9-13.3-29.9-29.7v-0.1v-249.2h398V351.266z M462.007,82.166h-442v-18.5
			c0-16.6,13-30.5,29.5-30.5h383c16.5,0,29.5,13.9,29.5,30.5V82.166z"/>
	</g>
</g>
<g>
	<g>
		<path d="M353.507,228.566c-2.3-21.9-11-42.7-25.1-59.7c-3.2-3.8-8.8-4.4-12.7-1.2c-0.2,0.2-0.4,0.4-0.6,0.6l-38.9,38.5
			c-3,3-3.5,7.7-1.2,11.3c2.7,4.4,4.7,9.2,6,14.3c1,4,4.6,6.8,8.7,6.8h53.7c0.3,0,0.7,0,1,0h0.2c4,0,7.5-2.6,8.6-6.5
			c0.2-0.8,0.4-1.7,0.4-2.5C353.607,229.666,353.607,229.066,353.507,228.566z M296.307,221.166c-0.7-2-1.6-4.2-2.6-6.4l26.6-26.5
			c6.7,10,11.3,21.2,13.8,32.9H296.307z"/>
	</g>
</g>
<g>
	<g>
		<path d="M313.507,154.066c-0.2-0.2-0.4-0.4-0.6-0.6c-17.2-14.2-38.2-23-60.4-25.1c-4.9-0.7-9.5,2.7-10.2,7.6
			c-0.1,0.4-0.1,0.9-0.1,1.3v54.9c-0.2,4.2,2.9,7.9,7.2,8.7c4.9,1,9.6,3,13.9,5.8c3.6,2.3,8.3,1.9,11.3-1.1l38.9-38.8
			C317.007,163.266,317.007,157.566,313.507,154.066z M266.707,187.966c-2.2-1.1-4.4-2-6.7-2.8v-37.6c11.9,2.4,23.2,7.1,33.3,13.8
			L266.707,187.966z"/>
	</g>
</g>
<g>
	<g>
		<path d="M229.107,128.266c-0.3,0-0.6,0-0.9,0c-25.8,2.6-49.8,14.1-68,32.5c-18.1,18.5-29.3,42.6-31.8,68.4
			c-0.5,4.9,3.1,9.3,8.1,9.8c0.2,0.2,0.5,0.2,0.8,0.2h54.9c4.2,0,7.9-2.9,8.8-7.1c3.2-14.4,16.1-27.7,30.2-31.1c4-1,6.9-4.6,6.9-8.8
			v-54.9C238.107,132.266,234.107,128.266,229.107,128.266z M220.007,185.666c-15.4,6.1-28.7,19.8-34.5,35.5h-37.8
			c3.6-18,12.4-34.5,25.3-47.6c12.8-13,29.2-21.9,47-25.7V185.666z"/>
	</g>
</g>
<g>
	<g>
		<path d="M232.507,280.666c-0.1,0-0.1,0-0.2,0c-15.8-3.3-28.1-15.7-31.5-31.5c-0.9-4.2-4.6-7.1-8.8-7.1h-55c-2.5,0-4.9,1-6.7,2.9
			c-1.7,1.9-2.5,4.4-2.3,6.9c5.4,53.6,47.7,96.1,101.2,101.5c0.3,0,0.6,0,0.9,0c4.9,0,9-4,9-8.9c0,0,0.1-13.7,0.2-27.5
			c0.1-6.9,0.1-13.7,0.1-18.9c0-2.6,0-4.7,0-6.3c0-0.8,0-1.4,0-1.8C239.407,282.666,233.607,280.866,232.507,280.666z
			 M221.107,333.966c-37.1-7.8-66-36.8-73.7-73.9l37.8-0.1c5.9,17,19.2,30.4,36.2,36.3
			C221.407,304.766,221.207,320.166,221.107,333.966z"/>
	</g>
</g>
<g>
	<g>
		<path d="M345.407,243.366c-0.3,0-0.6,0-0.9,0h-54.9c-4.2,0-7.8,2.9-8.8,7c-3.4,15.1-16.4,27.9-31.6,31c-4.2,0.9-7.2,4.5-7.2,8.8
			l-0.2,54.9c0,2.4,1.1,4.9,3,6.6c1.6,1.5,3.8,2.3,6,2.3c0.3,0,0.6,0,1,0h0.2c53.5-5.2,96.2-47.6,101.5-100.8
			C354.007,248.266,350.407,243.766,345.407,243.366z M276.107,329.766l-16.2-16.2l0.1-16.7c2.6-0.9,5.2-2,7.6-3.3l26.6,26.6
			C288.507,323.966,282.507,327.166,276.107,329.766z M308.207,308.566l-25.9-25.9c4.7-4.6,8.6-10,11.6-16l26.7,26.7
			C317.007,298.866,312.807,303.966,308.207,308.566z M329.307,276.666l-15.5-15.5h20.2
			C332.907,266.466,331.307,271.666,329.307,276.666z"/>
	</g>
</g>
<g>
</g>
<g>
</g>
<g>
</g>
<g>
</g>
<g>
</g>
<g>
</g>
<g>
</g>
<g>
</g>
<g>
</g>
<g>
</g>
<g>
</g>
<g>
</g>
<g>
</g>
<g>
</g>
<g>
</g>
</svg>
