<?xml version="1.0" encoding="iso-8859-1"?>
<!-- Generator: Adobe Illustrator 19.0.0, SVG Export Plug-In . SVG Version: 6.00 Build 0)  -->
<svg version="1.1" id="Capa_1" xmlns="http://www.w3.org/2000/svg" xmlns:xlink="http://www.w3.org/1999/xlink" x="0px" y="0px"
	 viewBox="0 0 481.908 481.908" style="enable-background:new 0 0 481.908 481.908;" xml:space="preserve">
<g>
	<g>
		<path d="M432.507,13.166h-383c-27.6,0-49.5,22.9-49.5,50.5v29c-0.2,5.1,3.8,9.3,8.9,9.5c0.2,0,0.4,0,0.6,0h12.5v249.1
			c0,27.5,22.3,49.8,49.8,49.9c0,0,0,0,0.1,0h139.3l-68.2,49.4c-4.5,3.3-5.4,9.6-2.1,14c3.2,4.4,9.4,5.4,13.9,2.3l86-62.2l86,62.2
			c4.5,3.2,10.7,2.2,14-2.2c3.2-4.5,2.2-10.8-2.2-14l-68.4-49.5h139.3c27.6,0,50.4-22.3,50.4-49.9v-249.1h12.5
			c5.1,0.2,9.3-3.8,9.5-8.9c0-0.2,0-0.4,0-0.6v-29C482.007,36.066,460.107,13.166,432.507,13.166z M440.007,351.266
			c0,16.5-13.9,29.9-30.4,29.9h-337.7c-16.5,0-29.9-13.3-29.9-29.7v-0.1v-249.2h398V351.266z M462.007,82.166h-442v-18.5
			c0-16.6,13-30.5,29.5-30.5h383c16.5,0,29.5,13.9,29.5,30.5V82.166z"/>
	</g>
</g>
<g>
	<g>
		<path d="M344.207,134.866l-55.4-4c-5.5-0.4-10.3,3.8-10.7,9.3s3.8,10.3,9.3,10.7l29.4,2.1l-62.3,48.4l-52.9-41.7
			c-3.9-3.1-9.5-2.8-13.1,0.6l-56.7,54.4c-4,3.8-4.1,10.2-0.3,14.1c1.8,2.1,4.4,3.2,7.1,3.2c2.6,0,5.1-1,6.9-2.8l50.4-48.4
			l52.2,41.1c3.6,2.8,8.7,2.9,12.3,0l71.2-55.3l-2.2,28.9c-0.4,5.5,3.7,10.3,9.2,10.7c0.3,0,0.5,0,0.8,0c5.2,0,9.6-4,10-9.2l4-51.4
			C353.807,140.066,349.707,135.266,344.207,134.866z"/>
	</g>
</g>
<g>
	<g>
		<path d="M259.007,249.166h-35c-5.5,0-10,4.5-10,10v83c0,5.5,4.5,10,10,10h35c5.5,0,10-4.5,10-10v-83
			C269.007,253.666,264.507,249.166,259.007,249.166z M248.007,331.166h-14v-62h14V331.166z"/>
	</g>
</g>
<g>
	<g>
		<path d="M188.007,272.166h-35c-5.5,0-10,4.5-10,10v59c0,5.5,4.5,10,10,10h35c5.5,0,10-4.5,10-10v-59
			C198.007,276.666,193.507,272.166,188.007,272.166z M178.007,331.166h-15v-39h15V331.166z"/>
	</g>
</g>
<g>
	<g>
		<path d="M329.007,231.166h-35c-5.5,0-10,4.5-10,10v100c0,5.5,4.5,10,10,10h35c5.5,0,10-4.5,10-10v-100
			C339.007,235.666,334.507,231.166,329.007,231.166z M319.007,331.166h-15v-80h15V331.166z"/>
	</g>
</g>
<g>
</g>
<g>
</g>
<g>
</g>
<g>
</g>
<g>
</g>
<g>
</g>
<g>
</g>
<g>
</g>
<g>
</g>
<g>
</g>
<g>
</g>
<g>
</g>
<g>
</g>
<g>
</g>
<g>
</g>
</svg>
