<?xml version="1.0" encoding="iso-8859-1"?>
<!-- Generator: Adobe Illustrator 19.0.0, SVG Export Plug-In . SVG Version: 6.00 Build 0)  -->
<svg version="1.1" id="Capa_1" xmlns="http://www.w3.org/2000/svg" xmlns:xlink="http://www.w3.org/1999/xlink" x="0px" y="0px"
	 viewBox="0 0 481.908 481.908" style="enable-background:new 0 0 481.908 481.908;" xml:space="preserve">
<g>
	<g>
		<path d="M432.507,13.166h-383c-27.6,0-49.5,22.9-49.5,50.5v29c-0.2,5.1,3.8,9.3,8.9,9.5c0.2,0,0.4,0,0.6,0h12.5v249.1
			c0,27.5,22.3,49.8,49.8,49.9c0,0,0,0,0.1,0h139.3l-68.2,49.4c-4.5,3.3-5.4,9.6-2.1,14c3.2,4.4,9.4,5.4,13.9,2.3l86-62.2l86,62.2
			c4.5,3.2,10.7,2.2,14-2.2c3.2-4.5,2.2-10.8-2.2-14l-68.4-49.5h139.3c27.6,0,50.4-22.3,50.4-49.9v-249.1h12.5
			c5.1,0.2,9.3-3.8,9.5-8.9c0-0.2,0-0.4,0-0.6v-29C482.007,36.066,460.107,13.166,432.507,13.166z M440.007,351.266
			c0,16.5-13.9,29.9-30.4,29.9h-337.7c-16.5,0-29.9-13.3-29.9-29.7v-0.1v-249.2h398V351.266z M462.007,82.166h-442v-18.5
			c0-16.6,13-30.5,29.5-30.5h383c16.5,0,29.5,13.9,29.5,30.5V82.166z"/>
	</g>
</g>
<g>
	<g>
		<path d="M341.507,148.966c-11.3-8.5-27.5-6.2-36,5.1c-4,5.3-5.8,12-4.9,18.6l-16.4,11.5c-11.5-8.2-27.5-5.5-35.7,6
			c-4.1,5.8-5.7,13.1-4.2,20.1l-14.2,12c-10.4-9.6-26.6-8.9-36.2,1.5c-1.1,1.2-2.2,2.6-3,4l-10.2-4.1c-4-13.6-18.2-21.4-31.8-17.4
			c-13.6,4-21.4,18.2-17.4,31.8c3.1,10.8,13.1,18.4,24.5,18.4c8.9,0,17.2-4.7,21.9-12.3l10.2,4.1c3.9,13.6,18.2,21.4,31.7,17.5
			c10.8-3.1,18.3-13,18.5-24.3l17.4-14.7c12,7.5,27.8,3.9,35.3-8c2.6-4.1,3.9-8.8,3.9-13.7c0-1.3-0.1-2.5-0.3-3.7l16-11.3
			c11.4,8.5,27.5,6.2,36-5.1C355.107,173.566,352.807,157.466,341.507,148.966z M156.007,236.366c-3.1,0-5.6-2.5-5.6-5.6
			c0-3.1,2.5-5.6,5.6-5.6c3.1,0,5.6,2.5,5.6,5.6C161.607,233.866,159.107,236.366,156.007,236.366z M212.707,246.666
			c-3.1,0-5.6-2.5-5.6-5.6c0-3.1,2.5-5.6,5.6-5.6s5.6,2.5,5.6,5.6C218.307,244.166,215.807,246.666,212.707,246.666z
			 M269.307,210.666c-3.1,0-5.6-2.5-5.6-5.6c0-3.1,2.5-5.6,5.6-5.6c3.1,0,5.6,2.5,5.6,5.6
			C274.907,208.166,272.407,210.666,269.307,210.666z M326.007,175.066c-3.1,0-5.6-2.5-5.6-5.6c-0.1-3.1,2.5-5.6,5.6-5.6
			c3.1,0,5.6,2.5,5.6,5.6C331.607,172.566,329.107,175.066,326.007,175.066z"/>
	</g>
</g>
<g>
	<g>
		<path d="M340.007,201.166h-28c-5.5,0-10,4.5-10,10v117c0,5.5,4.5,10,10,10h28c5.5,0,10-4.5,10-10v-117
			C350.007,205.666,345.507,201.166,340.007,201.166z M330.007,318.166h-8v-97h8V318.166z"/>
	</g>
</g>
<g>
	<g>
		<path d="M283.007,237.166h-28c-5.5,0-10,4.5-10,10v82c0,5.5,4.5,10,10,10h28c5.5,0,10-4.5,10-10v-82
			C293.007,241.666,288.507,237.166,283.007,237.166z M273.007,318.166h-8v-61h8V318.166z"/>
	</g>
</g>
<g>
	<g>
		<path d="M227.007,273.166h-28c-5.5,0-10,4.5-10,10v45c0,5.5,4.5,10,10,10h28c5.5,0,10-4.5,10-10v-45
			C237.007,277.666,232.507,273.166,227.007,273.166z M217.007,318.166h-8v-25h8V318.166z"/>
	</g>
</g>
<g>
	<g>
		<path d="M170.007,263.166h-28c-5.5,0-10,4.5-10,10v55c0,5.5,4.5,10,10,10h28c5.5,0,10-4.5,10-10v-55
			C180.007,267.666,175.507,263.166,170.007,263.166z M160.007,318.166h-8v-35h8V318.166z"/>
	</g>
</g>
<g>
</g>
<g>
</g>
<g>
</g>
<g>
</g>
<g>
</g>
<g>
</g>
<g>
</g>
<g>
</g>
<g>
</g>
<g>
</g>
<g>
</g>
<g>
</g>
<g>
</g>
<g>
</g>
<g>
</g>
</svg>
