<?xml version="1.0" encoding="iso-8859-1"?>
<!-- Generator: Adobe Illustrator 19.0.0, SVG Export Plug-In . SVG Version: 6.00 Build 0)  -->
<svg version="1.1" id="Capa_1" xmlns="http://www.w3.org/2000/svg" xmlns:xlink="http://www.w3.org/1999/xlink" x="0px" y="0px"
	 viewBox="0 0 482.002 482.002" style="enable-background:new 0 0 482.002 482.002;" xml:space="preserve">
<g>
	<g>
		<path d="M457.202,95.151c-21.5-10.5-47.4-1.6-57.9,19.9c-7.2,14.7-5.4,32.2,4.5,45.2l-42.5,46.2c-15.2-18.3-42.4-20.8-60.7-5.6
			c-1.2,1-2.3,2-3.4,3.2l-35.8-29.4c0-0.2,0-0.4,0-0.6c0-23.9-19.3-43.2-43.2-43.2s-43.2,19.3-43.2,43.2c0,3.9,0.5,7.8,1.6,11.6
			l-39.6,49.5c-21.5-10.4-47.3-1.3-57.7,20.1c-10.4,21.4-1.3,47.3,20.1,57.7c5.7,2.8,12.1,4.3,18.6,4.3c23.8,0,43.2-19.3,43.2-43.1
			c0-9.5-3.1-18.8-8.9-26.3l34.9-43.6c16.6,17.1,43.9,17.4,61,0.8c2.8-2.8,5.3-5.9,7.2-9.3l31.4,25.7c-7,22.8,5.8,47,28.6,54
			s47-5.8,54-28.6c2.1-6.8,2.5-14,1.1-20.9l48.7-53c21.5,10.5,47.4,1.6,57.9-19.9S478.702,105.651,457.202,95.151z M118.002,297.251
			c-12.8,0-23.2-10.4-23.2-23.2s10.4-23.2,23.2-23.2s23.2,10.4,23.2,23.2C141.202,286.851,130.802,297.251,118.002,297.251z
			 M218.002,197.251c-12.8,0-23.2-10.4-23.2-23.2c0-12.8,10.4-23.2,23.2-23.2s23.2,10.4,23.2,23.2S230.802,197.251,218.002,197.251z
			 M328.002,257.251c-12.8,0-23.2-10.4-23.2-23.2s10.4-23.2,23.2-23.2s23.2,10.4,23.2,23.2S340.802,257.251,328.002,257.251z
			 M438.002,157.251c-12.8,0-23.2-10.4-23.2-23.2s10.4-23.2,23.2-23.2s23.2,10.4,23.2,23.2S450.802,157.251,438.002,157.251z"/>
	</g>
</g>
<g>
	<g>
		<path d="M455.502,312.051h-3.5v-42.4c0-5.6-4.6-10.1-10.2-10.1c-1.5,0-3,0.3-4.4,1l-98.7,51.5h-51.6c-19,0-35.3,12-42.4,28h-184.7
			v-306c0-5.5-4.9-10-10.4-10h-40c-5.6,0-9.6,4.5-9.6,10v336.3c-0.2,16.2,12.9,29.5,29.1,29.7c0.2,0,0.3,0,0.5,0h237.1
			c2.8,2,5.4,2.8,9.4,3.6v42.9c0,5.5,4,10.4,9.5,10.4h33c4.6-0.1,8.6-3.3,9.7-7.8l10.8-43.8l98.5,51.5c1.4,0.7,3,1.1,4.6,1.1
			c1.8,0,3.6-0.5,5.1-1.5c3-1.8,4.8-5.1,4.7-8.6v-44h3.5c14.9,0,26.5-12.4,26.5-27.2v-37.5
			C482.002,324.451,470.402,312.051,455.502,312.051z M29.502,380.051c-5.2,0.1-9.4-4-9.6-9.2c0.1-0.1,0.1-0.3,0.1-0.5v-326.3h20
			v306.3c-0.2,5.2,3.9,9.5,9,9.7c0.2,0,0.4,0,0.5,0h191.3c0.1,7,1.9,13.9,5.3,20H29.502z M310.702,437.051h-14.7v-32h22.5
			L310.702,437.051z M331.002,385.051h-43.9c-14.6,0-26.5-11.9-26.5-26.5c0-14.6,11.9-26.5,26.5-26.5h43.9V385.051z
			 M432.002,431.551l-81-42.4v-60.5l81-42.4V431.551z M462.002,376.851c0,3.8-2.7,7.2-6.5,7.2h-3.5v-52h3.5c3.8,0,6.5,3.5,6.5,7.3
			V376.851z"/>
	</g>
</g>
<g>
</g>
<g>
</g>
<g>
</g>
<g>
</g>
<g>
</g>
<g>
</g>
<g>
</g>
<g>
</g>
<g>
</g>
<g>
</g>
<g>
</g>
<g>
</g>
<g>
</g>
<g>
</g>
<g>
</g>
</svg>
