<?xml version="1.0" encoding="iso-8859-1"?>
<!-- Generator: Adobe Illustrator 19.0.0, SVG Export Plug-In . SVG Version: 6.00 Build 0)  -->
<svg version="1.1" id="Capa_1" xmlns="http://www.w3.org/2000/svg" xmlns:xlink="http://www.w3.org/1999/xlink" x="0px" y="0px"
	 viewBox="0 0 470.2 470.2" style="enable-background:new 0 0 470.2 470.2;" xml:space="preserve">
<g>
	<g>
		<path d="M395.7,56l-0.1-0.1C358.9,19.9,310.9,0,260.4,0c-5.5,0-10,4.5-10,10v181.2c-0.1,5.6,4.4,10,10,10h181.2
			c5.5,0,10-4.4,10-9.9c0,0,0,0,0-0.1C451.6,140.7,431.8,92.7,395.7,56z M270.3,20.4c18.6,1.1,36.8,5.2,54,12.2l-54,54V20.4z
			 M270.3,114.9l73.2-73.2c10.8,6,21,13.2,30.3,21.4L270.3,166.6V114.9z M283.9,181.2L388,77.1c8.2,9.3,15.4,19.5,21.5,30.3
			l-73.9,73.8H283.9z M363.9,181.2l54.8-54.8c7.2,17.5,11.4,36,12.5,54.8H363.9z"/>
	</g>
</g>
<g>
	<g>
		<path d="M441.7,324.2h-3.4v-42.4c0-5.5-4.4-10-9.9-10c-1.6,0-3.2,0.4-4.7,1.1l-43.3,22.7c2.6-12.6,3.9-25.5,3.9-38.3
			c0-5.5-4.4-10.1-10-10.1h-171v-171c0-5.5-4.6-10-10.1-10c-50.8-0.2-99.5,20-135.4,56c-36,36.7-55.9,84.7-55.9,135.2
			c0,105.4,85.5,191.2,191,191.2c23.9,0,47.4-4.2,68.4-12.6v22.8c0.2,5.7,4.8,10.2,10.5,10.4h33c4.6-0.1,8.6-3.3,9.7-7.8l10.8-43.8
			l98.5,51.5c1.4,0.7,3,1.1,4.6,1.1c1.8,0,3.6-0.5,5.1-1.5c3-1.8,4.8-5.1,4.8-8.6v-43.9h3.4c14.9,0,26.6-12.4,26.6-27.2v-37.5
			C468.3,336.7,456.6,324.2,441.7,324.2z M296.9,449.2h-15.6v-32h23.4L296.9,449.2z M317.3,397.2h-44c-14.4,0-26-11.6-26-26
			c0-14.4,11.6-26,26-26h44V397.2z M324.9,325.2h-51.6c-25.5-0.1-46.2,20.4-46.3,45.9c-0.1,20.4,13.2,38.4,32.7,44.3
			c-21.1,8.9-43.8,13.4-66.6,13.3c-94.4,0-171.2-76.9-171.2-171.3c0-45.3,17.9-88.3,50.2-121.1c29.7-29.7,69.3-47.5,111.2-49.8
			v170.9c-0.1,5.3,4.2,9.7,9.5,9.8c0.1,0,0.2,0,0.3,0H364c-0.8,13.9-3.3,27.7-7.4,41.1L324.9,325.2z M418.3,443.7l-81-42.4v-60.5
			l81-42.4V443.7z M448.3,389c0,3.8-2.7,7.2-6.6,7.2h-3.4v-52h3.4c3.8,0,6.6,3.5,6.6,7.3V389z"/>
	</g>
</g>
<g>
</g>
<g>
</g>
<g>
</g>
<g>
</g>
<g>
</g>
<g>
</g>
<g>
</g>
<g>
</g>
<g>
</g>
<g>
</g>
<g>
</g>
<g>
</g>
<g>
</g>
<g>
</g>
<g>
</g>
</svg>
