<?xml version="1.0" encoding="iso-8859-1"?>
<!-- Generator: Adobe Illustrator 19.0.0, SVG Export Plug-In . SVG Version: 6.00 Build 0)  -->
<svg version="1.1" id="Capa_1" xmlns="http://www.w3.org/2000/svg" xmlns:xlink="http://www.w3.org/1999/xlink" x="0px" y="0px"
	 viewBox="0 0 455.6 455.6" style="enable-background:new 0 0 455.6 455.6;" xml:space="preserve">
<g>
	<g>
		<path d="M179.6,92h-60.7c-5.6,0.1-10.1,4.7-10.1,10.3v253c0.1,5.4,4.5,9.8,9.9,9.7c0.1,0,0.1,0,0.2,0h60.7
			c5.5,0,10.2-4.2,10.2-9.7v-253C189.7,96.7,185.2,92.1,179.6,92z M169.8,345h-41v-83h41V345z M169.8,242h-41V112h41V242z"/>
	</g>
</g>
<g>
	<g>
		<path d="M71.5,173H10.8c-5.4-0.1-9.9,4.3-10,9.7v0.1v172.5c0,5.4,4.4,9.7,9.8,9.7c0.1,0,0.1,0,0.2,0h60.7c5.5,0,10.3-4.2,10.3-9.7
			V182.8C81.8,177.3,77,173,71.5,173z M61.8,345h-41v-83h41V345z M61.8,242h-41v-49h41V242z"/>
	</g>
</g>
<g>
	<g>
		<path d="M427.9,310h-3.1v-42.7c-0.1-3.5-1.9-6.8-5-8.6c-3-1.8-6.8-1.9-9.9-0.3l-3.1,1.6V10.3c0.1-5.6-4.3-10.2-9.9-10.3h-61.8
			c-5.6,0.1-10.2,4.7-10.3,10.3v292.5l-13.7,7.2h-13.3V56.3c0-5.6-4.5-10.2-10.1-10.3H227c-5.6,0.1-10.1,4.7-10.2,10.3V338
			c-2,5.7-3.8,11.9-3.8,18.4c0,21.1,14.3,39.6,34.8,44.8v42.9c0.1,5.5,4.5,9.8,10,9.8h0.1h33c4.6,0.1,8.6-3,9.7-7.5l10.8-43.6
			l98.5,51.6c1.4,0.8,3,1.2,4.6,1.2c1.9,0,3.7-0.5,5.3-1.4c3-1.8,4.9-5,5-8.5V401h3.1c14.7,0.2,26.8-11.7,26.9-26.4
			c0-0.1,0-0.1,0-0.2V337C454.8,322.1,442.7,310,427.9,310z M236.8,66h41v176h-41V66z M236.8,262h41v48h-18.3
			c-7.9,0.1-15.7,2.2-22.7,6V262z M283,434h-15.2v-31h23L283,434z M303.8,383h-44.3c-14.6-0.1-26.3-11.9-26.3-26.5
			c0-14.6,11.7-26.4,26.3-26.5h44.3V383z M344.8,20h42v222h-42V20z M344.8,262h42v8.4l-42,21.9V262z M404.8,429.2l-81-42.4v-60.5
			l81-42.4V429.2z M434.8,374.4c0,3.7-3,6.6-6.7,6.6c-0.1,0-0.2,0-0.2,0h-3.1v-51h3.1c3.8,0,6.9,3.1,6.9,7V374.4z"/>
	</g>
</g>
<g>
</g>
<g>
</g>
<g>
</g>
<g>
</g>
<g>
</g>
<g>
</g>
<g>
</g>
<g>
</g>
<g>
</g>
<g>
</g>
<g>
</g>
<g>
</g>
<g>
</g>
<g>
</g>
<g>
</g>
</svg>
