<?xml version="1.0" encoding="iso-8859-1"?>
<!-- Generator: Adobe Illustrator 19.0.0, SVG Export Plug-In . SVG Version: 6.00 Build 0)  -->
<svg version="1.1" id="Capa_1" xmlns="http://www.w3.org/2000/svg" xmlns:xlink="http://www.w3.org/1999/xlink" x="0px" y="0px"
	 viewBox="0 0 507.569 507.569" style="enable-background:new 0 0 507.569 507.569;" xml:space="preserve">
<g>
	<g>
		<path d="M470.134,361.8h-3.4v-42.6c0-5.5-4.5-10-10-10c-1,0-2.1,0.2-3,0.5V10c0-5.5-4.5-10-10-10c-2.9,0-5.7,1.3-7.6,3.5
			l-46.1,54.5l-29-16c-4.5-2.5-10.2-1.2-13.1,3.1l-33.9,49.3l-38-9.3c-3.7-0.9-7.6,0.4-10,3.3l-33.5,39.9l-39.4-36.8
			c-3.1-2.9-7.6-3.5-11.3-1.6l-30.1,15.1l-43-37.5c-2-1.8-4.7-2.6-7.4-2.4c-2.6,0.2-5.1,1.5-6.7,3.6l-23.9,28.6V57.1
			c-0.1-5.6-4.7-10.2-10.3-10.3h-40c-5.5,0-9.7,4.8-9.7,10.3v336.3c0,16.5,13.2,30.4,29.7,30.4h217.5c5.2,14.4,17,25.4,31.8,29.4
			v42.9c0,5.5,4.9,9.7,10.4,9.7h33c4.6,0.1,8.6-3,9.7-7.4l10.8-43.6l98.5,51.6c4.9,2.6,10.9,0.7,13.5-4.1c0.8-1.4,1.2-3,1.2-4.7
			v-44.8h3.4c14.5,0.2,26.5-11.5,26.6-26c0-0.2,0-0.3,0-0.5v-37.5C496.834,374.1,484.934,361.9,470.134,361.8z M70.734,128.4
			l32.6-39.2l40.2,35.2c3,2.7,7.4,3.2,11,1.4l29.9-14.9l42,39.2c4,3.8,10.4,3.6,14.1-0.5c0.1-0.1,0.2-0.3,0.4-0.4l36.3-43.2
			l38.7,9.5c4,1,8.3-0.6,10.6-4.1l32.6-47.5l28.2,15.6c4.2,2.3,9.4,1.3,12.5-2.3l33.9-39.9v80.3l-38.7,5.3c-2.5,0.3-4.7,1.6-6.3,3.5
			l-34.7,41.4l-38.4-23.5c-4.2-2.6-9.7-1.7-12.9,2.1l-39,46.4l-46.5-19.2c-3.6-1.5-7.8-0.7-10.7,1.9l-37.8,35.4l-22.7-39.1
			c-2.8-4.8-8.9-6.4-13.7-3.6c-0.4,0.2-0.7,0.4-1,0.7l-31.2,23.9l-29.4-17.8V128.4z M70.734,198.3l24.9,15c3.5,2.1,7.9,1.9,11.1-0.6
			l27.7-21.1l23.3,40.2c1.5,2.6,4.2,4.4,7.2,4.9c0.5,0.1,1,0.1,1.5,0.1c2.5,0,5-1,6.8-2.7l42.3-39.6l47.3,19.5
			c4,1.7,8.7,0.5,11.5-2.8l38.2-45.4l38.4,23.5c4.2,2.6,9.7,1.7,12.9-2.1l37.8-45l32.1-4.4V217l-31.9-11.6c-4.5-1.6-9.5,0.1-12,4.2
			l-34.8,57.1l-35.1-23.3c-4.3-2.9-10.1-2-13.3,2.1l-36.5,45.2l-35.5-28.7c-3.5-2.8-8.4-3-12.1-0.4l-35.5,25.1l-44.3-28.4
			c-3.9-2.5-9-2-12.3,1.2l-35.4,34l-24.3-7.2V198.3z M255.634,403.8h-215.2c-5.5,0-9.7-4.9-9.7-10.4V66.8h20v306.6
			c0,5.5,4.2,10.4,9.7,10.4h202.3C258.734,389.8,256.334,396.7,255.634,403.8z M325.234,485.8h-15.5v-31h23.3L325.234,485.8z
			 M345.734,434.8h-44c-14.6-0.1-26.3-11.9-26.3-26.5c0-14.6,11.7-26.4,26.3-26.5h44V434.8z M353.234,361.8h-51.5
			c-3.8,0.2-7.5,0.8-11.1,2h-219.9v-56.7l24.2,7.2c0.9,0.3,1.8,0.4,2.8,0.4c2.6,0,5-1,6.9-2.8l34-32.6l43.4,27.8
			c3.4,2.2,7.8,2.1,11.2-0.3l34.8-24.6l37.4,30.2c4.3,3.5,10.6,2.8,14.1-1.5l37-45.9l36.2,24c4.6,3.1,10.8,1.8,13.9-2.8
			c0.1-0.1,0.1-0.2,0.2-0.3l36-59l31.1,11.3v81.7L353.234,361.8z M446.734,481.1l-81-42.4v-60.5l81-42.4V481.1z M476.734,388.9v37.4
			c0.1,3.5-2.7,6.4-6.1,6.5c-0.2,0-0.3,0-0.5,0h-3.4v-51h3.4c3.8,0.1,6.7,3.2,6.6,7V388.9z"/>
	</g>
</g>
<g>
</g>
<g>
</g>
<g>
</g>
<g>
</g>
<g>
</g>
<g>
</g>
<g>
</g>
<g>
</g>
<g>
</g>
<g>
</g>
<g>
</g>
<g>
</g>
<g>
</g>
<g>
</g>
<g>
</g>
</svg>
