<?xml version="1.0" encoding="iso-8859-1"?>
<!-- Generator: Adobe Illustrator 19.0.0, SVG Export Plug-In . SVG Version: 6.00 Build 0)  -->
<svg version="1.1" id="Capa_1" xmlns="http://www.w3.org/2000/svg" xmlns:xlink="http://www.w3.org/1999/xlink" x="0px" y="0px"
	 viewBox="0 0 479.9 479.9" style="enable-background:new 0 0 479.9 479.9;" xml:space="preserve">
<g>
	<g>
		<path d="M150.5,292.6c-6.6-10.3-11.3-21.8-13.8-33.8c-1-4.6-5.1-8-9.8-8H10c-2.7,0-5.3,1.1-7.1,3.1c-1.9,2-2.9,4.6-2.9,7.3
			c0,0.5,0,0.6,0.1,1.6c4.4,45.7,22.3,89.1,51.6,124.5c1.8,2.1,4.4,3.4,7.2,3.5c0.2,0,0.3,0,0.5,0c2.7,0,5.2-1.1,7.1-2.9l82.7-82.8
			C152.5,301.8,153.1,296.6,150.5,292.6z M60.3,365.8c-20.6-27.9-34.1-60.5-39.1-94.9H119c2.5,8.9,6,17.5,10.5,25.7L60.3,365.8z"/>
	</g>
</g>
<g>
	<g>
		<path d="M211.2,334.2c-11.8-2.4-22.9-7.1-33-13.7c-4-2.6-9.2-2.1-12.6,1.3l-82.7,82.8c-2,2-3.1,4.7-3,7.6c0.1,2.8,1.4,5.4,3.5,7.2
			c35.5,29.1,78.8,47,124.4,51.6c1,0.1,1.1,0.1,1.6,0.1c0.1,0,0.3,0,0.4,0c5.5,0,10-4.5,10-10V344.2
			C219.9,339.1,216.2,334.9,211.2,334.2z M199.9,449.8c-34.3-5-66.9-18.4-94.8-39.1l69.1-69.1c8.1,4.5,16.7,8.1,25.7,10.5V449.8z"/>
	</g>
</g>
<g>
	<g>
		<path d="M461.9,217.5C451.3,108,364.2,20.6,254.8,9.6c-5.5-0.6-10.4,3.5-11,8.9c0,0.3,0,0.6,0,0.9c0,0-0.2,29.3-0.4,58.5
			c-0.1,14.6-0.2,29.3-0.3,40.3c0,5.5-0.1,10.1-0.1,13.3c0,1.6,0,2.9,0,3.8c0,8.1,4.8,10.5,7.7,11.1c0.1,0,0.1,0.1,0.2,0.1
			c37.2,7.9,66.3,37,74.1,74.3c1,4.7,5,8,9.8,8.1l117.2-0.3c2.8-0.1,5.5-1.3,7.4-3.4C461.3,223.1,462.2,220.3,461.9,217.5z
			 M342.7,208.6c-11-38.6-41.1-68.7-79.6-79.8c0-17.5,0.3-62.1,0.6-97.9c91.4,14.3,162.9,86.1,177,177.5L342.7,208.6z"/>
	</g>
</g>
<g>
	<g>
		<path d="M209.8,8.8c-0.4,0-0.8,0-1.2,0.1c-0.1,0-0.3,0-0.4,0c-109.6,10.6-197,97.7-208,206.9c-0.6,5.5,3.5,10.4,8.9,10.9
			c0.3,0.2,0.7,0.2,1,0.2h117c4.7,0,8.8-3.3,9.8-7.9c7.9-36.3,37.8-65.8,74.3-73.4c4.6-1,8-5,8-9.8l0.5-117
			C219.7,13.3,215.3,8.8,209.8,8.8z M21.4,206.9c0.9-5.6,2-11.2,3.3-16.7l16.7,16.7H21.4z M69.7,206.9l-38.4-38.4
			c2.4-6.8,5.2-13.5,8.3-20L98,206.9H69.7z M121,201.7l-71.5-71.5c3.5-5.8,7.3-11.4,11.4-16.9l69,69
			C126.3,188.5,123.4,195,121,201.7z M148.9,157.4c-2.6,2.6-5.1,5.3-7.5,8.1L73.5,97.6c2.4-2.7,5-5.3,7.5-7.9c2.3-2,4.5-4.1,6.7-6.2
			l67.8,67.8C153.2,153.2,151,155.3,148.9,157.4z M172.1,139.6l-68.9-68.9c5.4-4.1,11-7.9,16.8-11.5l71.3,71.3
			C184.6,132.9,178.2,136,172.1,139.6z M199.3,110.2l-61-61c6.5-3.2,13.1-6,19.8-8.4l41.3,41.3L199.3,110.2z M199.5,53.9l-19.8-19.8
			c6.5-1.6,13.2-3,19.9-4L199.5,53.9z"/>
	</g>
</g>
<g>
	<g>
		<path d="M452.9,299.9h-3v-42.3c-0.1-5.5-4.6-10-10.2-9.9c-1.7,0-3.3,0.5-4.7,1.3l-98.9,52h-51.6c-25.4-0.1-46.2,20.4-46.3,45.8
			c-0.1,21.2,14.2,39.7,34.7,44.9v42.9c0,5.5,4.5,10.4,10,10.4h33c4.6-0.1,8.6-3.3,9.7-7.8l10.8-43.8l98.5,51.5
			c1.4,0.7,3,1.1,4.6,1.1c1.9,0,3.7-0.5,5.4-1.5c3-1.8,4.9-5,5-8.6v-44h3c14.9-0.1,27-12.3,27-27.2v-37.5
			C479.9,312.4,467.7,299.9,452.9,299.9z M308,424.9h-15.1v-32h22.9L308,424.9z M328.9,372.9h-44.4c-14.4,0.1-26.2-11.4-26.3-25.8
			c0-0.1,0-0.1,0-0.2c0-14.4,11.7-26,26.2-26c0.1,0,0.1,0,0.2,0h44.3V372.9z M429.9,419.4l-81-42.4v-60.5l81-42.4V419.4z
			 M459.9,364.7c0,3.9-3.1,7.1-7,7.2h-3v-52h3c3.9,0.2,7,3.4,7,7.4V364.7z"/>
	</g>
</g>
<g>
</g>
<g>
</g>
<g>
</g>
<g>
</g>
<g>
</g>
<g>
</g>
<g>
</g>
<g>
</g>
<g>
</g>
<g>
</g>
<g>
</g>
<g>
</g>
<g>
</g>
<g>
</g>
<g>
</g>
</svg>
