<?xml version="1.0" encoding="iso-8859-1"?>
<!-- Generator: Adobe Illustrator 19.0.0, SVG Export Plug-In . SVG Version: 6.00 Build 0)  -->
<svg version="1.1" id="Capa_1" xmlns="http://www.w3.org/2000/svg" xmlns:xlink="http://www.w3.org/1999/xlink" x="0px" y="0px"
	 viewBox="0 0 494.001 494.001" style="enable-background:new 0 0 494.001 494.001;" xml:space="preserve">
<g>
	<g>
		<path d="M395,19.664c0,0,0,0-0.1,0l-101.8-7.2c-5.5-0.4-10.3,3.8-10.7,9.3c-0.4,5.5,3.7,10.2,9.2,10.7l75.8,5.4l-136.8,106.3
			l-102.2-80.6c-3.9-3.1-9.5-2.8-13.1,0.6l-104.2,100c-4,3.8-4.1,10.2-0.3,14.1c1.9,2,4.5,3.1,7.2,3.1c2.6,0,5.1-1,6.9-2.8
			l97.9-93.9l101.6,80c3.6,2.8,8.7,2.9,12.3,0l145.7-113.1l-5.5,71.8c-0.4,5.5,3.7,10.3,9.2,10.7c0.3,0,0.5,0,0.8,0
			c5.2,0,9.6-4,10-9.2l7.3-94.5C404.6,24.863,400.5,20.063,395,19.664z"/>
	</g>
</g>
<g>
	<g>
		<path d="M467.3,335.964c-0.05,0-0.075,0-0.075,0H464.1v-42.9c0-3.5-1.9-6.8-4.9-8.6s-6.6-1.9-9.7-0.3l-73.4,38.6v-115.6
			c-0.1-5.6-4.7-10.1-10.3-10.2h-63.7c-5.6,0.1-10,4.6-10,10.2v129.3c-22.3,3.2-39,22-39.6,44.5h-4.4v-141.9
			c0-5.6-4.5-10.1-10.1-10.1h-63.6c-5.6,0-10.2,4.5-10.3,10.1v141.9h-44v-99.3c0-5.3-4.2-9.7-9.5-9.7c-0.1,0-0.2,0-0.3,0H46.6
			c-5.2-0.1-9.5,4-9.5,9.2c0,0.2,0,0.3,0,0.5v99.3H10c-5.5,0-10,4.5-10,10s4.5,10,10,10h246.4c5.6,13,16.9,22.7,30.7,26.2v42.9
			c0.1,5.5,4.6,9.9,10.1,9.9h33c4.6,0,8.6-3.1,9.7-7.5l10.8-43.6l98.5,51.6c1.4,0.8,3,1.1,4.6,1.1c1.9,0,3.7-0.5,5.3-1.4
			c3-1.8,4.9-5,4.9-8.5v-44.7h3.1c14.8,0.1,26.8-11.8,26.9-26.6v-0.1v-37.5C494.1,347.964,482.1,335.964,467.3,335.964z
			 M100.1,380.964h-43v-89h43V380.964z M228.1,380.964h-44v-132h44V380.964z M322.4,459.964h-15.3v-31h23.1L322.4,459.964z
			 M343.1,408.964h-44.3c-10.9-0.1-20.7-6.9-24.6-17.1l-1.5-6.2c-0.1-1.1-0.2-2.2-0.2-3.3c0-14.5,11.8-26.3,26.3-26.4h44.3V408.964z
			 M356.1,333.164l-5.7,2.8h-38.3v-119h44V333.164z M444.1,454.964l-81-42.4v-60.5l81-42.4V454.964z M474.1,362.863v37.4
			c0,3.7-3,6.7-6.7,6.7c-0.1,0-0.1,0-0.2,0h-3.1v-51h3.1c3.8,0,6.8,3,6.9,6.8V362.863z"/>
	</g>
</g>
<g>
</g>
<g>
</g>
<g>
</g>
<g>
</g>
<g>
</g>
<g>
</g>
<g>
</g>
<g>
</g>
<g>
</g>
<g>
</g>
<g>
</g>
<g>
</g>
<g>
</g>
<g>
</g>
<g>
</g>
</svg>
