<?xml version="1.0" encoding="iso-8859-1"?>
<!-- Generator: Adobe Illustrator 19.0.0, SVG Export Plug-In . SVG Version: 6.00 Build 0)  -->
<svg version="1.1" id="Capa_1" xmlns="http://www.w3.org/2000/svg" xmlns:xlink="http://www.w3.org/1999/xlink" x="0px" y="0px"
	 viewBox="0 0 465.901 465.901" style="enable-background:new 0 0 465.901 465.901;" xml:space="preserve">
<g>
	<g>
		<path d="M99,189H10c-5.5,0-10,4.5-10,10v120c0,5.5,4.5,10,10,10h89c5.5,0,10-4.5,10-10V199C109,193.5,104.5,189,99,189z M89,309
			H20V209h69V309z"/>
	</g>
</g>
<g>
	<g>
		<path d="M439.2,303H436v-42.5c0-3.5-1.9-6.8-4.9-8.6c-3.1-1.8-6.9-1.9-10.1-0.3l-13,6.7V27.1c0-5.5-4.1-10.1-9.6-10.1h-89
			c-5.6,0-10.2,4.5-10.4,10.1V303h-28.2c-4,0-8,0.7-11.8,2V128.9c0-5.5-4.8-9.9-10.4-9.9h-89c-5.3,0-9.6,4.3-9.7,9.6
			c0,0.1,0,0.2,0,0.3V319c-0.2,5.4,4.1,9.9,9.5,10.1c0.1,0,0.1,0,0.2,0h69.7c-3.3,6.4-5,13.5-5,20.7c0,21.1,14.2,39.5,34.6,44.8
			v42.9c0,5.5,4.7,9.6,10.2,9.6h33c4.6,0.1,8.6-3,9.7-7.4l10.8-43.6l98.5,51.6c1.4,0.8,3,1.2,4.6,1.2c1.9,0,3.7-0.5,5.3-1.4
			c3-1.8,4.9-5,4.9-8.5v-44h3.2c14.9,0,26.8-12.5,26.8-27.4v-37.5C466,315.3,454.1,303.1,439.2,303z M239,309h-69V139h69V309z
			 M294.3,427H279v-31h23.1L294.3,427z M315,376h-44.2c-14.6-0.1-26.4-11.9-26.3-26.5c0-14.6,11.7-26.4,26.3-26.5H315V376z
			 M322.3,303H319V37h69v231.8L322.3,303z M416,422.4L335,380v-60.5l81-42.4V422.4z M446,367.6c0,3.8-3,7.4-6.8,7.4H436v-52h3.2
			c3.9,0.1,6.9,3.3,6.8,7.2V367.6z"/>
	</g>
</g>
<g>
</g>
<g>
</g>
<g>
</g>
<g>
</g>
<g>
</g>
<g>
</g>
<g>
</g>
<g>
</g>
<g>
</g>
<g>
</g>
<g>
</g>
<g>
</g>
<g>
</g>
<g>
</g>
<g>
</g>
</svg>
