<?xml version="1.0" encoding="iso-8859-1"?>
<!-- Generator: Adobe Illustrator 19.0.0, SVG Export Plug-In . SVG Version: 6.00 Build 0)  -->
<svg version="1.1" id="Capa_1" xmlns="http://www.w3.org/2000/svg" xmlns:xlink="http://www.w3.org/1999/xlink" x="0px" y="0px"
	 viewBox="0 0 486.407 486.407" style="enable-background:new 0 0 486.407 486.407;" xml:space="preserve">
<g>
	<g>
		<path d="M185.407,280.183h-56c-5.5,0-10,4.5-10,10v92c0,5.5,4.5,10,10,10h56c5.5,0,10-4.5,10-10v-92
			C195.407,284.683,190.907,280.183,185.407,280.183z M175.407,372.183h-36v-72h36V372.183z"/>
	</g>
</g>
<g>
	<g>
		<path d="M69.407,259.183h-56c-5.5,0-10,4.5-10,10v113c0,5.5,4.5,10,10,10h56c5.5,0,10-4.5,10-10v-113
			C79.407,263.683,74.907,259.183,69.407,259.183z M60.407,372.183h-37v-93h37V372.183z"/>
	</g>
</g>
<g>
	<g>
		<path d="M418.307,29.583c-15.7-16.8-42.2-17.6-59-1.9c-11.3,10.6-15.8,26.5-11.7,41.4l-45.3,32.1c-16.2-16.4-42.7-16.6-59.1-0.4
			c-11.6,11.5-15.5,28.6-9.9,44l-41.9,35.3c-13.2-18.9-39.3-23.6-58.2-10.3c-7.2,5-12.6,12.2-15.5,20.4l-34.7-14.1
			c-3.9-22.8-25.4-38.1-48.2-34.2c-22.8,3.9-38.1,25.4-34.2,48.2c3.9,22.8,25.4,38.1,48.2,34.2c15-2.5,27.4-13,32.5-27.3l34.7,14.1
			c3.8,22.8,25.4,38.1,48.2,34.3c20.1-3.4,34.8-20.8,34.8-41.2c0-1.3-0.1-2.7-0.2-4l45.6-38.7c17.1,15.5,43.5,14.3,59-2.8
			c9.9-10.9,13.3-26.2,9.1-40.2l44.9-31.8c15.8,16.8,42.2,17.6,59,1.9C433.207,72.883,434.007,46.383,418.307,29.583z
			 M41.807,204.883c-12,0-21.8-9.8-21.8-21.8s9.8-21.9,21.8-21.9s21.8,9.8,21.8,21.8C63.607,195.083,53.907,204.883,41.807,204.883z
			 M157.207,225.783c-12,0-21.8-9.8-21.8-21.8s9.8-21.8,21.8-21.8s21.8,9.8,21.8,21.8
			C179.007,216.083,169.207,225.783,157.207,225.783z M272.507,152.383c-12,0-21.8-9.8-21.8-21.8c0-12,9.8-21.8,21.8-21.8
			s21.8,9.8,21.8,21.8S284.507,152.383,272.507,152.383z M387.907,79.983c-12,0-21.8-9.8-21.8-21.8c0-12.1,9.7-21.8,21.8-21.8
			c12,0,21.8,9.8,21.8,21.8S399.907,79.983,387.907,79.983z"/>
	</g>
</g>
<g>
	<g>
		<path d="M459.907,324.183h-3.5v-42.6c0-3.5-1.8-6.7-4.8-8.6c-2.9-1.8-6.6-1.9-9.6-0.3l-15.6,8.3v-137.5
			c-0.1-5.6-4.7-10.2-10.3-10.3h-56.3c-5.6,0.1-10.2,4.7-10.3,10.3v177.5l-6.4,3.2h-32.7v-108.6c0-5.5-4.2-10.4-9.7-10.4h-56.3
			c-5.5,0-10,4.9-10,10.4v166.3c0,5.6,4.4,10.1,10,10.2h5.9c6,11,17.1,20.1,29.1,23.5v42.9c0,5.5,5,9.6,10.5,9.6h33
			c4.6,0.1,8.6-3,9.7-7.4l10.8-43.5l98.5,51.6c1.4,0.8,3,1.2,4.6,1.2c1.8,0,3.6-0.5,5.1-1.4c3-1.8,4.8-5.1,4.8-8.5v-43.9h3.5
			c14.9,0,26.5-12.6,26.5-27.4v-37.5C486.407,336.483,474.707,324.183,459.907,324.183z M254.407,343.083v-117.9h36v99.3
			C276.107,324.683,262.807,331.583,254.407,343.083z M315.007,448.183h-15.6v-31h23.4L315.007,448.183z M335.407,397.183h-43.9
			c-14.6-0.1-26.3-11.9-26.3-26.5c0-14.6,11.7-26.4,26.3-26.5h43.9V397.183z M369.407,153.183h37v138.3l-37,19V153.183z
			 M436.407,443.483l-81-42.4v-60.5l81-42.4V443.483z M466.407,388.783c0,3.8-2.7,7.4-6.5,7.4h-3.5v-52h3.5c3.8,0,6.5,3.3,6.5,7.1
			V388.783z"/>
	</g>
</g>
<g>
</g>
<g>
</g>
<g>
</g>
<g>
</g>
<g>
</g>
<g>
</g>
<g>
</g>
<g>
</g>
<g>
</g>
<g>
</g>
<g>
</g>
<g>
</g>
<g>
</g>
<g>
</g>
<g>
</g>
</svg>
