<?xml version="1.0" encoding="iso-8859-1"?>
<!-- Generator: Adobe Illustrator 19.0.0, SVG Export Plug-In . SVG Version: 6.00 Build 0)  -->
<svg version="1.1" id="Capa_1" xmlns="http://www.w3.org/2000/svg" xmlns:xlink="http://www.w3.org/1999/xlink" x="0px" y="0px"
	 viewBox="0 0 500.028 500.028" style="enable-background:new 0 0 500.028 500.028;" xml:space="preserve">
<g>
	<g>
		<path d="M395.864,7.227l-101.9-7.2c-5.5-0.4-10.3,3.7-10.7,9.2c-0.4,5.5,3.7,10.3,9.2,10.7c0,0,0,0,0.1,0l75.8,5.4l-136.9,106.4
			l-102.2-80.5c-3.9-3.1-9.5-2.8-13.1,0.6l-104.2,99.9c-4,3.8-4.1,10.2-0.3,14.1c1.9,2,4.5,3.1,7.2,3.1c2.6,0,5.1-1,6.9-2.8
			l97.9-93.9l101.6,80c3.6,2.8,8.7,2.9,12.3,0l145.7-113.1l-5.5,71.8c-0.4,5.5,3.7,10.3,9.2,10.7c0.3,0,0.5,0,0.8,0
			c5.2,0,9.6-4,10-9.2l7.3-94.5C405.464,12.427,401.364,7.627,395.864,7.227z"/>
	</g>
</g>
<g>
	<g>
		<path d="M376.964,236.127v-41.3c0-5.5-4.8-9.6-10.4-9.6h-63.6c-5.4-0.2-9.8,4-10,9.4c0,0.1,0,0.2,0,0.2v63.5
			c-18.8,12.4-34,29.6-44,49.9v-81.4c0-5.5-4.6-9.6-10.1-9.6h-63.6c-5.5,0-10.3,4-10.3,9.6v141.3h-44v-98.8
			c0.1-5.5-4.3-10.1-9.9-10.2h-63.6c-5.5,0-9.5,4.6-9.5,10.2v98.8h-27.1c-5.5,0-10,4.5-10,10s4.5,10,10,10h225.2
			c9.9,64.5,65.4,112.1,130.7,111.9c72.9,0,132.4-59.2,132.4-132.2C499.264,298.227,444.964,241.127,376.964,236.127z
			 M100.964,368.127h-43v-89h43V368.127z M228.964,368.127h-44v-131h44V368.127z M312.964,205.127h44v31c-15.2,1.1-30.1,4.9-44,11.1
			V205.127z M366.764,480.227c-62,0-112.3-50.3-112.3-112.3s50.3-112.3,112.3-112.3s112.3,50.3,112.3,112.3
			C478.964,429.927,428.764,480.227,366.764,480.227z"/>
	</g>
</g>
<g>
	<g>
		<path d="M441.964,358.127h-17.6c-4.1-12-15-19.5-27.8-19.5s-23.7,7.5-27.8,19.5h-68.2c-5.5,0-10,4.5-10,10s4.5,10,10,10h68.2
			c4.1,11,15,19.5,27.8,19.5c12.4-0.2,23.4-7.9,27.8-19.5h17.6c5.5,0,10-4.5,10-10S447.464,358.127,441.964,358.127z
			 M396.564,377.327c-5.3,0-9.5-4.3-9.5-9.5s4.3-9.5,9.5-9.5c5.3,0,9.5,4.3,9.5,9.5
			C406.064,373.027,401.864,377.327,396.564,377.327z"/>
	</g>
</g>
<g>
	<g>
		<path d="M441.964,408.127h-68.2c-4.4-11.6-15.4-19.4-27.8-19.5c-12.8,0-23.7,8.5-27.8,19.5h-17.6c-5.5,0-10,4.5-10,10
			s4.5,10,10,10h17.6c4.1,12,15,19.5,27.8,19.5s23.7-7.5,27.8-19.5h68.2c5.5,0,10-4.5,10-10S447.464,408.127,441.964,408.127z
			 M345.964,428.127c-5.3,0-9.5-4.3-9.5-9.5c0-5.3,4.3-9.5,9.5-9.5c5.3,0,9.5,4.3,9.5,9.5S351.164,428.127,345.964,428.127z"/>
	</g>
</g>
<g>
	<g>
		<path d="M441.964,309.127h-68.2c-4.1-12-15-19.5-27.8-19.5s-23.7,7.5-27.8,19.5h-17.6c-5.5,0-10,4.5-10,10s4.5,10,10,10h17.6
			c4.1,11,15,19.5,27.8,19.5c12.4-0.2,23.4-7.9,27.8-19.5h68.2c5.5,0,10-4.5,10-10S447.464,309.127,441.964,309.127z
			 M345.964,328.227c-5.3,0-9.5-4.3-9.5-9.5c0-5.3,4.3-9.5,9.5-9.5c5.3,0,9.5,4.3,9.5,9.5
			C355.464,324.027,351.164,328.227,345.964,328.227z"/>
	</g>
</g>
<g>
</g>
<g>
</g>
<g>
</g>
<g>
</g>
<g>
</g>
<g>
</g>
<g>
</g>
<g>
</g>
<g>
</g>
<g>
</g>
<g>
</g>
<g>
</g>
<g>
</g>
<g>
</g>
<g>
</g>
</svg>
