<?xml version="1.0" encoding="iso-8859-1"?>
<!-- Generator: Adobe Illustrator 19.0.0, SVG Export Plug-In . SVG Version: 6.00 Build 0)  -->
<svg version="1.1" id="Capa_1" xmlns="http://www.w3.org/2000/svg" xmlns:xlink="http://www.w3.org/1999/xlink" x="0px" y="0px"
	 viewBox="0 0 467.7 467.7" style="enable-background:new 0 0 467.7 467.7;" xml:space="preserve">
<g>
	<g>
		<path d="M99,176.85H10c-5.5,0-10,4.5-10,10v120c0,5.5,4.5,10,10,10h89c5.5,0,10-4.5,10-10v-120C109,181.35,104.5,176.85,99,176.85
			z M89,296.85H20v-100h69V296.85z"/>
	</g>
</g>
<g>
	<g>
		<path d="M408,220.15V14.85c0-5.5-4-10-9.5-10h-89c-5.5,0-9.5,4.5-9.5,10v188.4c-14.7,4.1-28.6,10.8-41,19.7v-106.3
			c-0.1-5.5-4.7-9.9-10.3-9.8h-89c-5.3-0.1-9.7,4.2-9.8,9.5c0,0.1,0,0.2,0,0.3v190.1c-0.1,5.5,4.2,10,9.7,10.1c0,0,0,0,0.1,0h44.4
			c-0.5,4.6-0.7,9.2-0.7,13.8c0,72.9,59.3,132.2,132.3,132.2s132-59.4,132-132.3C467.7,286.05,445.3,244.55,408,220.15z M320,24.85
			h68v184.4c-16.5-7.3-34.3-11-52.3-11c-5.3,0-10.5,0.3-15.7,1V24.85z M170,296.85v-170h69v113.9c-14.9,15.8-25.7,35.1-31.1,56.1
			H170z M335.7,442.85c-62,0-112.3-50.3-112.3-112.3s50.3-112.3,112.3-112.3S448,268.55,448,330.55
			C447.9,392.55,397.7,442.75,335.7,442.85z"/>
	</g>
</g>
<g>
	<g>
		<path d="M409,317.85h-17.6c-4.1-12-15-19.5-27.8-19.5s-23.7,7.5-27.8,19.5h-68.2c-5.5,0-10,4.5-10,10s4.5,10,10,10h68.2
			c4.1,11,15,19.5,27.8,19.5c12.4-0.2,23.4-7.9,27.8-19.5H409c5.5,0,10-4.5,10-10S414.5,317.85,409,317.85z M363.6,337.05
			c-5.3,0-9.5-4.3-9.5-9.5s4.3-9.5,9.5-9.5s9.5,4.3,9.5,9.5C373.1,332.75,368.9,337.05,363.6,337.05z"/>
	</g>
</g>
<g>
	<g>
		<path d="M409,367.85h-68.2c-4.1-11-15-19.5-27.8-19.5s-23.7,8.5-27.8,19.5h-17.6c-5.5,0-10,4.5-10,10s4.5,10,10,10h17.6
			c4.1,12,15,19.5,27.8,19.5s23.7-7.5,27.8-19.5H409c5.5,0,10-4.5,10-10S414.5,367.85,409,367.85z M313,387.85
			c-5.3,0-9.5-4.3-9.5-9.5c0-5.3,4.3-9.5,9.5-9.5c5.3,0,9.5,4.3,9.5,9.5S318.2,387.85,313,387.85z"/>
	</g>
</g>
<g>
	<g>
		<path d="M409,268.85h-68.2c-4.1-12-15-19.5-27.8-19.5s-23.7,7.5-27.8,19.5h-17.6c-5.5,0-10,4.5-10,10s4.5,10,10,10h17.6
			c4.1,11,15,19.5,27.8,19.5s23.7-8.5,27.8-19.5H409c5.5,0,10-4.5,10-10S414.5,268.85,409,268.85z M313,287.95
			c-5.3,0-9.5-4.3-9.5-9.5c0-5.3,4.3-9.5,9.5-9.5c5.3,0,9.5,4.3,9.5,9.5C322.5,283.75,318.2,287.95,313,287.95z"/>
	</g>
</g>
<g>
</g>
<g>
</g>
<g>
</g>
<g>
</g>
<g>
</g>
<g>
</g>
<g>
</g>
<g>
</g>
<g>
</g>
<g>
</g>
<g>
</g>
<g>
</g>
<g>
</g>
<g>
</g>
<g>
</g>
</svg>
