<?xml version="1.0" encoding="iso-8859-1"?>
<!-- Generator: Adobe Illustrator 19.0.0, SVG Export Plug-In . SVG Version: 6.00 Build 0)  -->
<svg version="1.1" id="Capa_1" xmlns="http://www.w3.org/2000/svg" xmlns:xlink="http://www.w3.org/1999/xlink" x="0px" y="0px"
	 viewBox="0 0 500 500" style="enable-background:new 0 0 500 500;" xml:space="preserve">
<g>
	<g>
		<path d="M178.7,99.8H118c-5.4-0.1-9.9,4.2-10.1,9.6v0.1v253c0,5.6,4.5,10.1,10.1,10.2h60.7c5.6-0.1,10.2-4.6,10.3-10.2v-253
			C189,104,184.3,99.8,178.7,99.8z M169,352.8h-41v-84h41V352.8z M169,248.8h-41v-129h41V248.8z"/>
	</g>
</g>
<g>
	<g>
		<path d="M70.6,179.8H10c-5.6,0.1-10,4.7-10,10.2v172.5c0,5.6,4.4,10.1,10,10.2h60.7c5.6-0.1,10.2-4.6,10.4-10.2V190
			C80.9,184.4,76.3,179.9,70.6,179.8z M61,352.8H20v-84h41V352.8z M61,248.8H20v-49h41V248.8z"/>
	</g>
</g>
<g>
	<g>
		<path d="M406,233.2V17.6c0-5.4-4.3-9.7-9.7-9.8c-0.1,0-0.2,0-0.2,0h-61.8c-5.5,0-10.3,4.2-10.3,9.8v217.3c-9,3.4-19,7.9-27,13.3
			V63.6c-0.1-5.5-4.6-9.8-10.1-9.8c0,0,0,0-0.1,0h-60.7c-5.5-0.1-10,4.2-10.2,9.7c0,0,0,0,0,0.1v299c0.1,5.6,4.6,10.1,10.2,10.2h9.9
			c6.7,67.7,63.6,119.4,131.6,119.4c73.1,0,132.4-59.4,132.4-132.4C500,300.2,460,249.7,406,233.2z M344,27.8h42v201
			c-6.1-0.8-12.3-1.3-18.4-1.3c-7.9,0-15.8,0.7-23.6,2.1V27.8z M236,73.8h41v175h-41V73.8z M236,268.8h35.6
			c-19.5,21-32.6,47.8-35.6,77.6V268.8z M367.8,472c-62,0-112.3-50.3-112.3-112.3s50.3-112.3,112.3-112.3S480,297.8,480,359.8
			S429.7,472,367.8,472z"/>
	</g>
</g>
<g>
	<g>
		<path d="M471.4,354.1c-8.7-11.3-18.6-21.7-29.5-30.9c-24.4-20.6-49.9-31.5-73.9-31.5s-49.5,10.9-73.9,31.5
			c-10.9,9.2-20.8,19.6-29.5,30.9c-2.6,3.5-2.6,8.3,0,11.8c8.7,11.3,18.6,21.7,29.5,30.9c24.4,20.6,50,31.5,73.9,31.5
			c23.9,0,49.5-10.9,73.9-31.5c10.9-9.2,20.8-19.6,29.5-30.9C474,362.4,474,357.6,471.4,354.1z M368,408.4
			c-37.5,0-70.5-34.3-82.5-48.3c12-14.1,45-48.3,82.5-48.3s70.5,34.3,82.5,48.3C438.6,374.1,405.5,408.4,368,408.4z"/>
	</g>
</g>
<g>
	<g>
		<path d="M368,317.9c-23.3,0-42.2,18.9-42.2,42.2s18.9,42.2,42.2,42.2s42.2-18.9,42.2-42.2C410.2,336.8,391.3,317.9,368,317.9z
			 M368,382.2c-12.2,0-22.2-9.9-22.2-22.2c0-12.2,9.9-22.2,22.2-22.2c12.2,0,22.2,9.9,22.2,22.2C390.2,372.3,380.3,382.2,368,382.2z
			"/>
	</g>
</g>
<g>
</g>
<g>
</g>
<g>
</g>
<g>
</g>
<g>
</g>
<g>
</g>
<g>
</g>
<g>
</g>
<g>
</g>
<g>
</g>
<g>
</g>
<g>
</g>
<g>
</g>
<g>
</g>
<g>
</g>
</svg>
